/* XPM */
static char * ardour3_xpm[] = {
"32 32 341 2",
"  	c None",
". 	c #344962",
"+ 	c #334862",
"@ 	c #131D2B",
"# 	c #38506B",
"$ 	c #223246",
"% 	c #798695",
"& 	c #788595",
"* 	c #213144",
"= 	c #3D5877",
"- 	c #25303E",
"; 	c #CAD9EA",
"> 	c #C0D3E7",
", 	c #222E3E",
"' 	c #324861",
") 	c #152130",
"! 	c #9CAAB9",
"~ 	c #C4D5E9",
"{ 	c #B8CDE4",
"] 	c #889CB2",
"^ 	c #142030",
"/ 	c #1C2734",
"( 	c #334B66",
"_ 	c #455160",
": 	c #CADAEC",
"< 	c #BBCFE5",
"[ 	c #AFC6E0",
"} 	c #A9C3E0",
"| 	c #38485B",
"1 	c #2E445C",
"2 	c #101B28",
"3 	c #B7C5D5",
"4 	c #C0D2E6",
"5 	c #B3C8E1",
"6 	c #A7C0DC",
"7 	c #9BB8D8",
"8 	c #8AA6C5",
"9 	c #0E1927",
"0 	c #2A3C50",
"a 	c #293C52",
"b 	c #697785",
"c 	c #C6D7EA",
"d 	c #B7CCE3",
"e 	c #ABC3DE",
"f 	c #9FBAD9",
"g 	c #92B1D4",
"h 	c #8DAED4",
"i 	c #495F79",
"j 	c #25384F",
"k 	c #436081",
"l 	c #1A2533",
"m 	c #C6D5E6",
"n 	c #BCCFE5",
"o 	c #B0C6E0",
"p 	c #A4BDDB",
"q 	c #97B4D5",
"r 	c #8AABD1",
"s 	c #7EA2CB",
"t 	c #7EA3CC",
"u 	c #132030",
"v 	c #314760",
"w 	c #1B2A3A",
"x 	c #8D9BA9",
"y 	c #C2D4E8",
"z 	c #B4C9E1",
"A 	c #A8C0DD",
"B 	c #9BB7D7",
"C 	c #8EAED2",
"D 	c #82A5CD",
"E 	c #749BC7",
"F 	c #6E97C7",
"G 	c #517094",
"H 	c #162638",
"I 	c #37516E",
"J 	c #354150",
"K 	c #B8CCE3",
"L 	c #ACC3DE",
"M 	c #92B0D4",
"N 	c #86A7CE",
"O 	c #799EC9",
"P 	c #6B94C3",
"Q 	c #5E8ABE",
"R 	c #6795C7",
"S 	c #203247",
"T 	c #30465F",
"U 	c #121D2B",
"V 	c #ACBACA",
"W 	c #BED0E6",
"X 	c #B0C7E0",
"Y 	c #A4BEDB",
"Z 	c #97B4D6",
"` 	c #8AAAD0",
" .	c #7EA1CB",
"..	c #7198C6",
"+.	c #638EC0",
"@.	c #5583BA",
"#.	c #5C83AD",
"$.	c #0E1A29",
"%.	c #233242",
"&.	c #2F445C",
"*.	c #596574",
"=.	c #B5C9E2",
"-.	c #8EADD2",
";.	c #82A3CC",
">.	c #759BC7",
",.	c #6790C2",
"'.	c #5986BB",
").	c #507FB8",
"!.	c #4F7EB7",
"~.	c #608EC3",
"{.	c #324A65",
"].	c #2A3E56",
"^.	c #141F2C",
"/.	c #C0CFDF",
"(.	c #BACDE3",
"_.	c #ADC4DE",
":.	c #A0BBD9",
"<.	c #94B1D4",
"[.	c #86A7CF",
"}.	c #799DC9",
"|.	c #6C94C3",
"1.	c #5F8ABE",
"2.	c #5180B8",
"3.	c #4E7DB6",
"4.	c #6591BF",
"5.	c #2F435A",
"6.	c #233346",
"7.	c #7D8A99",
"8.	c #BACFE6",
"9.	c #ADC6E1",
"0.	c #A3BFDD",
"a.	c #98B5D4",
"b.	c #90B2D7",
"c.	c #7097C4",
"d.	c #638EBE",
"e.	c #5584B9",
"f.	c #4E7EB5",
"g.	c #4D7DB5",
"h.	c #4C7CB4",
"i.	c #4B7BB4",
"j.	c #5887BC",
"k.	c #446283",
"l.	c #1D2F43",
"m.	c #3D5978",
"n.	c #273342",
"o.	c #C9D9EB",
"p.	c #BED1E7",
"q.	c #67798C",
"r.	c #71849B",
"s.	c #90ABC7",
"t.	c #07101C",
"u.	c #65809E",
"v.	c #7DA4D0",
"w.	c #76A0CE",
"x.	c #5F8EC2",
"y.	c #4C7CB5",
"z.	c #4B7BB5",
"A.	c #4A7AB4",
"B.	c #4979B4",
"C.	c #4979B3",
"D.	c #6693C5",
"E.	c #18283A",
"F.	c #314861",
"G.	c #162231",
"H.	c #9FADBC",
"I.	c #BBCDDF",
"J.	c #B7CCE2",
"K.	c #0D1825",
"L.	c #182534",
"M.	c #546980",
"N.	c #142232",
"O.	c #2E4156",
"P.	c #6E93BB",
"Q.	c #132132",
"R.	c #6189B4",
"S.	c #4A79B4",
"T.	c #4978B3",
"U.	c #4877B3",
"V.	c #4877B2",
"W.	c #4F7EB6",
"X.	c #5579A0",
"Y.	c #121F30",
"Z.	c #1B2633",
"`.	c #334B65",
" +	c #485564",
".+	c #BDCEDE",
"++	c #0D1724",
"@+	c #637486",
"#+	c #0F1A28",
"$+	c #08121F",
"%+	c #43576E",
"&+	c #293E56",
"*+	c #3C5570",
"=+	c #0C1726",
"-+	c #3A5572",
";+	c #6C9ACB",
">+	c #6896C8",
",+	c #4676B1",
"'+	c #4676B0",
")+	c #4575AF",
"!+	c #2D435B",
"~+	c #121D2A",
"{+	c #B8C7D7",
"]+	c #8E9EAF",
"^+	c #050E1A",
"/+	c #303E4E",
"(+	c #1A2839",
"_+	c #0D1826",
":+	c #32445A",
"<+	c #324A66",
"[+	c #192739",
"}+	c #2D435C",
"|+	c #1F3146",
"1+	c #2E455E",
"2+	c #263A52",
"3+	c #6492C5",
"4+	c #4575B0",
"5+	c #4474AE",
"6+	c #628BB7",
"7+	c #0D1827",
"8+	c #2A3B4F",
"9+	c #2A3C53",
"0+	c #6C7988",
"a+	c #AABACB",
"b+	c #79899B",
"c+	c #091321",
"d+	c #1C2837",
"e+	c #223347",
"f+	c #142131",
"g+	c #223244",
"h+	c #38516D",
"i+	c #111E2E",
"j+	c #23364C",
"k+	c #2C435C",
"l+	c #2C425C",
"m+	c #081320",
"n+	c #0A1523",
"o+	c #6692C1",
"p+	c #4777B1",
"q+	c #4272AD",
"r+	c #4171AD",
"s+	c #5684BB",
"t+	c #3B5674",
"u+	c #24384F",
"v+	c #436182",
"w+	c #1C2735",
"x+	c #8F9CAC",
"y+	c #2D3947",
"z+	c #182739",
"A+	c #091320",
"B+	c #263950",
"C+	c #192839",
"D+	c #3B5572",
"E+	c #19293C",
"F+	c #354E6A",
"G+	c #213449",
"H+	c #0D1928",
"I+	c #142233",
"J+	c #628AB5",
"K+	c #4B6C8F",
"L+	c #6792C0",
"M+	c #4574AF",
"N+	c #4070AC",
"O+	c #406FAB",
"P+	c #6592C2",
"Q+	c #31475F",
"R+	c #1C2A3B",
"S+	c #909EAD",
"T+	c #5F6D7D",
"U+	c #060F1B",
"V+	c #24384E",
"W+	c #293D55",
"X+	c #1D2E41",
"Y+	c #07111E",
"Z+	c #3D5774",
"`+	c #3A5571",
" @	c #172638",
".@	c #1B2B3E",
"+@	c #395370",
"@@	c #5D8BC0",
"#@	c #4D6E92",
"$@	c #172639",
"%@	c #38516E",
"&@	c #333F4E",
"*@	c #93A1B1",
"=@	c #344152",
"-@	c #344D69",
";@	c #324B66",
">@	c #30475F",
",@	c #283E56",
"'@	c #3A526C",
")@	c #152334",
"!@	c #3E5976",
"~@	c #07101D",
"{@	c #1E3045",
"]@	c #1F3247",
"^@	c #273C53",
"/@	c #456485",
"(@	c #5E8CC1",
"_@	c #4474AF",
":@	c #618FC3",
"<@	c #121D2C",
"[@	c #677381",
"}@	c #476483",
"|@	c #1F2F43",
"1@	c #253546",
"2@	c #24364C",
"3@	c #1A2633",
"4@	c #354C65",
"5@	c #385370",
"6@	c #3D5876",
"7@	c #3F5B7A",
"8@	c #283748",
"9@	c #203248",
"0@	c #314863",
"a@	c #3C5673",
"b@	c #101D2D",
"c@	c #597EA5",
"d@	c #5D83AC",
"e@	c #5F8DC2",
"f@	c #5E84AE",
"g@	c #0E1A2A",
"h@	c #233141",
"i@	c #24354B",
"j@	c #08121E",
"k@	c #39526E",
"l@	c #3D5874",
"m@	c #304762",
"n@	c #425F7E",
"o@	c #152335",
"p@	c #0F1C2B",
"q@	c #38526F",
"r@	c #1C2D41",
"s@	c #283D55",
"t@	c #131F2E",
"u@	c #293E54",
"v@	c #2F4258",
"w@	c #2C4259",
"x@	c #293F57",
"y@	c #2F455F",
"z@	c #1D2F44",
"                                                                ",
"                                                                ",
"                                                                ",
"                            . +                                 ",
"                            @ @ #                               ",
"                          $ % & *                               ",
"                        = - ; > , '                             ",
"                        ) ! ~ { ] ^ /                           ",
"                      ( _ : < [ } | 1                           ",
"                      2 3 4 5 6 7 8 9 0                         ",
"                    a b c d e f g h i j                         ",
"                  k l m n o p q r s t u v                       ",
"                  w x y z A B C D E F G H                       ",
"                I J : K L f M N O P Q R S T                     ",
"                U V W X Y Z `  ...+.@.@.#.$.%.                  ",
"              &.*.c =.A B -.;.>.,.'.).!.~.{.].                  ",
"              ^./.(._.:.<.[.}.|.1.2.!.3.3.4.$.5.                ",
"            6.7.y 8.9.0.a.b.c.d.e.f.g.h.i.j.k.l.                ",
"          m.n.o.p.q.r.s.t.u.v.w.x.y.z.A.B.C.D.E.F.              ",
"          G.H.I.J.K.L.M.N.O.P.Q.R.).S.T.U.V.W.X.Y.Z.            ",
"        `. +.+++@+#+$+%+&+$ *+=+-+;+>+g.,+'+)+x.&+!+            ",
"        ~+{+]+^+/+(+_+:+<+[+}+|+{.1+2+3+4+)+5+'+6+7+8+          ",
"      9+0+a+b+c+d+e+f+g+h+i+j+k+l+m+n+o+!.p+q+r+s+t+u+          ",
"    v+w+x+^+y+z+A+B+C+f+D+=+E+F+G+H+I+J+K+L+M+N+O+P+Y.Q+        ",
"    R+S+T+H+U+V+^+W+X+Y+Z+Y+i+`+I+ @.@t+^++@R @@N+i.#@$@        ",
"  %@&@*@=@-@^+;@^+>@,@Y+'@)@=+!@~@{@]@E+E+^@m./@(@_@:@S T       ",
"  <@[@^+~@}@|@1@2@3@4@5@  6@7@8@9@`+0@^+a@=+$.b@c@d@e@f@g@h@    ",
"i@^+j@6@k@                            l@  m@n@o@p@p@m.q@r@s@    ",
"t@u@                                            v@w@x@y@z@l.    ",
"                                                                ",
"                                                                ",
"                                                                "};
