/* XPM */
static char * ardour_xpm[] = {
"12 12 63 1",
" 	c None",
".	c #4E0707",
"+	c #991818",
"@	c #640B0B",
"#	c #B35050",
"$	c #360101",
"%	c #7A3131",
"&	c #E76060",
"*	c #8D2525",
"=	c #580909",
"-	c #5E1010",
";	c #C35757",
">	c #D94A4A",
",	c #D02F2F",
"'	c #660C0C",
")	c #761010",
"!	c #883B3B",
"~	c #F46262",
"{	c #D63737",
"]	c #C81919",
"^	c #911212",
"/	c #801212",
"(	c #410909",
"_	c #B14A4A",
":	c #952727",
"<	c #D52626",
"[	c #D61D1D",
"}	c #D21818",
"|	c #450606",
"1	c #931717",
"2	c #641010",
"3	c #5E0D0D",
"4	c #300303",
"5	c #540E0E",
"6	c #961111",
"7	c #640D0D",
"8	c #D31D1D",
"9	c #C41D1D",
"0	c #460606",
"a	c #280303",
"b	c #690606",
"c	c #220000",
"d	c #4D0505",
"e	c #6F0606",
"f	c #230000",
"g	c #740F0F",
"h	c #BD1D1D",
"i	c #971717",
"j	c #520A0A",
"k	c #600E0E",
"l	c #380505",
"m	c #7C1313",
"n	c #961616",
"o	c #AA1A1A",
"p	c #A61B1B",
"q	c #8A1414",
"r	c #4E0909",
"s	c #2B0101",
"t	c #5B0A0A",
"u	c #5E0B0B",
"v	c #821515",
"w	c #590B0B",
"x	c #610D0D",
"            ",
"     .+     ",
"    @#$     ",
"    %&*=    ",
"   -;>,'    ",
"  )!~{]^/   ",
"  (_:<[}|1  ",
" 234567890  ",
" abcdefghij ",
"klmnopqrstu ",
" 2      vwx ",
"            "};
