/* XPM */
static char *armagetronad_xpm[] = {
/* width height ncolors chars_per_pixel */
"12 12 80 1",
/* colors */
"  c black",
". c #82793A",
"X c #351F09",
"o c #E5BE63",
"O c #4D2F10",
"+ c #211A13",
"@ c #655B59",
"# c #B6A259",
"$ c #D9AD61",
"% c #C5954A",
"& c #120A04",
"* c #1C1611",
"= c #222324",
"- c #583817",
"; c #BE8A39",
": c #1B0F06",
"> c #D7AF4E",
", c #101112",
"< c #A36928",
"1 c #CC9346",
"2 c #292A2A",
"3 c #836A29",
"4 c #242425",
"5 c #131211",
"6 c #815A27",
"7 c #0B0A09",
"8 c #F5D071",
"9 c #261709",
"0 c #050403",
"q c #101011",
"w c #56320D",
"e c #060607",
"r c #7A6F30",
"t c #130F0D",
"y c #3C2C1E",
"u c #080502",
"i c #201F20",
"p c #BD8436",
"a c #69451F",
"s c #1D1D1D",
"d c #F1C05F",
"f c #7B562A",
"g c #151515",
"h c #180D04",
"j c #090909",
"k c gray1",
"l c #3D2411",
"z c #905D27",
"x c #3A291B",
"c c #9E713B",
"v c #C49E4C",
"b c #080807",
"n c #444C4F",
"m c #A97C2E",
"M c #3E2711",
"N c #7F5E40",
"B c #35210B",
"V c #261B10",
"C c #B8B153",
"Z c #190B03",
"A c #251608",
"S c #AD9B4B",
"D c #4C4C4F",
"F c #141718",
"G c gray19",
"H c #F2C55D",
"J c #BB7C3B",
"K c #CB8B44",
"L c #FFC463",
"P c #A49145",
"I c #202020",
"U c #6E7373",
"Y c #C9AC52",
"T c gray8",
"R c #040201",
"E c #0C0C0C",
"W c gray3",
"Q c #482E12",
"! c #0D0703",
"~ c None",
/* pixels */
"~~~~~~~~~~~~",
"~~~~~Eb3p<N~",
"~~~~jr>cxBXU",
"~~~eS$@Gq9Vt",
"~~#Y%DIj0A+M",
"~8odH;lW752y",
"wf1LvR*4in,~",
"OzJKTk!=g~~~",
"hQa-sF6~~~~~",
" u:& .P~~~~~",
"~  ZmC~~~~~~",
"~~~~~~~~~~~~"
};
