/* XPM */
static char *audacious_xpm[] = {
/* width height ncolors chars_per_pixel */
"12 12 34 1",
/* colors */
"  c black",
". c #B1B1B1",
"X c #A7A7A7",
"o c gray49",
"O c #7B7B7B",
"+ c #777777",
"@ c #555555",
"# c gray30",
"$ c #434343",
"% c #D8D8D8",
"& c #252525",
"* c gray13",
"= c gray9",
"- c #111111",
"; c gray76",
": c gray6",
"> c #BCBCBC",
", c gray1",
"< c #B4B4B4",
"1 c #010101",
"2 c #7C7C7C",
"3 c gray47",
"4 c #767676",
"5 c #646464",
"6 c #323232",
"7 c gray85",
"8 c #D7D7D7",
"9 c gray14",
"0 c gray8",
"q c gray7",
"w c #0E0E0E",
"e c #B9B9B9",
"r c #B7B7B7",
"t c gray71",
/* pixels */
"            ",
"            ",
"   :4..4:   ",
"  :e%;;7e:  ",
"  +73=157+  ",
"  <7X#,=7<  ",
"  t70&*97t  ",
"  O7@w6$7O  ",
"  ->7877>q  ",
"   qorr2q   ",
"            ",
"            "
};
