/* XPM */
static char *audacious2_xpm[] = {
/* width height ncolors chars_per_pixel */
"12 12 42 1",
/* colors */
"  c black",
". c #B1B1B1",
"X c #AFAFAF",
"o c gray57",
"O c #8D8D8D",
"+ c #898989",
"@ c #838383",
"# c #656565",
"$ c #5B5B5B",
"% c gray31",
"& c gray30",
"* c #434343",
"= c #272727",
"- c #D8D8D8",
"; c #252525",
": c #D0D0D0",
"> c #1D1D1D",
", c #CECECE",
"< c #1B1B1B",
"1 c #151515",
"2 c gray73",
"3 c gray69",
"4 c gray59",
"5 c #868686",
"6 c #848484",
"7 c gray51",
"8 c gray48",
"9 c #767676",
"0 c gray40",
"q c #4E4E4E",
"w c #464646",
"e c gray26",
"r c #3C3C3C",
"t c gray85",
"y c #D7D7D7",
"u c gray14",
"i c gray81",
"p c gray10",
"a c #181818",
"s c gray78",
"d c #040404",
"f c None",
/* pixels */
"ffffO@@Offff",
"ffo0<pp<0off",
"f6r&X,,X&r6f",
"f0&i-ssti&0f",
"7aXt4u +tXa7",
"51it29d=ti15",
"51it;w*eti15",
"7a3t8>$#t3a7",
"f0q:tytt:q0f",
"f6r%.ii.%r6f",
"ffo0<pp<0off",
"ffffO@@Offff"
};
