/* XPM */
static char *noname[] = {
/* width height ncolors chars_per_pixel */
"12 12 95 2",
/* colors */
"   c #E5E4E4",
" . c #8D8B87",
" X c gray60",
" o c #979797",
" O c #CCCCCB",
" + c #959595",
" @ c #939393",
" # c #C8C8C7",
" $ c gray57",
" % c #8D8D8D",
" & c #AFAEAB",
" * c gray53",
" = c #9F9E9B",
" - c #23221E",
" ; c #EFEFF0",
" : c #827A7B",
" > c #9F9E9E",
" , c #676767",
" < c #3E3D38",
" 1 c #949493",
" 2 c #E9E6E3",
" 3 c #555555",
" 4 c #FDEBC5",
" 5 c #535353",
" 6 c #515151",
" 7 c gray31",
" 8 c gray99",
" 9 c #7E7E7D",
" 0 c gray28",
" q c #F0E8D9",
" w c #FEE9C9",
" e c #434343",
" r c #F4F4F4",
" t c #414141",
" y c #F9E48F",
" u c #EFEEEF",
" i c #ECECEC",
" p c #EAEAEA",
" a c #353535",
" s c #313131",
" d c #DADADA",
" f c gray84",
" g c gray12",
" h c #CDC3AC",
" j c #CECECE",
" k c gray80",
" l c #151515",
" z c #BFBEBF",
" x c #737371",
" c c #E2DED7",
" v c #949491",
" b c #D7D7D6",
" n c #9A9A9A",
" m c #989898",
" M c #F3F0EE",
" N c gray59",
" B c gray58",
" V c #929292",
" C c #3A3935",
" Z c #909090",
" A c #8E8E8E",
" S c #F6E09E",
" D c #282723",
" F c #AAA9A9",
" G c #6C6C6C",
" H c #6A6A6A",
" J c gray40",
" K c #8A8986",
" L c #E3DFDA",
" P c #393833",
" I c #8E8D8D",
" U c #C0C0BE",
" Y c gray33",
" T c gray32",
" R c #505050",
" E c #848383",
" W c #4E4E4E",
" Q c white",
" ! c #4C4C4C",
" ~ c #FDFDFD",
" ^ c #FBFBFB",
" / c #F9F9F9",
" ( c gray97",
" ) c gray26",
" _ c #F1F1F1",
" ` c #3E3E3E",
" ' c #EFEFEF",
" ] c #3A3A3A",
" [ c gray22",
" { c gray21",
" } c #323232",
" | c gray19",
".  c light grey",
".. c gray11",
".X c #7C7C7A",
/* pixels */
" G ] , H a 6 5 g T J t ,",
" n ) Z m 0 $ N ! B @ e @",
" j / / / / / / / / / / j",
".  Q Q 8 ~ Q Q Q f b Q. ",
".  Q   F I p r U ..X Q. ",
".  Q o h > E 1 x O ^ Q. ",
".  r z q ' * v = & K _. ",
".  Q M 2 c L : P < C u. ",
".  Q 4 S y w # 9 D - ;. ",
" k ( ( ( ( ( ( ( i d ( k",
" X s % + [ A B ` $ Z } V",
" 3 l ! 6 | W R.. W 7 { Y"
};
