/* XPM */
static char *bluefish_xpm[] = {
/* width height ncolors chars_per_pixel */
"12 12 75 1",
/* colors */
"  c #2C60A2",
". c #264E85",
"X c #7EAAD8",
"o c #335E95",
"O c #255287",
"+ c #1E3C69",
"@ c #3F6EA7",
"# c #446DA2",
"$ c #EEF0F3",
"% c #23477B",
"& c #314C6B",
"* c #162436",
"= c #295184",
"- c #6495CB",
"; c #325B90",
": c #1C3456",
"> c #214272",
", c #537699",
"< c #2B61A3",
"1 c #1E3B68",
"2 c #224679",
"3 c #A2BDDC",
"4 c #2F6EB7",
"5 c #4A76AD",
"6 c #9FACBB",
"7 c #3675BD",
"8 c #4A75A9",
"9 c #7DA7D1",
"0 c #5381B5",
"q c gray80",
"w c #486889",
"e c #3570B5",
"r c #2A5D9D",
"t c #244B80",
"y c #3C6CA8",
"u c #2F4A6D",
"i c #384E65",
"p c #1B2938",
"a c #2D5992",
"s c #507EB1",
"d c #26518B",
"f c #4974AA",
"g c #5684BA",
"h c #3070B9",
"j c #888888",
"k c #2E67AD",
"l c #254C83",
"z c #5282B9",
"x c #3174C0",
"c c #2C62A4",
"v c #497FBD",
"b c #142847",
"n c #3E5C7A",
"m c #255089",
"M c #203E6D",
"N c #5685B9",
"B c #395B82",
"V c #2E558B",
"C c #2D66AB",
"Z c #455A70",
"A c #5E83B0",
"S c #3A6093",
"D c #2F6CB3",
"F c #6581A6",
"G c #33588C",
"H c #376AA7",
"J c #4B76AA",
"K c #294E82",
"L c #919AA6",
"P c #90A9C6",
"I c #406A9F",
"U c #334F71",
"Y c #8695A8",
"T c #3767A3",
"R c None",
/* pixels */
"RRRRRRRRRRRR",
"RRRRRRRRRRiR",
"RRBOe0URRZ,R",
"RN7xv-g=R9wR",
"RAhx3$6IaXnR",
"RHD4PqjFd#pR",
"RcCk5LYSlKRR",
"Rm <ro;t%GRR",
"RsyT@z.%+*uR",
"R&8JfV21RRRR",
"RRR:>MbRRRRR",
"RRRRRRRRRRRR"
};
