/* XPM */
static char *calf_xpm[] = {
/* width height ncolors chars_per_pixel */
"32 32 363 2",
/* colors */
"   c #EBE9E0",
" . c #DBD7CD",
" X c #BAB3A6",
" o c #EAE7DF",
" O c #DAD5CC",
" + c #E9E7DE",
" @ c #A38F75",
" # c #D9D3CB",
" $ c #D8D3CA",
" % c #655942",
" & c #F7F5EF",
" * c #E4E3D9",
" = c #E5E1DA",
" - c #CABEAF",
" ; c #F3F3EB",
" : c #C2BDB1",
" > c #D2CDC4",
" , c #0B0704",
" < c #E1DDD6",
" 1 c #EFEDE7",
" 2 c #CECBC0",
" 3 c #BEB7AD",
" 4 c #FEFDF9",
" 5 c #FCFBF7",
" 6 c #CBC7BD",
" 7 c #FBFBF6",
" 8 c #CAC5BC",
" 9 c #FAF9F5",
" 0 c #C9C5BB",
" q c #CAC3BC",
" w c #C9C3BB",
" e c #866C4B",
" r c #F5F3F0",
" t c #F1EFEC",
" y c #E4DED2",
" u c #FEFDFC",
" i c #E2DAD0",
" p c #050301",
" a c #E6E5E1",
" s c #D9D2C7",
" d c #D7D2C5",
" f c #41311E",
" g c #BCAD9A",
" h c #C5C0B0",
" j c #F5F4E9",
" k c #8A775F",
" l c #7C7165",
" z c #F0EEE4",
" x c #E0DCD1",
" c c #DFDCD0",
" v c #CFCABD",
" b c #EFECE3",
" n c #BEB8A9",
" m c #EEECE2",
" M c #CEC8BC",
" N c #C8C7C0",
" B c #CDC8BB",
" V c #453925",
" C c #BBB4A6",
" Z c #CAC4B8",
" A c #FAF8F1",
" S c #F9F8F0",
" D c #C9C2B7",
" F c #D8D2C9",
" G c #CCC3B0",
" H c #B7B0A2",
" J c #F7F6EE",
" K c #D7D2C8",
" L c #C6C0B4",
" P c #F5F4EC",
" I c #D5D0C6",
" U c #C3BEB1",
" Y c #B3AC9E",
" T c #D3CEC4",
" R c #D2CCC3",
" E c #E1DED5",
" W c #FFFEF9",
" Q c #FDFCF7",
" ! c #FCFCF6",
" ~ c #FCFAF6",
" ^ c #FBFAF5",
" / c #DBD6CF",
" ( c #FAFAF4",
" ) c #E9E8E0",
" _ c #FAF8F4",
" ` c #EAE6E1",
" ' c #C9C4BA",
" ] c #D8D4CC",
" [ c #F7F6F1",
" { c #D6D4CA",
" } c #1B1002",
" | c #E5E2DC",
".  c #140D05",
".. c #C1BCB2",
".X c #FEFEFB",
".o c #CBC6BF",
".O c #C9C4BD",
".+ c #F8F8F5",
".@ c #816B48",
".# c gray98",
".$ c #030201",
".% c #EDEBE0",
".& c #D8D8D2",
".* c #DED7CE",
".= c #C3B0A3",
".- c #EAE7DD",
".; c #A9A190",
".: c #8E7C65",
".> c #E9E5DC",
"., c #C8C3B5",
".< c #B8B1A2",
".1 c #F8F7EE",
".2 c #674821",
".3 c #E7E5DA",
".4 c #D6D1C6",
".5 c #F5F5EB",
".6 c #54452C",
".7 c #C5BFB2",
".8 c #F4F3EA",
".9 c #D3CFC3",
".0 c #C3BDB0",
".q c #D3CDC3",
".w c #B2AB9C",
".e c #F2F1E8",
".r c #F1EFE7",
".t c #0B0702",
".y c #B0A99A",
".u c #BFB9AC",
".i c #D4CABA",
".p c #1E160E",
".a c #FEFDF7",
".s c #FCFBF5",
".d c #DBD7CE",
".f c #FBF9F4",
".g c #D9D5CC",
".h c #D8D5CB",
".j c #F8F7F1",
".k c #C6C1B6",
".l c #F5F3EE",
".z c #140C04",
".x c #F4F3ED",
".c c #E3DFD9",
".v c #D1CDC4",
".b c #CECBC1",
".n c #FEFDFA",
".m c #4C3D27",
".M c #674F31",
".N c #EDEBE6",
".B c #CBC7BE",
".V c #CBC5BE",
".C c #FAF9F6",
".Z c #C9C3BC",
".A c #C8C3BB",
".S c #69471F",
".D c #F5F3F1",
".F c #120C05",
".G c #D6CEC2",
".H c #A89981",
".J c #B1A38D",
".K c #EAE8DC",
".L c #594A30",
".P c #F7F6EC",
".I c #56462D",
".U c #110C07",
".Y c #D2CFCB",
".T c #C5C0B1",
".R c #B5AE9E",
".E c #E5E2D7",
".W c #F4F2E9",
".Q c #E4E0D6",
".! c #9E886D",
".~ c #D3CEC2",
".^ c #827662",
"./ c #F3F0E8",
".( c #C0BAAC",
".) c #9F9685",
"._ c #DFDCD1",
".` c #BEB8AA",
".' c #CEC8BD",
".] c #EEEAE3",
".[ c #DDD8CF",
".{ c #BCB6A8",
".} c #715D44",
".| c #CCC6BB",
"X  c #FCFAF4",
"X. c #FBFAF3",
"XX c #DAD6CC",
"Xo c #D9D6CB",
"XO c #C8C4B7",
"X+ c #D9D4CB",
"X@ c #C8C2B7",
"X# c #C7C2B6",
"X$ c #D7D2C9",
"X% c #E6E4DB",
"X& c #53442D",
"X* c #F4F2EC",
"X= c #E2DED7",
"X- c #D0CCC2",
"X; c #FEFEF9",
"X: c #FCFAF7",
"X> c #CBC6BD",
"X, c #FBFAF6",
"X< c #E9E6E1",
"X1 c #C7C2B9",
"X2 c #F5F4F0",
"X3 c #FEFEFC",
"X4 c #CBC8C0",
"X5 c #9C917E",
"X6 c #140F09",
"X7 c #836D4B",
"X8 c #AD9C88",
"X9 c #D7D1C5",
"X0 c #0F0904",
"Xq c #F3F1E7",
"Xw c #E2DFD3",
"Xe c #F2EFE6",
"Xr c #DED9CF",
"Xt c #CDC7BB",
"Xy c #BB9F8F",
"Xu c #CCC7BA",
"Xi c #010000",
"Xp c #BBB5A6",
"Xa c #3B270E",
"Xs c #DBD7CC",
"Xd c #CBC5B9",
"Xf c #FBF9F2",
"Xg c #BAB3A5",
"Xh c #FAF9F1",
"Xj c #594932",
"Xk c #795C37",
"Xl c #897D6B",
"Xz c #E9E7DD",
"Xx c #C9C3B7",
"Xc c #C8C3B6",
"Xv c #D9D3CA",
"Xb c #D8D3C9",
"Xn c #C8C1B6",
"Xm c #D7D1C8",
"XM c #D6D1C7",
"XN c #D6CFC7",
"XB c #F5F3EC",
"XV c #D5CFC6",
"XC c #D4CFC5",
"XZ c #E2DDD6",
"XA c #4D3D26",
"XS c #FEFDF8",
"XD c #DED9D2",
"XF c #FDFDF7",
"XG c #FDFBF7",
"XH c #FCFBF6",
"XJ c #FBFBF5",
"XK c #FAF9F4",
"XL c #C9C5BA",
"XP c #C8C3B9",
"XI c #F8F7F2",
"XU c #E8E5DF",
"XY c #755C36",
"XT c #F7F5F1",
"XR c #D6D3CA",
"XE c #AA8674",
"XW c #F5F3EF",
"XQ c #D3CFC7",
"X! c #F3F1ED",
"X~ c #C7BEAE",
"X^ c #8A755B",
"X/ c #8E7455",
"X( c #EEEDE8",
"X) c #FEFDFB",
"X_ c #493B25",
"X` c #CEC6B8",
"X' c #231403",
"X] c #412706",
"X[ c #F8F7F5",
"X{ c #4C4235",
"X} c #958A76",
"X| c #938674",
"o  c #EEECE1",
"o. c #EDEAE0",
"oX c #DDD8CD",
"oo c #ACA493",
"oO c #B0A38D",
"o+ c #AAA291",
"o@ c #FAF8F0",
"o# c #F9F8EF",
"o$ c #E9E6DC",
"o% c #D9D4C9",
"o& c #C9C2B6",
"o* c #BEB19E",
"o= c #D8D4C8",
"o- c #523613",
"o; c #F8F6EE",
"o: c #C7C2B4",
"o> c #56462E",
"o, c #D7D2C7",
"o< c #C5C0B2",
"o1 c #D6D0C6",
"o2 c #D4CEC4",
"o3 c #A29889",
"o4 c #D2CCC2",
"o5 c #C1BAAE",
"o6 c #BFBAAC",
"o7 c #D0CAC0",
"o8 c #A9967C",
"o9 c #CECABE",
"o0 c #DFDAD2",
"oq c #BEB8AB",
"ow c #DEDAD1",
"oe c #CEC8BE",
"or c #DDDAD0",
"ot c #CDC8BD",
"oy c #FDFCF6",
"ou c #BCB6A9",
"oi c #DCD8CF",
"op c #CCC6BC",
"oa c #FCFAF5",
"os c #FBFAF4",
"od c #EAE8E0",
"of c #C9C4B9",
"og c #F9F8F2",
"oh c #181108",
"oj c #F7F6F0",
"ok c #5A360A",
"ol c #F3F2EC",
"oz c #F1F0EA",
"ox c #A8987E",
"oc c #FDFCF9",
"ov c #CCC8BF",
"ob c #7F7159",
"on c #A5947B",
"om c #CBC6BE",
"oM c #C9C2BC",
"oN c #564834",
"oB c #C7C2BA",
"oV c #F6F4F2",
"oC c #F5F4F1",
"oZ c #FEFEFD",
"oA c #D2CBBE",
"oS c #483C26",
"oD c #998D7C",
"oF c #0C0C0C",
"oG c #D6D3C5",
"oH c #E6E3D8",
"oJ c #D5D1C4",
"oK c #F4F3E9",
"oL c #C4BDB0",
"oP c #D3CFC2",
"oI c #C3BDAF",
"oU c #675237",
"oY c #F2EFE7",
"oT c #E1DDD3",
"oR c #D1CBC0",
"oE c #C0B9AC",
"oW c #E0DBD2",
"oQ c #BFB9AB",
"o! c #94938E",
"o~ c #281803",
"o^ c #D9D8D5",
"o/ c #BDB7A9",
"o( c #CEC7BD",
"o) c #DDD9CF",
"o_ c #BCB5A8",
"o` c #BBB5A7",
"o' c None",
/* pixels */
"o'o'o'o'o'o'o'o'o'o'o'o'o'o'o'o'o'o'o'o'o'o'o'o'o'o'o'o'o'o'o'o'",
"o'o'o'o'o'o'o'o'o'o'o'o'o'o'o'o'o'o'o'o'o'o'o'o'o'o'o'o'o'o'o'o'",
"o'o'o'o'o'o'o'o'o'o'o'o'o'o'o'o'o'o'o'o'o'o'o'o'o'X$ F #Xvo'o'o'",
"o'o'o'o'o'o'o'o'o'o'o'o'o'o'o'o'o'o'o'o'o'o'o'o'Xm #X2X)X!Xmo'o'",
"o'o'o'o'o'o'o'o'o'o'o'o'o'o'o'o'o'o'o'o'o'o' Ko0 r.[oY.C.#.co'o'",
"o'o'o'o'o2XMXv K $X+XNo'o'o'o'o'o' I FXMXV <.D uXJ.]Xeo!oF.YXMo'",
"o'o'o' IXM `oVX[oC tXUX=X=XZ <X= |X<.NoVoZoZX3os Ao@Xf.f No^ Ro'",
"o'o'o2o4.+oZo%oAoZoZoZoZoZoZoZoZoZoZoZoZoZX3.s Ao$./oaoZXh 7XXo'",
"o'o'o1.4X3X`.@X7.H sX3X3X3X~oWX3X3onoOX3X3 5 Ao@ =XN.locXJXB i.=",
"o' TXr OX| }o~XaX].:X8 g @.SX/ -.GXk e.*o*o;o@ ( ooto(oRowX9XyXE",
"o'o2 x.d a l fX'.p.t.$Xi p ,X0. oh.z.FX6.UX{XhXWoto'o'o'.'op Zo'",
"o2 .XMXbX3.X.>ok yo8.i.!.2X^ koDoU.}o-.M.& *X,o,.|o'o'o'o'o'o'o'",
"o2 zoR IX)X).n.% ;.1 Jo#ox G So#o.X*XY.JX.osodXdo'o'o'o'o'o'o'o'",
".qo)o7o2X).nXFX(X-ol.j.5oK j.P.W.8XG _ 9XHoz Zo'o'o'o'o'o'o'o'o'",
".qXC 0.9.n 4X:XtXx D.4 ) [ojXI 1 EXJ.n.nXTX@o'o'o'o'o'o'o'o'o'o'",
"o'o' '.9 4oc.Qo&o'o'o'Xc LXdXdXO Z ~XSXSXs Lo'o'o'o'o'o'o'o'o'o'",
"o'o'XP.~XS ^X#o'o'o'o'o'o'o'o'o'Xn   WX; vo'o'o'o'o'o'o'o'o'o'o'",
"o'o'XLoP Q.x.7o'o'o'o'o'o'o'o'o'of doyXSXxo'o'o'o'o'o'o'o'o'o'o'",
"o'o'o9 B.a &oLo'o'o'o'o'o'o'o'o'.v.7 !.a.0o'o'o'o'o'o'o'o'o'o'o'",
"o'o' > U.eXKo5o'o'o'o'o'o'o'o'.A.go: boyoEo'o'o'o'o'o'o'o'o'o'o'",
"o'o' 2 MoJ Q.7o'o'o'o'o'o'o'o'o' Koeo= &oEo'o'o'o'o'o'o'o'o'o'o'",
"o'o' 6oXo6ogoGo'o'o'o'o'o'o'o'o'XQ.Bo<.roQo'o'o'o'o'o'o'o'o'o'o'",
"o'o'X>oT : xXz.(o'o'o'o'o'o'o'o' ].Vo_o  no'o'o'o'o'o'o'o'o'o'o'",
"o'o'X4or.koI.1.{o'o'o'o'o'o'o' 8oi qo/o  Xo'o'o'o'o'o'o'o'o'o'o'",
"o'o'o'.h.bou.K.,o'o'o'o'o'o'o'omXD.OXpXq.`o'o'o'o'o'o'o'o'o'o'o'",
"o'o'o' {oi.u.EoHo`o'o'o'o'o'o'oMX% wXg PXuo'o'o'o'o'o'o'o'o'o'o'",
"o'o'o'XR.3oq cX  Co'o'o'o'o'o'X> +.o H J._Xgo'o'o'o'o'o'o'o'o'o'",
"o'o'o'ovXo...T m hooo'o'o'o'o'.Z /oB.<.-Xw.Ro'o'o'o'o'o'o'o'o'o'",
"o'o'o'X1.).^ Y.yX5obo'o'o'o'o' 3o3Xl.;.wo+X}o'o'o'o'o'o'o'o'o'o'",
"o'o'o'o'XA.m %X&.6o>o'o'o'o'o' VoSX_oNXj.I.Lo'o'o'o'o'o'o'o'o'o'",
"o'o'o'o'o'o'o'o'o'o'o'o'o'o'o'o'o'o'o'o'o'o'o'o'o'o'o'o'o'o'o'o'",
"o'o'o'o'o'o'o'o'o'o'o'o'o'o'o'o'o'o'o'o'o'o'o'o'o'o'o'o'o'o'o'o'"
};
