/* XPM */
static char *celestia_xpm[] = {
/* width height ncolors chars_per_pixel */
"12 12 59 1",
/* colors */
"  c #13130C",
". c #23231F",
"X c #202012",
"o c #6C6D38",
"O c #27313D",
"+ c #0D0D09",
"@ c #0B0B07",
"# c #929249",
"$ c #202939",
"% c #181810",
"& c #030302",
"* c #8B893B",
"= c #14140F",
"- c #E4E685",
"; c #0E0E09",
": c #1E1E1F",
"> c #DCD855",
", c #080806",
"< c #191910",
"1 c #424221",
"2 c #817F37",
"3 c #B3AE3D",
"4 c #0A0A0B",
"5 c #D3CE4F",
"6 c #C2C266",
"7 c #13130D",
"8 c #202937",
"9 c #191B19",
"0 c #090906",
"q c #9C9B4A",
"w c #1D1E16",
"e c gray2",
"r c #14140D",
"t c #57572A",
"y c #222221",
"u c #3B3B1F",
"i c #0C0C08",
"p c #404A48",
"a c #FFFFB4",
"s c #040403",
"d c #17170F",
"f c #14150F",
"g c #0F0F0A",
"h c #0D0D08",
"j c #36361C",
"k c #070705",
"l c #050503",
"z c #18180F",
"x c #232313",
"c c #12120C",
"v c #10100A",
"b c #4C4C27",
"n c #E9EB99",
"m c #0A0A07",
"M c #EEEB5F",
"N c #1D1D13",
"B c #080805",
"V c #101010",
"C c None",
/* pixels */
"CCCCCCCCCCCC",
"CCCCCCCCCCCC",
"CCCC$po>MCCC",
"CC9wNbqna5CC",
"C=dd%1*6-3CC",
"07ccrxt2#CCC",
"hg++v XjuOCC",
"mm,0ivr<N8CC",
"kksl0; z.:CC",
"Ck&s0;cdyVCC",
"C&kB@grf4eCC",
"CCCk@+0CCCCC"
};
