/* XPM */
static char *chromium_bsu_xpm[] = {
/* width height ncolors chars_per_pixel */
"12 12 69 1",
/* colors */
"  c #4642A8",
". c #0D0C10",
"X c #5D5979",
"o c #A59AC6",
"O c #938A9D",
"+ c #43415F",
"@ c #918A9E",
"# c #B3A8C6",
"$ c #878294",
"% c #2D2D35",
"& c #28283A",
"* c #313446",
"= c #625D8A",
"- c #AFA5BB",
"; c #413C45",
": c #CBC0FE",
"> c #535167",
", c #313035",
"< c #404047",
"1 c #9891A4",
"2 c #322F43",
"3 c #564F98",
"4 c #2D2B3E",
"5 c #645F6A",
"6 c #B4A3DD",
"7 c #605B66",
"8 c #5C5B79",
"9 c #6A658A",
"0 c #6C5F8C",
"q c #A496AF",
"w c #45494B",
"e c #312B8A",
"r c #353645",
"t c #726AA2",
"y c #423E55",
"u c #8D86AF",
"i c #49445F",
"p c #6F676D",
"a c #888296",
"s c #1F1B25",
"d c #554F7B",
"f c #404045",
"g c #47475C",
"h c #403F55",
"j c #4D4B65",
"k c #1F1A24",
"l c #312F71",
"z c #3E384C",
"x c #3B3F3F",
"c c #160F7E",
"v c #AAA2E4",
"b c #6661B5",
"n c #554DA1",
"m c #1B1A68",
"M c #110C72",
"N c #E1D4E8",
"B c #0C0B63",
"V c #807A8C",
"C c #35333F",
"Z c #6961A7",
"A c #201F27",
"S c #686271",
"D c #2D2A97",
"F c #393549",
"G c #373747",
"H c #C1B6CB",
"J c #0C0C62",
"K c #56556F",
"L c None",
/* pixels */
"LLLLLLLLLLLL",
"LLLLLx,LLLLL",
"LLLLLw<LLLLL",
"LLLLLJMLLLLL",
"LLL%*Bc+CLLL",
"LLLhrme>XLLL",
"LL&Gfl359=LL",
"LsgFVDnOuvdL",
"LyKz$ Z-o:6L",
"k48jabtH#Nq0",
"LLLA@i21pLLL",
"LLL.SLL7;LLL"
};
