/* XPM */
static char *cinelerra_xpm[] = {
/* width height ncolors chars_per_pixel */
"12 12 73 1",
/* colors */
"  c black",
". c #979797",
"X c #939393",
"o c gray56",
"O c #898989",
"+ c gray53",
"@ c gray50",
"# c gray49",
"$ c #797979",
"% c gray46",
"& c #6D6D6D",
"* c dim gray",
"= c gray39",
"- c #5B5B5B",
"; c gray34",
": c #535353",
"> c #515151",
", c #4B4B4B",
"< c #494949",
"1 c gray28",
"2 c gray27",
"3 c #434343",
"4 c #414141",
"5 c #3F3F3F",
"6 c gray23",
"7 c #393939",
"8 c gray20",
"9 c #2D2D2D",
"0 c gray17",
"q c #272727",
"w c #1B1B1B",
"e c #131313",
"r c gray5",
"t c gray",
"y c #090909",
"u c #070707",
"i c gray2",
"p c gray1",
"a c #010101",
"s c gray69",
"d c #989898",
"f c #909090",
"g c gray55",
"h c gray54",
"j c #7C7C7C",
"k c gray48",
"l c gray47",
"z c #6C6C6C",
"x c #606060",
"c c gray37",
"v c #565656",
"b c gray33",
"n c gray32",
"m c #505050",
"M c #4C4C4C",
"N c gray29",
"B c #464646",
"V c gray25",
"C c #3C3C3C",
"Z c #3A3A3A",
"A c gray22",
"S c gray21",
"D c #323232",
"F c gray18",
"G c #282828",
"H c gray14",
"J c gray11",
"K c #161616",
"L c #0E0E0E",
"P c #0C0C0C",
"I c gray4",
"U c gray3",
"Y c gray71",
/* pixels */
"B&ffhhhO+O%Z",
"Czjo*::nm>VJ",
"Zz&tlF,v,4uw",
"5cgYf,4Upiaw",
"qZ;$bsX#.dkw",
"waIn65-8bLyw",
"J  V=HSDa  w",
"waB22x=i   w",
"J ,>rNAMP  w",
"w M<ae>1-,9w",
"JK><  LH0nmw",
"2@c1qqqGqV37"
};
