/* XPM */
static char * corsix_th_xpm[] = {
"12 12 115 2",
"  	c None",
". 	c #BFBFBF",
"+ 	c #DDDDDD",
"@ 	c #E0E0E0",
"# 	c #E1E1E1",
"$ 	c #343434",
"% 	c #323232",
"& 	c #2C2C2C",
"* 	c #272727",
"= 	c #222222",
"- 	c #333333",
"; 	c #EBEBEB",
"> 	c #EDEDED",
", 	c #D4D7D4",
"' 	c #E4E5E4",
") 	c #127C14",
"! 	c #077708",
"~ 	c #0E280E",
"{ 	c #121212",
"] 	c #0C0C0C",
"^ 	c #060606",
"/ 	c #232323",
"( 	c #DFDFDF",
"_ 	c #EFEFEF",
": 	c #F1F1F1",
"< 	c #338F35",
"[ 	c #208223",
"} 	c #158318",
"| 	c #0A860D",
"1 	c #084F08",
"2 	c #035103",
"3 	c #101310",
"4 	c #0A0A0A",
"5 	c #E2E2E2",
"6 	c #F2F2F2",
"7 	c #D1DCD2",
"8 	c #149616",
"9 	c #0EA812",
"0 	c #238425",
"a 	c #0B7C0E",
"b 	c #09930C",
"c 	c #037704",
"d 	c #083208",
"e 	c #0D0D0D",
"f 	c #282828",
"g 	c #E3E3E3",
"h 	c #F4F4F4",
"i 	c #559D57",
"j 	c #0EA712",
"k 	c #1C8C1F",
"l 	c #0D9F10",
"m 	c #0A970D",
"n 	c #074907",
"o 	c #161616",
"p 	c #0E0E0E",
"q 	c #2A2A2A",
"r 	c #CDDDCD",
"s 	c #0E9A12",
"t 	c #0DA612",
"u 	c #268529",
"v 	c #158D18",
"w 	c #09920C",
"x 	c #037504",
"y 	c #0D260D",
"z 	c #0F0F0F",
"A 	c #F3F3F3",
"B 	c #F6F6F6",
"C 	c #5DA35E",
"D 	c #5A9C5C",
"E 	c #218B27",
"F 	c #107913",
"G 	c #085509",
"H 	c #035003",
"I 	c #151515",
"J 	c #292929",
"K 	c #F0F0F0",
"L 	c #F5F5F5",
"M 	c #D9E0D9",
"N 	c #0C860E",
"O 	c #056C07",
"P 	c #1D201D",
"Q 	c #181918",
"R 	c #0B0B0B",
"S 	c #DEDEDE",
"T 	c #136B13",
"U 	c #045804",
"V 	c #1A1A1A",
"W 	c #141414",
"X 	c #080808",
"Y 	c #242424",
"Z 	c #DBDBDB",
"` 	c #E9E9E9",
" .	c #ECECEC",
"..	c #5F925F",
"+.	c #006A00",
"@.	c #006900",
"#.	c #0B2C0B",
"$.	c #040404",
"%.	c #D7D7D7",
"&.	c #E5E5E5",
"*.	c #E6E6E6",
"=.	c #E7E7E7",
"-.	c #448144",
";.	c #106910",
">.	c #015B01",
",.	c #043D04",
"'.	c #090909",
").	c #000000",
"!.	c #B8B8B8",
"~.	c #D3D3D3",
"{.	c #D5D5D5",
"].	c #D6D6D6",
"^.	c #262626",
"/.	c #212121",
"(.	c #3E3E3E",
". + @ # # @ $ % & * = - ",
"+ ; > , ' ) ! ~ { ] ^ / ",
"( _ : < [ } | 1 2 3 4 * ",
"5 6 7 8 9 0 a b c d e f ",
"g h : i j k l m n o p q ",
"g h r s t u v w x y z q ",
"g A B C D E F G H I p J ",
"# K A L M N O P Q { R * ",
"S > _ K _ T U V W p X Y ",
"Z ` ;  ...+.@.#.z 4 $./ ",
"%.&.*.=.-.;.>.,.'.$.)./ ",
"!.~.{.].].{.q ^.Y /./.(."};
