/* XPM */
static char *d4x_xpm[] = {
/* width height ncolors chars_per_pixel */
"12 12 83 1",
/* colors */
"  c #202026",
". c #D47835",
"X c #6A4026",
"o c #AB3F24",
"O c #282831",
"+ c #632D29",
"@ c #562A26",
"# c #C23820",
"$ c #272729",
"% c #20202C",
"& c #200B0B",
"* c #1B1B1D",
"= c #7068A2",
"- c #5D5EA3",
"; c #763C2A",
": c #AB635E",
"> c #4A3D30",
", c #9B5337",
"< c #C4A020",
"1 c #3B374C",
"2 c #33344E",
"3 c #181819",
"4 c #232331",
"5 c #6768A2",
"6 c #6566A0",
"7 c #55324B",
"8 c #1A1A1E",
"9 c #20191A",
"0 c #EC3E20",
"q c #50517E",
"w c #D70605",
"e c #4C1E17",
"r c #28261B",
"t c #52476C",
"y c #5A5B8E",
"u c #B98528",
"i c #49445C",
"p c #BD7236",
"a c #653428",
"s c #CB4926",
"d c gray2",
"f c #6D6FC1",
"g c #3F1613",
"h c #444567",
"j c #1B1817",
"k c #25252E",
"l c #7779BA",
"z c #B54727",
"x c #B35767",
"c c #9F3964",
"v c #411111",
"b c #BB691F",
"n c #97231D",
"m c #723D37",
"M c #34343F",
"N c #7F7FE2",
"B c #9C1511",
"V c #AA0B0B",
"C c #202028",
"Z c #3A3B52",
"A c #5F3E31",
"S c #5E2C44",
"D c #2D2D2E",
"F c #40415B",
"G c #22222D",
"H c #A14829",
"J c #171718",
"K c #534974",
"L c #561414",
"P c #53538B",
"I c #4A456B",
"U c #0B0B0C",
"Y c #17171B",
"T c #B77F2A",
"R c #8181D9",
"E c #454569",
"W c #25252F",
"Q c #E4160E",
"! c #222222",
"~ c #1E1E1E",
"^ c #BC1211",
"/ c #5D5E97",
"( c None",
/* pixels */
"(((((((C*(((",
"(r<TX(klD(((",
"Wh>p,#=y~(((",
"(/A:FncZ((((",
"((axtVS2Y(((",
"((@Q^bu1;mPG",
"((M5-i.Ho9 J",
"(%RNfIz0gd((",
"(qE$js+BwL((",
"8O!((eK7v&((",
"((((((46U(((",
"(((((((3(((("
};
