/* XPM */
static char *dillo_xpm[] = {
/* width height ncolors chars_per_pixel */
"12 12 92 1",
/* colors */
"  c #8BC3B3",
". c #1584B6",
"X c #AFD3DD",
"o c #1C5571",
"O c #702C2C",
"+ c #061D2D",
"@ c #512021",
"# c #2BA8D5",
"$ c #372925",
"% c #307FA5",
"& c #943B3B",
"* c #7CA29D",
"= c #A04040",
"- c #307687",
"; c #27AAD7",
": c #533136",
"> c #5A8E8F",
", c #B6EBDC",
"< c #4DC5E5",
"1 c #AAEEC6",
"2 c #667D69",
"3 c #06425A",
"4 c #4FD0E0",
"5 c #1C0F10",
"6 c #023A56",
"7 c #5C998D",
"8 c #853535",
"9 c #C7DEAA",
"0 c #3A6E86",
"q c #051E31",
"w c #4C6F7D",
"e c #2AA6BB",
"r c #081F2D",
"t c #1C415B",
"y c #0B5775",
"u c #A94444",
"i c #214738",
"p c #532B2E",
"a c #060C10",
"s c #C1F5D1",
"d c #329CCC",
"f c #3B3530",
"g c #BA4A4A",
"h c #2091C4",
"j c #032D48",
"k c #4EB6DA",
"l c #1F6381",
"z c #7D3232",
"x c #9A3E3E",
"c c #6E2D2D",
"v c #A44141",
"b c #189BAB",
"n c #67CCD1",
"m c #050B0E",
"M c #29302E",
"N c #22CEDC",
"B c #8CBB9C",
"V c #0CB7CD",
"C c #DCE9B9",
"Z c #3B1818",
"A c #564D46",
"S c #153248",
"D c #B8F1C0",
"F c #2994A7",
"G c #020D14",
"H c #162F42",
"J c #85DEBF",
"K c #5AC7C3",
"L c #6B2C2C",
"P c #0C1B21",
"I c #A04949",
"U c #D5EAC5",
"Y c #1DA1D3",
"T c #48D1DC",
"R c #068098",
"E c #034A67",
"W c #41BFD5",
"Q c #205B80",
"! c #99D1CF",
"~ c #0C1310",
"^ c #A9ECDB",
"/ c #B44848",
"( c #04090B",
") c #098AA4",
"_ c #115174",
"` c #07121B",
"' c #25AEDD",
"] c #B14848",
"[ c #673034",
"{ c #682B2B",
"} c #82DBAA",
"| c None",
/* pixels */
"||||||||||||",
"|||2 !X0||||",
"||wUs^,k%P||",
"|H*CD1n#do||",
"|t>9}J'YhQL8",
"|SlBeW<;._[O",
"|ryFKT4-:@]Z",
"|`3)VN7IfMg|",
"|(qERbAui$v|",
"||a+j6p=~{z|",
"||||mG5/c&x|",
"||||||||||||"
};
