/* XPM */
static char *doom_xpm[] = {
/* width height ncolors chars_per_pixel */
"12 12 96 2",
/* colors */
"   c #244C19",
" . c #459339",
" X c #1D3612",
" o c #706C5D",
" O c #292314",
" + c #1F1F1E",
" @ c #685A3E",
" # c #3F7F33",
" $ c #5B4124",
" % c #3A4835",
" & c #6E6B68",
" * c #64D65A",
" = c #306524",
" - c #392E20",
" ; c #4EA441",
" : c #505440",
" > c #438E36",
" , c #867F78",
" < c gray30",
" 1 c #3A3937",
" 2 c #635C48",
" 3 c #2E4421",
" 4 c #575450",
" 5 c #54B349",
" 6 c #2F6025",
" 7 c gray24",
" 8 c #64624C",
" 9 c #29561F",
" 0 c #ECAF89",
" q c #353535",
" w c #757156",
" e c #26521C",
" r c #313131",
" t c #2C4222",
" y c #744A34",
" u c #204016",
" i c #449139",
" p c #428B37",
" a c #3F372E",
" s c #8D806A",
" d c #1B1B1B",
" f c #2F2C28",
" g c #1C3C15",
" h c #4B401F",
" j c #131313",
" k c #7E5D3A",
" l c #424A41",
" z c #293625",
" x c #8A623F",
" c c #382916",
" v c #1C2C18",
" b c #499C3D",
" n c #293F1E",
" m c #172413",
" M c #2D5325",
" N c #9C6C43",
" B c #323F2A",
" V c #284720",
" C c #303728",
" Z c #ECA781",
" A c #25451D",
" S c #645647",
" D c #D2A17E",
" F c #29561D",
" G c #353933",
" H c #29521D",
" J c #54B14A",
" K c #493F36",
" L c #2D3221",
" P c #3F6839",
" I c #4B5D3B",
" U c #635F56",
" Y c #438D36",
" T c #5C4124",
" R c #2B3F18",
" E c #4E4E4E",
" W c #66634B",
" Q c #2E3A2B",
" ! c #2C3229",
" ~ c #1A1814",
" ^ c #7B765C",
" / c gray22",
" ( c #4EA643",
" ) c #885B34",
" _ c #6C6861",
" ` c #2A2A2A",
" ' c #282828",
" ] c #5D4531",
" [ c #354731",
" { c #605E58",
" } c #645A48",
" | c #272416",
".  c #C99573",
".. c #52AD46",
".X c #8F8268",
".o c None",
/* pixels */
".o.o.o.o S.X 2.o.o.o.o.o",
".o.o.o } U & { 8.o.o.o.o",
".o.o.o ^ o , _ s.o.o.o.o",
".o.o.o % : w W I.o.o.o.o",
".o ( * J P C B # 5 b.o.o",
" g i p ;.. Y > . 6 M [ <",
" y Z N u = 9 V z G 1 4 K",
" x D k A v Q l 7 r a $ )",
" @ 0.  E q / ` ' !.o c.o",
" O ] / d + f - ~ L.o.o.o",
".o.o j | T h 3 n t.o.o.o",
".o.o m H R X e F  .o.o.o"
};
