/* XPM */
static char *ethereal_xpm[] = {
/* width height ncolors chars_per_pixel */
"12 12 97 2",
/* colors */
"   c #BBB3A7",
" . c #BAB3A6",
" X c #333532",
" o c #B8B1A4",
" O c #666864",
" + c #C7BFB6",
" @ c #B5AFA1",
" # c #B3AD9F",
" $ c #9C988F",
" % c #948D91",
" & c #CEC5C3",
" * c #A8A597",
" = c #9D998C",
" - c #525149",
" ; c #DDD9D8",
" : c #BBB5B0",
" > c #BBB4A6",
" , c #A2A194",
" < c #B4AE9F",
" 1 c #8A8379",
" 2 c #7E8077",
" 3 c #AEAA9C",
" 4 c #8A817C",
" 5 c #DED6D5",
" 6 c #504C43",
" 7 c #CBC2BF",
" 8 c #B3B1AE",
" 9 c #73746F",
" 0 c #AFA6A0",
" q c #70726C",
" w c #92938A",
" e c #463F46",
" r c #BFB7AC",
" t c #8A8D85",
" y c #B0AB9D",
" u c #ADA99A",
" i c #8A807B",
" p c #372E30",
" a c #898B87",
" s c #6A6162",
" d c #ADAAA7",
" f c #423A3E",
" g c #544B49",
" h c #94948B",
" j c #93948A",
" k c #464845",
" l c #BDB7B3",
" z c #3A3C39",
" x c #BFB6AB",
" c c #6B6D69",
" v c #69605D",
" b c #969093",
" n c #97978D",
" m c #95958B",
" M c #BDB4AF",
" N c #B7B0A9",
" B c #A4A093",
" V c #777A74",
" C c #BDB5A8",
" Z c #424543",
" A c #8B8D84",
" S c #666863",
" D c #37302B",
" F c #A09E92",
" G c #C1BCB9",
" H c #A4A5A3",
" J c #81817A",
" K c #A09C95",
" L c #D2C9C6",
" P c #83857F",
" I c #645B5A",
" U c #868985",
" Y c #857F84",
" T c #3F423F",
" R c #C3BAB0",
" E c #3C3E3C",
" W c #C2BAAF",
" Q c #3A3C3A",
" ! c #EEE6E4",
" ~ c #8C8E87",
" ^ c #332F29",
" / c #B1AC9E",
" ( c #42393B",
" ) c #ACA899",
" _ c #AAA497",
" ` c #908784",
" ' c #312F2A",
" ] c #837C81",
" [ c #93938A",
" { c #8E8F85",
" } c #434542",
" | c #453D44",
".  c #7A716E",
".. c #C0B7AC",
".X c #4B454D",
".o c #DAD6D6",
".O c None",
/* pixels */
".O.O.O.O.O k T.O.O.O.O.O",
".O.O.O U 8 G : K 9.O.O.O",
".O.O H ; Y e f.    J.O.O",
".O a.o.X b 5 L 0 x 3 O.O",
".O d ] % ! 7 I g C y {.O",
" Z l | & s p 4 r o u n Q",
" E N ( M ` + W > # * h X",
".O $ v i R.. . < ) F t.O",
".O q _ D 1 @ / B , j c.O",
".O.O 2 = 6 ^ ' - [ P.O.O",
".O.O.O S A m w ~ V.O.O.O",
".O.O.O.O.O z }.O.O.O.O.O"
};
