/* XPM */
static char *filelight_xpm[] = {
/* width height ncolors chars_per_pixel */
"12 12 72 1",
/* colors */
"  c #F38218",
". c #FF9B1D",
"X c #F5D876",
"o c #88524A",
"O c #FA6901",
"+ c #8C591C",
"@ c #FEFDFC",
"# c #F4DEBA",
"$ c #A39992",
"% c #A06B22",
"& c #ED8C1B",
"* c #84460D",
"= c #FBE288",
"- c #E1D8D5",
"; c #FE9A1E",
": c #D4AB93",
"> c #FBB44C",
", c #D37111",
"< c #F5D288",
"1 c #FF800E",
"2 c #96797A",
"3 c #EB6B07",
"4 c #81450F",
"5 c #F8C55F",
"6 c #F5D052",
"7 c #F5AB45",
"8 c #904203",
"9 c #CA9474",
"0 c #C9CACC",
"q c #A0510C",
"w c #BE4D05",
"e c #E2A149",
"r c #AF5D0D",
"t c #C66713",
"y c #C07C2E",
"u c #824812",
"i c #C2B9C1",
"p c #E86406",
"a c #FA8D28",
"s c #FFAF30",
"d c #CB7C28",
"f c #FDD19B",
"g c #EEB75E",
"h c #976B23",
"j c #AE7433",
"k c #FAE27A",
"l c #DA9D72",
"z c #DDDDE5",
"x c #F4EDEB",
"c c #EDB056",
"v c #EAA132",
"b c #8F5A28",
"n c #F6D3AE",
"m c #F69D41",
"M c #DB7923",
"N c #F18E1E",
"B c #FAFA9A",
"V c #F99A29",
"C c #E4851B",
"Z c #E6A216",
"A c #DAA249",
"S c #E9DAC8",
"D c #CAC1C4",
"F c #D48722",
"G c #F6EA85",
"H c #CF7613",
"J c #EBCEB9",
"K c #B78530",
"L c #AD6926",
"P c #F0CA6E",
"I c #F9F39B",
"U c None",
/* pixels */
"UUUUUUUUUUUU",
"UUUUUUUUUUUU",
"UUUU+UUUUUUU",
"UUU&yUujUUUU",
"hU,A-DgZ8UUU",
"U*eSn<X7pUUU",
"UU0fBG5aOUUU",
"UU$JIk>m:2UU",
"UUL6P=#zioUU",
"UrHbc@x9twUU",
"%F UMld3.C4U",
"KUUUVN;1svqU"
};
