/* XPM */
static char *gataxx_xpm[] = {
/* width height ncolors chars_per_pixel */
"12 12 103 2",
/* colors */
"   c #39342E",
" . c #372936",
" X c #38302D",
" o c #4A4338",
" O c #1F191B",
" + c #1B1917",
" @ c #1C1718",
" # c #281D27",
" $ c #352C2D",
" % c #1A1319",
" & c #2D2625",
" * c #2C2624",
" = c #2A2422",
" - c #3E372F",
" ; c #27221F",
" : c #0A0909",
" > c #403D34",
" , c #2D2428",
" < c #282023",
" 1 c #392A37",
" 2 c #342632",
" 3 c #31262F",
" 4 c #171412",
" 5 c #515244",
" 6 c #191417",
" 7 c #2B2522",
" 8 c #292520",
" 9 c #151013",
" 0 c #110E0F",
" q c #2E2528",
" w c #241F1E",
" e c #231D1D",
" r c #1F1B19",
" t c #332E26",
" y c #171511",
" u c #2A2127",
" i c #251D22",
" p c #352E2B",
" a c #322532",
" s c #312331",
" d c #312A27",
" f c #6C674D",
" g c #2F2A25",
" h c #2E212E",
" j c #1A1517",
" k c #2C2822",
" l c #231923",
" z c #201720",
" x c #32242B",
" c c #2D2626",
" v c #2A2423",
" b c #150F15",
" n c #484F3D",
" m c #282221",
" M c #0F0B0F",
" N c #221E1B",
" B c #5F5946",
" V c #221A1E",
" C c #20141C",
" Z c #6C6C4C",
" A c #191615",
" S c #291E28",
" D c #29251E",
" F c #1B141A",
" G c #8D593E",
" H c #413A32",
" J c #161015",
" K c #282320",
" L c #231F1B",
" P c #292124",
" I c #834F37",
" U c #36302A",
" Y c #211B1C",
" T c #1F1B1A",
" R c #5E7151",
" E c #2E2A22",
" W c #271D25",
" Q c #352C2C",
" ! c #443D34",
" ~ c #585041",
" ^ c #181316",
" / c #292420",
" ( c #26221D",
" ) c #211E18",
" _ c #282222",
" ` c #43322C",
" ' c #241E1E",
" ] c #382838",
" [ c #352635",
" { c #535E45",
" } c #322432",
" | c #1E181B",
".  c #0A0404",
".. c #1A1417",
".X c #2B2721",
".o c #2A1E2A",
".O c #0F0C0C",
".+ c #0D0C0A",
".@ c #1C141C",
".# c #2F2728",
".$ c #433A35",
".% c #2B2324",
".& c #25211E",
/* pixels */
" ] ] ] ] ] ] . z < b ] ]",
" ] ] ].o i 7 4 ; p Y ] ]",
" l c.X.+ ! H K.& ' e a ]",
" ; ~ E t D + > 5 '.O S ]",
" W ) ( o   G Z R e.% F ]",
" 1 E k 8 L B f I _ q | ]",
" ] * - g 4 n { `.#.. 9 }",
" ].@ U /.$ =.  Q , j 6 C",
" ] 2 y N d w & Y j V x J",
" ] ] v X r A $ P 0 ^ % z",
" ] ] u d T m @ M # [ ] ]",
" ] ] h : O 3 s ] ] ] ] ]"
};
