/* XPM */
static char *gdmap_xpm[] = {
/* width height ncolors chars_per_pixel */
"12 12 70 1",
/* colors */
"  c #008900",
". c #007F00",
"X c #007500",
"o c #006F00",
"O c #006B00",
"+ c #006900",
"@ c #005F00",
"# c #005D00",
"$ c #005500",
"% c #005300",
"& c #005100",
"* c #004F00",
"= c #004D00",
"- c #004B00",
"; c #004900",
": c #004700",
"> c #004500",
", c #003F00",
"< c #003D00",
"1 c #003B00",
"2 c #003700",
"3 c #003500",
"4 c #003300",
"5 c #002F00",
"6 c #002D00",
"7 c #002100",
"8 c #001B00",
"9 c #001900",
"0 c #001700",
"q c #001300",
"w c #000F00",
"e c #000B00",
"r c #00A400",
"t c #009000",
"y c #008E00",
"u c #008400",
"i c #007E00",
"p c #007800",
"a c #007600",
"s c #007400",
"d c #006E00",
"f c #006600",
"g c #006200",
"h c #006000",
"j c #005E00",
"k c #005A00",
"l c #005400",
"z c #005200",
"x c #005000",
"c c #004E00",
"v c #004A00",
"b c #004800",
"n c #004600",
"m c #004400",
"M c #004200",
"N c #004000",
"B c #003A00",
"V c #003600",
"C c #003400",
"Z c #003000",
"A c #002E00",
"S c #002A00",
"D c #002800",
"F c #002600",
"G c #002400",
"H c #001800",
"J c #001600",
"K c #001400",
"L c #001000",
"P c None",
/* pixels */
"PPPPPPPPPPPP",
"Pewq09qLKHKP",
"PJ7DAZFG5CSP",
"P8SV<BAC=-VP",
"P72xl:2vu+MP",
"PDnpXlN$ys;P",
"PA&t #>%o+vP",
"P4l.ihbcjjbP",
"P3zOdj<21;mP",
"PV*@gkna$rpP",
"P6N-cv,%cpfP",
"PPPPPPPPPPPP"
};
