/* XPM */
static char *gentoo_xpm[] = {
/* width height ncolors chars_per_pixel */
"12 12 62 1",
/* colors */
"  c #1D2119",
". c #506141",
"X c #405C27",
"o c #3D5C24",
"O c #1B1D1A",
"+ c #191918",
"@ c #171916",
"# c #222C1A",
"$ c #3A5224",
"% c #36452A",
"& c #2F3D23",
"* c #6D7863",
"= c #94B775",
"- c #23291D",
"; c #2B2D28",
": c #393939",
"> c #232720",
", c #181D15",
"< c #4C5D3E",
"1 c gray16",
"2 c #567937",
"3 c #232323",
"4 c #455537",
"5 c #191919",
"6 c #131313",
"7 c #445139",
"8 c #090909",
"9 c #4E6D32",
"0 c #080908",
"q c #070707",
"w c gray2",
"e c gray1",
"r c #425630",
"t c #6B7D5B",
"y c #0F100E",
"u c #89A075",
"i c #40572D",
"p c #394D26",
"a c #212E15",
"s c #161714",
"d c #11130F",
"f c #212C18",
"g c #629536",
"h c #262A23",
"j c #232620",
"k c #2F3B25",
"l c #4F5E41",
"z c #1A1E17",
"x c #161A13",
"c c gray14",
"v c #181818",
"b c #8FBA68",
"n c gray8",
"m c #659838",
"M c #202919",
"N c gray4",
"B c #070807",
"V c #060606",
"C c #040404",
"Z c #495241",
"A c #475D35",
"S c None",
/* pixels */
"SSSSSSSSSSSS",
"SSSS58w8SSSS",
"SS:3j;NN8wSS",
"SS1Z*O<zN0SS",
"Schu+tb -#wS",
"Sv4l@=.N&XwS",
"S6r%s7>8ioVS",
"SnM9,kAV2aqS",
"SS8$mgfxpqeS",
"SS8NdyCBqwSS",
"SSSSqCCqeSSS",
"SSSSSSSSSSSS"
};
