/* XPM */
static char *gimp_xpm[] = {
/* width height ncolors chars_per_pixel */
"12 12 54 1",
/* colors */
"  c black",
". c #413625",
"X c #666253",
"o c #3A3A35",
"O c #4F5050",
"+ c #070706",
"@ c #2A2A25",
"# c #665F4C",
"$ c #513B20",
"% c #5B5544",
"& c #5F411D",
"* c #202221",
"= c #1A1C1B",
"- c #5F5E58",
"; c #2F2F2C",
": c #070808",
"> c #463F32",
", c #030404",
"< c #5E5846",
"1 c #5A5442",
"2 c #A4A5A5",
"3 c #2F3132",
"4 c #32322E",
"5 c #676762",
"6 c #010101",
"7 c #747575",
"8 c #444A4C",
"9 c #534D3D",
"0 c #2F2F2A",
"q c #737470",
"w c #67604D",
"e c #0C0E0E",
"r c #9C9D98",
"t c #76756C",
"y c #51524E",
"u c gray36",
"i c #4F4D42",
"p c #7E470D",
"a c #534E3F",
"s c #807B6B",
"d c #ABACA9",
"f c #585447",
"g c #080909",
"h c #504C3F",
"j c #9FA09D",
"k c #636562",
"l c #7D796B",
"z c #262826",
"x c #67645F",
"c c #696D6E",
"v c #232626",
"b c #514B3C",
"n c #555143",
"m c None",
/* pixels */
"mmmmmmmmmmmm",
"mmmmmmmmmmmm",
"mmmmmmmmmvmm",
"mm*mmmmmo4mm",
"mmyjkd5fb4mm",
"Ocq7r2-<9;mm",
"38zlstX%a=mm",
"me@w#1.&>,mm",
"m g0inh$pxmm",
"mmm 6:: +mum",
"mmmmmmmmmmmm",
"mmmmmmmmmmmm"
};
