/* XPM */
static char * glashctl_xpm[] = {
"12 12 98 2",
"  	c None",
". 	c #B5A796",
"+ 	c #BAAB9A",
"@ 	c #A58C7C",
"# 	c #A48578",
"$ 	c #AA8D7F",
"% 	c #A88B7C",
"& 	c #9C7D72",
"* 	c #9C8175",
"= 	c #735347",
"- 	c #4E3632",
"; 	c #75614B",
"> 	c #BBA488",
", 	c #C5AB8C",
"' 	c #C7AD8E",
") 	c #B0957C",
"! 	c #C4AB8C",
"~ 	c #C5AC8D",
"{ 	c #B79F84",
"] 	c #8D7558",
"^ 	c #301416",
"/ 	c #856F53",
"( 	c #BAA286",
"_ 	c #C4A98A",
": 	c #C9AF8F",
"< 	c #9D7F6B",
"[ 	c #B69B7F",
"} 	c #C3A88A",
"| 	c #C3A989",
"1 	c #B49D80",
"2 	c #8A7255",
"3 	c #2F1416",
"4 	c #846D50",
"5 	c #B89F81",
"6 	c #C6AB89",
"7 	c #A1836C",
"8 	c #997A65",
"9 	c #C4A886",
"0 	c #C1A584",
"a 	c #B2997B",
"b 	c #887053",
"c 	c #301417",
"d 	c #826A4E",
"e 	c #AA8F74",
"f 	c #947460",
"g 	c #856454",
"h 	c #9B7B64",
"i 	c #8E6E5A",
"j 	c #957560",
"k 	c #AF9074",
"l 	c #B19878",
"m 	c #876E51",
"n 	c #2F1517",
"o 	c #81694C",
"p 	c #B49979",
"q 	c #A48469",
"r 	c #876452",
"s 	c #8A6854",
"t 	c #896653",
"u 	c #6D493E",
"v 	c #83604E",
"w 	c #9B7E63",
"x 	c #866D4F",
"y 	c #7F674A",
"z 	c #B19675",
"A 	c #BB9D79",
"B 	c #A38366",
"C 	c #937158",
"D 	c #926F58",
"E 	c #AC8B6C",
"F 	c #BB9C78",
"G 	c #AA8F6D",
"H 	c #846A4D",
"I 	c #7E6548",
"J 	c #AF9270",
"K 	c #B89973",
"L 	c #BC9D76",
"M 	c #8B6850",
"N 	c #AB8B69",
"O 	c #B79872",
"P 	c #B79871",
"Q 	c #A88B68",
"R 	c #82694A",
"S 	c #735D42",
"T 	c #AB8E6A",
"U 	c #B89670",
"V 	c #BA9972",
"W 	c #987457",
"X 	c #B6966F",
"Y 	c #B5946D",
"Z 	c #A58764",
"` 	c #83684A",
" .	c #2A1416",
"..	c #957958",
"+.	c #9B7E5C",
"@.	c #9F805D",
"#.	c #927756",
"$.	c #564533",
"                        ",
". + @ # $ % & * = - ;   ",
"> , ' ) ! ! ~ { ] ^ /   ",
"( _ : < [ } | 1 2 3 4   ",
"5 6 7 8 7 9 0 a b c d   ",
"e f g h i j k l m n o   ",
"p q r s t u v w x n y   ",
"z A B C D E F G H c I   ",
"J K L M N O P Q R c S   ",
"T U V W X Y Y Z `  .    ",
"        ..+.@.#.$.      ",
"                        "};
