/* XPM */
static char *glipper_xpm[] = {
/* width height ncolors chars_per_pixel */
"12 12 69 1",
/* colors */
"  c black",
". c #372201",
"X c #DEDEDD",
"o c #D9DAD8",
"O c #949487",
"+ c #986514",
"@ c #32322D",
"# c #A8A8A4",
"$ c #B3B4B2",
"% c #674201",
"& c #DFDFDD",
"* c #A3A4A2",
"= c #8C8C88",
"- c #848480",
"; c #C1C1BF",
": c #BBBBB9",
"> c #B4B5B2",
", c #E8E8E5",
"< c #E6E6E3",
"1 c #F4F4F4",
"2 c #A97F3A",
"3 c #977846",
"4 c #967845",
"5 c #8D8D88",
"6 c #D2D2CF",
"7 c #1B1101",
"8 c #C48626",
"9 c #362201",
"0 c #949592",
"q c #A67D3A",
"w c #634C23",
"e c #966313",
"r c #73736E",
"t c gray9",
"y c #F3F3F2",
"u c #F1F1F0",
"i c #A97E39",
"p c #987946",
"a c #664201",
"s c #1C1201",
"d c #E1E1E0",
"f c #DFDFDE",
"g c #BDBDB9",
"h c #74746E",
"j c #B0B1AC",
"k c #946213",
"l c #A8A7A4",
"z c #EAEAE8",
"x c #6E5201",
"c c #A2A3A1",
"v c #A0A19F",
"b c #996514",
"n c #191917",
"m c #A47B39",
"M c #634C24",
"N c #BDBEBB",
"B c white smoke",
"V c #6F5301",
"C c #DBDBD8",
"Z c #977946",
"A c #A3A4A1",
"S c #4F3D1D",
"D c gray18",
"F c #868681",
"G c #8C8E8A",
"H c #F8F8F7",
"J c #F6F6F5",
"K c #F0F0EF",
"L c #977845",
/* pixels */
"    tDDt    ",
" sVwrOOhMx7 ",
" V2#-=5Flq. ",
" %pK*vv&HL9 ",
" %Zo;KKKJL9 ",
" %3o;>0;uL9 ",
" %3fGA0Nd49 ",
" %LBz,6Xz49 ",
" %Ly<Cg1:i9 ",
" amj$$$cq89 ",
" .ebb++++kS ",
"  n@@@@@@@n "
};
