/* XPM */
static char *gnobots2_xpm[] = {
/* width height ncolors chars_per_pixel */
"12 12 80 1",
/* colors */
"  c black",
". c #140F0D",
"X c #E7E5DF",
"o c #D4D1C9",
"O c #D3CFC8",
"+ c #D2CFC7",
"@ c #C1BDB3",
"# c #403E3B",
"$ c #D0CDC5",
"% c #DDDBD5",
"& c #763D2E",
"* c #6B6965",
"= c #2C2C2A",
"- c #948279",
"; c #2B2A29",
": c #232221",
"> c #20201E",
", c #635E59",
"< c #DBD8D2",
"1 c #C8C4BC",
"2 c #11100F",
"3 c #444341",
"4 c #58372D",
"5 c #6D6C69",
"6 c #BF5339",
"7 c #B08879",
"8 c #96928A",
"9 c #C9C5BC",
"0 c #E9E7E2",
"q c #D8D5CE",
"w c #E7E5E0",
"e c #D6D3CC",
"r c #C6C1B9",
"t c #D4D1CA",
"y c #9A2D14",
"u c #A4A29E",
"i c #D5D3CE",
"p c #B7B3AD",
"a c #595754",
"s c #75726C",
"d c #4E4D49",
"f c #080201",
"g c #20201F",
"h c #D5D2CA",
"j c #1F1E1E",
"k c #D4D0C9",
"l c #E3E0DB",
"z c #E2E0DA",
"x c #3B1108",
"c c #CFCCC4",
"v c #BFBAB1",
"b c #A34C36",
"n c #373735",
"m c #010000",
"M c #8E8B87",
"N c #BF3819",
"B c #898782",
"V c #2D2D2B",
"C c #282726",
"Z c #575654",
"A c #E0DDD7",
"S c #CDC9C1",
"D c #BCB7AD",
"F c #95928A",
"G c #BAB5AB",
"H c #D8D5CF",
"J c #A8A6A3",
"K c #BCB9B3",
"L c #84827C",
"P c #83827E",
"I c #DBD8D1",
"U c #C6C2B9",
"Y c #D5D2CB",
"T c #E4E2DD",
"R c #641D0D",
"E c #5B5853",
"W c #9D8276",
"Q c #BC8B7A",
"! c #84817B",
"~ c None",
/* pixels */
"~~~~~nC~~~~~",
"~~gJwl<Kd~~~",
"~jiXAq$9@E~~",
"~uzIkSUvDG>~",
"2,WQ7-LBMP3~",
"~fRNyxm   ~~",
"~.&6b4;=Vg~~",
"~pOhYtkO+$a~",
"~Z0T%ec1@F~~",
"~~5HoSrv8~~~",
"~~~:*!s#~~~~",
"~~~~~~~~~~~~"
};
