/* XPM */
static char *gnomine_xpm[] = {
/* width height ncolors chars_per_pixel */
"12 12 34 1",
/* colors */
"  c black",
". c #656565",
"X c #535353",
"o c gray30",
"O c gray24",
"+ c #353535",
"@ c #313131",
"# c gray17",
"$ c #272727",
"% c gray12",
"& c #1D1D1D",
"* c #191919",
"= c #111111",
"- c gray5",
"; c #070707",
": c gray2",
"> c gray1",
", c #010101",
"< c #646464",
"1 c #4E4E4E",
"2 c #4C4C4C",
"3 c gray25",
"4 c #2C2C2C",
"5 c #202020",
"6 c #1E1E1E",
"7 c gray10",
"8 c #181818",
"9 c #0E0E0E",
"0 c #0C0C0C",
"q c gray3",
"w c #060606",
"e c #040404",
"r c #020202",
"t c None",
/* pixels */
"tttttttttttt",
"ttttt::ttttt",
"tt-,-67q,;tt",
"tt,$oo34=,tt",
"tt92<.1+5wtt",
"t:6o.XO+5->t",
"t:731O@4&0rt",
"ttq#++458ett",
"tt,=%5&*0 tt",
"tt;,:-0: ett",
"ttttt>>ttttt",
"tttttttttttt"
};
