/* XPM */
static char *gnotski_xpm[] = {
/* width height ncolors chars_per_pixel */
"12 12 37 1",
/* colors */
"  c black",
". c #B38B5D",
"X c #AC9770",
"o c #78563D",
"O c #EBD5A7",
"+ c #AC967D",
"@ c #A78557",
"# c #323E30",
"$ c #301A17",
"% c #B19D7B",
"& c #524538",
"* c #E7CA88",
"= c #241411",
"- c #C0AF82",
"; c #EAD2A0",
": c #B3A28B",
"> c #8C765E",
", c #AA906E",
"< c #A57E55",
"1 c #4E3527",
"2 c #F2E0A0",
"3 c #2C2D2D",
"4 c #6C4F37",
"5 c #7B7560",
"6 c #756B5A",
"7 c #B2A482",
"8 c #B7AB80",
"9 c #0C0D0D",
"0 c gray25",
"q c #181412",
"w c gray19",
"e c #282828",
"r c #180D0B",
"t c #202020",
"y c #515750",
"u c #EED680",
"i c #A8937A",
/* pixels */
"  t000009   ",
"  5u<444r   ",
" :;.1ty 02, ",
" 72$ e# 3@o ",
" 8u$        ",
" +O$  w0003 ",
" 8u$  &4>u@ ",
" %*$ ty 0u@ ",
" i;-&e# 0u@ ",
"  5uX56 0u@ ",
"  q$$$$ 9$= ",
"            "
};
