/* XPM */
static char *google-chrome_xpm[] = {
/* width height ncolors chars_per_pixel */
"12 12 102 2",
/* colors */
"   c #34B13C",
" . c #A59138",
" X c #2DA335",
" o c #DEC01D",
" O c #DDBC1C",
" + c #FBD615",
" @ c #219F29",
" # c #377B3F",
" $ c #A20504",
" % c #55A059",
" & c #769B73",
" * c #F0CB14",
" = c #23872B",
" - c #4D82A4",
" ; c #C10808",
" : c #C44E50",
" > c #5E9FD9",
" , c #59AE60",
" < c #F6D013",
" 1 c #A55727",
" 2 c #D1BB20",
" 3 c #37A63E",
" 4 c #BC971C",
" 5 c #F9D30F",
" 6 c #44B24E",
" 7 c #DBBD2D",
" 8 c #937E64",
" 9 c #5D9A6A",
" 0 c #C30E13",
" q c #BC0C0C",
" w c #978C57",
" e c #198620",
" r c #1B561F",
" t c #4EB554",
" y c #ECCC26",
" u c #920A0A",
" i c #DACB5D",
" p c #F8D835",
" a c #77C279",
" s c #3E708A",
" d c #858B66",
" f c #3F6A8B",
" g c #6F8378",
" h c #C01616",
" j c #407F99",
" k c #C9B54C",
" l c #866B7E",
" z c #DC3A3B",
" x c #D93838",
" c c #F0CC1C",
" v c #4691D0",
" b c #CFC544",
" n c #6E7FAB",
" m c #707CA3",
" M c #268D32",
" N c #CAAD2B",
" B c #C5B351",
" V c #D50302",
" C c #428EC8",
" Z c #CC7F2D",
" A c #7F6180",
" S c #A28E35",
" D c #604812",
" F c #719575",
" G c #CB4740",
" H c #23982B",
" J c #EDC91B",
" K c #F9DB2A",
" L c #88741B",
" P c #FDD91A",
" I c #E20E0E",
" U c #D9BC28",
" Y c #B0353C",
" T c #528C7A",
" R c #91AA58",
" E c #A5806C",
" W c #3E983B",
" Q c #B70E0E",
" ! c #465640",
" ~ c #D1B637",
" ^ c #FBE149",
" / c #60C866",
" ( c #5B88B4",
" ) c #D8B723",
" _ c #94A236",
" ` c #4D8A50",
" ' c #F9D415",
" ] c #9A995D",
" [ c #FEDF27",
" { c #179121",
" } c #5086AC",
" | c #BF0C0B",
".  c #A43C35",
".. c #709B4D",
".X c #70A66E",
".o c #63A2DF",
".O c #C10909",
".+ c #48BF50",
".@ c #CBAD22",
".# c #45814A",
".$ c #C54A4B",
".% c None",
/* pixels */
".%.%.%.%.%.%.%.%.%.%.%.%",
".%.% !.  h ;.O q Q u.%.%",
".% % & G z.$ : x I V $.%",
".% t a E l m n A Y 0 |.%",
".% 3 / F } >.o ( 8 Z 1 D",
" r X.+ 9 j C v - ] y.@ 4",
" r H   , T s f g k + * )",
".% e @ 6.X d w B p < O L",
".% = { W R i ^ [ 5 J N.%",
".% # M.. b K P ' c 7 S.%",
".%.%.# ` _ 2 o U ~ ..%.%",
".%.%.%.%.%.%.%.%.%.%.%.%"
};
