/* XPM */
static char *gpa_xpm[] = {
/* width height ncolors chars_per_pixel */
"12 12 50 1",
/* colors */
"  c #343333",
". c #80610D",
"X c #C5C4C4",
"o c #373432",
"O c #352605",
"+ c #B9B8B8",
"@ c #876706",
"# c #B4B4B3",
"$ c #D49B20",
"% c #43262D",
"& c #483B2B",
"* c #111C23",
"= c #8E8580",
"- c #4A383A",
"; c #746C6D",
": c #AB7736",
"> c #DAA704",
", c #7A656C",
"< c #21323C",
"1 c #2A8FC2",
"2 c #74585C",
"3 c #5C4B4E",
"4 c #3E3637",
"5 c #1D3948",
"6 c #113446",
"7 c #2F2628",
"8 c #302E2C",
"9 c #1C3D4D",
"0 c #05618C",
"q c #242220",
"w c #0E668E",
"e c #848281",
"r c #C5C5C4",
"t c #213744",
"y c #C4C3C3",
"u c #C3C3C2",
"i c #38A6DE",
"p c #9B9797",
"a c #918D8D",
"s c #34230A",
"d c #816C45",
"f c #5F4913",
"g c #776D70",
"h c #D79A29",
"j c #2E2628",
"k c #896D74",
"l c #EBB407",
"z c #463B3C",
"x c #3D83A9",
"c c None",
/* pixels */
"cccccccc4gcc",
"ccccccje+X,c",
"ccccc;#rua7c",
"ccq83kypzccc",
"ccoc%2-ccccc",
"c@d&9 cccccc",
"cl$:10cccccc",
"c>h=iwcccccc",
"O.s5x6cccccc",
"fccct*cccccc",
"ccccc<cccccc",
"cccccccccccc"
};
