/* XPM */
static char *gthumb_xpm[] = {
/* width height ncolors chars_per_pixel */
"12 12 72 1",
/* colors */
"  c #B1B8C1",
". c #8B8B8B",
"X c gray52",
"o c #757A7F",
"O c #A3A2A2",
"+ c gray42",
"@ c gray39",
"# c #5F5F5F",
"$ c #5B5B5B",
"% c #87846F",
"& c #605C42",
"* c #7F7146",
"= c #515151",
"- c #86897B",
"; c gray30",
": c #4B4B4B",
"> c gray99",
", c gray98",
"< c #66604B",
"1 c #7C807B",
"2 c #F8F8F8",
"3 c gray95",
"4 c gray24",
"5 c #EEEEEE",
"6 c #313131",
"7 c #999797",
"8 c gray87",
"9 c #D8D8D8",
"0 c gray84",
"q c #9F9FA0",
"w c gray83",
"e c #1B1B1B",
"r c #787C80",
"t c #111111",
"y c #8C8A58",
"u c #A9ADB0",
"i c #F5F3F4",
"p c gray5",
"a c #6F7742",
"s c #B49C72",
"d c #91A3AF",
"f c #808587",
"g c #A2A2A5",
"h c #A9B1B9",
"j c #818A95",
"k c #868686",
"l c gray51",
"z c #B0B4B9",
"x c #7E7E7E",
"c c #7A8F9B",
"v c #C0C3C5",
"b c #A7AEB3",
"n c gray40",
"m c #626262",
"M c #595F63",
"N c gray36",
"B c gray33",
"V c #4E4E4E",
"C c #524E3E",
"Z c #89894C",
"A c #EFEFEF",
"S c #3D3C29",
"D c gray86",
"F c #D7D7D7",
"G c #D5D5D5",
"H c light grey",
"J c #C4CFD8",
"K c #5D6055",
"L c #9295A0",
"P c #B9B9B9",
"I c #C6C7C9",
"U c None",
/* pixels */
"UUUUU.....:U",
"UUUU@80GGFXU",
"UUUUm1S&<KkU",
"UUU+P5C*s%XU",
"#w>Avb-aZyXU",
"nIg7hjq9,2lU",
"UzL>i o=N$6U",
"UOrJdcf;UUUU",
"UxMu3D+VUUUU",
"UUHB4ptUUUUU",
"UUUUUUUeUUUU",
"UUUUUUUUUUUU"
};
