/* XPM */
static char *gucharmap_xpm[] = {
/* width height ncolors chars_per_pixel */
"12 12 68 1",
/* colors */
"  c #AFAFAF",
". c dark grey",
"X c #A7A7A7",
"o c #A5A5A5",
"O c gray63",
"+ c #959595",
"@ c gray57",
"# c gray56",
"$ c #838383",
"% c #818181",
"& c #6F6F6F",
"* c #515151",
"= c #434343",
"- c #F4F4F4",
"; c #414141",
": c #3F3F3F",
"> c gray94",
", c gray24",
"< c #EEEEEE",
"1 c #ECECEC",
"2 c #EAEAEA",
"3 c gray91",
"4 c #E6E6E6",
"5 c #E4E4E4",
"6 c #E2E2E2",
"7 c gray87",
"8 c #CECECE",
"9 c gray9",
"0 c #C8C8C8",
"q c #151515",
"w c gray77",
"e c #BCBCBC",
"r c #B2B2B2",
"t c #A4A4A4",
"y c #A0A0A0",
"u c gray61",
"i c #9A9A9A",
"p c #989898",
"a c #929292",
"s c #909090",
"d c #8E8E8E",
"f c gray54",
"g c #888888",
"h c gray48",
"j c #6C6C6C",
"k c #686868",
"l c #606060",
"z c gray26",
"x c #F1F1F1",
"c c #EFEFEF",
"v c gray93",
"b c gray92",
"n c #E7E7E7",
"m c gray90",
"M c #DDDDDD",
"N c gray85",
"B c #D7D7D7",
"V c gray82",
"C c gray10",
"Z c #181818",
"A c gray79",
"S c #161616",
"D c gray78",
"F c #C5C5C5",
"G c #BBBBBB",
"H c gray71",
"J c gray70",
"K c None",
/* pixels */
"KKKKKKKKKKKK",
"K&8A0DweH+KK",
"K+>N75312 KK",
"KavM6nbcvOCK",
"Ksb6FVJ.cpCK",
"K#14uyg@>fZK",
"Kdb2v><ix%9K",
"Kf3v>-mG>hSK",
"K$BroXtOpjqK",
"Klk,,;=:z*KK",
"KKKKKKKKKKKK",
"KKKKKKKKKKKK"
};
