/* XPM */
static char *gv_xpm[] = {
/* width height ncolors chars_per_pixel */
"12 12 42 1",
/* colors */
"  c dark grey",
". c #9D9D9D",
"X c #898989",
"o c #6D6D6D",
"O c gray30",
"+ c gray99",
"@ c gray28",
"# c #F8F8F8",
"$ c #F6F6F6",
"% c #434343",
"& c #EEEEEE",
"* c gray23",
"= c #393939",
"- c gray91",
"; c #E6E6E6",
": c #E4E4E4",
"> c #E2E2E2",
", c gray88",
"< c gray77",
"1 c gray76",
"2 c gray72",
"3 c #AEAEAE",
"4 c gray62",
"5 c gray61",
"6 c gray44",
"7 c #6A6A6A",
"8 c #686868",
"9 c gray32",
"0 c white",
"q c #464646",
"w c gray97",
"e c white smoke",
"r c gray26",
"t c #E9E9E9",
"y c gray89",
"u c gray14",
"i c #222222",
"p c gray82",
"a c gray79",
"s c #C3C3C3",
"d c gray75",
"f c None",
/* pixels */
"ffffffffffff",
"fffff<&Xffff",
"ffff.,w:*fff",
"fffq2@<7offf",
"ffut+000y3ff",
"fff9$000aiff",
"ffff;0004fff",
"ffff;000>uff",
"fffr#sep1dff",
"fff -O5865ff",
"fff%=fffffff",
"ffffffffffff"
};
