/* XPM */
static char *gvim_xpm[] = {
/* width height ncolors chars_per_pixel */
"12 12 81 1",
/* colors */
"  c #349EB0",
". c #148D6C",
"X c #1794BB",
"o c #29A8BC",
"O c #A6DDEB",
"+ c #339E1D",
"@ c #1B9E58",
"# c #0976EC",
"$ c #064F9D",
"% c #127063",
"& c #31CD17",
"* c #074D8D",
"= c #168177",
"- c #289818",
"; c #32A6A6",
": c #74C6B2",
"> c #B7DAEA",
", c #08568A",
"< c #25AE46",
"1 c #18A76E",
"2 c #53C0BC",
"3 c #06509F",
"4 c #35B53B",
"5 c #0B547C",
"6 c #3DCD1E",
"7 c #16979A",
"8 c #197C7C",
"9 c #7BDAC5",
"0 c #147A38",
"q c #2FBB10",
"w c #36DA10",
"e c #61D2BF",
"r c #0B3C01",
"t c #3BD818",
"y c #24A0BB",
"u c #178576",
"i c #30B7C0",
"p c #2289AF",
"a c #2FC558",
"s c #23711B",
"d c #587781",
"f c #1D7E61",
"g c #2A9D28",
"h c #67CABA",
"j c #116934",
"k c #179DBE",
"l c #239F0D",
"z c #188B2A",
"x c #18A1C2",
"c c #0B8CFE",
"v c #166B7E",
"b c #199DC6",
"n c #108CDB",
"m c #0B80EA",
"M c #3EB4BC",
"N c #1B99B4",
"B c #0754A4",
"V c #093C25",
"C c #37A820",
"Z c #1487C1",
"A c #04305F",
"S c #1E8D78",
"D c #3CB3C7",
"F c #053C63",
"G c #159DDC",
"H c #159B89",
"J c #168894",
"K c #0C6E9E",
"L c #043468",
"P c #40D221",
"I c #49C4BF",
"U c #118092",
"Y c #25A081",
"T c #33EC17",
"R c #054283",
"E c #074E9C",
"W c #1FA600",
"Q c #106480",
"! c #47B7B9",
"~ c #053E72",
"^ c None",
/* pixels */
"^^^^^^^^^^^^",
"^^B$Q4C53EL^",
"^^cnJgPYm#R^",
"^^GkuqabZ*^^",
"^^ioS<xX8s^^",
"^TIM;yN=-6+^",
"^&e2!pflwt^^",
"^^9hDv.@7%A^",
"^^O: j10KF^^",
"^^>dUzHV~,^^",
"^^^^^Wr^^^^^",
"^^^^^^^^^^^^"
};
