/* XPM */
static char *noname[] = {
/* width height ncolors chars_per_pixel */
"32 32 579 2",
/* colors */
"   c black",
" . c #2C9AFB",
" X c #3E88CE",
" o c #12262C",
" O c #0A292E",
" + c #2C98FB",
" @ c #11242B",
" # c #5DD4F6",
" $ c #304850",
" % c #2F464F",
" & c #B8E7FD",
" * c #2E464E",
" = c #030D10",
" - c #2C444C",
" ; c #45BBE5",
" : c #2B6AB8",
" > c #2968B6",
" , c #2B8DF0",
" < c #65747A",
" 1 c #33A9FB",
" 2 c #2866B5",
" 3 c #071C21",
" 4 c #2666B3",
" 5 c #2D3D43",
" 6 c #263E46",
" 7 c #162C33",
" 8 c #51CAEA",
" 9 c #215162",
" 0 c #010404",
" q c #0B2D32",
" w c #0B2B32",
" e c #223A42",
" r c #0F1215",
" t c #0A2931",
" y c #081318",
" u c #213841",
" i c #071317",
" p c #0A2731",
" a c #1C4D5D",
" s c #092730",
" d c #08252F",
" f c #041114",
" g c #08232F",
" h c #33454C",
" j c #07212E",
" k c #2A8CFC",
" l c #DBF7FE",
" z c #2A88FC",
" x c #4D89AE",
" c c #2A86FC",
" v c #082025",
" b c #04192B",
" n c #194250",
" m c #43B8DC",
" M c #60DCFF",
" N c #3875C1",
" B c #15404C",
" V c #09263D",
" C c #3773C0",
" Z c #399FF0",
" A c #123E49",
" S c #2D76C0",
" D c #45B5FF",
" F c #255FAB",
" G c #2D74C0",
" H c #041317",
" J c #3888CE",
" K c #4DB1F3",
" L c #349BEB",
" P c #192025",
" I c #092429",
" U c #2F6BB8",
" Y c #286CBB",
" T c #082228",
" R c #171C23",
" E c #5CCFF1",
" W c #81888B",
" Q c #3E555D",
" ! c #1B50AB",
" ~ c #3D98D6",
" ^ c #02080B",
" / c #212C30",
" ( c #3A5159",
" ) c #2266B5",
" _ c #2961B2",
" ` c #36A0FA",
" ' c #2665AF",
" ] c #2DA3FB",
" [ c #2876FD",
" { c #2DA1FB",
" } c #9EDBFD",
" | c #05171B",
".  c #255FAE",
".. c #344B53",
".X c #2A76C0",
".o c #45BAF8",
".O c #0A282D",
".+ c #205BA9",
".@ c #102329",
".# c #47C0E6",
".$ c #144A90",
".% c #2F94F3",
".& c #1F59A8",
".* c #0E2127",
".= c #2D92F1",
".- c #020C0E",
".; c #D5F5FE",
".: c #2C8CF0",
".> c #2967B5",
"., c #2F3E44",
".< c #283F47",
".1 c #071B20",
".2 c #2665B2",
".3 c #162B32",
".4 c #253D44",
".5 c #0B2C31",
".6 c #0C2A32",
".7 c #000102",
".8 c #2974C2",
".9 c #0A2830",
".0 c #215DAD",
".q c #E6FDFE",
".w c #266AFE",
".e c #20373F",
".r c #09262F",
".t c #2B95FC",
".y c #2668FE",
".u c #2666FE",
".i c #051014",
".p c #5BD3F6",
".a c #1E353D",
".s c #2B91FC",
".d c #2664FE",
".f c #041013",
".g c #08222E",
".h c #2B8FFC",
".j c #2662FE",
".k c #1C333B",
".l c #07202D",
".z c #061E2C",
".x c #286DB7",
".c c #3681C8",
".v c #304248",
".b c #051C2B",
".n c #051A2B",
".m c #071F23",
".M c #909799",
".N c #04182A",
".B c #2D3E45",
".V c #14467F",
".C c #031629",
".Z c #021428",
".A c #010506",
".S c #021228",
".D c #3874C0",
".F c #011027",
".G c #4DBEF2",
".H c #071419",
".J c #257EEC",
".K c #20607A",
".L c #3570BD",
".P c #1A4E5D",
".I c #195687",
".U c #445A62",
".Y c #346EBC",
".T c #266FF7",
".R c #041216",
".E c #2E94F8",
".W c #2669F7",
".Q c #41585F",
".! c #2C94F6",
".~ c #181F23",
".^ c #0D3343",
"./ c #55D1F3",
".( c #286BBA",
".) c #91D1F6",
"._ c #2769B9",
".` c #2E66B6",
".' c #2983FD",
".] c #297FFD",
".[ c #4DC1FF",
".{ c #1A4BA9",
".} c #2367B5",
".| c #0A1A1F",
"X  c #3490AB",
"X. c #2265B4",
"XX c #2766AF",
"Xo c #2263B4",
"XO c #2764AF",
"X+ c #1941A8",
"X@ c #05161A",
"X# c #389FBC",
"X$ c #48BEF0",
"X% c #0A272C",
"X& c #215CA9",
"X* c #09252B",
"X= c #59CFFA",
"X- c #4BB9E9",
"X; c #276FBC",
"X: c #54676E",
"X> c #0E2026",
"X, c #030B0E",
"X< c #020B0D",
"X1 c #2467B9",
"X2 c #2E687A",
"X3 c #060607",
"X4 c #2862B3",
"X5 c #3CA7EE",
"X6 c #061A1E",
"X7 c #49C0F4",
"X8 c #14282F",
"X9 c #010202",
"X0 c #2A393E",
"Xq c #3274C0",
"Xw c #13282E",
"Xe c #0B2B30",
"Xr c #276DFE",
"Xt c #0A292F",
"Xy c #47B6F2",
"Xu c #0C0E10",
"Xi c #050F13",
"Xp c #040F12",
"Xa c #1D343B",
"Xs c #0A0C0E",
"Xd c #2C444D",
"Xf c #071F2C",
"Xg c #1A3038",
"Xh c #174E77",
"Xj c #041729",
"Xk c #617277",
"Xl c #0A1225",
"Xz c #18404D",
"Xx c #54C6EE",
"Xc c #318EAE",
"Xv c #C9EFFE",
"Xb c #368DA9",
"Xn c #4A5F67",
"Xm c #010405",
"XM c #0B2D33",
"XN c #36A0F5",
"XB c #2262B0",
"XV c #348BA7",
"XC c #010F26",
"XZ c #485D65",
"XA c #081519",
"XS c #475D64",
"XD c #2160AF",
"XF c #000D25",
"XG c #2D70BE",
"XH c #051116",
"XJ c #041115",
"XK c #2D95F6",
"XL c #3786CB",
"XP c #153540",
"XI c #59D0F6",
"XU c #3DACFF",
"XY c #49BCE3",
"XT c #54C7FB",
"XR c #2E65B5",
"XE c #1B4EA9",
"XW c #327EC6",
"XQ c #D0F2FE",
"X! c #010608",
"X~ c #0A191E",
"X^ c #5FDCFF",
"X/ c #266878",
"X( c #3775C1",
"X) c #08171C",
"X_ c #1D262A",
"X` c #2561AC",
"X' c #051519",
"X] c #4CC2E9",
"X[ c #E8FBFB",
"X{ c #586A71",
"X} c #0A262B",
"X| c #E1FAFE",
"o  c #6D7B7F",
"o. c #48BEE5",
"oX c #296F88",
"oo c #2F6BB9",
"oO c #46BCE3",
"o+ c #0E1F25",
"o@ c #53D0F3",
"o# c #D7F5FE",
"o$ c #232E33",
"o% c #030A0D",
"o& c #0C1D23",
"o* c #123C61",
"o= c #3B535B",
"o- c #020A0C",
"o; c #52CCF2",
"o: c #4BC0FF",
"o> c #2667B0",
"o, c #2665B0",
"o< c #2861B2",
"o1 c #06191D",
"o2 c #2583F1",
"o3 c #354D55",
"o4 c #05171C",
"o5 c #1740A8",
"o6 c #2C9DFB",
"o7 c #60D7F9",
"o8 c #2C9BFB",
"o9 c #2B758D",
"o0 c #29363C",
"oq c #324952",
"ow c #0A282E",
"oe c #2C97FB",
"or c #314951",
"ot c #2970C0",
"oy c #27343A",
"ou c #10232A",
"oi c #050E12",
"op c #0B0D0E",
"oa c #2C434C",
"os c #2A69B7",
"od c #294149",
"of c #2967B6",
"og c #192F36",
"oh c #37A2FF",
"oj c #4E626A",
"ok c #2667B3",
"ol c #273F47",
"oz c #4D6269",
"ox c #172D34",
"oc c #253D45",
"ov c #010304",
"ob c #233B43",
"on c #0B2C32",
"om c #0A2A31",
"oM c #9AD9FD",
"oN c #215FAE",
"oB c #0A2831",
"oV c #B6C5C6",
"oC c #092630",
"oZ c #08242F",
"oA c #041014",
"oS c #5AD1F6",
"oD c #07222E",
"oF c #07202E",
"oG c #32444B",
"oH c #7D8A8E",
"oJ c #2A8BFC",
"oK c #3683C9",
"oL c #286DB8",
"oP c #42B3EF",
"oI c #2A89FC",
"oU c #051C2C",
"oY c #2A85FC",
"oT c #151B1E",
"oR c #071F24",
"oE c #13191C",
"oW c #020708",
"oQ c #0A293E",
"o! c #010507",
"o~ c #A1DCFD",
"o^ c #09161C",
"o/ c #3774C0",
"o( c #08161B",
"o) c #2560AB",
"o_ c #1B505F",
"o` c #5B6D73",
"o' c #4B5B60",
"o] c #051418",
"o[ c #1F5DAF",
"o{ c #2C73BF",
"o} c #041417",
"o| c #1B2327",
"O  c #707C81",
"O. c #2C71BF",
"OX c #192125",
"Oo c #153642",
"OO c #286DBB",
"O+ c #082328",
"O@ c #3F565E",
"O# c #2F6AB8",
"O$ c #B2E4FD",
"O% c #255FF7",
"O& c #3B525A",
"O* c #02090B",
"O= c #0B1C21",
"O- c #41A9F1",
"O; c #154B7A",
"O: c #2966B2",
"O> c #395058",
"O, c #2A8BEB",
"O< c #2DA6FB",
"O1 c #2879FD",
"O2 c #2666AF",
"O3 c #2DA4FB",
"O4 c #2664AF",
"O5 c #2875FD",
"O6 c #2582F0",
"O7 c #2DA0FB",
"O8 c #2873FD",
"O9 c #2660AF",
"O0 c #2D9EFB",
"Oq c #477FA1",
"Ow c #48B3FB",
"Oe c #59D3FB",
"Or c #48B4F1",
"Ot c #0F2228",
"Oy c #1F58A8",
"Ou c #53CAFF",
"Oi c #64C0FC",
"Op c #040D10",
"Oa c #53676E",
"Os c #69787D",
"Od c #41AFF4",
"Of c #020B0E",
"Og c #50656B",
"Oh c #2C8DF0",
"Oj c #276AB3",
"Ok c #3A505C",
"Ol c #266AB2",
"Oz c #071C20",
"Ox c #172C33",
"Oc c #798386",
"Ov c #061A1F",
"Ob c #2C3B41",
"On c #152A31",
"Om c #010203",
"OM c #13282F",
"ON c #0B2B31",
"OB c #213840",
"OV c #215EAD",
"OC c #B7C6C6",
"OZ c #0A2730",
"OA c #133A46",
"OS c #2669FE",
"OD c #0D1012",
"OF c #10242C",
"OG c #061115",
"OH c #09252F",
"OJ c #2B94FC",
"OK c #2667FE",
"OL c #1F363E",
"OP c #051114",
"OI c #46C1E8",
"OU c #2B92FC",
"OY c #2665FE",
"OT c #08232E",
"OR c #2663FE",
"OE c #2B8EFC",
"OW c #071F2D",
"OQ c #1F5C6C",
"O! c #061D2C",
"O~ c #3EA7C9",
"O^ c #051B2B",
"O/ c #ACE2FD",
"O( c #05192B",
"O) c #2D90EA",
"O_ c #071E23",
"O` c #04192A",
"O' c #04172A",
"O] c #45B6DD",
"O[ c #2D3D45",
"O{ c #0A1426",
"O} c #6497B3",
"O| c #031529",
"+  c #2885EF",
"+. c #021328",
"+X c #021128",
"+o c #5F7076",
"+O c #011127",
"++ c #2988E6",
"+@ c #32758F",
"+# c #37768A",
"+$ c #08151A",
"+% c #2D74BF",
"+& c #BEEAFE",
"+* c #041316",
"+= c #2C95F6",
"+- c #41575F",
"+; c #296EBB",
"+: c #0A2229",
"+> c #082227",
"+, c #276CB9",
"+< c #3EADF7",
"+1 c #276AB9",
"+2 c #031436",
"+3 c #2E67B6",
"+4 c #2E65B6",
"+5 c #2982FD",
"+6 c #02080A",
"+7 c #0B1B20",
"+8 c #297CFD",
"+9 c #3BA5F4",
"+0 c #0A191F",
"+q c #202A2E",
"+w c #5EDAFF",
"+e c #1E282C",
"+r c #EBFFFF",
"+t c #3586A2",
"+y c #184D5E",
"+u c #0A262C",
"+i c #BAE8FD",
"+p c #C7D5D5",
"+a c #48C0E6",
"+s c #263237",
"+d c #2E6BB9",
"+f c #243035",
"+g c #0D1F25",
"+h c #44BCE2",
"+j c #2B92EE",
"+k c #09090A",
"+l c #276BB2",
"+z c #51CAF2",
"+x c #2669B1",
"+c c #06191E",
"+v c #45B3D9",
"+b c #05191D",
"+n c #2561B0",
"+m c #2770FE",
"+M c #42B1D6",
"+N c #000101",
"+B c #0B2A30",
"+V c #0A2A2F",
"+C c #276AFE",
"+Z c #3C87CD",
"+A c #0B0D0F",
"+S c #030E11",
"+D c #1B3139",
"+F c #1A3138",
"+G c #296C82",
"+H c #29414A",
"+J c #192F37",
"+K c #071D22",
"+L c #245466",
"+P c #041629",
"+I c #121719",
"+U c #1B5367",
"+Y c #0C2E34",
"+T c #54C3EE",
"+R c #0B2E33",
"+E c #101517",
"+W c #2684EC",
"+Q c #011026",
"+! c #010E26",
"+~ c #265EAA",
"+^ c #339DF2",
"+/ c #4BBFE5",
"+( c #3DADFF",
"+) c #3685CA",
"+_ c #161D20",
"+` c #082126",
"+' c #2E66B5",
"+] c #2569B6",
"+[ c #3090E5",
"+{ c #020709",
"+} c #2C7D95",
"+| c #2A7D93",
"@  c #2263B3",
"@. c #3674C0",
"@X c #4FC5EC",
"@o c #3572BF",
"@O c #44B6FF",
"@+ c #051419",
"@@ c #09252A",
"@# c #2F6CB9",
"@$ c #082329",
"@% c #0D1E24",
"@& c #030B0D",
"@* c #397CC6",
"@= c #81CDFC",
"@- c #A7DFFD",
"@; c #2686F2",
"@: c #2666B0",
"@> c #2684F2",
"@, c #2C8CE4",
"@< c #364E56",
"@1 c #05181C",
"@2 c #5CD9FF",
"@3 c #2560AF",
"@4 c #C3ECFE",
"@5 c #3272BF",
"@6 c #334A53",
"@7 c #13262D",
"@8 c None",
/* pixels */
"@8@8.voG h h h h h h h h h h h h h h h h h h h h h h hoG.v@8@8@8",
"@8o'OCX[+r+r+r+r+r+r+r+r+r.qX| l.;XQXv@4+& &O$O/@-o~oM.)O}Ok@8@8",
"O[oV+p.M WOcO OsXko`OaozXS+-O&o3 $oa 6 e.aXg 7Xw.@@%.|OFOq x.B@8",
".,X[oHo  <+oX{OgXn.U QO>@6 *od.4.e.kog+#o7 MX^+w@2Oe+@+6 y K.,@8",
" 5o#o`X:ojXZ.Qo=@<or -olob.a+FOxOMou+g+T X@.@o.L.Y.DXT+NX9 1 5@8",
"Ob+i.UO@ (.. %+HocOB.k+JOn o.*o&X~.H.i.G@5+3XR+'+4.`.[Xm.AO3Ob@8",
"X0 }oqXd.<obOL+DoxX8 @o++7o( ioio%+0 9Or : _o<X4X4X4 D+{+6 {X0@8",
"o0@= uXa+J.3@7Oto&+0XAOPOp ^.A+NXPXY+tO- 2. . @3O9+nXUX<OfO0o0@8",
"oyOiX8 @X>O=X) iXi@&oWov  +NX9o^+/Ooo! ZO:+~ F Fo)X`oh+SXpo8oy@8",
"+sOw.|+$OGOpO*o!+N+N.7X9ovXm.AXb+G+6O*+[otO4XOXOo,+,.EXJ.R ++s@8",
"+fO<X,+{ov  +N.7Om 0Xmo!X!+{ n+v.fX<.-o*++.:Oh.: ,O,O;@+X@.t+f@8",
"o$ ]  X2 E #.poSXIXx+L+6O*XHO]Xz =+S.f.f f.R Ho]X'X@o4+bo1OUo$@8",
" /O7 0X=@* Co/ NX(+ZX-.- =o9XV.foAXJ+*o}@+X@ |o4+bX6OvOz+K.h /@8",
"+qo6X!OuO# Uoo+d@#XqXyXp ao.+: Ho]X'X@ |@1o1Ov.1 3+K.moR v k+q@8",
"+e .o-o:.>ofof >osXGOd+MoOOAX'X@o4+bX6OvOz+KO_.m v+`+>O+ IoI+e@8",
"X_oe =@O.2.2 4 4ok+;+9O~.# Bo1Ov.1 3+KO_oR v+` T@$@@X}+u.O cX_@8",
"o|OJoA+( 'O2XX@:o>oL+^+c.P+a.6+K.m v+`+>O+ IX*X}X%owXtXe.5.'o|@8",
"OX.so} `.x+xOl+lOj.8O)+KO_+}X +` T@$ IX*+u.O O+VONon+Ron w.]OX@8",
".~OEo4.I.=.!XK+=+=+jXh+`+>+B+ho_X}X%owXtXe.5on qon wom t.9+8.~@8",
"+_oJOvOz+KO_oR v+` TO+ IX*+uOQ m+YON.5X/ 8./o@o;+z@XoX.r dO1+_@8",
"oT z.m v+`+` T@$@@X}X%owXtXeONX#+|on wX] ~XL+)oK.c JX7oD j [oT@8",
"oEoY+>O+ IX*+u.O OXtXe.5 q qon AOI+y.9X$XW S G+%o{O..oOWO!O8oE@8",
"+I+5X}X%ow O+VONonXMon wom toB s+U ;XcoP.XOO Y.(+1._+<O^.n+m+I@8",
"+E.]XtXe.5 q qon wom t.9 soC doZOT.^.KX5X;.} )X.Xo@ XNO'XjXr+E@8",
" r+8+Ron wom toBOZoCOH d g.g joFOW.zO! L+]XBXDoNOV.0.%.Z+.+C r@8",
"ODO1om t.9 poC doZOToD joFOW.zO!.b.n.n@,X1X&.+.&Oyo[+ .FXCOKOD@8",
"XuO5oC.r d g.g joF.lXfO!oUO^.nO(O`Xj+P.V+W@;@>o2O6.J.$XFXF.dXu@8",
"Xs.ToQoD joFOW.zO!.bO^.n b.NXj.C.Z+.+.+X.FXC+!XFXFXFXFXF+2O%Xs@8",
"+kXE ! VO!oU.b.nO(O`Xj+PO|.Z+..S+O+QXC+!XFXFXFXFXFXFXF+2o5X+OD@8",
"@8O{.{.W+C.wOSOS.yOKOK.u.uOY.d.dOR.j.j.j.j.j.j.j.j.j.jO%X+Xl P@8",
"@8@8+AX3X3X3X3X3X3X3X3X3X3X3X3X3X3X3X3X3X3X3X3X3X3X3X3X3op R@8@8",
"@8@8@8@8@8@8@8@8@8@8@8@8@8@8@8@8@8@8@8@8@8@8@8@8@8@8@8@8@8@8@8@8"
};
