/* XPM */
static char *inkscape_xpm[] = {
/* width height ncolors chars_per_pixel */
"12 12 22 1",
/* colors */
"  c black",
". c #9F9F9F",
"X c #3F3F3F",
"o c gray94",
"O c gray24",
"+ c gray20",
"@ c #313131",
"# c #2D2D2D",
"$ c #CECECE",
"% c gray5",
"& c #BCBCBC",
"* c #010101",
"= c gray47",
"- c #6A6A6A",
"; c #323333",
": c white",
"> c gray93",
", c gray11",
"< c gray79",
"1 c gray75",
"2 c #0C0C0C",
"3 c None",
/* pixels */
"333333333333",
"3333#$&,3333",
"333+o>:<O333",
"33 .1-=X% 33",
"3          3",
"            ",
"3           ",
"33 *;@*   33",
"33   2*  333",
"3333     333",
"3333    3333",
"333333 33333"
};
