/* XPM */
static char *jackbeat_xpm[] = {
/* width height ncolors chars_per_pixel */
"48 48 365 2",
/* colors */
"   c #A098A7",
" . c #A194A8",
" X c #919AAC",
" o c #9F94A6",
" O c #868794",
" + c #767381",
" @ c #757380",
" # c #524A61",
" $ c #9996A0",
" % c #6C7281",
" & c #CBCDD1",
" * c #9A90A1",
" = c #8D7891",
" - c #AE98B8",
" ; c #716D7C",
" : c #988E9F",
" > c #AB8DBF",
" , c #958A9C",
" < c #4A4259",
" 1 c #7D7B8B",
" 2 c #8B8B9C",
" 3 c #7B7989",
" 4 c #A38FB7",
" 5 c #B6C7D0",
" 6 c #7A7988",
" 7 c #504F6C",
" 8 c #616276",
" 9 c #C6BAC2",
" 0 c #514A63",
" q c #727380",
" w c #EDE0DB",
" e c #8D7A94",
" r c #A5A8B2",
" t c #897E90",
" y c #726B80",
" u c #F0D9D4",
" i c #CFC6CE",
" p c #9DA3B4",
" a c #8C7093",
" s c #6E6B7C",
" d c #A2B8C6",
" f c #6C697A",
" g c #57546C",
" h c #C9BCC8",
" j c #757586",
" k c #A27B8E",
" l c #9F91A2",
" z c #878091",
" x c #91949E",
" c c #C5CBD1",
" v c #B0B4C3",
" b c #5D6F82",
" n c #BC98A4",
" m c #C3C5CF",
" M c #AE98AA",
" N c #7F7289",
" B c #A97C8E",
" V c #9BB2C2",
" C c #CCB7C4",
" Z c #DECECF",
" A c #B3A6B2",
" S c #858492",
" D c #848491",
" F c #998AA9",
" G c #8E7991",
" H c #988AA8",
" J c #9A8DA0",
" K c #ECDBD6",
" L c #5D596E",
" P c #A1869D",
" I c #957DAF",
" U c #A19EB4",
" Y c #5B576C",
" T c #C1C9D0",
" R c #888FA2",
" E c #C095A1",
" W c #E2D6D6",
" Q c #C7AAB5",
" ! c #62575F",
" ~ c #7D788A",
" ^ c #656979",
" / c #544D65",
" ( c #E3E3E4",
" ) c #9795A0",
" _ c #897F8F",
" ` c #4F4760",
" ' c #808290",
" ] c #9688A9",
" [ c #8D6F93",
" { c #938F9C",
" } c #C8ACB9",
" | c #646B7B",
".  c #6C6679",
".. c #56536A",
".X c #92879B",
".o c #787A88",
".O c #857681",
".+ c #777A87",
".@ c #6A6277",
".# c #4F4E6D",
".$ c #5F6376",
".% c #989BA4",
".& c #EFDAD5",
".* c #C5CAD0",
".= c #837B8C",
".- c #908B9C",
".; c #8D8999",
".: c #B8C1CD",
".> c #CDB1CE",
"., c #C4BFC5",
".< c #625E72",
".1 c #B18998",
".2 c #857F91",
".3 c #9C8EA1",
".4 c #5D5E6D",
".5 c #AF9AB7",
".6 c #998E9E",
".7 c #646D81",
".8 c #EBD8D4",
".9 c #AEB5C3",
".0 c #A0839B",
".q c #7F798B",
".w c #A29EAA",
".e c #CDBAC7",
".r c #908695",
".t c #917BA0",
".y c #636276",
".u c #AEA6B9",
".i c #524C62",
".p c #828591",
".a c #40384D",
".s c #A6A8B1",
".d c #818390",
".f c #ECDCD8",
".g c #988CA0",
".h c #8E6E93",
".j c #968C9E",
".k c #D1BECE",
".l c #4B405B",
".z c #9D859B",
".x c #E1D7D7",
".c c #646A7A",
".v c #F3D2CB",
".b c #9A8398",
".n c #797988",
".m c #908898",
".M c #8F8897",
".N c #918499",
".B c #8E8696",
".V c #AB7C8B",
".C c #89747A",
".Z c #D1ACCE",
".A c #8B8693",
".S c #8C8494",
".D c #D3D0D3",
".F c #AAA4B8",
".G c #AFA5B3",
".H c #717380",
".J c #8C7A94",
".K c #8C7894",
".L c #8B7893",
".P c #E4DDDD",
".I c #EFD9D4",
".U c #857C8D",
".Y c #A89DAC",
".T c #CFBCCF",
".R c #F2D4CD",
".E c #807888",
".W c #696778",
".Q c #C8C2C8",
".! c #696578",
".~ c #A67D93",
".^ c #7D7685",
"./ c #8D8698",
".( c #E0CECF",
".) c #888493",
"._ c #BCBBC6",
".` c #A4AAB5",
".' c #E4E1E0",
".] c #707182",
".[ c #CFCCD2",
".{ c #B9B9C3",
".} c #858090",
".| c #CDC6D0",
"X  c #5E576D",
"X. c #9A8B9E",
"XX c #957FAD",
"Xo c #5C6F82",
"XO c #52506B",
"X+ c #B1A9BB",
"X@ c #646376",
"X# c #636375",
"X$ c #98B0C0",
"X% c #777482",
"X& c #E4E3E3",
"X* c #838491",
"X= c #EEDFD9",
"X- c #897D8D",
"X; c #998DA0",
"X: c #9B89A2",
"X> c #A0869D",
"X, c #957BB0",
"X< c #B9B2BC",
"X1 c #A4B7C5",
"X2 c #E2D8D7",
"X3 c #6E6879",
"X4 c #948B9B",
"X5 c #938B9A",
"X6 c #7C788A",
"X7 c #F3D1CA",
"X8 c #7B7889",
"X9 c #7A7888",
"X0 c #453D54",
"Xq c #DDD0D2",
"Xw c #8D8794",
"Xe c #596478",
"Xr c #B1A6B4",
"Xt c #8E7D95",
"Xy c #A5A9B2",
"Xu c #8C7993",
"Xi c #95959F",
"Xp c #808291",
"Xa c #9791A1",
"Xs c #7F8290",
"Xd c #4E4560",
"Xf c #8C7193",
"Xg c #9BA6B2",
"Xh c #607082",
"Xj c #857B8C",
"Xk c #AA9EAD",
"Xl c #6D6A7B",
"Xz c #6C687A",
"Xx c #A89CAB",
"Xc c #817988",
"Xv c #6C667A",
"Xb c #636B7B",
"Xn c #6B6679",
"Xm c #807587",
"XM c #8E8998",
"XN c #8F8799",
"XB c #A598A8",
"XV c #696277",
"XC c #4E4E6D",
"XZ c #686276",
"XA c #767687",
"XS c #6E5F72",
"XD c #8D8397",
"XF c #A098A3",
"XG c #9F98A2",
"XH c #8C8196",
"XJ c #727683",
"XK c #8A7F94",
"XL c #887D92",
"XP c #D0C9D2",
"XI c #C6A9C5",
"XU c #635B67",
"XY c #AD95A9",
"XT c #A49AAA",
"XR c #958698",
"XE c #53516B",
"XW c #948697",
"XQ c #666477",
"X! c #87757D",
"X~ c #656476",
"X^ c #7A7584",
"X/ c #9D98A3",
"X( c #BFB7C1",
"X) c #5E5C6F",
"X_ c #8E7891",
"X` c #9889A8",
"X' c #837F90",
"X] c #AE98B7",
"X[ c #AE96B7",
"X{ c #5C586D",
"X} c #D3C0CE",
"X| c #877A8A",
"o  c #80798D",
"o. c #7F798C",
"oX c #8F8695",
"oo c #787385",
"oO c #737380",
"o+ c #B68A97",
"o@ c #818391",
"o# c #9093A3",
"o$ c #F0D9D3",
"o% c #867C8C",
"o& c #646C7B",
"o* c #646A7B",
"o= c #696576",
"o- c #777787",
"o; c #8C8895",
"o: c #D0AECE",
"o> c #7D5A6C",
"o, c #8D8296",
"o< c #8B8294",
"o1 c #BDBBC5",
"o2 c #ECE0DC",
"o3 c #D1CCD2",
"o4 c #707380",
"o5 c #878090",
"o6 c #776E7D",
"o7 c #887E91",
"o8 c #9692A2",
"o9 c #A69EB5",
"o0 c #B1B4C3",
"oq c #676577",
"ow c #615D71",
"oe c #655E6B",
"or c #9C8DA1",
"ot c #B7B7C2",
"oy c #5B6F82",
"ou c #C7AAB4",
"oi c #7E788A",
"op c #CEBBC8",
"oa c #E0D2D3",
"os c #696472",
"od c #795C6E",
"of c #636376",
"og c #696272",
"oh c #868A95",
"oj c #DCCECF",
"ok c gray89",
"ol c #D4CDD1",
"oz c #8C7791",
"ox c #627082",
"oc c #8E6F93",
"ov c #617081",
"ob c #AA97B5",
"on c #8E6D93",
"om c #D2BFCF",
"oM c #938B9B",
"oN c #92879A",
"oB c #93819B",
"oV c #908598",
"oC c #9FB1C1",
"oZ c #E9CCCB",
"oA c #8D8195",
"oS c #838495",
"oD c #63606F",
"oF c #8C7B94",
"oG c #94959F",
"oH c #8B7793",
"oJ c #6D6C7C",
"oK c #6E6A7D",
"oL c #A98CC1",
"oP c #6B687A",
"oI c #807988",
"oU c #55536B",
"oY c #737685",
"oT c #5E6377",
"oR c #B3A3B0",
"oE c #9C8CA0",
"oW c #A8A0AF",
"oQ c #837B8E",
"o! c #9A8A9E",
"o~ c #9587A3",
"o^ c #ECD6D4",
"o/ c #82798D",
"o( c #A0839A",
"o) c #5B546A",
"o_ c #96889A",
"o` c #E2D5D4",
"o' c #52516B",
"o] c #746072",
"o[ c None",
/* pixels */
"o[o[o[o[o[o[o[o[o[o[o[o[o[o[o[o[o[o[o[o[o[o[o`XqXqo`o[o[o[o[o[o[o[o[o[o[o[o[o[o[o[o[o[o[o[o[o[o[",
"o[o[o[o[o[o[o[o[o[o[o[o[o[o[o[o[o[o[o[o[o[o[oao3o3oao[o[o[o[o[o[o[o[o[o[o[o[o[o[o[o[o[o[o[o[o[o[",
"o[o[o[o[o[o[o[o[o[o[o[o[o[o[o[o[o[o[o[o[o[o[oao3o3oao[o[o[o[o[o[o[o[o[o[o[o[o[o[o[o[o[o[o[o[o[o[",
"o[o[o[o[o[o[o[o[o[o[o[o[o[o[o[o[o[o[o[oN S S.iX0X0.i.r.ro!o[o[o[o[o[o[o[o[o[o[o[o[o[o[o[o[o[o[o[",
"o[o[o[o[o[o[o[o[o[o[o[o[o[o[o[o[o[o[o[.SXsXs <.a.a <ohohXRo[o[o[o[o[o[o[o[o[o[o[o[o[o[o[o[o[o[o[",
"o[o[o[o[o[o[o[o[o[o[o[o[o[o[o[o[o[o[o[.SXsXs <.a.a <ohohXRo[o[o[o[o[o[o[o[o[o[o[o[o[o[o[o[o[o[o[",
"o[o[o[o[o[o[o[o[o[o[o[o[o[o[o[o[oEoXoXo)XdXd ` # #ow.p.pX* D D ,o[o[o[o[o[o[o[o[o[o[o[o[o[o[o[o[",
"o[o[o[o[o[o[o[o[o[o[o[o[o[o[o[o[o_ohoh /.l.l 0 E E.)XsXsXsXsXs.Bo[o[o[o[o[o[o[o[o[o[o[o[o[o[o[o[",
"o[o[o[o[o[o[o[o[o[o[o[o[o[o[o[o[o_ohoh /.l.l 0 E E.)XsXsXsXsXs.Bo[o[o[o[o[o[o[o[o[o[o[o[o[o[o[o[",
"o[o[o[o[o[o[o[o[o[o[o[o[o[XToGoG.<XEXE..X X .@.~.~.bX4X4.m.M.Mo/X6X6XHo[o[o[o[o[o[o[o[o[o[o[o[o[",
"o[o[o[o[o[o[o[o[o[o[o[o[o[   x x LXCXC gononoz.V.Vo(o3o3 $ x x.q.+.+XLo[o[o[o[o[o[o[o[o[o[o[o[o[",
"o[o[o[o[o[o[o[o[o[o[o[o[o[   x x LXCXC gononoz.V.Vo(o3o3 $ x x.q.+.+XLo[o[o[o[o[o[o[o[o[o[o[o[o[",
"o[o[o[o[o[o[o[o[o[o[XkX/X/X-X!X!o6. .  yonon [XfXf e } }XroWoWXNo<o<o. 3 3o,o[o[o[o[o[o[o[o[o[o[",
"o[o[o[o[o[o[o[o[o[o[Xx.%.%X|.C.C.O.Z.Z eonononononXuouou C ( ( ) x x ~.+.+XKo[o[o[o[o[o[o[o[o[o[",
"o[o[o[o[o[o[o[o[o[o[Xx.%.%X|.C.C.O.Z.Z eonononononXuouou C ( ( ) x x ~.+.+XKo[o[o[o[o[o[o[o[o[o[",
"o[o[o[o[o[o[o[X+ p p.=o4o4 +XWXW l.Z.Zo~.t.toHononXu n n A ( (X<.G.GoM././ +o4o4 to[o[o[o[o[o[o[",
"o[o[o[o[o[o[o[.uXgXgoI % % @X7X7X}.Z.Z HX,X,.KononXu E EoR ( ( ( ( (XF.%.%oO % %.Uo[o[o[o[o[o[o[",
"o[o[o[o[o[o[o[.uXgXgoI % % @X7X7X}.Z.Z HX,X,.KononXu E EoR ( ( ( ( (XF.%.%oO % %.Uo[o[o[o[o[o[o[",
"o[o[o[o[.{XyXy.! 7 7oUXaXa.wX=X=o^oZoZob 4 4XuononX_ B BX>olol.x ( (.QX(X(X5XMXMo&.c.c 1o[o[o[o[",
"o[o[o[o[ot.s.sXZXCXCXE 5 5 T w w.&X7X7 -oLoLXuononX_.V.V.0o3o3 W ( ( ( ( (XG.%.%o* ^ ^ 6o[o[o[o[",
"o[o[o[o[ot.s.sXZXCXCXE 5 5 T w w.&X7X7 -oLoLXuononX_.V.V.0o3o3 W ( ( ( ( (XG.%.%o* ^ ^ 6o[o[o[o[",
"o[o1 r rXz.#.#o'oSoS RX1X1 vX&X&.fX7X7 hXIXIXuonon.hococoF Q Qop ( ( ( ( (XP.Q.Qo8 { {Xb.c.c zo[",
"o[._.s.sXnXCXCXOX$X$ V d d.9 ( (.fX7X7.k.Z.ZXuononononon eouou.e ( ( ( ( ( ( ( (.`.s.s | ^ ^.}o[",
"o[._.s.sXnXCXCXOX$X$ V d d.9 ( (.fX7X7.k.Z.ZXuononononon eouou.e ( ( ( ( ( ( ( (.`.s.s | ^ ^.}o[",
"o[.g.+.+XJoyoyXhX$X$X$X$X$oCo3o3 ZX7X7.k.Z.ZX`X,X,oHonon eo+o+ M ( ( ( ( ( ( ( (Xwohoh.dXsXs oo[",
"o[.g.+.+XJoyoyXhX$X$X$X$X$oCo3o3 ZX7X7.k.Z.ZX`X,X,oHonon eo+o+ M ( ( ( ( ( ( ( (Xwohoh.dXsXs oo[",
"o[ J.o.ooYXoXoovo#o# XX$X$oC.[.[oj.v.vomo:o: H I IoHonon e.1.1XY.'.'ok ( (.|.,.,.A O OXpXpXp .o[",
"o[o[o[o[ :XsXsXAoyoyoxX$X$oC 5 5.* w w uX7X7X]oLoL.Lonon G.V.V Po3o3X2 ( (Xi x xX8.+.+oVo[o[o[o[",
"o[o[o[o[ :XsXsXAoyoyoxX$X$oC 5 5.* w w uX7X7X]oLoL.Lonon G.V.V Po3o3X2 ( (Xi x xX8.+.+oVo[o[o[o[",
"o[o[o[o[ * ' 'o- b b.7X'X' 2.:.: mo2o2.IX7X7.5 > >.Lonon = k k.z i i 9X(X(.-.;.; ~.n.n.Xo[o[o[o[",
"o[o[o[o[o[o[o[.jXsXsXzXeXe 8 d do0 ( ( KX7X7.T.Z.Z.LonononononXtououXF.%.% ~.+.+XDo[o[o[o[o[o[o[",
"o[o[o[o[o[o[o[.jXsXsXzXeXe 8 d do0 ( ( KX7X7.T.Z.Z.LonononononXtououXF.%.% ~.+.+XDo[o[o[o[o[o[o[",
"o[o[o[o[o[o[o[X;o@o@oJoToT.yoooo.2.P.P.8X7X7.T.Z.Z.J a aoconon NXmXmo%o5o5oiX9X9.No[o[o[o[o[o[o[",
"o[o[o[o[o[o[o[o[o[o[X.ohohoPXeXeX#o3o3.(X7X7.T.Z.Z ]X,X,oHonono]o>o>X3 % %Xco[o[o[o[o[o[o[o[o[o[",
"o[o[o[o[o[o[o[o[o[o[X.ohohoPXeXeX#o3o3.(X7X7.T.Z.Z ]X,X,oHonono]o>o>X3 % %Xco[o[o[o[o[o[o[o[o[o[",
"o[o[o[o[o[o[o[o[o[o[oro;o;oK.$.$X~ _ _.6.R.RX}.>.> FXXXX yXVXVXSododXl.H.HXjo[o[o[o[o[o[o[o[o[o[",
"o[o[o[o[o[o[o[o[o[o[o[o[o[   x x.^ % %X% w wo$X7X7X[oLoL gXCXCX{ ^ ^.]o[o[o[o[o[o[o[o[o[o[o[o[o[",
"o[o[o[o[o[o[o[o[o[o[o[o[o[   x x.^ % %X% w wo$X7X7X[oLoL gXCXCX{ ^ ^.]o[o[o[o[o[o[o[o[o[o[o[o[o[",
"o[o[o[o[o[o[o[o[o[o[o[o[o[XToGoG.E q qX^oAoA.3X7X7X:oBoB YXEXEX) | | jo[o[o[o[o[o[o[o[o[o[o[o[o[",
"o[o[o[o[o[o[o[o[o[o[o[o[o[o[o[o[XB.%.%oQ.+.+o X7X7.LononX@XeXe.Wo[o[o[o[o[o[o[o[o[o[o[o[o[o[o[o[",
"o[o[o[o[o[o[o[o[o[o[o[o[o[o[o[o[XB.%.%oQ.+.+o X7X7.LononX@XeXe.Wo[o[o[o[o[o[o[o[o[o[o[o[o[o[o[o[",
"o[o[o[o[o[o[o[o[o[o[o[o[o[o[o[o[.YXFXFo7 ~ ~ ;ogogo=XvXvXQ 8 8 so[o[o[o[o[o[o[o[o[o[o[o[o[o[o[o[",
"o[o[o[o[o[o[o[o[o[o[o[o[o[o[o[o[o[o[o[o9XgXgoe ! !.4XeXeoqo[o[o[o[o[o[o[o[o[o[o[o[o[o[o[o[o[o[o[",
"o[o[o[o[o[o[o[o[o[o[o[o[o[o[o[o[o[o[o[o9XgXgoe ! !.4XeXeoqo[o[o[o[o[o[o[o[o[o[o[o[o[o[o[o[o[o[o[",
"o[o[o[o[o[o[o[o[o[o[o[o[o[o[o[o[o[o[o[.F U UosXUXUoDofof fo[o[o[o[o[o[o[o[o[o[o[o[o[o[o[o[o[o[o[",
"o[o[o[o[o[o[o[o[o[o[o[o[o[o[o[o[o[o[o[o[o[o[ & 5 5 &o[o[o[o[o[o[o[o[o[o[o[o[o[o[o[o[o[o[o[o[o[o[",
"o[o[o[o[o[o[o[o[o[o[o[o[o[o[o[o[o[o[o[o[o[o[ & 5 5 &o[o[o[o[o[o[o[o[o[o[o[o[o[o[o[o[o[o[o[o[o[o[",
"o[o[o[o[o[o[o[o[o[o[o[o[o[o[o[o[o[o[o[o[o[o[.D c c.Do[o[o[o[o[o[o[o[o[o[o[o[o[o[o[o[o[o[o[o[o[o["
};
