/* XPM */
static char *jackmaster_xpm[] = {
/* width height ncolors chars_per_pixel */
"12 12 15 1",
/* colors */
"  c black",
". c #4D545C",
"X c #B37C00",
"o c #6ADD00",
"O c #00DD00",
"+ c #00B300",
"@ c #DD9A00",
"# c #40464D",
"$ c #3C4148",
"% c #25292E",
"& c #31363C",
"* c #9A9A00",
"= c #009A00",
"- c #54B300",
"; c None",
/* pixels */
";;;;;;;;;;;;",
";;*;;;;;;@X;",
";-o;;;;;;o-;",
";+O;+;O;;O+;",
";;=;;;=;;=;;",
"; ;;; ;;;..;",
";%%;; ;;;%%;",
";$$;; ;;;$$;",
";..;; ;;;; ;",
"; ;;&.#;;; ;",
"; ;;%$&;;; ;",
";;;;;;;;;;;;"
};
