/* XPM */
static char *jack-rack_xpm[] = {
/* width height ncolors chars_per_pixel */
"12 12 48 1",
/* colors */
"  c #B1B1B1",
". c gray68",
"X c dark grey",
"o c #A5A5A5",
"O c gray64",
"+ c gray63",
"@ c #9F9F9F",
"# c #9D9D9D",
"$ c #9B9B9B",
"% c gray60",
"& c #959595",
"* c gray57",
"= c gray56",
"- c #838383",
"; c #818181",
": c gray50",
"> c #777777",
", c gray46",
"< c #717171",
"1 c gray73",
"2 c #B4B4B4",
"3 c #B2B2B2",
"4 c #ACACAC",
"5 c #AAAAAA",
"6 c gray66",
"7 c #A4A4A4",
"8 c #A2A2A2",
"9 c gray62",
"0 c #989898",
"q c gray59",
"w c gray58",
"e c #909090",
"r c #8E8E8E",
"t c gray55",
"y c gray54",
"u c #888888",
"i c #868686",
"p c gray51",
"a c #808080",
"s c #7C7C7C",
"d c gray47",
"f c #767676",
"g c #747474",
"h c #727272",
"j c #BBBBBB",
"k c gray71",
"l c gray70",
"z c None",
/* pixels */
"zzzzzzzzzzzz",
"zzzzzzzzzzzz",
"zzzzzzzzzzzz",
"tuuyp;,gf:r=",
"X7O8yre=rh&+",
"jk .wq$ipf+5",
"1l33e0,<s@ 2",
"40*e>6d=a>ol",
"%ei-eqa0$%9#",
"zzzzzzzzzzzz",
"zzzzzzzzzzzz",
"zzzzzzzzzzzz"
};
