/* XPM */
static char * jamin_xpm[] = {
"12 12 113 2",
"  	c None",
". 	c #2ED34A",
"+ 	c #34D84F",
"@ 	c #3BDE56",
"# 	c #39DE55",
"$ 	c #33BE4A",
"% 	c #35CC4D",
"& 	c #2DD849",
"* 	c #64DD78",
"= 	c #97CDA0",
"- 	c #B2F2BD",
"; 	c #6BE480",
"> 	c #2CDE4A",
", 	c #2FAC45",
"' 	c #32C249",
") 	c #2AD747",
"! 	c #1AD93A",
"~ 	c #5AD26E",
"{ 	c #171717",
"] 	c #B0D2B6",
"^ 	c #B9F1C2",
"/ 	c #71E484",
"( 	c #28D344",
"_ 	c #2FAB44",
": 	c #2AC745",
"< 	c #24D842",
"[ 	c #19D438",
"} 	c #19AC2F",
"| 	c #152317",
"1 	c #416347",
"2 	c #A3DBAC",
"3 	c #82E694",
"4 	c #3AD253",
"5 	c #268838",
"6 	c #2DAF45",
"7 	c #2DC748",
"8 	c #29D747",
"9 	c #19CE37",
"0 	c #0DA825",
"a 	c #093D12",
"b 	c #29C543",
"c 	c #3FB754",
"d 	c #47E461",
"e 	c #41D45A",
"f 	c #35CA4D",
"g 	c #268437",
"h 	c #2CAC43",
"i 	c #2DC346",
"j 	c #33D74F",
"k 	c #19C435",
"l 	c #119C26",
"m 	c #054310",
"n 	c #14E335",
"o 	c #16DD36",
"p 	c #20DE40",
"q 	c #3AD154",
"r 	c #2FCD49",
"s 	c #247B33",
"t 	c #2CA541",
"u 	c #29BB43",
"v 	c #30CE49",
"w 	c #1CB936",
"x 	c #0F9123",
"y 	c #064511",
"z 	c #18E53A",
"A 	c #18DC39",
"B 	c #24D643",
"C 	c #30C94A",
"D 	c #29D045",
"E 	c #1F722E",
"F 	c #29963C",
"G 	c #28AA3F",
"H 	c #1E8F31",
"I 	c #244D2B",
"J 	c #4B7150",
"K 	c #084111",
"L 	c #22DF42",
"M 	c #24D440",
"N 	c #28CA44",
"O 	c #31BF4A",
"P 	c #29C744",
"Q 	c #258236",
"R 	c #1F8631",
"S 	c #0C4D15",
"T 	c #090E09",
"U 	c #212221",
"V 	c #1A7D2C",
"W 	c #2ACB46",
"X 	c #29C343",
"Y 	c #2BBD44",
"Z 	c #27B440",
"` 	c #20702E",
" .	c #237E31",
"..	c #135F1E",
"+.	c #0D5716",
"@.	c #157824",
"#.	c #26A83C",
"$.	c #2AAF42",
"%.	c #2BAE42",
"&.	c #21A53B",
"*.	c #179630",
"=.	c #1E6E2D",
"-.	c #227630",
";.	c #227F33",
">.	c #208D34",
",.	c #1E9836",
"'.	c #1C9534",
").	c #18882F",
"!.	c #157D2A",
"~.	c #1E712C",
"{.	c #1F742E",
"].	c #1D702C",
"^.	c #1E732D",
"        . + @ #         ",
"    $ % & * = - ; >     ",
"  , ' ) ! ~ { ] ^ / (   ",
"  _ : < [ } | 1 2 3 4   ",
"5 6 7 8 9 0 a b c d e f ",
"g h i j k l m n o p q r ",
"s t u v w x y z A B C D ",
"E F G H I J K L M N O P ",
"  Q R S T U V W X Y Z   ",
"  `  ...+.@.#.$.%.&.*.  ",
"    =.-.;.>.,.'.).!.    ",
"        ~.{.].^.        "};
