/* XPM */
static char *k3b_xpm[] = {
/* width height ncolors chars_per_pixel */
"12 12 88 1",
/* colors */
"  c #B88F8D",
". c #9D3434",
"X c #6F0000",
"o c #898786",
"O c #BDB8B9",
"+ c #E2DBDA",
"@ c #BA8888",
"# c #611313",
"$ c #B7B2B3",
"% c #C87B78",
"& c #8A1717",
"* c #C7A5A5",
"= c #EFEDED",
"- c #AE8589",
"; c #440000",
": c #787178",
"> c #CDC2BE",
", c #CAA4A4",
"< c #5D0101",
"1 c #D2C8C6",
"2 c #D1AEAE",
"3 c #A4716E",
"4 c #CBC2BF",
"5 c #C08A86",
"6 c #810303",
"7 c #A37373",
"8 c #C19797",
"9 c #BAB0B1",
"0 c #750404",
"q c #CA7575",
"w c #BDA7AA",
"e c #C9B2AF",
"r c #C4C9CB",
"t c #8E1919",
"y c #730605",
"u c #D9D3CF",
"i c #E6DFDF",
"p c #C39F9F",
"a c #D1C7C7",
"s c #930000",
"d c #8A0101",
"f c #A17D7A",
"g c #736F71",
"h c #B0A1A3",
"j c #B84848",
"k c #D2B7B7",
"l c #6A0202",
"z c #DDD2D2",
"x c #A15352",
"c c #B399AC",
"v c #AF9994",
"b c #CDBBB8",
"n c #D6CECE",
"m c #F3F2F1",
"M c #CEC6C6",
"N c #581717",
"B c #A26666",
"V c #936A6B",
"C c #D0CACB",
"Z c #A34746",
"A c #A88886",
"S c #B03635",
"D c #A9A0A1",
"F c #D1AAA4",
"G c #D7D3CE",
"H c #BDA4A4",
"J c #A23134",
"K c #F1EFEE",
"L c #D2C9C9",
"P c #7F0B0B",
"I c #920000",
"U c #623A3A",
"Y c #6E0404",
"T c #C5A5A5",
"R c #ABA8A9",
"E c #B83D3C",
"W c #9A2225",
"Q c #E0D6D6",
"! c #780000",
"~ c #7F1514",
"^ c #E6DEDF",
"/ c #EEEAEA",
"( c #F7F6F6",
") c #C9B9B5",
"_ c #E3D5D5",
"` c #765353",
"' c #801B1B",
"] c None",
/* pixels */
"]]]]]]]]]]]]",
"]]]]]']]]]]]",
"]]]o4E%) ]]]",
"];-1xS5uKO]]",
"]UFJ~3>mkQg]",
"]`&NA=(iB2D]",
"]y#ve$]pZ,9]",
"]0fG+_^w7qR]",
"]6bm/nMrcW:]",
"]lHzTaLChs]]",
"]]YVj*8@.I]]",
"]]]<dtP!X]]]"
};
