/* XPM */
static char *kdenlive_xpm[] = {
/* width height ncolors chars_per_pixel */
"12 12 54 1",
/* colors */
"  c #324F8A",
". c #355686",
"X c #903A2A",
"o c #3D3F45",
"O c #52658B",
"+ c #7A6084",
"@ c #224180",
"# c #345D98",
"$ c #272B32",
"% c #2D394F",
"& c #764337",
"* c #1A1A1B",
"= c #394978",
"- c #243760",
"; c #B16356",
": c #A96B65",
"> c #2C5799",
", c #933A2B",
"< c #354B8E",
"1 c #39649F",
"2 c #2A2E37",
"3 c #514264",
"4 c #121926",
"5 c #22385A",
"6 c #424855",
"7 c #9A4342",
"8 c #42454B",
"9 c gray5",
"0 c #334A71",
"q c #BA5E4A",
"w c #814554",
"e c #D5897B",
"r c #6B496C",
"t c #292F38",
"y c #415C8B",
"u c #354868",
"i c #3A2521",
"p c #1D375A",
"a c #2B4C78",
"s c #AE6261",
"d c #202121",
"f c #122848",
"g c #A6757D",
"h c #30558D",
"j c #556C9A",
"k c gray18",
"l c #282828",
"z c #4E6899",
"x c #161616",
"c c #315183",
"v c #59647C",
"b c #875C5A",
"n c #31496F",
"m c None",
/* pixels */
"mmmmmmmm*mmm",
"mmmmmmd%.amm",
"mmm&q,=h#1pm",
"mmmi:7r>cntm",
"mml-+sw3$xmm",
"mkv <g;Xmmmm",
"m6zj@bemmmmm",
"muyOommmmmmm",
"m508mmmmmmmm",
"mf2mmmmmmmmm",
"m49mmmmmmmmm",
"mmmmmmmmmmmm"
};
