/* XPM */
static char *keepassxc_xpm[] = {
/* width height ncolors chars_per_pixel */
"12 12 51 1",
/* colors */
"  c #E8EDE7",
". c #FAFBFA",
"X c #FAFCFA",
"o c #E9EEE8",
"O c #E9EFE7",
"+ c #D8D8D8",
"@ c gray57",
"# c #488835",
"$ c #488836",
"% c gray36",
"& c #EBF1E8",
"* c #498836",
"= c #5B993C",
"- c #5B993D",
"; c #5D5D5D",
": c #C8D4C7",
"> c #ECEDEB",
", c #ECEDEC",
"< c #ECEEEC",
"1 c #FEFEFE",
"2 c #FEFFFE",
"3 c white",
"4 c #CBD6C9",
"5 c #CBD7CA",
"6 c #CBD8C7",
"7 c #CBD8C8",
"8 c #CBDAC7",
"9 c #A7C49C",
"0 c #83AD72",
"q c #729A6A",
"w c #A8BFA3",
"e c #729B6B",
"r c #DEE7DC",
"t c #A8C49C",
"y c #4E8D37",
"u c #BBD2B1",
"i c #619F3F",
"p c #AAC79C",
"a c #ABC4A3",
"s c #D0E0C9",
"d c #D1DAD0",
"f c #D1DBD1",
"g c #D1DECD",
"h c #E3EBE0",
"j c #D2DFCD",
"k c #549040",
"l c #55933A",
"z c #9EB699",
"x c #68A541",
"c c #9FB89B",
"v c None",
/* pixels */
"vvvv%@@%vvvv",
"vv;+1fd1+;vv",
"v;>43::35,;v",
"v+ze1331qc+v",
"% $#w32w#*o%",
"@6yyyr.kyy7@",
"@8lllg3all8@",
"%O-==j10=-O%",
"v+9iihXiit+v",
"v;<pxuuxp<;v",
"vv;+&ss&+;vv",
"vvvv%@@%vvvv"
};
