/* XPM */
static char *konqueror_xpm[] = {
/* width height ncolors chars_per_pixel */
"12 12 77 1",
/* colors */
"  c #D5FAFF",
". c #B6B6C3",
"X c #D1D8E4",
"o c #AAD2F9",
"O c #034FD6",
"+ c #9898A2",
"@ c #C9C9D2",
"# c #555560",
"$ c #6EA9EC",
"% c #A0CFFC",
"& c #BDDCFE",
"* c #EAF7FF",
"= c #B7D8FB",
"- c #7E7E8B",
"; c #AAD9F8",
": c #C9EEFC",
"> c #1161DC",
", c #EFEFF3",
"< c #D2F7FE",
"1 c #DBEEFD",
"2 c #BFC1D1",
"3 c #CAE2EF",
"4 c #5898EC",
"5 c #3785E6",
"6 c #A4A4AF",
"7 c #999AA4",
"8 c #84848C",
"9 c #CDD9EE",
"0 c #5B9BEB",
"q c #DFEAF9",
"w c #E6E6EC",
"e c #3374DE",
"r c #E8F9FE",
"t c #F5F5F7",
"y c #AAD1F9",
"u c #B0D0F5",
"i c #DCFEFF",
"p c #8C91AA",
"a c #C8F4FF",
"s c #6C88A8",
"d c #A6CFF8",
"f c #2F7AE3",
"g c #959FCD",
"h c #9497A1",
"j c #2D5D95",
"k c #C7D7F4",
"l c #FCFCFD",
"z c #86C2F6",
"x c #696970",
"c c #E3E3EB",
"v c #67676E",
"b c #C6C6D5",
"n c #1B6DDC",
"m c #8AB2E9",
"M c #5D9DEB",
"N c #549CEC",
"B c #88C1F4",
"V c #8A8A93",
"C c #AECCEB",
"Z c #A5ACCB",
"A c #D0E9F5",
"S c #73747C",
"D c #4986E4",
"F c #707079",
"G c #DADAE1",
"H c #8CADE7",
"J c #8E8E9D",
"K c #2361D9",
"L c #76B0F2",
"P c #7C7C8B",
"I c #A2BCE5",
"U c #99D1FD",
"Y c #DBFEFF",
"T c #E4F3FE",
"R c #A3B7DF",
"E c #5A9EED",
"W c None",
/* pixels */
"W8WWWWWWWWWW",
"Wvl6SWWWWWWW",
"WW@9uT*1sWWW",
"WWh$=&oydjWW",
"WVIN%L00MnWW",
"wtHO4UE>f5WW",
"WWRKBa;ezDWW",
"WW7m Yi<:CWW",
"WWGXAkqr32-W",
"Wx,PFZgp#.bW",
"WWWWW+cWWWWW",
"WWWWWWJWWWWW"
};
