/* XPM */
static char *konsole_xpm[] = {
/* width height ncolors chars_per_pixel */
"12 12 97 2",
/* colors */
"   c black",
" . c #C2A079",
" X c #A49483",
" o c #483A2C",
" O c #F6DA8E",
" + c #E7D59D",
" @ c #2C2421",
" # c #26201B",
" $ c gray60",
" % c #45382C",
" & c #30251E",
" * c #F3CC8E",
" = c #D0B586",
" - c #EADBA6",
" ; c #838383",
" : c #D8BB91",
" > c #7B7B7B",
" , c #797979",
" < c #777777",
" 1 c gray46",
" 2 c gray45",
" 3 c #DFC691",
" 4 c #1E1E1F",
" 5 c #C5AB84",
" 6 c gray28",
" 7 c #3F3F3F",
" 8 c gray23",
" 9 c #FEF9CC",
" 0 c #A39176",
" q c gray20",
" w c #FACB86",
" e c gray17",
" r c #DCC190",
" t c #4A3A2F",
" y c #9A8A63",
" u c #272727",
" i c #C2AA7D",
" p c #E4CD9B",
" a c #99999A",
" s c #C8C8C8",
" d c #EDE0B4",
" f c gray73",
" g c #070707",
" h c #E5D3A2",
" j c #7D7D7E",
" k c #C0A481",
" l c #757576",
" z c #AB906C",
" x c #EEDAA7",
" c c #9C885D",
" v c gray55",
" b c gray54",
" n c #EDCB88",
" m c gray51",
" M c #7C7C7C",
" N c gray48",
" B c #140F0C",
" V c gray47",
" C c #767676",
" Z c #9CC39B",
" A c #747474",
" S c #1E1B19",
" D c #727272",
" F c gray44",
" G c #F0E0B2",
" H c #E0C995",
" J c #362B23",
" K c #AD9E7A",
" L c #BBB8B6",
" P c #483C2E",
" I c #433933",
" U c gray36",
" Y c #E6D39E",
" T c #505050",
" R c #4E4E4E",
" E c #4C4C4C",
" W c #DEC28C",
" Q c #D7BD8F",
" ! c #3C352F",
" ~ c #E4D1A2",
" ^ c gray19",
" / c #2A2A2A",
" ( c #E9D2A0",
" ) c #BFA37A",
" _ c #1E1E1E",
" ` c #EEDEA8",
" ' c gray79",
" ] c #F8E8B5",
" [ c #929293",
" { c #E5D09F",
" } c #8A8A8B",
" | c #0C0C0C",
".  c #F6EAB6",
".. c #AEC3AE",
".X c #F3EAB3",
".o c #7C7C7D",
".O c None",
/* pixels */
" 8 M M N , < 1 A D F.O.O",
" M s a [ b m.o , l f _.O",
" M $ F 6 / |       ' _.O",
" > [ U U q g & t B L _.O",
" , } e u @ = i - k 5 S.O",
" V ; | J ..X r d ` Q ).O",
" C j   o ] 3 ( G.  H K.O",
" 1 v 7 z : x Y ~ { + #.O",
" 2 Z.. X h p n w * 0 4.O",
" ^ T R E I c O 9 W !.O.O",
".O.O.O.O.O.O P y %.O.O.O",
".O.O.O.O.O.O.O.O.O.O.O.O"
};
