/* XPM */
static char *kwrite_xpm[] = {
/* width height ncolors chars_per_pixel */
"12 12 66 1",
/* colors */
"  c #D8CB9F",
". c #CEBFA9",
"X c #B5A66C",
"o c #9B9184",
"O c #C0B99B",
"+ c #D8C58E",
"@ c #3B3C36",
"# c #DACFA7",
"$ c #5D5636",
"% c #D0BC7F",
"& c #A59783",
"* c #897D4D",
"= c #C3B7A7",
"- c #EBE3D8",
"; c #91824E",
": c #BEB9A5",
"> c #EDE9DD",
", c #F3EBCF",
"< c #DBD1B4",
"1 c #9D9060",
"2 c #A8954D",
"3 c #4E4E44",
"4 c #A89750",
"5 c #8C8570",
"6 c #CAC3BA",
"7 c #D4CAA6",
"8 c #312E27",
"9 c #AF9E67",
"0 c gray83",
"q c #D2D2D2",
"w c #3B3C37",
"e c #CBC7C1",
"r c #C6C1BC",
"t c #E2D6A9",
"y c #84887B",
"u c gray1",
"i c #010101",
"p c #A49F97",
"a c #D4C89B",
"s c #DCD4BA",
"d c #CFCDCB",
"f c #404138",
"g c #ECE7DA",
"h c #878684",
"j c #CDC5A1",
"k c #D3C6B4",
"l c #C0B29E",
"z c #FAF5EE",
"x c #C6BDB1",
"c c #9C948B",
"v c #DBD0C2",
"b c #D5C691",
"n c #827950",
"m c #D0C28F",
"M c white",
"N c #BAAA93",
"B c #FCFAF8",
"V c light grey",
"C c #8F8358",
"Z c #908570",
"A c #CCC8C2",
"S c #9E8F56",
"D c #353731",
"F c #A8954F",
"G c #040404",
"H c None",
/* pixels */
"HHHHHHHHHHHH",
"HHHHHA6H@yDH",
"HHHHdz<3ywuH",
"HHHqBs#jfGiH",
"HHVMgat+;8HH",
"H0M>m,b4*Z&H",
"H0M O%FCo.NH",
"HH:792ncklHH",
"HH1XS5pv=HHH",
"HH$Hhr-xHHHH",
"HHHHHe6HHHHH",
"HHHHHHHHHHHH"
};
