/* XPM */
static char *libreoffice_base_xpm[] = {
/* width height ncolors chars_per_pixel */
"12 12 69 1",
/* colors */
"  c #907E94",
". c #A449B5",
"X c #C6A5CC",
"o c #BE6CCB",
"O c #BE68CB",
"+ c #DACEDC",
"@ c #A76EB4",
"# c #A891AE",
"$ c #862797",
"% c #A38DA9",
"& c #BC87C5",
"* c #9E89A4",
"= c #E9E7EA",
"- c #E7DFE8",
"; c #C2A2C7",
": c #C8AAD0",
"> c gray95",
", c #CB90D6",
"< c #9A869F",
"1 c #ECECEC",
"2 c #E7B5EE",
"3 c #948299",
"4 c #AB4FBA",
"5 c #AA4DB9",
"6 c #E1E0E1",
"7 c #A182A9",
"8 c #DADADA",
"9 c gray80",
"0 c #BB9FC2",
"q c #852F94",
"w c #D499DE",
"e c #B69BBD",
"r c #B197B8",
"t c #952DA7",
"y c #D1B4D7",
"u c #A448B5",
"i c #E0D9E2",
"p c #8B03A0",
"a c #994AAA",
"s c #DACFDC",
"d c #B89ABE",
"f c #AE73BB",
"g c #AD94B3",
"h c #8C2A9D",
"j c #E3E2E4",
"k c #C5ABCA",
"l c #DDDADE",
"z c #B978C5",
"x c #663770",
"c c #9435A4",
"v c #F1F1F1",
"b c #EFEFEF",
"n c #CF8DDA",
"m c #A76AB6",
"M c #991FAC",
"N c gray93",
"B c gray92",
"V c #E9E9E9",
"C c #E7E7E7",
"Z c #DFDFDF",
"A c #DDDDDD",
"S c #BA79C5",
"D c #87039A",
"F c #820395",
"G c gray78",
"H c #D498DE",
"J c #D396DD",
"K c #74557C",
"L c None",
/* pixels */
"La@@@@tLmppL",
"L0V11BXcLDDL",
"LeN>>v=;hLFL",
"LrVbbbbVk$LL",
"LgC-y::yidqL",
"L#jzoJJoSl7L",
"L%6MOJJOM6%L",
"L*Z.w,,HuZ*L",
"L<A5n22n4A<L",
"L38+&ff&s83L",
"L G999999G L",
"LxKKKKKKKKxL"
};
