/* XPM */
static char *libreoffice_impress_xpm[] = {
/* width height ncolors chars_per_pixel */
"12 12 70 1",
/* colors */
"  c #A46E55",
". c #A55935",
"X c #A7542D",
"o c #C4967E",
"O c #95837E",
"+ c #A16E55",
"@ c #AA624A",
"# c #DEA88A",
"$ c #9B3B03",
"% c #B47E6E",
"& c #A86F55",
"* c #A76F54",
"= c #F3C9AF",
"- c #E3B59C",
"; c #E1B39A",
": c #A0694D",
"> c #A26445",
", c #E0B59C",
"< c #A26448",
"1 c #C3ADA7",
"2 c #C8AEA2",
"3 c #7D5F55",
"4 c #C2A69F",
"5 c #A9938D",
"6 c #BEA29B",
"7 c #EAE8E7",
"8 c gray95",
"9 c #ECECEC",
"0 c #CCB1A5",
"q c #A03D03",
"w c #E2E2E2",
"e c #BBA49E",
"r c #DADADA",
"t c #94502F",
"y c gray80",
"u c #BEA59A",
"i c #A98B82",
"p c #A45F3B",
"a c #A08C86",
"s c #A36447",
"d c #B67B6A",
"f c #974C27",
"g c #CAB6AB",
"h c #724737",
"j c #A48F89",
"k c #EDC2A9",
"l c #95766D",
"z c #9E4F2A",
"x c #DFB49B",
"c c #B39A94",
"v c #ECBDA1",
"b c #9A8782",
"n c #D1916F",
"m c #F1F1F1",
"M c #EFEFEF",
"N c #DFDDDC",
"B c #D3A58B",
"V c gray93",
"C c gray92",
"Z c #E9E9E9",
"A c #E7E7E7",
"S c gray90",
"D c #DFDFDF",
"F c #963903",
"G c #DDDDDD",
"H c #AE9791",
"J c gray78",
"K c #E8BCA2",
"L c #B89E97",
"P c None",
/* pixels */
"P@%%%%XPdqqP",
"P4Z99C0.P$$P",
"P6V88m72zPFP",
"PLZMMMMZgfPP",
"PcA11111eutP",
"PHSs;---<NiP",
"P5w*BK&npw5P",
"PjD xko#>DjP",
"PaG+k=,v:GaP",
"PbrllllllrbP",
"POJyyyyyyJOP",
"Ph33333333hP"
};
