/* XPM */
static char *libreoffice_math_xpm[] = {
/* width height ncolors chars_per_pixel */
"12 12 65 1",
/* colors */
"  c #AFAFAF",
". c #A5A5A5",
"X c gray63",
"o c #9D9D9D",
"O c gray60",
"+ c #939393",
"@ c gray56",
"# c #8B8B8B",
"$ c gray53",
"% c gray52",
"& c #7B7B7B",
"* c gray45",
"= c gray42",
"- c gray39",
"; c gray98",
": c #F8F8F8",
"> c #F4F4F4",
", c gray95",
"< c gray94",
"1 c #ECECEC",
"2 c #EAEAEA",
"3 c #E6E6E6",
"4 c gray87",
"5 c gainsboro",
"6 c gray83",
"7 c #D2D2D2",
"8 c #D0D0D0",
"9 c #C8C8C8",
"0 c #C6C6C6",
"q c #BCBCBC",
"w c gray73",
"e c gray72",
"r c #B2B2B2",
"t c #AEAEAE",
"y c #AAAAAA",
"u c #9A9A9A",
"i c #989898",
"p c gray58",
"a c #909090",
"s c #888888",
"d c #848484",
"f c #747474",
"g c gray40",
"h c #646464",
"j c #606060",
"k c gray36",
"l c #505050",
"z c #F1F1F1",
"x c #EFEFEF",
"c c gray93",
"v c #E9E9E9",
"b c #E7E7E7",
"n c gray90",
"m c gray86",
"M c #D7D7D7",
"N c #D5D5D5",
"B c light grey",
"V c gray81",
"C c gray78",
"Z c #C5C5C5",
"A c #C3C3C3",
"S c gray75",
"D c gray74",
"F c #BBBBBB",
"G c None",
/* pixels */
"G&@@@@*G@--G",
"Gtc<<<qfGjjG",
"Gy>;;;xe=GkG",
"G.,;;;;zSgGG",
"GX<:5Fwwr gG",
"Gox,tZmmyb+G",
"GicVOD07CciG",
"Gp1adMs$81pG",
"Ga29uN&%A2aG",
"G#vnBm436v#G",
"G$VMMMMMMV$G",
"GlhhhhhhhhlG"
};
