/* XPM */
static char *libreoffice_calc_xpm[] = {
/* width height ncolors chars_per_pixel */
"12 12 66 1",
/* colors */
"  c #41A535",
". c #338D27",
"X c #C7D0C6",
"o c #AFCAAB",
"O c #A9CCA5",
"+ c #A6C8A2",
"@ c #588155",
"# c #379E2A",
"$ c #65A85E",
"% c #65A45E",
"& c #51AA4A",
"* c #A9C3A7",
"= c gray95",
"- c #3E7637",
"; c #ECECEC",
": c #E7EAE7",
"> c #E2E2E2",
", c #DADADA",
"< c #88A186",
"1 c #3A972F",
"2 c #80977E",
"3 c gray80",
"4 c #C8D2C8",
"5 c #90C28A",
"6 c #18A003",
"7 c #7CB276",
"8 c #DDDFDC",
"9 c #D8DDD7",
"0 c #85AA82",
"q c #CCD7CB",
"w c #CBD5CA",
"e c #47963E",
"r c #47923E",
"t c #70986D",
"y c #9EBF9A",
"u c #7DB976",
"i c #169703",
"p c #3AA72D",
"a c #349927",
"s c #92AF91",
"d c #579950",
"f c #A1C29F",
"g c #179C03",
"h c #F1F1F1",
"j c #9DBE9B",
"k c #EFEFEF",
"l c gray93",
"z c gray92",
"x c #99B897",
"c c #E9E9E9",
"v c #96B494",
"b c #E7E7E7",
"n c gray90",
"m c #B1DFAB",
"M c #B1DDAB",
"N c #73B46E",
"B c #6FB66A",
"V c #8FAA8D",
"C c #DFDFDF",
"Z c #DDDDDD",
"A c #58A250",
"S c #8BA689",
"D c #849C82",
"F c #CCD3CC",
"G c gray78",
"H c None",
/* pixels */
"H&NNNNpHB66H",
"Hfc;;zO HggH",
"Hjl==h:+#HiH",
"HxckkkkcoaHH",
"Hvb*****9y1H",
"HsnAmAmuq80H",
"HV>.$.$ew>VH",
"HSCr5r5%4CSH",
"H<ZdMdM7XZ<H",
"HD,tttttF,DH",
"H2G333333G2H",
"H-@@@@@@@@-H"
};
