/* XPM */
static char *libreoffice_writer_xpm[] = {
/* width height ncolors chars_per_pixel */
"12 12 56 1",
/* colors */
"  c #8996A4",
". c #6E92B4",
"X c #A5BCCC",
"o c #7E8995",
"O c #0367A0",
"+ c #919FAE",
"@ c #708CA8",
"# c #55697D",
"$ c #8296A9",
"% c #4A7EAA",
"& c #9FAFC2",
"* c #ABBECA",
"= c gray95",
"- c #DCDFE3",
"; c #ECECEC",
": c #8D9AA9",
"> c #E2E2E2",
", c #DADADA",
"< c #6D7F90",
"1 c #DCDEDF",
"2 c gray80",
"3 c #2F6B94",
"4 c #A3AEBA",
"5 c #97A7B8",
"6 c #9AAFBE",
"7 c #CDD4DC",
"8 c #CBD2DA",
"9 c #B2B8BE",
"0 c #6A91B6",
"q c #8692A0",
"w c #036196",
"e c #A7B8CA",
"r c #9BACBE",
"t c #A2B8C8",
"y c #2A6F9E",
"u c #F1F1F1",
"i c #EFEFEF",
"p c gray93",
"a c gray92",
"s c #E9E9E9",
"d c #E7E7E7",
"f c gray90",
"g c gray89",
"h c #3578A5",
"j c #DFDFDF",
"k c #2D77A7",
"l c #DDDDDD",
"z c #94A3B3",
"x c #E7E9EA",
"c c #375772",
"v c #276A97",
"b c #C6CAD0",
"n c #03649B",
"m c gray78",
"M c #828E9A",
"N c None",
/* pixels */
"N%....kN0OON",
"N&s;;aXhNnnN",
"Nrp==uxtyNwN",
"N5siiiis*vNN",
"Nzdeeee7d63N",
"N+f8888-a1$N",
"N:>@@@@@@>:N",
"N j444444j N",
"NqlbbbbbblqN",
"NM,<<<<9g,MN",
"Nom222222moN",
"Nc########cN"
};
