/* XPM */
static char *lmarbles_xpm[] = {
/* width height ncolors chars_per_pixel */
"12 12 29 1",
/* colors */
"  c #0B0B6E",
". c #0C0C51",
"X c #0C0C7C",
"o c #0F0F0E",
"O c #2C2CD3",
"+ c #0F0FD1",
"@ c gray45",
"# c #2828D2",
"$ c #1111AE",
"% c #131211",
"& c gray20",
"* c #3E3EF7",
"= c #100F0D",
"- c #C0C0C0",
"; c #090923",
": c #242423",
"> c #0B0B6A",
", c gray44",
"< c #0C0C53",
"1 c #0C0C7E",
"2 c #121110",
"3 c #090921",
"4 c gray19",
"5 c #3D3DF6",
"6 c #222222",
"7 c #1010CD",
"8 c #1111B0",
"9 c #474746",
"0 c None",
/* pixels */
"000000000000",
"00000#$00000",
"0000 *7;0000",
"000001<00000",
"00>00&600>00",
"0O5X4-@2O5X0",
"08+.:,9=8+.0",
"00300%o00300",
"00000#$00000",
"0000 *7;0000",
"000001<00000",
"000000000000"
};
