/* XPM */
static char *ltris_xpm[] = {
/* width height ncolors chars_per_pixel */
"12 12 47 1",
/* colors */
"  c #D94141",
". c #6464E6",
"X c #793131",
"o c #AAA946",
"O c #989613",
"+ c #989720",
"@ c #B0AF55",
"# c #7272EC",
"$ c #212185",
"% c #D8D74A",
"& c #3A2323",
"* c #B66868",
"= c #4A4AD8",
"- c #D84E4E",
"; c #9F3A3A",
": c #2D1919",
"> c #A21212",
", c #010168",
"< c #ED7979",
"1 c #3131B8",
"2 c #A51818",
"3 c #E6E564",
"4 c #DAD95B",
"5 c #5B5BDA",
"6 c #848321",
"7 c #3434CE",
"8 c #D1CE34",
"9 c #9F3232",
"0 c #AE5151",
"q c #9F2B2B",
"w c #E66060",
"e c #3B1E1E",
"r c #ECEA72",
"t c #686601",
"y c #D85252",
"u c #202098",
"i c #3A2020",
"p c #2C2CD2",
"a c #131398",
"s c #B7B530",
"d c #A54A4A",
"f c #75741D",
"g c #9E9D2E",
"h c #D2CF2C",
"j c #3636D4",
"k c #CB1919",
"l c None",
/* pixels */
"llllll&ie&i:",
"llllll>kw>k0",
"llllll2 <2 *",
"$j.1j.q9;-yd",
",p#ap#lll>k0",
"u=57=5lll2 *",
"6831j.1j.-yd",
"thrap#ap#>k0",
"+%47=57=52 *",
"683s83s83q9X",
"thrOhrOhrlll",
"fo@go@go@lll"
};
