/* XPM */
static char *m64py_xpm[] = {
/* width height ncolors chars_per_pixel */
"12 12 114 2",
/* colors */
"   c gray68",
" . c #C65959",
" X c #E54646",
" o c #E1BFBF",
" O c #AD6B6B",
" + c #DF6E6E",
" @ c #D1D4D0",
" # c #A99595",
" $ c #959595",
" % c #CA1F1E",
" & c gray57",
" * c #A1A29A",
" = c #D1BCBC",
" - c #AD0808",
" ; c #639B21",
" : c #E52B2B",
" > c #679C32",
" , c #BD5959",
" < c #A66060",
" 1 c #86D550",
" 2 c #6D6D6D",
" 3 c #A1A0A0",
" 4 c #C26161",
" 5 c #B70404",
" 6 c #558820",
" 7 c #83947F",
" 8 c gray35",
" 9 c #A36D6D",
" 0 c #D54F4F",
" q c #BDB4B1",
" w c #578C28",
" e c #9FC972",
" r c #C10000",
" t c #87A275",
" y c #FE6060",
" u c #9C7F55",
" i c #D47F7F",
" p c #8AA385",
" a c #70A25E",
" s c #EF3A3A",
" d c gray88",
" f c #DEE0DE",
" g c #DADADA",
" h c #CF7D7D",
" j c #C67E7E",
" k c #D3BCBC",
" l c #C39F9F",
" z c #AEA694",
" x c #6FBB45",
" c c #C19693",
" v c #E03B3B",
" b c #C35D5D",
" n c #C97070",
" m c #DD0000",
" M c gray69",
" N c #CDBCBC",
" B c #AA7C7C",
" V c #D6C8C8",
" C c #BA5757",
" Z c #5D951F",
" A c #90A679",
" S c #A7E978",
" D c #7C7676",
" F c #9A9A9A",
" G c #C9CDC8",
" H c #C8C7C7",
" J c #D70000",
" K c #B5B1B1",
" L c #648E4A",
" P c #588627",
" I c #867019",
" U c #D15656",
" Y c #FD4646",
" T c #96AE85",
" R c #E80000",
" E c #B0A2A2",
" W c #B49B71",
" Q c #C05045",
" ! c #E4E2E2",
" ~ c #667F45",
" ^ c #B9C6B1",
" / c #E3D7D7",
" ( c gray43",
" ) c #F74646",
" _ c #C59F9F",
" ` c #932F0B",
" ' c #738944",
" ] c #789960",
" [ c #C09090",
" { c #AAB6A5",
" } c #B94444",
" | c #7AA06F",
".  c #AA8E8E",
".. c #CFBCBC",
".X c #F51C1C",
".o c #B34B4B",
".O c #F00000",
".+ c #8A8682",
".@ c #CCBCBC",
".# c #A7DF76",
".$ c #EE4646",
".% c #9F5C5B",
".& c #C37B7B",
".* c #C3B8B6",
".= c #C3C3C3",
".- c #F80707",
".; c #CA4343",
".: c gray74",
".> c #B0ACA3",
"., c #BBBBBB",
".< c #C2B8B8",
".1 c #D30000",
".2 c #9A4B3B",
".3 c None",
/* pixels */
".3.3.3.3.3   $ g.3.3.3.3",
".3.3.3.3., d !.=.3.3.3.3",
".3 K &.: 2.  [ ( M F 3.3",
".3 . o H B.o , 9.< / U k",
".3 }.; D O _ E i 8 n r =",
" f.+ c C :.X y.- 4 0 5..",
" t > ' % v.O Y s J + - N",
" T Z I b l R ) h j W u.@",
" * ~.2 < V m.$.& z.# e.>",
".3 w q.3.*.1 X.% S 1 x a",
".3 ; { L 6 ` Q #.3 | p.3",
".3 A P ^.3 ] 7.3.3 G @.3"
};
