/* XPM */
static char *mcomix_xpm[] = {
/* width height ncolors chars_per_pixel */
"12 12 72 1",
/* colors */
"  c #B55F1E",
". c #B57545",
"X c #915C36",
"o c #EBA26A",
"O c #924527",
"+ c #B66836",
"@ c #C87634",
"# c #DA833F",
"$ c #EBC3A4",
"% c #934828",
"& c #942D02",
"* c #C97735",
"= c #DB843F",
"- c #935835",
"; c #DB8E54",
": c #EE9047",
"> c #DC8847",
", c #824C2F",
"< c #CA804D",
"1 c #EF9249",
"2 c #DD8F53",
"3 c #973003",
"4 c #EFB07D",
"5 c #EFB17E",
"6 c #F09851",
"7 c #CD8651",
"8 c #CD8652",
"9 c #F2974E",
"0 c #E08B49",
"q c #E2863C",
"w c #E28D4E",
"e c #BE7B49",
"r c #E3863C",
"t c #F5A15C",
"y c #F5A25E",
"u c #D1946A",
"i c #E4883E",
"p c #E3A97A",
"a c #E3AB7F",
"s c #C07442",
"d c #D28A54",
"f c #F6A563",
"g c #F6A564",
"h c #F6A869",
"j c #D28F61",
"k c #D37F3E",
"l c #E5904F",
"z c #D38A53",
"x c #8C4726",
"c c #9F3900",
"v c #9F3A00",
"b c #C27F55",
"n c #E5B996",
"m c #F7C9A4",
"M c #8D5332",
"N c #F8BE8F",
"B c #C3834F",
"V c #C38451",
"C c #F8CBA7",
"Z c #E88940",
"A c #8E5535",
"S c #F9C295",
"D c #E98D46",
"F c #D7823E",
"G c #E9924C",
"H c #904A29",
"J c #EA8F47",
"K c #EA944E",
"L c #D88C54",
"P c #905C35",
"I c #EAA26B",
"U c None",
/* pixels */
"UUUUUUUUUUUU",
"UUUUUUUUUUUU",
"UUUU,xHAUUUU",
"UUU%3vc&OUUU",
"UUMsb +u<-UU",
"dI>gNn$Sh0oL",
"lF:ypmCaf1kw",
"7iD9B45V6JZj",
"Uz2@GttK*;8U",
"UUU.#qr=eUUU",
"UUUUUPXUUUUU",
"UUUUUUUUUUUU"
};
