/* XPM */
static char *minivmac_xpm[] = {
/* width height ncolors chars_per_pixel */
"12 12 17 1",
/* colors */
"  c #9F9F9F",
". c gray53",
"X c gray50",
"o c #777777",
"O c gray44",
"+ c #686868",
"@ c #646464",
"# c gray36",
"$ c white",
"% c #F3F3F3",
"& c gray25",
"* c #EFEFEF",
"= c #E7E7E7",
"- c gray19",
"; c gray86",
": c #202020",
"> c None",
/* pixels */
">>&&&&&&&&>>",
">:%      %:>",
">: $O$=.$ :>",
">: $&=@%$ :>",
">: $-+%$$ :>",
">: $#*$$$ :>",
">:;      ;:>",
">:$$$$$$$$:>",
">:$$$$   $:>",
">:$$$$$$$$:>",
">>X      X>>",
">>o      o>>"
};
