/* XPM */
static char *mozilla_xpm[] = {
/* width height ncolors chars_per_pixel */
"12 12 57 1",
/* colors */
"  c #F69407",
". c #9F2F01",
"X c #985407",
"o c #A55000",
"O c #763B00",
"+ c #CE6E46",
"@ c #7C4B09",
"# c #FEC018",
"$ c #CA3400",
"% c #F4A718",
"& c #A2510D",
"* c #441000",
"= c #8E1A00",
"- c #232114",
"; c #C67205",
": c #F64903",
"> c #6D4300",
", c #FCA712",
"< c #A19036",
"1 c #DF3100",
"2 c #883000",
"3 c #CB2500",
"4 c #C49237",
"5 c #ED3D00",
"6 c #FE9466",
"7 c #8B6623",
"8 c #804201",
"9 c #3D2501",
"0 c #FB4B03",
"q c #AB4F00",
"w c #762F04",
"e c #744305",
"r c #B33401",
"t c #341901",
"y c #3A330A",
"u c #FFB00F",
"i c #A02E08",
"p c #DDAC2F",
"a c #864608",
"s c #883F00",
"d c #A34600",
"f c #E6BD34",
"g c #5A2E1B",
"h c #BE2D00",
"j c #683E2C",
"k c #C53800",
"l c #6C2208",
"z c #DDBB31",
"x c #DD3900",
"c c #7F1D00",
"v c #C21A00",
"b c #751A00",
"n c #AE1A00",
"m c #E8C238",
"M c #DB3F01",
"N c #644809",
"B c None",
/* pixels */
"BBBBBBBBBBBB",
"BBBBBfBBBBBB",
"BBBB9<7BBBBB",
"BBBBj+6gBBBB",
"X42Mr:0.-mpB",
"B@il*x5$yzBB",
"BBt&ac1bNBBB",
"BBB%#w3=>BBB",
"BBB,uenvdBBB",
"BB8 ;BshkBBB",
"BBoOBBBBqBBB",
"BBBBBBBBBBBB"
};
