/* XPM */
static char *mplayer_xpm[] = {
/* width height ncolors chars_per_pixel */
"12 12 107 2",
/* colors */
"   c #1651BE",
" . c #4773B9",
" X c #113884",
" o c #6E95D2",
" O c #2E62BE",
" + c #1C69F5",
" @ c #85ACE5",
" # c #1B64EA",
" $ c #091F47",
" % c #185AD3",
" & c #1C66EE",
" * c #5184D6",
" = c #0C2B64",
" - c #1346A3",
" ; c #10377F",
" : c #0B2659",
" > c #3265BE",
" , c #124198",
" < c #A3C3EE",
" 1 c #09214D",
" 2 c #1757CB",
" 3 c #1448A7",
" 4 c #1348A6",
" 5 c #1652C0",
" 6 c #9EBADF",
" 7 c #6A8DC3",
" 8 c #154AAB",
" 9 c #5784CE",
" 0 c #B8D3F5",
" q c #1D57C0",
" w c #1B60DF",
" e c #195EDD",
" r c #678BC3",
" t c #1B65EC",
" y c #103B88",
" u c #1651BC",
" i c #1D6CFB",
" p c #185BD5",
" a c #2F6AD1",
" s c #164EB5",
" d c #1449A9",
" f c #1653C2",
" g c #13449E",
" h c #1C69F6",
" j c #113F92",
" k c #1D55B8",
" l c #1D6BFA",
" z c #1C6BF9",
" x c #154BB0",
" c c #2266E1",
" v c #103780",
" b c #98BAEB",
" n c #537EC5",
" m c #276CE9",
" M c #1348A7",
" N c #1652C1",
" B c #0B285D",
" V c #608ED8",
" C c #195EDB",
" Z c #0F3478",
" A c #ACCAF1",
" S c #0A2352",
" D c #144AAB",
" F c #154498",
" G c #0E347A",
" H c #3864AD",
" J c #6A97DE",
" K c #103B89",
" L c #1756C8",
" P c #81A9E4",
" I c #1651BD",
" U c #0B224F",
" Y c #317AFF",
" T c #113D8D",
" R c #366DCF",
" E c #0D2C68",
" W c #1347A6",
" Q c #1A62E5",
" ! c #103882",
" ~ c #84A5D6",
" ^ c #0F3377",
" / c #0E3376",
" ( c #154EB5",
" ) c #1449AA",
" _ c #B7D2F4",
" ` c #79A3E2",
" ' c #1C69F7",
" ] c #113F93",
" [ c #103A88",
" { c #1F6DFD",
" } c #1E6DFC",
" | c #1C6BFA",
".  c #124197",
".. c #537BB9",
".X c #1652BF",
".o c #0E3275",
".O c #1D65EA",
".+ c #1A63E7",
".@ c #92B6E9",
".# c #1859D1",
".$ c #144AAC",
".% c #9DBFED",
".& c #6F90C3",
".* c #337CFF",
".= c #1756C9",
".- c #6185BF",
".; c None",
/* pixels */
".;.;.;.; y x 3 X.;.;.;.;",
".;.; 8 | z + t C.= v.;.;",
".; D { > m i + Q.# I ;.;",
".; l.* r ~ 9 c # p N M.;",
" s l Y.& < _ 6 n q 5 4 E",
".O ' } 7 < 0 A.@ o H F !",
" w & h.-.@.% b @ V O.  Z",
" g e.+.. ` P J R u W [ S",
".; 2 % . * a L I.$ j.o.;",
".; T.X k f   ( M ] G 1.;",
".;.; ^ ) d - , K / U.;.;",
".;.;.;.; : = B $.;.;.;.;"
};
