/* XPM */
static char *mrxvt_xpm[] = {
/* width height ncolors chars_per_pixel */
"12 12 103 2",
/* colors */
"   c #676665",
" . c #959595",
" X c #100F0F",
" o c #BFC0BE",
" O c #0E0D0D",
" + c #605518",
" @ c #828382",
" # c #808180",
" $ c #B5B6B4",
" % c #4A4220",
" & c #7D817D",
" * c #7C7F7C",
" = c #B2B2B1",
" - c #7B7D7B",
" ; c #787B78",
" : c #767776",
" > c gray42",
" , c #201E1E",
" < c #504A2C",
" 1 c #1E1C1C",
" 2 c #626362",
" 3 c #1C1A1A",
" 4 c #161414",
" 5 c #141212",
" 6 c #121010",
" 7 c #403D3D",
" 8 c #36311C",
" 9 c #3D3B3A",
" 0 c gray99",
" q c #494949",
" w c #454745",
" e c #424542",
" r c #404340",
" t c #2C2929",
" y c #605E5C",
" u c #2A2727",
" i c #E9EAE9",
" p c #282525",
" a c #5D5A59",
" s c #262323",
" d c #232120",
" f c #201D1D",
" g c #1B1918",
" h c #1A1717",
" j c #181515",
" k c #5C5C5B",
" l c #413B1C",
" z c #CBCCCB",
" x c #C9CAC9",
" c c #4B4C4A",
" v c #332E18",
" b c #383434",
" n c #3B372D",
" m c #C0C0C0",
" M c #302C2C",
" N c #090909",
" B c #2E2A2A",
" V c #B4B6B4",
" C c #B2B2B2",
" Z c #B1B2B1",
" A c #989898",
" S c #0F0E0E",
" D c #0D0C0C",
" F c #0B0A0A",
" G c #B4B5B3",
" H c #7C807C",
" J c #7C7E7C",
" K c #373535",
" L c #7A7C7A",
" P c #333131",
" I c #302F2E",
" U c #221F20",
" Y c #575454",
" T c #545051",
" R c #4F4E4C",
" E c #5E605E",
" W c #191717",
" Q c #151313",
" ! c #131111",
" ~ c #3A3837",
" ^ c #FBFBFB",
" / c #494A49",
" ( c #3E403E",
" ) c #2B2828",
" _ c #292626",
" ` c #E9E9E9",
" ' c #272424",
" ] c #252222",
" [ c #5A5756",
" { c gray90",
" } c #211E1E",
" | c #1E1C1B",
".  c #8C7C1D",
".. c #CBCDCB",
".X c #CACBCA",
".o c #484947",
".O c #353131",
".+ c #332F2F",
".@ c #312D2D",
".# c #2F2B2B",
".$ c #060606",
".% c #B4B5B4",
".& c None",
/* pixels */
".&.&.&.&.&.&.&.&.&.&.&.&",
".& 0 ^ @ A 2 . >.&.&.&.&",
" : i ` { z.X z z z.. x E",
" @ k < n I P K ~ 9 7   &",
" @ c.  8 , ] u.#.+ b y H",
" @.o + v l % ' ) M.O a *",
" @ w X Q h 1 d p t.@ [ J",
" @ e D 6 4 g f ] _ B Y -",
" @ r N O ! j 3 } s u T L",
" @ (.$ F S 5 W | U ' R ;",
" # m C = Z Z G V.% $ o -",
".& / q / / / / / / / /.&"
};
