/* XPM */
static char *mysqlcc_xpm[] = {
/* width height ncolors chars_per_pixel */
"12 12 76 1",
/* colors */
"  c #9EAABC",
". c #96A7BE",
"X c #CED9EB",
"o c #476898",
"O c #12173C",
"+ c #888C92",
"@ c #434258",
"# c #DBE7ED",
"$ c #8DA6C8",
"% c #AAB9CA",
"& c #AAB7CA",
"* c #A1B2CB",
"= c gray39",
"- c #7B828B",
"; c #C7D8E6",
": c #9CACC9",
"> c #2D477D",
", c #C3D8E5",
"< c #C2D4E4",
"1 c #3E4C73",
"2 c #95AAC5",
"3 c #73829D",
"4 c #D3DCE4",
"5 c #7E92AE",
"6 c #AFB5C7",
"7 c #9D9D9E",
"8 c #AEB9C9",
"9 c #97A6B9",
"0 c #A7B6CC",
"q c #B3C6DB",
"w c #DFE7EF",
"e c #AABED2",
"r c #D4DCEE",
"t c #FBFDFD",
"y c #6B6F94",
"u c #DCE0E5",
"i c gray62",
"p c gray61",
"a c #D1DBE7",
"s c #D1D9E7",
"d c #606978",
"f c #F0F5F8",
"g c #C5CFDB",
"h c #FEFEFF",
"j c #869DBE",
"k c #E4EBEF",
"l c #F8FAFC",
"z c #F7FAFB",
"x c #757B82",
"c c #868A8C",
"v c #767B86",
"b c #DDE3EB",
"n c #DCE3EA",
"m c #BACEE3",
"M c #E0E0E4",
"N c #959597",
"B c white",
"V c #949396",
"C c #C3D1E5",
"Z c #8196B8",
"A c #B9C5DB",
"S c #B1BFD3",
"D c #CCD1DD",
"F c #C8D4E6",
"G c #232E4E",
"H c #CAD3DE",
"J c #9C9C9D",
"K c #F0F5F6",
"L c #95A6C1",
"P c #627FA6",
"I c #F2F7FB",
"U c #939697",
"Y c #A8B4C6",
"T c #FBFCFD",
"R c #D0D4E0",
"E c #F7F8F9",
/* pixels */
"=iJ+vdGO@Vi=",
"izD&*Zo>yMBi",
"iHAXrF$PshBi",
"xSmL:,Cj.TBi",
"UnwY1e<q5kBi",
"iBBI94#;2gBi",
"iBBBKtBf0%hi",
"iBBBBBBBa8hi",
"iBBBBBBBEuBi",
"iBBBBBBBl Rp",
"iBBBBBBBb36N",
"=iiiiiiic-7="
};
