/* XPM */
static char *nethack_xpm[] = {
/* width height ncolors chars_per_pixel */
"12 12 63 1",
/* colors */
"  c black",
". c #C1CCD1",
"X c #AAB4A3",
"o c gray60",
"O c #C6D1CF",
"+ c #D3DEE9",
"@ c #979797",
"# c #2E2E26",
"$ c #AEB9A0",
"% c #F2F2E6",
"& c #A3ABAC",
"* c #4E7379",
"= c #688DAD",
"- c #D4D4CB",
"; c #5F849D",
": c #CFDAE0",
"> c #648384",
", c #90A18E",
"< c #96A08A",
"1 c #738D82",
"2 c #B1B5B5",
"3 c #C4D3E2",
"4 c #4D7277",
"5 c #698EB0",
"6 c #BACBDB",
"7 c #C0CDCD",
"8 c #686C5C",
"9 c #1A1A16",
"0 c #BABAA9",
"q c #E0E0C1",
"w c #4C7175",
"e c #C4D1D7",
"r c #838976",
"t c #9FA2A2",
"y c #8FABC7",
"u c gray54",
"i c #5F849B",
"p c #7C7C68",
"a c #476C6C",
"s c #B5C0AD",
"d c #767662",
"f c #8D947F",
"g c #678895",
"h c #AEAE92",
"j c #7E857A",
"k c #AAAA8E",
"l c #0D0D0B",
"z c #5E7E78",
"x c #212525",
"c c #414137",
"v c gray21",
"b c #141411",
"n c #729098",
"m c #688DAF",
"M c #9AAFBF",
"N c #BDCEDE",
"B c #E2E2DE",
"V c #444439",
"C c #5F849C",
"Z c #6C91B6",
"A c #BBC3A7",
"S c #848671",
"D c None",
/* pixels */
"DDDDDDDDDDDD",
"DDuDB%qkDDDD",
"D.2+:Os$AdrD",
"De7Z5;wa1drD",
"DxtZmC4a1c9D",
"DDoZ=i*a1cDD",
"DDDy5;wa,bDD",
"DDD3mC4zS#DD",
"DD6&Mi>8jX#D",
"DNnpv-d <gfD",
"D@0lDDDDDhVD",
"DDDDDDDDDDDD"
};
