/* XPM */
static char *openttd_xpm[] = {
/* width height ncolors chars_per_pixel */
"12 12 83 1",
/* colors */
"  c #2F2317",
". c #E3DFD8",
"X c #413425",
"o c #F69E4C",
"O c #DC6801",
"+ c #5AB32C",
"@ c #E7E7E2",
"# c #E7A55E",
"$ c #433320",
"% c #488821",
"& c #E2DCD3",
"* c #EC862E",
"= c #CDA983",
"- c #3B771E",
"; c #D26E11",
": c #FB8A2C",
"> c #DABCA0",
", c #C79569",
"< c #CAB6A4",
"1 c #448C23",
"2 c #446316",
"3 c #E89447",
"4 c #CA8F5B",
"5 c #E0C1A2",
"6 c #DA6B01",
"7 c #DED2C4",
"8 c #D3AE8B",
"9 c #E1A05A",
"0 c #DAC9B6",
"q c #DDD4C6",
"w c #CFC6B8",
"e c #F27911",
"r c #DB9E5A",
"t c #E6A55E",
"y c #478A21",
"u c #D3C2AE",
"i c #448821",
"p c #AE5202",
"a c #BA9974",
"s c #ED852C",
"d c #538822",
"f c #F69A45",
"g c #BF7430",
"h c #D98439",
"j c #34291B",
"k c #C9955E",
"l c #3B781E",
"z c #433423",
"x c #FE7704",
"c c #975005",
"v c #C09F83",
"b c #1A360E",
"n c #448923",
"m c #34681A",
"M c #CF813F",
"N c #CB9152",
"B c #2A4B1A",
"V c #AF5F05",
"C c #3C7B1E",
"Z c #D3D3CD",
"A c #B39E86",
"S c #C78F51",
"D c #A25C05",
"F c #BDAA93",
"G c #C96407",
"H c #466717",
"J c #A85904",
"K c #FC8725",
"L c #C58848",
"P c #BD6212",
"I c #4F7219",
"U c #E2954A",
"Y c #D89357",
"T c #463624",
"R c #E4E4E0",
"E c #F98E32",
"W c #C97931",
"Q c #F5790D",
"! c #D87622",
"~ c #EAECE9",
"^ c #DAA973",
"/ c #CFB69D",
"( c None",
/* pixels */
"((((($((((((",
"((((T#N(((((",
"(((zta^S((((",
"((XrAZw=L(((",
"(j9kRF/0fg((",
" Uo3q~u4:KP(",
"(WEM,87.exc(",
"Bd;!@<v&QD+b",
"(-2GY>5*Jim(",
"((CH6hsVyl((",
"(((1IOp%n(((",
"(((((((((((("
};
