/* XPM */
static char *pgadmin3_xpm[] = {
/* width height ncolors chars_per_pixel */
"12 12 53 1",
/* colors */
"  c #4E6277",
". c #A3BBD1",
"X c #2D4053",
"o c #4B5156",
"O c #6A6E71",
"+ c #7B9BBD",
"@ c #344F6A",
"# c #335980",
"$ c #204060",
"% c #2F4B68",
"& c #527DA8",
"* c #6C7986",
"= c #6188B0",
"- c #58636F",
"; c #454A4F",
": c #4D79A6",
"> c #8AA7C4",
", c #5A626A",
"< c #545C64",
"1 c #416F9D",
"2 c #85A3C2",
"3 c #336699",
"4 c #4271A1",
"5 c #131313",
"6 c #5C85AD",
"7 c #5781AB",
"8 c #414950",
"9 c #668CB3",
"0 c #94AFC9",
"q c #56616B",
"w c #80A0BF",
"e c #8FABC7",
"r c #6E8296",
"t c #3D6E9E",
"y c #CCD9E5",
"u c #7B9CBD",
"i c #1F3D5C",
"p c #386A9C",
"a c gray40",
"s c #B3C6D9",
"d c #7094B8",
"f c #495E74",
"g c #595F66",
"h c #48688A",
"j c gray25",
"k c #93A6B9",
"l c #326395",
"z c #474F57",
"x c #3C658E",
"c c #66737F",
"v c #6F7174",
"b c #526475",
"n c None",
/* pixels */
"nq**, %*@$qn",
"8133u333=pl-",
"i33d3333t+3i",
"i332:w33ey3b",
"c332p>33>:1o",
"g432393392hn",
"nx3&393340<n",
"nr39z.637skO",
"nn%vfX236ajn",
"nnnnnn23x5nn",
"nnnnnn23#nnn",
"nnnnnnX$;nnn"
};
