/* XPM */
static char *pidgin_xpm[] = {
/* width height ncolors chars_per_pixel */
"12 12 113 2",
/* colors */
"   c #714D79",
" . c #D6BFDC",
" X c #A282A9",
" o c #8F539D",
" O c #AA9BAD",
" + c #DDD4DF",
" @ c #8F5C96",
" # c #57255F",
" $ c #53235B",
" % c #4C2754",
" & c #7F5E86",
" * c #A06AAD",
" = c #F8F3F9",
" - c #725079",
" ; c #704C77",
" : c #F3EBF4",
" > c #935CA0",
" , c #8D569A",
" < c #C9B6CE",
" 1 c #B6A8B8",
" 2 c #98667D",
" 3 c #865093",
" 4 c #874E94",
" 5 c #73427D",
" 6 c #9B75A4",
" 7 c #53305A",
" 8 c #AB7BB7",
" 9 c #C6A8CE",
" 0 c #815F87",
" q c #4C2053",
" w c #E1CFE5",
" e c #79557F",
" r c #2E1432",
" t c #411C48",
" y c #C3988C",
" u c #C7B9C8",
" i c #29142D",
" p c #AD89A8",
" a c #7E4345",
" s c #200E24",
" d c #C98053",
" f c #8B5597",
" g c #9559A4",
" h c #A07CA8",
" j c #AB7AB6",
" k c #4F2B55",
" l c #A97CB4",
" z c #AA7AB5",
" x c #A976B4",
" c c #A674B1",
" v c #C4A1CB",
" b c #A17377",
" n c #27112A",
" m c #9868A3",
" M c #7E5C86",
" N c #9C89A0",
" B c #1E0D21",
" V c #7B5883",
" C c #B387BD",
" Z c #E3B98C",
" A c #90569E",
" S c #DCA56E",
" D c #885296",
" F c #74447F",
" G c #864E94",
" H c #A77772",
" J c #3D2042",
" K c #7F5D86",
" L c #7B5782",
" P c #77517E",
" I c #F6BB69",
" U c #BFA1AA",
" Y c #EAE4EB",
" T c #E1710F",
" R c #65416C",
" E c #AC80B5",
" W c #E4A261",
" Q c #874F94",
" ! c #593760",
" ~ c #A878B4",
" ^ c #4D2754",
" / c #A876B4",
" ( c #D1C8D2",
" ) c #4F2156",
" _ c #A572B1",
" ` c #A177A3",
" ' c #461D4D",
" ] c #451D4C",
" [ c #2D1331",
" { c #9D7695",
" } c #251329",
" | c #26112A",
".  c #A781AF",
".. c #5D3E63",
".X c #854C91",
".o c #C2AAC6",
".O c #AE9EAF",
".+ c #A17DA9",
".@ c #C59073",
".# c #957186",
".$ c #7E468A",
".% c #AF81BA",
".& c #F69B36",
".* c #8C4E9B",
".= c #B4A2B8",
".- c #AB7BB6",
".; c #AA79B5",
".: c #A777B2",
".> c #49264F",
"., c #48224E",
".< c #9C585B",
".1 c #221025",
".2 c None",
/* pixels */
".2 [ q ) $ #.2.2.2.2.2.2",
".2 ] ' %   & e ! i.2.2.2",
".2 t k h l _.:.  - r.2.2",
".2.>.+ 8.% x * / 9.. B.2",
".2 ; E . = w.; v :.= s.2",
".2 K z + O Y C X 1 ( J.2",
".2 0 j.o N < p.#.O u.1.2",
".2 M.- ` U { Z W y b }.2",
".2 V ~ @ H S I.& T a.1.2",
".2 P c g , 2.@ d.< L n.2",
".2 R m.* o A D 3 > 6 7 |",
".2 ^ F.$.X 4 4 Q G f 5.,"
};
