/* XPM */
static char *projectm_xpm[] = {
/* width height ncolors chars_per_pixel */
"32 32 126 2",
/* colors */
"   c black",
" . c #000F21",
" X c #002C59",
" o c #003870",
" O c #00274F",
" + c #004687",
" @ c #000F24",
" # c #004D94",
" $ c #003A73",
" % c #002448",
" & c #001127",
" * c #004180",
" = c #001D3E",
" - c #000C1D",
" ; c #004F97",
" : c #003C76",
" > c #001834",
" , c #00132A",
" < c #0056A4",
" 1 c #004383",
" 2 c #00519A",
" 3 c #005DB1",
" 4 c #00264E",
" 5 c #004586",
" 6 c #002144",
" 7 c #000102",
" 8 c #003972",
" 9 c #003468",
" 0 c #000305",
" q c #001026",
" w c #004E96",
" e c #003B75",
" r c #001229",
" t c #005099",
" y c #003D78",
" u c #005CB0",
" i c #004B8F",
" p c #00050B",
" a c #0057A6",
" s c #004485",
" d c #B3B3B4",
" f c #003F7B",
" g c #002C5A",
" h c #001B39",
" j c #000204",
" k c #002E5D",
" l c #003A74",
" z c #005BAC",
" x c #00488B",
" c c #00356A",
" v c #002449",
" b c #000407",
" n c #001128",
" m c #000E1E",
" M c #004F98",
" N c #00132B",
" B c #0056A5",
" V c #001F42",
" C c #00519B",
" Z c #004C91",
" A c #00060D",
" S c #00152E",
" D c #0058A8",
" F c #001024",
" G c #00539E",
" H c #00407D",
" J c #000B1A",
" K c #004E94",
" L c #003B73",
" P c #003973",
" I c #002852",
" U c #001731",
" Y c #005AAB",
" T c #000306",
" R c #004280",
" E c #000813",
" W c #00366C",
" Q c #000509",
" ! c #00122A",
" ~ c #7C7C7C",
" ^ c #000D20",
" / c #003D79",
" ( c #004B90",
" ) c #00386F",
" _ c #004686",
" ` c #00529D",
" ' c #003F7C",
" ] c #004D93",
" [ c #003A72",
" { c #00070F",
" } c #001630",
" | c #0059AA",
".  c #000205",
".. c #0054A0",
".X c #004F96",
".o c #002954",
".O c #001833",
".+ c #00244A",
".@ c #000408",
".# c #0056A3",
".$ c #004382",
".% c #002B57",
".& c #000915",
".* c #005DB0",
".= c #00376E",
".- c #B3B4B4",
".; c #002143",
".: c #000E22",
".> c #00519C",
"., c #004C92",
".< c #003971",
".1 c #00152F",
".2 c #004788",
".3 c #00539F",
".4 c #004E95",
".5 c #003B74",
".6 c #001228",
".7 c #0055A2",
".8 c #004281",
".9 c #005098",
".0 c #005CAF",
".q c #00050A",
".w c #0057A5",
".e c #004484",
".r c #7C7C7D",
".t c None",
/* pixels */
".t.t.t.t.t.t.t.t.t.t.t.t.t.t.t.t.t.t.t.t.t.t.t.t.t.t.t.t.t.t.t.t",
".t.t.t.t.t.t.t.t.t.t.t.t.t.t.t.t.t.t.t.t.t.t.t.t.t.t.t.t.t.t.t.t",
".t.t.t.t.t.t.t.t.t.t d.r.t.t.t.t.t.t.t.t  .t.t.t.t.t.t.t.t.t.t.t",
".t.t.t.t.t.t.t.t.t.t J.:.t.t.t.t.t.t.t.t V.r.t.t.t.t.t.t.t.t.t.t",
".t.t.t.t.t.t.t.t.t.t c ).t.t.t.t.t.t.t.t.2.1.t.t.t.t.t.t.t.t.t.t",
".t.t.t.t.t.t.t.t.t.r Z.4.r.t.t.t.t.t.t.q z :.t.t.t.t.t.t.t.t.t.t",
".t.t.t.t.t.t.t.t.t - 3 3 F.t.t.t.t.t.t X 3 `.r.t.t.t.t.t.t.t.t.t",
".t.t.t.t.t.t.t.t.t W 3 3 o.t.t.t.t.t.t _ 3 3 >.t.t.t.t.t.t.t.t.t",
".t.t.t.t.t.t.t.t.r ] 3 3.X.r.t.t.t.t b Y 3 3 /.t.t.t.t.t.t.t.t.t",
".t.t.t.t.t.t.t.t ^ 3 3 3 3 &.t.t.t.t.o 3 3 3...r.t.t.t.t.t.t.t.t",
".t.t.t.t.t.t.t.t.= 3 3 3 3.<.t.t.t.t s 3 3 3 3 h.t.t.t.t.t.t.t.t",
".t.t.t.t.t.t.t.r K 3 3 3 3.9.r.t.t T | 3 3 3 3 f.t.t.t.t.t.t.t.t",
".t.t.t.t.t.t.t.: 3 3 3 3 3 3 r.t.t O 3 3 3 3 3.7.r.t.t.t.t.t.t.t",
".t.t.t.t.t.t.t ) 3 3 B a 3 3 $.t.t 1 3 3 G z 3 3 =.t.t.t.t.t.t.t",
".t.t.t.t.t.t.r w 3 3 1 * 3 3 t.r.  D 3 3.5 x 3 3 H.t.t.t.t.t.t.t",
".t.t.t.t.t.t q 3 3 3 g V 3 3 3 N.+ 3 3 3 , W 3 3 <.r.t.t.t.t.t.t",
".t.t.t.t.t.t.< 3 3 u {.r.# 3 3 l.8 3 3 M.r.6 3 3 3 6.t.t.t.t.t.t",
".t.t.t.t.t.r ; 3 3.,.-.t ' 3 3 C a 3 3 o.t.r.. 3 3 R.t.t.t.t.t.t",
".t.t.t.t.t n 3 3 3 $.t.t h 3 3 3 3 3 3 @.t.t R 3 3 a j.t.t.t.t.t",
".t.t.t.t.t [ 3 3 3.O.t.t.r.3 3 3 3 3 #.r.t.t I 3 3 3 v.t.t.t.t.t",
".t.t.t.t.r t 3 3 <.r.t.t.t y 3 3 3 3 W.t.t.t p.0 3 3.$.t.t.t.t.t",
".t.t.t.t N 3 3 3.$.t.t.t.t U 3 3 3.* -.t.t.t.- i 3 3 D 0.t.t.t.t",
".t.t.t.t l 3 3 3.%.t.t.t.t.r C 3 3 ( d.t.t.t.t P 3 3 3 4.t.t.t.t",
".t.t.t.r 2 3 3.0 A.t.t.t.t.t L 3 3 9.t.t.t.t.t.O 3 3 3.e.t.t.t.t",
".t.t.t S 3 3 3 (.-.t.t.t.t.t ! 3 u.&.t.t.t.t.t.r.w 3 3 | T.t.t.t",
".t.t.t e 3 3 3 8.t.t.t.t.t.t ~ . m.t.t.t.t.t.t.t 1 3 3 3.o.t.t.t",
".t.t.r.> 3 3 3 }.t.t.t.t.t.t.t.t.t.t.t.t.t.t.t.t k 3 3 3 5.t.t.t",
".t.t } 3 3 3.7.r.t.t.t.t.t.t.t.t.t.t.t.t.t.t.t.t E 3 3 3 Y.@.t.t",
".t.t : 3 3 3.8.t.t.t.t.t.t.t.t.t.t.t.t.t.t.t.t.t.-.4 3 3 3 X.t.t",
".t.r ` 3 3 3.o.t.t.t.t.t.t.t.t.t.t.t.t.t.t.t.t.t.t y 3 3 3 +.t.t",
".t.@ % % % % Q.t.t.t.t.t.t.t.t.t.t.t.t.t.t.t.t.t.t . % % %.; 7.t",
".t.t.t.t.t.t.t.t.t.t.t.t.t.t.t.t.t.t.t.t.t.t.t.t.t.t.t.t.t.t.t.t"
};
