/* XPM */
static char *qtractor_xpm[] = {
/* width height ncolors chars_per_pixel */
"12 12 84 1",
/* colors */
"  c #594829",
". c #7B6F47",
"X c #6E674E",
"o c #605433",
"O c #847953",
"+ c #979076",
"@ c #36301A",
"# c #302A14",
"$ c #716543",
"% c #A49875",
"& c #5A4929",
"* c #ACA280",
"= c #867D5E",
"- c #938664",
"; c #6C5A37",
": c #48432E",
"> c #595238",
", c #463E22",
"< c #71623F",
"1 c #6A6142",
"2 c #6D6548",
"3 c #6F6240",
"4 c #625C47",
"5 c #B4AC94",
"6 c #464028",
"7 c #807657",
"8 c #80754D",
"9 c #AEA584",
"0 c #3E3820",
"q c #7A6B47",
"w c #595137",
"e c #8C8469",
"r c #968D6C",
"t c #A89C77",
"y c #7E765B",
"u c #A69A75",
"i c #2C2611",
"p c #776B4A",
"a c #958B6E",
"s c #B4AA89",
"d c #686048",
"f c #544C31",
"g c #796E48",
"h c #BDB38E",
"j c #B9B094",
"k c #5D563D",
"l c #736642",
"z c #332D17",
"x c #B6AB87",
"c c #A69974",
"v c #312B15",
"b c #796C4B",
"n c #9D936E",
"m c #696148",
"M c #C3B893",
"N c #716849",
"B c #675532",
"V c #564F35",
"C c #70613E",
"Z c #736744",
"A c #322C18",
"S c #A69A76",
"D c #918768",
"F c #7B714F",
"G c #B0A683",
"H c #655C40",
"J c #978A67",
"K c #A49A77",
"L c #746B4B",
"P c #796A46",
"I c #504B38",
"U c #6B6038",
"Y c #C1B793",
"T c #51482F",
"R c #50482E",
"E c #897E5C",
"W c #4C442A",
"Q c #988A5A",
"! c #8D8463",
"~ c #524A33",
"^ c #615A45",
"/ c #887E5E",
"( c #978966",
") c None",
/* pixels */
")))))9YhM)))",
")))))x/FOt))",
"))))*KEpZ.n)",
"))))G%q<3l8y",
"))))uJ&BC$g!",
")))UQS ;Pb7=",
")))m)rc(-a+d",
"))4:))Dsj5e)",
")i#vz@A)X^))",
")0,WRf6)))))",
"IHo1NL2)))))",
")~TV>wk)))))"
};
