/* XPM */
static char *rhythmbox_xpm[] = {
/* width height ncolors chars_per_pixel */
"12 12 46 1",
/* colors */
"  c #ACAFAC",
". c #D7D8D6",
"X c #C2C4C1",
"o c #EDEDEB",
"O c #E6E7E4",
"+ c #E4E5E2",
"@ c #DDDDDB",
"# c #DBDDD9",
"$ c #D9D9D7",
"% c #D0D1CE",
"& c #CCCDCA",
"* c #CACBC8",
"= c #C3C5C1",
"- c #BDBFBB",
"; c #B5B7B3",
": c #AFB1AD",
"> c #BEC1BF",
", c #E3E4E0",
"< c #CBCCC8",
"1 c #5C5E5B",
"2 c #C7C8C4",
"3 c #C6C8C3",
"4 c #C4C6C1",
"5 c #C0C2BD",
"6 c #A6ADB0",
"7 c #D8D9D7",
"8 c #EBECE9",
"9 c #D3D7D8",
"0 c #B1B3B0",
"q c #AFB1AE",
"w c #E4E4E2",
"e c #E2E4E0",
"r c #DEDEDC",
"t c #DBDCD9",
"y c #D6D8D4",
"u c #C8CAC6",
"i c #C4C6C2",
"p c #BBC1C3",
"a c #535453",
"s c #BBBCB9",
"d c #CFD4D6",
"f c #CDCFCA",
"g c #CCCDC9",
"h c #CBCBC8",
"j c #BFC1BC",
"k c None",
/* pixels */
"kkkkkkkkkkkk",
"kkkkq0001kkk",
"kkk6e*<#dkkk",
"kkkXs@o&#kkk",
"kkk:$+rohkkk",
"kkk;t8w@*kkk",
"kkkp=t7s,kkk",
"kkk>3j549kkk",
"kkk .%iO&kkk",
"kkk-2ufgykkk",
"kkkkaaaakkkk",
"kkkkkkkkkkkk"
};
