/* XPM */
static char *rosegarden_xpm[] = {
/* width height ncolors chars_per_pixel */
"12 12 65 1",
/* colors */
"  c #564905",
". c #E79344",
"X c #FDD817",
"o c #5B6A06",
"O c #EB7E13",
"+ c #A68A07",
"@ c #8E7921",
"# c #8D5F09",
"$ c #EA4D05",
"% c #ECE41D",
"& c #CDAE37",
"* c #B48243",
"= c #FAD642",
"- c #F9D66C",
"; c #F0861E",
": c #EE881C",
"> c #E04008",
", c #FEE92B",
"< c #FBD53C",
"1 c #B25523",
"2 c #E48029",
"3 c #778A06",
"4 c #F9C526",
"5 c #FDC916",
"6 c #3D4202",
"7 c #FEF731",
"8 c #F2CC57",
"9 c #B05110",
"0 c #F8BC35",
"q c #E3C92A",
"w c #F0A362",
"e c #FBCD5C",
"r c #F2CE21",
"t c #61300A",
"y c #684D0A",
"u c #FACF0B",
"i c #EED169",
"p c #F1B76C",
"a c #625D07",
"s c #877132",
"d c #FAAC2C",
"f c #E16717",
"g c #BD7E14",
"h c #FEBC22",
"j c #B6AF1D",
"k c #4C5F0E",
"l c #E97514",
"z c #FCAD1C",
"x c #543905",
"c c #F58F29",
"v c #F7D47D",
"b c #FCC122",
"n c #FDAA2D",
"m c #A65C1D",
"M c #817316",
"N c #FADF90",
"B c #E4B017",
"V c #637B0F",
"C c #EDC023",
"Z c #EFCF32",
"A c #1D2409",
"S c #602B0C",
"D c #786902",
"F c #435210",
"G c None",
/* pixels */
"GGGS9mGGGGGG",
"GGtl:0;1*GGG",
"GGG$O4cw.GGG",
"GGx>2-NefGGG",
"GGspvidngGyG",
"GG8<Crzh#GGG",
"GG&=q,5bG GG",
"GG@Zj7XBaGGG",
"GGGMo%u+6GGG",
"GGGGF3DGGGGG",
"GGGGAVGGGGGG",
"GGGGGkGGGGGG"
};
