/* XPM */
static char *scilab_xpm[] = {
/* width height ncolors chars_per_pixel */
"12 12 61 1",
/* colors */
"  c black",
". c #0C1D30",
"X c #090F1C",
"o c #470F0D",
"O c #5F1914",
"+ c #893626",
"@ c #1C0000",
"# c #717171",
"$ c #080200",
"% c #7A0000",
"& c #60646A",
"* c #1D0E07",
"= c #441009",
"- c #23131A",
"; c #5C131A",
": c #0E0705",
"> c #952613",
", c #241414",
"< c #911919",
"1 c #0C131A",
"2 c #F70000",
"3 c #464D60",
"4 c #563131",
"5 c #2D2023",
"6 c #B36868",
"7 c #090D1A",
"8 c #06131A",
"9 c #060D1A",
"0 c #597393",
"q c #597193",
"w c #280300",
"e c #373E4A",
"r c #0C2430",
"t c #0C1E30",
"y c #8D7070",
"u c #0C1830",
"i c #2B1A13",
"p c #070000",
"a c #46536C",
"s c #120E0E",
"d c #0E0A0A",
"f c #6D707B",
"g c #4D1D1D",
"h c #C0514C",
"j c #624F4F",
"k c #7C3420",
"l c #1D1515",
"z c #808080",
"x c #110909",
"c c #0A0505",
"v c #050303",
"b c #281D18",
"n c #69342D",
"m c #6B4646",
"M c #5E1515",
"N c #9F2120",
"B c #CC7C7A",
"V c #2C1F22",
"C c #AC271C",
"Z c #322B2B",
"A c #2E3541",
/* pixels */
"3000000000qf",
"0r88888V58.a",
"08     +k 9a",
"08  =< v4d9a",
"08  o>cx6i9a",
"0-%p gh:lj7a",
"0;2w$*n,ZyXa",
"01@CN mB #Aa",
"08 OM sb zea",
"08        9a",
"qt99999999ua",
"faaaaaaaaaa&"
};
