/* XPM */
static char *scribus_xpm[] = {
/* width height ncolors chars_per_pixel */
"12 12 115 2",
/* colors */
"   c #064AB8",
" . c #949EB2",
" X c #C5B8D5",
" o c #9FBCEB",
" O c #79A4EA",
" + c #76A8E7",
" @ c #61A3F0",
" # c #A0BEEF",
" $ c #B1CFF9",
" % c #8DB4F0",
" & c #AAC5F2",
" * c #6D6E74",
" = c #DEE8FA",
" - c #5B7ECC",
" ; c #CBE0FB",
" : c #9097AA",
" > c #F6DE97",
" , c #144186",
" < c #75AEEF",
" 1 c #525563",
" 2 c #5E6372",
" 3 c #CDDDF6",
" 4 c #074DBB",
" 5 c #E2D5E3",
" 6 c #BDD7FA",
" 7 c #083270",
" 8 c #EBE5EF",
" 9 c #F0D58A",
" 0 c #9AB7E8",
" q c #808493",
" w c #5EA0EF",
" e c #A6BEED",
" r c #D6E6FB",
" t c #DFD9CF",
" y c #818BA1",
" u c #D6E4FB",
" i c #1056C0",
" p c #6FA3E5",
" a c #E4CA8B",
" s c #EAEBF4",
" d c #B4BED6",
" f c #DFE3E9",
" g c #69A4EC",
" h c #8494B4",
" j c #A4B6DA",
" k c #98BDEF",
" l c #B0CBF6",
" z c #B6B3A6",
" x c #AEBAD3",
" c c #2466C9",
" v c #B3BCC4",
" b c #DBD1BD",
" n c #E5CB88",
" m c #B7BAB4",
" M c #D8E7FC",
" N c #E9E4EF",
" B c gray77",
" V c #BEB2D2",
" C c #BCBCBC",
" Z c #5A79AB",
" A c #B4B4B4",
" S c #9ABAED",
" D c #BACCE8",
" F c #C9DCFA",
" G c #949CD3",
" H c #87ADE7",
" J c #CEC3A5",
" K c #C2D8F9",
" L c #BDC6DD",
" P c #98BCF4",
" I c #698FDD",
" U c #2B6CCB",
" Y c #E7F0FC",
" T c #95C0F4",
" R c #7FA7E5",
" E c #92B6F1",
" W c #EFF5FD",
" Q c #5A6378",
" ! c #B5C7E5",
" ~ c #84A0CC",
" ^ c #606060",
" / c #858EA2",
" ( c #D8E5FA",
" ) c #A7B1C0",
" _ c #5A5A5A",
" ` c #C5CFE4",
" ' c #7E869B",
" ] c #C9DCF5",
" [ c #DFD4B8",
" { c #788095",
" } c #9CA3B5",
" | c #AFB6C1",
".  c #F4F8FE",
".. c #C0C0C1",
".X c #A1A5D4",
".o c #0F305F",
".O c #F1F6FE",
".+ c #B0CAF3",
".@ c #0C53BF",
".# c #81B5F3",
".$ c #719FE0",
".% c #709FDF",
".& c #738AAD",
".* c #E7DFEA",
".= c #B9BCC0",
".- c #EAEEFA",
".; c #BABBB7",
".: c #044BBA",
".> c #C5C5C5",
"., c #C1C1C1",
".< c #B7C6D8",
".1 c #173F7D",
".2 c #F7DA8C",
".3 c #99BBEC",
".4 c None",
/* pixels */
".4.4.4.4.4.4.4.4.1 ,.4 _",
" 7 w g p.% c i 4  .& B ^",
".o @ < +.$ U.@.: Z.> A.4",
".4.# T k.3 H R ~.. C *.4",
".4 D $ K l P o.=., ) :.4",
".4 x 6 F E O.;.> |.+ j.4",
".4 y ; u S m.2 z # % 0.4",
".4 Q M = [ > n - I & (.4",
".4.4 r f a 9 v e G.X Y 1",
".4.4 ] b J.< 3.- X V.O q",
".4.4 ! t s 8.* 5 N.  W }",
".4.4 h ` L d . / ' { 2.4"
};
