/* XPM */
static char *seamonkey_xpm[] = {
/* width height ncolors chars_per_pixel */
"12 12 113 2",
/* colors */
"   c #80BDFB",
" . c #8A8BEE",
" X c #6268CA",
" o c #70B7FF",
" O c #0303E4",
" + c #2929E8",
" @ c #86C0FA",
" # c #8AB4FE",
" $ c #5555F2",
" % c #151592",
" & c #7787F2",
" * c #8DC3FA",
" = c #222298",
" - c #2F2F9E",
" ; c #4C6382",
" : c #9DCBF9",
" > c #26268B",
" , c #3949ED",
" < c #0404E4",
" 1 c #2B2B9D",
" 2 c #29299B",
" 3 c #03039A",
" 4 c #2A2AE8",
" 5 c #2929B2",
" 6 c #6A98F8",
" 7 c #5A65EF",
" 8 c #687CCB",
" 9 c #2626E7",
" 0 c #1F1F97",
" q c #A5CBF9",
" w c #BDD6F6",
" e c #2B2BE8",
" r c #5DADFE",
" t c #79BCFF",
" y c #191994",
" u c #2727D0",
" i c #0101E3",
" p c #98C8F9",
" a c #26269A",
" s c #383BA5",
" d c #7171D3",
" f c #3333A0",
" g c #7CBBFB",
" h c #6CB5FF",
" j c #3030E9",
" k c #1B1B71",
" l c #28288B",
" z c #3B3BC2",
" x c #2D2D9D",
" c c #090973",
" v c #7A7BF9",
" b c #20206F",
" n c #3A3AA3",
" m c #060691",
" M c #7381CA",
" N c #5B5CF8",
" B c #3636A2",
" V c #3C3CEA",
" C c #9CCDFF",
" Z c #3131E9",
" A c #5D5DC8",
" S c #232399",
" D c #2727B4",
" F c #0707E4",
" G c #3840AA",
" H c #70B5FB",
" J c #2D2DE8",
" K c #4145EB",
" L c #1D1D96",
" P c #3636EA",
" I c #7EACEE",
" U c #647CCE",
" Y c #3737A2",
" T c #0A0A8D",
" R c #282FE9",
" E c #31319F",
" W c #3A3BEA",
" Q c #0B0B73",
" ! c #6BB5FF",
" ~ c #1A1AA6",
" ^ c #AFD3F9",
" / c #9CADF7",
" ( c #79B5FC",
" ) c #90A6F5",
" _ c #8586E7",
" ` c #5B5CCB",
" ' c #272B84",
" ] c #4646DE",
" [ c #2727AF",
" { c #A3CEFA",
" } c #4F4FF4",
" | c #9CCBFD",
".  c #0202E4",
".. c #27279B",
".X c #3333E9",
".o c #1C1CAE",
".O c #1E1E71",
".+ c #1A1A6D",
".@ c #B3D0F9",
".# c #B5CDF1",
".$ c #6565D1",
".% c #141467",
".& c #5454B3",
".* c #4347EB",
".= c #4040F2",
".- c #5D79CC",
".; c #4347AC",
".: c #2424E7",
".> c #2D2DD2",
"., c #2E2E9E",
".< c #3838EA",
".1 c #2E37EA",
".2 c None",
/* pixels */
".2.2.2.2 b l > k.2.2.2.2",
".2.2.O n Y f -.; 8 '.2.2",
".2.+ B E x 2 s q | G Q.2",
".2., 1.. S 0 U C @ M T.2",
".% a = L y % I o  .# T c",
".& . _ d A X ! r * w `.$",
" z N } $ v # h H { /.= ]",
" m F <.  , t g p.@.* +.o",
".2 i O R ( : ^ ) K J.X.2",
".2 3.1 6 & 7 W e Z.< D.2",
".2 ;.- 9.: 4 j P V 5.2.2",
".2.2.2.2 ~ u.> [.2.2.2.2"
};
