/* XPM */
static char *snes9x_xpm[] = {
/* width height ncolors chars_per_pixel */
"12 12 54 1",
/* colors */
"  c #8C85DC",
". c #40356D",
"X c #46426C",
"o c #53507C",
"O c #7161C1",
"+ c #6F5FBF",
"@ c #9B98BF",
"# c #615D86",
"$ c #8E8AB2",
"% c #3E3B60",
"& c #3A375C",
"* c #564C88",
"= c #78749C",
"- c #534F7B",
"; c #9C97BC",
": c #3D3565",
"> c #9A97C0",
", c #827ADA",
"< c #8786E2",
"1 c #A5A2C7",
"2 c #716D97",
"3 c #3D3464",
"4 c #3A2F6B",
"5 c #514588",
"6 c #AAA7C8",
"7 c #8989E3",
"8 c #4A3D84",
"9 c #352A62",
"0 c #9B95BC",
"q c #ABA8C8",
"w c #7A6DC3",
"e c #6555AB",
"r c #3B385D",
"t c #54507C",
"y c #837FAA",
"u c #6F5FBE",
"i c #3F3C67",
"p c #7D74B1",
"a c #6556AA",
"s c #3B375C",
"d c #382E63",
"f c #6352AB",
"g c #908BAC",
"h c #8D8ADE",
"j c #78749B",
"k c #8681E1",
"l c #A6A3C8",
"z c #A39FC5",
"x c #45416C",
"c c #8986DD",
"v c #3A2E6B",
"b c #9B97C0",
"n c #514488",
"m c None",
/* pixels */
"mmmmmmmmmmmm",
"mmmmx;0Xmmmm",
"mmmmj6l=mmmm",
"mmmmo@>tmmmm",
"mXg#ms&m*p.m",
"m$qz%mmdc7wm",
"my1brmm9,kOm",
"mi2-m:3m8fvm",
"mmmm5h nmmmm",
"mmmma<kemmmm",
"mmmmv+u4mmmm",
"mmmmmmmmmmmm"
};
