/* XPM */
static char *sstartcenter_xpm[] = {
/* width height ncolors chars_per_pixel */
"12 12 79 1",
/* colors */
"  c #234361",
". c #0B1D2F",
"X c #192D40",
"o c #8AA7C6",
"O c #3B7BC1",
"+ c #9FA4A9",
"@ c #2F455C",
"# c #27517F",
"$ c #A6B8CA",
"% c #1B3B5F",
"& c #306CAF",
"* c #BFCAD5",
"= c #25384B",
"- c #2F445B",
"; c #9DBCDE",
": c #66809E",
"> c #CFD9E4",
", c #152F4B",
"< c #818C97",
"1 c #5F6D7C",
"2 c #112336",
"3 c #275B94",
"4 c #1B3450",
"5 c #82ABD6",
"6 c #8195AA",
"7 c #86A5C6",
"8 c #507091",
"9 c #3779C1",
"0 c #14304C",
"q c #3270B2",
"w c #3B5065",
"e c #A1AAB2",
"r c #101B27",
"t c #588ECA",
"y c #23384A",
"u c #3E6896",
"i c #374C64",
"p c #3A7AC0",
"a c #344A61",
"s c #385C7C",
"d c #29486A",
"f c #43505F",
"g c #6B859A",
"h c #56616B",
"j c #08213C",
"k c #17222D",
"l c #0F1F2F",
"z c #233F5D",
"x c #224E7D",
"c c #93A5B7",
"v c #466A93",
"b c #758796",
"n c #3A79BF",
"m c #122538",
"M c #4778AE",
"N c #A0BFE1",
"B c #9AAFC4",
"V c #326CAD",
"C c #1E2933",
"Z c #AABCD0",
"A c #526373",
"S c #62A2E9",
"D c #112A47",
"F c #7391B1",
"G c #15324E",
"H c #66A8F0",
"J c #111D29",
"K c #0B1C2D",
"L c #36608F",
"P c #0A1C2F",
"I c #488AD2",
"U c #173B63",
"Y c #1E3956",
"T c #3678C0",
"R c #102B48",
"E c #152C43",
"W c #0F263D",
"Q c #A3B2C1",
"! c None",
/* pixels */
"!!!!!!!!!!!!",
"!!Ck=@-aii!!",
"!ygb$*co;Nu!",
"!hAf68BZ75#!",
"!Kw1F>:LMtx!",
"!+e<QvVpOO3!",
"!lWEU&TTTTq!",
"!P00%TTTTTn!",
"!.GG,999999R",
"!m  4IIIIIID",
"!XssdHHHHHSj",
"!!rJ2zzzzzY!"
};
