/* XPM */
static char *spadmin_xpm[] = {
/* width height ncolors chars_per_pixel */
"12 12 97 2",
/* colors */
"   c #234361",
" . c #0B1D2F",
" X c #192D40",
" o c #8AA7C6",
" O c #59626B",
" + c #3C3D3E",
" @ c #3B7BC1",
" # c #9FA4A9",
" $ c #8E9295",
" % c #2F455C",
" & c #9AAFC5",
" * c #27517F",
" = c #A6B8CA",
" - c #1B3B5F",
" ; c #306CAF",
" : c #BFCAD5",
" > c #25384B",
" , c #A3A7AC",
" < c #A1A5AA",
" 1 c #2F445B",
" 2 c #9DBCDE",
" 3 c #66809E",
" 4 c #CFD9E4",
" 5 c #152F4B",
" 6 c #AEB7C0",
" 7 c #889EB5",
" 8 c #818C97",
" 9 c #5F6D7C",
" 0 c #112336",
" q c #C7D0D8",
" w c #275B94",
" e c #1B3450",
" r c #82ABD6",
" t c #8195AA",
" y c #86A5C6",
" u c #507091",
" i c #3779C1",
" p c #14304C",
" a c #3B5065",
" s c #A1AAB2",
" d c #101B27",
" f c #4F5051",
" g c #71796F",
" h c #588ECA",
" j c #23384A",
" k c #3E6896",
" l c #8FA7C1",
" z c #CDDEEA",
" x c #374C64",
" c c #3A7AC0",
" v c #344A61",
" b c #385C7C",
" n c #29486A",
" m c #43505F",
" M c #6B859A",
" N c #56616B",
" B c #17222D",
" V c #97AEC5",
" C c #0F1F2F",
" Z c #224E7D",
" A c #93A5B7",
" S c #466A93",
" D c #96AEC7",
" F c #758796",
" G c #A2A6AB",
" H c #919497",
" J c #122538",
" K c #4778AE",
" L c #A0BFE1",
" P c #9AAFC4",
" I c #83ACCB",
" U c #326CAD",
" Y c #1E2933",
" T c #8AAE6B",
" R c #AABCD0",
" E c #526373",
" W c #99BAD3",
" Q c #AFB8C1",
" ! c #7391B1",
" ~ c #15324E",
" ^ c #111D29",
" / c #0B1C2D",
" ( c #888B8D",
" ) c #36608F",
" _ c #0A1C2F",
" ` c #6B8198",
" ' c #173B63",
" ] c #B6CDDE",
" [ c #707375",
" { c #3678C0",
" } c #C1D4E2",
" | c #102B48",
".  c #152C43",
".. c #0F263D",
".X c #A3B2C1",
".o c #C1D6E5",
".O c None",
/* pixels */
".O.O Y B > % 1 v x x.O.O",
".O j M F = : A o 2 L k.O",
".O N E m t u P R y r *.O",
".O / a 9 ! 4 3 ) K h Z.O",
".O # s 8.X S U c @ @ w.O",
".O C...  ' ; l q q q 7.O",
".O _ p p - { D W I W &.O",
".O . ~ ~ 5 i V } ] } V |",
".O J     e ` 6 z.o z Q O",
".O X b b n H < G G G , $",
".O.O d ^ 0 [ ( ( ( ( T g",
".O.O.O.O.O + f f f f f +"
};
