/* XPM */
static char *scalc_xpm[] = {
/* width height ncolors chars_per_pixel */
"12 12 99 2",
/* colors */
"   c #435B31",
" . c #8BA146",
" X c #5D6E05",
" o c #324252",
" O c #B6D245",
" + c #919C98",
" @ c #A3BA46",
" # c #7C8A2D",
" $ c #6A8604",
" % c #B8CB6B",
" & c #92B100",
" * c #A2BA48",
" = c #364E5F",
" - c #A2BC20",
" ; c #36536C",
" : c #B7D345",
" > c #A4BB46",
" , c #C9D3C7",
" < c #677714",
" 1 c #98B430",
" 2 c #18334E",
" 3 c #1C3448",
" 4 c #53601E",
" 5 c #DEE7E2",
" 6 c #BBC991",
" 7 c #94B02F",
" 8 c #B8D445",
" 9 c #89A038",
" 0 c #97B500",
" q c #A2B14D",
" w c #9EAE53",
" e c #B6CC46",
" r c #B0C054",
" t c #8594A1",
" y c #647F06",
" u c #96B302",
" i c #A0AF62",
" p c #C1D07F",
" a c #132E48",
" s c #44494D",
" d c #14304C",
" f c #1C3040",
" g c #BCC5B2",
" h c #CFD8BE",
" j c #4D663B",
" k c #879C6A",
" l c #8A9D63",
" z c #C0C7A2",
" x c #74851F",
" c c #455B3D",
" v c #8FA60B",
" b c #809B1A",
" n c #708507",
" m c #2E506F",
" M c #A9C321",
" N c #778C46",
" B c #ACBB4F",
" V c #768D3B",
" C c #A5BD48",
" Z c #B2C862",
" A c #414C07",
" S c #97B405",
" D c #72889A",
" F c #9FBD06",
" G c #A2BB34",
" H c #75861F",
" J c #A9C048",
" K c #749500",
" L c #B2C254",
" P c #809C05",
" I c #22394B",
" U c #A1B161",
" Y c #CCD3D4",
" T c #ADB99B",
" R c #BAD837",
" E c #93B100",
" W c #B4CB52",
" Q c #A0BE06",
" ! c #213525",
" ~ c #7B8C1A",
" ^ c #A4B195",
" / c #A8BF46",
" ( c #C5D769",
" ) c #1F3E5B",
" _ c #9FAB7C",
" ` c #ABC521",
" ' c #6F883C",
" ] c #3D6282",
" [ c #9BB246",
" { c #203B55",
" } c #4F6723",
" | c #73870E",
".  c #6D8612",
".. c #6F9000",
".X c #15314D",
".o c #AEC358",
".O c #A2BB35",
".+ c #6F854F",
".@ c None",
/* pixels */
".@ ; = U i z _ w r L B.@",
".@ D + ^ g.+ l 6 p ( q.@",
".@ { c . V h T N 9 e #.@",
".@ t Y , 5 k b - M ` ~.@",
" s o ! $ y P F Q Q Q v.@",
".@ a 3 u 0 & E & E E S.@",
".@ d 2. .O @ >.o > @ G A",
".@.X.X } /.. K [ K.. / X",
".@ ) )   J * C % C * J n",
".@ m m j W 7 1 Z 1 7 W |",
".@ ] ] ' R 8 : O : 8 R <",
".@ f I 4 H x x x x x H.@"
};
