/* XPM */
static char *sdraw_xpm[] = {
/* width height ncolors chars_per_pixel */
"12 12 119 2",
/* colors */
"   c #FFC82A",
" . c #BEA64A",
" X c #E3AB29",
" o c #324252",
" O c #D7CD9E",
" + c #CDAB66",
" @ c #E6CF5A",
" # c #FDCC3F",
" $ c #67623D",
" % c #5A5C44",
" & c #F5DE90",
" * c #EAB22C",
" = c #EBD590",
" - c #C8AC71",
" ; c #F3D984",
" : c #FFC726",
" > c #B8A57F",
" , c #FEC525",
" < c #8C8D4D",
" 1 c #EAB125",
" 2 c #DCD9C3",
" 3 c #36536C",
" 4 c #E6D059",
" 5 c #FDEA4B",
" 6 c #E5B562",
" 7 c #AF8723",
" 8 c #1F3448",
" 9 c #C5C6B6",
" 0 c #F5D482",
" q c #8A885B",
" w c #EFC35B",
" e c #BB871E",
" r c #18334E",
" t c #9E924A",
" y c #FAC32A",
" u c #D7AB57",
" i c #6D6D48",
" p c #F2B922",
" a c #B8A656",
" s c #D0D4CA",
" d c #6C6029",
" f c #FFCE3F",
" g c #E7B438",
" h c #A0751A",
" j c #FFED4C",
" k c #E8BD5A",
" l c #F8DA8E",
" z c #F2C53C",
" x c #94862F",
" c c #FCE99F",
" v c #EDBC41",
" b c #CED3D5",
" n c #967E1D",
" m c #FADE93",
" M c #8594A1",
" N c #A88528",
" B c #E4CB45",
" V c #E2AB2C",
" C c #132E48",
" Z c #384E5F",
" A c #C0A132",
" S c #44494D",
" D c #14304C",
" F c #1C3040",
" G c #B88B2A",
" H c #968730",
" J c #989053",
" K c #2E506F",
" L c #FFD837",
" P c #FADD92",
" I c #EDB422",
" U c #E2E7E4",
" Y c #FBC329",
" T c #EABF6B",
" R c #927A25",
" E c #F4DE46",
" W c #72889A",
" Q c #7F6F33",
" ! c #EDCE6A",
" ~ c #EAB025",
" ^ c #FEC828",
" / c #F1D685",
" ( c #FAC224",
" ) c #D3C0A3",
" _ c #B58D1F",
" ` c #E7BB5A",
" ' c #22394B",
" ] c #ECC06C",
" [ c #FBE095",
" { c #DDA325",
" } c #CAAE72",
" | c #BABAA1",
".  c #EDC231",
".. c #E9B323",
".X c #6E4D14",
".o c #1F3E5B",
".O c #B1B29B",
".+ c #A7A170",
".@ c #958730",
".# c #FDDD7F",
".$ c #94852F",
".% c #3D6282",
".& c #AD8737",
".* c #EDD544",
".= c #203B55",
".- c #A98D1F",
".; c #9F9E75",
".: c #CC8F1D",
".> c #E7B234",
"., c #D3981D",
".< c #15314D",
".1 c #FEC626",
".2 c #E2A725",
".3 c #2F352B",
".4 c #969C9A",
".5 c #FADC8F",
".6 c #FCD35C",
".7 c #968830",
".8 c None",
/* pixels */
".8 3 Z } - ) > + T ] 6.8",
".8 W.4.O 9 q.+ O =.# u.8",
".8.= % a t 2 | J ..6.&.8",
".8 M b s U.; A z # f G.8",
" S o.3.- n _ V 1 Y  .2.8",
".8 C 8.. k m l.5 * : y.8",
".8 D r N w {.: P.>.1 :.X",
".8.<.< Q ( ~ 0 ` p.1 , h",
".8.o.o $ ^ g [., I X v e",
".8 K K i L.  ; & / c ! 7",
".8.%.% < j 5.* 4 @ B E R",
".8 F ' d.7.7 H x.$.@.7.8"
};
