/* XPM */
static char *sol_xpm[] = {
/* width height ncolors chars_per_pixel */
"12 12 76 1",
/* colors */
"  c #D6D6D2",
". c #C2ACA4",
"X c #C4BBB6",
"o c #868583",
"O c #C3B2AB",
"+ c #CE250E",
"@ c #A09C99",
"# c #934A30",
"$ c #B6B6B5",
"% c #B0B0AF",
"& c #BDC0BF",
"* c #D9D2CD",
"= c #898885",
"- c #89837B",
"; c #EF6E37",
": c #ECECE9",
"> c #B5B5B3",
", c #B18677",
"< c #DA9371",
"1 c gray23",
"2 c #917D78",
"3 c #D3C2BC",
"4 c #8C8B8A",
"5 c #898987",
"6 c #716F6C",
"7 c #EAE9E6",
"8 c #B0B0AD",
"9 c #934E31",
"0 c #ADACAA",
"q c #777775",
"w c #717679",
"e c #C58579",
"r c #383837",
"t c #9F9E9C",
"y c #D0907D",
"u c #656563",
"i c #D6B5A7",
"p c #90908D",
"a c #747C82",
"s c #E45227",
"d c #C9C1B1",
"f c #C7361B",
"g c #9C9E9F",
"h c #E3E2DE",
"j c #777674",
"k c #D9D1B3",
"l c #B5B5B4",
"z c #D7D6D2",
"x c #C0C3C2",
"c c #D4A997",
"v c #B9BBBB",
"b c #8F8F8E",
"n c #EDEDEA",
"m c #EBEBE8",
"M c #D7CCB0",
"N c #E7E7E4",
"B c #7B7B7A",
"V c #AAAAA8",
"C c #A8A8A6",
"Z c #6F6F6E",
"A c #F88B49",
"S c #D5D5D2",
"D c #9E9E9C",
"F c #D93617",
"G c #BE3C24",
"H c #D1C6AD",
"J c #9C9C9A",
"K c #D6B5A8",
"L c #E0DED9",
"P c #8D8477",
"I c #EBEAE7",
"U c #B2B1AF",
"Y c #E7E6E3",
"T c #A8A7A5",
"R c #CEAFA6",
"E c None",
/* pixels */
"EEEEEEEEEEEE",
"EEEEVdkMHzEE",
"EZoTDO9#, EE",
"E4=JbtP-p EE",
"E8@6LhYIw&EE",
"E02XcKimavEE",
"ElU<A;sRgxEE",
"E$>yF+f35CEE",
"E%$7eG.NrEEE",
"EEBn:*Sj1EEE",
"EErqqqquEEEE",
"EEEEEEEEEEEE"
};
