/* XPM */
static char *sqlitebrowser_xpm[] = {
/* width height ncolors chars_per_pixel */
"12 12 51 1",
/* colors */
"  c #D5E1DE",
". c #D4E1DD",
"X c #AFC6BF",
"o c #E7EEEC",
"O c #E4ECE9",
"+ c #C3D5CF",
"@ c #C1D3CD",
"# c #FCFDFD",
"$ c #D6E2DE",
"% c #EDF3F1",
"& c #CADAD5",
"* c #C8D8D3",
"= c #FEFEFE",
"- c #FBFCFB",
"; c #F0F4F3",
": c #EFF4F2",
"> c #CAD9D4",
", c #E2EAE8",
"< c #C1D3CE",
"1 c #BED1CB",
"2 c #F6F9F8",
"3 c #D3E0DC",
"4 c #B2C9C2",
"5 c #E5EDEA",
"6 c #C5D6D1",
"7 c #FBFCFC",
"8 c #FAFCFB",
"9 c #F8FAF9",
"0 c #DAE5E2",
"q c #D8E3E0",
"w c #D5E1DD",
"e c #B6CCC5",
"r c #EFF4F3",
"t c #EDF2F1",
"y c #C9D9D4",
"u c #C4D5CF",
"i c white",
"p c #FEFFFE",
"a c #FDFDFD",
"s c #FCFDFC",
"d c #DFE8E6",
"f c #DCE6E3",
"g c #BDD1CB",
"h c #BBCFC9",
"j c #F1F5F4",
"k c #D0DEDA",
"l c #CEDCD8",
"z c #CBDAD5",
"x c #E2EBE8",
"c c #BFD2CC",
"v c #BDD0CA",
/* pixels */
"iiiiiiii,cf-",
"iiiiii;c$77O",
"iiii-l:ud;5o",
"iii=1f,O2w8i",
"iijv 368qpii",
"iqfw@yr4tiii",
"iw9h>9&:iiii",
"iaX<93x#iiii",
"i0ek*siiiiii",
"%+o8iiiiiiii",
".ziiiiiiiiii",
"g-iiiiiiiiii"
};
