/* XPM */
static char *steam_xpm[] = {
/* width height ncolors chars_per_pixel */
"12 12 90 1",
/* colors */
"  c #23211F",
". c #9E9D9B",
"X c #969593",
"o c #C3C2BF",
"O c #C1C0BD",
"+ c #191918",
"@ c #B5B4B1",
"# c #141313",
"$ c #5B5752",
"% c #969799",
"& c #55514C",
"* c #7F8182",
"= c #C8C7C3",
"- c #C4C3BF",
"; c #C0BDBB",
": c #1E1E1C",
"> c #A1A4A3",
", c #C6C5C4",
"< c #6D6A66",
"1 c #58544E",
"2 c #A6A5A1",
"3 c #AFAFAD",
"4 c #898A8B",
"5 c #676663",
"6 c #979A9C",
"7 c #514E4A",
"8 c #A3A3A1",
"9 c #D7D6D4",
"0 c #22211F",
"q c #1E1D1B",
"w c #737475",
"e c #A5A5A6",
"r c #645F59",
"t c #625D57",
"y c #666868",
"u c #454441",
"i c #8A8988",
"p c #99999A",
"a c #312E2A",
"s c #AAA8A4",
"d c #939594",
"f c #A19E9B",
"g c #7A7978",
"h c #959799",
"j c #939597",
"k c #363635",
"l c #23221F",
"z c #787B7C",
"x c #474542",
"c c #161615",
"v c #58544F",
"b c #41413F",
"n c #56524D",
"m c #A8A7A4",
"M c #272522",
"N c #61605E",
"B c #262524",
"V c #AAABAC",
"C c #898785",
"Z c #1D1D1B",
"A c #1C1B1A",
"S c #717274",
"D c #BBBAB6",
"F c #1A1918",
"G c #9D9F9F",
"H c #59554F",
"J c #AAA8A5",
"K c #2C2A26",
"L c #434443",
"P c #31302E",
"I c #757574",
"U c #919396",
"Y c #504D49",
"T c #4E4B47",
"R c #4D4B46",
"E c #484541",
"W c #78797A",
"Q c #44413D",
"! c #3E3B37",
"~ c #635E58",
"^ c #3A3733",
"/ c #59544E",
"( c #A9ACAD",
") c #161616",
"_ c #80807E",
"` c #96989A",
"' c #55524D",
"] c #524E4A",
"[ c #272523",
"{ c #262522",
/* pixels */
"~rttttttttrr",
"H111111/v11H",
"&'n'''$sOD<&",
"7]]]]]fJ@2-]",
"QRTTTY;m9o=E",
"5^!QEC,.8X3a",
"GpIxNeV(>duK",
"*Uj%4W6zP[M{",
"lLSh`wy 0000",
"Zq:gi_kZZZZZ",
"+F+AbBFFFF++",
"#c)c)c)c)cc#"
};
