/* XPM */
static char *stellarium_xpm[] = {
/* width height ncolors chars_per_pixel */
"12 12 123 2",
/* colors */
"   c #594B5E",
" . c #8F735E",
" X c #DAB097",
" o c #5F517E",
" O c #252045",
" + c #201A40",
" @ c #1D183D",
" # c #1A0F44",
" $ c #49417C",
" % c #B89793",
" & c #423975",
" * c #04020D",
" = c #39316C",
" - c #C1ADA2",
" ; c #0B090D",
" : c #594D7E",
" > c #E4B696",
" , c #3A3170",
" < c #AB95A0",
" 1 c #494278",
" 2 c #D7AB93",
" 3 c #564A5D",
" 4 c #F2D1B4",
" 5 c #BBA4A9",
" 6 c #0B0910",
" 7 c #574954",
" 8 c #1B0923",
" 9 c #1A0922",
" 0 c #F3C7A1",
" q c #1C173B",
" w c #E6E3EA",
" e c #7D7279",
" r c #0A0912",
" t c #17142C",
" y c #CCA695",
" u c #06050E",
" i c #5A4C7B",
" p c #2E1E32",
" a c #2F284A",
" s c #433B6E",
" d c #2F2661",
" f c #3F3674",
" g c #18101C",
" h c #584B5E",
" j c #D8D7E2",
" k c #9F9BB4",
" l c #FADABE",
" z c #4D3F53",
" x c #4D457E",
" c c #272248",
" v c #171035",
" b c #918485",
" n c #3C324C",
" m c #2C215A",
" M c #A68689",
" N c #4E4278",
" B c #453D79",
" V c #0E0B0E",
" C c #4F467C",
" Z c #26192C",
" A c #BB9890",
" S c #8D7487",
" D c #685C87",
" F c #010104",
" G c #F2C39E",
" H c #393069",
" J c #766366",
" K c #342C39",
" L c #312A36",
" P c #B5B1C8",
" I c #A68C95",
" U c #9A889D",
" Y c #4D4179",
" T c #63537E",
" R c #62537D",
" E c #997C88",
" W c #E4B796",
" Q c #6F5E83",
" ! c #3A3270",
" ~ c #574972",
" ^ c #756D96",
" / c #120617",
" ( c #140E30",
" ) c #685868",
" _ c #735F80",
" ` c #E6E4EA",
" ' c #453B77",
" ] c #090811",
" [ c #443B76",
" { c #988879",
" } c #080610",
" | c #C8A191",
".  c #52487D",
".. c #4C464C",
".X c #5B5489",
".o c #0B090C",
".O c #0A090B",
".+ c #B08F8D",
".@ c #080709",
".# c #010102",
".$ c #B79997",
".% c #F9D2B0",
".& c #32285D",
".* c #C3C1D4",
".= c #0F092A",
".- c #4F4055",
".; c #483A4E",
".: c #67557D",
".> c #D5CDD5",
"., c #463C77",
".< c #907A8E",
".1 c #7F6D70",
".2 c #221D43",
".3 c #05030C",
".4 c #84718C",
".5 c #816D89",
".6 c #342C3A",
".7 c #36283C",
".8 c #332C39",
".9 c #705A57",
".0 c #040404",
".q c #735F7B",
".w c None",
/* pixels */
" t c O.2 + @ q v (.= *.w",
" a C., x B , = d s.& # F",
" n R o :.  [ f ! 1 k m.3",
" 7.< U _.: i N '.X j H u",
".9.+ M I S.5 Q D P.* & }",
" . W X | % 5.> ` w ^ $ ]",
" { l.% 0 > y.$ <.4 T Y r",
".. e b - 4 G 2 A E.q ~ 6",
" / 8 8 9 p J.1 ) h 3   V",
" g Z Z Z Z Z Z.7.;.- z.o",
" ; L K K K.8 K K K K.6.@",
".w.0.O.O.O.O.O.O.O.O.O.#"
};
