/* XPM */
static char *sylpheed_xpm[] = {
/* width height ncolors chars_per_pixel */
"12 12 62 1",
/* colors */
"  c #76767A",
". c #C3C3CC",
"X c #5F5F98",
"o c #7B7B7B",
"O c #777777",
"+ c #6E6F6E",
"@ c #CBCBDD",
"# c #D7D8E2",
"$ c #C0C0C8",
"% c #CCCCD7",
"& c #CDCDCE",
"* c #F8F8F8",
"= c #CBCBCF",
"- c #ECECEC",
"; c #EAEAEA",
": c #9898B4",
"> c #9B9BAD",
", c #AEADAF",
"< c #8B8BB1",
"1 c #A7A7A8",
"2 c gray16",
"3 c #D3D3DD",
"4 c #252525",
"5 c gray84",
"6 c #D0D0D0",
"7 c #020248",
"8 c #D9D9E6",
"9 c #9D9DB5",
"0 c #C0C0C0",
"q c #DADAE0",
"w c #BFBEC2",
"e c #CDCCD3",
"r c #676790",
"t c #A5A6A5",
"y c #B0B0B3",
"u c #9191C6",
"i c #C8C8D4",
"p c #7E7E7E",
"a c #767676",
"s c #4E4E87",
"d c #C5C5CA",
"f c #030351",
"g c #EDECF1",
"h c #B0B0BF",
"j c #A8A8CB",
"k c #A1A1A6",
"l c #DFDFDF",
"z c #AFAFD1",
"x c #2A2A2A",
"c c #282828",
"v c #C1C1D2",
"b c gray15",
"n c #BDBDCE",
"m c light grey",
"M c gray82",
"N c gray81",
"B c #8989A8",
"V c gray74",
"C c #B9B9B9",
"Z c #020241",
"A c gray70",
"S c None",
/* pixels */
"SSSSSSSSSSSS",
"SSSSSSSSSSSS",
"SSSSSSf7ZSSS",
"SSSSSSSSSSSS",
"Sa*g#q@jvlcS",
"SO;-3%e&X,cS",
"Sp8zimN6sk4S",
"S uh:9w>rtbS",
"Sond5.<B1A2S",
"S+M=.$0yCVxS",
"SSSSSSSSSSSS",
"SSSSSSSSSSSS"
};
