/* XPM */
static char *terminatorx_xpm[] = {
/* width height ncolors chars_per_pixel */
"48 48 172 2",
/* colors */
"   c black",
" . c #AFAFAF",
" X c gray67",
" o c #A7A7A7",
" O c #D3D2D2",
" + c #959595",
" @ c gray57",
" # c gray53",
" $ c #FDFDFE",
" % c #818181",
" & c #FBFBFC",
" * c #F9F9FA",
" = c #F0F1F1",
" - c #717171",
" ; c #6F6F6F",
" : c #6D6D6D",
" > c #E7E7E8",
" , c #676767",
" < c gray39",
" 1 c gray38",
" 2 c gray35",
" 3 c gray34",
" 4 c #555555",
" 5 c #535353",
" 6 c #515151",
" 7 c #FEFEFE",
" 8 c #4B4B4B",
" 9 c gray99",
" 0 c #494949",
" q c gray98",
" w c gray27",
" e c #F6F6F6",
" r c #434343",
" t c #F4F4F4",
" y c #414141",
" u c gray95",
" i c #3F3F3F",
" p c gray24",
" a c #393939",
" s c gray91",
" d c #353535",
" f c #313131",
" g c #2D2D2D",
" h c gray17",
" j c gray16",
" k c #272727",
" l c #252525",
" z c #232323",
" x c gray83",
" c c #E4E4E7",
" v c gray13",
" b c gray12",
" n c #D0D0D0",
" m c #1D1D1D",
" M c #CECECE",
" N c #1B1B1B",
" B c #191919",
" V c #CACACA",
" C c gray9",
" Z c #151515",
" A c #FCFBFB",
" S c #131313",
" D c #F9F7F8",
" F c #111111",
" G c #F8F7F7",
" H c gray6",
" J c #C0C0C0",
" K c #F5F3F4",
" L c gray5",
" P c gray",
" I c #0B0B0B",
" U c #BCBCBC",
" Y c #090909",
" T c gray73",
" R c #070707",
" E c gray2",
" W c gray1",
" Q c #010101",
" ! c #B2B2B2",
" ~ c #ACACAC",
" ^ c #F0F1F2",
" / c gray62",
" ( c #989898",
" ) c gray59",
" _ c #929292",
" ` c #868686",
" ' c #808080",
" ] c #FBFAFC",
" [ c #FAFAFB",
" { c #F8F8F9",
" } c #F6F6F7",
" | c gray48",
".  c #F4F4F5",
".. c gray47",
".X c #747474",
".o c #727272",
".O c gray44",
".+ c gray43",
".@ c #E9E6EA",
".# c #606060",
".$ c #ECECF0",
".% c #5A5A5A",
".& c #565656",
".* c gray33",
".= c gray32",
".- c #505050",
".; c #CACACB",
".: c #4E4E4E",
".> c white",
"., c #4C4C4C",
".< c gray29",
".1 c #FBFBFB",
".2 c #F9F9F9",
".3 c gray97",
".4 c #444444",
".5 c gray26",
".6 c #F3F3F3",
".7 c gray25",
".8 c #F2EFF2",
".9 c #3E3E3E",
".0 c #EFEDEF",
".q c #3C3C3C",
".w c gray93",
".e c #3A3A3A",
".r c gray92",
".t c gray22",
".y c gray21",
".u c #E7E7E7",
".i c #343434",
".p c #323232",
".a c gray89",
".s c gray19",
".d c #E1E1E1",
".f c gray18",
".g c #2C2C2C",
".h c #DDDDDD",
".j c #A7A8A8",
".k c #2A2A2A",
".l c #282828",
".z c gray85",
".x c #E8E9EB",
".c c gray15",
".v c gray14",
".b c #222222",
".n c #202020",
".m c #1E1E1E",
".M c gray81",
".N c gray11",
".B c gray10",
".V c #CBCBCB",
".C c #181818",
".Z c gray79",
".A c #161616",
".S c #FDFCFC",
".D c gray8",
".F c gray7",
".G c #C3C3C3",
".H c #101010",
".J c #C1C1C1",
".K c #0E0E0E",
".L c gray75",
".P c #0C0C0C",
".I c #F2F0F1",
".U c gray4",
".Y c gray3",
".T c #B9B9B9",
".R c #060606",
".E c #B7B7B7",
".W c #040404",
".Q c #020202",
".! c gray70",
".~ c None",
/* pixels */
".~.~.~.~.~.~.~.~.~.~.~.~.~.~.~.~.~.~.~.~.~.~.~.~.~.~.~.~.~.~.~.~.~.~.~.~.~.~.~.~.~.~.~.~.~.~.~.~",
".~.~.~.~.~.~.~.~.~.~.~.~.~.~.~.~.~.~.~.~.~.~.~.~.~.~.~.~.~.~.~.~.~.~.~.~.~.~.~.~.~.~.~.~.~.~.~.~",
".~.~.~.~.~.~.~.~.~.~.~.~.~.~.~.~.~.~.~.~.~.~.~.~.~.~.~.~.~.~.~.~.~.~.~.~.~.~.~.~.~.~.~.~.~.~.~.~",
".~.~.~.~.~.~.~.~.~.~.~.~.~.~.~.~.~.~.~.~.~.~ E.Q.B.~.~.~.~.~.~.~.~.~.~.~.~.~.~.~.~.~.~.~.~.~.~.~",
".~.~.~.~.~.~.~.~.~.~.~.~.~.~.~.~.~ F.U.W Q          .Q Y.P.~.~.~.~.~.~.~.~.~.~.~.~.~.~.~.~.~.~.~",
".~.~.~.~.~.~.~.~.~.~.~.~.~.~ v.C.P.Y E W Q Q               Q Y Y.~.~.~.~.~.~.~.~.~.~.~.~.~.~.~.~",
".~.~.~.~.~.~.~.~.~.~.~.~.~.f v.C H.Y E.Q Q                     Q Y.P.~.~.~.~.~.~.~.~.~.~.~.~.~.~",
".~.~.~.~.~.~.~.~.~.~.~ 3.7.s.c.C I.R.W.Q Q                         W Y.~.~.~.~.~.~.~.~.~.~.~.~.~",
".~.~.~.~.~.~.~.~.~.~ 5.* r.i.m F H.Y E W Q                           Q.W.~.~.~.~.~.~.~.~.~.~.~.~",
".~.~.~.~.~.~.~.~.~.% :.- y k.b m.F Y W Q                                .Q.~.~.~.~.~.~.~.~.~.~.~",
".~.~.~.~.~.~.~.~ ,.O 1.,.p a.p.m.P.R W Q                                   Y.~.~.~.~.~.~.~.~.~.~",
".~.~.~.~.~.~.~ ;.+ <.&.5.:.7.v.D L E.Q Q Q                                  .P.~.~.~.~.~.~.~.~.~",
".~.~.~.~.~.~.~.#.# 2 i.&.,.k.B Z.P R.W.Q Q                                   Q I.~.~.~.~.~.~.~.~",
".~.~.~.~.~.~.< 5 4 p.-.&.y.n B.D H Y E.Q Q                                   Q.R.~.~.~.~.~.~.~.~",
".~.~.~.~.~.~.7 0.e.q.= a k.b N B F.U.R.Q                                      .Q.Y.~.~.~.~.~.~.~",
".~.~.~.~.~ f d a k.9.q z z m.m.C S.P.Q                                           R.~.~.~.~.~.~.~",
".~.~.~.~.~ z g.b.c f.m.N B.N B.A S.Q   R z.:.+ -.:.c E                          .W.Y.~.~.~.~.~.~",
".~.~.~.~.b.B.N.F.N b H F.H S F S W Q B , U.w q q.w.T :.n.Q                      .Q Y.~.~.~.~.~.~",
".~.~.~.~.A.F F.P F L.U R I.U.P E  .D.X.z 9.1 7.> 7.>.u % m Q                      .R.Y.~.~.~.~.~",
".~.~.~.~ H L.U Y.U E.R.W E.R E.Q Q 6 M.S A { * & 9.>.w.E 4.U                       R R.~.~.~.~.~",
".~.~.~.~ Y.Y.R.W E.Q.Q.Q W W Q  .K +.3 G D.  } * $.3.J ! @.B                       E E.~.~.~.~.~",
".~.~.~.~.W.W W.Q W Q   Q Q Q    .b J K.  ^ =.; n.1 V (.h.E.s.Q                    .W.W.~.~.~.~.~",
".~.~.~.~ Q.Q Q Q Q              .l O.0 c.x >.j _.a #.Z.1.G y E Q                  .R E.~.~.~.~.~",
".~.~.~.~   Q Q                   l.G [.$.@.I x P '.E.r 7 T.s.W.Q                   W W.~.~.~.~.~",
".~.~.~.~ R                      .P ( e ].8 D t `.! s.> u ) N.W E                   R R.~.~.~.~.~",
".~.~.~.~ R                        .-.M.2.>.6 X / s 7 9.V 4.K.Y.Y.Q.Q Q Q Q         E E.~.~.~.~.~",
".~.~.~.~.P                        .A...h.3.L o u 7.1.z | m Y.K.P R E E.W.Q.Q Q Q Q R R.~.~.~.~.~",
".~.~.~.~.H                        .Q v : . ~.z.2.d.E : z I H m.H.K L L.U E.W W.Q W.Y E.~.~.~.~.~",
".~.~.~.~.~.W                        .Q.H.p 2.o...# d S.Y L.l.k N C B.A.K.Y R.R.W Y Y Q.~.~.~.~.~",
".~.~.~.~.~ I                             W Y.P I Y.W E.U b.s k.k.g.f.n F I.U E R L.U.~.~.~.~.~.~",
".~.~.~.~.~ L W                                   Q.Q R S.m.c.l.q w.t k.D.F S R L.K.Q.~.~.~.~.~.~",
".~.~.~.~.~.~.R                                    .Q.R.U.D.m h 8.4 a z.N.N H L.D.Y  .~.~.~.~.~.~",
".~.~.~.~.~.~.~ W                                     W.R H.n a p.t j.b z m S.N F  .~.~.~.~.~.~.~",
".~.~.~.~.~.~.~ Y Q                                 Q.Q.Y.H.N j.k.b.v.g.v.B m m.R  .~.~.~.~.~.~.~",
".~.~.~.~.~.~.~.~ R Q                               Q W R.P.F B B b l k.v.c.c I  .~.~.~.~.~.~.~.~",
".~.~.~.~.~.~.~.~.~.Q                                .Q.W.Y I H C b.B.C g l H  .~.~.~.~.~.~.~.~.~",
".~.~.~.~.~.~.~.~.~.~ R                               Q.Q E.U.H.F S.D v.v L Q.~.~.~.~.~.~.~.~.~.~",
".~.~.~.~.~.~.~.~.~.~.~.Y Q                            .Q E.Y.P.U S v b.P Q.~.~.~.~.~.~.~.~.~.~.~",
".~.~.~.~.~.~.~.~.~.~.~.~.H E Q                         Q W.W.R L C Z E  .~.~.~.~.~.~.~.~.~.~.~.~",
".~.~.~.~.~.~.~.~.~.~.~.~.~.~.Y.W W                     Q W Y I.K I Q  .~.~.~.~.~.~.~.~.~.~.~.~.~",
".~.~.~.~.~.~.~.~.~.~.~.~.~.~.~.P.U.R.W E E.W Q   E W E.R R Y I Q  .~.~.~.~.~.~.~.~.~.~.~.~.~.~.~",
".~.~.~.~.~.~.~.~.~.~.~.~.~.~.~.~.~.~.Y Y Y R.Q Q.Y.R Y Y.R Q  .~.~.~.~.~.~.~.~.~.~.~.~.~.~.~.~.~",
".~.~.~.~.~.~.~.~.~.~.~.~.~.~.~.~.~.~.~.~.~.~.~   Q.~.~.~.~.~.~.~.~.~.~.~.~.~.~.~.~.~.~.~.~.~.~.~",
".~.~.~.~.~.~.~.~.~.~.~.~.~.~.~.~.~.~.~.~.~.~.~.~.~.~.~.~.~.~.~.~.~.~.~.~.~.~.~.~.~.~.~.~.~.~.~.~",
".~.~.~.~.~.~.~.~.~.~.~.~.~.~.~.~.~.~.~.~.~.~.~.~.~.~.~.~.~.~.~.~.~.~.~.~.~.~.~.~.~.~.~.~.~.~.~.~",
".~.~.~.~.~.~.~.~.~.~.~.~.~.~.~.~.~.~.~.~.~.~.~.~.~.~.~.~.~.~.~.~.~.~.~.~.~.~.~.~.~.~.~.~.~.~.~.~",
".~.~.~.~.~.~.~.~.~.~.~.~.~.~.~.~.~.~.~.~.~.~.~.~.~.~.~.~.~.~.~.~.~.~.~.~.~.~.~.~.~.~.~.~.~.~.~.~",
".~.~.~.~.~.~.~.~.~.~.~.~.~.~.~.~.~.~.~.~.~.~.~.~.~.~.~.~.~.~.~.~.~.~.~.~.~.~.~.~.~.~.~.~.~.~.~.~"
};
