/* XPM */
static char *tnt_xpm[] = {
/* width height ncolors chars_per_pixel */
"12 12 109 2",
/* colors */
"   c black",
" . c #986A46",
" X c #CE885A",
" o c #422F19",
" O c #BD7F53",
" + c #C37E4F",
" @ c #885A36",
" # c #BA7B50",
" $ c #D05B52",
" % c #B17347",
" & c #7F5C44",
" * c #B77950",
" = c #543E3E",
" - c #9D663D",
" ; c #7C5337",
" : c #47341A",
" > c #AA744D",
" , c #363434",
" < c #BB7A4D",
" 1 c #815835",
" 2 c #E49868",
" 3 c #2F2E2D",
" 4 c #CA8355",
" 5 c #A27152",
" 6 c #432C19",
" 7 c #664D38",
" 8 c #C57F50",
" 9 c #BF7A54",
" 0 c #F7AE81",
" q c #6C472A",
" w c #CE895C",
" e c #7A0000",
" r c #271B1B",
" t c #A3573F",
" y c #A16940",
" u c #7C5236",
" i c #C68557",
" p c gray31",
" a c #543A1F",
" s c #624326",
" d c #F2A778",
" f c #F0A576",
" g c #EE967E",
" h c #B1784F",
" j c #DA966A",
" k c #AC744A",
" l c gray16",
" z c #664626",
" x c #795332",
" c c #DC9365",
" v c #514B46",
" b c #917767",
" n c #EFA97E",
" m c #424241",
" M c #DD9769",
" N c #896F5F",
" B c #A26E46",
" V c #CF8E65",
" C c #010101",
" Z c #6F1E1E",
" A c #9D5B4B",
" S c #F4AA7C",
" D c #DF9464",
" F c #C68152",
" G c #C97955",
" H c #704D2F",
" J c #C47F50",
" K c #151107",
" L c #B27448",
" P c #764C2E",
" I c #5F5A56",
" U c #4A331D",
" Y c #77533C",
" T c #A08878",
" R c #B2764B",
" E c #110D06",
" W c #935733",
" Q c #E39767",
" ! c #C48359",
" ~ c #AC7248",
" ^ c #C08D6C",
" / c #7E5735",
" ( c #933922",
" ) c #2B2118",
" _ c #96653F",
" ` c #CE8555",
" ' c #67482B",
" ] c #914E30",
" [ c #45321A",
" { c #8F613B",
" } c #E5946B",
" | c #E19667",
".  c #DD9263",
".. c #946039",
".X c #77502D",
".o c #704D30",
".O c #C17B4E",
".+ c #222222",
".@ c #5C403A",
".# c #2F2111",
".$ c #CF926C",
".% c #533F27",
".& c #C27F52",
".* c #1F160B",
".= c gray8",
".- c #F1A576",
".; c #7E5A3D",
".: c #9C453D",
".> c None",
/* pixels */
".>.>.>.>.>.>.>.>.>.>.>.>",
" 5.$ V * ! ;.>.>.>.>.>.>",
" & n 0.- ^ b v.>.>.>.>.>",
" I T N.@.: u {.%.+.>.>.>",
" 3 m ) ] } g 9.; p = , l",
" E K :.. W t Y 7.= Z r C",
" [ x z % ( e.>.>.>    .>",
" . O @ # G $ A 6.>.>.>.>",
" c k a o ' s.X i q.> P M",
" 8 F 4 R S d 2 `.O -.& f",
" Q D + X |.  J < L ~ > j",
".o 1 y w B h _ / H U.*.#"
};
