/* XPM */
static char *totem_xpm[] = {
/* width height ncolors chars_per_pixel */
"12 12 69 1",
/* colors */
"  c #BBAF93",
". c #A7A29D",
"X c #222121",
"o c #D5CDCA",
"O c #605D57",
"+ c #CFC5B0",
"@ c #22201A",
"# c #97887C",
"$ c #DA8C72",
"% c #714839",
"& c #15171A",
"* c #B0A887",
"= c #585555",
"- c #80675B",
"; c #83786B",
": c #CFBCAF",
"> c #280F0B",
", c #3D1E19",
"< c #B59A92",
"1 c #D0A49C",
"2 c #D2BBAE",
"3 c #DFDDD5",
"4 c #DB886B",
"5 c #464642",
"6 c #502621",
"7 c #1B1B1B",
"8 c #665E54",
"9 c #946753",
"0 c #938E8A",
"q c #EAAB8D",
"w c #111111",
"e c #DAA69B",
"r c #C2B1A1",
"t c #AD5B44",
"y c #C3ABA2",
"u c #DD8E73",
"i c #F1DED2",
"p c #272930",
"a c #281210",
"s c #4C4D47",
"d c #272626",
"f c #C6C8B8",
"g c #887D64",
"h c #7D584C",
"j c #24100F",
"k c #F8E2DF",
"l c #EED9CB",
"z c #A36650",
"x c #E7D1C4",
"c c #6A4946",
"v c #E4D5C4",
"b c #D3BFB0",
"n c #E1DFD8",
"m c #CBB9A8",
"M c #E7DDCD",
"N c #6E4C49",
"B c #653429",
"V c #E3D1CC",
"C c #E3D3CF",
"Z c #6E544F",
"A c #C6C8B9",
"S c #110E0E",
"D c #D0C4AF",
"F c #292A2C",
"G c #87817E",
"H c #050405",
"J c #5B5C56",
"K c #8D8666",
"L c None",
/* pixels */
"La%-ZLLLLLLL",
"7jBhc&LLLLLL",
"7>tuepLLLLLL",
"764q1FHLLLLL",
"7jBhNGyr;LLL",
"7>t$<kxm*gLL",
"w,z92io.DM5L",
"LLLLb:0=3fsL",
"LLLL# +nlVXL",
"LLLL@KvAC8LL",
"LLLLLSOJdLLL",
"LLLLLLLLLLLL"
};
