/* XPM */
static char *urlgfe_xpm[] = {
/* width height ncolors chars_per_pixel */
"12 12 44 1",
/* colors */
"  c #BE5030",
". c #BE2B23",
"X c #761514",
"o c #561A12",
"O c #320909",
"+ c #F66F42",
"@ c #64100F",
"# c #9B3E27",
"$ c #1E0405",
"% c #C83728",
"& c #7E1514",
"* c #1B0405",
"= c #731213",
"- c #33120C",
"; c #B63223",
": c #F36E41",
"> c #2C0808",
", c #340909",
"< c #421810",
"1 c #4A1911",
"2 c #A1462B",
"3 c #D3452E",
"4 c #C03025",
"5 c #781413",
"6 c #EB613B",
"7 c #37160E",
"8 c #4D1E13",
"9 c #D64A30",
"0 c #460E0C",
"q c #B64B2E",
"w c #A8231D",
"e c #360909",
"r c #B0241E",
"t c #EE643D",
"y c #D84B31",
"u c #B64A2D",
"i c #EB6C40",
"p c #230606",
"a c #2E0D0A",
"s c #F1693F",
"d c #400B0B",
"f c #FB7645",
"g c #881616",
"h c None",
/* pixels */
"hhhhhhhhhhhh",
"hhh*hhhh$hhh",
"hh0%@hh#4ehh",
"hh-:3@2:rphh",
"hhh1:6sr>hhh",
"hhhh8+.Ohhhh",
"hhh=h<,aXhhh",
"hhotwh7i%dhh",
"hhhus;i95hhh",
"hhhh fy&hhhh",
"hhhhhqghhhhh",
"hhhhhhhhhhhh"
};
