/* XPM */
static char *usbview_xpm[] = {
/* width height ncolors chars_per_pixel */
"12 12 34 1",
/* colors */
"  c #95CFFF",
". c #ADDAFF",
"X c #4D7CA4",
"o c #7BC3FF",
"O c #C5E5FF",
"+ c #8CCBFF",
"@ c #82C6FF",
"# c #AEDBFF",
"$ c #B5DEFF",
"% c #A1D4FF",
"& c #79C2FF",
"* c #A5D7FF",
"= c #CAE7FF",
"- c #91CDFF",
"; c #4C7CA4",
": c #7AC3FF",
"> c #BAE0FF",
", c #77C1FF",
"< c #88C9FF",
"1 c #C8E6FF",
"2 c #AAD9FF",
"3 c #EAF6FF",
"4 c #82C7FF",
"5 c #78C2FF",
"6 c #B8DFFF",
"7 c #89CAFF",
"8 c #3F6788",
"9 c white",
"0 c #D7EDFF",
"q c #79C3FF",
"w c #AFDBFF",
"e c #76C1FF",
"r c #7DC4FF",
"t c None",
/* pixels */
"t8;;;;;;;;8t",
"8eeeeeeeeee8",
";eeeeeeeeee;",
";eeee5+7eee;",
";q:e 21weee;",
";03$=****#.X",
";6O5o2+r-4<;",
";eeeee%>9re;",
";eeeeee&@,e;",
";eeeeeeeeee;",
"8eeeeeeeeee8",
"t8;;;;;;;;8t"
};
