/* XPM */
static char *wpa_gui_xpm[] = {
/* width height ncolors chars_per_pixel */
"12 12 102 2",
/* colors */
"   c gray68",
" . c gray67",
" X c gray64",
" o c #9D9D9D",
" O c #9B9B9B",
" + c #979797",
" @ c #939393",
" # c gray57",
" $ c gray53",
" % c gray49",
" & c #797979",
" * c #717171",
" = c #6D6D6D",
" - c dim gray",
" ; c #676767",
" : c #656565",
" > c gray38",
" , c #5F5F5F",
" < c #5D5D5D",
" 1 c #5B5B5B",
" 2 c gray35",
" 3 c #555555",
" 4 c #535353",
" 5 c #515151",
" 6 c gray31",
" 7 c gray30",
" 8 c #4B4B4B",
" 9 c gray98",
" 0 c gray28",
" q c #F8F8F8",
" w c #F6F6F6",
" e c #434343",
" r c #414141",
" t c #3F3F3F",
" y c gray94",
" u c #EEEEEE",
" i c #ECECEC",
" p c #393939",
" a c #373737",
" s c gray91",
" d c #E4E4E4",
" f c gray88",
" g c #2D2D2D",
" h c #DADADA",
" j c #232323",
" k c gray83",
" l c #D2D2D2",
" z c #D0D0D0",
" x c #C8C8C8",
" c c gray",
" v c gray73",
" b c #B6B6B6",
" n c #B2B2B2",
" m c gray69",
" M c gray66",
" N c #A2A2A2",
" B c gray62",
" V c #9A9A9A",
" C c gray59",
" Z c #929292",
" A c #888888",
" S c #7C7C7C",
" D c gray48",
" F c gray47",
" G c #767676",
" H c #747474",
" J c #727272",
" K c gray44",
" L c #6A6A6A",
" P c #686868",
" I c gray40",
" U c #646464",
" Y c #626262",
" T c #606060",
" R c gray37",
" E c gray33",
" W c #505050",
" Q c #4E4E4E",
" ! c #4C4C4C",
" ~ c #F9F9F9",
" ^ c #464646",
" / c gray97",
" ( c white smoke",
" ) c #F1F1F1",
" _ c #3E3E3E",
" ` c #EFEFEF",
" ' c #E9E9E9",
" ] c gray21",
" [ c gray90",
" { c gray19",
" } c gray18",
" | c #282828",
".  c #D7D7D7",
".. c gray14",
".X c #222222",
".o c light grey",
".O c #CDCDCD",
".+ c #C3C3C3",
".@ c gray75",
".# c #B7B7B7",
".$ c gray71",
".% c None",
/* pixels */
".% 2 ^ _ ^ ! 5 4 E , P.%",
" I 0 , A l u ) h + Y 7 <",
" ; e # /.    M.O 9 . 8 >",
" , 7 y.# o [ ' n @ q * 3",
" , # i K ~ m N w @ k b 4",
" T m.o o d B c x.@.$ z W",
" T O f - ~ S U ` C.+ c 6",
" > 6 / F N X Z v 5 ( % Q",
" Y.X N w % R Y : s.+.. Q",
" =.. j $ < ! 6 5 V |.X 1",
" 2 p } } a r e t ] { g R",
".% L H J H G F D & F K.%"
};
