/* XPM */
static char *xaos_xpm[] = {
/* width height ncolors chars_per_pixel */
"12 12 40 1",
/* colors */
"  c black",
". c #1E1B45",
"X c #12102F",
"o c #3E3985",
"O c #463F93",
"+ c #1A0A15",
"@ c #2F2B65",
"# c #262252",
"$ c #4C367E",
"% c #3F3885",
"& c #2E2A63",
"* c #080302",
"= c #302C68",
"- c #33214D",
"; c #242152",
": c #170810",
"> c #262250",
", c #24204E",
"< c #524299",
"1 c #150707",
"2 c #120F2F",
"3 c #282455",
"4 c #524198",
"5 c #4B449E",
"6 c #443680",
"7 c #3C3278",
"8 c #1E1A43",
"9 c #2B275D",
"0 c #493C8B",
"q c #5A4EB6",
"w c #2F2B64",
"e c #413379",
"r c #3A347C",
"t c #262251",
"y c #322D6A",
"u c #4B439D",
"i c #514299",
"p c #1D1941",
"a c #353173",
"s c None",
/* pixels */
"ssssssssssss",
"sss8>3=%;sss",
"sXtt9au$O&2s",
"st#=oie1603s",
".wO<q-   e@p",
"r54+:*   7y,",
"r54+:*   7y,",
".wO<q-   e@p",
"st#=oie1603s",
"sXtt9au$O&2s",
"sss8>3=%;sss",
"ssssssssssss"
};
