/* XPM */
static char *xcdroast_xpm[] = {
/* width height ncolors chars_per_pixel */
"12 12 112 2",
/* colors */
"   c #F1EA08",
" . c #AAABAA",
" X c #DCEE07",
" o c #E7BD1C",
" O c #A0A1A0",
" + c #9D9D9D",
" @ c #F0E93F",
" # c #CECECD",
" $ c #989998",
" % c #D9D246",
" & c #9EA42D",
" * c #F4EF49",
" = c #3C3B30",
" - c #BFB440",
" ; c #DAD436",
" : c #C1A30D",
" > c #F4EF4C",
" , c #9B9C9A",
" < c #626362",
" 1 c #B9B35E",
" 2 c #424232",
" 3 c #F4EF4F",
" 4 c #F3DE19",
" 5 c #FEFEFE",
" 6 c #DBD840",
" 7 c gray98",
" 8 c #F9FAF9",
" 9 c #EED82B",
" 0 c #F3E21C",
" q c #F9F8F9",
" w c #F4F4F4",
" e c #F1F2F1",
" r c gray94",
" t c #F6DD2C",
" y c #E2F022",
" u c #F6ED43",
" i c gray91",
" p c #DAD738",
" a c #303130",
" s c #F6E439",
" d c #F3E636",
" f c #ECD843",
" g c #DBDCDB",
" h c #F6DB2F",
" j c gray16",
" k c #D9DAD9",
" l c #D8D8D8",
" z c #8B823D",
" x c #F6E63C",
" c c #F6CC25",
" v c #E5CA28",
" b c gray80",
" n c #666640",
" m c gray",
" M c #B7B8B7",
" N c #B4B4B4",
" B c gray69",
" V c #67653A",
" C c #ADACAD",
" Z c #ABACAB",
" A c #9C9E9C",
" S c #999A99",
" D c #F6E031",
" F c #7C7702",
" G c #F6F248",
" H c #919291",
" J c #ECD931",
" K c #D4CF41",
" L c #BFBE5E",
" P c #898A89",
" I c #F3F152",
" U c #838483",
" Y c #DFD245",
" T c #E7D72F",
" R c #F6D620",
" E c #F4E13F",
" W c #C8C34C",
" Q c #F1D032",
" ! c #626262",
" ~ c #F4F04F",
" ^ c #F6F147",
" / c #F5DA25",
" ( c #E3D15C",
" ) c #878986",
" _ c #FDFDFD",
" ` c #FCFBFC",
" ' c #484848",
" ] c #F9F9F9",
" [ c #F6D429",
" { c #7A7B79",
" } c #F5F7F5",
" | c #F1F1F1",
".  c #ECD80B",
".. c gray93",
".X c #F6DC2C",
".o c #F6EE43",
".O c #F6EC43",
".+ c #DBF211",
".@ c #C6B72B",
".# c #DFDFDF",
".$ c #F3F14D",
".% c gray85",
".& c #D2D3D2",
".* c gray81",
".= c #D7E610",
".- c #F4EF51",
".; c #716E41",
".: c #F1EA44",
".> c #BBBBBB",
"., c #F6DE35",
".< c #F6EB42",
".1 c None",
/* pixels */
" ' A e O.1.1.1.1.1.1.1.1",
" i j H ].1.1.1.1.1.1.1.1",
".. ) a w.1 F : d t R.@.1",
" , } U !   0 4 D.X.< ^ ;",
".1.1 @ s / J Y f.O u.o K",
".1.- I ~ ( 1 L T [.,.: V",
" p G > 3 E Q.+ y X o.;.1",
" 6.$ * h x c. .= & 2.1.1",
" n W v 9 % - z =.1.1.1.1",
" # . _ N b 7 m _ Z r B.&",
" $ { _ + S.> < q P.* C ]",
" l.% 5 m.% k g 8 M |.# `"
};
