/* XPM */
static char *xchat_xpm[] = {
/* width height ncolors chars_per_pixel */
"12 12 85 1",
/* colors */
"  c #E6A101",
". c #C8A401",
"X c #EF5800",
"o c #2B2102",
"O c #DC5001",
"+ c #E54700",
"@ c #FBBE01",
"# c #0C0401",
"$ c #797979",
"% c #C54001",
"& c #D87F3B",
"* c #5B3F02",
"= c #240701",
"- c #EBC101",
"; c #FE8F00",
": c #E19201",
"> c #FFD400",
", c #F9A701",
"< c #251A01",
"1 c #B24301",
"2 c #C73102",
"3 c #FFC000",
"4 c #FFBE00",
"5 c #FFB000",
"6 c #FFA800",
"7 c #FFA000",
"8 c #2D0F02",
"9 c #2D0D02",
"0 c gray83",
"q c #332C01",
"w c #E83901",
"e c #C19A7C",
"r c #BAB8B7",
"t c #341402",
"y c #D59E01",
"u c #A33402",
"i c #BD3901",
"p c #270B02",
"a c #C8B301",
"s c #270902",
"d c #533A02",
"f c #533402",
"g c #A0A0A0",
"h c #191601",
"j c #191401",
"k c #989898",
"l c #2B2202",
"z c #E0CBB7",
"x c #D7C6B8",
"c c #CEB298",
"v c #888888",
"b c #F38600",
"n c #FBAB01",
"m c #0C0501",
"M c #321302",
"N c #7E7E7E",
"B c gray48",
"V c #FA8F00",
"C c #747474",
"Z c #8C827B",
"A c #4A2A02",
"S c #5B4802",
"D c #240A01",
"F c #EBB401",
"G c #F0981A",
"H c #F8B07B",
"J c #E18F01",
"K c #251901",
"L c #F99A01",
"P c #765D36",
"I c #EAD1BF",
"U c #C72202",
"Y c #E84601",
"T c #D09B77",
"R c #332901",
"E c #D5B301",
"W c #797877",
"Q c gray74",
"! c #FF4F00",
"~ c #BD6D39",
"^ c #A32502",
"/ c #DAA573",
"( c #E6A901",
") c #FF3B00",
"_ c None",
/* pixels */
"____________",
"_haq____R.j_",
"_E>-l__oF3y_",
"_S@4(<K 5n*_",
"__d,6:J7Lf__",
"___PGV;bA___",
"$kCBcz/xZv0_",
"NgWe&HTI~rQ_",
"_m1XOtM%+i#_",
"_u!Y8__9w)^_",
"_D2p____sU=_",
"____________"
};
