/* XPM */
static char *xfig_xpm[] = {
/* width height ncolors chars_per_pixel */
"12 12 143 2",
/* colors */
"   c #9F835A",
" . c #B07557",
" X c #BB8B65",
" o c #1B791D",
" O c #A8613B",
" + c #6E3A44",
" @ c #0D1B0C",
" # c #936A47",
" $ c #AF7452",
" % c #AC6F59",
" & c #9D5251",
" * c #D1A39B",
" = c #AF6C52",
" - c #944D52",
" ; c #C78B7A",
" : c #9D5733",
" > c #B0663F",
" , c #BA8863",
" < c #8F4B50",
" 1 c #AA7267",
" 2 c #906E4A",
" 3 c #2A2C14",
" 4 c #844D31",
" 5 c #0A3C08",
" 6 c #AC714B",
" 7 c #98583E",
" 8 c #AA6453",
" 9 c #BC7A54",
" 0 c #C39168",
" q c #062204",
" w c #BE958E",
" e c #269326",
" r c #76413A",
" t c #C07951",
" y c #BF7750",
" u c #985C58",
" i c #935132",
" p c #864A43",
" a c #103F0A",
" s c #774048",
" d c #B48F87",
" f c #924C52",
" g c #BD825B",
" h c #BF877E",
" j c #825C42",
" k c #BD877C",
" l c #188E25",
" z c #8A5C61",
" x c #0F0F09",
" c c #7D443D",
" v c #AC6954",
" b c #8A4A4D",
" n c #476725",
" m c #0C470C",
" M c #A55E43",
" N c #90634C",
" B c #094109",
" V c #BF8D84",
" C c #B76A44",
" Z c #36241B",
" A c #6C442F",
" S c #945232",
" D c #A4897D",
" F c #CE8357",
" G c #1E9B2A",
" H c #C48E82",
" J c #BD815A",
" K c #875050",
" L c #7D4F50",
" P c #945835",
" I c #BF7A52",
" U c #B87B55",
" Y c #BC744F",
" T c #C18B61",
" R c #EECA8D",
" E c #B7724A",
" W c #0B7117",
" Q c #AC8281",
" ! c #B0745A",
" ~ c #F3C78B",
" ^ c #B78D85",
" / c #88534D",
" ( c #6A3A36",
" ) c #BD8B63",
" _ c #185B13",
" ` c #0B5A10",
" ' c #C19B95",
" ] c #BB9B8F",
" [ c #B77653",
" { c #B57251",
" } c #723F3A",
" | c #975230",
".  c #453D1E",
".. c #706A31",
".X c #205C17",
".o c #1D8321",
".O c #795A3A",
".+ c #AE7557",
".@ c #D39F6E",
".# c #B9714E",
".$ c #633B2B",
".% c #A65D38",
".& c #935643",
".* c #BD8780",
".= c #6C594E",
".- c #BF744D",
".; c #9D5250",
".: c #BA6E48",
".> c #AF6F47",
"., c #1C6A19",
".< c #884B45",
".1 c #764851",
".2 c #F3B279",
".3 c #AF6E54",
".4 c #81453E",
".5 c #35341E",
".6 c #145C14",
".7 c #985251",
".8 c #A36A5F",
".9 c #135A13",
".0 c #8C534F",
".q c #B9855A",
".w c #AC6D4A",
".e c #093406",
".r c #38782A",
".t c #C49993",
".y c #81523A",
".u c #B27153",
".i c #CA875A",
".p c #1C5515",
".a c #BC6F49",
".s c #57412B",
".d c #5E4D49",
".f c #954C51",
".g c #5E662B",
".h c #98714D",
".j c #9B5350",
".k c #0F3708",
".l c #C48D82",
".z c #935052",
".x c #BC8059",
".c c #9E5835",
".v c #D28E5E",
/* pixels */
" C.a.- y I t E.. >.% : |",
".: Y 9.x g J U.p.g O.c S",
".# [ T 0 X , 2.9 W n P i",
" {.y # R j.h  .r G l.X 4",
".u.+ A ~ ).O m o e.o `. ",
".3 ! N.q.@.5 5 _.,.6 B 3",
" v % . 6.2.s q.k a.e q Z",
" 8 =.w.$.v $.= ] D @ x (",
" M F 7.&.>.i ; d w.d ' Q",
".4 c.< p r }.l /.* 1 * L",
" &.;.j.7.z u h.0 V.t H z",
".f - f < b k K s +.8 ^.1"
};
