/* XPM */
static char *xmms_xpm[] = {
/* width height ncolors chars_per_pixel */
"12 12 111 2",
/* colors */
"   c #5478FB",
" . c #E5F6FB",
" X c #698CFF",
" o c #4E669F",
" O c #E9EDF5",
" + c #5D83FD",
" @ c #445B9F",
" # c #F0F9FF",
" $ c #5876C3",
" % c #81ABFF",
" & c #B7C9FF",
" * c #A3C3FF",
" = c #5875BC",
" - c #769AED",
" ; c #A0C9FF",
" : c #5F80E7",
" > c #FBFDFF",
" , c #FAFBFE",
" < c #7C9AF6",
" 1 c #567BFF",
" 2 c #8CA7FF",
" 3 c #839CAA",
" 4 c #779DFE",
" 5 c #6083F8",
" 6 c #5E7CC1",
" 7 c #DAFAFF",
" 8 c #7C8399",
" 9 c #7499E7",
" 0 c #2F417F",
" q c #BFCFFF",
" w c #698CE6",
" e c #AAD1FE",
" r c #678AE4",
" t c #334586",
" y c #678AFB",
" u c #668BF0",
" i c #F2FFFF",
" p c #577CFF",
" a c #CDE1FF",
" s c #5A7DF8",
" d c #83ABFF",
" f c gray87",
" g c #83A1FF",
" h c #F9FCFF",
" j c #6D6E6F",
" k c #698BE2",
" l c #6E95FE",
" z c #5A78C6",
" x c #8AA0A9",
" c c #A5C3FF",
" v c #8AA6FF",
" b c #475E9C",
" n c #29375A",
" m c #EBEEF4",
" M c #567BFD",
" N c #E3E6EF",
" B c #435A9E",
" V c alice blue",
" C c #5C7BC7",
" Z c #C1E9FF",
" A c #5578F5",
" S c #668DFF",
" D c #658BFE",
" F c #525767",
" G c #E3FDFF",
" H c #E3F9FF",
" J c #6789D8",
" K c #40548A",
" L c #314799",
" P c #485F9F",
" I c #BCC3D2",
" U c #30448E",
" Y c #B6BDCC",
" T c #759BEC",
" R c #E0F7FF",
" E c #1E2944",
" W c #85A1FF",
" Q c #6F93E6",
" ! c #4C66B3",
" ~ c #A2A3A4",
" ^ c #D3E6FF",
" / c #C9D7FF",
" ( c #7FA9FF",
" ) c white",
" _ c #6A789B",
" ` c #F5FEFF",
" ' c #465E9C",
" ] c #6582C1",
" [ c #F9F9F9",
" { c #7C9CF2",
" } c #86B0FF",
" | c #415897",
".  c #2E4081",
".. c #424B63",
".X c #31489B",
".o c #BCCCFF",
".O c #2B3E81",
".+ c light grey",
".@ c #283760",
".# c #2C3D7B",
".$ c #3E5286",
".% c #4E6FE5",
".& c #6080C5",
".* c #485D89",
".= c #6C8EFF",
".- c #DFF5FC",
".; c #7DA4FF",
".: c #6287FF",
".> c #3B4F90",
"., c gray71",
".< c None",
/* pixels */
".<.<.<.< 3.- . x.<.<.<.<",
".<.< ] ; Z G i 7 e.*.<.<",
".< 6 } a # R H ` ^ d K.<",
".< ( % * > h V > c.; 4.<",
" o T.& 9 I.+ f Y - = C b",
" Q J n.$ _ ~ j.. k E $ P",
" w z r ' 8., [ F |.@ ! @",
" B u l { O m , N < : y.>",
".< D S q ) & / ).o.: 5.<",
".< t + g 2 X.= v W s 0.<",
".<.<.  A M p 1  .%.#.<.<",
".<.<.<.< U.X L.O.<.<.<.<"
};
