/* XPM */
static char *xpaint_xpm[] = {
/* width height ncolors chars_per_pixel */
"12 12 103 2",
/* colors */
"   c tan",
" . c #342D5E",
" X c #005287",
" o c #4FE335",
" O c #A9C2A2",
" + c #825965",
" @ c #60536B",
" # c #00125C",
" $ c #7C7E83",
" % c #005A8D",
" & c #9E8776",
" * c #C0BA80",
" = c #D0A586",
" - c #42382C",
" ; c #080853",
" : c #000955",
" > c #43446F",
" , c #02024D",
" < c #DE9EB8",
" 1 c #52E237",
" 2 c #D69AB0",
" 3 c #0B0B4F",
" 4 c #D4B886",
" 5 c #A0857E",
" 6 c #002065",
" 7 c #CCAF88",
" 8 c #836A68",
" 9 c #B2A196",
" 0 c #CFB58E",
" q c #DCCEBF",
" w c #4C4160",
" e c #006A99",
" r c #00155E",
" t c #78676A",
" y c #867271",
" u c #003B78",
" i c #001B61",
" p c #3F3660",
" a c #040351",
" s c #030350",
" d c #C1B251",
" f c #ACB08F",
" g c #222361",
" h c #434453",
" j c #00437E",
" k c #211C56",
" l c #8C878A",
" z c #43446A",
" x c #C6B884",
" c c #2D275B",
" v c #766571",
" b c #000553",
" n c #555778",
" m c #9B8574",
" M c #AB927D",
" N c #554939",
" B c #006091",
" V c #000B56",
" C c #251F56",
" Z c #7564BF",
" A c #001C63",
" S c #453A5E",
" D c #C2A686",
" F c #3C335F",
" G c #002266",
" H c #00004F",
" J c #ADB29C",
" K c #B5A16F",
" L c #006897",
" P c #CDB697",
" I c #927D88",
" U c #003976",
" Y c #C6AA90",
" T c #00175F",
" R c #DE9FB5",
" E c #8C7878",
" W c #060551",
" Q c #00729D",
" ! c #937A82",
" ~ c #030351",
" ^ c #01014F",
" / c #DFA3BC",
" ( c #CDB089",
" ) c #443C69",
" _ c #007AA3",
" ` c #DB966F",
" ' c #007EA6",
" ] c #9B8FA0",
" [ c #2C2C54",
" { c #00407B",
" } c #D2B38D",
" | c #CFB18A",
".  c #5D50A5",
".. c #0D0B53",
".X c #42385C",
".o c #000250",
".O c #003574",
".+ c #006A98",
".@ c #121051",
".# c #D7D4D0",
".$ c #0C084B",
".% c #EB513F",
".& c #56A4AA",
/* pixels */
" H :.o # A.o H 6 H H H H",
" H G L.+ e %.O.O { U Q H",
" H T ' B X j _ B B B B H",
" H i b.O V r u 6 6 6 6 H",
" a s H W . + 5.  I @.. H",
".$ S ) K `.% = Z ] * v H",
" H , 8 d 4     x 1 o E H",
" H C | 9 ! Y } < R ( p H",
" ^ c D P f.& q / 2 w H H",
" F 7 N - 0 O J.# l > ~ H",
" k y M & m t.X.@ h $ n ;",
" H H H H H H H H 3 [ z g"
};
