/* XPM */
static char *xpdf_xpm[] = {
/* width height ncolors chars_per_pixel */
"12 12 27 1",
/* colors */
"  c #ED9682",
". c #B53619",
"X c #DF421E",
"o c #7E2511",
"O c #ED9581",
"+ c #E97F66",
"@ c #A73217",
"# c #D13E1C",
"$ c #70210F",
"% c #E25433",
"& c #EC8D78",
"* c #C43B1C",
"= c #E04927",
"- c #8C2A13",
"; c #E25636",
": c #C43D1F",
"> c #D24626",
", c #EC937E",
"< c #992E15",
"1 c #C33A1A",
"2 c white",
"3 c #8B2A13",
"4 c #E56547",
"5 c #C33A1B",
"6 c #F5C7BC",
"7 c #8C2913",
"8 c None",
/* pixels */
"88888<388888",
"88888.X88888",
"888887#88888",
"888888.88888",
"888887=88888",
"88888>6*8888",
"88888&2O-888",
"8888#,+;XXX.",
"88855o8888<8",
"8:4188888888",
"@ %888888888",
"$@8888888888"
};
