/* XPM */
static char *xscreensaver_xpm[] = {
/* width height ncolors chars_per_pixel */
"12 12 77 1",
/* colors */
"  c gray68",
". c #B54131",
"X c #5B0000",
"o c #0E0000",
"O c #CEA6A2",
"+ c #8B8B8B",
"@ c #CD2D24",
"# c #6A1E15",
"$ c #EA0502",
"% c #838383",
"& c #E23128",
"* c #690D0A",
"= c #E8E7E6",
"- c #1E0202",
"; c #E60101",
": c #BC0E09",
"> c dim gray",
", c #F50302",
"< c #898888",
"1 c #535353",
"2 c gray31",
"3 c gray30",
"4 c #070605",
"5 c #580E0C",
"6 c #090100",
"7 c #FC0605",
"8 c #110D0B",
"9 c #C03126",
"0 c #DC0703",
"q c #252525",
"w c #730C05",
"e c #D9D1CF",
"r c #565655",
"t c gray12",
"y c #EC0302",
"u c #1B1B1B",
"i c #F50A04",
"p c #3C0100",
"a c #E90302",
"s c #EEEDED",
"d c gray72",
"f c #460403",
"g c gray1",
"h c #B4B4B4",
"j c #B2B2B2",
"k c gray69",
"l c #BAAAA6",
"z c #DC0402",
"x c red",
"c c #BEA9A3",
"v c #ED0202",
"b c #74726E",
"n c #080604",
"m c #A05F54",
"M c gray54",
"N c gray51",
"B c #CC0705",
"V c #6C6C6C",
"C c #686868",
"Z c #8F8F8E",
"A c #121110",
"S c gray32",
"D c #261713",
"F c white smoke",
"G c #C12E24",
"H c #DD150E",
"J c #E1E1E1",
"K c #070201",
"L c #FE0000",
"P c #1E1E1E",
"I c #CD5650",
"U c #0C0C0C",
"Y c #EEEEED",
"T c #8B0605",
"R c #651511",
"E c gray71",
"W c None",
/* pixels */
"WWWWWWWWWWWW",
"WWWWWWWWWWWW",
"WWWW5#RWWWWW",
"W dl&mGhhEkW",
"W+owi*$Dqg%W",
"WMp.7:v9FPNW",
"WMXH@x0yetNW",
"WM-,BxxLOtNW",
"WMUILxxacuNW",
"WZ48T;zfAn<W",
"WjY=b6KrJsdW",
"W3V>1SSSCV2W"
};
