/* XPM */
static char *xterm_xpm[] = {
/* width height ncolors chars_per_pixel */
"12 12 72 1",
/* colors */
"  c black",
". c #362E2B",
"X c #5E0000",
"o c #8D7973",
"O c #CE0B0B",
"+ c #716F6B",
"@ c #8C8B8C",
"# c #645654",
"$ c #595353",
"% c #53514D",
"& c #696B69",
"* c #7A7873",
"= c #E40302",
"- c gray38",
"; c #5D5D5D",
": c #5B5D5B",
"> c #6D6A66",
", c #7C7C78",
"< c #535353",
"1 c #4B494B",
"2 c #020000",
"3 c #454345",
"4 c #544E4D",
"5 c #773F3E",
"6 c #130000",
"7 c #393939",
"8 c #8D8D88",
"9 c #92403E",
"0 c #2E2F2E",
"q c #8A8B88",
"w c #C21514",
"e c #676562",
"r c #55514D",
"t c #A09E9D",
"y c #A21E18",
"u c #878681",
"i c #790000",
"p c #8F1C1C",
"a c #4E4B4C",
"s c #C30000",
"d c #533433",
"f c #5D5C57",
"g c #797A79",
"h c #787A78",
"j c #6E706E",
"k c #6C6E6C",
"l c #807F79",
"z c #918A83",
"x c #7F4040",
"c c #842324",
"v c #5E605E",
"b c #71716A",
"n c #0F0000",
"m c #565656",
"M c #797975",
"N c #555255",
"B c #4C4C4C",
"V c #0C0000",
"C c #501718",
"Z c #5C5955",
"A c #3D3E3D",
"S c #86847E",
"D c #8D857E",
"F c #761F1F",
"G c #A00D0D",
"H c #A09D97",
"J c #B6B5B3",
"K c #862C2B",
"L c #140000",
"P c #94938E",
"I c #5D5C58",
"U c None",
/* pixels */
"UUUUUUUUUUUU",
"UUUUUUUUUUUU",
"UUHP8ul*+>UU",
"UUJ@hk-m3e U",
"UUtgj#5a7ILU",
"UUq&v$Op04XU",
"UU,:<1d=CFVU",
"UUM;NBAcGx U",
"UUbSzDo9yw2U",
"UUU%fZKr.siU",
"UUUUU6n UUXU",
"UUUUUUUUUUUU"
};
