/* XPM */
static char *xv_xpm[] = {
/* width height ncolors chars_per_pixel */
"12 12 53 1",
/* colors */
"  c #390000",
". c #401700",
"X c #F97D00",
"o c #EF7600",
"O c #511B00",
"+ c #A24800",
"@ c #732B00",
"# c #692C00",
"$ c #D30009",
"% c #A94D00",
"& c #9F5000",
"* c #954B00",
"= c #D56600",
"- c #440006",
"; c #ED7700",
": c #ED7500",
"> c #A10005",
", c #F47A00",
"< c #A04D00",
"1 c #EA7300",
"2 c #2E0900",
"3 c #FF8000",
"4 c #8B0D02",
"5 c #D06300",
"6 c #FC7E00",
"7 c #833500",
"8 c #B95500",
"9 c #680000",
"0 c #D46A00",
"q c #8A3A00",
"w c #CA6500",
"e c #720503",
"r c #763200",
"t c #914900",
"y c #DB6D00",
"u c #C75D00",
"i c #5F2600",
"p c #B75A00",
"a c #632700",
"s c #AA5500",
"d c #BB5D00",
"f c #E16D01",
"g c #E06D00",
"h c #D66800",
"j c #824100",
"k c #9D4400",
"l c #DD6F00",
"z c #B85900",
"x c #904900",
"c c #BC5E00",
"v c #B25900",
"b c #A85000",
"n c None",
/* pixels */
"nnnnnnnnnnnn",
"nnnwnnpr3n*n",
"nnjgn;@k3n3n",
"nnj1d8n%0xln",
"nnn3:2n6n7,s",
"nnn3qnnXn#un",
"nnc14efvnznn",
"nn3g +3nntnn",
"n,5yn53nbnnn",
"n=i3:.3o<n9n",
"&On3anhXn>$-",
"nnnnnnnnnnnn"
};
