/* XPM */
static char * bullet_active_xpm[] = {
"16 16 6 1",
" 	c None",
".	c #F8FCF8",
"+	c #6088B8",
"@	c #000000",
"#	c #FFFFFF",
"$	c #000100",
"................",
".++++++++++++++@",
".++++++++++++++@",
".++++++++++++++@",
".++++++++++++++@",
".+++###++++++++@",
".+++#++##++++++@",
".+++#++++##++++@",
".+++#++++++$+++@",
".+++#++++$$++++@",
".+++#++$$++++++@",
".+++#$$++++++++@",
".++++++++++++++@",
".++++++++++++++@",
".++++++++++++++@",
"@@@@@@@@@@@@@@@@"};
