/* XPM */
static char * window_active_min_press_xpm[] = {
"16 16 3 1",
" 	c #F8FCF8",
".	c #000000",
"+	c #6088B8",
"                ",
". ++++++++++++++",
". ++++++++++++++",
". +           ++",
". + ++++++++++.+",
". + ++++++++++.+",
". + ++++++++++.+",
". + ++++++++++.+",
". + +...++++++.+",
". + +.++ +++++.+",
". + ++   +++++.+",
". + ++++++++++.+",
". ++...........+",
". ++++++++++++++",
". ++++++++++++++",
"................"};
