/* XPM */
static char * window_handle_active_xpm[] = {
"1 16 4 1",
" 	c None",
".	c #F8FCF8",
"+	c #6088B8",
"@	c #000000",
".",
"+",
"@",
".",
"+",
"+",
"+",
"+",
"+",
"+",
"+",
"+",
"@",
".",
"+",
"@"};
