/* XPM */
static char * menu_xpm[] = {
"18 20 80 1",
" 	c None",
".	c #414141",
"+	c #2B2B2B",
"@	c #2B2C2C",
"#	c #2C2C2C",
"$	c #2B2C2B",
"%	c #2C2B2C",
"&	c #2B2A2B",
"*	c #2A2A2A",
"=	c #2A2B2A",
"-	c #2A2B2B",
";	c #2B2A2A",
">	c #2A2A2B",
",	c #2A2929",
"'	c #2A2A29",
")	c #292929",
"!	c #2A292A",
"~	c #292A2A",
"{	c #29292A",
"]	c #292A29",
"^	c #282928",
"/	c #292928",
"(	c #282828",
"_	c #292829",
":	c #282929",
"<	c #282829",
"[	c #282827",
"}	c #282728",
"|	c #272827",
"1	c #272828",
"2	c #272727",
"3	c #272726",
"4	c #272626",
"5	c #262626",
"6	c #262627",
"7	c #262726",
"8	c #272627",
"9	c #262727",
"0	c #252525",
"a	c #262525",
"b	c #262526",
"c	c #262625",
"d	c #252526",
"e	c #252625",
"f	c #252626",
"g	c #242424",
"h	c #242524",
"i	c #252424",
"j	c #252425",
"k	c #252524",
"l	c #242525",
"m	c #242423",
"n	c #242324",
"o	c #232424",
"p	c #232323",
"q	c #232324",
"r	c #242323",
"s	c #232423",
"t	c #232223",
"u	c #222222",
"v	c #222322",
"w	c #232222",
"x	c #232322",
"y	c #222323",
"z	c #222223",
"A	c #212122",
"B	c #222121",
"C	c #222221",
"D	c #212222",
"E	c #212120",
"F	c #212121",
"G	c #202121",
"H	c #212020",
"I	c #202021",
"J	c #202020",
"K	c #1F2020",
"L	c #201F1F",
"M	c #1F1F1F",
"N	c #1F201F",
"O	c #1F1F20",
"..................",
"++++++++++++++++++",
"++++++++++++++++++",
"@#@###$$#%%@#%%###",
"+++++&++++++++++++",
"*=***+**-=*;=;>***",
",')!)~~~!{{)]))~])",
"^)^/()^^_)^)__:^/<",
"([}}}(((}|(((1[(1}",
"22222222222222222|",
"345677585657659987",
"00aabc5bdeeb0d0bfc",
"ghigjklk00ll0g0l0k",
"mggnnognoggggggmng",
"pppqpprqpqppppqpsp",
"tuvvwxuuwywvwwvzxu",
"ABAuCBADCBBuuCDDCD",
"EFFFFFGEFHIHGGHFFF",
"JJJJJJJKJJJJJJJJJJ",
"LMNJMMLMOOLMOMMMOM"};
