/* XPM */
static char * rox_xpm[] = {
"47 47 767 2",
"  	c None",
". 	c #050709",
"+ 	c #090C0F",
"@ 	c #0A0E0F",
"# 	c #090D10",
"$ 	c #080D0E",
"% 	c #080B0D",
"& 	c #07090B",
"* 	c #030505",
"= 	c #010202",
"- 	c #020304",
"; 	c #0B0C0D",
"> 	c #070A0B",
", 	c #929CA2",
"' 	c #B1C1CB",
") 	c #B8C8D0",
"! 	c #BFCED7",
"~ 	c #C5D4DD",
"{ 	c #CADAE2",
"] 	c #CFDEE7",
"^ 	c #D5E3EC",
"/ 	c #DAE8F0",
"( 	c #DEEBF3",
"_ 	c #E2EDF5",
": 	c #E3EEF6",
"< 	c #DBE8F0",
"[ 	c #454B4E",
"} 	c #0C1012",
"| 	c #0B1113",
"1 	c #0C1213",
"2 	c #0C1114",
"3 	c #0B1013",
"4 	c #0B1012",
"5 	c #0A0F10",
"6 	c #090E10",
"7 	c #090C0E",
"8 	c #080B0C",
"9 	c #06090A",
"0 	c #050708",
"a 	c #020303",
"b 	c #030405",
"c 	c #0B0E0F",
"d 	c #040505",
"e 	c #040606",
"f 	c #6A7479",
"g 	c #E5EEF6",
"h 	c #E2EEF6",
"i 	c #E1EDF5",
"j 	c #E1ECF6",
"k 	c #DFECF5",
"l 	c #DDECF5",
"m 	c #DEEBF5",
"n 	c #DDEBF5",
"o 	c #DCEBF5",
"p 	c #DCEAF4",
"q 	c #D8E6F1",
"r 	c #A3B6C1",
"s 	c #A6BAC6",
"t 	c #AABECA",
"u 	c #AEC2CE",
"v 	c #B2C6D2",
"w 	c #B5C9D6",
"x 	c #B8CDD9",
"y 	c #BCD0DD",
"z 	c #BED3E0",
"A 	c #C1D5E3",
"B 	c #C3D8E5",
"C 	c #C6DBE8",
"D 	c #C9DDEA",
"E 	c #CBDEEC",
"F 	c #CDE1EE",
"G 	c #CEE2EF",
"H 	c #CFE2EF",
"I 	c #657781",
"J 	c #DCE9F3",
"K 	c #DAE9F4",
"L 	c #D9E9F4",
"M 	c #D8E8F4",
"N 	c #D8E7F3",
"O 	c #D7E7F2",
"P 	c #D5E6F2",
"Q 	c #D4E6F2",
"R 	c #D3E6F2",
"S 	c #D4E5F1",
"T 	c #D2E4F1",
"U 	c #D0E4F1",
"V 	c #D0E3F0",
"W 	c #CDE2EF",
"X 	c #CDE1EF",
"Y 	c #CBE1EF",
"Z 	c #CCE0EE",
"` 	c #CBE0EE",
" .	c #CADFEE",
"..	c #C8DFEE",
"+.	c #C9DFEE",
"@.	c #C7DEED",
"#.	c #88A0AE",
"$.	c #D0E2EE",
"%.	c #D6E6F2",
"&.	c #D1E4F1",
"*.	c #D0E3F1",
"=.	c #CCE1EF",
"-.	c #C5DDED",
";.	c #C6DCED",
">.	c #C4DCED",
",.	c #C4DCEC",
"'.	c #C3DCEC",
").	c #C2DBEC",
"!.	c #C3DBEC",
"~.	c #C1DAEC",
"{.	c #A2BDCE",
"].	c #07090A",
"^.	c #BED3E1",
"/.	c #C5DCED",
"(.	c #C1DBEC",
"_.	c #C0DAEB",
":.	c #C0D9EA",
"<.	c #BED9EA",
"[.	c #BED8EA",
"}.	c #BDD8EA",
"|.	c #BDD8E9",
"1.	c #BBD6E9",
"2.	c #B4D1E4",
"3.	c #080C0E",
"4.	c #AAC3D3",
"5.	c #C6DDED",
"6.	c #AABFCD",
"7.	c #8D9FAB",
"8.	c #81919C",
"9.	c #75838D",
"0.	c #68757F",
"a.	c #5C6870",
"b.	c #535E65",
"c.	c #535F66",
"d.	c #536066",
"e.	c #566269",
"f.	c #57626B",
"g.	c #58666E",
"h.	c #5B6770",
"i.	c #5C6972",
"j.	c #5D6B75",
"k.	c #5E6E77",
"l.	c #616F7A",
"m.	c #64727C",
"n.	c #6D7D88",
"o.	c #768794",
"p.	c #7E939F",
"q.	c #889DAC",
"r.	c #8FA6B6",
"s.	c #97AFBF",
"t.	c #9EB7C9",
"u.	c #181D22",
"v.	c #98B1C1",
"w.	c #495259",
"x.	c #1A1F20",
"y.	c #020202",
"z.	c #15181A",
"A.	c #2B3437",
"B.	c #323B40",
"C.	c #3A4549",
"D.	c #424F54",
"E.	c #49595E",
"F.	c #4F5F65",
"G.	c #4D5E64",
"H.	c #4C5C62",
"I.	c #4B5B60",
"J.	c #49585D",
"K.	c #47575C",
"L.	c #45545A",
"M.	c #455458",
"N.	c #445257",
"O.	c #425055",
"P.	c #3E4C50",
"Q.	c #394549",
"R.	c #323D41",
"S.	c #2C3639",
"T.	c #262E31",
"U.	c #20272B",
"V.	c #1A2023",
"W.	c #14191C",
"X.	c #0C0D0F",
"Y.	c #050707",
"Z.	c #010101",
"`.	c #030404",
" +	c #060708",
".+	c #090B0C",
"++	c #0B0D0E",
"@+	c #0D0F10",
"#+	c #0F1214",
"$+	c #839DAD",
"%+	c #BCD7E9",
"&+	c #BAD4E7",
"*+	c #49545C",
"=+	c #1B1F21",
"-+	c #6D858D",
";+	c #8AA8B2",
">+	c #8BA9B3",
",+	c #88A5AF",
"'+	c #829EA7",
")+	c #7B969F",
"!+	c #768F97",
"~+	c #62777E",
"{+	c #040506",
"]+	c #758D9C",
"^+	c #B8D5E8",
"/+	c #B7D4E8",
"(+	c #6A7C87",
"_+	c #1D2325",
":+	c #89A6B2",
"<+	c #92B2BD",
"[+	c #91B1BC",
"}+	c #90B0BB",
"|+	c #90AFBA",
"1+	c #90AFB9",
"2+	c #90AEB9",
"3+	c #8FADB8",
"4+	c #8EADB8",
"5+	c #8EADB7",
"6+	c #8DACB7",
"7+	c #8DABB7",
"8+	c #8DAAB6",
"9+	c #8DAAB5",
"0+	c #8CAAB5",
"a+	c #8BA9B4",
"b+	c #89A6B0",
"c+	c #1A1F21",
"d+	c #697E8C",
"e+	c #B3D2E7",
"f+	c #B2D1E6",
"g+	c #A5C1D6",
"h+	c #13181C",
"i+	c #88A7B2",
"j+	c #9ABDCA",
"k+	c #9ABCC9",
"l+	c #99BBC7",
"m+	c #9ABBC9",
"n+	c #657A83",
"o+	c #242B2E",
"p+	c #232424",
"q+	c #435257",
"r+	c #272819",
"s+	c #55686C",
"t+	c #98BAC5",
"u+	c #98BAC6",
"v+	c #97B9C5",
"w+	c #98B9C5",
"x+	c #98B8C5",
"y+	c #97B8C5",
"z+	c #96B7C4",
"A+	c #96B7C3",
"B+	c #95B6C2",
"C+	c #6E868F",
"D+	c #0C1010",
"E+	c #627884",
"F+	c #AECFE5",
"G+	c #AED0E4",
"H+	c #5E717E",
"I+	c #3E4C54",
"J+	c #A3C7D4",
"K+	c #A2C6D4",
"L+	c #819EA9",
"M+	c #1B1C1D",
"N+	c #343434",
"O+	c #191D1E",
"P+	c #373737",
"Q+	c #919191",
"R+	c #7A7A7A",
"S+	c #49442A",
"T+	c #C4A404",
"U+	c #695902",
"V+	c #8DADB9",
"W+	c #A0C3D2",
"X+	c #A1C3D2",
"Y+	c #9FC3D1",
"Z+	c #9FC3D0",
"`+	c #9EC2CF",
" @	c #9DC1CE",
".@	c #4C5D65",
"+@	c #5E7481",
"@@	c #AACDE4",
"#@	c #A5C9E0",
"$@	c #151A1D",
"%@	c #8BAAB7",
"&@	c #A7CDDB",
"*@	c #A6CCDB",
"=@	c #333E42",
"-@	c #333333",
";@	c #787878",
">@	c #D9D9D9",
",@	c #878787",
"'@	c #9D9D9D",
")@	c #EAEAEA",
"!@	c #8C760C",
"~@	c #B59704",
"{@	c #736102",
"]@	c #A1C6D5",
"^@	c #A4CADA",
"/@	c #A5CADA",
"(@	c #A5CBDA",
"_@	c #A5CBD9",
":@	c #A6CBDA",
"<@	c #A6CBD9",
"[@	c #A5CAD9",
"}@	c #A5CAD8",
"|@	c #A5C9D8",
"1@	c #1C2427",
"2@	c #5A717D",
"3@	c #A6CAE3",
"4@	c #819EB0",
"5@	c #273136",
"6@	c #A9D1E0",
"7@	c #A9D0E0",
"8@	c #A6CCDC",
"9@	c #434E4C",
"0@	c #544601",
"a@	c #72610B",
"b@	c #85793D",
"c@	c #514D35",
"d@	c #232322",
"e@	c #81817F",
"f@	c #574B0C",
"g@	c #FAD105",
"h@	c #AD9103",
"i@	c #6E5D02",
"j@	c #252B2D",
"k@	c #2C3538",
"l@	c #5A6F78",
"m@	c #809EAA",
"n@	c #A9D0DF",
"o@	c #AAD0DF",
"p@	c #AAD1DF",
"q@	c #ABD0E0",
"r@	c #ABD1E0",
"s@	c #ABD1DF",
"t@	c #5A707D",
"u@	c #A3C9E1",
"v@	c #576B78",
"w@	c #4F626A",
"x@	c #ABD3E2",
"y@	c #ABD2E2",
"z@	c #46575C",
"A@	c #9B8C41",
"B@	c #FEF6CB",
"C@	c #FFFBE6",
"D@	c #FEF7D2",
"E@	c #FEEEA1",
"F@	c #FBE369",
"G@	c #ECD145",
"H@	c #FCD71E",
"I@	c #FCD307",
"J@	c #918130",
"K@	c #E9E9E9",
"L@	c #E2E2E2",
"M@	c #D6D6D6",
"N@	c #A2A2A2",
"O@	c #575757",
"P@	c #303131",
"Q@	c #4B5C64",
"R@	c #95B6C4",
"S@	c #ACD2E2",
"T@	c #ADD3E3",
"U@	c #AED4E3",
"V@	c #AED5E3",
"W@	c #AED6E3",
"X@	c #AFD6E3",
"Y@	c #9EC2CE",
"Z@	c #0A0D0E",
"`@	c #597180",
" #	c #A0C7DF",
".#	c #2D383F",
"+#	c #7A97A1",
"@#	c #AAD2E1",
"##	c #A9D2E1",
"$#	c #1E1E12",
"%#	c #FAEEB2",
"&#	c #FFFAE4",
"*#	c #FEF7D0",
"=#	c #FEF2B7",
"-#	c #FDE154",
";#	c #FCD50E",
">#	c #FCD305",
",#	c #B1A671",
"'#	c #FAFAFA",
")#	c #F9F9F9",
"!#	c #F8F8F8",
"~#	c #F2F2F2",
"{#	c #B1B1B1",
"]#	c #474747",
"^#	c #4E5E65",
"/#	c #A6CCD9",
"(#	c #ADD5E3",
"_#	c #AED6E4",
":#	c #AFD6E4",
"<#	c #AFD7E4",
"[#	c #B0D7E5",
"}#	c #B1D8E5",
"|#	c #96B8C3",
"1#	c #0C0F10",
"2#	c #9AC1DA",
"3#	c #9FC6D5",
"4#	c #A8D1E0",
"5#	c #A7D0E0",
"6#	c #282407",
"7#	c #FEF0AE",
"8#	c #FEF6CC",
"9#	c #FEEE9C",
"0#	c #FCD71B",
"a#	c #EFC805",
"b#	c #8D7706",
"c#	c #C1BEB1",
"d#	c #F3F3F3",
"e#	c #F5F5F5",
"f#	c #F7F7F7",
"g#	c #F6F6F6",
"h#	c #979797",
"i#	c #292C2D",
"j#	c #9CC0CD",
"k#	c #ADD4E3",
"l#	c #B0D7E4",
"m#	c #B1D7E5",
"n#	c #B2D8E5",
"o#	c #0E1112",
"p#	c #597281",
"q#	c #7897AC",
"r#	c #232C30",
"s#	c #A6D0DF",
"t#	c #A6CFDF",
"u#	c #A5CFDF",
"v#	c #2A3233",
"w#	c #D6C56D",
"x#	c #FEF2B5",
"y#	c #FDDD3E",
"z#	c #CFAE08",
"A#	c #716214",
"B#	c #6C6128",
"C#	c #AAA698",
"D#	c #E5E5E5",
"E#	c #E8E8E8",
"F#	c #F1F1F1",
"G#	c #F4F4F4",
"H#	c #CCCCCC",
"I#	c #303233",
"J#	c #99BDCA",
"K#	c #ACD4E2",
"L#	c #B0D6E4",
"M#	c #85A2AC",
"N#	c #0F1213",
"O#	c #5A7282",
"P#	c #516674",
"Q#	c #4D6068",
"R#	c #A4CEDE",
"S#	c #A3CDDE",
"T#	c #67818C",
"U#	c #5A4F14",
"V#	c #FEE984",
"W#	c #FCDA2E",
"X#	c #F1CA05",
"Y#	c #9D8A2C",
"Z#	c #B6B19F",
"`#	c #EFEFEF",
" $	c #C2C2C2",
".$	c #CDCDCD",
"+$	c #ECECEC",
"@$	c #D0D0D0",
"#$	c #323536",
"$$	c #9ABECC",
"%$	c #7C96A0",
"&$	c #0E1212",
"*$	c #000000",
"=$	c #5C7684",
"-$	c #324249",
";$	c #6F8B97",
">$	c #A2CDDD",
",$	c #A2CCDD",
"'$	c #A1CCDD",
")$	c #A0CBDC",
"!$	c #1F2527",
"~$	c #A6A5A3",
"{$	c #AC9730",
"]$	c #FDDF4B",
"^$	c #E7C308",
"/$	c #928858",
"($	c #E4E4E4",
"_$	c #E6E6E6",
":$	c #EDEDED",
"<$	c #B2B2B2",
"[$	c #A1A1A1",
"}$	c #EBEBEB",
"|$	c #F0F0F0",
"1$	c #CACACA",
"2$	c #33383A",
"3$	c #A7D0DE",
"4$	c #718A93",
"5$	c #0C0E0F",
"6$	c #5E7B8A",
"7$	c #1D2428",
"8$	c #85A7B6",
"9$	c #9FCBDC",
"0$	c #9FCADC",
"a$	c #698591",
"b$	c #505050",
"c$	c #AAA8A2",
"d$	c #8C7F39",
"e$	c #908444",
"f$	c #BEBEBE",
"g$	c #BBBBBB",
"h$	c #EEEEEE",
"i$	c #8F8F8F",
"j$	c #55686F",
"k$	c #A9D1E1",
"l$	c #688088",
"m$	c #080A0A",
"n$	c #617F8E",
"o$	c #080A0B",
"p$	c #98C3D3",
"q$	c #9EC9DB",
"r$	c #9DC9DB",
"s$	c #222C2F",
"t$	c #B0B0B0",
"u$	c #9E9E9E",
"v$	c #A4A4A4",
"w$	c #E0E0E0",
"x$	c #999999",
"y$	c #4F4F4F",
"z$	c #8AAAB8",
"A$	c #667E86",
"B$	c #070A0A",
"C$	c #080B0B",
"D$	c #5A7583",
"E$	c #121719",
"F$	c #9CC8DA",
"G$	c #9BC7DA",
"H$	c #9AC5D8",
"I$	c #282929",
"J$	c #E3E3E3",
"K$	c #868686",
"L$	c #FCFCFC",
"M$	c #FBFBFB",
"N$	c #AFAFAF",
"O$	c #949494",
"P$	c #E7E7E7",
"Q$	c #BCBCBC",
"R$	c #DFDFDF",
"S$	c #2A2E2F",
"T$	c #A2CADA",
"U$	c #A2C9D7",
"V$	c #657C85",
"W$	c #596F77",
"X$	c #2F3D42",
"Y$	c #040709",
"Z$	c #090C0D",
"`$	c #4B636E",
" %	c #29343A",
".%	c #9AC7D9",
"+%	c #9AC6D9",
"@%	c #99C6D9",
"#%	c #88B0C1",
"$%	c #454545",
"%%	c #797979",
"&%	c #848484",
"*%	c #898989",
"=%	c #A5A5A5",
"-%	c #384449",
";%	c #31464D",
">%	c #111416",
",%	c #74939C",
"'%	c #7C9EA8",
")%	c #4D6C74",
"!%	c #020506",
"~%	c #3D5059",
"{%	c #3E4F57",
"]%	c #7DA1B1",
"^%	c #70919F",
"/%	c #96C3D7",
"(%	c #7EA5B5",
"_%	c #4B4C4C",
":%	c #7C7C7C",
"<%	c #969696",
"[%	c #C3C3C3",
"}%	c #767676",
"|%	c #757575",
"1%	c #BFBFBF",
"2%	c #070D0E",
"3%	c #759DA8",
"4%	c #D6ECF2",
"5%	c #97CFDF",
"6%	c #7DC3D7",
"7%	c #3F7C8D",
"8%	c #020606",
"9%	c #181E21",
"0%	c #141414",
"a%	c #3F3F3F",
"b%	c #1A1C1C",
"c%	c #7397A7",
"d%	c #505151",
"e%	c #959595",
"f%	c #D1D1D1",
"g%	c #727272",
"h%	c #8D8D8D",
"i%	c #686868",
"j%	c #ADADAD",
"k%	c #E1E1E1",
"l%	c #111617",
"m%	c #96BECA",
"n%	c #B4DCE8",
"o%	c #1E97B9",
"p%	c #0089B0",
"q%	c #005168",
"r%	c #050506",
"s%	c #434343",
"t%	c #1D1D1E",
"u%	c #63828F",
"v%	c #545556",
"w%	c #B3B3B3",
"x%	c #646464",
"y%	c #8A8A8A",
"z%	c #484848",
"A%	c #828282",
"B%	c #0D1314",
"C%	c #97C1CC",
"D%	c #1291B6",
"E%	c #393939",
"F%	c #7F7F7F",
"G%	c #232526",
"H%	c #769CAD",
"I%	c #536D79",
"J%	c #656565",
"K%	c #8B8B8B",
"L%	c #6A6A6A",
"M%	c #5F5F5F",
"N%	c #0F1416",
"O%	c #8FB6C1",
"P%	c #B7DEE9",
"Q%	c #1492B6",
"R%	c #5A5A5A",
"S%	c #1F1F1F",
"T%	c #212323",
"U%	c #212121",
"V%	c #4D4D4D",
"W%	c #9A9A9A",
"X%	c #6B6B6B",
"Y%	c #808080",
"Z%	c #626262",
"`%	c #1B2224",
" &	c #6B929D",
".&	c #BCE0EA",
"+&	c #0E8FB4",
"@&	c #020608",
"#&	c #0B0B0B",
"$&	c #838383",
"%&	c #6F6F6F",
"&&	c #5C5C5C",
"*&	c #888888",
"=&	c #989898",
"-&	c #1C2224",
";&	c #50707A",
">&	c #CAE6EE",
",&	c #2198BA",
"'&	c #020708",
")&	c #1A1A1A",
"!&	c #666666",
"~&	c #2F2F2F",
"{&	c #737373",
"]&	c #777777",
"^&	c #B8B8B8",
"/&	c #8E8E8E",
"(&	c #6D6D6D",
"_&	c #2A3234",
":&	c #394F56",
"<&	c #D0E9F0",
"[&	c #39A3C2",
"}&	c #030303",
"|&	c #929292",
"1&	c #676767",
"2&	c #717171",
"3&	c #939393",
"4&	c #606060",
"5&	c #BABABA",
"6&	c #818181",
"7&	c #242C2E",
"8&	c #2A4D57",
"9&	c #56B1CB",
"0&	c #020709",
"a&	c #050606",
"b&	c #252525",
"c&	c #696969",
"d&	c #595959",
"e&	c #D3D3D3",
"f&	c #7E7E7E",
"g&	c #14181A",
"h&	c #33434A",
"i&	c #171718",
"j&	c #0B1214",
"k&	c #4E7985",
"l&	c #5DB4CD",
"m&	c #0A0F11",
"n&	c #4B6571",
"o&	c #2C3A40",
"p&	c #181A1B",
"q&	c #313131",
"r&	c #2C2C2C",
"s&	c #2B2B2B",
"t&	c #3A3A3A",
"u&	c #4C4C4C",
"v&	c #858585",
"w&	c #1E1E1E",
"x&	c #1C1D1D",
"y&	c #5E5E5E",
"z&	c #7D7D7D",
"A&	c #363637",
"B&	c #7AA0B1",
"C&	c #415D68",
"D&	c #041114",
"E&	c #6EA7B7",
"F&	c #D4EBF2",
"G&	c #53AFCA",
"H&	c #005269",
"I&	c #7BA7BA",
"J&	c #8ABBD1",
"K&	c #88B9D0",
"L&	c #78A5BA",
"M&	c #74A1B6",
"N&	c #7CACC3",
"O&	c #7CAEC5",
"P&	c #80B4CC",
"Q&	c #7EB2CA",
"R&	c #658CA0",
"S&	c #46626F",
"T&	c #2C3E47",
"U&	c #1C2326",
"V&	c #1E1F20",
"W&	c #253339",
"X&	c #78A3B7",
"Y&	c #7AA6BB",
"Z&	c #29373E",
"`&	c #383838",
" *	c #131F24",
".*	c #060B0C",
"+*	c #5A818C",
"@*	c #C4E3EC",
"#*	c #92CDDD",
"$*	c #2399BB",
"%*	c #050B0C",
"&*	c #12191B",
"**	c #12191C",
"=*	c #11191C",
"-*	c #11181C",
";*	c #121A1C",
">*	c #131A1D",
",*	c #616162",
"'*	c #111D21",
")*	c #303F43",
"!*	c #223237",
"~*	c #011419",
"{*	c #011318",
"]*	c #011319",
"^*	c #000C0F",
"/*	c #060A0B",
"(*	c #161616",
"_*	c #191919",
":*	c #181818",
"<*	c #1B1B1B",
"[*	c #060606",
"}*	c #090909",
"|*	c #151515",
"1*	c #272727",
"2*	c #323232",
"                                                                                              ",
"                                                                                              ",
"                                                                                              ",
"        . + @ # @ $ % & . * = - ;                                                             ",
"      > , ' ) ! ~ { ] ^ / ( _ : < [ } | 1 2 | 3 4 5 6 7 8 9 0 * a = b c d                     ",
"    e f g : : h i j k k l m n o p q r s t u v w x y z A B C D E F G H G I                     ",
"    a J m o p K K L M N O O P P Q R S T T U V V H H W X Y Z `  . ...+.@.#.8                   ",
"    b $.%.P P R S T T &.*.V H H W X =.Y Z  . ...+...@.@.-.;.>.,.'.).!.~.{.$                   ",
"    ].^.H H G W X Y Z  . .+...+.@.@.-.;./.>.,.).!.(.~._.:.:.<.[.}.|.1.1.2.b                   ",
"    3.4...+.@.@.5.-.;.!.6.7.8.9.0.a.b.c.d.e.f.g.h.i.j.k.l.m.n.o.p.q.r.s.t.u.                  ",
"    # v.).!.(.~.:.w.x.y.z.A.B.C.D.E.F.G.H.I.E.J.K.L.M.N.O.P.Q.R.S.T.U.V.W.X.Y.Z.`. +.+++@+#+  ",
"    7 $+}.%+1.&+*+=+-+;+>+>+>+>+>+>+>+>+>+>+>+>+>+>+>+>+>+>+>+>+>+>+>+>+>+>+>+>+,+'+)+!+~+{+  ",
"    e ]+^+/+/+(+_+:+<+<+<+[+}+}+}+}+|+|+|+1+1+2+3+3+4+4+5+6+6+6+7+7+7+8+9+9+9+0+0+a+>+b+c+    ",
"      d+e+f+g+h+i+j+j+j+k+l+m+m+n+o+p+q+r+s+t+u+u+u+u+t+v+w+x+y+y+y+y+z+z+z+A+A+B+B+B+C+D+    ",
"      E+F+G+H+I+J+J+J+K+L+M+N+O+P+Q+R+S+T+U+V+W+X+X+W+W+W+Y+Y+Y+Y+Z+Z+`+`+`+`+`+ @ @ @.@      ",
"      +@@@#@$@%@&@&@*@*@=@-@;@>@,@'@)@!@~@{@]@^@/@(@_@:@/@:@:@<@<@<@[@[@[@[@}@}@|@|@|@1@      ",
"      2@3@4@5@6@7@7@8@9@0@a@b@c@d@e@f@g@h@i@j@k@=@l@m@(@n@o@p@q@r@r@s@s@s@s@s@s@o@o@|@].      ",
"      t@u@v@w@x@x@y@z@A@B@C@D@E@F@G@H@I@h@J@K@L@M@N@O@P@Q@R@S@T@T@U@V@W@X@X@X@V@V@V@Y@Z@      ",
"      `@ #.#+#@#@###$#%#&#*#=#-#;#>#>#>#h@,#'#)#)#)#!#~#{#]#^#/#V@(#_#:#<#[#}#}#}#}#|#1#      ",
"      `@2#++3#4#4#5#6#7#8#9#0#>#>#>#>#a#b#c#d#e#f#f#g#g#g#d#h#i#j#k#(#V@:#:#l#m#n#n#5+o#      ",
"      p#q#r#s#t#u#u#v#w#x#y#>#>#>#z#A#B#C#D#D#D#E#F#e#G#G#d#d#H#I#J#K#K#(#V@:#L#l#}#M#N#      ",
"      O#P#Q#R#R#S#S#T#U#V#W#>#X#Y#Z#`#g#~# $.$D#D#D#+$d#~#~#F#F#@$#$$$x@K#k#(#V@:#l#%$&$      ",
"    *$=$-$;$>$,$'$)$!$~${$]$^$/$($D#D#_$:$~#<$[$D#D#D#}$F#|$|$`#`#1$2$3$@#x@K#k#V@:#4$5$      ",
"    y.6$7$8$)$9$0$a$b$D#c$d$e$D#D#D#D#D#D#E#|$f$g$D#D#D#)@h$h$:$:$:$i$j$k$@#x@x@K#(#l$m$      ",
"    0 n$o$p$q$r$r$s$t$D#u$L@u$N@v$[$w$D#D#D#_$h$x$D#D#D#D#K@:$:$:$:$+$y$z$4###@#x@K#A$B$      ",
"    C$D$E$F$F$G$H$I$J$D#h#K$f#L$L$M$N$O$J$D#D#P$Q$H#D#D#D#D#K@:$:$:$:$R$S$T$4#U$V$W$X$Y$      ",
"    Z$`$ %.%+%@%#%$%D#D#%%M$L$L$L$L$L$e#&%J$D#D#*%>@D#D#D#D#D#E#:$:$:$:$=%-%;%>%,%'%)%!%      ",
"    @ ~%{%]%^%/%(%_%D#D#:%L$L$L$L$L$L$L$G#<%D#[%}%|%K$1%D#D#D#D#P$}$:$:$f$2%3%4%5%6%7%8%      ",
"    Z@9%0%-@a%b%c%d%D#D#e%L$L$L$L$L$L$L$L$<$f%g%x$x$x$h%i%K$j%k%D#D#D#<$l%m%n%o%p%p%q%8%      ",
"    r%s%h#x$Q+t%u%v%D#D#w%k%L$L$L$L$L$L$L$G#x%h#x$x$x$x$i%x$y%z%A%}%R+B%C%n%D%p%p%p%q%8%      ",
"    E%x$x$F%G%H%I%O@D#D#($h#L$L$L$L$L$L$G#J%K%x$x$x$x$x$L%<%x$i%O$M%N%O%P%Q%p%p%p%p%q%8%      ",
"  *$R%x$x$i%S%T%U%V%k%D#D#W%g#L$L$L$L$[%X%h#x$x$Y%h#x$x$h#Z%x$e%J%`% &.&+&p%p%p%p%p%q%@&      ",
"  #&]#x$x$x$h#x$x$x$$&&%@$R$Q+M$L$($$&A%x$x$<%%&&&x$x$x$x$*&:%=&-&;&>&,&p%p%p%p%p%p%q%'&      ",
"  )&F%J%x$x$x$x$x$x$x$x$y%!&~&h%e%{&x$x$x$&%]&^&A%x$/&(&x$x$Z%_&:&<&[&p%p%p%p%p%p%p%q%'&      ",
"  }&]#|&1&x%*&x$x$x$y%2&!&;@x$O@3&x$=&J%4&5&R$g%x$x$X%y$6&h#7&8&<&9&p%p%p%p%p%p%p%p%q%0&      ",
"    a&b&c&h#R+J%L%J%;@|&x$x$x$L%c&Z%d&,@e&D#&%=&x$f&g&h&i&j&k&<&l&p%p%p%p%p%p%p%p%p%q%'&      ",
"    m&n&o&p&q&-@~&r&r&s&t&u&}%=&x$v&w&x&y&<$z&x$x$A&B&C&D&E&F&G&p%p%p%p%p%p%p%p%p%p%H&0&      ",
"    > I&J&K&L&M&N&O&P&Q&R&S&T&U&V&W&X&Y&Z&`&x$=&z& *.*+*@*#*$*p%p%p%p%p%p%p%p%p%p%p%H&%*      ",
"    = &*******=*=*-*-*-*=*=*********;*>*@ b&=&,*}&*$'*)*!*~*{*{*]*~*~*~*~*~*{*~*{*~*^*/*      ",
"        (*_*_*_*:*)&)&)&)&<*<*)&)&)&)&)&:*[*}*#&0%0%0%0%0%0%0%0%0%0%0%0%0%0%|*|*|*|*|*1*      ",
"              2*2*2*2*2*2*2*2*2*2*2*2*2*2*2*2*2*2*2*2*2*2*2*2*2*2*2*2*2*2*2*2*2*2*2*2*2*2*    ",
"                2*2*2*2*2*2*2*2*2*2*2*2*2*2*2*2*2*2*2*2*2*2*2*2*2*2*2*2*2*2*2*2*2*2*2*2*2*    ",
"                2*2*2*2*2*2*2*2*2*2*2*2*2*2*2*2*2*2*2*2*2*2*2*2*2*2*2*2*2*2*2*2*2*2*2*2*2*2*  ",
"                        2*2*2*2*2*2*2*2*2*2*2*2*2*2*2*2*2*                                    ",
"                                                                                              ",
"                                                                                              ",
"                                                                                              "};
