/* XPM */
static char * xarchiver_xpm[] = {
"48 48 376 2",
"  	c None",
". 	c #0D0C09",
"+ 	c #13110D",
"@ 	c #524B43",
"# 	c #201D18",
"$ 	c #47413A",
"% 	c #B7B4B0",
"& 	c #BCB9B5",
"* 	c #050300",
"= 	c #080705",
"- 	c #3B3630",
"; 	c #5A5249",
"> 	c #554E46",
", 	c #A09487",
"' 	c #27221B",
") 	c #7A7267",
"! 	c #FEFEFD",
"~ 	c #FDFDFD",
"{ 	c #908980",
"] 	c #635B51",
"^ 	c #524A40",
"/ 	c #363029",
"( 	c #4C4338",
"_ 	c #B2ADA8",
": 	c #A29F9B",
"< 	c #0C0B08",
"[ 	c #A1988C",
"} 	c #332C24",
"| 	c #A89E92",
"1 	c #FFFFFE",
"2 	c #FDFCFC",
"3 	c #767068",
"4 	c #221E18",
"5 	c #191510",
"6 	c #A8A39D",
"7 	c #D9D2CA",
"8 	c #3C3832",
"9 	c #62594E",
"0 	c #BBB6B0",
"a 	c #908D8A",
"b 	c #87817A",
"c 	c #040300",
"d 	c #635A51",
"e 	c #12100C",
"f 	c #87827D",
"g 	c #B8B5B1",
"h 	c #C2BCB5",
"i 	c #B2A89D",
"j 	c #0E0C08",
"k 	c #726B62",
"l 	c #DDD7D0",
"m 	c #80786F",
"n 	c #0C0B07",
"o 	c #5E5952",
"p 	c #9A958F",
"q 	c #A29E9A",
"r 	c #938B81",
"s 	c #1B1814",
"t 	c #A19B93",
"u 	c #E1DBD5",
"v 	c #958D83",
"w 	c #3C362F",
"x 	c #8F8981",
"y 	c #7A7671",
"z 	c #948D84",
"A 	c #221F1A",
"B 	c #BEB7AF",
"C 	c #EBE8E3",
"D 	c #ADA59B",
"E 	c #988F85",
"F 	c #030200",
"G 	c #23201B",
"H 	c #928D88",
"I 	c #625B53",
"J 	c #6F675D",
"K 	c #2D2923",
"L 	c #B9B3AB",
"M 	c #ECE8E4",
"N 	c #C5BFB8",
"O 	c #B0A497",
"P 	c #F8BB09",
"Q 	c #F6A900",
"R 	c #F39F00",
"S 	c #E38300",
"T 	c #BF5300",
"U 	c #581C00",
"V 	c #0F0C09",
"W 	c #B6B0A9",
"X 	c #564F47",
"Y 	c #040301",
"Z 	c #2E2822",
"` 	c #373027",
" .	c #342D24",
"..	c #2D2821",
"+.	c #29251F",
"@.	c #26231E",
"#.	c #1E1C18",
"$.	c #26231F",
"%.	c #817A72",
"&.	c #FDDB45",
"*.	c #FACF53",
"=.	c #E18501",
"-.	c #BC4800",
";.	c #861900",
">.	c #1F0400",
",.	c #1E1B17",
"'.	c #14110D",
").	c #4F473E",
"!.	c #90887E",
"~.	c #7F7366",
"{.	c #332D25",
"].	c #27211B",
"^.	c #7F6E5B",
"/.	c #907D68",
"(.	c #7C6C59",
"_.	c #66594A",
":.	c #5E5244",
"<.	c #4D4338",
"[.	c #3E362D",
"}.	c #373028",
"|.	c #EDEAE6",
"1.	c #C2BBB3",
"2.	c #F7A90D",
"3.	c #FDDF53",
"4.	c #F5C04D",
"5.	c #CB6000",
"6.	c #A21F00",
"7.	c #590500",
"8.	c #090000",
"9.	c #726D67",
"0.	c #52493E",
"a.	c #26211B",
"b.	c #E1DDD8",
"c.	c #FFFFFF",
"d.	c #D1CBC4",
"e.	c #463C32",
"f.	c #908373",
"g.	c #9B958E",
"h.	c #918C86",
"i.	c #98938D",
"j.	c #9C9892",
"k.	c #9E9891",
"l.	c #A09991",
"m.	c #9D948A",
"n.	c #BDB8B2",
"o.	c #C8C3BD",
"p.	c #F7B21B",
"q.	c #FEE25A",
"r.	c #EEAE3D",
"s.	c #921100",
"t.	c #340200",
"u.	c #77726C",
"v.	c #51483D",
"w.	c #2A251E",
"x.	c #E0DBD5",
"y.	c #CFC8C0",
"z.	c #61574B",
"A.	c #F7B519",
"B.	c #FEE261",
"C.	c #E29226",
"D.	c #AD3000",
"E.	c #770900",
"F.	c #170100",
"G.	c #6B6761",
"H.	c #655D52",
"I.	c #645C52",
"J.	c #E3DED8",
"K.	c #E6E2DE",
"L.	c #CCC5BE",
"M.	c #D48B2D",
"N.	c #FDCF44",
"O.	c #FFC717",
"P.	c #FFBB00",
"Q.	c #FFBA00",
"R.	c #F6A600",
"S.	c #AF4900",
"T.	c #F7B214",
"U.	c #FCDD65",
"V.	c #D27314",
"W.	c #9E1B00",
"X.	c #4C0300",
"Y.	c #050000",
"Z.	c #17130F",
"`.	c #36312A",
" +	c #8E8A86",
".+	c #C86100",
"++	c #EB9400",
"@+	c #F4A200",
"#+	c #ED9700",
"$+	c #DA7700",
"%+	c #A84200",
"&+	c #FAC023",
"*+	c #F8D35B",
"=+	c #C55A09",
"-+	c #8A0F00",
";+	c #280100",
">+	c #3A3631",
",+	c #D0CCC6",
"'+	c #EBE8E4",
")+	c #B5ADA3",
"!+	c #C55B00",
"~+	c #E48800",
"{+	c #ED9600",
"]+	c #ED9500",
"^+	c #E99000",
"/+	c #DD7B00",
"(+	c #CD6D00",
"_+	c #FBCC31",
":+	c #EEB747",
"<+	c #B53D01",
"[+	c #6E0800",
"}+	c #120000",
"|+	c #17140F",
"1+	c #4E473F",
"2+	c #B7B3AF",
"3+	c #46413A",
"4+	c #C96000",
"5+	c #E68B00",
"6+	c #F8AB00",
"7+	c #E4900E",
"8+	c #A62700",
"9+	c #4C0400",
"0+	c #312E2A",
"a+	c #A29E99",
"b+	c #CAC5C0",
"c+	c #CDC6BF",
"d+	c #CC6400",
"e+	c #EB9300",
"f+	c #CB5F00",
"g+	c #651600",
"h+	c #28241F",
"i+	c #7B736A",
"j+	c #D8D2CA",
"k+	c #51493F",
"l+	c #D87400",
"m+	c #F29E00",
"n+	c #EE9700",
"o+	c #EC9400",
"p+	c #D16A00",
"q+	c #201C18",
"r+	c #726E69",
"s+	c #A39E99",
"t+	c #A9A49E",
"u+	c #EAA315",
"v+	c #F8B009",
"w+	c #E88E00",
"x+	c #E78C00",
"y+	c #A19990",
"z+	c #72685D",
"A+	c #FAC42A",
"B+	c #F4C655",
"C+	c #C45602",
"D+	c #CC6100",
"E+	c #EA9200",
"F+	c #E68C00",
"G+	c #CF6600",
"H+	c #0C0906",
"I+	c #46413B",
"J+	c #8D877F",
"K+	c #827D77",
"L+	c #FBD141",
"M+	c #E5A037",
"N+	c #AB2E00",
"O+	c #590800",
"P+	c #732A00",
"Q+	c #E38600",
"R+	c #EC9500",
"S+	c #E58A00",
"T+	c #CC6300",
"U+	c #514C45",
"V+	c #BDB5AC",
"W+	c #8E857A",
"X+	c #FBCE69",
"Y+	c #FAD356",
"Z+	c #D3761A",
"`+	c #921700",
" @	c #310200",
".@	c #C75C00",
"+@	c #E38700",
"@@	c #CA6100",
"#@	c #25211C",
"$@	c #1F1B16",
"%@	c #9B938A",
"&@	c #726C66",
"*@	c #5D5142",
"=@	c #EDAB4A",
"-@	c #DC8620",
";@	c #BE4B01",
">@	c #881400",
",@	c #140100",
"'@	c #D46E00",
")@	c #D06900",
"!@	c #0A0907",
"~@	c #8B837A",
"{@	c #564D43",
"]@	c #F7F6F4",
"^@	c #B8B0A6",
"/@	c #3A3025",
"(@	c #250A00",
"_@	c #210500",
":@	c #200400",
"<@	c #130200",
"[@	c #DF7F00",
"}@	c #E78E00",
"|@	c #D36D00",
"1@	c #0B0A08",
"2@	c #8E867D",
"3@	c #3A3229",
"4@	c #83786B",
"5@	c #FBFBFA",
"6@	c #B5ACA1",
"7@	c #514639",
"8@	c #615343",
"9@	c #231D16",
"0@	c #221E17",
"a@	c #231E18",
"b@	c #26201A",
"c@	c #28221C",
"d@	c #2B241D",
"e@	c #2F271D",
"f@	c #BF5200",
"g@	c #D57000",
"h@	c #A23B00",
"i@	c #837E78",
"j@	c #90887F",
"k@	c #A09990",
"l@	c #C3C2C0",
"m@	c #C2C0BE",
"n@	c #948E86",
"o@	c #584D3F",
"p@	c #A39381",
"q@	c #7E6F5D",
"r@	c #635647",
"s@	c #483F33",
"t@	c #4C4236",
"u@	c #2B261E",
"v@	c #3D3730",
"w@	c #D2CFCC",
"x@	c #CD6400",
"y@	c #EA9100",
"z@	c #E98F00",
"A@	c #D97600",
"B@	c #AB4200",
"C@	c #484138",
"D@	c #C7BFB5",
"E@	c #BFB4A8",
"F@	c #BAAFA2",
"G@	c #ADA295",
"H@	c #B6AA9D",
"I@	c #AFA496",
"J@	c #A2988B",
"K@	c #C8C1BA",
"L@	c #EBE8E5",
"M@	c #DB7800",
"N@	c #B04700",
"O@	c #E18300",
"P@	c #DD7C00",
"Q@	c #B54B00",
"R@	c #C45900",
"S@	c #E58900",
"T@	c #E28500",
"U@	c #E18400",
"V@	c #DB7A00",
"W@	c #B94E00",
"X@	c #CB5C00",
"Y@	c #B94300",
"Z@	c #B43B00",
"`@	c #B53B00",
" #	c #B84200",
".#	c #C14E00",
"+#	c #B34000",
"@#	c #2F0700",
"##	c #2E0600",
"$#	c #2F0800",
"%#	c #330D00",
"&#	c #2B0F00",
"                                                                                                ",
"                                                                                                ",
"                                                                                                ",
"                                                                                                ",
"                                                                                                ",
"                                                                                                ",
"                                                                                                ",
"          . + . @ # $ % &       *                                                               ",
"        = - ; > , ' ) ! ~ { ] ^ / (                                                             ",
"        = _ : < [ } | 1 2 3 4 5 6 7                                                             ",
"                8 9 0 a b     c d                                                               ",
"                e f g h i                                                                       ",
"                j k l m                                                                         ",
"                n o p q r                                                                       ",
"                s t u v                                                                         ",
"                j w x y z                                                                       ",
"                A B C D E                                                                       ",
"                F G H I J                                                                       ",
"                K L M N O                                               P Q R S T U             ",
"                V } W X   Y Z `  ...+.@.#.$.%.                        &.*.=.-.;.>.              ",
"              ,.'.).!.~.{.].^./.(._.:.<.[.}.|.1.                  2.3.4.5.6.7.8.                ",
"              9.0.a.b.c.d.e.f.g.h.i.j.k.l.m.n.o.                p.q.r.-.s.t.                    ",
"              u.v.w.x.c.y.z.                                  A.B.C.D.E.F.                      ",
"              G.H.I.J.K.L.        M.N.O.P.P.P.Q.R.S.        T.U.V.W.X.Y.                        ",
"                Z.`. +>             .+++@+@+@+@+#+$+%+    &+*+=+-+;+                            ",
"                >+,+'+)+              !+~+{+{+{+]+^+/+(+_+:+<+[+}+                              ",
"                |+1+2+3+                4+5+]+]+]+]+#+6+7+8+9+Y.                                ",
"                0+a+b+c+                  d+5+]+]+]+{+e+f+g+                                    ",
"                h+i+j+k+                    l+m+n+]+]+o+~+p+                                    ",
"                q+r+s+t+                    u+v+w+o+]+]+]+x+p+                                  ",
"                >+y+|.z+                  A+B+C+D+E+{+]+]+]+F+G+                                ",
"                H+I+J+K+                L+M+N+O+P+Q+#+{+]+]+R+S+T+                              ",
"                U+V+C W+            X+Y+Z+`+ @    .@^+#+]+]+]+o++@@@                            ",
"              #@$@{.%@&@*@        =@-@;@>@,@        '@++#+]+]+]+o+5+)@                          ",
"            !@~@{.{@]@c.^@/@      (@_@:@<@            [@{+{+]+]+]+{+}@|@                        ",
"            1@2@3@4@5@c.6@7@8@9@0@a@b@c@d@e@          f@5+#+{+]+]+]+]+w+g@h@                    ",
"              i@j@k@l@m@n@o@p@q@r@s@t@t@u@v@w@N         x@y@#+]+]+]+]+]+z@A@B@                  ",
"                          C@D@E@F@G@H@I@J@K@L@            l+R+#+]+]+]+]+{+E+M@N@                ",
"                                                            O@#+{+]+]+]+]+]+y@P@Q@              ",
"                                                            R@x+S@T@T@T@T@T@T@U@V@W@            ",
"                                                              X@Y@Z@Z@Z@Z@Z@Z@`@ #.#+#          ",
"                                                                @#################$#%#&#        ",
"                                                                                                ",
"                                                                                                ",
"                                                                                                ",
"                                                                                                ",
"                                                                                                ",
"                                                                                                "};
