/* XPM */
static char *armagetronad_xpm[] = {
/* width height ncolors chars_per_pixel */
"48 48 810 2",
/* colors */
"   c black",
" . c #82622D",
" X c #FFC55F",
" o c #0A0F17",
" O c #39250D",
" + c #191008",
" @ c #38250C",
" # c #533716",
" $ c #130F0C",
" % c #38210C",
" & c #BD7D3C",
" * c #FFFF79",
" = c #FFDC6C",
" - c #6B563E",
" ; c #FFC255",
" : c #A06930",
" > c #F19F4E",
" , c #080A0B",
" < c #FFBC55",
" 1 c #120A01",
" 2 c #C4A067",
" 3 c #110800",
" 4 c #5F441B",
" 5 c #2B2B2A",
" 6 c #2B1A09",
" 7 c #2A1A08",
" 8 c #C3752E",
" 9 c #8B5318",
" 0 c #090702",
" q c #95642F",
" w c #FFD362",
" e c #282727",
" r c #432810",
" t c #FFFF90",
" y c azure",
" u c #FFE379",
" i c #7E5415",
" p c #252524",
" a c #FFAD4B",
" s c #000D24",
" d c #9B5E21",
" f c #FCA652",
" g c #3E260B",
" h c #FFC362",
" j c #52595A",
" k c #515759",
" l c #313333",
" z c #1B1103",
" x c #F69035",
" c c #A66E2F",
" v c #FFF686",
" b c #1F1F1E",
" n c #34210B",
" m c #130E05",
" M c #FFD86F",
" N c #FFBE58",
" B c #FFBC58",
" V c #FFD46F",
" C c #5B4524",
" Z c #FFB858",
" A c #1B1B1A",
" S c #FFFC72",
" D c #494D51",
" F c #6E3F0F",
" G c #281809",
" H c #4D4C4B",
" J c #B47536",
" K c #FFCF65",
" L c #271808",
" P c #412A11",
" I c #FFE57C",
" U c #151514",
" Y c #050301",
" T c #7B4F1F",
" R c #331000",
" E c #09131C",
" W c #0F1218",
" Q c #FFB644",
" ! c #7F4E19",
" ~ c #FFE672",
" ^ c #221403",
" / c #1C2228",
" ( c #372311",
" ) c #FFAE44",
" _ c #DD9447",
" ` c #BED7DE",
" ' c #110F10",
" ] c #977637",
" [ c #1B1106",
" { c #654A27",
" } c #3B240B",
" | c #100F0F",
".  c #6B7886",
".. c #71481F",
".X c #0F0F0E",
".o c #1F1F21",
".O c #C07E3B",
".+ c #FADE6D",
".@ c #4B3514",
".# c #FCC058",
".$ c #FFD272",
".% c #301F0A",
".& c #1B1B1D",
".* c #584724",
".= c #FFB65B",
".- c #704314",
".; c #141A20",
".: c #2E1D08",
".> c #080707",
"., c #0E0603",
".< c #171719",
".1 c #FFCF68",
".2 c #050504",
".3 c #65562A",
".4 c #030302",
".5 c #1D170B",
".6 c #FFAD51",
".7 c #FFF16B",
".8 c #FFE675",
".9 c #010100",
".0 c #FFBF68",
".q c #A76E36",
".w c #1A1108",
".e c #FFFF82",
".r c #39220C",
".t c #D77E2D",
".y c #180F06",
".u c #B4642F",
".i c #F5A251",
".p c #7B8B92",
".a c #3C4147",
".s c #FFFE78",
".d c #292F31",
".f c #4F3211",
".g c #2E1D0B",
".h c #4E3010",
".j c #2D1D0A",
".k c #2E1B0B",
".l c #2D1B0A",
".z c #02060E",
".x c #472D13",
".c c #A78039",
".v c #6B4112",
".b c #1A1815",
".n c #2A1907",
".m c #975F30",
".M c #794F23",
".N c #FFD757",
".B c #010303",
".V c #221409",
".C c #000102",
".Z c #5A5957",
".A c #FFFF85",
".S c #9C7338",
".D c #473820",
".F c #FFBE61",
".G c #B96E23",
".H c #F4A253",
".J c #36220C",
".K c #35200B",
".L c #59656D",
".P c #E1903D",
".I c #FFD96E",
".U c #34200A",
".Y c #3A1F06",
".T c #FFD76E",
".R c #F19E50",
".E c #7B6649",
".W c #825425",
".Q c #4B5052",
".! c #613F1F",
".~ c #1B1819",
".^ c #2A1B0A",
"./ c #181816",
".( c #895218",
".) c #181616",
"._ c #FFAD57",
".` c #281708",
".' c #FFCE64",
".] c #020307",
".[ c #271707",
".{ c #FFA957",
".} c #EDB359",
".| c #262627",
"X  c #FDA955",
"X. c #FFC864",
"XX c #553A1D",
"Xo c #8D948C",
"XO c #151213",
"X+ c #241504",
"X@ c #FFC664",
"X# c #242425",
"X$ c #A55F19",
"X% c #6D7987",
"X& c #1C1206",
"X* c #1B1205",
"X= c #C49E4B",
"X- c #F8A350",
"X; c #1F2020",
"X: c #0F0E0D",
"X> c #3A2109",
"X, c #FFC850",
"X< c #5D646A",
"X1 c #32200B",
"X2 c #C87638",
"X3 c #170C01",
"X4 c #3B4242",
"X5 c #515151",
"X6 c #1B1C1C",
"X7 c #100B04",
"X8 c #0A0A08",
"X9 c #D78D40",
"X0 c #2A2C2E",
"Xq c #65421C",
"Xw c #0F0903",
"Xe c #FFB850",
"Xr c #90692F",
"Xt c #060604",
"Xy c #0D0301",
"Xu c #261709",
"Xi c #050403",
"Xp c #251708",
"Xa c #96622B",
"Xs c #040402",
"Xd c #251508",
"Xf c #33383A",
"Xg c #494949",
"Xh c #030201",
"Xj c #FFFF8B",
"Xk c #020000",
"Xl c #FFE86A",
"Xz c #1F1102",
"Xx c #FFCC53",
"Xc c #BCD6DE",
"Xv c #FFD974",
"Xb c #434343",
"Xn c #33200F",
"Xm c #FFD774",
"XM c #415462",
"XN c #32200E",
"XB c #ECA451",
"XV c #513312",
"XC c #1A1C1E",
"XZ c #4A3015",
"XA c #2E1E0A",
"XS c #FFD66A",
"XD c #2E1C0A",
"XF c #FFD46A",
"XG c #080809",
"XH c #FFF577",
"XJ c #FFD26A",
"XK c #070808",
"XL c #472E12",
"XP c #10171E",
"XI c #BC782F",
"XU c #0A1622",
"XY c #130000",
"XT c #6C5429",
"XR c #FFC86A",
"XE c #636C76",
"XW c #FFF06D",
"XQ c #FFC46A",
"X! c #121416",
"X~ c #FFCD60",
"X^ c #995F27",
"X/ c #D88730",
"X( c #F5AF53",
"X) c #202427",
"X_ c #101214",
"X` c #000001",
"X' c #FFC760",
"X] c #353535",
"X[ c #5A3A14",
"X{ c #3A250F",
"X} c #CF7D3B",
"X| c #FFDD77",
"o  c #8F5C27",
"o. c #1E2025",
"oX c #C28438",
"oo c #523516",
"oO c #6D4720",
"o+ c #FFBD60",
"o@ c #313131",
"o# c #FFE763",
"o$ c #34414B",
"o% c #B0863A",
"o& c #2F2F2F",
"o* c #140C04",
"o= c #000618",
"o- c #4E3112",
"o; c #FD9D47",
"o: c #2D2D2D",
"o> c #69411C",
"o, c #2D1C0C",
"o< c #FFF57A",
"o1 c #FFDB63",
"o2 c #211A14",
"o3 c #1B1918",
"o4 c #040808",
"o5 c #2F1B04",
"o6 c gray16",
"o7 c #5F3E1C",
"o8 c #191716",
"o9 c #484B4E",
"o0 c #22170B",
"oq c #272727",
"ow c #171514",
"oe c #271606",
"or c #FFE57A",
"ot c #261605",
"oy c #432411",
"ou c #A8601B",
"oi c #7C4D1E",
"op c #AC7236",
"oa c #252525",
"os c #101217",
"od c #000004",
"of c #764C22",
"og c #1F1508",
"oh c #FFC763",
"oj c #FFE870",
"ok c #5F3912",
"ol c #333536",
"oz c #232323",
"ox c #FFCC59",
"oc c #1D1306",
"ov c #FFFC87",
"ob c #8E5C29",
"on c gray13",
"om c #8C5C27",
"oM c #FFC659",
"oN c #975C1E",
"oB c #FFDE70",
"oV c #FFFF7D",
"oC c #100D0D",
"oZ c gray12",
"oA c #34210C",
"oS c #351F0D",
"oD c #1E1F1E",
"oF c #33210B",
"oG c #FFD870",
"oH c #9F6933",
"oJ c #1D1D1D",
"oK c #FFA242",
"oL c #C47933",
"oP c #1B1B1B",
"oI c #FFA738",
"oU c #2F2C28",
"oY c #65411B",
"oT c #F89B45",
"oR c #191919",
"oE c #E28636",
"oW c #28180A",
"oQ c gray9",
"o! c #FFCF66",
"o~ c #271809",
"o^ c #98632C",
"o/ c #261808",
"o( c #AF7932",
"o) c #FFCB66",
"o_ c #151515",
"o` c #91602F",
"o' c #FFC966",
"o] c #FFAF4F",
"o[ c #000007",
"o{ c #593A19",
"o} c #131313",
"o| c #222525",
"O  c #C0995D",
"O. c #111111",
"OX c #5C3712",
"Oo c #D2AA68",
"OO c #FFFF80",
"O+ c gray6",
"O@ c #AE6C27",
"O# c #1B1D1E",
"O$ c #0B0B0B",
"O% c #785A2A",
"O& c #090909",
"O* c #2E1D09",
"O= c #E68D33",
"O- c #070707",
"O; c #E8B763",
"O: c #FFF276",
"O> c #17171A",
"O, c #7D5125",
"O< c #E0A04E",
"O1 c #FE9D3A",
"O2 c gray2",
"O3 c #E79B4B",
"O4 c #FFBA48",
"O5 c #4C280C",
"O6 c #241809",
"O7 c #00000A",
"O8 c #E29F46",
"O9 c gray1",
"O0 c #0A0000",
"Oq c #2F1400",
"Ow c #5D3B16",
"Oe c #784D20",
"Or c #0D213B",
"Ot c #FFB248",
"Oy c #010101",
"Ou c #000100",
"Oi c #E4BC80",
"Op c #7C4C1A",
"Oa c #E3B454",
"Os c #342312",
"Od c #AA6F30",
"Of c #D99247",
"Og c #FFBE5F",
"Oh c #1C1F22",
"Oj c #7A5C2F",
"Ok c #1B1F21",
"Ol c #D79245",
"Oz c #82572D",
"Ox c #FFBA5F",
"Oc c #7B5630",
"Ov c #2D1D0B",
"Ob c #FFF679",
"On c #2D2C2C",
"Om c #745A29",
"OM c #724410",
"ON c #EC8832",
"OB c #2C1B0A",
"OV c #2B1B09",
"OC c #CB8943",
"OZ c #191615",
"OA c #94612E",
"OS c #282627",
"OD c #C88740",
"OF c #1C150E",
"OG c #262625",
"OH c #070000",
"OJ c #261504",
"OK c #41270E",
"OL c #754F20",
"OP c #251503",
"OI c #1F1407",
"OU c #3A2611",
"OY c #6C5021",
"OT c #FFE76F",
"OR c #FFC462",
"OE c #FFFF86",
"OW c #232222",
"OQ c #C4813C",
"O! c #222221",
"O~ c #A9B6AC",
"O^ c #EF9438",
"O/ c #D9924A",
"O( c #727880",
"O) c #37220E",
"O_ c #FFDD6F",
"O` c #0A0D10",
"O' c #1F1E1E",
"O] c #34200B",
"O[ c #545352",
"O{ c #BF7D37",
"O} c #EFA24F",
"O| c #0E0A0A",
"+  c #FFB958",
"+. c #1C1A1B",
"+X c #FFDA65",
"+o c #2B1D0C",
"+O c #DA8941",
"++ c #3B3E40",
"+@ c #614120",
"+# c #D28C43",
"+$ c #FFBE4E",
"+% c #1A1A19",
"+& c #FFFF9D",
"+* c #FFB358",
"+= c #443E35",
"+- c #FFB158",
"+; c #191818",
"+: c #FFC96F",
"+> c #575E62",
"+, c #FEAD57",
"+< c #271708",
"+1 c #784D26",
"+2 c #FFE27C",
"+3 c #242626",
"+4 c #905F2D",
"+5 c #241505",
"+6 c #FFC665",
"+7 c #FFCF5B",
"+8 c #242426",
"+9 c #E0974A",
"+0 c #C88839",
"+q c #222424",
"+w c #515A5C",
"+e c #B98A3E",
"+r c #4F565A",
"+t c #2F3234",
"+y c #FFBF5B",
"+u c #311E0B",
"+i c #825429",
"+p c #6B4319",
"+a c #FFF07F",
"+s c #150800",
"+d c #2F1C09",
"+f c #12191E",
"+g c #AF8034",
"+h c #28190C",
"+j c #96A8B0",
"+k c #FFED75",
"+l c #454A50",
"+z c #26150A",
"+x c #402913",
"+c c #7B4E22",
"+v c #241708",
"+b c #5A3B1C",
"+n c #030402",
"+m c #FFFF8C",
"+M c #221506",
"+N c #2F2916",
"+B c #010000",
"+V c #41260A",
"+C c #3B230E",
"+Z c #744A1B",
"+A c #45391B",
"+S c #FFE06B",
"+D c #170E05",
"+F c #424143",
"+G c #57340F",
"+H c #BD7D3B",
"+J c #6A451B",
"+K c #2F1E0C",
"+L c #080A0A",
"+P c #FFD46B",
"+I c #D48D41",
"+U c #738394",
"+Y c #2D1C0A",
"+T c #61605E",
"+R c #FFF178",
"+E c #61401C",
"+W c #00050C",
"+Q c #555E66",
"+! c #5E4219",
"+~ c #E28A31",
"+^ c #5A6E82",
"+/ c #CC8843",
"+( c #7B5025",
"+) c #040406",
"+_ c #FFC86B",
"+` c #887356",
"+' c #5E3C19",
"+] c #080100",
"+[ c #42280E",
"+{ c #261603",
"+} c #D5A345",
"+| c #000002",
"@  c #201307",
"@. c #CA8737",
"@X c #FFDF78",
"@o c #E19447",
"@O c #1E1105",
"@+ c #F4C16A",
"@@ c #39230F",
"@# c #3E240A",
"@$ c #FFC161",
"@% c #FFBF61",
"@& c #36230C",
"@* c #FFDE6E",
"@= c #201F1E",
"@- c #35210B",
"@; c #C67F33",
"@: c #FFFD7B",
"@> c #EABC6A",
"@, c #FFA640",
"@< c #4E5355",
"@1 c #341F0A",
"@2 c #190B00",
"@3 c #331F09",
"@4 c #FFD66E",
"@5 c #53320E",
"@6 c #67563C",
"@7 c #130A04",
"@8 c #1C1B1A",
"@9 c #0B0906",
"@0 c #D47823",
"@q c #4A4F51",
"@w c #2A1A0A",
"@e c #99632B",
"@r c #D8A54B",
"@t c #FFCF64",
"@y c #FFF071",
"@u c #060501",
"@i c #171515",
"@p c #271607",
"@a c #826832",
"@s c #000205",
"@d c #764C23",
"@f c #3F280E",
"@g c #495767",
"@h c #8A5D30",
"@j c #FFE671",
"@k c #FFE471",
"@l c #121110",
"@z c #734A20",
"@x c #1B1105",
"@c c #100F0E",
"@v c #FFFF7E",
"@b c #1A0F04",
"@n c #0F0D0D",
"@m c #0D0D0B",
"@M c #6E461B",
"@N c #84572A",
"@B c #1D1D1E",
"@V c #6D441A",
"@C c #311F0A",
"@Z c #57422C",
"@A c #FFF57E",
"@S c #110A05",
"@D c #825528",
"@F c #2B1E0E",
"@G c #2B2D2F",
"@H c #D28D45",
"@J c #A66927",
"@K c #DF893E",
"@L c #0F0A03",
"@P c #B47D38",
"@I c #B57939",
"@U c #FFED7E",
"@Y c #FFB05A",
"@T c #845220",
"@R c #FFCF67",
"@E c #0C0600",
"@W c #FFAF50",
"@Q c #040302",
"@! c #000008",
"@~ c #241607",
"@^ c #3F2811",
"@/ c #5F3B16",
"@( c #4E4944",
"@) c #794D1F",
"@_ c #222526",
"@` c #7D4C19",
"@' c #FFEB6A",
"@] c #50371B",
"@[ c #1F2323",
"@{ c #C2803F",
"@} c #8B5C2A",
"@| c #FFFF81",
"#  c #444444",
"#. c #D4934A",
"#X c #0D0F0E",
"#o c #0E0D0F",
"#O c #FFBC5D",
"#+ c #F8A349",
"#@ c #4B3116",
"## c #FFE060",
"#$ c #3E3E3E",
"#% c #FFD36A",
"#& c #070908",
"#* c #B06520",
"#= c #FFD16A",
"#- c #0C0603",
"#; c #261A0C",
"#: c #FCFFFF",
"#> c #050506",
"#, c #1F2830",
"#< c #F39944",
"#1 c #3A3A3A",
"#2 c #00000B",
"#3 c #1D262E",
"#4 c gray22",
"#5 c #7C4E1B",
"#6 c #FFCF56",
"#7 c #C6833C",
"#8 c #0E1112",
"#9 c #FFFF84",
"#0 c #FFDC77",
"#q c #6E4A21",
"#w c #323232",
"#e c #37220C",
"#r c #35220A",
"#t c #B3D2E2",
"#y c #D09149",
"#u c #FFF384",
"#i c #656364",
"#p c #130D03",
"#a c #6F4518",
"#s c gray18",
"#d c #897138",
"#f c #282D32",
"#g c #120B02",
"#h c #FFD36D",
"#j c #728495",
"#k c #B8944F",
"#l c #6D7279",
"#z c #A26729",
"#x c #FFCF6D",
"#c c #C7A461",
"#v c #5A4221",
"#b c #2A2A2A",
"#n c #1A1817",
"#m c #343B41",
"#M c #FFD263",
"#N c #282828",
"#B c #080402",
"#V c #7E5020",
"#C c #474C4D",
"#Z c #6D3E0C",
"#A c gray15",
"#S c #FFCA63",
"#D c #151412",
"#F c #FFC863",
"#G c #5B3918",
"#H c gray14",
"#J c #FFC463",
"#K c #FFFF87",
"#L c #1E1207",
"#P c #945E25",
"#I c #CA8239",
"#U c #FFE370",
"#Y c #222222",
"#T c #616A6D",
"#R c #62686E",
"#E c #202020",
"#W c #1F201F",
"#Q c #35200D",
"#! c #FFC159",
"#~ c #4E3415",
"#^ c #1E1E1E",
"#/ c #33200B",
"#( c #535352",
"#) c #FFDE66",
"#_ c gray11",
"#` c #413F3D",
"#' c #FFFD73",
"#] c #FFFB73",
"#[ c #2A2C2D",
"#{ c gray10",
"#} c #0F0902",
"#| c #2F2B28",
"$  c #64401A",
"$. c #B47637",
"$X c #271909",
"$o c #BC7A2B",
"$O c #261908",
"$+ c #161616",
"$@ c #261708",
"$# c #050402",
"$$ c #FFCA66",
"$% c #90612E",
"$& c gray8",
"$* c #040201",
"$= c #FFFF8A",
"$- c #A97136",
"$; c gray7",
"$: c #F7933A",
"$> c #41484A",
"$, c #474746",
"$< c #111011",
"$1 c #FFC75C",
"$2 c #101010",
"$3 c #C48636",
"$4 c #965D20",
"$5 c #7E8C93",
"$6 c #32260D",
"$7 c #1E2021",
"$8 c #0E0E0E",
"$9 c #33200E",
"$0 c #0D0C0D",
"$q c #FFBD5C",
"$w c #FFD573",
"$e c #0C0C0C",
"$r c #885726",
"$t c #92591C",
"$y c #FFB95C",
"$u c #4B3215",
"$i c #FFB75C",
"$p c gray4",
"$a c #2F1E0A",
"$s c #FFE15F",
"$d c #FFB55C",
"$f c #65421E",
"$g c #2E1E09",
"$h c #DEAB4C",
"$j c #846643",
"$k c #181A1B",
"$l c gray3",
"$z c #694118",
"$x c #ABCCE0",
"$c c #686159",
"$v c #566065",
"$b c #060606",
"$n c #26190B",
"$m c #DE8735",
"$M c #FFF66C",
"$N c #494D4B",
"$B c #9B6328",
"$V c #65572B",
"$C c #141617",
"$Z c #040404",
"$A c #653D14",
"$S c #FFF46C",
"$D c #C07528",
"$F c #232629",
"$G c #131416",
"$H c #383737",
"$J c #833600",
"$K c #020202",
"$L c #B3732F",
"$P c #784C20",
"$I c #000200",
"$U c #FFC95F",
"$Y c #7D4B1B",
"$T c None",
/* pixels */
"$T$T$T$T$T$T$T$T$T$T$T$T$T$T$T$T$T$T$T$T$T$T$T$T$T$T$T$T$T$T$T$T$T$T$T$T$T$T$T$T$T$T$T$T$T$T$T$T",
"$T$T$T$T$T$T$T$T$T$T$T$T$T$T$T$T$T$T$T$T$T$T$T$T$T$T$T$T$T$T$T$T$T$T$T$T$T$T$T$T$T$T$T$T$T$T$T$T",
"$T$T$T$T$T$T$T$T$T$T$T$T$T$T$T$T$T$T$T$T$T$T$T$T$T$T$T$T$T$T$T$T$T$T$T$T$T$T$T$T$T$T$T$T$T$T$T$T",
"$T$T$T$T$T$T$T$T$T$T$T$T$T$T$T$T$T$T$T$T$T$T$T$T$T$T$T$T$T$T$T$T$T$T$T$T$T$T$T$T$T$T$T$T$T$T$T$T",
"$T$T$T$T$T$T$T$T$T$T$T$T$T$T$T$T$T$T$T$T$T$T$T$T$T$T$T$T$T.].5#vO% . ]XT+A+N$T$T$T$T$T$T$T$T$T$T",
"$T$T$T$T$T$T$T$T$T$T$T$T$T$T$T$T$T$T$T$T$T$T$T$T$TO&.9+B#&+|        @PoX@.+0o(XrOm$6$T$T$T$T$T$T",
"$T$T$T$T$T$T$T$T$T$T$T$T$T$T$T$T$T$T$T$T$T$T$T$b  XhXGX`    +!$3+$X,Ot@,O1O^O=+~X/$o iO~#:$5$T$T",
"$T$T$T$T$T$T$T$T$T$T$T$T$T$T$T$T$T$T$T$T$TO-    #Xod  #p+g##o#+7 a.PXI$B@T+Z@V#aOp d.G$JXo$x$T$T",
"$T$T$T$T$T$T$T$T$T$T$T$T$T$T$T$T$T$T$TO&     |O7   3+}$M@' <oToL$4.-@5 gX1+uXD.j.l$g+C#ZoN$v$T$T",
"$T$T$T$T$T$T$T$T$T$T$T$T$T$T$T$T$T$;    Xi#8    o% SXW+yo; 8.(+GOso2 W@F@#.J %#e#r+u.:o~ R@q {$T",
"$T$T$T$T$T$T$T$T$T$T$T$T$T$T$T$TO&    X:+W  .@$S *@t.6.t 9@]#|#,#3 /.;$C+V.r@&oS.K n#QOq 1#t y$T",
"$T$T$T$T$T$T$T$T$T$T$T$T$T$ToR      ./    $hOO#U$q$:ou@Z.ao$#m l 5O!@8 o#; }#/@3$aXA@1XY.LXc.p$T",
"$T$T$T$T$T$T$T$T$T$T$T$T$T$;    .2X!  .[XloV+Po]@0Oc+r@g.Q+F$HOnoa#_@iO` $X>.%Ov+dO*o5OF#f.|+B+s",
"$T$T$T$T$T$T$T$T$T$T$T$T$8    X8os   4@|Obo)oK#*$c+^X<O[$,#1o&#H#^$+$2+LXK#/.k 6@w.n.`o.#W@Q  @b",
"$T$T$T$T$T$T$T$T$T$T$T$l    @m.z  +e.A@ko' xX^X%. #i#(# #4o:#YoPo}O+O$+)@s@COV.` L+{.b$F#o     [",
"$T$T$T$T$T$T$T$T$T$TO-    @c#2  @r.AO_ORON@h#jO(+TX5XbX]#boZoRO.O+$l#>+nX`OV LXp+<OP.~o|+;  $#.g",
"$T$T$T$T$T$T$T$T$T      #Do[  .##K.I hoE#V+U#l.ZXg#1#s#HoP$&$2O$$bO2O9+|OuOB$O+<XpOJX6$7 e  X&O)",
"$T$T$T$T$T$T$T$Tov#k.*o4X`  X~OO@4o+@KOMXE#R H#$o@#AoJ$+$8$eO-$Z$KOy    $#+do/+v$@X+.&onoq  +xoA",
"$T$T$T$T$T$T$T+m@X v+&Oo  #!OO#h@%+O F+=+Q#`#woa#_$+$2O$O&O9$ZOy  $K.C@9+z 7$XOVo~ ^Ok+3#o  O,$T",
"$T$T$T$T$T$T t.$+:orO $j+XXH.T.FX}O5@2Or s+f+. U@nO&O-O9O9$KO9$Z$ZO-  OI@-.^@p#p+M+5@_.>    #I$T",
"$T$T$T$T$T#u$wXR u#c - Noj M$i.uo>.c ;O8+i@!  odXt.4O9O-O-O2$Z  Oy    @xot+]    #goeX)@G  #qOd$T",
"$T$T$T$T+aXmXQXv@>.EX(+SoG.{X2X=OT@y wox#6 )#POy   ,                    X`X_O#  XkXz.do9XMOL z$T",
"$T$T$T#0X|.0#x@++`XBo1 V+,+9.+O: =.'X' B@WXeXx Q.vo=XC.X$Z          O2O>.oo3#A.B   +$>X4++  $T$T",
"$T$T.S$=@U I+2Oi+_#]@A$dO}#UoBXSXFo! X#M#)#<@z$ $D$tXU+8#H#Y$&$8$eoJ#N#noC#[@=O+  $<#C+l@($T$T$T",
"$T$TX$O0.DO; 2@6OY$V C#y@*#=XJ#%.1oh+k+ Xn        .YXXXPO'#E#Hoaoa#YowX;+j ` '#n+BXf@<@[@E$T$T$T",
"$Tok$Y          OHoyOl#SX@+6$$$$#J+RO<              X3oU.< b#^#^#^#^.)ol+w+>@B#H  $G$l  $T$T$T$T",
"$T ! n        X9$1$U#O+*$yo+@$Ox.8#.                  $NX0oQoZ#^#^#^oZ.)O|@l#H#{O2    $T$T$T$T$T",
"$T$A#5@J T  om#++I@o > f._+-@YX.Og                    +q jXOoD#^#^#^#^onoaoJ$T$T$T$T$T$T$T$T$T$T",
"X*OX$zoi#z$LO{$.OQ+# _O3.R.HX @R.,                    XK D+%#^#^oJ#Eoz#E$T$T$T$T$T$T$T$T$T$T$T$T",
"@O.hX[+p@)o @e c J.OOD@HOfO/.=o`  O9oZ#{              Xs loP#^#^oaon$T$T$T$T$T$T$T$T$T$T$T$T$T$T",
"+DOK.f@/@M+c$rXa :op@I &@{OC.i    oqozo6o_            o0X#oJ#Y#Yo}$T$T$T$T$T$T$T$T$T$T$T$T$T$T$T",
"#-oF+[XVOw+J$P.Wobo^oH.q$-+/$%  $k poJoJOZ            +bOh#H$+$T$T$T$T$T$T$T$T$T$T$T$T$T$T$T$T$T",
"OuXdO] ro-#GoY...M@D@}+4 q+H+o  OS#^oP A#T$0         @Oz E$T$T$T$T$T$T$T$T$T$T$T$T$T$T$T$T$T$T$T",
"  #}Xu#/@fXL #+'XqoO@d+(@NOA  X`OG#^o8+t k          #7+@$T$T$T$T$T$T$T$T$T$T$T$T$T$T$T$T$T$T$T$T",
"$T  @7@~+Y@@ PXZooo{o7$fof.!    ozoqoaOW          +1 Z$T$T$T$T$T$T$T$T$T$T$T$T$T$T$T$T$T$T$T$T$T",
"$T    @Loc G+K O@^.x$u#~+EOU      $2$p          Xy KX-$T$T$T$T$T$T$T$T$T$T$T$T$T$T$T$T$T$T$T$T$T",
"$T      #Bo*#L$no,XN (X{#@oW                    #F@j.m$T$T$T$T$T$T$T$T$T$T$T$T$T$T$T$T$T$T$T$T$T",
"$T$T        @uX7.yogO6+h$9.w                  .}o< ~$T$T$T$T$T$T$T$T$T$T$T$T$T$T$T$T$T$T$T$T$T$T",
"$T$T               Y 0Xw m@S                #dOE#9Oj$T$T$T$T$T$T$T$T$T$T$T$T$T$T$T$T$T$T$T$T$T$T",
"$T$T$T                    $I              .3Xj@v@*$T$T$T$T$T$T$T$T$T$T$T$T$T$T$T$T$T$T$T$T$T$T$T",
"$T$T$T$T                  +B            @a#K@:.e$T$T$T$T$T$T$T$T$T$T$T$T$T$T$T$T$T$T$T$T$T$T$T$T",
"$T$T$T$T$T                  @ @f$*.VOeoM#'.s@v$T$T$T$T$T$T$T$T$T$T$T$T$T$T$T$T$T$T$T$T$T$T$T$T$T",
"$T$T$T$T$T$T                  @`oIO4.N$s.7Oa$T$T$T$T$T$T$T$T$T$T$T$T$T$T$T$T$T$T$T$T$T$T$T$T$T$T",
"$T$T$T$T$T$T$T$T                .UO@$m@;$T$T$T$T$T$T$T$T$T$T$T$T$T$T$T$T$T$T$T$T$T$T$T$T$T$T$T$T",
"$T$T$T$T$T$T$T$T$T$T$T              $T$T$T$T$T$T$T$T$T$T$T$T$T$T$T$T$T$T$T$T$T$T$T$T$T$T$T$T$T$T",
"$T$T$T$T$T$T$T$T$T$T$T$T$T$T$T$T$T$T$T$T$T$T$T$T$T$T$T$T$T$T$T$T$T$T$T$T$T$T$T$T$T$T$T$T$T$T$T$T",
"$T$T$T$T$T$T$T$T$T$T$T$T$T$T$T$T$T$T$T$T$T$T$T$T$T$T$T$T$T$T$T$T$T$T$T$T$T$T$T$T$T$T$T$T$T$T$T$T",
"$T$T$T$T$T$T$T$T$T$T$T$T$T$T$T$T$T$T$T$T$T$T$T$T$T$T$T$T$T$T$T$T$T$T$T$T$T$T$T$T$T$T$T$T$T$T$T$T"
};
