/* XPM */
static char *audacious_xpm[] = {
/* width height ncolors chars_per_pixel */
"48 48 114 2",
/* colors */
"   c black",
" . c #B1B1B1",
" X c #AFAFAF",
" o c gray68",
" O c gray67",
" + c dark grey",
" @ c #A5A5A5",
" # c gray64",
" $ c #939393",
" % c #8D8D8D",
" & c #8B8B8B",
" * c #898989",
" = c gray53",
" - c gray52",
" ; c #838383",
" : c #818181",
" > c #7B7B7B",
" , c #777777",
" < c gray46",
" 1 c gray45",
" 2 c #6D6D6D",
" 3 c #5D5D5D",
" 4 c #5B5B5B",
" 5 c gray35",
" 6 c #535353",
" 7 c gray30",
" 8 c #494949",
" 9 c gray28",
" 0 c #414141",
" q c gray23",
" w c #393939",
" e c #373737",
" r c #353535",
" t c #313131",
" y c #2D2D2D",
" u c gray17",
" i c #D8D8D8",
" p c gray84",
" a c gray83",
" s c gray13",
" d c gray12",
" f c #D0D0D0",
" g c #1D1D1D",
" h c #1B1B1B",
" j c gray80",
" k c #191919",
" l c #CACACA",
" z c #131313",
" x c #111111",
" c c gray76",
" v c #BCBCBC",
" b c #090909",
" n c #070707",
" m c gray72",
" M c gray2",
" N c #B6B6B6",
" B c gray1",
" V c #B4B4B4",
" C c #010101",
" Z c #B2B2B2",
" A c gray69",
" S c #AEAEAE",
" D c #ACACAC",
" F c #AAAAAA",
" G c gray66",
" H c gray65",
" J c #A4A4A4",
" K c gray62",
" L c #9A9A9A",
" P c gray59",
" I c #929292",
" U c #909090",
" Y c #8E8E8E",
" T c gray55",
" R c gray51",
" E c #808080",
" W c #646464",
" Q c gray37",
" ! c gray36",
" ~ c #5A5A5A",
" ^ c #505050",
" / c #4E4E4E",
" ( c #484848",
" ) c #464646",
" _ c gray25",
" ` c #3C3C3C",
" ' c #3A3A3A",
" ] c #343434",
" [ c #282828",
" { c gray85",
" } c gray14",
" | c #D5D5D5",
".  c light grey",
".. c #202020",
".X c #1E1E1E",
".o c gray81",
".O c gray11",
".+ c gray10",
".@ c #CBCBCB",
".# c gray79",
".$ c #161616",
".% c gray8",
".& c gray7",
".* c #101010",
".= c #0E0E0E",
".- c #0C0C0C",
".; c gray74",
".: c #BBBBBB",
".> c gray3",
"., c #B9B9B9",
".< c #B7B7B7",
".1 c gray71",
".2 c #020202",
".3 c None",
/* pixels */
".3.3.3.3.3.3.3.3.3.3.3.3.3.3.3.3.3.3.3                    .3.3.3.3.3.3.3.3.3.3.3.3.3.3.3.3.3.3.3",
".3.3.3.3.3.3.3.3.3.3.3.3.3.3.3.3                                .3.3.3.3.3.3.3.3.3.3.3.3.3.3.3.3",
".3.3.3.3.3.3.3.3.3.3.3.3.3                                            .3.3.3.3.3.3.3.3.3.3.3.3.3",
".3.3.3.3.3.3.3.3.3.3.3.3                                                .3.3.3.3.3.3.3.3.3.3.3.3",
".3.3.3.3.3.3.3.3.3.3                                                        .3.3.3.3.3.3.3.3.3.3",
".3.3.3.3.3.3.3.3.3                                                            .3.3.3.3.3.3.3.3.3",
".3.3.3.3.3.3.3.3                    .. Q U . l | | l A Y ~ g                    .3.3.3.3.3.3.3.3",
".3.3.3.3.3.3.3                 B 7 G { { { { { { { { { { { i J (.2                .3.3.3.3.3.3.3",
".3.3.3.3.3.3                 ` m { { { { { { { { { { { { { { { {.1 w                .3.3.3.3.3.3",
".3.3.3.3.3               b - { { { { { { { { { { { { { { { { { { { { R n              .3.3.3.3.3",
".3.3.3.3              .% S { { { { { { { { { { { { { { { { { { { { { { o.%              .3.3.3.3",
".3.3.3.3            .&., { { { { { { { { { { { { { { { { { { { { { { { { m.&            .3.3.3.3",
".3.3.3             b O { { { { { { { { { { { { { { { { { { { { { { { { { { F.>            .3.3.3",
".3.3               R { { { { { { { { { { { { f v v.@ { { { { { { { { { { { { :              .3.3",
".3.3             ' { { { { { { { { i T 6 0 y C      .$ / K { { { { { { { { { { e            .3.3",
".3.3          .2 N { { { { { { { i 6                       t V { { { { { { { {.1.2          .3.3",
".3             ( { { { { { { { { L                          .- o { { { { { { { { 9            .3",
".3             H { { { { { { { { $                             [ i { { { { { { { @            .3",
".3           d i { { { { { { { { p 6.= g u u u h                 + { { { { { { { i.O          .3",
"             4 { { { { { { { { { { { { { { { { { )               , { { { { { { { { 5            ",
"             % { { { { { { { { { { { { { {.o I 2 x               8 { { { { { { { { T            ",
"             . { { { { { { { { { { { F 3 r b                     } { { { { { { { { A            ",
"            .@ { { { { { { { { { i < B                           b { { { { { { { {.#            ",
"             a { { { { { { { { { ~                               b { { { { { { { { a            ",
"             a { { { { { { { { -                                 _ { { { { { { { { a            ",
"            .@ { { { { { { {. .-             ) o D t             5 { { { { { { { {.#            ",
"             Z { { { { { { { j               % { { W             1 { { { { { { { { A            ",
"             U { { { { { { { j               e O # z             & { { { { { { { { %            ",
"             3 { { { { { { { p.=                                 > { { { { { { { { 4            ",
".3           s { { { { { { { { ^                                 9 { { { { { { { {.X          .3",
".3             + { { { { { { { Z M                               ! { { { { { { { G            .3",
".3             7 { { { { { { { { P.-             B k x        .*.; { { { { { { { 7            .3",
".3.3           B.< { { { { { { { {.; `.2     t = l { p * ].+ (.: { { { { { { { N B          .3.3",
".3.3             q { { { { { { { { { { c & J { { { { { { { { { { { { { { { { { w            .3.3",
".3.3               ; { { { { { { { { { { { { { { { { { { { { { { { { { { { { :              .3.3",
".3.3.3             b F { { { { { { { { { { { { { { { { { { { { { { { { { { F.>            .3.3.3",
".3.3.3.3            .& m { { { { { { { { { { { { { { { { { { { { { { { { m.&            .3.3.3.3",
".3.3.3.3              .% S { { { { { { { { { { { { { { { { { { { { { { D.&              .3.3.3.3",
".3.3.3.3.3               n R { { { { { { { { { { { { { { { { { { { { E n              .3.3.3.3.3",
".3.3.3.3.3.3                 '.< { { { { { { { { { { { { { { { { V e                .3.3.3.3.3.3",
".3.3.3.3.3.3.3                 B 7 G { { { { { { { { { { { i J (.2                .3.3.3.3.3.3.3",
".3.3.3.3.3.3.3.3                     d 4 Y X.# a a.# S T 5.O                    .3.3.3.3.3.3.3.3",
".3.3.3.3.3.3.3.3.3                                                            .3.3.3.3.3.3.3.3.3",
".3.3.3.3.3.3.3.3.3.3                                                        .3.3.3.3.3.3.3.3.3.3",
".3.3.3.3.3.3.3.3.3.3.3.3                                                .3.3.3.3.3.3.3.3.3.3.3.3",
".3.3.3.3.3.3.3.3.3.3.3.3.3                                            .3.3.3.3.3.3.3.3.3.3.3.3.3",
".3.3.3.3.3.3.3.3.3.3.3.3.3.3.3.3                                .3.3.3.3.3.3.3.3.3.3.3.3.3.3.3.3",
".3.3.3.3.3.3.3.3.3.3.3.3.3.3.3.3.3.3.3                    .3.3.3.3.3.3.3.3.3.3.3.3.3.3.3.3.3.3.3"
};
