/* XPM */
static char * blender_xpm[] = {
"48 48 877 2",
"  	c None",
". 	c #B75400",
"+ 	c #D56E00",
"@ 	c #CF6600",
"# 	c #994300",
"$ 	c #DA7E1D",
"% 	c #FEC377",
"& 	c #FFE1B3",
"* 	c #FFD69C",
"= 	c #F6AA50",
"- 	c #B35700",
"; 	c #BE5D00",
"> 	c #FFDCA6",
", 	c #FFFFFF",
"' 	c #FFFCF8",
") 	c #FFFEFC",
"! 	c #FFFEF7",
"~ 	c #FFCA7F",
"{ 	c #C56100",
"] 	c #D77404",
"^ 	c #FFEAC4",
"/ 	c #FFF8EE",
"( 	c #FFF3E3",
"_ 	c #FFF3E4",
": 	c #FFF5E7",
"< 	c #FFF9ED",
"[ 	c #FFD498",
"} 	c #DA7B17",
"| 	c #D56C00",
"1 	c #FFC978",
"2 	c #FFF3E2",
"3 	c #FFF1DF",
"4 	c #FFF0DB",
"5 	c #FFEFDA",
"6 	c #FFEFDB",
"7 	c #FFF7EB",
"8 	c #FFDDA9",
"9 	c #E78822",
"0 	c #C66000",
"a 	c #F88400",
"b 	c #FFB95B",
"c 	c #FFEFD9",
"d 	c #FFEED7",
"e 	c #FFEBD1",
"f 	c #FFEBC6",
"g 	c #F79B31",
"h 	c #914000",
"i 	c #C35E00",
"j 	c #E17100",
"k 	c #EC7D00",
"l 	c #FFAC3F",
"m 	c #FFE1BA",
"n 	c #FFEBD0",
"o 	c #FFE7C8",
"p 	c #FFE7C7",
"q 	c #FFE9CE",
"r 	c #FFE4BA",
"s 	c #FAAF55",
"t 	c #A64E00",
"u 	c #A44F00",
"v 	c #E27200",
"w 	c #DC6E00",
"x 	c #EB7600",
"y 	c #FFAB3C",
"z 	c #FFE1B8",
"A 	c #FFE3BF",
"B 	c #FFE4BF",
"C 	c #FFE3BE",
"D 	c #FFE5C5",
"E 	c #FFE7C1",
"F 	c #FFB149",
"G 	c #B55500",
"H 	c #AB5100",
"I 	c #DB6C00",
"J 	c #DA6B00",
"K 	c #E57300",
"L 	c #F99821",
"M 	c #FFD295",
"N 	c #FFE0B6",
"O 	c #FFDFB6",
"P 	c #FFDFB5",
"Q 	c #FFE0B8",
"R 	c #FFE2BA",
"S 	c #FFBD67",
"T 	c #C76804",
"U 	c #C15C00",
"V 	c #C76601",
"W 	c #C46504",
"X 	c #C46404",
"Y 	c #C96704",
"Z 	c #C76604",
"` 	c #A55604",
" .	c #AE5A04",
"..	c #D87105",
"+.	c #E97C05",
"@.	c #E57A05",
"#.	c #EE7E00",
"$.	c #FF9814",
"%.	c #FFCB85",
"&.	c #FFDDB0",
"*.	c #FFDBAD",
"=.	c #FFDBAC",
"-.	c #FFE2B8",
";.	c #FFC573",
">.	c #DB760D",
",.	c #E7820F",
"'.	c #FDBB63",
").	c #FFCC88",
"!.	c #FFCE8D",
"~.	c #FFCE8C",
"{.	c #FFCD8B",
"].	c #FFCD8A",
"^.	c #FFCC89",
"/.	c #FFCD89",
"(.	c #FFCE89",
"_.	c #FECB89",
":.	c #FFCB88",
"<.	c #FFC984",
"[.	c #FFD7A2",
"}.	c #FFD7A3",
"|.	c #FFDBAA",
"1.	c #FFD18A",
"2.	c #EB8616",
"3.	c #773400",
"4.	c #D67612",
"5.	c #FFD189",
"6.	c #FFDCAB",
"7.	c #FFD9A6",
"8.	c #FFD8A5",
"9.	c #FFD8A4",
"0.	c #FFD7A4",
"a.	c #FFD7A1",
"b.	c #FFD8A1",
"c.	c #FFD7A0",
"d.	c #FFD8A0",
"e.	c #FFD79F",
"f.	c #FFD59B",
"g.	c #FFD59A",
"h.	c #FFD499",
"i.	c #FFD398",
"j.	c #FFD69E",
"k.	c #FFCE86",
"l.	c #F39A32",
"m.	c #934300",
"n.	c #EF9025",
"o.	c #FFD89C",
"p.	c #FFD296",
"q.	c #FFD195",
"r.	c #FFD194",
"s.	c #FFD094",
"t.	c #FFD093",
"u.	c #FFD193",
"v.	c #FFD192",
"w.	c #FFD292",
"x.	c #FFD291",
"y.	c #FFD394",
"z.	c #FFD293",
"A.	c #FFCF8D",
"B.	c #FFD08C",
"C.	c #FFCF8B",
"D.	c #FFD191",
"E.	c #FFD497",
"F.	c #FFD18F",
"G.	c #FFD18E",
"H.	c #FFD08E",
"I.	c #FFD395",
"J.	c #FFD188",
"K.	c #FEA432",
"L.	c #A75300",
"M.	c #EC820A",
"N.	c #FFC979",
"O.	c #FFD297",
"P.	c #FFD092",
"Q.	c #FFCF91",
"R.	c #FFCE8F",
"S.	c #FFCE8A",
"T.	c #FFCF89",
"U.	c #FFD088",
"V.	c #FFD18C",
"W.	c #FFD290",
"X.	c #FFCD7A",
"Y.	c #FFC552",
"Z.	c #FFBE2E",
"`.	c #FFB819",
" +	c #FEBA16",
".+	c #FEB817",
"++	c #FFC02C",
"@+	c #FFC44A",
"#+	c #FFCB74",
"$+	c #FFD08B",
"%+	c #FFD08A",
"&+	c #FFCE85",
"*+	c #FFCD84",
"=+	c #FFCE87",
"-+	c #FFD18B",
";+	c #FFB241",
">+	c #C86500",
",+	c #E07000",
"'+	c #FA9615",
")+	c #FFB553",
"!+	c #FFBD61",
"~+	c #FFBC60",
"{+	c #FFBC5F",
"]+	c #FFB95E",
"^+	c #FFBB61",
"/+	c #FFCA80",
"(+	c #FFCB82",
"_+	c #FFCB81",
":+	c #FFCC81",
"<+	c #FFCD81",
"[+	c #FFCC80",
"}+	c #FFCE81",
"|+	c #FFCF85",
"1+	c #FFCA6C",
"2+	c #FFBE42",
"3+	c #F7A50E",
"4+	c #F19A00",
"5+	c #EA8F00",
"6+	c #E48300",
"7+	c #E27D00",
"8+	c #E38300",
"9+	c #E98E00",
"0+	c #F09A00",
"a+	c #F6A407",
"b+	c #FEBC38",
"c+	c #FFC962",
"d+	c #FFCD80",
"e+	c #FFCC7D",
"f+	c #FFCB7B",
"g+	c #FFCB7D",
"h+	c #FFCE7F",
"i+	c #FFB142",
"j+	c #C76602",
"k+	c #D96B00",
"l+	c #E97900",
"m+	c #EE7F00",
"n+	c #EC7E00",
"o+	c #EF8000",
"p+	c #FD9000",
"q+	c #FFB042",
"r+	c #FFC97B",
"s+	c #FFCA77",
"t+	c #FFCB78",
"u+	c #FFCC7C",
"v+	c #FFBF46",
"w+	c #FAA706",
"x+	c #E47E00",
"y+	c #DC6F00",
"z+	c #DA6A00",
"A+	c #DC6D00",
"B+	c #DB6B00",
"C+	c #DB6F00",
"D+	c #E37E00",
"E+	c #F6A501",
"F+	c #FFBE37",
"G+	c #FFCA73",
"H+	c #FFCA74",
"I+	c #FFC871",
"J+	c #FFC872",
"K+	c #FFBE52",
"L+	c #E07A07",
"M+	c #E47300",
"N+	c #DB6D00",
"O+	c #DA6C00",
"P+	c #DA6D00",
"Q+	c #D76A00",
"R+	c #E17200",
"S+	c #F78E07",
"T+	c #FEB54D",
"U+	c #FFC672",
"V+	c #FFC56F",
"W+	c #FFC66E",
"X+	c #FFC76E",
"Y+	c #FFC76D",
"Z+	c #FFC86E",
"`+	c #FFC96C",
" @	c #FFB92E",
".@	c #EF9101",
"+@	c #DE7300",
"@@	c #E07100",
"#@	c #E57200",
"$@	c #E27000",
"%@	c #E47200",
"&@	c #DC6C00",
"*@	c #DD7100",
"=@	c #EB8D00",
"-@	c #FEB524",
";@	c #FFC663",
">@	c #FFC769",
",@	c #FFC567",
"'@	c #FFC66C",
")@	c #FFBD52",
"!@	c #E68C19",
"~@	c #733500",
"{@	c #5A2900",
"]@	c #D06600",
"^@	c #E37200",
"/@	c #DF7000",
"(@	c #D96D00",
"_@	c #E57600",
":@	c #FB9811",
"<@	c #FFBA51",
"[@	c #FFC46B",
"}@	c #FFC365",
"|@	c #FFC364",
"1@	c #FFC464",
"2@	c #FFC564",
"3@	c #FFC868",
"4@	c #FFBB3C",
"5@	c #F19100",
"6@	c #DE6F00",
"7@	c #E27100",
"8@	c #CA6400",
"9@	c #A44E00",
"0@	c #7E3700",
"a@	c #6B3200",
"b@	c #683100",
"c@	c #693000",
"d@	c #7C3700",
"e@	c #9D4B00",
"f@	c #ED8E00",
"g@	c #FFB727",
"h@	c #FFC661",
"i@	c #FFC45D",
"j@	c #FFC25D",
"k@	c #FFC25C",
"l@	c #FFC466",
"m@	c #FFBB43",
"n@	c #F18800",
"o@	c #743700",
"p@	c #9A4800",
"q@	c #C35D00",
"r@	c #F6991B",
"s@	c #FFBE57",
"t@	c #FFC060",
"u@	c #FFBF5B",
"v@	c #FFC15B",
"w@	c #FFC25B",
"x@	c #FFC35A",
"y@	c #FFC55D",
"z@	c #FFC24A",
"A@	c #F89C03",
"B@	c #D46900",
"C@	c #823E00",
"D@	c #200C00",
"E@	c #001840",
"F@	c #003177",
"G@	c #003C90",
"H@	c #002F75",
"I@	c #00153B",
"J@	c #793900",
"K@	c #CD6500",
"L@	c #F19401",
"M@	c #FFC041",
"N@	c #FFC356",
"O@	c #FFC153",
"P@	c #FFC155",
"Q@	c #FFBC4D",
"R@	c #FFA612",
"S@	c #FFA100",
"T@	c #814500",
"U@	c #A65300",
"V@	c #F69E25",
"W@	c #FFBA50",
"X@	c #FFBC55",
"Y@	c #FFBC51",
"Z@	c #FFBD51",
"`@	c #FFBE51",
" #	c #FFBF51",
".#	c #FFC050",
"+#	c #FFC251",
"@#	c #FFC453",
"##	c #FFB31E",
"$#	c #EA8100",
"%#	c #AB5300",
"&#	c #371A00",
"*#	c #001B4A",
"=#	c #145EBC",
"-#	c #4191F4",
";#	c #509FFF",
">#	c #54A2FF",
",#	c #4E9EFF",
"'#	c #3D8EEF",
")#	c #1258B1",
"!#	c #A24E00",
"~#	c #DF6E00",
"{#	c #E47B00",
"]#	c #FFB010",
"^#	c #FFC149",
"/#	c #FFC14D",
"(#	c #FFBC45",
"_#	c #FFA910",
":#	c #FFA000",
"<#	c #FFA400",
"[#	c #C66B00",
"}#	c #D46D03",
"|#	c #FFA424",
"1#	c #FFBA4D",
"2#	c #FFB84A",
"3#	c #FFB848",
"4#	c #FFBA48",
"5#	c #FFBB48",
"6#	c #FFBD47",
"7#	c #FFBE47",
"8#	c #FFBF47",
"9#	c #FFC147",
"0#	c #FFC345",
"a#	c #FAA30D",
"b#	c #B55800",
"c#	c #220D00",
"d#	c #1E72DD",
"e#	c #57A9FF",
"f#	c #62AAFF",
"g#	c #5EA7FF",
"h#	c #5DA6FF",
"i#	c #5EA6FF",
"j#	c #62ABFF",
"k#	c #52A4FF",
"l#	c #1367D1",
"m#	c #FAA101",
"n#	c #FFBF37",
"o#	c #FFBC38",
"p#	c #FFAC0F",
"q#	c #FFA500",
"r#	c #FFA700",
"s#	c #E17F00",
"t#	c #D87301",
"u#	c #FFAB2D",
"v#	c #FFB644",
"w#	c #FFB43F",
"x#	c #FFB53E",
"y#	c #FFB73E",
"z#	c #FFB93E",
"A#	c #FFBA3E",
"B#	c #FFBC3D",
"C#	c #FFBD3D",
"D#	c #FFBE3D",
"E#	c #FFC03D",
"F#	c #FFC338",
"G#	c #F59504",
"H#	c #CA6100",
"I#	c #271200",
"J#	c #024FB2",
"K#	c #489EFF",
"L#	c #53A0FF",
"M#	c #4F9DFF",
"N#	c #4F9FFF",
"O#	c #4F9EFF",
"P#	c #06418F",
"Q#	c #BF5A00",
"R#	c #F49401",
"S#	c #FFB812",
"T#	c #FFAE04",
"U#	c #FFAA00",
"V#	c #FFA900",
"W#	c #F18E00",
"X#	c #4E2400",
"Y#	c #DE7500",
"Z#	c #FFA51E",
"`#	c #FFB13B",
" $	c #FFB138",
".$	c #FFB236",
"+$	c #FFB336",
"@$	c #FFB536",
"#$	c #FFB837",
"$$	c #FFB835",
"%$	c #FFBA34",
"&$	c #FFBC34",
"*$	c #FFBD34",
"=$	c #FFBF34",
"-$	c #FFC330",
";$	c #F69503",
">$	c #893E00",
",$	c #106DE2",
"'$	c #469CFF",
")$	c #479BFF",
"!$	c #469FFF",
"~$	c #46A3FF",
"{$	c #46A5FF",
"]$	c #46A2FF",
"^$	c #479EFF",
"/$	c #0F5ABB",
"($	c #682E00",
"_$	c #F39200",
":$	c #FFB500",
"<$	c #FFAF00",
"[$	c #FFAE00",
"}$	c #FFAC00",
"|$	c #FFAB00",
"1$	c #F59400",
"2$	c #4D2400",
"3$	c #873D00",
"4$	c #ED8200",
"5$	c #FF9900",
"6$	c #FF9A05",
"7$	c #FFA317",
"8$	c #FFAD29",
"9$	c #FFB02D",
"0$	c #FFB42D",
"a$	c #FFB62C",
"b$	c #FFB01C",
"c$	c #FFB628",
"d$	c #FFB92B",
"e$	c #FFBB2A",
"f$	c #FFBC2A",
"g$	c #FFBE2A",
"h$	c #FFC527",
"i$	c #EA9104",
"j$	c #471C00",
"k$	c #0E71EC",
"l$	c #3C9AFF",
"m$	c #3DA1FF",
"n$	c #3CA7FF",
"o$	c #3DACFF",
"p$	c #3DAEFF",
"q$	c #3BAAFF",
"r$	c #3BA5FF",
"s$	c #379FFF",
"t$	c #0C66D0",
"u$	c #DD8800",
"v$	c #FFBB00",
"w$	c #FFB200",
"x$	c #FFB100",
"y$	c #F49600",
"z$	c #4C2400",
"A$	c #CA6300",
"B$	c #F68900",
"C$	c #FF9600",
"D$	c #FF9800",
"E$	c #FF9A00",
"F$	c #FF9C00",
"G$	c #FFA004",
"H$	c #FFA80C",
"I$	c #FFAC15",
"J$	c #FF8A0F",
"K$	c #FE8F00",
"L$	c #FFB81C",
"M$	c #FFB922",
"N$	c #FFBA21",
"O$	c #FFBC20",
"P$	c #FFBE1F",
"Q$	c #FFC41F",
"R$	c #F19E07",
"S$	c #4B2200",
"T$	c #0270EB",
"U$	c #1D95FF",
"V$	c #23A1FF",
"W$	c #23AAFF",
"X$	c #1FAFFF",
"Y$	c #1BB1FF",
"Z$	c #17AFFF",
"`$	c #13A9FF",
" %	c #0E9FFF",
".%	c #0796FF",
"+%	c #0468D0",
"@%	c #E29300",
"#%	c #FFBD00",
"$%	c #FFB300",
"%%	c #F48E00",
"&%	c #4C2100",
"*%	c #A15000",
"=%	c #F78A00",
"-%	c #FF9700",
";%	c #FF9D00",
">%	c #FF9F00",
",%	c #FFA300",
"'%	c #FD8000",
")%	c #EC6800",
"!%	c #F17B00",
"~%	c #FFB00B",
"{%	c #FFB611",
"]%	c #FFB912",
"^%	c #FFBB14",
"/%	c #FFBD14",
"(%	c #FFC015",
"_%	c #FFBF08",
":%	c #9C6000",
"<%	c #0671EC",
"[%	c #0896FF",
"}%	c #009CFF",
"|%	c #00A9FF",
"1%	c #00B3FF",
"2%	c #00B8FF",
"3%	c #00B6FF",
"4%	c #00AFFF",
"5%	c #00A6FF",
"6%	c #0EA4FF",
"7%	c #0865CD",
"8%	c #FFBA00",
"9%	c #FFB800",
"0%	c #FFB600",
"a%	c #FFB400",
"b%	c #F28300",
"c%	c #F48400",
"d%	c #FF9500",
"e%	c #FF9B00",
"f%	c #FE7600",
"g%	c #E66C00",
"h%	c #D96F00",
"i%	c #E67000",
"j%	c #FFB801",
"k%	c #FFBB01",
"l%	c #FFBD03",
"m%	c #FFC302",
"n%	c #F3AB00",
"o%	c #0162E1",
"p%	c #1F98FF",
"q%	c #22B8FF",
"r%	c #09BBFF",
"s%	c #06C9FF",
"t%	c #04D0FF",
"u%	c #07D0FF",
"v%	c #09C4FF",
"w%	c #24BDFF",
"x%	c #1D94FF",
"y%	c #004FBB",
"z%	c #E69700",
"A%	c #FFC300",
"B%	c #FFB900",
"C%	c #FFB700",
"D%	c #E77400",
"E%	c #FA8400",
"F%	c #FF9E00",
"G%	c #FF8F00",
"H%	c #F97300",
"I%	c #E26D00",
"J%	c #DD7000",
"K%	c #D16400",
"L%	c #FA8C00",
"M%	c #FFBF00",
"N%	c #FFC100",
"O%	c #FFC500",
"P%	c #E5A000",
"Q%	c #004095",
"R%	c #0274FF",
"S%	c #1487FF",
"T%	c #20A0FF",
"U%	c #22B5FF",
"V%	c #24BFFF",
"W%	c #23BAFF",
"X%	c #20A4FF",
"Y%	c #1387FF",
"Z%	c #0072FF",
"`%	c #002E6D",
" &	c #E29600",
".&	c #FFC400",
"+&	c #FFC000",
"@&	c #FF9300",
"#&	c #D26200",
"$&	c #F77000",
"%&	c #FF8A00",
"&&	c #FF8D00",
"*&	c #F96F00",
"=&	c #E16D00",
"-&	c #DC7100",
";&	c #E17000",
">&	c #AD5300",
",&	c #F37000",
"'&	c #FFA600",
")&	c #FFBE00",
"!&	c #FFBC00",
"~&	c #FFC200",
"{&	c #FFC600",
"]&	c #FFCD00",
"^&	c #E39C00",
"/&	c #0057D6",
"(&	c #007AFF",
"_&	c #0080FF",
":&	c #0089FF",
"<&	c #0290FF",
"[&	c #008EFF",
"}&	c #0084FF",
"|&	c #0055C7",
"1&	c #00001A",
"2&	c #E19200",
"3&	c #FFC700",
"4&	c #FFC900",
"5&	c #FFB000",
"6&	c #FA7400",
"7&	c #B95800",
"8&	c #E46E00",
"9&	c #F47000",
"0&	c #FF7700",
"a&	c #FF7A00",
"b&	c #F16E00",
"c&	c #DF7100",
"d&	c #DE6E00",
"e&	c #733600",
"f&	c #6D3400",
"g&	c #E66E00",
"h&	c #F97D00",
"i&	c #FFC800",
"j&	c #FFCB00",
"k&	c #FFCE00",
"l&	c #F5B500",
"m&	c #A66D00",
"n&	c #393630",
"o&	c #004CA6",
"p&	c #0083F8",
"q&	c #009EFF",
"r&	c #00A4FF",
"s&	c #0088F4",
"t&	c #004EA1",
"u&	c #292422",
"v&	c #905B00",
"w&	c #E9AA00",
"x&	c #FFCC00",
"y&	c #FC8800",
"z&	c #EB7100",
"A&	c #7B3C00",
"B&	c #DB6E00",
"C&	c #DE7000",
"D&	c #E76D00",
"E&	c #E36E00",
"F&	c #673000",
"G&	c #CD6700",
"H&	c #E96D00",
"I&	c #FF8800",
"J&	c #FFCF00",
"K&	c #FFD500",
"L&	c #F6B100",
"M&	c #B38508",
"N&	c #717E51",
"O&	c #588F82",
"P&	c #50968F",
"Q&	c #558E83",
"R&	c #6C774A",
"S&	c #A17401",
"T&	c #EEAA00",
"U&	c #FFD100",
"V&	c #FFD700",
"W&	c #FFCA00",
"X&	c #FF9000",
"Y&	c #EE6C00",
"Z&	c #411F00",
"`&	c #BD5D00",
" *	c #E77500",
".*	c #DC7000",
"+*	c #DB7000",
"@*	c #C96300",
"#*	c #492100",
"$*	c #974D00",
"%*	c #E57500",
"&*	c #EC6900",
"**	c #FFD000",
"=*	c #FFD300",
"-*	c #FFDB00",
";*	c #FFDD00",
">*	c #FFD900",
",*	c #FFD200",
"'*	c #FFDE00",
")*	c #FFDC00",
"!*	c #FFD400",
"~*	c #E07200",
"{*	c #B65B00",
"]*	c #B15600",
"^*	c #E16F00",
"/*	c #DD6D00",
"(*	c #A85100",
"_*	c #2B1400",
":*	c #D46E00",
"<*	c #EC6A00",
"[*	c #FF7F00",
"}*	c #FFD800",
"|*	c #FFDA00",
"1*	c #FF8600",
"2*	c #D86F00",
"3*	c #412100",
"4*	c #582900",
"5*	c #6A3200",
"6*	c #4F2500",
"7*	c #6C3A00",
"8*	c #E47600",
"9*	c #E86D00",
"0*	c #FB7D00",
"a*	c #FFDF00",
"b*	c #FFE000",
"c*	c #FC7F00",
"d*	c #ED6A00",
"e*	c #894900",
"f*	c #9D5700",
"g*	c #E87800",
"h*	c #DF6F00",
"i*	c #F58500",
"j*	c #FFA200",
"k*	c #FFD600",
"l*	c #FFE100",
"m*	c #FFE200",
"n*	c #FFE300",
"o*	c #F98400",
"p*	c #E87600",
"q*	c #A35800",
"r*	c #AB5E00",
"s*	c #E77900",
"t*	c #DD6E00",
"u*	c #DD6F00",
"v*	c #EA8300",
"w*	c #F79B00",
"x*	c #FEB700",
"y*	c #FFE500",
"z*	c #FFE600",
"A*	c #FFE700",
"B*	c #F89A00",
"C*	c #EE8400",
"D*	c #E47500",
"E*	c #B86400",
"F*	c #241400",
"G*	c #8F5200",
"H*	c #E97C00",
"I*	c #E27400",
"J*	c #EA8400",
"K*	c #F5A300",
"L*	c #FDC500",
"M*	c #FED300",
"N*	c #FFE400",
"O*	c #FFE800",
"P*	c #FFE900",
"Q*	c #FDC200",
"R*	c #F6A500",
"S*	c #EB8500",
"T*	c #E17400",
"U*	c #E87900",
"V*	c #AB5F00",
"W*	c #130C00",
"X*	c #563200",
"Y*	c #C97000",
"Z*	c #F18100",
"`*	c #ED7B00",
" =	c #EA7900",
".=	c #EB7B00",
"+=	c #F08600",
"@=	c #F49200",
"#=	c #F79E00",
"$=	c #F9A800",
"%=	c #FAAE00",
"&=	c #FAAD00",
"*=	c #F9A700",
"==	c #F79F00",
"-=	c #F49300",
";=	c #EB7C00",
">=	c #ED7D00",
",=	c #D97800",
"'=	c #6B3C00",
")=	c #8C5300",
"!=	c #CE7300",
"~=	c #F58700",
"{=	c #F98800",
"]=	c #F98700",
"^=	c #F98600",
"/=	c #FA8700",
"(=	c #FA8600",
"_=	c #FB8700",
":=	c #F88600",
"<=	c #F78500",
"[=	c #F68500",
"}=	c #F78800",
"|=	c #D57600",
"1=	c #975700",
"2=	c #362100",
"3=	c #663C00",
"4=	c #BF7200",
"5=	c #EA8700",
"6=	c #FB8E00",
"7=	c #FB8F00",
"8=	c #EB8700",
"9=	c #CA7700",
"0=	c #764700",
"a=	c #1D1100",
"b=	c #462A00",
"c=	c #613B00",
"d=	c #6F4400",
"e=	c #764800",
"f=	c #774800",
"g=	c #714400",
"h=	c #643C00",
"i=	c #4A2C00",
"j=	c #2C1A00",
"                                                                                                ",
"                                                                                                ",
"                                                                                                ",
"                                              . + @ #                                           ",
"                                            $ % & * = -                                         ",
"                                          ; > , ' ) ! ~ {                                       ",
"                                          ] ^ / ( _ : < [ }                                     ",
"                                          | 1 2 3 4 5 6 7 8 9                                   ",
"                                          0 a b c d e e e c f g h                               ",
"                                          i j k l m n o p o q r s t                             ",
"                                          u v w x y z o A B C D E F G                           ",
"                                            H I J K L M C N O P Q R S T                         ",
"              U V W X X X X X X X X X Y Z `  ...+.@.#.$.%.&.*.=.=.*.-.;.>.                      ",
"            ,.'.).!.~.{.{.{.].].].].^.^./.(./._.).).:.<.).[.}.}.[.[.[.|.1.2.3.                  ",
"          4.5.6.7.8.8.9.0.0.}.}.}.[.[.[.a.a.a.b.c.c.c.d.e.* f.g.h.[ [ i.j.k.l.m.                ",
"          n.o.i.p.p.q.q.q.q.r.r.s.t.t.u.v.v.w.w.x.y.[ z.A.B.C.D.E.w.F.G.H.I.J.K.L.              ",
"          M.N.O.P.P.P.Q.Q.Q.R.{.].].S.T.T.T.U.V.W.X.Y.Z.`. +.+++@+#+$+%+&+*+=+-+;+>+            ",
"          ,+'+)+!+~+~+{+{+]+^+/+(+_+:+<+[+}+|+1+2+3+4+5+6+7+8+9+0+a+b+c+d+e+f+g+h+i+j+          ",
"          k+,+l+m+m+m+n+o+p+q+r+1 1 s+s+t+u+v+w+x+y+I z+I A+I B+J C+D+E+F+G+H+I+J+t+K+L+        ",
"          i M+N+O+P+Q+R+S+T+U+V+W+X+Y+Z+`+ @.@+@I @@M+K #@$@%@M+M+j &@*@=@-@;@>@,@,@'@)@!@~@    ",
"          {@]@^@/@(@_@:@<@[@}@|@1@2@2@3@4@5@w 6@7@8@9@0@a@b@c@d@e@{ /@/@z+f@g@h@i@j@k@l@m@n@    ",
"              o@p@q@r@s@t@u@v@w@x@x@y@z@A@w v B@C@D@  E@F@G@H@I@    J@K@^@I L@M@N@O@P@Q@R@S@T@  ",
"                U@V@W@X@Y@Z@`@ #.#+#@###$#$@%#&#  *#=#-#;#>#,#'#)#      !#~#{#]#^#/#(#_#:#<#[#  ",
"              }#|#1#2#3#4#5#6#7#8#9#0#a#7@b#c#    d#e#f#g#h#i#j#k#l#      9@v m#n#o#p#q#<#r#s#  ",
"            t#u#v#w#x#y#z#A#B#C#D#E#F#G#H#I#    J#K#L#M#N#N#N#O#L#K#P#      Q#R#S#T#U#V#r#V#W#X#",
"          Y#Z#`# $.$+$@$#$$$%$&$*$=$-$;$>$      ,$'$)$!$~${${$]$^$^$/$      ($_$:$<$[$}$U#|$1$2$",
"      3$4$5$6$7$8$9$0$a$b$c$d$e$f$g$h$i$j$      k$l$m$n$o$p$p$q$r$s$t$        u$v$w$x$<$}$[$y$z$",
"    A$B$C$D$E$F$G$H$I$J$K$L$M$N$O$P$Q$R$S$      T$U$V$W$X$Y$Z$`$ %.%+%        @%#%:$$%x$[$w$%%&%",
"  *%=%-%-%5$;%>%,%>%'%)%!%~%{%]%^%/%(%_%:%      <%[%}%|%1%2%3%4%5%6%7%        8%v$9%0%a%w$$%b%&%",
"  c%-%d%5$F$>%<#e%f%g%h%i%,%0%0%j%k%l%m%n%      o%p%q%r%s%t%u%v%w%x%y%      z%A%#%v$B%C%0%x$D%S$",
"  E%D$D$E$F%,%G%H%I%J%(@K%L%B%9%8%#%M%N%O%P%    Q%R%S%T%U%V%W%X%Y%Z%`%     &.&A%+&#%v$B%8%@&#&  ",
"  $&%&5$F$F%&&*&=&-&;&e@>&,&'&)&!&M%~&.&{&]&^&    /&(&_&:&<&[&:&}&|&1&  2&3&4&.&~&+&#%)&5&6&7&  ",
"  8&9&0&a&f%b&~#c&d&e&  f&g&h&!&~&N%.&{&i&j&k&l&m&n&o&p&q&5%r&s&t&u&v&w&x&]&4&3&O%~&~&#%y&z&A&  ",
"  B&C&8&D&E&C+R+@ F&      G&H&I&)&3&3&i&j&]&J&K&K&L&M&N&O&P&Q&R&S&T&U&V&U&k&x&W&3&3&O%X&Y&y+Z&  ",
"  `& *.*+*J%M+@*#*        $*%*&*%&A%k&j&k&**U&=*V&-*;*>*=*U&,*>*'*)*V&!*=*U&k&x&k&i&G%Y&~*{*    ",
"    ]*^*%@/*(*_*            :*c&<*[*:$,*,*=*K&V&}*|*-*;*'*'*'*;*)*-*>*V&K&=*=*K&B%1*Y&,+2*3*    ",
"      4*5*6*                7*8*C+9*0*<$j&}*>*|*-*;*'*a*a*b*b*b*a*'*)*|*|*>*k&:$c*d*C+_@e*      ",
"                              f*g*B&h*i*j*)&k*'*b*l*m*n*n*n*n*n*m*l*b*a*}*M%:#o*7@B&p*q*        ",
"                                r*s*t*u*v*w*x***|*a*n*y*z*A*z*y*m*a*>*J&0%B*C*C&w D*E*F*        ",
"                                  G*H*7@w I*J*K*L*M*)*N*O*P*A*m*-*U&Q*R*S*T*B&h*U*V*W*          ",
"                                    X*Y*Z*`* =.=+=@=#=$=%=%=&=*===-=+=;=g* =>=,='=              ",
"                                        )=!=~={=]=]=^=/=(=_=(=(=:=:=<=[=}=|=1=2=                ",
"                                            3=4=5=6=C$e%;%F%;%E$d%7=8=9=0=a=                    ",
"                                                  b=c=d=e=e=f=g=h=i=j=                          ",
"                                                                                                ",
"                                                                                                ",
"                                                                                                ",
"                                                                                                "};
