/* XPM */
static char *celestia_xpm[] = {
/* width height ncolors chars_per_pixel */
"48 48 342 2",
/* colors */
"   c black",
" . c #13130C",
" X c #3E3E1F",
" o c #696932",
" O c #889478",
" + c #BBBB54",
" @ c #FFFE6F",
" # c #FCFCD6",
" $ c #FEFE99",
" % c #2D2D18",
" & c #C6C658",
" * c #A39D39",
" = c #2B3237",
" - c #AEB572",
" ; c #AAAA4D",
" : c #3A3A1E",
" > c #1D1F1C",
" , c #656531",
" < c #0D0D09",
" 1 c #FFF351",
" 2 c #202015",
" 3 c #0B0B07",
" 4 c #E7EA96",
" 5 c #FFF047",
" 6 c #D6DD78",
" 7 c #272B29",
" 8 c #B1A736",
" 9 c #8B8A3F",
" 0 c #FEFB67",
" q c #2D2D1B",
" w c #707035",
" e c #767C52",
" r c #2B2B19",
" t c #FFF85E",
" y c #596150",
" u c #292917",
" i c #54542A",
" p c #89987F",
" a c #A6A64C",
" s c #292D2E",
" d c #8A8A41",
" f c #FFFF96",
" g c #050504",
" h c #181810",
" j c #F3F573",
" k c #030302",
" l c #16160E",
" z c #C1C259",
" x c #DDDD85",
" c c #232314",
" v c #2A2F32",
" b c #79793A",
" n c #777738",
" m c #AFA73A",
" M c #ADA538",
" N c #FFFA64",
" B c #30373B",
" V c #AAB681",
" C c #FFFF85",
" Z c #6A6A35",
" A c #FFF75A",
" S c #10100B",
" D c #1E201C",
" F c #0E0E09",
" G c #D1D165",
" H c #1C1E1A",
" J c #FFFF71",
" K c #B2B461",
" L c #94A389",
" P c #FDFD6F",
" I c #EDEF87",
" U c #748684",
" Y c #2E2E1B",
" T c #F5F671",
" R c #717135",
" E c #434C4A",
" W c #2C2C19",
" Q c #464D43",
" ! c #55552A",
" ~ c #7E7E3B",
" ^ c #717E6D",
" / c #60602E",
" ( c #080806",
" ) c #272C2B",
" _ c #8B8B41",
" ` c #1B1B12",
" ' c #060604",
" ] c #191910",
" [ c #242828",
" { c #040402",
" } c #B2B250",
" | c #3F5274",
".  c #FEF75F",
".. c #515129",
".X c #242414",
".o c #4F4F27",
".O c #292E30",
".+ c #272C2E",
".@ c #33331C",
".# c #292926",
".$ c #878740",
".% c #13130D",
".& c #354256",
".* c #D3D370",
".= c #3E3E20",
".- c #FFF659",
".; c #11110B",
".: c #D7D760",
".> c #2A3034",
"., c #2F2F2F",
".< c #FEFED9",
".1 c #2D2D2D",
".2 c #FEFE6F",
".3 c gray17",
".4 c #494924",
".5 c gray16",
".6 c #2F2F1B",
".7 c #272727",
".8 c #2D2D19",
".9 c #252525",
".0 c #333936",
".q c #FFFFBC",
".w c #3F5170",
".e c #81813D",
".r c gray13",
".t c #2B3238",
".y c gray12",
".u c #3A3A1F",
".i c #656532",
".p c #1D1D1D",
".a c #636330",
".s c #2C2D2F",
".d c #0B0B08",
".f c #A7A64B",
".g c #8D986D",
".h c #1B1B1B",
".j c #1E1E14",
".k c #090906",
".l c #191919",
".z c #FFF048",
".x c #1C1C12",
".c c #070704",
".v c gray9",
".b c #B0A736",
".n c #454523",
".m c #151515",
".M c #131313",
".N c #292918",
".B c #111111",
".V c #24241D",
".C c gray6",
".Z c #FFF555",
".A c gray5",
".S c #C0C056",
".D c #60623A",
".F c #0B0B0B",
".G c #BDC67E",
".H c #616131",
".J c #090909",
".K c #34341C",
".L c #44597B",
".P c #A6A343",
".I c #181811",
".U c #415578",
".Y c #171810",
".T c #8D945C",
".R c #16160F",
".E c #010101",
".W c #414122",
".Q c #14140D",
".! c #AFAF4F",
".~ c #242420",
".^ c #3F3F20",
"./ c #FFFFD9",
".( c #212113",
".) c #1D1E19",
"._ c #C5C04A",
".` c #F3F5B6",
".' c #4C4C26",
".] c #FFFF6F",
".[ c #1B1C17",
".{ c #A7A547",
".} c #F2F3B5",
".| c #757537",
"X  c #30301B",
"X. c #738177",
"XX c #3B3B1F",
"Xo c #666632",
"XO c #0E0E0A",
"X+ c #0C0C08",
"X@ c #445B81",
"X# c #1F1F14",
"X$ c #0A0A06",
"X% c #1D1D12",
"X& c #BEC471",
"X* c #FEFA67",
"X= c #6F6F34",
"X- c #3F5272",
"X; c #535329",
"X: c #2A3139",
"X> c #C1C156",
"X, c #FEF453",
"X< c #FEFEA9",
"X1 c #A9A645",
"X2 c #60602F",
"X3 c #1B1B13",
"X4 c #FEFC6A",
"X5 c #ABA53D",
"X6 c #AFA637",
"X7 c #898940",
"X8 c #191911",
"X9 c #040403",
"X0 c #17170F",
"Xq c #272722",
"Xw c #FFF961",
"Xe c #020201",
"Xr c #424222",
"Xt c #B4BB74",
"Xy c #FEF760",
"Xu c #FEFEEB",
"Xi c #FEFE81",
"Xp c #777942",
"Xa c #2A3032",
"Xs c #222213",
"Xd c #FEFED7",
"Xf c #5B6762",
"Xg c #787839",
"Xh c #B0A83B",
"Xj c #2B2B29",
"Xk c #F7F8A5",
"Xl c #FEFE98",
"Xz c #5A5A2C",
"Xx c #FEFEC3",
"Xc c #D3D371",
"Xv c #222520",
"Xb c #11110C",
"Xn c #C7CF79",
"Xm c #3E4F6D",
"XM c #0F0F0A",
"XN c #B0AB48",
"XB c #0D0D08",
"XV c #4B4B27",
"XC c #FEFE70",
"XZ c #B1B560",
"XA c #FEFE9B",
"XS c #272B28",
"XD c #FFFFBD",
"XF c #A8A036",
"XG c #FFF85D",
"XH c #56562B",
"XJ c #FEFE87",
"XK c #3F5171",
"XL c #202321",
"XP c #3A3A20",
"XI c #1E1E15",
"XU c #1C1C13",
"XY c #070705",
"XT c #8A8A40",
"XR c #1A1A11",
"XE c #050503",
"XW c #18180F",
"XQ c #FFFFEB",
"X! c #272717",
"X~ c #DDDD84",
"X^ c #C6CC74",
"X/ c #797939",
"X( c #1D1E17",
"X) c #282B2F",
"X_ c #B0A73A",
"X` c #5B6F82",
"X' c #24292B",
"X] c #181A12",
"X[ c #42557A",
"X{ c #556A86",
"X} c #3F3F21",
"X| c #DFE389",
"o  c #12120C",
"o. c #F8F9BC",
"oX c #686832",
"oo c #10100A",
"oO c gray18",
"o+ c #FFFF70",
"o@ c #1F1F12",
"o# c #1A1C17",
"o$ c #2A2A2A",
"o% c #282828",
"o& c #BBB74B",
"o* c #2E2E1A",
"o= c #858641",
"o- c gray15",
"o; c #C7C75A",
"o: c gray14",
"o> c #57572B",
"o, c #FBFBC2",
"o< c #D6D96C",
"o1 c #212421",
"o2 c #222222",
"o3 c #3E506F",
"o4 c #202020",
"o5 c #F0F096",
"o6 c #1E1E1E",
"o7 c #39391E",
"o8 c #DEE377",
"o9 c #1F1F15",
"o0 c #313C4B",
"oq c #0A0A07",
"ow c #9CA97F",
"oe c #92903D",
"or c #1D1D13",
"ot c #E7E797",
"oy c #080805",
"ou c #272C2A",
"oi c #181818",
"op c #8B8B40",
"oa c #1B1B11",
"os c #161616",
"od c #444422",
"of c #F2E74F",
"og c #425476",
"oh c #E1E391",
"oj c #6F6F35",
"ok c #FEFEBE",
"ol c #101010",
"oz c #515128",
"ox c #0C0C0C",
"oc c #1F1F18",
"ov c #FFF14B",
"ob c gray3",
"on c #908E3E",
"om c #F2F2B2",
"oM c #5E5E2E",
"oN c #191912",
"oB c #181911",
"oV c #040404",
"oC c #87873F",
"oZ c #171710",
"oA c #272723",
"oS c #020202",
"oD c #424223",
"oF c #2D3540",
"oG c #15150E",
"oH c None",
/* pixels */
"oHoHoHoHoHoHoHoHoHoHoHoHoHoHoHoHoHoHoHoHoHoHoHoHoHoHoHoHoHoHoHoHoHoHoHoHoHoHoHoHoHoHoHoHoHoHoHoH",
"oHoHoHoHoHoHoHoHoHoHoHoHoHoHoHoHoHoHoHoHoHoHoHoHoHoHoHoHoHoHoHoHoHoHoHoHoHoHoHoHoHoHoHoHoHoHoHoH",
"oHoHoHoHoHoHoHoHoHoHoHoHoHoHoHoHoHoHoHoHoHoHoHoHoHoHoHoHoHoHoHoHoHoHoHoHoHoHoHoHoHoHoHoHoHoHoHoH",
"oHoHoHoHoHoHoHoHoHoHoHoHoHoHoHoHoHoHoHoHoHoHoHoHoHoHoHoHoHoHoHoHoHoHoHoHoHoHoHoHoHoHoHoHoHoHoHoH",
"oHoHoHoHoHoHoHoHoHoHoHoHoHoHoHoHoHoHoHoHoHoHoHoHoHoHoHoHoHoHoHoHoHoHoHoHoHoHoHoHoHoHoHoHoHoHoHoH",
"oHoHoHoHoHoHoHoHoHoHoHoHoHoHoHoHoHoHoHoHoHoHoHoHoHoHoHoHoHoHoHoHoHoHoHoHoHoHoHoHoHoHoHoHoHoHoHoH",
"oHoHoHoHoHoHoHoHoHoHoHoHoHoHoHoHoHoHoHoHoHoHoHoHoHoHoHoHoHoHoHoHoHoHoHoHoHoHoHoHoHoHoHoHoHoHoHoH",
"oHoHoHoHoHoHoHoHoHoHoHoHoHoHoHoHoHoHoHoHoHoHoHoHoHoHoHoHoHoHoHo+oHo+oHoHoHoHoHoHoHoHoHoHoHoHoHoH",
"oHoHoHoHoHoHoHoHoHoHoHoHoHoHoHoHoHoHoHoHoHoHoHoHoHoHoHoHoHoHoHX4 t @oHoHoHoHoHoHoHoHoHoHoHoHoHoH",
"oHoHoHoHoHoHoHoHoHoHoHoHoHoHoHoHoHoHoHoHoHoHoHoHoHoHoHoHoHov.zXy. .-ovXwoHoHoHoHoHoHoHoHoHoHoHoH",
"oHoHoHoHoHoHoHoHoHoHoHoHoHoHoHoHX[ |.wX-.LX` U LoHoHoH N.z 0.].2.2.]o+.Z 1oHoHoHoHoHoHoHoHoHoHoH",
"oHoHoHoHoHoHoHoHoHoHoHoHoH.&o0.t.>.O )XS.0 Q y ^ Oow.Gof.2.]o+.2 PXC.] J A.-oHoHoHoHoHoHoHoHoHoH",
"oHoHoHoHoHoHoHoHoHoHoHoF.+XvXI.j.jX#X#o9 qX}...HXp.T KX& 6 TXJXlXA $ C.]o+ 5oHoHoHoHoHoHoHoHoHoH",
"oHoHoHoHoHoHoHoHoHX: [X(XUororororor.j.j.6.W i , nX7 mXZX^X|XkXDXxokX<Xi.] AXGoHoHoHoHoHoHoHoHoH",
"oHoHoHoHoHoHoHoHX'X( ` ` ` ` `.x.xXUororX oD !Xo b _Xh.! zoh.`XdXu.<.q f.2X*X,oHoHoHoHoHoHoHoHoH",
"oHoHoHoHoHoHoHXLX3XRXRXRXRXRXRXR ` ` `.x Y.WX;.iX/ dX_.!X>X~om #XQ./.q f.2X*X,oHoHoHoHoHoHoHoHoH",
"oHoHoHoHoHoH >X8 ] ] ] ] ] ] ]X8XRXRXR ` r.^...a.|oC M ; +Xcot.}o,o.X<Xi.] AXGoHoHoHoHoHoHoHoHoH",
"oHoHoHoHoH H h h h hX0X0XW h h h h ]X8XRX!.u.'oM w.e *X1 }.S.* xo5 4 I.]o+ 5oHoHoHoHoHoHoHoHoHoH",
"oHoHoHoHo#.YX0X0.R.R.R.R.R.RX0X0X0 h h h.(.K.no> oX/XTX6.f } +X>.:o<Xn j A.-oHoHoHoHoHoHoHoHoHoH",
"oHoHoHX].I.R loGoGoGoGoGoGoGoG l l.RX0X0XR.8.=.oX2X= ~oe 8.{ ;.! &o;Xt G 1oHoHoHoHoHoHoHoHoHoHoH",
"oHoHoHX0oGoGoG.Q.Q.Q.Q.Q.Q.Q.Q.QoGoG l.RX0.X.Kod i.a R ~ 9XF.bX5o&._XN -o8oHoHoHoHoHoHoHoHoHoHoH",
"oHoHoGoG.Q.Q.%.% . . . . . . ..%.Q.QoGoG l h u :.4XH.aX=X/.eoCon.P ao=.g VoHoHoHoHoHoHoHoHoHoHoH",
"oHoH.Q.Q.% .o o o .;.;.;.;o o o  . ..Q.QoGoGX% %XX.4 i /oX w.|Xg.$opX/ e poHoHoHoHoHoHoHoHoHoHoH",
"oHoH.% .o o .;.; S S S S S S.;.;.;o o .%.Q.QoGo@ % :od.oo>oM.a.iojoj Z.DX.oHoHoHoHoHoHoHoHoHoHoH",
"oH.%o o .; SooooXMXMXMXMXMXMXMoo S.;.;o  ..Q.QoGX% u.K X.n.'ozX;o> iXzXVXfoHoHoHoHoHoHoHoHoHoHoH",
"oHo .;.;ooXMXM F F F F F F F FXMXMoo S.;o  ..%.QoG h c W.@o7.=.WXr.W.nXP EX{oHoHoHoHoHoHoHoHoHoH",
"oH.; SooXM F F <XBXBX+X+X+XB < < FXMXM S.;o  ..QoG lX0XRXsX! ro*.6 Y q.N BX@oHoHoHoHoHoHoHoHoHoH",
"oH SXMXM F <XBX+X+ 3 3 3 3.dX+X+XB F FXM S.;o  ..QoG lX0 hX8XR `or.jX# 2Xa.UoHoHoHoHoHoHoHoHoHoH",
"oHooXM FXBX+.d 3oqoqoqoqoqoq 3 3X+XB < FXM S.;o .%.QoG.RXW ]XR `.xor.j 2ouo3oHoHoHoHoHoHoHoHoHoH",
"oHXM FXBX+ 3oqX$.k.k.k.k.k.kX$oq 3X+XB < FXM SXb ..QoG lX0 hX8oa.xor.jo9 7XmoHoHoHoHoHoHoHoHoHoH",
"oH F <X+ 3oq.k.koyoyXYXYoyoy (.koq 3X+XB FXMoo.;o .%.QoGX0 h ]XR `or.jX# sXKoHoHoHoHoHoHoHoHoHoH",
"oH <X+ 3oq.k (oyXY.c ' ' '.cXYoy.koq 3X+ < FXM So  ..QoG.RX0 ]XR `XUorX# vogoHoHoHoHoHoHoHoHoHoH",
"oH <X+ 3X$.koy.c ' gXEXEXE ' 'XYoy.koq 3XB FXM S.;o .QoG lX0 hXR `.xor.j =oHoHoHoHoHoHoHoHoHoHoH",
"oHXB 3oq.koyXY 'XEX9X9 {X9XE ' 'oy.kX$ 3X+ <XOoo.;o .%.Q lX0 hX8oa.x.VXj.1.so$oHoHoHoHoHoHoHoHoH",
"oHoH 3X$.kXY 'XEX9 k k k k {XE 'XYoy.k 3X+ < FXM.;o .%.Q lX0 hX8XRXqoOo$.7o:o:o:oHoHoHoHoHoHoHoH",
"oHoH 3X$ (XY 'XE {oSXe.EXe kX9 g.coy.koqX+XB FXM So  ..QoGX0 hX8oc.,.5.9.ro6.po6o4oHoHoHoHoHoHoH",
"oHoH 3X$oyXY 'XE kXe.E  Xe kX9XE.coy.koq.dXB FXM So  ..QoGX0 h ]oA.3.9o4.h.vos.v.hoHoHoHoHoHoHoH",
"oHoHoHX$oyXY 'XE {oS.E.EXe kX9 g.coy.koqX+XB FXM So  ..QoGX0 hX8.#o%o2.hos.Bol.B.moHoHoHoHoHoHoH",
"oHoHoHoH.kXY 'XEX9 k koS k {XE 'XYoy.k 3X+ < FXM.;o .%.Q lX0 hX8.~o-.yoi.Box.J.F.BoHoHoHoHoHoHoH",
"oHoHoHoH.koyXY 'XEX9 { {X9XE g 'oy.kX$ 3X+ < Foo.;o .%.Q lX0 hX8oc.9o6os.CoboSob.CoHoHoHoHoHoHoH",
"oHoHoHoHoH.koy.c ' gXEXEXE ' 'XYoy.koq 3X+ FXM S.;o .QoG lX0 hXRo1X)o6.vol.JoVoboHoHoHoHoHoHoHoH",
"oHoHoHoHoHoH (oyXY.c ' ' '.cXYoy.koq 3X+ < FXM So  ..QoG.RX0 ] DoHoHoH.l.M.A.FoHoHoHoHoHoHoHoHoH",
"oHoHoHoHoHoHoH.koyoyXYXYoyoy (.kX$ 3X+XB FXMoo.;o .%.QoGX0oB.)oHoHoHoHoHoHoHoHoHoHoHoHoHoHoHoHoH",
"oHoHoHoHoHoHoHoH.k.k.k.k.k.kX$oq 3X+X+ < FXM S.; ..QoG l.I.[oHoHoHoHoHoHoHoHoHoHoHoHoHoHoHoHoHoH",
"oHoHoHoHoHoHoHoHoHoHoqX$oqoq 3 3X+XB < FXM S.;o .%.QoGoZoNoHoHoHoHoHoHoHoHoHoHoHoHoHoHoHoHoHoHoH",
"oHoHoHoHoHoHoHoHoHoHoH 3 3.dX+X+XB F FXM S.;o  ..QoG loHoHoHoHoHoHoHoHoHoHoHoHoHoHoHoHoHoHoHoHoH",
"oHoHoHoHoHoHoHoHoHoHoHoHoHoH < < FXMXM S.;o  ..QoHoHoHoHoHoHoHoHoHoHoHoHoHoHoHoHoHoHoHoHoHoHoHoH",
"oHoHoHoHoHoHoHoHoHoHoHoHoHoHoHoHoHoHoHoHoHoHoHoHoHoHoHoHoHoHoHoHoHoHoHoHoHoHoHoHoHoHoHoHoHoHoHoH"
};
