/* XPM */
static char * corsix_th_xpm[] = {
"32 32 299 2",
"  	c None",
". 	c #717171",
"+ 	c #767676",
"@ 	c #797979",
"# 	c #7B7B7B",
"$ 	c #828282",
"% 	c #818181",
"& 	c #808080",
"* 	c #7E7E7E",
"= 	c #7D7D7D",
"- 	c #7C7C7C",
"; 	c #7A7A7A",
"> 	c #787878",
", 	c #757575",
"' 	c #747474",
") 	c #E2E2E2",
"! 	c #E6E6E6",
"~ 	c #E7E7E7",
"{ 	c #E8E8E8",
"] 	c #E9E9E9",
"^ 	c #EAEAEA",
"/ 	c #171717",
"( 	c #151515",
"_ 	c #131313",
": 	c #121212",
"< 	c #101010",
"[ 	c #0F0F0F",
"} 	c #0D0D0D",
"| 	c #0B0B0B",
"1 	c #090909",
"2 	c #070707",
"3 	c #050505",
"4 	c #030303",
"5 	c #010101",
"6 	c #000000",
"7 	c #1C1C1C",
"8 	c #6E6E6E",
"9 	c #EBEBEB",
"0 	c #ECECEC",
"a 	c #CCD3CC",
"b 	c #9BAE9B",
"c 	c #9BAE9C",
"d 	c #141814",
"e 	c #141514",
"f 	c #111111",
"g 	c #020202",
"h 	c #6F6F6F",
"i 	c #EDEDED",
"j 	c #5F9560",
"k 	c #09900B",
"l 	c #088D0B",
"m 	c #078709",
"n 	c #057607",
"o 	c #046504",
"p 	c #092609",
"q 	c #060606",
"r 	c #040404",
"s 	c #727272",
"t 	c #EEEEEE",
"u 	c #EFEFEF",
"v 	c #C0C2C0",
"w 	c #579258",
"x 	c #0A980D",
"y 	c #0A960D",
"z 	c #09930C",
"A 	c #088E0B",
"B 	c #067607",
"C 	c #0A350A",
"D 	c #0A0A0A",
"E 	c #080808",
"F 	c #F0F0F0",
"G 	c #5C845D",
"H 	c #156717",
"I 	c #365B36",
"J 	c #C5CBC5",
"K 	c #49824A",
"L 	c #0B9D0F",
"M 	c #0B9B0F",
"N 	c #0A990E",
"O 	c #09940C",
"P 	c #0C350C",
"Q 	c #191919",
"R 	c #101D10",
"S 	c #043104",
"T 	c #0D1A0D",
"U 	c #0E0E0E",
"V 	c #0C0C0C",
"W 	c #F1F1F1",
"X 	c #C4CBC4",
"Y 	c #127B15",
"Z 	c #0C9A10",
"` 	c #175C18",
" .	c #204C21",
"..	c #0CA311",
"+.	c #0CA110",
"@.	c #0B990E",
"#.	c #066D08",
"$.	c #071407",
"%.	c #064607",
"&.	c #047005",
"*.	c #016E01",
"=.	c #043204",
"-.	c #707070",
";.	c #F2F2F2",
">.	c #F3F3F3",
",.	c #39773A",
"'.	c #0DA411",
").	c #0DA611",
"!.	c #196D1C",
"~.	c #245E25",
"{.	c #0DA211",
"].	c #0CA210",
"^.	c #0E6410",
"/.	c #09370A",
"(.	c #078009",
"_.	c #078909",
":.	c #057F06",
"<.	c #027303",
"[.	c #014D01",
"}.	c #0D210D",
"|.	c #94AA94",
"1.	c #0C8C0F",
"2.	c #0CA010",
"3.	c #0DA612",
"4.	c #0EA812",
"5.	c #1F7821",
"6.	c #2E462E",
"7.	c #133013",
"8.	c #0F5612",
"9.	c #0A950D",
"0.	c #088D0A",
"a.	c #068307",
"b.	c #037704",
"c.	c #006A00",
"d.	c #033503",
"e.	c #F4F4F4",
"f.	c #F5F5F5",
"g.	c #6E946F",
"h.	c #0F8C12",
"i.	c #0EA712",
"j.	c #2B662B",
"k.	c #0B7F0D",
"l.	c #0C9E0F",
"m.	c #08900B",
"n.	c #068608",
"o.	c #047A05",
"p.	c #016D01",
"q.	c #014E01",
"r.	c #0D1B0D",
"s.	c #F6F6F6",
"t.	c #F7F7F7",
"u.	c #AAB9AA",
"v.	c #247C27",
"w.	c #2B622B",
"x.	c #0A8A0E",
"y.	c #0C9F10",
"z.	c #09910C",
"A.	c #078809",
"B.	c #047C05",
"C.	c #016301",
"D.	c #063C06",
"E.	c #121412",
"F.	c #F8F8F8",
"G.	c #F9F9F9",
"H.	c #29802B",
"I.	c #285B29",
"J.	c #0C950F",
"K.	c #09920C",
"L.	c #077C08",
"M.	c #064507",
"N.	c #132013",
"O.	c #181818",
"P.	c #8DA98D",
"Q.	c #258927",
"R.	c #0DA512",
"S.	c #255625",
"T.	c #0C9F11",
"U.	c #057506",
"V.	c #062E07",
"W.	c #171A17",
"X.	c #4C834C",
"Y.	c #0C9210",
"Z.	c #0EA912",
"`.	c #225522",
" +	c #0CA211",
".+	c #0DA311",
"++	c #0A980E",
"@+	c #068708",
"#+	c #047805",
"$+	c #013E01",
"%+	c #0A270A",
"&+	c #161616",
"*+	c #85A585",
"=+	c #0B950F",
"-+	c #0DA712",
";+	c #1F4F1F",
">+	c #0C9810",
",+	c #0B9C0F",
"'+	c #0A970D",
")+	c #068508",
"!+	c #037904",
"~+	c #006C01",
"{+	c #014201",
"]+	c #227024",
"^+	c #0B9B0E",
"/+	c #0DA511",
"(+	c #207624",
"_+	c #525353",
":+	c #3E4C40",
"<+	c #078B0A",
"[+	c #058107",
"}+	c #037503",
"|+	c #006900",
"1+	c #082B08",
"2+	c #859D85",
"3+	c #0B900E",
"4+	c #0D9A10",
"5+	c #237724",
"6+	c #138917",
"7+	c #227724",
"8+	c #5D6061",
"9+	c #333F36",
"0+	c #0B9A0E",
"a+	c #087D0B",
"b+	c #047D05",
"c+	c #027102",
"d+	c #014301",
"e+	c #29702A",
"f+	c #227223",
"g+	c #728E72",
"h+	c #18791A",
"i+	c #148618",
"j+	c #0B8B0E",
"k+	c #054606",
"l+	c #123712",
"m+	c #046206",
"n+	c #006000",
"o+	c #0F1E0F",
"p+	c #141414",
"q+	c #E2E3E2",
"r+	c #177D18",
"s+	c #088F0B",
"t+	c #054B05",
"u+	c #232323",
"v+	c #1B211B",
"w+	c #064206",
"x+	c #072D07",
"y+	c #147616",
"z+	c #044005",
"A+	c #212121",
"B+	c #1F1F1F",
"C+	c #1A1A1A",
"D+	c #4B7B4C",
"E+	c #09750C",
"F+	c #046805",
"G+	c #0A2E0A",
"H+	c #1D1D1D",
"I+	c #1B1B1B",
"J+	c #29742A",
"K+	c #084408",
"L+	c #E4E4E4",
"M+	c #0E5D0E",
"N+	c #017102",
"O+	c #044404",
"P+	c #497949",
"Q+	c #006400",
"R+	c #0E270E",
"S+	c #A3B3A3",
"T+	c #025F02",
"U+	c #024802",
"V+	c #161716",
"W+	c #1B5C1B",
"X+	c #E5E5E5",
"Y+	c #5E7D5E",
"Z+	c #015301",
"`+	c #0E110E",
" @	c #6D6D6D",
".@	c #D7D7D7",
"+@	c #0D450D",
"@@	c #032C03",
"#@	c #6B6B6B",
"$@	c #E3E3E3",
"%@	c #ADB7AD",
"&@	c #3C713C",
"*@	c #195E19",
"=@	c #0B5C0B",
"-@	c #065906",
";@	c #014F01",
">@	c #024902",
",@	c #024402",
"'@	c #072207",
")@	c #676767",
"!@	c #E1E1E1",
"~@	c #DDDDDD",
"{@	c #E0E0E0",
"]@	c #8E8E8E",
"^@	c #5A5A5A",
"/@	c #5C5C5C",
"(@	c #8B8B8B",
"    . + + @ @ @ @ # # # @ @ @ @ $ $ % & * = - ; @ > + , ' , >   ",
"  ) ! ~ { { ] ] ^ ^ ^ ^ ^ ^ ] ] / ( _ : < [ } | 1 2 3 4 5 6 7 . ",
"8 ~ { { ] ^ ^ 9 9 9 0 0 9 a b c d e _ _ _ f [ } | 1 2 3 g 6 6 h ",
". { ] ^ 9 9 0 i i i i i i j k l m n o p ( _ f [ } | 1 q r g 6 h ",
"s ] ^ 9 0 i t t u ~ v u u w x y z A B C / ( _ f [ } D E q 4 5 h ",
"+ ^ 0 i i t u F F G H I J K L M N O B P Q R S T f U V D 2 3 g h ",
"> 0 i t u F W W X Y L Z `  ...+.L @.#.$.%.&.*.=.: < } | E q 4 -.",
"> i t u F W ;.>.,.L +.'.).!.~.{.].^./.(._.:.<.[.}.f [ V D 2 r -.",
"> t u F W ;.>.|.1.2.'.3.4.4.5.6.7.8.M 9.0.a.b.c.d.: < } | E 3 -.",
"- t F W ;.e.f.g.h.].).i.4.4.4.j.k.{.l.x m.n.o.p.q.r.f U V 1 q -.",
"- u W ;.>.f.s.t.u.v.3.4.4.4.4.w.x.'.y.N z.A.B.C.D.E.: [ V D 2 -.",
"- F W >.e.s.t.F.G.~ H.4.4.3.4.I.J.'.2.@.K.L.M.N.O.( : [ } D 2 s ",
"* F ;.>.f.s.F.F.P.Q.R.4.4.i.4.S.T.'.y.N z.U.V.W.O.( _ < } D E s ",
"* F ;.>.f.s.F.X.Y.+.'.3.4.4.Z.`. +.+l.++m.@+#+$+%+&+_ < } | E s ",
"* F ;.>.f.s.F.*+=+l.{.).-+i.i.;+>++.,+'+A )+!+~+{+E._ < } | E s ",
"* F ;.>.f.s.F.e.]+^+y.{.'./+(+_+:+l.N z <+[+}+|+1+( _ < } D E s ",
"- F W >.e.f.t.F.2+3+M 4+5+6+7+8+9+0+a+l n.b+c+d+/ ( : [ } D 2 s ",
"- u W ;.>.f.s.t.s.e+f+g+>.h+,+i+j+9.k+l+m+b.n+o+/ p+: [ V 1 2 -.",
"- t F W ;.e.f.s.s.q+s.t.t.r+'+9.z s+t+u+v+w+x+Q &+_ f U | 1 q -.",
"> t u F W ;.>.e.f.f.s.s.f.y+m.A <+A.z+A+B+7 C+/ ( : < } | E 3 -.",
"> i t u F W ;.>.>.e.e.e.e.D+E+)+a.F+G+B+H+I+Q &+p+f [ V D 2 r -.",
"> 0 i t u F W W ;.;.;.;.;.;.J+B.!+K+B+H+I+Q / ( : < } | E q 4 -.",
"+ ^ 0 i i t u F F F W W F L+M+N+*.O+H+I+Q / ( _ f U V D 2 3 g h ",
"s ] ^ 9 0 i t t u u u u u P+c.c.c.Q+R+Q / ( _ f [ } D E q 4 5 h ",
". { ] ^ 9 9 0 0 i i i i S+T+c.c.c.c.U+V+( _ f [ } | 1 q r g 6 h ",
". ~ { { ] ^ ^ 9 9 9 0 { W+c.c.c.c.c.|+x+_ f [ } | 1 2 3 g 6 6 h ",
". X+! ~ { { ] ] ^ ^ ^ Y+|+c.c.c.c.c.c.Z+`+[ } | 1 2 3 4 5 6 6 h ",
" @L+X+X+! ~ ~ { { { .@+@c.c.c.c.c.c.c.c.@@V D 1 2 3 4 5 6 6 6 h ",
"#@) $@L+X+X+! ! ! ! ~ %@&@*@=@-@Z+;@>@,@'@D E q 3 4 5 6 6 6 6 h ",
")@!@) ) $@L+L+L+X+X+X+X+X+X+L+L+U V | D 1 2 q r g 5 6 6 6 6 6 h ",
"  ~@{@!@!@) ) $@$@$@$@$@$@$@$@) | 1 E 2 q 3 4 g 6 6 6 6 6 6 &+]@",
"    ^@^@^@^@^@/@/@/@/@/@/@/@/@^@; @ > > + , , ' ' ' ' ' ' ' (@  "};
