/* XPM */
static char * d4x_xpm[] = {
"48 48 795 2",
"  	c None",
". 	c #212121",
"+ 	c #202020",
"@ 	c #222223",
"# 	c #242427",
"$ 	c #2C2C34",
"% 	c #232326",
"& 	c #212122",
"* 	c #3C3D54",
"= 	c #2F303C",
"- 	c #232428",
"; 	c #242426",
"> 	c #232325",
", 	c #434462",
"' 	c #63659A",
") 	c #323241",
"! 	c #202021",
"~ 	c #242425",
"{ 	c #232220",
"] 	c #3B381F",
"^ 	c #3B371F",
"/ 	c #343020",
"( 	c #27272B",
"_ 	c #65679D",
": 	c #8E8FEB",
"< 	c #6769A5",
"[ 	c #26262B",
"} 	c #3C3C3C",
"| 	c #313131",
"1 	c #A1901A",
"2 	c #FFDA19",
"3 	c #FFD21D",
"4 	c #FFCA21",
"5 	c #FCBF25",
"6 	c #D99F27",
"7 	c #AF7C28",
"8 	c #735226",
"9 	c #312921",
"0 	c #252528",
"a 	c #7071A3",
"b 	c #9B9DFC",
"c 	c #9799FC",
"d 	c #57588C",
"e 	c #313132",
"f 	c #404040",
"g 	c #434343",
"h 	c #94851B",
"i 	c #FFC225",
"j 	c #FFB929",
"k 	c #FFB02D",
"l 	c #FFA730",
"m 	c #FF9F34",
"n 	c #FC9438",
"o 	c #B66933",
"p 	c #493326",
"q 	c #5F607F",
"r 	c #A7A9FA",
"s 	c #A3A5FF",
"t 	c #8D8FEA",
"u 	c #37384F",
"v 	c #474747",
"w 	c #373737",
"x 	c #2B2B2B",
"y 	c #80722E",
"z 	c #E7C021",
"A 	c #FAC722",
"B 	c #FCC025",
"C 	c #FDB829",
"D 	c #FF9638",
"E 	c #FF8D3C",
"F 	c #FD8440",
"G 	c #FF7B3C",
"H 	c #B6572F",
"I 	c #3B2922",
"J 	c #44455B",
"K 	c #9C9EEA",
"L 	c #ABADFF",
"M 	c #A4A6FE",
"N 	c #7577C1",
"O 	c #272728",
"P 	c #555555",
"Q 	c #222224",
"R 	c #303030",
"S 	c #3E3E3E",
"T 	c #81663A",
"U 	c #F08F38",
"V 	c #D97D3B",
"W 	c #FF7237",
"X 	c #FE6832",
"Y 	c #F55B2D",
"Z 	c #773523",
"` 	c #343441",
" .	c #8C8ED8",
"..	c #A2A5FF",
"+.	c #999CFE",
"@.	c #545580",
"#.	c #363636",
"$.	c #4A4A4A",
"%.	c #1E1E1E",
"&.	c #26272F",
"*.	c #2D2D3E",
"=.	c #222226",
"-.	c #222222",
";.	c #272727",
">.	c #262626",
",.	c #282828",
"'.	c #976C37",
").	c #FF9A36",
"!.	c #FF923A",
"~.	c #B56F3D",
"{.	c #50443F",
"].	c #B35C38",
"^.	c #FD6832",
"/.	c #FF5E2E",
"(.	c #FE5529",
"_.	c #FF4B24",
":.	c #AB3520",
"<.	c #232020",
"[.	c #6E70B1",
"}.	c #9DA1FF",
"|.	c #9FA2FF",
"1.	c #9396FF",
"2.	c #8A8CE9",
"3.	c #30303E",
"4.	c #4B4B4B",
"5.	c #333333",
"6.	c #2C2D3C",
"7.	c #6465B7",
"8.	c #6668BB",
"9.	c #505288",
"0.	c #303143",
"a.	c #252525",
"b.	c #B07439",
"c.	c #FF893E",
"d.	c #7A4A32",
"e.	c #3B3B3B",
"f.	c #6B463B",
"g.	c #F1532A",
"h.	c #FF4220",
"i.	c #FF391C",
"j.	c #C82C19",
"k.	c #2C2324",
"l.	c #6769A8",
"m.	c #9599FF",
"n.	c #9093FF",
"o.	c #9395FF",
"p.	c #7274C4",
"q.	c #28282A",
"r.	c #4F4F4F",
"s.	c #232323",
"t.	c #3E3F62",
"u.	c #8182E7",
"v.	c #8A8CF9",
"w.	c #8587F0",
"x.	c #6C6DB9",
"y.	c #2D2E3A",
"z.	c #292929",
"A.	c #C97B3B",
"B.	c #FF803E",
"C.	c #483025",
"D.	c #242424",
"E.	c #51413D",
"F.	c #E33D22",
"G.	c #FF351A",
"H.	c #FF2C15",
"I.	c #FF2713",
"J.	c #B61F15",
"K.	c #333446",
"L.	c #8183EA",
"M.	c #8A8CFF",
"N.	c #8A8CFC",
"O.	c #575894",
"P.	c #323232",
"Q.	c #3D3D3D",
"R.	c #191919",
"S.	c #25252A",
"T.	c #212123",
"U.	c #5A5A93",
"V.	c #9192FC",
"W.	c #9192FF",
"X.	c #8E90F4",
"Y.	c #333343",
"Z.	c #2D2D2D",
"`.	c #E17D3E",
" +	c #FF773A",
".+	c #242221",
"++	c #503E3C",
"@+	c #E92E1A",
"#+	c #FF2311",
"$+	c #FF1A0D",
"%+	c #FF1108",
"&+	c #591C1B",
"*+	c #6668B8",
"=+	c #8587FC",
"-+	c #7D7FED",
";+	c #383954",
">+	c #6C6CB4",
",+	c #9597FF",
"'+	c #9093F4",
")+	c #30303F",
"!+	c #F37C3E",
"~+	c #FD6D35",
"{+	c #5F3936",
"]+	c #FA1B0E",
"^+	c #FF0804",
"/+	c #B80A0A",
"(+	c #5A5DA2",
"_+	c #7B7DEC",
":+	c #6C6ECF",
"<+	c #282934",
"[+	c #414141",
"}+	c #1A1A1A",
"|+	c #252529",
"1+	c #302F3E",
"2+	c #7475BE",
"3+	c #8F90F0",
"4+	c #2B2B35",
"5+	c #353535",
"6+	c #FF6D35",
"7+	c #FC6331",
"8+	c #8B90E6",
"9+	c #6E71AF",
"0+	c #525477",
"a+	c #373949",
"b+	c #2C2D37",
"c+	c #222325",
"d+	c #AB2520",
"e+	c #FF0000",
"f+	c #DF0303",
"g+	c #535695",
"h+	c #6B6FD1",
"i+	c #5659A0",
"j+	c #272729",
"k+	c #0E0E0E",
"l+	c #27272E",
"m+	c #58598E",
"n+	c #242428",
"o+	c #4F3E37",
"p+	c #FF6832",
"q+	c #FC552A",
"r+	c #959BFF",
"s+	c #989DFF",
"t+	c #9196F7",
"u+	c #878CEA",
"v+	c #8890EC",
"w+	c #6166A0",
"x+	c #6F2B2A",
"y+	c #F60000",
"z+	c #D80404",
"A+	c #585CA6",
"B+	c #5E63B9",
"C+	c #484B82",
"D+	c #2A2A2A",
"E+	c #4F3D36",
"F+	c #FF5529",
"G+	c #FC4B25",
"H+	c #9399FF",
"I+	c #8E94F7",
"J+	c #8A8FF2",
"K+	c #878CF1",
"L+	c #7E84DE",
"M+	c #555A8E",
"N+	c #A01313",
"O+	c #EC0000",
"P+	c #B00E12",
"Q+	c #4A508E",
"R+	c #595EB0",
"S+	c #424577",
"T+	c #232324",
"U+	c #4F3C36",
"V+	c #FC4221",
"W+	c #8D93F8",
"X+	c #858BED",
"Y+	c #8389E9",
"Z+	c #6E73C1",
"`+	c #414465",
" @	c #4F1919",
".@	c #EF0000",
"+@	c #E70000",
"@@	c #DD0000",
"#@	c #662D45",
"$@	c #424A83",
"%@	c #434983",
"&@	c #404378",
"*@	c #262731",
"=@	c #1F1F20",
"-@	c #523D38",
";@	c #FC391D",
">@	c #6C6FBA",
",@	c #585C94",
"'@	c #414364",
")@	c #282932",
"!@	c #5F1717",
"~@	c #EE0101",
"{@	c #A51213",
"]@	c #303553",
"^@	c #343959",
"/@	c #323456",
"(@	c #34375C",
"_@	c #44477D",
":@	c #393A5D",
"<@	c #26262D",
"[@	c #533D38",
"}@	c #FC3017",
"|@	c #232327",
"1@	c #461B1B",
"2@	c #BB0909",
"3@	c #F10000",
"4@	c #312828",
"5@	c #24242A",
"6@	c #515399",
"7@	c #6E70CA",
"8@	c #525381",
"9@	c #1F2021",
"0@	c #1D1D1F",
"a@	c #141414",
"b@	c #503B38",
"c@	c #FD2713",
"d@	c #7E1F19",
"e@	c #8C1B15",
"f@	c #A41511",
"g@	c #DF0806",
"h@	c #FB0000",
"i@	c #AE1010",
"j@	c #39312C",
"k@	c #2B2920",
"l@	c #2B2820",
"m@	c #212120",
"n@	c #292937",
"o@	c #4E4F90",
"p@	c #7A7CE2",
"q@	c #5B5B87",
"r@	c #1E1E1F",
"s@	c #201F1F",
"t@	c #2B2522",
"u@	c #2A2421",
"v@	c #232328",
"w@	c #D70202",
"x@	c #7E2323",
"y@	c #6D602E",
"z@	c #E2B821",
"A@	c #E7B621",
"B@	c #E7AF24",
"C@	c #E7AA27",
"D@	c #E3A12A",
"E@	c #6A4E25",
"F@	c #494A84",
"G@	c #6162B5",
"H@	c #0E0E10",
"I@	c #101010",
"J@	c #7D482C",
"K@	c #E46C37",
"L@	c #E76533",
"M@	c #D45A2F",
"N@	c #3C2822",
"O@	c #3F3F62",
"P@	c #6767B8",
"Q@	c #484977",
"R@	c #2E2E3E",
"S@	c #E42717",
"T@	c #CD0707",
"U@	c #852323",
"V@	c #483B38",
"W@	c #937F2A",
"X@	c #FBC921",
"Y@	c #FFC424",
"Z@	c #FFB829",
"`@	c #FFB22C",
" #	c #FDAF2D",
".#	c #E79C2E",
"+#	c #674926",
"@#	c #25252E",
"##	c #4E4E8D",
"$#	c #1A1A21",
"%#	c #0A0A0A",
"&#	c #4D3325",
"*#	c #EE6D37",
"=#	c #FC602F",
"-#	c #FF5D2D",
";#	c #E9532A",
">#	c #352521",
",#	c #474778",
"'#	c #7A7AE2",
")#	c #7D7EE8",
"!#	c #7475D3",
"~#	c #5F60A6",
"{#	c #46466F",
"]#	c #2C2C38",
"^#	c #7E342F",
"/#	c #CD1B15",
"(#	c #E20E0B",
"_#	c #D70A0A",
":#	c #B21414",
"<#	c #7E2626",
"[#	c #4E3939",
"}#	c #393939",
"|#	c #3B3930",
"1#	c #B99925",
"2#	c #ECBC21",
"3#	c #ECB525",
"4#	c #F4B129",
"5#	c #FFB12C",
"6#	c #FFA432",
"7#	c #F5A02F",
"8#	c #755028",
"9#	c #202129",
"0#	c #1D1D21",
"a#	c #292320",
"b#	c #BC562F",
"c#	c #F95F2F",
"d#	c #FF4723",
"e#	c #F8572B",
"f#	c #7E3222",
"g#	c #1C1C1D",
"h#	c #5C5CA6",
"i#	c #7777D9",
"j#	c #7676D6",
"k#	c #7575D3",
"l#	c #7373CD",
"m#	c #6565AE",
"n#	c #424265",
"o#	c #2F2F2F",
"p#	c #373739",
"q#	c #363742",
"r#	c #292720",
"s#	c #463D21",
"t#	c #483C21",
"u#	c #483C22",
"v#	c #A27428",
"w#	c #F9A330",
"x#	c #FFA034",
"y#	c #FE9638",
"z#	c #E48636",
"A#	c #403024",
"B#	c #2D2420",
"C#	c #AF502D",
"D#	c #F45F2E",
"E#	c #FF4F27",
"F#	c #F65329",
"G#	c #993722",
"H#	c #201D1D",
"I#	c #1A1A23",
"J#	c #3C3C5C",
"K#	c #404063",
"L#	c #373750",
"M#	c #303042",
"N#	c #202022",
"O#	c #2E2E35",
"P#	c #373745",
"Q#	c #3C3D53",
"R#	c #53548A",
"S#	c #6B6EC5",
"T#	c #686AC0",
"U#	c #33344B",
"V#	c #2C2C3B",
"W#	c #292A37",
"X#	c #232329",
"Y#	c #2B2721",
"Z#	c #CA812F",
"`#	c #FB9438",
" $	c #FF8A3D",
".$	c #FC843E",
"+$	c #CD6A37",
"@$	c #2B2521",
"#$	c #3D2A22",
"$$	c #CC5A2F",
"%$	c #FD5227",
"&$	c #EF4D27",
"*$	c #803020",
"=$	c #261F1D",
"-$	c #0D0D0D",
";$	c #1C1C1C",
">$	c #26262A",
",$	c #2D2D34",
"'$	c #242429",
")$	c #252527",
"!$	c #696991",
"~$	c #9798E9",
"{$	c #9192F4",
"]$	c #8A8BF8",
"^$	c #8889F8",
"/$	c #8183F0",
"($	c #7A7DE7",
"_$	c #7476DD",
":$	c #7274DB",
"<$	c #6567C4",
"[$	c #5D5FB2",
"}$	c #2C2D43",
"|$	c #443224",
"1$	c #E78139",
"2$	c #FC833F",
"3$	c #FF793B",
"4$	c #FA7438",
"5$	c #BC542E",
"6$	c #DA5A2E",
"7$	c #FC5B2D",
"8$	c #FB5429",
"9$	c #EC4A25",
"0$	c #602A20",
"a$	c #1D1D1D",
"b$	c #161616",
"c$	c #1B1B1B",
"d$	c #121212",
"e$	c #080808",
"f$	c #6A6A96",
"g$	c #ABABFC",
"h$	c #A6A6FF",
"i$	c #9090FF",
"j$	c #8D8EFF",
"k$	c #8B8CFF",
"l$	c #8687FA",
"m$	c #8182F4",
"n$	c #7C7EEC",
"o$	c #7D7FF4",
"p$	c #7F81FA",
"q$	c #6E70D7",
"r$	c #585BAD",
"s$	c #262633",
"t$	c #643D29",
"u$	c #F7783B",
"v$	c #FE7237",
"w$	c #FF6632",
"x$	c #F85F2F",
"y$	c #FC5529",
"z$	c #F75028",
"A$	c #D54122",
"B$	c #512720",
"C$	c #090909",
"D$	c #070707",
"E$	c #58587D",
"F$	c #9B9BF4",
"G$	c #A3A3FE",
"H$	c #9595FF",
"I$	c #9292FF",
"J$	c #8E8EFF",
"K$	c #8A8BFF",
"L$	c #8889FF",
"M$	c #8687FC",
"N$	c #8586F9",
"O$	c #8385FC",
"P$	c #7F81FB",
"Q$	c #8688FC",
"R$	c #6B6DCA",
"S$	c #2E2F46",
"T$	c #232120",
"U$	c #A04C2C",
"V$	c #FC6732",
"W$	c #FF5B2C",
"X$	c #FF5127",
"Y$	c #F94D26",
"Z$	c #CF3D22",
"`$	c #352320",
" %	c #131313",
".%	c #030303",
"+%	c #000000",
"@%	c #010101",
"#%	c #020202",
"$%	c #52537B",
"%%	c #9595F2",
"&%	c #9F9FFD",
"*%	c #9090FC",
"=%	c #8C8CFC",
"-%	c #9090FE",
";%	c #888AFF",
">%	c #8D8FFE",
",%	c #898BFD",
"'%	c #8C8EFD",
")%	c #7677D4",
"!%	c #313245",
"~%	c #1C1A19",
"{%	c #643626",
"]%	c #E75D2E",
"^%	c #FD5A2B",
"/%	c #FD401F",
"(%	c #EF3A1E",
"_%	c #52241F",
":%	c #4E4F7A",
"<%	c #8686EC",
"[%	c #9393FA",
"}%	c #8D8DF6",
"|%	c #8989FA",
"1%	c #8A8AFC",
"2%	c #8A8BFC",
"3%	c #898AF7",
"4%	c #8788F3",
"5%	c #7C7EDC",
"6%	c #7B7DD7",
"7%	c #7A7CD7",
"8%	c #8688E0",
"9%	c #6D6EAC",
"0%	c #27272F",
"a%	c #1E1C1B",
"b%	c #884329",
"c%	c #F75D2E",
"d%	c #FE5027",
"e%	c #F24422",
"f%	c #FC3E1E",
"g%	c #FF361B",
"h%	c #FC2E17",
"i%	c #DA2816",
"j%	c #35201E",
"k%	c #050505",
"l%	c #46486D",
"m%	c #7D80DA",
"n%	c #8B8CF6",
"o%	c #8484EA",
"p%	c #8181E7",
"q%	c #8484F1",
"r%	c #8282ED",
"s%	c #6666B2",
"t%	c #3D3E5D",
"u%	c #323244",
"v%	c #1E1E20",
"w%	c #29221F",
"x%	c #A84B2B",
"y%	c #F55A2C",
"z%	c #FE5429",
"A%	c #F94B24",
"B%	c #9D3420",
"C%	c #4C2620",
"D%	c #E3321B",
"E%	c #FC2B15",
"F%	c #FF2411",
"G%	c #FB1C0E",
"H%	c #B71911",
"I%	c #291F1F",
"J%	c #171717",
"K%	c #2F2F3E",
"L%	c #7073BF",
"M%	c #797DD0",
"N%	c #797BD2",
"O%	c #7D7DDF",
"P%	c #7B7BDB",
"Q%	c #6161A6",
"R%	c #383953",
"S%	c #212222",
"T%	c #181818",
"U%	c #3C2720",
"V%	c #C7512C",
"W%	c #FB582B",
"X%	c #FE582B",
"Y%	c #EE4623",
"Z%	c #732C20",
"`%	c #5B221C",
" &	c #F42111",
".&	c #FD190C",
"+&	c #FB0905",
"@&	c #8F1010",
"#&	c #212020",
"$&	c #4D4E78",
"%&	c #7072BC",
"&&	c #7377C5",
"*&	c #6567A9",
"=&	c #6163A3",
"-&	c #44446B",
";&	c #060606",
">&	c #3A251F",
",&	c #D3522A",
"'&	c #F7572C",
")&	c #FC562A",
"!&	c #EC4221",
"~&	c #64291F",
"{&	c #242433",
"]&	c #2A201F",
"^&	c #A61812",
"/&	c #F81008",
"(&	c #FF0703",
"_&	c #8F0E0E",
":&	c #6F1313",
"<&	c #461A1A",
"[&	c #222020",
"}&	c #323242",
"|&	c #5F6098",
"1&	c #6365A2",
"2&	c #58588F",
"3&	c #4C4D77",
"4&	c #221916",
"5&	c #CA4B28",
"6&	c #F4562A",
"7&	c #F53F20",
"8&	c #7F2B1F",
"9&	c #2C2C41",
"0&	c #1D1D31",
"a&	c #991A14",
"b&	c #F50B05",
"c&	c #F60302",
"d&	c #FD0000",
"e&	c #E90000",
"f&	c #D60202",
"g&	c #CE0202",
"h&	c #C90202",
"i&	c #531616",
"j&	c #48496C",
"k&	c #606199",
"l&	c #4C4B74",
"m&	c #353549",
"n&	c #222225",
"o&	c #1F1F1F",
"p&	c #0C0C0C",
"q&	c #0B0B0B",
"r&	c #632E21",
"s&	c #F74C25",
"t&	c #FF6431",
"u&	c #FF582B",
"v&	c #FD361B",
"w&	c #B92A1A",
"x&	c #4C4D6C",
"y&	c #111119",
"z&	c #BA0E0C",
"A&	c #F90502",
"B&	c #FD0302",
"C&	c #F80000",
"D&	c #EB0000",
"E&	c #E10000",
"F&	c #D30000",
"G&	c #CB0000",
"H&	c #BE0101",
"I&	c #4B1717",
"J&	c #2D2E39",
"K&	c #565886",
"L&	c #464468",
"M&	c #2D2D39",
"N&	c #2C2C2C",
"O&	c #682D21",
"P&	c #E23D20",
"Q&	c #DF361D",
"R&	c #E0311A",
"S&	c #E72815",
"T&	c #B82316",
"U&	c #27201F",
"V&	c #61628B",
"W&	c #2A2B45",
"X&	c #8D1111",
"Y&	c #D70504",
"Z&	c #CC0505",
"`&	c #C80505",
" *	c #BF0505",
".*	c #BA0505",
"+*	c #B10505",
"@*	c #A90505",
"#*	c #9B0606",
"$*	c #311C1C",
"%*	c #151515",
"&*	c #41425F",
"**	c #41415F",
"=*	c #2B2120",
"-*	c #2B211F",
";*	c #2B201F",
">*	c #1A1313",
",*	c #19191F",
"'*	c #797BC8",
")*	c #6D6FCA",
"!*	c #231F1F",
"~*	c #2A1E1E",
"{*	c #291E1E",
"]*	c #281E1E",
"^*	c #271E1E",
"/*	c #1B1414",
"(*	c #2B2B36",
"_*	c #1D1D1E",
":*	c #44466A",
"<*	c #8789F7",
"[*	c #787AE0",
"}*	c #494A7A",
"|*	c #454570",
"1*	c #2C2C3C",
"2*	c #111111",
"3*	c #26262C",
"4*	c #7274C8",
"5*	c #8A8DFD",
"6*	c #8787FB",
"7*	c #8585FB",
"8*	c #5B5B9C",
"9*	c #434469",
"0*	c #898AF4",
"a*	c #8D8EFE",
"b*	c #8C8DFC",
"c*	c #6969B2",
"d*	c #1F1F21",
"e*	c #535489",
"f*	c #9293FC",
"g*	c #999AFE",
"h*	c #8383D4",
"i*	c #6666A4",
"j*	c #A1A1FE",
"k*	c #7B7BBC",
"l*	c #2C2C35",
"m*	c #7E7EC4",
"n*	c #7171A1",
"o*	c #2F2E35",
"p*	c #040404",
"q*	c #30303B",
"r*	c #363540",
"s*	c #2B2B32",
"t*	c #0F0F0F",
"                                                              . + + +                           ",
"                                                            @ + @ + #                           ",
"                                                        $ % & * = + -                           ",
"            + + + + + + + + +                         ; & > , ' ) ! ~                           ",
"          + + + { ] ^ / + + + + + +                 . . ( _ : < [ @ } |                         ",
"          + + { 1 2 3 4 5 6 7 8 9 + + +             & 0 a b c d + e f g                         ",
"          + + h 2 3 4 i j k l m n o p + + +       & . q r s t u + v w                           ",
"        + + x y z A B C k l m D E F G H I + +   & + J K L M N # O P x                           ",
"+ . ! Q + + R S S S S T l m U V F G W X Y Z + + + `  .....+.@.+ #.$.%.                          ",
"! + &.*.=.+ -.;.>.>.,.'.).!.~.f {.].^./.(._.:.<.> [.}.|.1.2.3.& 4.5.                            ",
"  + 6.7.8.9.0.@ + + a.b.!.c.d.| e.f f.g._.h.i.j.k.l.m.n.o.p.% q.r.s.                            ",
"  Q + t.u.v.w.x.y.+ z.A.c.B.C.+ D.| } E.F.G.H.I.J.K.L.M.N.O.+ P.Q.R.                            ",
"    S.T.U.V.W.X.Y.+ Z.`.B. +.+& + + ;.#.++@+#+$+%+&+*+=+-+;++ Q.;.                              ",
"      > [ >+,+'+)++ | !+ +~+= . + + + -.| {+]+%+^+/+(+_+:+<+-.[+}+                              ",
"      |+! 1+2+3+4++ 5+ +6+7+8+9+0+a+b+c+-.| d+^+e+f+g+h+i+T.j+e.k+                              ",
"        Q + l+m+n++ o+p+/.q+r+s+t+u+v+w+& -.x+e+y+z+A+B+C++ D+x                                 ",
"          . ! |+& + E+/.F+G+H+I+J+K+L+M+c++ N+y+O+P+Q+R+S++ T+.                                 ",
"            . ! + . U+F+_.V+W+X+Y+Z+`+% +  @.@+@@@#@$@%@&@*@+ ! =@+                             ",
"              + + s.-@_.h.;@>@,@'@)@+ + !@~@+@@@{@]@^@/@(@_@:@<@+ + ! & . +                     ",
"                + s.[@h.i.}@|@+ + + 1@2@3@+@@@2@4@+ + + T.5@6@7@8@T.+ + + + + ! 9@0@a@          ",
"                + s.b@G.H.c@d@e@f@g@h@3@+@@@i@j@k@k@l@l@m@n@o@p@q@r@s@t@t@u@& v@% + ! |@-       ",
"                + -.e.H.#+$+%+^+e+h@3@+@w@x@y@z@A@B@C@D@E@+ F@G@H@I@J@K@L@M@N@O@P@Q@R@T.+ + !   ",
"                + + w S@$+%+^+e+y+O+T@U@V@W@X@Y@Z@`@ #.#+#@###$#%#&#*#=#-#;#>#,#'#)#!#~#{#]#+ & ",
"                + + #.^#/#(#_#:#<#[#}#|#1#2#3#4#5#6#7#8#s@9#0#%#a#b#c#d#e#f#g#h#i#j#k#l#m#n#& + ",
"                + + o#S S S Q.e.p#q#; r#s#t#u#v#w#x#y#z#A#%.k+B#C#D#E#F#G#H#I#J#K#L#M#]#% + & N#",
"                + + -.;.O#P#Q#R#S#T#U#V#W#X#+ Y#Z#`# $.$+$@$#$$$c#%$&$*$=$-$;$+ + + + & >$,$'$%#",
"                  + )$!$~${$]$^$/$($_$:$<$[$}$+ |$1$2$3$4$5$6$7$8$9$0$a$-$b$c$;$a$s.;.D.;$d$-$e$",
"                @ & f$g$h$i$j$k$l$m$n$o$p$q$r$s$+ t$u$v$w$x$y$z$A$B$R.C$D$e$e$D$C$D$D$%#-$a@    ",
"              @ @ E$F$G$H$I$J$K$L$M$N$O$P$Q$R$S$a$T$U$V$W$X$Y$Z$`$ %.%+%@%#%@%                  ",
"            T.T.$%%%&%*%=%-%J$k$;%M.>%,%'%)%!%d$~%{%]%^%(.d#/%(%_%a$%#+%+%+%                    ",
"          & & :%<%[%}%|%1%2%3%4%5%6%7%8%9%0%k+a%b%c%F+d%e%f%g%h%i%j%%.k%+%+%                    ",
"        Q ! l%m%n%o%p%q%r%s%t%u%l+S.S.$ v%k+w%x%y%z%A%B%C%D%E%F%G%H%I%a$R.J%d$                  ",
"      Q + K%L%M%N%O%P%Q%R%@ + @ & S%@ T%%#U%V%W%X%Y%Z%<.+ `% &.&%++&@&#&+ + + b$                ",
"      T.Q $&%&&&*&=&-&|@+ & ;.R | z.c$;&>&,&'&)&!&~&g#{&a$]&^&/&(&e+~@_&:&<&[&c$k%              ",
"    ! + }&|&1&2&3&]#+ ! >.o#P.D+b$-$;&4&5&6&p+7&8&s@9&0&b$a&b&c&d&y+e&f&g&h&i&%..%              ",
"    ! & j&k&l&m&n&+ s.D+P.R o&p&  #%q&r&s&t&u&v&w&<.x&y&%.z&A&B&C&D&E&F&G&H&I&}+@%+%            ",
"  + + J&K&L&M&! ! >.o#| N&J%C$    .%R.O&P&Q&R&S&T&U&V&W&o&X&Y&Z&`& *.*+*@*#*$*%*+%+%            ",
"  & + &***l++ =@a.o#o#>.d$C$        + <.=*-*;*;*>*,*'*)*'$!*~*~*{*{*]*]*^*/*p&%#+%+%            ",
"  & + (*# + r@c$Z.Z.+ -$              + o&a$;$_*c$:*<*[*}*|*1*%.;$b$J%J%J%q&+%                  ",
"    T.+ + =@2*. ,.R.q&                        %*& 3*4*5*6*7*8*+ 0@.%                            ",
"      +     p&J%d$C$                            @ + 9*0*a*b*c*! d*D$                            ",
"              e$D$                                T.T.e*f*g*h*[ & C$                            ",
"                                                    ! [ i*j*k*@ Q ;&                            ",
"                                                    l+& l*m*n*+ o*p*                            ",
"                                                      S.+ q*r*+ s*.%                            ",
"                                                        T.+ + & t*k%                            ",
"                                                          ;$o&a@p*p*                            ",
"                                                              #%@%                              "};
