/* XPM */
static char * e_uae_xpm[] = {
"32 32 206 2",
"  	c None",
". 	c #CF3C21",
"+ 	c #DC411D",
"@ 	c #A7331F",
"# 	c #7F5241",
"$ 	c #D2452A",
"% 	c #D83F26",
"& 	c #AA3626",
"* 	c #8C5B4E",
"= 	c #CF5638",
"- 	c #E13F21",
"; 	c #C93615",
"> 	c #C95642",
", 	c #DD3B19",
"' 	c #C73014",
") 	c #946B55",
"! 	c #E04121",
"~ 	c #DF421D",
"{ 	c #874128",
"] 	c #AB6552",
"^ 	c #E03E23",
"/ 	c #DC3D21",
"( 	c #96422E",
"_ 	c #DC4A1F",
": 	c #E84C26",
"< 	c #A93E20",
"[ 	c #8D604F",
"} 	c #DC4C31",
"| 	c #E54826",
"1 	c #AF3420",
"2 	c #EB4D1C",
"3 	c #CC441B",
"4 	c #7A5241",
"5 	c #CC5A38",
"6 	c #E74C23",
"7 	c #CB4120",
"8 	c #EC5A17",
"9 	c #EC5919",
"0 	c #8C4C2A",
"a 	c #AF6C4E",
"b 	c #E85215",
"c 	c #E64F1B",
"d 	c #9A4F2E",
"e 	c #EB6517",
"f 	c #F9651B",
"g 	c #B0501B",
"h 	c #91674F",
"i 	c #E7611D",
"j 	c #F0611A",
"k 	c #B24717",
"l 	c #FF7A20",
"m 	c #DA6419",
"n 	c #815E44",
"o 	c #DC7237",
"p 	c #F76517",
"q 	c #CF5410",
"r 	c #FFA722",
"s 	c #FF9020",
"t 	c #FF8B20",
"u 	c #976633",
"v 	c #BE804E",
"w 	c #F97216",
"x 	c #F7751A",
"y 	c #975D2C",
"z 	c #F9B536",
"A 	c #FFAD2D",
"B 	c #C47D26",
"C 	c #A58154",
"D 	c #FE921F",
"E 	c #FF901D",
"F 	c #BB6911",
"G 	c #FFC02A",
"H 	c #EB9D26",
"I 	c #897147",
"J 	c #F3A239",
"K 	c #FFA522",
"L 	c #E68C17",
"M 	c #ECC152",
"N 	c #FFCC26",
"O 	c #FFC625",
"P 	c #977A38",
"Q 	c #D1A350",
"R 	c #FFB51D",
"S 	c #FFAA21",
"T 	c #A47B32",
"U 	c #FFCC23",
"V 	c #FFDA2A",
"W 	c #BF9A27",
"X 	c #AB9658",
"Y 	c #FFCB2E",
"Z 	c #FFC627",
"` 	c #C98D1F",
" .	c #537BC0",
"..	c #5889D8",
"+.	c #586371",
"@.	c #5082A7",
"#.	c #5281C7",
"$.	c #5690DC",
"%.	c #DDC752",
"&.	c #EDC32E",
"*.	c #FFDA2E",
"=.	c #E5BB25",
"-.	c #8C8152",
";.	c #F9CB44",
">.	c #FFD82D",
",.	c #EDB625",
"'.	c #6F94BF",
").	c #6692BF",
"!.	c #1F5589",
"~.	c #FFDA26",
"{.	c #FED82D",
"].	c #93873C",
"^.	c #D1BB56",
"/.	c #FFDF31",
"(.	c #A89241",
"_.	c #197DE5",
":.	c #2B8EF0",
"<.	c #1983ED",
"[.	c #238CEB",
"}.	c #255477",
"|.	c #DBD03B",
"1.	c #EDD82C",
"2.	c #FFE934",
"3.	c #B6A72B",
"4.	c #A89F58",
"5.	c #FFE333",
"6.	c #FFE532",
"7.	c #C7A522",
"8.	c #1277CA",
"9.	c #007FF6",
"0.	c #208BE9",
"a.	c #3E6580",
"b.	c #035FB6",
"c.	c #0481F3",
"d.	c #1C8CE7",
"e.	c #0E558B",
"f.	c #ABA831",
"g.	c #F3E836",
"h.	c #CAC328",
"i.	c #87834D",
"j.	c #ECDA45",
"k.	c #FFE730",
"l.	c #DDC122",
"m.	c #006CD4",
"n.	c #0078EE",
"o.	c #3786C6",
"p.	c #0074DB",
"q.	c #0188F6",
"r.	c #3285BE",
"s.	c #E1DF36",
"t.	c #DADA30",
"u.	c #828744",
"v.	c #C1BC54",
"w.	c #F7E832",
"x.	c #ECDC32",
"y.	c #9C9641",
"z.	c #006CD7",
"A.	c #037ADF",
"B.	c #4A7CA2",
"C.	c #007DE1",
"D.	c #539478",
"E.	c #C5D033",
"F.	c #C4D532",
"G.	c #89962E",
"H.	c #969853",
"I.	c #DBDA33",
"J.	c #E7DF39",
"K.	c #A9A430",
"L.	c #0074C5",
"M.	c #1B89D2",
"N.	c #3B6985",
"O.	c #1A616B",
"P.	c #96B42E",
"Q.	c #AECB33",
"R.	c #8CA326",
"S.	c #6B7248",
"T.	c #AEC13D",
"U.	c #C3D02E",
"V.	c #A5AE22",
"W.	c #007FBE",
"X.	c #3386A8",
"Y.	c #658C34",
"Z.	c #88BB37",
"`.	c #89B933",
" +	c #3D5D30",
".+	c #668931",
"++	c #94C031",
"@+	c #96BB2B",
"#+	c #7D8943",
"$+	c #0081A4",
"%+	c #2D8D6B",
"&+	c #60AB3F",
"*+	c #6CB445",
"=+	c #44782C",
"-+	c #236737",
";+	c #66B53C",
">+	c #6FB93D",
",+	c #63882C",
"'+	c #217B61",
")+	c #368D47",
"!+	c #3F9D45",
"~+	c #459041",
"{+	c #1D532B",
"]+	c #3E943B",
"^+	c #53AA44",
"/+	c #50973F",
"                                                                ",
"                                                                ",
"                                                                ",
"                                                                ",
"                                          . . . + @ # $ % &     ",
"                                          . . + @ * $ % & #     ",
"                                        = = - ; # > , ' )       ",
"                                        ! ! ~ { ] ^ / ( *       ",
"                                      _ _ : < [ } | 1 [         ",
"                                    2 2 2 3 4 5 6 7 4           ",
"                                    8 8 9 0 a b c d 4           ",
"                                  e e f g h i j k 0             ",
"                                l l l m n o p q n               ",
"                                r s t u v w x y n               ",
"                              z r A B C D E F u                 ",
"                            z z G H I J K L I                   ",
"                          M M N O P Q R S T I                   ",
"                          U U V W X Y Z ` P                     ",
" . ...+.@.#.$.+.        %.&.*.=.-.;.>.,.-.                      ",
" . ...'.+.#.$.).!.      %.~.{.].^./.>.(.-.                      ",
"  _._.:.@.!.<.[.}.}.  |.1.2.3.4.5.6.7.].                        ",
"  8.8.9.0.a.b.c.d.e.f.|.g.h.i.j.k.l.i.                          ",
"    m.m.n.o.}.p.q.r.f.s.t.u.v.w.x.y.i.                          ",
"      z.z.A.B.e.C.D.E.F.G.H.I.J.K.u.                            ",
"      L.L.L.M.N.O.P.Q.R.S.T.U.V.u.                              ",
"        L.W.W.X.Y.Z.`. +.+++@+#+#+                              ",
"          W.$+%+&+*+=+-+;+>+,+ +                                ",
"          W.'+)+!+~+{+]+^+/+-+                                  ",
"                                                                ",
"                                                                ",
"                                                                ",
"                                                                "};
