/* XPM */
static char * enigma_xpm[] = {
"48 48 68 1",
" 	c None",
".	c #000000",
"+	c #020202",
"@	c #010101",
"#	c #040404",
"$	c #030303",
"%	c #060606",
"&	c #080808",
"*	c #090909",
"=	c #0A0A0A",
"-	c #070707",
";	c #0E0E0E",
">	c #111111",
",	c #131313",
"'	c #050505",
")	c #101010",
"!	c #171717",
"~	c #1E1E1E",
"{	c #232323",
"]	c #252525",
"^	c #1D1D1D",
"/	c #151515",
"(	c #0D0D0D",
"_	c #222222",
":	c #303030",
"<	c #3B3B3B",
"[	c #434343",
"}	c #424242",
"|	c #3A3A3A",
"1	c #2B2B2B",
"2	c #1C1C1C",
"3	c #0F0F0F",
"4	c #454545",
"5	c #5B5B5B",
"6	c #6C6C6C",
"7	c #727272",
"8	c #696969",
"9	c #535353",
"0	c #373737",
"a	c #1F1F1F",
"b	c #808080",
"c	c #A1A1A1",
"d	c #B3B3B3",
"e	c #AEAEAE",
"f	c #919191",
"g	c #666666",
"h	c #1B1B1B",
"i	c #D6D6D6",
"j	c #FDFDFD",
"k	c #FFFFFF",
"l	c #E6E6E6",
"m	c #AAAAAA",
"n	c #313131",
"o	c #121212",
"p	c #FBFBFB",
"q	c #9E9E9E",
"r	c #4E4E4E",
"s	c #D4D4D4",
"t	c #2A2A2A",
"u	c #0C0C0C",
"v	c #F0F0F0",
"w	c #7E7E7E",
"x	c #DDDDDD",
"y	c #777777",
"z	c #2E2E2E",
"A	c #A0A0A0",
"B	c #575757",
"C	c #2F2F2F",
"                 ......                         ",
"             ..............                     ",
"           ..................                   ",
"         ++@@@.................                 ",
"        ####$+@.................                ",
"       %&*=*&%#+@................               ",
"      -=;>,,>;*'+@................              ",
"     %=)!~{]{^/(%+@................             ",
"    #&;!_:<[}|123%+.................            ",
"   +#*>~:4567890a;'@.................           ",
"   +#=,{<5bcdefg<h=+.................           ",
"  .@#*,][6cijklmgno'@.................          ",
"  .@$&>{}7djkkkpqr~&@.................          ",
" ..@+%;^|8ekkkkks6tu+..................         ",
" ...@#*/19flkkkkvwn(+..................         ",
" ....+'(20gmpkkkxyzu+...................        ",
" ....@+%3a<gqsvxAB_*@...................        ",
"......@+%;hnr6wyBCo#....................        ",
".......@+'=o~tnz_o%@.....................       ",
".........@+'&u(u*#@......................       ",
"...........@@+++@.........................      ",
"..........................................      ",
"...........................................     ",
" ..........................................     ",
" ..........................................     ",
" ..........................................     ",
" ...........................................    ",
"  ..........................................    ",
"  ..........................................    ",
"   .........................................    ",
"   .........................................    ",
"    .......................................     ",
"     ......................................     ",
"      .....................................     ",
"       ....................................     ",
"        ..................................      ",
"         .................................      ",
"           ..............................       ",
"             ............................       ",
"               .........................        ",
"                 ......................         ",
"                   ...................          ",
"                    .................           ",
"                       ...........              ",
"                           ...                  ",
"                                                ",
"                                                ",
"                                                "};
