/* XPM */
static char *gataxx_xpm[] = {
/* width height ncolors chars_per_pixel */
"48 48 484 2",
/* colors */
"   c black",
" . c #655A4C",
" X c #635A4A",
" o c #513B3F",
" O c #6D3C29",
" + c #473A3F",
" @ c #47383F",
" # c #46383E",
" $ c #45383D",
" % c #45363D",
" & c #44363C",
" * c #4E4E49",
" = c #43343B",
" - c #42343A",
" ; c #554946",
" : c #8E583C",
" > c #544945",
" , c #544745",
" < c #534744",
" 1 c #524743",
" 2 c #534544",
" 3 c #524543",
" 4 c #514542",
" 5 c #504341",
" 6 c #719661",
" 7 c #61564B",
" 8 c #723D27",
" 9 c #4C4C33",
" 0 c #60564A",
" q c #5F5649",
" w c #713B26",
" e c #6C965C",
" r c #5E5448",
" t c #5E5248",
" y c #5D5247",
" u c #78A66B",
" i c #4C353D",
" p c #6E6551",
" a c #43363E",
" s c #6C634F",
" d c #41323C",
" f c #6A614D",
" g c #688658",
" h c #40303B",
" j c #3F303A",
" k c #709E63",
" l c #6A594D",
" z c #625C4F",
" x c #89543A",
" c c #4F4343",
" v c #54542A",
" b c #4E4142",
" n c #4D4141",
" m c #4D3F41",
" M c #4C3F40",
" N c #5D524A",
" B c #4A3B3E",
" V c #5C5049",
" C c #6A905D",
" Z c #5B5048",
" A c #6A8E5D",
" S c #5A5047",
" D c #5C4C49",
" F c #698E5C",
" G c #5A4E47",
" H c #594E46",
" J c #6E473D",
" K c #594C46",
" L c #5B4848",
" P c #584C45",
" I c #6A6150",
" U c #66443F",
" Y c #69614F",
" T c #695F4F",
" R c #685F4E",
" E c #685D4E",
" W c #3D2E3B",
" Q c #675D4D",
" ! c #80553E",
" ~ c #655B4B",
" ^ c #3A2C38",
" / c #786E57",
" ( c #64554A",
" ) c #523A3F",
" _ c #4A3D41",
" ` c #493B40",
" ' c #483B3F",
" ] c #5A524A",
" [ c #47393E",
" { c #46393D",
" } c #47373E",
" | c #5B764E",
".  c #574E47",
".. c #E07B43",
".X c #564A46",
".o c #550000",
".O c #554845",
".+ c #544844",
".@ c #534843",
".# c #544644",
".$ c #66805C",
".% c #675B50",
".& c #534643",
".* c #935436",
".= c #645B4D",
".- c #524242",
".; c #786E5A",
".: c #63594C",
".> c #62594B",
"., c #4C463C",
".< c #62574B",
".1 c #61574A",
".2 c #414045",
".3 c #5F5548",
".4 c #58564B",
".5 c #5C5145",
".6 c #44373E",
".7 c #6E6650",
".8 c #564E49",
".9 c #6E6450",
".0 c #554C48",
".q c #42353C",
".w c #42333C",
".e c #794630",
".r c #41333B",
".t c #41313B",
".y c #759B67",
".u c #665952",
".i c #514644",
".p c #504443",
".a c #4F4442",
".s c #73402A",
".d c #4F4242",
".f c #2E0604",
".g c #4E4041",
".h c #4D4040",
".j c #5F554B",
".k c #4C3E3F",
".l c #5E554A",
".z c #5E534A",
".x c #5D5349",
".c c #5D5149",
".v c #5C5148",
".b c #5B5147",
".n c #5B4F47",
".m c #5A4F46",
".M c #9B5B3A",
".N c #698D5B",
".B c #804730",
".V c #688B5A",
".C c #6A624F",
".Z c #6A604F",
".A c #564B42",
".S c #4B494B",
".D c #845841",
".F c #658757",
".G c #75442F",
".H c #638955",
".J c #675E4C",
".K c #618353",
".L c #3C302F",
".P c #4B3E41",
".I c #4A3C40",
".U c #493C3F",
".Y c #493A3F",
".T c #483A3E",
".R c #3F3F3F",
".E c #5A4F49",
".W c #594D48",
".Q c #505049",
".! c #514E4A",
".~ c #564D45",
".^ c #574B46",
"./ c #564B45",
".( c #574946",
".) c #554944",
"._ c #655C4D",
".` c #645A4C",
".' c #524141",
".] c #62584A",
".[ c #5A5B4C",
".{ c #62564A",
".} c #605648",
".| c #393C46",
"X  c #7E4B34",
"X. c #654B43",
"XX c #7F5F4C",
"Xo c #44363D",
"XO c #43363C",
"X+ c #4E4E4A",
"X@ c #43343C",
"X# c #42343B",
"X$ c #534745",
"X% c #524544",
"X& c #514543",
"X* c #504542",
"X= c #504342",
"X- c #63584E",
"X; c #4A4246",
"X: c #4F4341",
"X> c #61564C",
"X, c #4F3D41",
"X< c #60564B",
"X1 c #5F564A",
"X2 c #6B6C59",
"X3 c #5E5449",
"X4 c #5D5248",
"X5 c #5C5247",
"X6 c #5D5048",
"X7 c #5C5047",
"X8 c #6E6752",
"X9 c #5B5046",
"X0 c #666254",
"Xq c #41343D",
"Xw c #678A58",
"Xe c #646252",
"Xr c #40323C",
"Xt c #6A614E",
"Xy c #5A6552",
"Xu c #554840",
"Xi c #3D2E39",
"Xp c #3F2A3B",
"Xa c #4E4143",
"Xs c #6D9A61",
"Xd c #4D4142",
"Xf c #4D3F42",
"Xg c #4C3F41",
"Xh c #4B3F40",
"Xj c #4B3D40",
"Xk c #4A3D3F",
"Xl c #654F49",
"Xz c #4A3B3F",
"Xx c #4A393F",
"Xc c #5B5049",
"Xv c #5A4E48",
"Xb c #594E47",
"Xn c #584E46",
"Xm c #584C46",
"XM c #574A45",
"XN c #554C43",
"XB c #685F4F",
"XV c #554443",
"XC c #665D4D",
"XZ c #8D5538",
"XA c #655B4C",
"XS c #645B4B",
"XD c #4C4344",
"XF c #7DDF70",
"XG c #524040",
"XH c #63594A",
"XJ c #845039",
"XK c #625749",
"XL c #9E6242",
"XP c #483D40",
"XI c #47393F",
"XU c #585049",
"XY c #45373D",
"XT c #4E5349",
"XR c #44353C",
"XE c #43353B",
"XW c #564A47",
"XQ c #8F593D",
"X! c #544845",
"X~ c #6D5C4D",
"X^ c #534644",
"X/ c #524643",
"X( c #514442",
"X) c #504441",
"X_ c #709B60",
"X` c #504241",
"X' c #733E28",
"X] c #61574B",
"X[ c #484143",
"X{ c #60574A",
"X} c #513A42",
"X| c #61554B",
"o  c #60554A",
"o. c #5F5549",
"oX c #5E5548",
"oo c #403E45",
"oO c #5F5349",
"o+ c #6D6650",
"o@ c #6D6450",
"o# c #70AD63",
"o$ c #7A4832",
"o% c #362624",
"o& c #6C644F",
"o* c #794831",
"o= c #41333C",
"o- c #40313B",
"o; c #584542",
"o: c #805345",
"o> c #7D5342",
"o, c #885339",
"o< c #4F4243",
"o1 c #4E4242",
"o2 c #6F9762",
"o3 c #4E4042",
"o4 c #6D9960",
"o5 c #4D4041",
"o6 c #5B5B48",
"o7 c #4C3E40",
"o8 c #6C955F",
"o9 c #4B3C3F",
"o0 c #5C5149",
"oq c #5B5148",
"ow c #6A8F5D",
"oe c #5A4F47",
"or c #636B53",
"ot c #698D5C",
"oy c #594D46",
"ou c #6D483C",
"oi c #584D45",
"op c #584B45",
"oa c #915A3B",
"os c #574B44",
"od c #69604F",
"of c #68604E",
"og c #685E4E",
"oh c #675E4D",
"oj c #3D2D3B",
"ok c #3C2D3A",
"ol c #665C4C",
"oz c #4D4244",
"ox c #876752",
"oc c #6F3E2A",
"ov c #834F37",
"ob c #4F3F3C",
"on c #824F36",
"om c #493C40",
"oM c #483A3F",
"oN c #473A3E",
"oB c #47383E",
"oV c #46383D",
"oC c #584D48",
"oZ c #43343A",
"oA c #554B45",
"oS c #564946",
"oD c #554945",
"oF c #544744",
"oG c #534743",
"oH c #524542",
"oJ c #635A4C",
"oK c #514141",
"oL c #63584C",
"oP c #62584B",
"oI c #61564A",
"oU c #605649",
"oY c #874E34",
"oT c #674D46",
"oR c #6E6550",
"oE c #43363D",
"oW c #7A4731",
"oQ c #94593A",
"o! c #6B634D",
"o~ c #40323A",
"o^ c #3F3039",
"o/ c #A66645",
"o( c #504543",
"o) c #504343",
"o_ c #4F4342",
"o` c #4F4142",
"o' c #4E4141",
"o] c #5B3D3A",
"o[ c #4D4140",
"o{ c #76B66B",
"o} c #4D3F40",
"o| c #4C3F3F",
"O  c #5F544B",
"O. c #4B3D3E",
"OX c #4B3B3E",
"Oo c #5D5249",
"OO c #5C5248",
"O+ c #5C5048",
"O@ c #5B5047",
"O# c #5A5046",
"O$ c #617050",
"O% c #6C6351",
"O& c #74A469",
"O* c #584E44",
"O= c #6A614F",
"O- c #69614E",
"O; c #668858",
"O: c #6A5F4F",
"O> c #678659",
"O, c #68614D",
"O< c #75432F",
"O1 c #648656",
"O2 c #3D2E3A",
"O3 c #638655",
"O4 c #554441",
"O5 c #564242",
"O6 c #4E2237",
"O7 c #3C2C39",
"O8 c #3B2C38",
"O9 c #8B4F34",
"O0 c #4C3F42",
"Oq c #FF8539",
"Ow c #4B3D41",
"Oe c #4A3D40",
"Or c #493B3F",
"Ot c #915E47",
"Oy c #483B3E",
"Ou c #48393E",
"Oi c #443D3A",
"Op c #584C47",
"Oa c #574C46",
"Os c #44353A",
"Od c #554844",
"Of c #544843",
"Og c #3F2A3F",
"Oh c #544643",
"Oj c #8D5539",
"Ok c #86543C",
"Ol c #655B4D",
"Oz c #4D4C3C",
"Ox c #64594C",
"Oc c #63594B",
"Ov c #7D513D",
"Ob c #323232",
"On c #382838",
"Om c #4A3F43",
"OM c #615749",
"ON c #778965",
"OB c #513640",
"OV c #3D4040",
"OC c #716852",
"OZ c #7D4A33",
"OA c #45373E",
"OS c #44373D",
"OD c #43353C",
"OF c #41333A",
"OG c #534845",
"OH c #3C2C3F",
"OJ c #524644",
"OK c #524444",
"OL c #514443",
"OP c #504442",
"OI c #4F4441",
"OU c #3F0000",
"OY c #756A59",
"OT c #4E3C40",
"OR c #5F554A",
"OE c #5E5349",
"OW c #5D5348",
"OQ c #5D5148",
"O! c #5C5147",
"O~ c #483A3A",
"O^ c #6D875E",
"O/ c #6D6451",
"O( c #A46E4F",
"O) c #6D6251",
"O_ c #92583A",
"O` c #3F333B",
"O' c #3F313B",
"O] c #5B6453",
"O[ c #566C4E",
"O{ c #574542",
"O} c #3E2F3A",
"O| c #719965",
"+  c #3C2D38",
"+. c #6E9B62",
"+X c #6F9963",
"+o c #4D4042",
"+O c #3A2936",
"++ c #607F51",
"+@ c #4B3E40",
"+# c #6B955F",
"+$ c #6C9360",
"+% c #4B3C40",
"+& c #4A3C3F",
"+* c #594F47",
"+= c #5A6E55",
"+- c #594D47",
"+; c #584D46",
"+: c #574D45",
"+> c #584B46",
"+, c #574B45",
"+< c #193954",
"+1 c #564B44",
"+2 c #696050",
"+3 c #675C4E",
"+4 c #665C4D",
"+5 c #655C4C",
/* pixels */
"OnOnOnOnOnOnOnOnOnOnOnOnOnOnOnOnOnOnOnOnOnOnOnOnOnOnOnOnOnOnOnOnOnOnOnOn    OnOnOnOnOnOnOnOnOnOn",
"OnOnOnOnOnOnOnOnOnOnOnOnOnOnOnOnOnOnOnOnOnOnOnOnOnOnOnOnOnOnOnOnOn          OnOnOnOnOnOnOnOnOnOn",
"OnOnOnOnOnOnOnOnOnOnOnOnOnOnOnOnOnOnOnOnOnOnOnOnOnOnOnOnOn      oi.~          OnOnOnOnOnOnOnOnOn",
"OnOnOnOnOnOnOnOnOnOnOnOnOnOnOnOnOnOnOnOnOnOnOnOnOnOn  X>        .AXm          OnOnOnOnOnOnOnOnOn",
"OnOnOnOnOnOnOnOnOnOnOnOnOnOnOnOnOnOnOnOnOnOno6        Oo          ./       <X&OnOnOnOnOnOnOnOnOn",
"OnOnOnOnOnOnOnOnOnOnOnOnOnOnOnOnOnOnOn    .1oU         V.m        +1 ;X!X$ < 4OnOnOnOnOnOnOnOnOn",
"OnOnOnOnOnOnOnOnOnOnOnOnOnOnOnOnXC        .boI        O*X9    Op./.X.+.)        OnOnOnOnOnOnOnOn",
"OnOnOnOnOnOnOnOnOnOnOnOn        +5          OR        O#XbOp+;OpOa  .+          OnOnOnOnOnOnOnOn",
"OnOnOnOnOnOnOnOnOn  .CO:        Ol.:         r y t ZO@ SXb.~        OG          OnOnOnOnOnOnOnOn",
"OnOnOnOnOnX8        O,of        .>Oc     0o.OE NOEOQ    . +:         <.-          OnOnOnOnOnOnOn",
"OnOn    oR.7           T          OcX]OM 7o..3Oo        .R+>        X*oH  o)o5o'o7OnOnOnOnOnOnOn",
"          .9          og    .=.`XHoLoPOM      OO.0        +,        X&OLOIo) b n  OnOnOnOnOnOnOn",
"          O%o!       E.J QXCol.`  X|.]        O@Xc        osoSOfOJ 3X/X&          OnOnOnOnOnOnOn",
"On        +2o&Xt fodog.J Q         v 0         L.b    .( o.X.+.)X$    .d.d          OnOnOnOnOnOn",
"On     pO/o@ I YO-      ol          o           oe+>XGX0ON goF        XDo`          OnOnOnOnOnOn",
"On /o+o@O/ s.ZX~         ~ X        oXX3  .!X++*.8O6O| ko8o4X2o|        o'      omXzOnOnOnOnOnOn",
"OnOnOC       fO=        oJOx      o X3.zoOox.DoaOvXy u C.VO3O$OB        o[O..P _Oe.UOnOnOnOnOnOn",
"OnOn          od          Oc.<oU 0 0 rOoOqo/ xo$O9XU+.otO;++ 6OT    o<o'+oo}.k        OnOnOnOnOn",
"OnOn          og (    OcXH.:oLoPX1     *O(XQovoW 8o].yO;O3 eXFX=X:o1Xao'   M          OnOnOnOnOn",
"OnOnOn        oh QXCol.`OcXK.1        .QXXOjX .Gocou.4+$O[XTO4X[X)        Xj          OnOnOnOnOn",
"OnOnOn  Xt RXB Q+3+4        X{           lO_oY wXJ.SOdO{o:OkoQ !.2        omXx        OgOnOnOnOn",
"OnOnOn.;Xtod T  ._           7.5        +*+< Jo;O].[Oh..XLo,o*.Boz        Ou B   [ &Xo aOnOnOnOn",
"OnOnOnOn        XA.`        o..l     ZO@XvO5.$+XXs+#+=Ot :on.eX'oTOV      +&oMoNXI #    OnOnOnOn",
"OnOnOnOn        X-Ox         DX3OoX4.v.v   zO&ow.N.F | UXZOZO<.sX.Xf Mom.IOy +          OnOnOnOn",
"OnOnOnOn          Oc  .1X< 0 rOEOo        XVo2 AXw.KX_.&.M.* Oo>Om+@ MOe    oB }          OnOnOn",
"OnOnOnOnOn      .].:oL.]X<o   .v.x         )O^ FO1.Ho#X,.|XlX;ooo5 M        Xp $          OnOnOn",
"OnOnOnOnOnO)olOlOcoP.{        .EO+        oKXeo{O>or ].i 4o_      XjOX        XY      o~.tOnOnOn",
"OnOnOnOnOnOYXS      .1          O@        +,oD.+ iX}    .a        o9Oe         %XOXq.w.rO'OnOnOn",
"OnOnOnOnOnOn        o O         .nX7 HOp.^oAoDXu        .d          .U  XI # &oEXRX#        OnOn",
"OnOnOnOnOnOn        .} q      .m GoC+; K    .#.+        o'o'      +& `oNXIXY    X@          OnOn",
"OnOnOnOnOnOn          X3.cX5o0.vO#+-          X$        ob.g M+@.I.UoM {        .w          OnOn",
"OnOnOnOnOnOn    .jo .3OEOoX4      oyXN        X/.o    .do'+oXh.P    OH @        OFO`      okOUOn",
"OnOnOnOnOnOnOn .oUo   X6O!        opXW        X(o(X:o<o3o'o|Oi        OA        o%Xro^O2+ ok ^On",
"OnOnOnOnOnOnOn         9o0          ./    X^oG.pOPOP      XPOe         $Os    .r dO} j W      On",
"OnOnOnOnOnOnOn           Z          .XoFX!X$X^  OP          +%         -XoXE.w.ro- j.f        On",
"OnOnOnOnOnOnOnOn        X9X9   P.^./oD.@        X`Xd        om     #oVOAOD =      O2oj          ",
"OnOnOnOnOnOnOnOn      .v+*Xb KoyOp  OzX!        o1.g        .Y '.TXYXY  .q          Xi          ",
"OnOnOnOnOnOnOnOn.%O! ZoqO@.W           <          o'  XkOw.UoMoN        .w.r        O7        On",
"OnOnOnOnOnOnOnOnOnOW      Xn+-         2X*      o'+o M.P _     [        .Lo=        O8+OOnOnOnOn",
"OnOnOnOnOnOnOnOnOn        OpOp        o(X& 5.do<.h mo7        OAoZ        o-      OnOnOnOnOnOnOn",
"OnOnOnOnOnOnOnOnOn          ./     , < 4X=OP c      Oe        .6OS         hOnOnOnOnOnOnOnOnOnOn",
"OnOnOnOnOnOnOnOnOnOn        XM.)Of <X^  OP.,        Oe          Xo    OnOnOnOnOnOnOnOnOnOnOnOnOn",
"OnOnOnOnOnOnOnOnOnOn  oyOpoA.X.O        .do)        Or+&        OnOnOnOnOnOnOnOnOnOnOnOnOnOnOnOn",
"OnOnOnOnOnOnOnOnOnOn.u+;Op     >           b        O~.U  OnOnOnOnOnOnOnOnOnOnOnOnOnOnOnOnOnOnOn",
"OnOnOnOnOnOnOnOnOnOnOn         <.'        .gOb      OnOnOnOnOnOnOnOnOnOnOnOnOnOnOnOnOnOnOnOnOnOn",
"OnOnOnOnOnOnOnOnOnOnOn        OK 1        O0XgOnOnOnOnOnOnOnOnOnOnOnOnOnOnOnOnOnOnOnOnOnOnOnOnOn",
"OnOnOnOnOnOnOnOnOnOnOn           3      OnOnOnOnOnOnOnOnOnOnOnOnOnOnOnOnOnOnOnOnOnOnOnOnOnOnOnOn",
"OnOnOnOnOnOnOnOnOnOnOnOn        X%OnOnOnOnOnOnOnOnOnOnOnOnOnOnOnOnOnOnOnOnOnOnOnOnOnOnOnOnOnOnOn"
};
