/* XPM */
static char *geeqie_xpm[] = {
/* width height ncolors chars_per_pixel */
"48 48 470 2",
/* colors */
"   c black",
" . c #B1B1B1",
" X c #0249A7",
" o c #AE7F80",
" O c #AFAFAF",
" + c gray68",
" @ c #6A4586",
" # c #11A92A",
" $ c #534302",
" % c #23C300",
" & c gray67",
" * c #00146D",
" = c #BC2200",
" - c #3B169A",
" ; c #A7A7A7",
" : c #652900",
" > c #BF1603",
" , c #A5A5A5",
" < c #747A61",
" 1 c #040767",
" 2 c gray64",
" 3 c #016660",
" 4 c #10D60E",
" 5 c #011750",
" 6 c #0A131A",
" 7 c #D72700",
" 8 c #9F9F9F",
" 9 c #02D214",
" 0 c #090D19",
" q c #131E30",
" w c #9D9D9D",
" e c #20933C",
" r c #BDA3AC",
" t c #9B9B9B",
" y c #4400BA",
" u c gray60",
" i c #8C3D05",
" p c #959595",
" a c #A25C00",
" s c #001BBC",
" d c #A75565",
" f c #939393",
" g c #1DE100",
" h c #003FBF",
" j c #8D0463",
" k c #8081A8",
" l c #004180",
" z c #8D8D8D",
" x c #8B8B8B",
" c c #00097D",
" v c #174490",
" b c #0125C0",
" n c #231A1B",
" m c #4F9800",
" M c #196000",
" N c #292398",
" B c #D5000B",
" V c #838383",
" C c #00DB22",
" Z c #011100",
" A c #00BE40",
" S c #818181",
" D c #00827C",
" F c #9C7974",
" G c #2602B3",
" H c #0046B8",
" J c #B5B4B4",
" K c gray50",
" L c #000AF4",
" P c gray49",
" I c #253A0C",
" U c #010100",
" Y c #4CB200",
" T c #B1B0B0",
" R c #7B7B7B",
" E c #B19699",
" W c #121A35",
" Q c #797979",
" ! c #777777",
" ~ c gray46",
" ^ c #A76461",
" / c #1828A8",
" ( c #D1CBCC",
" ) c #690095",
" _ c gray45",
" ` c #00C539",
" ' c #9B0063",
" ] c #6F6F6F",
" [ c #70116A",
" { c #6D6D6D",
" } c #0054A7",
" | c gray42",
".  c #B10012",
".. c dim gray",
".X c #0F855C",
".o c #3A9B23",
".O c #1C07A2",
".+ c #49AC00",
".@ c #656565",
".# c #2A2800",
".$ c #952517",
".% c #C7B2B8",
".& c gray38",
".* c #BB001F",
".= c #024000",
".- c #5F5F5F",
".; c #14E900",
".: c #960061",
".> c #003EBE",
"., c #5B5B5B",
".< c #017B79",
".1 c #7AA983",
".2 c #995E56",
".3 c gray35",
".4 c gray34",
".5 c #5AA200",
".6 c #161960",
".7 c #5C00A2",
".8 c #0009DC",
".9 c #515151",
".0 c #001F5E",
".q c #882E17",
".w c #8E0070",
".e c gray30",
".r c #A88D8C",
".t c #FEFEFE",
".y c #00B93F",
".u c #4B4B4B",
".i c gray99",
".p c #25D900",
".a c #07912F",
".s c gray98",
".d c #C0003E",
".f c #AEB0B6",
".g c gray28",
".h c #8E0127",
".j c #C82500",
".k c #434343",
".l c #F4F4F4",
".z c #974136",
".x c gray95",
".c c #1C1A20",
".v c gray94",
".b c #090F00",
".n c gray24",
".m c #EEEEEE",
".M c #1E20A3",
".N c #55975E",
".B c #036B00",
".V c gray23",
".C c #ECECEC",
".Z c #008A74",
".A c #008B3F",
".S c #393939",
".D c #EAEAEA",
".F c #004EB0",
".G c #C53900",
".H c #036100",
".J c #0012EC",
".K c #373737",
".L c gray91",
".P c #005471",
".I c #00952B",
".U c #40BE00",
".Y c #353535",
".T c #E6E6E6",
".R c #186A0E",
".E c gray20",
".W c #0C3EA8",
".Q c #E4E4E4",
".! c #313131",
".~ c gray88",
".^ c #906E00",
"./ c #580865",
".( c #9F9493",
".) c gray17",
"._ c #1E6B21",
".` c #822256",
".' c #00CD31",
".] c #08814A",
".[ c #DADADA",
".{ c #00916D",
".} c #0055A9",
".| c #272727",
"X  c #D8D8D8",
"X. c #0019E5",
"XX c #252525",
"Xo c #A41707",
"XO c #A91137",
"X+ c #232323",
"X@ c gray83",
"X# c #AFAFB3",
"X$ c #E40018",
"X% c #5BA300",
"X& c #AD033B",
"X* c gray12",
"X= c #D0D0D0",
"X- c #8EA499",
"X; c #3500C0",
"X: c #1D1D1D",
"X> c #CECECE",
"X, c #BEBABB",
"X< c #1B1B1B",
"X1 c gray80",
"X2 c #322D8B",
"X3 c #B6071C",
"X4 c #191919",
"X5 c #CACACA",
"X6 c #00D42A",
"X7 c #009866",
"X8 c gray9",
"X9 c #C8C8C8",
"X0 c #5052A5",
"Xq c #005CA2",
"Xw c #151515",
"Xe c #C6C6C6",
"Xr c #972407",
"Xt c #131313",
"Xy c gray77",
"Xu c #111111",
"Xi c gray76",
"Xp c #16B522",
"Xa c #10153B",
"Xs c gray6",
"Xd c #C0C0C0",
"Xf c #795C00",
"Xg c #8EAD92",
"Xh c gray5",
"Xj c gray",
"Xk c #0B0B0B",
"Xl c #023119",
"Xz c #968EA4",
"Xx c gray73",
"Xc c #070707",
"Xv c gray72",
"Xb c #0A0600",
"Xn c #B6B6B6",
"Xm c #000B00",
"XM c #972B00",
"XN c gray1",
"XB c #B4B4B4",
"XV c #B3B2B3",
"XC c #0147B0",
"XZ c #010101",
"XA c #B2B2B2",
"XS c #00431A",
"XD c gray69",
"XF c #E5E3E4",
"XG c #AEAEAE",
"XH c #6E0206",
"XJ c #ACACAC",
"XK c #02A339",
"XL c #AAAAAA",
"XP c gray66",
"XI c #42A101",
"XU c gray65",
"XY c #592072",
"XT c #002EA5",
"XR c #000903",
"XE c #00738A",
"XW c #80867A",
"XQ c #6C420A",
"X! c #0A181A",
"X~ c #34CA00",
"X^ c #A0A0A0",
"X/ c gray62",
"X( c #9D9E9D",
"X) c #025D8C",
"X_ c gray61",
"X` c #898C86",
"X' c #8DB08D",
"X] c #9A9A9A",
"X[ c #192FA3",
"X{ c #989898",
"X} c #461A8A",
"X| c gray58",
"o  c #040C00",
"o. c #481D82",
"oX c #929292",
"oo c #5F63B6",
"oO c #051EAD",
"o+ c #3E9700",
"o@ c #0021DD",
"o# c #909090",
"o$ c #0045B5",
"o% c #168128",
"o& c #1D2F15",
"o* c #0A6719",
"o= c gray54",
"o- c #888888",
"o; c #208B0A",
"o: c #868686",
"o> c #A6332F",
"o, c #848484",
"o< c #CA1300",
"o1 c #69A573",
"o2 c #00DC22",
"o3 c gray51",
"o4 c #00A05E",
"o5 c #B34B00",
"o6 c #00649A",
"o7 c #808080",
"o8 c #89006C",
"o9 c #0028D6",
"o0 c #458535",
"oq c #95766D",
"ow c gray48",
"oe c #228419",
"or c #002F8D",
"ot c #9E0445",
"oy c gray47",
"ou c #7C9A7F",
"oi c #5000AE",
"op c #7E8000",
"oa c #ABA5AA",
"os c #081100",
"od c #727272",
"of c #82007C",
"og c #00E31B",
"oh c #191D14",
"oj c #699680",
"ok c gray43",
"ol c #B4004A",
"oz c #6C6C6C",
"ox c #4C8700",
"oc c #6A6A6A",
"ov c #49B500",
"ob c #C8BEC3",
"on c #E60018",
"om c #686868",
"oM c gray40",
"oN c #466978",
"oB c #164A8B",
"oV c #609263",
"oC c #28229D",
"oZ c #024300",
"oA c #38A103",
"oS c #14EA00",
"oD c #8282B3",
"oF c gray37",
"oG c #284D01",
"oH c #00B146",
"oJ c gray36",
"oK c #005CA0",
"oL c #2A1700",
"oP c #009064",
"oI c #5A5A5A",
"oU c #585858",
"oY c #E91500",
"oT c #63643B",
"oR c #12508A",
"oE c gray33",
"oW c #02CD0C",
"oQ c #654C7C",
"o! c #505050",
"o~ c #750089",
"o^ c #740088",
"o/ c #AD5863",
"o( c #4E4E4E",
"o) c white",
"o_ c #4C4C4C",
"o` c #FDFDFD",
"o' c #A70057",
"o] c gray29",
"o[ c #FBFBFB",
"o{ c #484848",
"o} c #F9F9F9",
"o| c #020100",
"O  c #D90025",
"O. c #464646",
"OX c #3C8E00",
"Oo c gray97",
"OO c #3C45B0",
"O+ c #57A700",
"O@ c white smoke",
"O# c #086083",
"O$ c #F3F3F3",
"O% c #747B73",
"O& c #C30223",
"O* c gray25",
"O= c #F1F1F1",
"O- c #AB464D",
"O; c #288A00",
"O: c #3D7536",
"O> c #3E3E3E",
"O, c #EFEFEF",
"O< c #3C3C3C",
"O1 c gray93",
"O2 c #012D44",
"O3 c #00A856",
"O4 c #006C92",
"O5 c gray22",
"O6 c #0030CE",
"O7 c #E9E9E9",
"O8 c #036200",
"O9 c #11B400",
"O0 c #B2B4B3",
"Oq c #B2B2B3",
"Ow c gray21",
"Oe c #2C9407",
"Or c #343434",
"Ot c gray90",
"Oy c gray89",
"Ou c #B23401",
"Oi c gray19",
"Op c #3305BB",
"Oa c gray18",
"Os c #2D1416",
"Od c #2C2C2C",
"Of c #6DAE68",
"Og c #00383C",
"Oh c gray86",
"Oj c #00AF4F",
"Ok c #594916",
"Ol c #060A00",
"Oz c #00E513",
"Ox c #B20A15",
"Oc c #61107B",
"Ov c #00738B",
"Ob c gray85",
"On c #29D500",
"Om c #0037C7",
"OM c #D7D7D7",
"ON c #7D6996",
"OB c #CC0032",
"OV c #BA013E",
"OC c gray14",
"OZ c #D5D5D5",
"OA c #09101A",
"OS c #6E036A",
"OD c gray82",
"OF c #1E1E1E",
"OG c #5C00A1",
"OH c gray11",
"OJ c #B12403",
"OK c gray10",
"OL c #CBCBCB",
"OP c #181818",
"OI c #00B648",
"OU c #850906",
"OY c #007A84",
"OT c #161616",
"OR c gray78",
"OE c #4A6200",
"OW c #01214A",
"OQ c gray8",
"O! c #2F9906",
"O~ c #8D4F3F",
"O^ c gray7",
"O/ c #101010",
"O( c #C1C1C1",
"O) c gray75",
"O_ c #DD1500",
"O` c #6C9200",
"O' c #BBBBBB",
"O] c gray3",
"O[ c #B9B9B9",
"O{ c #B8B9B8",
"O} c gray71",
"O| c #52A746",
"+  c #459E57",
"+. c #002FCD",
"+X c #B2B5B2",
"+o c gray70",
"+O c #37C700",
"++ c #344F1F",
"+@ c #1A1809",
"+# c #0609BC",
"+$ c #01D11A",
"+% c None",
/* pixels */
"+%+%+%+%+%+%+%+%+%+%+%+%+%+%+%+%+%+%+%+%+%+%+%+%+%+%+%+%+%+%+%+%+%+%+%+%+%+%+%+%+%+%+%+%+%+%+%+%",
"+%+%+%+%+%+%+%+%+%+%+%+%+%+%+%+%+%+%+%+%+%+%+%+%+%+%+%+%+%+%+%+%+%+%+%+%+%+%+%+%+%+%+%+%+%+%+%+%",
"+%+%+%+%+%+%+%+%+%+%+%+%+%+%+%+%+%+%+%+%+%+%+%+%+%+%+%+%+%+%+%+%+%+%+%+%+%+%+%+%+%+%+%+%+%+%+%+%",
"+%+%+%+%+%+%+%+%+%+%+%+%+%+%+%+%+%+%+%+%+%+%+%+%+%+%+%+%+%+%+%+%+%+%+%+%+%+%+%+%+%+%+%+%+%+%+%+%",
"+%+%+%+%+%+%+%+%+%+%+%+%+%+%+%        +%+%+%+%+%+%+%+%+%+%+%+%+%+%+%+%+%+%+%+%+%+%+%+%+%+%+%+%+%",
"+%+%+%+%+%+%+%+%+%+%+%+%    O/XkO/O^XsO]    +%+%+%+%+%+%+%+%+%+%+%+%+%+%+%+%+%+%+%+%+%+%+%+%+%+%",
"+%+%+%+%+%+%+%+%+%+%  XZ.eXjo`o}.[O' t P.3.|    +%+%+%+%+%+%+%+%+%+%+%+%+%+%+%+%+%+%+%+%+%+%+%+%",
"+%+%+%+%+%+%+%+%+%  XhXdo)o)o)o)o)o)o)o)o)o)oXXZ  +%+%+%+%+%+%+%+%+%+%+%+%+%+%+%+%+%+%+%+%+%+%+%",
"+%+%+%+%+%+%+%+%  XNo_o)o)o)o)o)o)o)o)o)o)o)o)o3    +%+%+%+%+%+%+%+%+%+%+%+%+%+%+%+%+%+%+%+%+%+%",
"+%+%+%+%+%+%+%    +%oko)o)X9 2XyOt.to)o)o)o)o).i.!  +%+%+%+%+%+%+%+%+%+%+%+%+%+%+%+%+%+%+%+%+%+%",
"+%+%+%+%+%+%    +%+%o=o)o)oqOu iXQOkoT <X` &OL.mXJ    +%+%+%+%+%+%+%+%+%+%+%+%+%+%+%+%+%+%+%+%+%",
"+%+%+%+%+%+%  +%+%X4 ,o)o)O~.Go5 a.^opO`.5XIO!o;oeXm  +%+%+%+%+%+%+%+%+%+%+%+%+%+%+%+%+%+%+%+%+%",
"+%+%+%+%+%  +%+%+%X<O)o)o).q.Go5 a.^opO`X%ov+O.poS.=  O..!X<X<+%+%+%+%+%+%+%+%+%+%+%+%+%+%+%+%+%",
"+%+%+%+%+%  +%+%+%OHOMo).DXr.Go5 a.^opO`X%ov+O.poSO8  X=o).lOMO[X_o7.&.kXXOHOH+%+%+%+%+%+%+%+%+%",
"+%+%+%+%    +%+%+%OKO=o)X1OJ.Go5 a.^opO`X%ov+O.poS.B  Xeo)o)o)o)o)o)o)o).t.LX5 +o#odoEOwX:+%+%+%",
"+%+%+%+%  +%+%+%+%XXo)o) T.j.Go5 a.^opO`X%ov+O.poS.H  XWO{ObOoo)o)o)o)o)o)o)o)o)o)o)o)o)XjOK+%+%",
"+%+%+%+%  +%+%+%+%O*o)o).( 7.Go5 a.^opO`X%ov+O.poSoZ   m.+oAOe.oO|OfX'.fOD.vo)o)o)o)o)o)X]+%+%+%",
"+%+%+%+%  +%+%+%+%oJo)o) F 7.Go5 a.^opO`X%ov+O.p.; Z.bO+ Y.UX~On g 4X)+. boO /OOoooD.To) _+%+%+%",
"+%+%+%+%  +%+%+%+% !o)o).2 7.Go5 a.^opO`X%ov+O.pO9XcohoGOX.UX~OnXp XOmO6o9o@X..J L+#Oyo).u+%+%+%",
"+%+%+%+%  +%+%+%+%oXo)o).z 7.Go5 a.^opO`X%ov+O.p.Roc {.,.Ko& Mo%XC hOmO6o9o@X..J L.Mo).t.|+%+%+%",
"+%+%+%+%  +%+%+%X4 .o)o).$ 7.Go5 a.^opO`X%ov+O %O% fo=o7 !okoIOw q.0XTO6o9o@X..J LX0o).TX4+%+%+%",
"+%+%+%+%  +%+%+%X<ODo).vXo 7.Go5 a.^opO`X%ov+Oo0Xv OXU w fo= Soy ].3Or W * sX..J L ko)XyX8+%+%+%",
"+%+%+%+%  +%+%+%OHO@o)X@ > 7.Go5 a.^opO`X%ovO;..XBXdO(O[XD ; wX| xo3oy ]oU.EXa c.8X#o)X^O^+%+%+%",
"+%+%+%+%    +%+%.no)o) JO_ 7.Go5 a.^opO`X%o+o o{ |o,X_+oO)O(XxXD ;X/ p xo3 QoE.) 1Oho) R+%+%+%+%",
"+%+%+%+%+%  +%+%oco)o).roY 7.Go5 a.^opO`oxos U+@X:.K.9oco3 tXAO)O(Xx .XP 8 ~O.Oi.6o`o)oE+%+%+%+%",
"+%+%+%+%+%    O^X_o)o) ^oY 7.Go5 a.^opOEOlo| $O: 3OgX!OHOwo!om S uXDO)XiXB.e.g.coQo)o).)+%+%+%+%",
"+%+%+%+%+%+%  XZ P.io)o>oY 7.Go5 aXf.#  Xb++.X.Z DOYXE.PO2 6OH.Yo(oM KX{o3.gO>XH oo).QX4+%+%+%+%",
"+%+%+%+%+%+%+%    X+ POUo< =XM :oL U  Xl.]X7.{.Z DOYOvO4o6oK lOWOAX<.E.eo].gOs BX,o)O}Xw+%+%+%+%",
"+%+%+%+%+%+%+%+%+%              XRXS.AO3o4X7.{.Z DOYOvO4o6Xq.}.Fo$or 5 0OC n. Ox.xo) V+%+%+%+%+%",
"+%+%+%+%+%+%+%+%+%OPX^XL _ Io*.I.yOIOjO3o4X7.{.Z DOYOvO4o6Xq.}.F H hOmoC.h.*onO-o)o).u+%+%+%+%+%",
"+%+%+%+%+%+%+%+%+%o{.to).1X6.' ` AOIOjO3o4X7.{.Z DOYOvO4o6Xq.}.F H.>o.OVOBO X$ Eo).CX:+%+%+%+%+%",
"+%+%+%+%+%+%+%+%X:ORo).T #X6.' ` AOIOjO3o4X7.{.Z DOYOvO4o6Xq.}.F.W [ol.dOBO X3O7o) &OQ+%+%+%+%+%",
"+%+%+%+%+%+%+%+%o-o).t.N CX6.' ` AOIOjO3o4X7.{.Z DOYOvO4o6Xq }X2 jo'ol.dOBO o/o)o).-+%+%+%+%+%+%",
"+%+%+%+%+%+%+% {o`.tou+$o2X6.' ` AOIOjO3o4X7.{.Z DOYOvO4o6 vOc.w 'o'ol.dOBO& (o).LOF+%+%+%+%+%+%",
"+%+%+%+%+%+% P.iO1oV 9ogo2X6.' ` AOIOjO3o4X7.{.Z DOYOvoRX}o^of.w 'o'ol.dOB do)o)o=O/+%+%+%+%+%+%",
"+%+%+%+%.VXn.sX(._oWOzogo2X6.' ` AOIOjO3o4X7.{.Z.<oB -OG )o~of.w 'o'ol.dXOXFo)O,Od+%+%+%+%+%+%+%",
"+%+%X* RO$o)o)o).lOZ+XXgo1+  e.aXKoHOjO3o4oPO#X[Op yoi.7 )o~of.w 'o'olX&.%o)o) PO/+%+%+%+%+%+%+%",
"+%+%+%X<OCO..@o: ;OR.Lo)o)o)o).lX@O0X-ojoN N.O GX; yoi.7 )o~of.w 'o'ot ro)o)ORX:+%+%+%+%+%+%+%+%",
"+%+%+%+%+%+%+%+%+%XwOP.|.uoz zXGX>.vo)o)o)o).lX@OqXzON @XY./OSo8.:.`obo)o).~.E+%+%+%+%+%+%+%+%+%",
"+%+%+%+%+%+%+%+%+%+%+%+%+%+%+%XuOTX4Oa.9odX|XBOZO@o)o)o)o).lX@XVoaO@o)o)X .S+%+%+%+%+%+%+%+%+%+%",
"+%+%+%+%+%+%+%+%+%+%+%+%+%+%+%+%+%+%+%+%+%+%XtOPX<Ow.4owX]O'Oh.so)o)o[ w.|+%+%+%+%+%+%+%+%+%+%+%",
"+%+%+%+%+%+%+%+%+%+%+%+%+%+%+%+%+%+%+%+%+%+%+%+%+%+%+%+%O/XwX4X:O<oFO5Xw+%+%+%+%+%+%+%+%+%+%+%+%",
"+%+%+%+%+%+%+%+%+%+%+%+%+%+%+%+%+%+%+%+%+%+%+%+%+%+%+%+%+%+%+%+%+%+%+%+%+%+%+%+%+%+%+%+%+%+%+%+%",
"+%+%+%+%+%+%+%+%+%+%+%+%+%+%+%+%+%+%+%+%+%+%+%+%+%+%+%+%+%+%+%+%+%+%+%+%+%+%+%+%+%+%+%+%+%+%+%+%",
"+%+%+%+%+%+%+%+%+%+%+%+%+%+%+%+%+%+%+%+%+%+%+%+%+%+%+%+%+%+%+%+%+%+%+%+%+%+%+%+%+%+%+%+%+%+%+%+%",
"+%+%+%+%+%+%+%+%+%+%+%+%+%+%+%+%+%+%+%+%+%+%+%+%+%+%+%+%+%+%+%+%+%+%+%+%+%+%+%+%+%+%+%+%+%+%+%+%",
"+%+%+%+%+%+%+%+%+%+%+%+%+%+%+%+%+%+%+%+%+%+%+%+%+%+%+%+%+%+%+%+%+%+%+%+%+%+%+%+%+%+%+%+%+%+%+%+%",
"+%+%+%+%+%+%+%+%+%+%+%+%+%+%+%+%+%+%+%+%+%+%+%+%+%+%+%+%+%+%+%+%+%+%+%+%+%+%+%+%+%+%+%+%+%+%+%+%"
};
