/* XPM */
static char * gentoo_xpm[] = {
"55 55 544 2",
"  	c None",
". 	c #1A1A1A",
"+ 	c #1B1B1B",
"@ 	c #1C1C1C",
"# 	c #161616",
"$ 	c #0E0E0E",
"% 	c #090909",
"& 	c #333333",
"* 	c #4A4A4A",
"= 	c #383838",
"- 	c #1E1E1E",
"; 	c #0F0F0F",
"> 	c #0A0A0A",
", 	c #070707",
"' 	c #060606",
") 	c #040404",
"! 	c #030303",
"~ 	c #020202",
"{ 	c #080808",
"] 	c #171717",
"^ 	c #0B0B0B",
"/ 	c #4B4B4B",
"( 	c #575757",
"_ 	c #373737",
": 	c #0D0D0D",
"< 	c #010101",
"[ 	c #0C0C0C",
"} 	c #5F5F5F",
"| 	c #3B3B3B",
"1 	c #232323",
"2 	c #050505",
"3 	c #121212",
"4 	c #787878",
"5 	c #484848",
"6 	c #2C2C2C",
"7 	c #202020",
"8 	c #151515",
"9 	c #191919",
"0 	c #757575",
"a 	c #3D3D3D",
"b 	c #131313",
"c 	c #101010",
"d 	c #111111",
"e 	c #494949",
"f 	c #313131",
"g 	c #000000",
"h 	c #7A7A7A",
"i 	c #535353",
"j 	c #3A3A3A",
"k 	c #2B2B2B",
"l 	c #242424",
"m 	c #151614",
"n 	c #333730",
"o 	c #4B5246",
"p 	c #5E6756",
"q 	c #3D403A",
"r 	c #181818",
"s 	c #7D7D7D",
"t 	c #565656",
"u 	c #2A2A2A",
"v 	c #252525",
"w 	c #272926",
"x 	c #586052",
"y 	c #707E64",
"z 	c #758765",
"A 	c #61685A",
"B 	c #474747",
"C 	c #2E2E2E",
"D 	c #828282",
"E 	c #3C3C3C",
"F 	c #343434",
"G 	c #2F2F2F",
"H 	c #171816",
"I 	c #5B6155",
"J 	c #738266",
"K 	c #7D9269",
"L 	c #81996B",
"M 	c #7C8078",
"N 	c #424242",
"O 	c #858585",
"P 	c #4C4C4C",
"Q 	c #272727",
"R 	c #333531",
"S 	c #6F7A65",
"T 	c #7C8F6B",
"U 	c #88A270",
"V 	c #8CA278",
"W 	c #82877E",
"X 	c #3E3E3E",
"Y 	c #4D4D4D",
"Z 	c #2D2D2D",
"` 	c #42453F",
" .	c #738067",
"..	c #839A70",
"+.	c #90AD77",
"@.	c #99B084",
"#.	c #90918F",
"$.	c #141414",
"%.	c #161716",
"&.	c #3A3E36",
"*.	c #5F6956",
"=.	c #46503E",
"-.	c #1E211B",
";.	c #646464",
">.	c #262626",
",.	c #1D1D1D",
"'.	c #748268",
").	c #869E72",
"!.	c #94B27A",
"~.	c #9FB78A",
"{.	c #A5A6A4",
"].	c #191A18",
"^.	c #50564B",
"/.	c #707D64",
"(.	c #758A64",
"_.	c #799561",
":.	c #78975C",
"<.	c #708C57",
"[.	c #515151",
"}.	c #404040",
"|.	c #323530",
"1.	c #728067",
"2.	c #869E71",
"3.	c #97B57B",
"4.	c #A0BF84",
"5.	c #B9BDB5",
"6.	c #181918",
"7.	c #697262",
"8.	c #7A8C6A",
"9.	c #839E6A",
"0.	c #89AA6A",
"a.	c #88B163",
"b.	c #83B05C",
"c.	c #7DA857",
"d.	c #141514",
"e.	c #606060",
"f.	c #6E7A64",
"g.	c #82986D",
"h.	c #94B278",
"i.	c #9EC080",
"j.	c #C4CBBE",
"k.	c #707070",
"l.	c #686F62",
"m.	c #7F916F",
"n.	c #8BA770",
"o.	c #91B56F",
"p.	c #92BC6D",
"q.	c #8EBD64",
"r.	c #89BC5D",
"s.	c #82B256",
"t.	c #60685A",
"u.	c #1F221D",
"v.	c #434343",
"w.	c #1A1A19",
"x.	c #5A6154",
"y.	c #7A8E68",
"z.	c #8EAC72",
"A.	c #9DC07D",
"B.	c #A7BE92",
"C.	c #999999",
"D.	c #393B37",
"E.	c #7B896E",
"F.	c #8DA776",
"G.	c #96B976",
"H.	c #98C173",
"I.	c #97C36E",
"J.	c #90C165",
"K.	c #8BBF5D",
"L.	c #6F934F",
"M.	c #0D0E0D",
"N.	c #627155",
"O.	c #576D45",
"P.	c #161615",
"Q.	c #272925",
"R.	c #728164",
"S.	c #86A26C",
"T.	c #95B975",
"U.	c #9FC47E",
"V.	c #B7BCB2",
"W.	c #737C6B",
"X.	c #889E76",
"Y.	c #97B77A",
"Z.	c #9CC278",
"`.	c #9BC674",
" +	c #98C66F",
".+	c #92C466",
"++	c #8BBE5D",
"@+	c #586948",
"#+	c #212121",
"$+	c #627850",
"%+	c #638745",
"&+	c #323E27",
"*+	c #4E4E4E",
"=+	c #131312",
"-+	c #575F50",
";+	c #7B9266",
">+	c #8EB06E",
",+	c #9AC077",
"'+	c #9FB888",
")+	c #838383",
"!+	c #343632",
"~+	c #7E8D71",
"{+	c #93AE7B",
"]+	c #9EC17E",
"^+	c #9FC77A",
"/+	c #9CC875",
"(+	c #99C76F",
"_+	c #7CA558",
":+	c #363636",
"<+	c #22241F",
"[+	c #627C4D",
"}+	c #648E41",
"|+	c #5D823D",
"1+	c #10100F",
"2+	c #0D0D0C",
"3+	c #6E7D61",
"4+	c #83A168",
"5+	c #93B970",
"6+	c #99A093",
"7+	c #899D77",
"8+	c #9ABA7E",
"9+	c #A1C77F",
"0+	c #A0C97B",
"a+	c #9DC975",
"b+	c #8FBF65",
"c+	c #505948",
"d+	c #2F342B",
"e+	c #63804B",
"f+	c #64923D",
"g+	c #63933A",
"h+	c #2B3225",
"i+	c #080908",
"j+	c #333630",
"k+	c #758A62",
"l+	c #89AB6A",
"m+	c #95BE70",
"n+	c #93B376",
"o+	c #696969",
"p+	c #1C1C1B",
"q+	c #79856D",
"r+	c #90AB7A",
"s+	c #9DC07F",
"t+	c #A1C97E",
"u+	c #9FCA79",
"v+	c #9CC974",
"w+	c #99C66F",
"x+	c #6C8457",
"y+	c #363D30",
"z+	c #638348",
"A+	c #64953B",
"B+	c #649838",
"C+	c #3E522D",
"D+	c #4B5344",
"E+	c #799461",
"F+	c #8CB26A",
"G+	c #94BF6F",
"H+	c #7E916D",
"I+	c #555A50",
"J+	c #829471",
"K+	c #96B47B",
"L+	c #9EC57E",
"M+	c #9FC97B",
"N+	c #9DCA76",
"O+	c #9AC872",
"P+	c #8BB268",
"Q+	c #3F3F3F",
"R+	c #454F3D",
"S+	c #648747",
"T+	c #64973A",
"U+	c #649A36",
"V+	c #4D6E31",
"W+	c #5D6952",
"X+	c #7B9C5F",
"Y+	c #8AB565",
"Z+	c #92BE6B",
"`+	c #6F7D63",
" @	c #727C68",
".@	c #8AA374",
"+@	c #99BD7A",
"@@	c #9EC77A",
"#@	c #9DCA77",
"$@	c #9AC972",
"%@	c #95C36E",
"&@	c #565A52",
"*@	c #546248",
"=@	c #658B45",
"-@	c #649C34",
";@	c #598435",
">@	c #393939",
",@	c #6A7B5B",
"'@	c #7A9F5A",
")@	c #89B760",
"!@	c #8EBC65",
"~@	c #5C5F59",
"{@	c #222320",
"]@	c #768569",
"^@	c #8DAB72",
"/@	c #99C076",
"(@	c #9BC775",
"_@	c #96C46E",
":@	c #60655C",
"<@	c #5E704F",
"[@	c #658D42",
"}@	c #659A38",
"|@	c #649C33",
"1@	c #619536",
"2@	c #6A7D5A",
"3@	c #7AA257",
"4@	c #85B65A",
"5@	c #8BBA61",
"6@	c #232521",
"7@	c #798B68",
"8@	c #8DAF6F",
"9@	c #96C071",
"0@	c #98C571",
"a@	c #95C36D",
"b@	c #63695F",
"c@	c #20231E",
"d@	c #637A50",
"e@	c #659140",
"f@	c #659C37",
"g@	c #639D33",
"h@	c #619534",
"i@	c #697D58",
"j@	c #79A254",
"k@	c #84B656",
"l@	c #87B85B",
"m@	c #1A1C18",
"n@	c #778B66",
"o@	c #8AAD6B",
"p@	c #93BD6C",
"q@	c #8DB56A",
"r@	c #62685D",
"s@	c #21231E",
"t@	c #637E4D",
"u@	c #64933D",
"v@	c #649C36",
"w@	c #629C32",
"x@	c #609434",
"y@	c #222222",
"z@	c #5D6E4E",
"A@	c #77A052",
"B@	c #80B452",
"C@	c #83B656",
"D@	c #536048",
"E@	c #81A364",
"F@	c #6F845D",
"G@	c #4D4E4C",
"H@	c #545B4E",
"I@	c #404739",
"J@	c #638249",
"K@	c #649B34",
"L@	c #619B31",
"M@	c #588632",
"N@	c #292929",
"O@	c #4B583F",
"P@	c #729A4F",
"Q@	c #7CB04D",
"R@	c #80B351",
"S@	c #3E403C",
"T@	c #1F1F1F",
"U@	c #383837",
"V@	c #4A5044",
"W@	c #59674C",
"X@	c #495440",
"Y@	c #638645",
"Z@	c #649639",
"`@	c #639A33",
" #	c #609931",
".#	c #4E722F",
"+#	c #080907",
"@#	c #333A2C",
"##	c #6F944F",
"$#	c #78AB4A",
"%#	c #7CB14D",
"&#	c #383C34",
"*#	c #262924",
"=#	c #677958",
"-#	c #596D48",
";#	c #627352",
">#	c #648A42",
",#	c #649837",
"'#	c #629A32",
")#	c #609731",
"!#	c #40572B",
"~#	c #090908",
"{#	c #141712",
"]#	c #6B8B4F",
"^#	c #75A649",
"/#	c #79AF49",
"(#	c #485C36",
"_#	c #627056",
":#	c #6B8951",
"<#	c #516441",
"[#	c #272A25",
"}#	c #62794D",
"|#	c #638E3E",
"1#	c #629734",
"2#	c #609830",
"3#	c #5F9430",
"4#	c #2B3424",
"5#	c #566C44",
"6#	c #709E48",
"7#	c #75AB45",
"8#	c #6F9B47",
"9#	c #606B56",
"0#	c #6B8652",
"a#	c #6F994A",
"b#	c #45513B",
"c#	c #40473A",
"d#	c #628048",
"e#	c #62903A",
"f#	c #609631",
"g#	c #5F962F",
"h#	c #568030",
"i#	c #0B0C0B",
"j#	c #0B0C0A",
"k#	c #272F21",
"l#	c #6C934A",
"m#	c #72A743",
"n#	c #74A945",
"o#	c #475E31",
"p#	c #1C1E1A",
"q#	c #616E55",
"r#	c #6A8551",
"s#	c #6E9948",
"t#	c #6FA243",
"u#	c #617053",
"v#	c #628643",
"w#	c #629236",
"x#	c #609630",
"y#	c #5F942F",
"z#	c #394B29",
"A#	c #597243",
"B#	c #6E9E44",
"C#	c #71A840",
"D#	c #6FA143",
"E#	c #506A38",
"F#	c #1C2217",
"G#	c #0A0B0A",
"H#	c #33372F",
"I#	c #495240",
"J#	c #667B54",
"K#	c #6A8A4D",
"L#	c #6D9A46",
"M#	c #6FA540",
"N#	c #65933D",
"O#	c #617550",
"P#	c #628A3F",
"Q#	c #619334",
"R#	c #5F9530",
"S#	c #56812F",
"T#	c #171C13",
"U#	c #6A9048",
"V#	c #6EA23F",
"W#	c #6FA83D",
"X#	c #6EA241",
"Y#	c #6B9447",
"Z#	c #68884D",
"`#	c #668050",
" $	c #657D51",
".$	c #667E51",
"+$	c #67834E",
"@$	c #688B4A",
"#$	c #6B9646",
"$$	c #6D9F41",
"%$	c #6EA63D",
"&$	c #6EA83B",
"*$	c #536E3B",
"=$	c #30342C",
"-$	c #627B4C",
";$	c #628C3B",
">$	c #609332",
",$	c #5E922F",
"'$	c #313B28",
")$	c #323F27",
"!$	c #699542",
"~$	c #6BA33B",
"{$	c #6DA73A",
"]$	c #6A9E3E",
"^$	c #6A9B3F",
"/$	c #6A9A41",
"($	c #699940",
"_$	c #699B3E",
":$	c #6BA03D",
"<$	c #6BA43B",
"[$	c #6CA738",
"}$	c #6DA937",
"|$	c #6BA637",
"1$	c #3F4837",
"2$	c #4F5946",
"3$	c #617F45",
"4$	c #608E37",
"5$	c #5E9131",
"6$	c #40532F",
"7$	c #67953E",
"8$	c #69A139",
"9$	c #6AA536",
"0$	c #6AA437",
"a$	c #69A436",
"b$	c #6AA636",
"c$	c #6AA635",
"d$	c #6AA834",
"e$	c #6AA734",
"f$	c #5A8237",
"g$	c #0F0F0E",
"h$	c #607150",
"i$	c #5F833F",
"j$	c #5F8E35",
"k$	c #47652D",
"l$	c #40542E",
"m$	c #65943C",
"n$	c #669E36",
"o$	c #67A233",
"p$	c #67A332",
"q$	c #67A432",
"r$	c #67A433",
"s$	c #68A533",
"t$	c #67A532",
"u$	c #5C8935",
"v$	c #2F312D",
"w$	c #3A3F36",
"x$	c #60774B",
"y$	c #5F873B",
"z$	c #496530",
"A$	c #374729",
"B$	c #64913D",
"C$	c #649936",
"D$	c #649D34",
"E$	c #659F33",
"F$	c #66A033",
"G$	c #659E33",
"H$	c #4A6433",
"I$	c #5F6B55",
"J$	c #5E7A45",
"K$	c #1D1D1C",
"L$	c #2F3828",
"M$	c #35432A",
"N$	c #40562D",
"O$	c #3D4F2D",
"P$	c #3A4A2C",
"Q$	c #2A2C28",
"R$	c #3E4537",
"S$	c #2E3328",
"                                                                                                              ",
"                                                                                                              ",
"                                                                                                              ",
"                                                                                                              ",
"                                              . + @ . + . # $ %                                               ",
"                                      & * = - ; > , ' , ) ! ~ ~ { ] . ^                                       ",
"                                  / ( _ - : % , ' ) ) ! ! ~ < < ' [ [ % : $                                   ",
"                              * } | 1 ] ; % 2 , , 2 2 2 ) ! ~ ! ' % % ' ' $ @ 3                               ",
"                            4 5 6 7 # : ^ > % > > { { { , ) ! ! 2 { { ' , $ 8 9 @                             ",
"                          0 a 6 7 ] b c $ [ % ^ [ [ [ : > , ' 2 , % % , , ^ $ $ ^ d                           ",
"                      5 4 e f 1 - . # d $ ^ g g g g ' ; ^ > % { > : : % , { % { , { % )                       ",
"                    e h i j k l 7 + 8 c g g m n o p q r ^ > % { > : : > ' { % ' 2 ) 2 2 )                     ",
"                    s t | f u v 7 r g g w x y z A B C r ^ > % { > : : > ' { ^ , 2 2 ' { ^ !                   ",
"                  D i E F G u v . g H I J K L M N 8 [ ; ^ > % { > : : > ' { ^ { ' ' { > : [                   ",
"                O P j & G 6 Q 9 g R S T U V W X c ' [ ^ g g g g 2 : : > ' { ^ { , ' { > ^ [ 2                 ",
"              Y t j Z k u Q + g `  ...+.@.#.a $., g g g %.&.*.=.-.3 : > ' { ^ { , , , { % > { <               ",
"              ;._ Q >.v l ,.g ` '.).!.~.{.E c % g g ].^./.(._.:.<.l : > ' { ^ 2 ) , ' , { % > )               ",
"            [.}.>.7 7 - 9 g |.1.2.3.4.5.Y $ > ) g 6.7.8.9.0.a.b.c.& : > ' { ^ g d., ' { { { % % <             ",
"            e.G @ + + # g H f.g.h.i.j.k.,.> % g 2 l.m.n.o.p.q.r.s.F : > ' { % { t.u.% % { , { % ~             ",
"          = v.1 w.r ] $.g x.y.z.A.B.C.k c % ! g D.E.F.G.H.I.J.K.L.C : > ' { ' M.N.O.c % % { , { , <           ",
"          t G . P.P.$.^ Q.R.S.T.U.V.[.3 % % g c W.X.Y.Z.`. +.+++@+#+: > ' { ! H $+%+&+$ % { ' ' , <           ",
"          *+#+# 3 =+c g -+;+>+,+'+)+. % { % g !+~+{+]+^+/+(+.+_+:+b : > ' { g <+[+}+|+r % { ' ' ' g           ",
"          X @ 3 ; 1+2+m 3+4+5+Z.6+| % % % g g l.7+8+9+0+a+(+b+c+- : : > ' { g d+e+f+g+h+^ % , ' 2 < <         ",
"        G C 9 d ; $ i+j+k+l+m+n+o+3 % % ' g p+q+r+s+t+u+v+w+x+u : : : > ' { g y+z+A+B+C+d % { , ' 2 <         ",
"        _ Q ] c $ [ g D+E+F+G+H+X ' ' ) ~ g I+J+K+L+M+N+O+P+Q+3 > : : > ' { g R+S+T+U+V+r % { , ' ' <         ",
"        = 7 b $ : ^ g W+X+Y+Z+`+v 2 2 2 g g  @.@+@@@#@$@%@&@- { > : : > ' { g *@=@B+-@;@,.% { ' ) ) <         ",
"        >@,.d [ [ % g ,@'@)@!@~@] % % % g {@]@^@/@(@$@_@:@>.^ { > : ^ { ' ! ! <@[@}@|@1@#+% , 2 ) ) g         ",
"        = ,.d ^ > { g 2@3@4@5@5 [ > > > g 6@7@8@9@0@a@b@k ^ % { > ^ { , , g c@d@e@f@g@h@l , ) 2 , { g         ",
"        _ @ d > % , g i@j@k@l@v.[ [ [ [ ' m@n@o@p@q@r@C c g 2 { { { , > % g s@t@u@v@w@x@y@! ~ ' > : g         ",
"        f + c > % , g z@A@B@C@}.^ ^ ^ ^ ^ g D@E@F@G@>.c g ! H@. , , > [ % g I@J@A+K@L@M@+ g ~ ' > [ <         ",
"        N@,.d > { ' g O@P@Q@R@S@> > > > > > T@U@G # > ! g V@W@6 , % [ ^ { g X@Y@Z@`@ #.#b < 2 ' % % <         ",
"        T@7 b ^ { , +#@###$#%#&#^ % % % % % % % % % % g *#=#-#>.2 % ^ { g { ;#>#,#'#)#!#; ' ) ' % ' <         ",
"          k # [ % { ~#{#]#^#/#(#8 ^ ^ ^ ^ ^ ^ ^ ^ ^ g , _#:#<#. ' % { 2 g [#}#|#1#2#3#4#[ 2 2 , > 2 <         ",
"          & # $ > > { g 5#6#7#8#- $ $ $ $ $ $ $ > g ! 9#0#a#b#b % { 2 2 g c#d#e#f#g#h#+ , ~ 2 > : < <         ",
"          f r ; [ ^ i#j#k#l#m#n#o#, > $ $ : ~ g g p#q#r#s#t#& ; % 2 2 ~ g u#v#w#x#y#z#c < ! { : : < g         ",
"          9 - c ^ > > { g A#B#C#D#E#F#+#g g G#H#I#J#K#L#M#N#Z ^ ' ! ) g 1+O#P#Q#R#S#@ ) < 2 [ c ^ < g         ",
"            Q c ^ % % { ) T#U#V#W#X#Y#Z#`# $.$+$@$#$$$%$&$*$1 { ) ! ) g =$-$;$>$,$'$[ g ~ { c c ~ g           ",
"            9 3 [ { { { , 2 )$!$~${$~$]$^$/$($_$:$<$[$}$|$1$3 ) ) ! ! g 2$3$4$5$!#3 g g 2 ^ ; > < g           ",
"              ,.c ^ % { { { ' 6$7$8$9$9$0$0$0$a$b$c$d$e$f$v 2 < ! < g g$h$i$j$k$# ~ g ~ { $ [ g < g           ",
"              3 ] : { , ' ' 2 , l$m$n$o$p$q$r$s$t$t$r$u$v$: ! ! ) ~ g w$x$y$z$r < g < ' [ $ , < g             ",
"                T@; > , , ' ) ) , A$B$C$D$E$F$F$E$G$H$>.; ! ' ' ! g g I$J$6$# < g < ) % $ : < g g             ",
"                  b ^ > > % , ' ' [ K$L$M$N$O$P$@#Q$+ [ ' { , ! g < g R$S$3 g g < ! , [ [ g < g               ",
"                    ; $ ; : ^ % % % % ^ $ 3 $.3 ; ^ % % % , ! g < ' , ^ % g g < ) , ^ > ' < g                 ",
"                    , d c ; : > % % % % % % % % % % % % , ! g < ' , 2 < g < ~ 2 % ^ > ' < g g                 ",
"                      ' ; : : [ ^ % { % % % % % % % % , ! g < ' , 2 < < < ) , ^ : : 2 < g g                   ",
"                        ~ { ^ ^ : ^ % % { { % % % % , ! g < ' , 2 ! ~ ) ' % [ $ ; ~ < g g                     ",
"                            ! { ^ ^ [ ^ > % % { , ' ) ~ ~ ! 2 2 2 2 , ^ [ : $ > < < g g                       ",
"                              < 2 ^ [ [ [ > % ' 2 ! ! ! ) ! ! ) , > [ $ ; ^ < < g g                           ",
"                                  < g 2 % > , ) ~ ~ ! 2 2 ! ! 2 > ; $ ^ < < < g g                             ",
"                                      < < g g < g < ) ' , ! ~ 2 % ) < < g g g                                 ",
"                                            < < < < g g < < < < < < g g                                       ",
"                                                                                                              ",
"                                                                                                              ",
"                                                                                                              ",
"                                                                                                              "};
