/* XPM */
static char * gnect_xpm[] = {
"48 48 636 2",
"  	c None",
". 	c #110603",
"+ 	c #240C08",
"@ 	c #160804",
"# 	c #230E09",
"$ 	c #916960",
"% 	c #D9BAB3",
"& 	c #E7D3CE",
"* 	c #DFC4BE",
"= 	c #A68079",
"- 	c #351A14",
"; 	c #2E110B",
"> 	c #C38B7F",
", 	c #E7C5BE",
"' 	c #D6A79D",
") 	c #492016",
"! 	c #9F4936",
"~ 	c #DEADA2",
"{ 	c #FCF8F7",
"] 	c #F5E5E2",
"^ 	c #D79B8E",
"/ 	c #D69B8E",
"( 	c #B86452",
"_ 	c #1E0B06",
": 	c #3E170F",
"< 	c #B7503A",
"[ 	c #D89F92",
"} 	c #FFFFFF",
"| 	c #FCF7F6",
"1 	c #C67361",
"2 	c #C6715F",
"3 	c #C6725F",
"4 	c #BB5B46",
"5 	c #612417",
"6 	c #B4452D",
"7 	c #B64A33",
"8 	c #CE8676",
"9 	c #C46C59",
"0 	c #B64A32",
"a 	c #B64932",
"b 	c #B64931",
"c 	c #B4462E",
"d 	c #85311F",
"e 	c #000000",
"f 	c #B4442C",
"g 	c #B3442C",
"h 	c #9C3A26",
"i 	c #B95743",
"j 	c #C06450",
"k 	c #BD5F4B",
"l 	c #AC412A",
"m 	c #1D0A06",
"n 	c #2D100A",
"o 	c #AE5B49",
"p 	c #D29284",
"q 	c #D49487",
"r 	c #D39486",
"s 	c #BC6F5E",
"t 	c #481A11",
"u 	c #210C08",
"v 	c #83483B",
"w 	c #BF7C6D",
"x 	c #C9897B",
"y 	c #C48173",
"z 	c #94564A",
"A 	c #32150E",
"B 	c #060201",
"C 	c #2A110C",
"D 	c #42241D",
"E 	c #361A14",
"F 	c #130604",
"G 	c #030405",
"H 	c #201A1D",
"I 	c #3F2F30",
"J 	c #241C1E",
"K 	c #050404",
"L 	c #331711",
"M 	c #B2877D",
"N 	c #EAD3CF",
"O 	c #F4E5E1",
"P 	c #F1E0DC",
"Q 	c #D3B1A9",
"R 	c #673E36",
"S 	c #080301",
"T 	c #272B31",
"U 	c #9C9FA5",
"V 	c #DADCDF",
"W 	c #E5E6E8",
"X 	c #DBDDE0",
"Y 	c #9EA1A8",
"Z 	c #292C32",
"` 	c #000101",
" .	c #36140C",
"..	c #CA9083",
"+.	c #E8C5BE",
"@.	c #E6C3BB",
"#.	c #E4BCB4",
"$.	c #DFB5AC",
"%.	c #793C30",
"&.	c #040100",
"*.	c #23272F",
"=.	c #A5A9B1",
"-.	c #C8CBD0",
";.	c #BFC2C8",
">.	c #BCBFC6",
",.	c #A8ACB4",
"'.	c #242830",
").	c #9F4432",
"!.	c #DAA599",
"~.	c #FEFDFC",
"{.	c #D5988B",
"].	c #D39385",
"^.	c #C26F5D",
"/.	c #3B150D",
"(.	c #0A0C0F",
"_.	c #5A6170",
":.	c #B8BCC3",
"<.	c #E7E8EB",
"[.	c #9297A2",
"}.	c #5D6472",
"|.	c #0A0C10",
"1.	c #37140C",
"2.	c #B54A33",
"3.	c #CC8070",
"4.	c #FEFCFC",
"5.	c #FAF4F2",
"6.	c #C5705D",
"7.	c #C26855",
"8.	c #C26955",
"9.	c #BB5944",
"0.	c #7D2F1E",
"a.	c #20252E",
"b.	c #505869",
"c.	c #9BA0A9",
"d.	c #DCDEE1",
"e.	c #686F7D",
"f.	c #676E7D",
"g.	c #51596A",
"h.	c #521E13",
"i.	c #BE5D48",
"j.	c #BB5641",
"k.	c #B4452E",
"l.	c #9B3A25",
"m.	c #2B323D",
"n.	c #434C5E",
"o.	c #454D5F",
"p.	c #646B7A",
"q.	c #4E5667",
"r.	c #454E60",
"s.	c #444D5F",
"t.	c #2B313D",
"u.	c #4B1C11",
"v.	c #933623",
"w.	c #282E3A",
"x.	c #282E39",
"y.	c #240D08",
"z.	c #B3432C",
"A.	c #B4472F",
"B.	c #672718",
"C.	c #181B22",
"D.	c #464E60",
"E.	c #7C2E1E",
"F.	c #B95945",
"G.	c #C56E5C",
"H.	c #C26A58",
"I.	c #A9422B",
"J.	c #1C0A06",
"K.	c #030305",
"L.	c #384050",
"M.	c #616877",
"N.	c #6E7582",
"O.	c #626A78",
"P.	c #130704",
"Q.	c #8F4433",
"R.	c #D09083",
"S.	c #D69A8D",
"T.	c #D69A8E",
"U.	c #D5998C",
"V.	c #B66C5C",
"W.	c #3B150E",
"X.	c #0D0F12",
"Y.	c #555C68",
"Z.	c #959AA4",
"`.	c #9A9FA8",
" +	c #969BA4",
".+	c #575E6A",
"++	c #0C0F12",
"@+	c #0B0302",
"#+	c #52271E",
"$+	c #9A5B4E",
"%+	c #B37162",
"&+	c #A9685A",
"*+	c #743F34",
"=+	c #210D08",
"-+	c #06080A",
";+	c #32363E",
">+	c #616671",
",+	c #717681",
"'+	c #626771",
")+	c #32373F",
"!+	c #020304",
"~+	c #1C1E23",
"{+	c #4A4C51",
"]+	c #4F5257",
"^+	c #26292D",
"/+	c #050608",
"(+	c #0F0503",
"_+	c #43251F",
":+	c #6D4E48",
"<+	c #694A44",
"[+	c #381D17",
"}+	c #040406",
"|+	c #1D1F23",
"1+	c #403D42",
"2+	c #2F2F34",
"3+	c #0A0B0E",
"4+	c #0C0E11",
"5+	c #3A3D42",
"6+	c #54575E",
"7+	c #3C3E43",
"8+	c #0E1013",
"9+	c #797E86",
"0+	c #D3D5D9",
"a+	c #DEDFE2",
"b+	c #DADBDF",
"c+	c #9699A0",
"d+	c #1B1D22",
"e+	c #381913",
"f+	c #C0938A",
"g+	c #EED9D5",
"h+	c #F1DEDA",
"i+	c #ECD4D0",
"j+	c #AB7C73",
"k+	c #202329",
"l+	c #999DA3",
"m+	c #DBDCE0",
"n+	c #E2E3E6",
"o+	c #E1E2E5",
"p+	c #C0C2C7",
"q+	c #4F535A",
"r+	c #040507",
"s+	c #43474F",
"t+	c #BCBFC4",
"u+	c #DDDFE2",
"v+	c #BEC1C6",
"w+	c #454951",
"x+	c #030304",
"y+	c #080A0D",
"z+	c #686E79",
"A+	c #B6B9C0",
"B+	c #B4B7BE",
"C+	c #868B95",
"D+	c #111418",
"E+	c #30110B",
"F+	c #C58375",
"G+	c #E8C6BF",
"H+	c #EBCEC8",
"I+	c #E1B4AB",
"J+	c #B16C5D",
"K+	c #180805",
"L+	c #969AA4",
"M+	c #C4C7CC",
"N+	c #B8BBC2",
"O+	c #B4B8BF",
"P+	c #454B56",
"Q+	c #010203",
"R+	c #313641",
"S+	c #ABAFB7",
"T+	c #D2D4D9",
"U+	c #C0C3C9",
"V+	c #333842",
"W+	c #797F8B",
"X+	c #EBECEE",
"Y+	c #BFC2C9",
"Z+	c #8A8F9B",
"`+	c #878D98",
" @	c #363E4C",
".@	c #030201",
"+@	c #8F3624",
"@@	c #D08D7E",
"#@	c #FEFCFB",
"$@	c #DCA89D",
"%@	c #D08A7B",
"&@	c #C87B6B",
"*@	c #70291A",
"=@	c #474E5E",
"-@	c #A4A9B1",
";@	c #FEFEFE",
">@	c #FBFBFB",
",@	c #959AA5",
"'@	c #8E939E",
")@	c #6E7482",
"!@	c #0F1116",
"~@	c #5C6372",
"{@	c #EEEFF1",
"]@	c #5E6574",
"^@	c #3D4556",
"/@	c #575F6F",
"(@	c #BEC1C7",
"_@	c #F9FAFA",
":@	c #898E9A",
"<@	c #5E6675",
"[@	c #5D6474",
"}@	c #231414",
"|@	c #BE5F4B",
"1@	c #F1DCD7",
"2@	c #F9F0EE",
"3@	c #BF5F4B",
"4@	c #BB5943",
"5@	c #A53E28",
"6@	c #1A1A1F",
"7@	c #485062",
"8@	c #777D8A",
"9@	c #F7F7F8",
"0@	c #69707E",
"a@	c #636A79",
"b@	c #636B79",
"c@	c #555D6D",
"d@	c #2F3743",
"e@	c #242933",
"f@	c #4C5566",
"g@	c #848A96",
"h@	c #F8F8F9",
"i@	c #C3C6CC",
"j@	c #5F6676",
"k@	c #4D5566",
"l@	c #232833",
"m@	c #050709",
"n@	c #434B5D",
"o@	c #402523",
"p@	c #B5462E",
"q@	c #2B272D",
"r@	c #444D5E",
"s@	c #4E5768",
"t@	c #4B5365",
"u@	c #444C5E",
"v@	c #394151",
"w@	c #2C323E",
"x@	c #2B313E",
"y@	c #030406",
"z@	c #3F4758",
"A@	c #2D1A19",
"B@	c #A94029",
"C@	c #222027",
"D@	c #353C4A",
"E@	c #262C37",
"F@	c #262B36",
"G@	c #2E3441",
"H@	c #4A5263",
"I@	c #4A5264",
"J@	c #454E5F",
"K@	c #3A4252",
"L@	c #070303",
"M@	c #9D3B26",
"N@	c #B64B34",
"O@	c #B3452D",
"P@	c #7E2F1E",
"Q@	c #090B0E",
"R@	c #424B5D",
"S@	c #475062",
"T@	c #474F61",
"U@	c #232832",
"V@	c #13161C",
"W@	c #475061",
"X@	c #0D1014",
"Y@	c #464E5E",
"Z@	c #767D89",
"`@	c #787F8B",
" #	c #787E8B",
".#	c #535B6A",
"+#	c #181C23",
"@#	c #44190F",
"##	c #B4523D",
"$#	c #C97867",
"%#	c #C97968",
"&#	c #C87766",
"*#	c #AC4833",
"=#	c #270E08",
"-#	c #29303C",
";#	c #5A6271",
">#	c #737A87",
",#	c #3E4656",
"'#	c #07090B",
")#	c #010102",
"!#	c #313846",
"~#	c #676E7C",
"{#	c #161920",
"]#	c #6B707C",
"^#	c #9A9EA8",
"/#	c #9EA2AB",
"(#	c #9EA2AC",
"_#	c #9CA0AA",
":#	c #7D828D",
"<#	c #010101",
"[#	c #020000",
"}#	c #542218",
"|#	c #C07B6D",
"1#	c #D69C90",
"2#	c #D89E92",
"3#	c #D59A8E",
"4#	c #B46E5F",
"5#	c #3A160E",
"6#	c #3B414C",
"7#	c #8D929C",
"8#	c #9CA1AA",
"9#	c #989DA7",
"0#	c #636975",
"a#	c #111419",
"b#	c #07080A",
"c#	c #454A55",
"d#	c #90959F",
"e#	c #9DA2AB",
"f#	c #9196A0",
"g#	c #464C57",
"h#	c #08090C",
"i#	c #2C2F36",
"j#	c #4D515C",
"k#	c #50555E",
"l#	c #353940",
"m#	c #230D09",
"n#	c #65352A",
"o#	c #8B5044",
"p#	c #874D41",
"q#	c #592D23",
"r#	c #160805",
"s#	c #1C1F25",
"t#	c #4C5059",
"u#	c #626772",
"v#	c #585E68",
"w#	c #30343C",
"x#	c #1A1E24",
"y#	c #434750",
"z#	c #525761",
"A#	c #434751",
"B#	c #1B1E24",
"C#	c #010202",
"D#	c #140704",
"E#	c #53332C",
"F#	c #83655E",
"G#	c #53352D",
"H#	c #110604",
"I#	c #0B0D10",
"J#	c #3F4247",
"K#	c #686B70",
"L#	c #5F6267",
"M#	c #27292E",
"N#	c #230E0A",
"O#	c #664640",
"P#	c #896A64",
"Q#	c #7B5C56",
"R#	c #3D211B",
"S#	c #070201",
"T#	c #030100",
"U#	c #301611",
"V#	c #71514A",
"W#	c #8A6B64",
"X#	c #71534C",
"Y#	c #2F1711",
"Z#	c #030000",
"`#	c #3C1B13",
" $	c #C5988F",
".$	c #EED8D3",
"+$	c #F0DAD5",
"@$	c #EFD8D3",
"#$	c #C69B92",
"$$	c #3A1B14",
"%$	c #2D3138",
"&$	c #AEB2B8",
"*$	c #D9DBDE",
"=$	c #D9DBDF",
"-$	c #D4D6DA",
";$	c #80848C",
">$	c #050201",
",$	c #67382E",
"'$	c #DCB8B1",
")$	c #EFD9D5",
"!$	c #EBD1CC",
"~$	c #A37368",
"{$	c #1B0A06",
"]$	c #0E0503",
"^$	c #865248",
"/$	c #E5C7C0",
"($	c #E6C8C2",
"_$	c #87554B",
":$	c #0D0402",
"<$	c #2E100A",
"[$	c #C27C6D",
"}$	c #EFD7D2",
"|$	c #E0B2A8",
"1$	c #DFB0A6",
"2$	c #C38071",
"3$	c #2B0F09",
"4$	c #1B1F27",
"5$	c #9398A2",
"6$	c #CED1D5",
"7$	c #D0D2D7",
"8$	c #B0B3BB",
"9$	c #AFB3BB",
"0$	c #646A76",
"a$	c #592317",
"b$	c #D59E92",
"c$	c #EDD3CD",
"d$	c #EACCC5",
"e$	c #DFAFA5",
"f$	c #A05747",
"g$	c #7E392A",
"h$	c #DDAEA4",
"i$	c #E7C3BB",
"j$	c #DCABA1",
"k$	c #7E3B2D",
"l$	c #873320",
"m$	c #C97E6D",
"n$	c #FCF9F8",
"o$	c #E1B4AA",
"p$	c #CE8677",
"q$	c #CA8070",
"r$	c #040405",
"s$	c #414959",
"t$	c #979CA6",
"u$	c #9BA0AA",
"v$	c #868B97",
"w$	c #868C97",
"x$	c #727885",
"y$	c #252A34",
"z$	c #AF4C37",
"A$	c #DAA499",
"B$	c #FFFEFE",
"C$	c #D29182",
"D$	c #C16C59",
"E$	c #531F13",
"F$	c #31110B",
"G$	c #BB5C48",
"H$	c #E4BDB4",
"I$	c #F9F0EF",
"J$	c #BC5E4A",
"K$	c #31120B",
"L$	c #150804",
"M$	c #B0432B",
"N$	c #BA5641",
"O$	c #E4BCB3",
"P$	c #F4E5E2",
"Q$	c #BC5B46",
"R$	c #BD5B46",
"S$	c #BC5A45",
"T$	c #BA5742",
"U$	c #20191C",
"V$	c #D7D9DD",
"W$	c #626978",
"X$	c #5A6171",
"Y$	c #525A6A",
"Z$	c #421910",
"`$	c #C16753",
" %	c #F1DDD9",
".%	c #BE5D49",
"+%	c #B8503A",
"@%	c #893321",
"#%	c #652618",
"$%	c #C97A68",
"%%	c #F5E8E5",
"&%	c #E0B2A9",
"*%	c #BC5B45",
"=%	c #BD5B45",
"-%	c #B64C35",
";%	c #280E09",
">%	c #352528",
",%	c #3E4657",
"'%	c #552116",
")%	c #772D1C",
"!%	c #772C1C",
"~%	c #883320",
"{%	c #B3462E",
"]%	c #B74E37",
"^%	c #040404",
"/%	c #3C4455",
"(%	c #464F61",
"_%	c #B44831",
":%	c #B64D36",
"<%	c #B54A34",
"[%	c #B54B34",
"}%	c #AD4B36",
"|%	c #CA7D6C",
"1%	c #CB7E6D",
"2%	c #AE4D38",
"3%	c #2A0F09",
"4%	c #1A1F27",
"5%	c #575F6E",
"6%	c #7D838F",
"7%	c #7D8490",
"8%	c #797F8C",
"9%	c #3F4755",
"0%	c #5A2115",
"a%	c #B95E4A",
"b%	c #C67665",
"c%	c #963A25",
"d%	c #0C0402",
"e%	c #7B2D1D",
"f%	c #BE6A57",
"g%	c #BF6B59",
"h%	c #39160E",
"i%	c #AF695A",
"j%	c #D4998D",
"k%	c #D89F93",
"l%	c #D49A8D",
"m%	c #B06B5D",
"n%	c #38160E",
"o%	c #000001",
"p%	c #22262E",
"q%	c #797E89",
"r%	c #9FA3AC",
"s%	c #9EA3AC",
"t%	c #585E6A",
"u%	c #5F2A1F",
"v%	c #C38072",
"w%	c #D69D90",
"x%	c #D09386",
"y%	c #935041",
"z%	c #7A3C2D",
"A%	c #CB8B7D",
"B%	c #D79E92",
"C%	c #CB8C7E",
"D%	c #7B3C2F",
"E%	c #4D241B",
"F%	c #2A2E35",
"G%	c #41464E",
"H%	c #3C4048",
"I%	c #1D2025",
"J%	c #220D09",
"K%	c #5B2E24",
"L%	c #794236",
"M%	c #6C3A2F",
"N%	c #3A1A12",
"O%	c #2F130D",
"P%	c #64342A",
"Q%	c #794237",
"R%	c #64352A",
"S%	c #2E130D",
"                                                                                                ",
"                                                                            . + @               ",
"                                                                        # $ % & * = -           ",
"                                                                      ; > , , , , , ' )         ",
"                                                                      ! ~ { ] ^ / / / ( _       ",
"                                                                    : < [ } | 1 2 2 3 4 5       ",
"                                                                    5 6 7 8 9 7 0 a b c d e     ",
"                                                                    5 f f f f f f f f f d e     ",
"                                                                    : f f g g g g g g f 5       ",
"                                                                      h i j j j j j k l m       ",
"                                                                      n o p q q q r s t e       ",
"                                                                        u v w x y z A e         ",
"                                                    B C D E F             G H I J K e           ",
"                                                  L M N O P Q R S       T U V W X Y Z `         ",
"                                                 ...+.@.#.#.#.$.%.&.  *.=.-.;.>.>.>.,.'.        ",
"                                                ).!.~.| {.].].].^./.(._.:.} <.[.[.[.[.}.|.      ",
"                                              1.2.3.4.5.6.7.8.7.9.0.a.b.c.} d.e.f.e.e.g.a.      ",
"                                              h.f c i.j.c c c k.6 l.m.n.o.p.q.r.r.o.s.n.t.      ",
"                                              u.f f f f f f f f f v.w.n.n.n.n.n.n.n.n.n.x.e     ",
"                                              y.z.6 A.A.A.A.A.c f B.C.n.s.D.D.D.D.D.s.n.C.      ",
"                                                E.F.G.G.G.G.G.H.I.J.K.L.M.N.N.N.N.N.O.L.K.      ",
"                                                P.Q.R.S.T.T.U.V.W.e   X.Y.Z.`.`.`. +.+++        ",
"                                                  @+#+$+%+&+*+=+e       -+;+>+,+'+)+-+          ",
"        !+~+{+]+^+/+          (+_+:+<+[+S           }+|+1+2+3+e           4+5+6+7+4+e           ",
"      8+9+0+a+a+b+c+d+      e+f+g+h+h+i+j+#       k+l+m+n+o+p+q+r+    G s+t+u+a+u+v+w+x+        ",
"    y+z+;.0+A+B+B+B+C+D+  E+F+G+H+I+I+I+I+J+K+  C.L+-.M+N+N+N+O+P+Q+  R+S+T+U+B+B+B+S+V+e       ",
"    w.W+X+} Y+Z+Z+Z+`+ @.@+@@@#@} $@%@%@%@&@*@G =@-@;@>@,@'@'@'@)@C.!@~@>.} {@Z+Z+Z+Z+]@!@      ",
"  !+^@/@(@_@:@<@<@<@[@n.}@g |@1@2@1 |@3@|@4@5@6@7@8@9@X+0@a@b@a@c@d@e@f@g@h@i@j@<@<@<@k@l@      ",
"  m@n@n.n.r.n.n.n.n.n.n.o@f f 6 p@f f f f f g q@n.r@s@t@s.s.r@u@n.v@w@n.n.r.n.n.n.n.n.n.x@      ",
"  y@z@n.n.n.n.n.n.n.n.n.A@f f f f f f f f f B@C@n.n.n.n.n.n.n.n.n.D@E@n.n.n.n.n.n.n.n.n.F@e     ",
"    G@n.H@I@I@I@I@I@J@K@L@M@c N@N@N@N@N@N@O@P@Q@R@J@S@7@7@7@7@T@n.U@V@n.W@I@I@I@I@I@7@n.V@      ",
"    X@Y@Z@`@`@`@`@ #.#+#e @###$#%#%#%#%#&#*#=#e -#;#>#>#>#>#>#N.,#'#)#!#~#`@`@`@`@`@e.!#)#      ",
"      {#]#^#/#(#_#:#*.<#  [#}#|#1#2#2#3#4#5#e   r+6#7#_#8#8#9#0#a#    b#c#d#e#(#e#f#g#-+        ",
"        h#i#j#k#l#X.e         m#n#o#p#q#r#e       Q+s#t#u#v#w#'#        Q+x#y#z#A#B#C#          ",
"        D#E#F#F#G#H#e         I#J#K#L#M#K.          N#O#P#Q#R#S#        T#U#V#W#X#Y#Z#          ",
"      `# $.$+$+$@$#$$$e     %$&$*$=$=$-$;$8+    >$,$'$)$+$+$!$~${$    ]$^$/$+$+$+$($_$:$        ",
"    <$[$G+}$|$1$1$1$2$3$  4$5$6$7$8$8$8$9$0$-+  a$b$c$d$1$1$1$e$f$:$T#g$h$@$i$1$1$1$j$k$T#      ",
"    l$m$n$} o$p$p$p$q$l$r$s$t$} } u$v$w$w$x$y$P.z$A$} B$C$p$p$p$D$E$F$G$H$} I$p$p$p$p$J$K$      ",
"  L$M$N$O$P$1 Q$R$S$T$M$U$s.<@-$V$W$X$;#X$Y$L.Z$A.`$ %H+.%Q$R$S$+%@%#%N@$%%%&%R$*%=%S$-%#%      ",
"  ;%f f f f f f f f f f >%n.n.n.n.n.n.n.n.n.,%'%f f f f f f f f f h )%f f f f f f f f f !%      ",
"  L$M$f f f f f f f f M$U$n.n.n.n.n.n.n.n.n.L.Z$f f f f f f f f f @%#%f f f f f f f f f #%      ",
"    ~%{%]%]%]%]%]%]%{%~%^%/%(%k@k@k@k@k@f@n.y$P.l _%]%]%]%]%]%:%g E$E+g <%]%]%]%]%]%[%g K$      ",
"    <$}%|%1%1%1%1%|%2%3%e 4%5%6%7%7%7%7%8%9%-+e 0%a%1%1%1%1%1%b%c%d%Z#e%f%1%1%1%1%1%g%e%Z#      ",
"      h%i%j%k%k%l%m%n%e   o%p%q%c.r%s%Z.t%++    &.u%v%w%k%[ x%y%{$    :$z%A%B%k%B%C%D%:$        ",
"        P.E%*+*+E%H#e         (.F%G%H%I%K.        e J%K%L%M%N%B         T#O%P%Q%R%S%[#          ",
"              e                     e                     e                                     ",
"                                                                                                ",
"                                                                                                "};
