/* XPM */
static char *gpa_xpm[] = {
/* width height ncolors chars_per_pixel */
"48 48 454 2",
/* colors */
"   c #A56774",
" . c #5B5856",
" X c #D58196",
" o c #473E3F",
" O c #523140",
" + c #453612",
" @ c #50313E",
" # c #5E461A",
" $ c #514E4C",
" % c #4E2F3C",
" & c #685B5C",
" * c #959392",
" = c #949391",
" - c #A06C7C",
" ; c #253A45",
" : c #524B43",
" > c #243A44",
" , c #774957",
" < c #163A4A",
" 1 c #324855",
" 2 c #5F5353",
" 3 c #59B5E8",
" 4 c #885461",
" 5 c #C68134",
" 6 c #CF7F93",
" 7 c #D1D0D0",
" 8 c #8A8987",
" 9 c #F3BD00",
" 0 c #44311E",
" q c #E1A12A",
" w c #55686A",
" e c #CECECD",
" r c #5A4D4E",
" t c #878584",
" y c #CCCCCB",
" u c #5E461D",
" i c #CBCACA",
" p c #858382",
" a c #956B28",
" s c #C9C8C8",
" d c #563F1F",
" f c #0090CF",
" g c #5B4710",
" h c #C7C6C6",
" j c #0B8EC6",
" k c #C16E8F",
" l c #CF8836",
" z c #615758",
" x c #C5C4C4",
" c c #4C92BA",
" v c #3296C8",
" b c #504144",
" n c #3BA7DE",
" m c #B68E06",
" M c #73580D",
" N c #412932",
" B c #5DB4E5",
" V c #C0C0BF",
" C c #C78F24",
" Z c #3B5664",
" A c #3E272F",
" S c #BEBEBD",
" D c #BE852F",
" F c #BCBCBB",
" G c #F0B700",
" H c #BABAB9",
" J c #BB8822",
" K c #0094D2",
" L c #614C0F",
" P c #B8B8B7",
" I c #D59135",
" U c #533D1F",
" Y c #423336",
" T c #BC9105",
" R c #4E3B1A",
" E c #4D4344",
" W c #71580E",
" Q c #263238",
" ! c #483914",
" ~ c #483F3F",
" ^ c #62583E",
" / c #E7AA18",
" ( c #5D4C4D",
" ) c #54514E",
" _ c #EDBB00",
" ` c #A2761D",
" ' c #E6A817",
" ] c #534F4D",
" [ c #4E303B",
" { c #504D4A",
" } c #10516E",
" | c #68545B",
".  c #4D83A0",
".. c #655658",
".X c #C29204",
".o c #4C4946",
".O c #5F3B45",
".+ c #4F3B1E",
".@ c #BD7187",
".# c #494543",
".$ c #615254",
".% c #8E8C8A",
".& c #593B3F",
".* c #474341",
".= c #CFCDCD",
".- c #433F3D",
".; c #878483",
".: c #413D3B",
".> c #2E3E46",
"., c #3C8AB0",
".< c #AA783F",
".1 c #3F3B39",
".2 c #473437",
".3 c #807E7C",
".4 c #C5C3C3",
".5 c #534111",
".6 c #745B0D",
".7 c #4C371E",
".8 c #C2C1C0",
".9 c #173643",
".0 c #7B7877",
".q c #56B4E7",
".w c #DE9D33",
".e c #59504F",
".r c #30A3DC",
".t c #52B0E3",
".y c #E5A61C",
".u c #BAB9B8",
".i c #624D0F",
".p c #674249",
".a c #D69235",
".s c #73706F",
".d c #5A431B",
".f c #C69704",
".g c #7B620D",
".h c #514847",
".j c #263841",
".k c #2C373D",
".l c #455C66",
".z c #38A6DD",
".x c #415862",
".c c #47351C",
".v c #573343",
".b c #49403F",
".n c #E3A327",
".m c #53333F",
".M c #494135",
".N c #0097D4",
".B c #CA970B",
".V c #4D3339",
".C c #A6A5A4",
".Z c #283C46",
".A c #D38E35",
".S c #675759",
".D c #3F5F6D",
".F c #2C3940",
".G c #5E3E43",
".H c #4B809D",
".J c #A09F9E",
".K c #4A4643",
".L c #7C5E67",
".P c #DF9E30",
".I c #45403E",
".U c #886B41",
".Y c #E4A421",
".T c #24414F",
".R c #4DAEE4",
".E c #293E4A",
".W c #1C4051",
".Q c #403C39",
".! c #2E3D45",
".~ c #535145",
".^ c #58474A",
"./ c #534D45",
".( c #3E3A37",
".) c #3D3836",
"._ c #2A3941",
".` c #D08A35",
".' c #114D67",
".] c #244A5C",
".[ c #503F42",
".{ c #655746",
".} c #7A7775",
".| c #283035",
"X  c #F2BB00",
"X. c #9D5F70",
"XX c #53383B",
"Xo c #787573",
"XO c #2D5468",
"X+ c #634E0F",
"X@ c #48353A",
"X# c #726F6D",
"X$ c #A06880",
"X% c #534548",
"X& c #544C3F",
"X* c #2889B2",
"X= c #413629",
"X- c #4D3B17",
"X; c #49361D",
"X: c #B0AEAD",
"X> c #686563",
"X, c #896813",
"X< c #483912",
"X1 c #BF8131",
"X2 c #666361",
"X3 c #AC8507",
"X4 c #EDB408",
"X5 c #39272B",
"X6 c #315365",
"X7 c #2DA2DB",
"X8 c #48393D",
"X9 c #EFB500",
"X0 c #AF6188",
"Xq c #534D4B",
"Xw c #C59C05",
"Xe c #625F5D",
"Xr c #634147",
"Xt c #627374",
"Xy c #633F47",
"Xu c #605D5B",
"Xi c #4A3235",
"Xp c #675658",
"Xa c #43AAE0",
"Xs c #5F3F43",
"Xd c #5C5957",
"Xf c #159AD7",
"Xg c #5A5755",
"Xh c #396B87",
"Xj c #F6C200",
"Xk c #9E9C9B",
"Xl c #884E68",
"Xz c #2E789D",
"Xx c #252B2E",
"Xc c #959492",
"Xv c #5E4A10",
"Xb c #3F3737",
"Xn c #3E3736",
"Xm c #825B6F",
"XM c #513E17",
"XN c #34444D",
"XB c #CFCFCE",
"XV c #6A464A",
"XC c #0597D4",
"XZ c #3E657B",
"XA c #CDCDCC",
"XS c #8D6273",
"XD c #D89635",
"XF c #252D31",
"XG c #85690B",
"XH c #BA8628",
"XJ c #CBCBCA",
"XK c #4AADE3",
"XL c #CAC9C9",
"XP c #795A1D",
"XI c #C8C7C7",
"XU c #63BBEB",
"XY c #C6C5C5",
"XT c #DBA410",
"XR c #153B4C",
"XE c #1A9BD8",
"XW c #C4C3C3",
"XQ c #A6607B",
"X! c #432C34",
"X~ c #C3C3C2",
"X^ c #395A6C",
"X/ c #26211E",
"X( c #C1C1C0",
"X) c #49371C",
"X_ c #2D4553",
"X` c #BFBFBE",
"X' c #30424C",
"X] c #DD9B33",
"X[ c #BDBDBC",
"X{ c #3B282C",
"X} c #252F34",
"X| c #604B4D",
"o  c #52353C",
"o. c #BBBBBA",
"oX c #64605E",
"oo c #E9AC0D",
"oO c #B9B9B8",
"o+ c #60434D",
"o@ c #B7B7B6",
"o# c #54484B",
"o$ c #45ABE1",
"o% c #514648",
"o& c #B3B3B2",
"o* c #4781A1",
"o= c #412E35",
"o- c #5C5856",
"o; c #635153",
"o: c #324651",
"o> c #4B4242",
"o, c #575451",
"o< c #0A98D5",
"o1 c #565250",
"o2 c #664D17",
"o3 c #DB9934",
"o4 c #463612",
"o5 c #50B0E5",
"o6 c #C58F1B",
"o7 c #276888",
"o8 c #2BA1DB",
"o9 c #524E4C",
"o0 c #36242A",
"oq c #5B4120",
"ow c #423A39",
"oe c #EDB200",
"or c #3D3113",
"ot c #C67290",
"oy c #D28C35",
"ou c #3B4D53",
"oi c #7E626A",
"op c #41A9E0",
"oa c #4C4846",
"os c #4B4845",
"od c #233842",
"of c #6C4F20",
"og c #5A3C40",
"oh c #474441",
"oj c #4D3D12",
"ok c #F4BF00",
"ol c #464240",
"oz c #45423F",
"ox c #13465D",
"oc c #8A8786",
"ov c #44403E",
"ob c #43403D",
"on c #423E3C",
"om c #878583",
"oM c #2D5266",
"oN c #E8AA12",
"oB c #5D461B",
"oV c #403C3A",
"oC c #483738",
"oZ c #339DD2",
"oA c #5E4912",
"oS c #3E3A38",
"oD c #E3A80D",
"oF c #3C3836",
"oG c #008ECE",
"oH c #153A4B",
"oJ c #7F7D7B",
"oK c #27373F",
"oL c #6B5C43",
"oP c #CD961F",
"oI c #5A3843",
"oU c #0F99D6",
"oY c #4D3F40",
"oT c #4E4637",
"oR c #3C292C",
"oE c #F1B900",
"oW c #413413",
"oQ c #804765",
"o! c #EBB004",
"o~ c #B57E2F",
"o^ c #6C585B",
"o/ c #0092D1",
"o( c #55474B",
"o) c #47ACE2",
"o_ c #B27E2C",
"o` c #382D14",
"o' c #5A4511",
"o] c #6F6D6B",
"o[ c #4C4742",
"o{ c #4E3B19",
"o} c #AFAEAD",
"o| c #4A4140",
"O  c #AE6F88",
"O. c #473912",
"OX c #344248",
"Oo c #DC9A34",
"OO c #ABAAA9",
"O+ c #EAAF10",
"O@ c #AAAAA8",
"O# c #EEB300",
"O$ c #3E3213",
"O% c #81660C",
"O& c #58421C",
"O* c #623F47",
"O= c #273B45",
"O- c #BE8C13",
"O; c #6B525D",
"O: c #209DD9",
"O> c #483034",
"O, c #A2A0A0",
"O< c #554244",
"O1 c #163B48",
"O2 c #4B4744",
"O3 c #1D88B5",
"O4 c #5B3D40",
"O5 c #2C4857",
"O6 c #A6732D",
"O7 c #885A2A",
"O8 c #474340",
"O9 c #35A5DD",
"O0 c #45413E",
"Oq c #DA9835",
"Ow c #42321A",
"Oe c #66510F",
"Or c #433F3C",
"Ot c #735B5E",
"Oy c #413219",
"Ou c #664F0F",
"Oi c #2F3E46",
"Op c #EAAE09",
"Oa c #4C98C2",
"Os c #3D3936",
"Od c #463235",
"Of c #482E37",
"Og c #3B3734",
"Oh c #3EA8DF",
"Oj c #213742",
"Ok c #544111",
"Ol c #2A4858",
"Oz c #5B3943",
"Ox c #0C5F83",
"Oc c #317EA4",
"Ov c #A46D2E",
"Ob c #272F34",
"On c #262F33",
"Om c #56544B",
"OM c #594E4E",
"ON c #594C4E",
"OB c #242D31",
"OV c #98606B",
"OC c #D79435",
"OZ c #495052",
"OA c #564C4B",
"OS c #B97932",
"OD c #0091D0",
"OF c #543E1E",
"OG c #60394B",
"OH c #0577AA",
"OJ c #BA8D0B",
"OK c #665354",
"OL c #6D6A68",
"OP c #8D6917",
"OI c #3C5766",
"OU c #4D3E42",
"OY c #4B3A15",
"OT c #3B5765",
"OR c #E0A02D",
"OE c #54353F",
"OW c #1E3038",
"OQ c #0095D3",
"O! c #C59B05",
"O~ c #4D3338",
"O^ c #5F5C5A",
"O/ c #493134",
"O( c #685559",
"O) c #574410",
"O_ c #385E6F",
"O` c None",
/* pixels */
"O`O`O`O`O`O`O`O`O`O`O`O`O`O`O`O`O`O`O`O`O`O`O`O`O`O`O`O`O`O`O`O`O`O`O`O`O` No0 AO`O`O`O`O`O`O`O`",
"O`O`O`O`O`O`O`O`O`O`O`O`O`O`O`O`O`O`O`O`O`O`O`O`O`O`O`O`O`O`O`O`O`O`O` %OUXbO;oQ @O`O`O`O`O`O`O`",
"O`O`O`O`O`O`O`O`O`O`O`O`O`O`O`O`O`O`O`O`O`O`O`O`O`O`O`O`O`O`O`O`O` OX8 oX2o}X#XmOGO`O`O`O`O`O`O`",
"O`O`O`O`O`O`O`O`O`O`O`O`O`O`O`O`O`O`O`O`O`O`O`O`O`O`O`O`O`O`O`.v Y EXdO@oO F SobX0X5O`O`O`O`O`O`",
"O`O`O`O`O`O`O`O`O`O`O`O`O`O`O`O`O`O`O`O`O`O`O`O`O`O`O`O`O`O`o=o%o9.JoOo.X[ VX~Xk |Xl.mO`O`O`O`O`",
"O`O`O`O`O`O`O`O`O`O`O`O`O`O`O`O`O`O`O`O`O`O`O`O`O`O`O`O`X!o#.#XcoOo.X[X`X( x h soXX$OEO`O`O`O`O`",
"O`O`O`O`O`O`O`O`O`O`O`O`O`O`O`O`O`O`O`O`O`O`O`O`O`O`Ofo(on 8 P HX[X`X(XWXY s i i.4o>O oRO`O`O`O`",
"O`O`O`O`O`O`O`O`O`O`O`O`O`O`O`O`O`O`O`O`O`O`O`O` [X%XnoJ P H F SX(XWXYXIXL i i y e.;oiOzO`O`O`O`",
"O`O`O`O`O`O`O`O`O`O`O`O`O`O`O`O`O`O`O`O`O`O`.m bow.so@ H F S VX~XYXIXL i i y e.=.0.$.[O`O`O`O`O`",
"O`O`O`O`O`O`O`O`O`O`O`O`O`O`O`O`O`O`O`O`o+X@ ~X>o&oOo. S VX~ x hXL i iXJXA 7oc.bo;o O`O`O`O`O`O`",
"O`O`O`O`O`O`O`O`O`O`O`O`O`O`O`O`O`O`O`X{.2.QOOoOo.X[X`X~ x h s i iXJXAXB *.*XpO~O`O`O`O`O`O`O`O`",
"O`O`O`O`O`O`O`O`O`O`O`O`O`O`O`O`O`O`O`oIXSo]o.X[X`X(XW h s i i iXAXBO,oa.SO>O`O`O`O`O`O`O`O`O`O`",
"O`O`O`O`O`O`O`O`O`O`O`O`Xe {O0O0oS.K.^XQ k.LomX(XWXYXI i i i y eX:o1..OdO`O`O`O`O`O`O`O`O`O`O`O`",
"O`O`O`O`O`O`O`O`O`O`O`obosO8oh.-oFX>.)O(.Oot ~.8XIXL i i y e.uXu 2oC.pO`O`O`O`O`O`O`O`O`O`O`O`O`",
"O`O`O`O`O`O`O`O`O`O`oVOsO`O`O`O`O` rON = zoY -X2 i iXJ e.4OLOMO<XrO`O`O`O`O`O`O`O`O`O`O`O`O`O`O`",
"O`O`O`O`O`O`O`O`O`XuXuO`O`O`O`O`O` ,.VXqOgX|X.o^.CXA y.}.h (.GO`O`O`O`O`O`O`O`O`O`O`O`O`O`O`O`O`",
"O`O`O`O`O`O`O`O`.oXo .O`O`O`O`O`O* 4.@Xy.Ioz 6 Xozoco|OK.&O`O`O`O`O`O`O`O`O`O`O`O`O`O`O`O`O`O`O`",
"O`O`O`O`O`O`O`O`.(ohO`O`O`O`O`O`O`O`O/XiOAXeOt  OVO4XXO`O`O`O`O`O`O`O`O`O`O`O`O`O`O`O`O`O`O`O`O`",
"O`O`O`O`O`O`O`O`O2.:O`O`O`O`O`O`O`O`O`O` &Xg.eXsogXVO`O`O`O`O`O`O`O`O`O`O`O`O`O`O`O`O`O`O`O`O`O`",
"O`O`O`O`O`O`O`O`ov.1O`O`O`O`O`O`O`O`O`O`XuO^o,O`O`O`O`O`O`O`O`O`O`O`O`O`O`O`O`O`O`O`O`O`O`O`O`O`",
"O`O`O`O`O`O`O`O`.: ]O`O`O`O`O`O`O`O`O`O` $o1O`O`O`O`O`O`O`O`O`O`O`O`O`O`O`O`O`O`O`O`O`O`O`O`O`O`",
"O`O`O`O`O`O`X+.g ^ pX& R.cO`O`O`O`O`O`O`ol.(O`O`O`O`O`O`O`O`O`O`O`O`O`O`O`O`O`O`O`O`O`O`O`O`O`O`",
"O`O`O`O`O`XM Tok GoT.3oLo_X; >Oj.WO1OXOr to-O`O`O`O`O`O`O`O`O`O`O`O`O`O`O`O`O`O`O`O`O`O`O`O`O`O`",
"O`O`O`O`O&XT 9 9X9.B ).% :o~.~O_.xX*O3.DouO`O`O`O`O`O`O`O`O`O`O`O`O`O`O`O`O`O`O`O`O`O`O`O`O`O`O`",
"O`O`O` d JX4okX O#ooXP./.U.a.{X/Or.lXCo/oGXRO`O`O`O`O`O`O`O`O`O`O`O`O`O`O`O`O`O`O`O`O`O`O`O`O`O`",
"O`O`O`.+oPoEXjoEoeoN C aOq I.<o[OZ.,oUOQ fOHoHO`O`O`O`O`O`O`O`O`O`O`O`O`O`O`O`O`O`O`O`O`O`O`O`O`",
"O`O`O`X) /X ok Go! ' qX]XD.A 5X= vX7XEXCo/oG <O`O`O`O`O`O`O`O`O`O`O`O`O`O`O`O`O`O`O`O`O`O`O`O`O`",
"O`O`O`OwO+ 9 9X9Op.yOROoOCoyOS.MO9O9o8Xf.NOD }O`O`O`O`O`O`O`O`O`O`O`O`O`O`O`O`O`O`O`O`O`O`O`O`O`",
"O`O`O`oBOJokX O#oo.Y.Po3.a.`O7 w nO9.rO:o< KOxoxO`O`O`O`O`O`O`O`O`O`O`O`O`O`O`O`O`O`O`O`O`O`O`O`",
"O`O`O`O`O) _oEoeoN.n.wOq I l 0XKopO9O9o8Xf.N.'O`O`O`O`O`O`O`O`O`O`O`O`O`O`O`O`O`O`O`O`O`O`O`O`O`",
"O`O`O`O` Wok Go! ' qX]XDX1OvOmo5o$ nO9.rO: j.9O`O`O`O`O`O`O`O`O`O`O`O`O`O`O`O`O`O`O`O`O`O`O`O`O`",
"O`O`O`OY 9 m.fOpo6XH DO6.7XtXU 3.RXa.zO9o7OWO`O`O`O`O`O`O`O`O`O`O`O`O`O`O`O`O`O`O`O`O`O`O`O`O`O`",
"O`O`O`oAO!.6OkoD `OF UoqO`XN.  B.to)OhO9.TO`O`O`O`O`O`O`O`O`O`O`O`O`O`O`O`O`O`O`O`O`O`O`O`O`O`O`",
"O`O`O` +XwoW.XO-.dO`O`O`O`O`OT.F c.RXOOcXz.]O`O`O`O`O`O`O`O`O`O`O`O`O`O`O`O`O`O`O`O`O`O`O`O`O`O`",
"O`O`o2X3O. go'X-O`O`O`O`O`O`O`O`XZ.qoKO=oZodO`O`O`O`O`O`O`O`O`O`O`O`O`O`O`O`O`O`O`O`O`O`O`O`O`O`",
"O`O`O`O$oro4O`O`O`O`O`O`O`O`O`O`.>o*XhOB ;O`O`O`O`O`O`O`O`O`O`O`O`O`O`O`O`O`O`O`O`O`O`O`O`O`O`O`",
"O` #.5o`.iO`O`O`O`O`O`O`O`O`O`O`O`.FOaX}.jO`O`O`O`O`O`O`O`O`O`O`O`O`O`O`O`O`O`O`O`O`O`O`O`O`O`O`",
"ofOPXvX<OuO`O`O`O`O`O`O`O`O`O`O`O`O` 1XF.ZO`O`O`O`O`O`O`O`O`O`O`O`O`O`O`O`O`O`O`O`O`O`O`O`O`O`O`",
" uX,oWXG MO`O`O`O`O`O`O`O`O`O`O`O`O`X'._ QOlO`O`O`O`O`O`O`O`O`O`O`O`O`O`O`O`O`O`O`O`O`O`O`O`O`O`",
"Oy !O%ojO`O`O`O`O`O`O`O`O`O`O`O`O`O`o:X^On.EO`O`O`O`O`O`O`O`O`O`O`O`O`O`O`O`O`O`O`O`O`O`O`O`O`O`",
"o{ LOeO`O`O`O`O`O`O`O`O`O`O`O`O`O`O` Z.HObX6oMO`O`O`O`O`O`O`O`O`O`O`O`O`O`O`O`O`O`O`O`O`O`O`O`O`",
"O`O`O`O`O`O`O`O`O`O`O`O`O`O`O`O`O`O`O`OiX'XxO5O`O`O`O`O`O`O`O`O`O`O`O`O`O`O`O`O`O`O`O`O`O`O`O`O`",
"O`O`O`O`O`O`O`O`O`O`O`O`O`O`O`O`O`O`O`OI.!.|X_O`O`O`O`O`O`O`O`O`O`O`O`O`O`O`O`O`O`O`O`O`O`O`O`O`",
"O`O`O`O`O`O`O`O`O`O`O`O`O`O`O`O`O`O`O`O`.kX'O`O`O`O`O`O`O`O`O`O`O`O`O`O`O`O`O`O`O`O`O`O`O`O`O`O`",
"O`O`O`O`O`O`O`O`O`O`O`O`O`O`O`O`O`O`O`O`O`O`O`O`O`O`O`O`O`O`O`O`O`O`O`O`O`O`O`O`O`O`O`O`O`O`O`O`",
"O`O`O`O`O`O`O`O`O`O`O`O`O`O`O`O`O`O`O`O`O`O`O`O`O`O`O`O`O`O`O`O`O`O`O`O`O`O`O`O`O`O`O`O`O`O`O`O`",
"O`O`O`O`O`O`O`O`O`O`O`O`O`O`O`O`O`O`O`O`O`O`O`O`O`O`O`O`O`O`O`O`O`O`O`O`O`O`O`O`O`O`O`O`O`O`O`O`",
"O`O`O`O`O`O`O`O`O`O`O`O`O`O`O`O`O`O`O`O`O`O`O`O`O`O`O`O`O`O`O`O`O`O`O`O`O`O`O`O`O`O`O`O`O`O`O`O`"
};
