/* XPM */
static char * grip_xpm[] = {
"48 48 665 2",
"  	c None",
". 	c #E3455B",
"+ 	c #EF7D8D",
"@ 	c #ED495F",
"# 	c #E81A33",
"$ 	c #E51933",
"% 	c #F49EAA",
"& 	c #F8ADB7",
"* 	c #F6919F",
"= 	c #F48494",
"- 	c #E7354C",
"; 	c #ED263F",
"> 	c #EB2F47",
", 	c #E93249",
"' 	c #E9334B",
") 	c #E9334A",
"! 	c #E93148",
"~ 	c #ED2A44",
"{ 	c #ED4C61",
"] 	c #F7B8C0",
"^ 	c #E82C44",
"/ 	c #EC1732",
"( 	c #EF5267",
"_ 	c #F59BA8",
": 	c #EE6275",
"< 	c #EC2942",
"[ 	c #EB2D45",
"} 	c #ED4F63",
"| 	c #EB5C70",
"1 	c #EF6477",
"2 	c #F26B7D",
"3 	c #F06D7F",
"4 	c #F06E80",
"5 	c #F06F81",
"6 	c #F16D7F",
"7 	c #F0677A",
"8 	c #EC6C7D",
"9 	c #EB6476",
"0 	c #E92942",
"a 	c #E51730",
"b 	c #F27F8E",
"c 	c #F592A0",
"d 	c #E9122B",
"e 	c #EB2C46",
"f 	c #F28494",
"g 	c #F27A8B",
"h 	c #EC354E",
"i 	c #E82740",
"j 	c #F06476",
"k 	c #F17E8E",
"l 	c #F16B7E",
"m 	c #ED5B6E",
"n 	c #EE4E63",
"o 	c #EE3B52",
"p 	c #ED2D46",
"q 	c #EC2640",
"r 	c #EE2741",
"s 	c #ED344C",
"t 	c #EF445A",
"u 	c #F37787",
"v 	c #F9C6CD",
"w 	c #EB5065",
"x 	c #E33147",
"y 	c #F5A3AE",
"z 	c #EB5A6D",
"A 	c #ED2C44",
"B 	c #F17485",
"C 	c #F27D8E",
"D 	c #EA2C44",
"E 	c #EB475C",
"F 	c #F48E9D",
"G 	c #F17384",
"H 	c #E83C52",
"I 	c #ED2840",
"J 	c #F2122D",
"K 	c #F05266",
"L 	c #F8C0C8",
"M 	c #EA344B",
"N 	c #EE5A6D",
"O 	c #F7A2AE",
"P 	c #E8374D",
"Q 	c #EC2740",
"R 	c #F27C8C",
"S 	c #F17284",
"T 	c #F0223C",
"U 	c #ED697C",
"V 	c #F592A1",
"W 	c #EC465C",
"X 	c #ED142F",
"Y 	c #ED1832",
"Z 	c #F1818F",
"` 	c #F699A6",
" .	c #E6233B",
"..	c #F38D9B",
"+.	c #EE7989",
"@.	c #F0203A",
"#.	c #EB1E38",
"$.	c #F4919F",
"%.	c #ED5167",
"&.	c #ED2B43",
"*.	c #F07284",
"=.	c #F38494",
"-.	c #ED324A",
";.	c #ED374E",
">.	c #F4A1AC",
",.	c #EF6273",
"'.	c #E93C51",
").	c #F7A7B2",
"!.	c #ED5669",
"~.	c #EB3950",
"{.	c #ED223C",
"].	c #F07A8C",
"^.	c #EF2942",
"/.	c #EC5C6F",
"(.	c #F8A4B0",
"_.	c #E8364C",
":.	c #EF6778",
"<.	c #F39DA9",
"[.	c #EC3149",
"}.	c #F0122C",
"|.	c #EE677A",
"1.	c #EF697B",
"2.	c #EB586C",
"3.	c #F27F90",
"4.	c #EE344D",
"5.	c #EE243D",
"6.	c #F08190",
"7.	c #F18493",
"8.	c #E7223A",
"9.	c #F7A0AC",
"0.	c #F17D8C",
"a.	c #ED1630",
"b.	c #EA3E53",
"c.	c #F18191",
"d.	c #EB2C45",
"e.	c #E9374E",
"f.	c #F48192",
"g.	c #ED445B",
"h.	c #E83C50",
"i.	c #F8A7B2",
"j.	c #ED5366",
"k.	c #EB4156",
"l.	c #F8C1C8",
"m.	c #EF475C",
"n.	c #EE2B43",
"o.	c #EB344A",
"p.	c #F06677",
"q.	c #F8ABB5",
"r.	c #EA5064",
"s.	c #EF6376",
"t.	c #F06C7E",
"u.	c #EB6073",
"v.	c #F59FAA",
"w.	c #E42B42",
"x.	c #EC566B",
"y.	c #F8BCC4",
"z.	c #F1586C",
"A.	c #F21934",
"B.	c #ED142E",
"C.	c #EB213B",
"D.	c #ED3950",
"E.	c #EE5164",
"F.	c #EC6778",
"G.	c #EC7787",
"H.	c #F28896",
"I.	c #F797A4",
"J.	c #F49DA9",
"K.	c #EF8896",
"L.	c #E13950",
"M.	c #E41D36",
"N.	c #F58D9C",
"O.	c #EB3149",
"P.	c #E8122C",
"Q.	c #F799A5",
"R.	c #F27A89",
"S.	c #EA162F",
"T.	c #EC213B",
"U.	c #F06C7D",
"V.	c #F594A2",
"W.	c #F37282",
"X.	c #F26578",
"Y.	c #F28392",
"Z.	c #F195A1",
"`.	c #F79EAA",
" +	c #F5919E",
".+	c #EF7A89",
"++	c #EE6475",
"@+	c #EE5165",
"#+	c #ED364E",
"$+	c #E91C36",
"%+	c #EE5166",
"&+	c #F48191",
"*+	c #E7122B",
"=+	c #E83248",
"-+	c #F7BBC3",
";+	c #ED465B",
">+	c #F21C37",
",+	c #F05F73",
"'+	c #F8AFB9",
")+	c #F8ACB6",
"!+	c #F48695",
"~+	c #ED6576",
"{+	c #EC4B5F",
"]+	c #E8334A",
"^+	c #E4263D",
"/+	c #E01E36",
"(+	c #E1132C",
"_+	c #E7132E",
":+	c #F58C9B",
"<+	c #E93F56",
"[+	c #EC233D",
"}+	c #E5374D",
"|+	c #EA4A5F",
"1+	c #F6A2AD",
"2+	c #F498A5",
"3+	c #EA1730",
"4+	c #F6112E",
"5+	c #E9122D",
"6+	c #E31F37",
"7+	c #E6263E",
"8+	c #E52E45",
"9+	c #EB4157",
"0+	c #EC596C",
"a+	c #F17A8A",
"b+	c #F8A5B0",
"c+	c #F7A8B3",
"d+	c #EB485E",
"e+	c #E8243D",
"f+	c #F595A3",
"g+	c #EA2A43",
"h+	c #EF7384",
"i+	c #F37E8F",
"j+	c #F37989",
"k+	c #E5445A",
"l+	c #E6102A",
"m+	c #ED1A33",
"n+	c #ED2E47",
"o+	c #EE495F",
"p+	c #EE5B6E",
"q+	c #EF7282",
"r+	c #F38997",
"s+	c #F79CA9",
"t+	c #F69EA9",
"u+	c #F298A4",
"v+	c #F28A97",
"w+	c #F37B8B",
"x+	c #EB6071",
"y+	c #EB4258",
"z+	c #F5909F",
"A+	c #E5112B",
"B+	c #E6132D",
"C+	c #F07486",
"D+	c #F27283",
"E+	c #EF3149",
"F+	c #F01731",
"G+	c #DC1029",
"H+	c #DE364C",
"I+	c #F08593",
"J+	c #F29BA6",
"K+	c #F799A6",
"L+	c #F58E9C",
"M+	c #EF7F8E",
"N+	c #ED6D7D",
"O+	c #EE576A",
"P+	c #EF4257",
"Q+	c #ED2A42",
"R+	c #EE1832",
"S+	c #EF1832",
"T+	c #EF5F72",
"U+	c #E95F72",
"V+	c #EF596C",
"W+	c #F58696",
"X+	c #E70F29",
"Y+	c #E52A43",
"Z+	c #F48D9C",
"`+	c #EB1F39",
" @	c #E95268",
".@	c #F6AAB6",
"+@	c #EE6879",
"@@	c #EA3850",
"#@	c #EC3047",
"$@	c #EF243F",
"%@	c #EE5267",
"&@	c #E95E71",
"*@	c #EF5B6D",
"=@	c #F58494",
"-@	c #E71029",
";@	c #E7344C",
">@	c #F48D9B",
",@	c #EB1530",
"'@	c #DF546F",
")@	c #E46E85",
"!@	c #E02A49",
"~@	c #EE5367",
"{@	c #EA5F72",
"]@	c #ED495D",
"^@	c #F58A99",
"/@	c #E5112A",
"(@	c #E41C36",
"_@	c #F38C9B",
":@	c #EF566B",
"<@	c #EE1A36",
"[@	c #C63A63",
"}@	c #C97699",
"|@	c #C26288",
"1@	c #BD315F",
"2@	c #ED586C",
"3@	c #E31630",
"4@	c #E3435C",
"5@	c #F18C9E",
"6@	c #EB7387",
"7@	c #DF5773",
"8@	c #CD5F83",
"9@	c #9578A7",
"0@	c #6D8DC9",
"a@	c #606DAD",
"b@	c #EA5D70",
"c@	c #E71731",
"d@	c #E02D47",
"e@	c #CC4062",
"f@	c #D25776",
"g@	c #D16A8A",
"h@	c #BC6B95",
"i@	c #6872B0",
"j@	c #6CB8EF",
"k@	c #529EDD",
"l@	c #DD2A4A",
"m@	c #E9647A",
"n@	c #E95267",
"o@	c #E95F77",
"p@	c #E06C87",
"q@	c #B03162",
"r@	c #74539D",
"s@	c #6D5199",
"t@	c #5D5AA9",
"u@	c #316CC1",
"v@	c #1D83D5",
"w@	c #187ACB",
"x@	c #177DE0",
"y@	c #B84873",
"z@	c #DC7590",
"A@	c #DD3B58",
"B@	c #D03051",
"C@	c #CA93B3",
"D@	c #89508C",
"E@	c #4C7BCA",
"F@	c #4F9CE6",
"G@	c #54A5EA",
"H@	c #48A1ED",
"I@	c #2B93EE",
"J@	c #1A85E6",
"K@	c #3196EA",
"L@	c #1B86E1",
"M@	c #1A77CF",
"N@	c #4191E0",
"O@	c #4089DC",
"P@	c #428CD9",
"Q@	c #2575C9",
"R@	c #217FDF",
"S@	c #2A8CE3",
"T@	c #2085DD",
"U@	c #1587F0",
"V@	c #1483E5",
"W@	c #268EE3",
"X@	c #278EE8",
"Y@	c #218CED",
"Z@	c #419DEC",
"`@	c #55A3EA",
" #	c #599DE2",
".#	c #5784CD",
"+#	c #8767A1",
"@#	c #B978A0",
"##	c #BD315C",
"$#	c #AE3061",
"%#	c #9F7FB1",
"&#	c #6E91CE",
"*#	c #95C4EE",
"=#	c #ADD6F7",
"-#	c #A2D3F8",
";#	c #9DCFF7",
">#	c #91C7F4",
",#	c #79B8EE",
"'#	c #93CAF3",
")#	c #439EE7",
"!#	c #1383EC",
"~#	c #2688D9",
"{#	c #9ECEF5",
"]#	c #9BCBF3",
"^#	c #8BC9F5",
"/#	c #288BDC",
"(#	c #2489E4",
"_#	c #76BCF2",
":#	c #55A4E2",
"<#	c #198AF0",
"[#	c #2289E3",
"}#	c #72B8ED",
"|#	c #8CC2F1",
"1#	c #8CC3F2",
"2#	c #9BCEF6",
"3#	c #A1D2F8",
"4#	c #AED7F8",
"5#	c #A7D1F3",
"6#	c #7AA4DB",
"7#	c #706FB1",
"8#	c #5F78BC",
"9#	c #A7D3F6",
"0#	c #BBDDF9",
"a#	c #67AAE9",
"b#	c #4193E5",
"c#	c #449AEA",
"d#	c #7CBDF2",
"e#	c #B5D9F8",
"f#	c #B6DAF8",
"g#	c #5DADF1",
"h#	c #1486EF",
"i#	c #3998E7",
"j#	c #D1E7FB",
"k#	c #B1D7F7",
"l#	c #5DACEF",
"m#	c #1A81DF",
"n#	c #2D90EB",
"o#	c #A4D3F9",
"p#	c #77B7EC",
"q#	c #1E8FF4",
"r#	c #2B90EA",
"s#	c #9ACDF7",
"t#	c #C3E0F9",
"u#	c #9ACDF6",
"v#	c #4A9CE9",
"w#	c #4690E1",
"x#	c #5799E0",
"y#	c #A1CDF4",
"z#	c #C5E1F7",
"A#	c #69A0DE",
"B#	c #466BC0",
"C#	c #6FB0EB",
"D#	c #C4E1FA",
"E#	c #6C9EDE",
"F#	c #5A6ABB",
"G#	c #516CC5",
"H#	c #1D85EA",
"I#	c #78BBF3",
"J#	c #CCE5FB",
"K#	c #5FAEF2",
"L#	c #1486F0",
"M#	c #3C99E9",
"N#	c #D4E9FB",
"O#	c #71B7F4",
"P#	c #1689F3",
"Q#	c #158DFB",
"R#	c #2E91EB",
"S#	c #A6D3F9",
"T#	c #79B7EC",
"U#	c #1E8EF5",
"V#	c #A4D2F7",
"W#	c #A4D1F6",
"X#	c #3691E8",
"Y#	c #3E76D5",
"Z#	c #6561B1",
"`#	c #7B6DB1",
" $	c #578AD5",
".$	c #B1D8F8",
"+$	c #A0CCF3",
"@$	c #3A8EE3",
"#$	c #2A77D7",
"$$	c #9CCDF8",
"%$	c #ACD3F5",
"&$	c #6B99DC",
"*$	c #8D75B1",
"=$	c #8C4A89",
"-$	c #317BDE",
";$	c #449BE9",
">$	c #D0E8FB",
",$	c #61AFF2",
"'$	c #1386F0",
")$	c #CBE5FB",
"!$	c #58ABF2",
"~$	c #1387F3",
"{$	c #2F92EB",
"]$	c #A6D4F9",
"^$	c #7AB8EC",
"/$	c #1E8FF5",
"($	c #A2D1F7",
"_$	c #7BB7EE",
":$	c #3880DE",
"<$	c #715AA6",
"[$	c #A15C91",
"}$	c #A489BA",
"|$	c #7076BC",
"1$	c #78B8F0",
"2$	c #4DA0EC",
"3$	c #97CBF7",
"4$	c #ACD2F5",
"5$	c #6388CE",
"6$	c #968EC5",
"7$	c #A96FA0",
"8$	c #864F92",
"9$	c #4B6DC7",
"0$	c #489AE6",
"a$	c #61AEF2",
"b$	c #C9E4FB",
"c$	c #55A9F1",
"d$	c #3092EB",
"e$	c #1F8DF3",
"f$	c #2E8FE9",
"g$	c #7DB8EE",
"h$	c #4A76CC",
"i$	c #915F9A",
"j$	c #B388B3",
"k$	c #9D78AE",
"l$	c #5868B9",
"m$	c #7AB9F0",
"n$	c #B4D9F8",
"o$	c #4AA1EF",
"p$	c #64ADEB",
"q$	c #C3E1FA",
"r$	c #679EE0",
"s$	c #666CB7",
"t$	c #988FC6",
"u$	c #8880BD",
"v$	c #5070C1",
"w$	c #CDE6FB",
"x$	c #61ADF0",
"y$	c #1983EB",
"z$	c #3D98E8",
"A$	c #C9E4FA",
"B$	c #56A8F0",
"C$	c #3291E8",
"D$	c #A5D3F9",
"E$	c #2689ED",
"F$	c #338CE3",
"G$	c #A1D0F7",
"H$	c #A0CFF6",
"I$	c #5285D2",
"J$	c #8991CE",
"K$	c #8E7AB6",
"L$	c #6565B4",
"M$	c #3880D8",
"N$	c #B5DAF8",
"O$	c #2C92EC",
"P$	c #2D91E9",
"Q$	c #9CCEF5",
"R$	c #BCDEF9",
"S$	c #6DACE8",
"T$	c #5787D0",
"U$	c #5E9BE1",
"V$	c #82BEF1",
"W$	c #BBDCF8",
"X$	c #BFDDF9",
"Y$	c #62A8EA",
"Z$	c #2A79DA",
"`$	c #3E95E3",
" %	c #C7E3FA",
".%	c #59A3E9",
"+%	c #3872D0",
"@%	c #4087DA",
"#%	c #A2D2F8",
"$%	c #78B4EB",
"%%	c #3A7DDA",
"&%	c #3E83D7",
"*%	c #8FC8F6",
"=%	c #A6D0F7",
"-%	c #99CDF6",
";%	c #5D9BE0",
">%	c #5289D4",
",%	c #599EE5",
"'%	c #A8D3F6",
")%	c #C1E0F7",
"!%	c #55A9EE",
"~%	c #3E9CEC",
"{%	c #8CC4F3",
"]%	c #ADD6F8",
"^%	c #A3D2F8",
"/%	c #9ACEF7",
"(%	c #8DC3F2",
"_%	c #8DC2F3",
":%	c #65A3E4",
"<%	c #4F75C6",
"[%	c #3483D0",
"}%	c #8BC6F1",
"|%	c #4C87CE",
"1%	c #6D529A",
"2%	c #814E94",
"3%	c #516CB4",
"4%	c #6EB7ED",
"5%	c #559FDD",
"6%	c #567ECB",
"7%	c #5087D3",
"8%	c #A1D1F7",
"9%	c #B3D7F7",
"0%	c #93C4F2",
"a%	c #9CCDF5",
"b%	c #A1D1F8",
"c%	c #ABD6F8",
"d%	c #A1CEF4",
"e%	c #5CADEE",
"f%	c #117EE3",
"g%	c #1283E9",
"h%	c #218AE7",
"i%	c #3E9BED",
"j%	c #4AA0EB",
"k%	c #3F99EB",
"l%	c #2C8BE8",
"m%	c #65ADEF",
"n%	c #5D92D6",
"o%	c #7D75B5",
"p%	c #6C7DB9",
"q%	c #749BD4",
"r%	c #818CBF",
"s%	c #B27EA7",
"t%	c #BD7EA5",
"u%	c #9387B6",
"v%	c #6F92CB",
"w%	c #687EBA",
"x%	c #7976B7",
"y%	c #5583CC",
"z%	c #A5D3F7",
"A%	c #8AC0F0",
"B%	c #378FE8",
"C%	c #4097E8",
"D%	c #4FA2EA",
"E%	c #4DA2EC",
"F%	c #3396EB",
"G%	c #1576C7",
"H%	c #49ABEF",
"I%	c #59ADF1",
"J%	c #268EEB",
"K%	c #1382EA",
"L%	c #1782E9",
"M%	c #3C98EC",
"N%	c #AFD6F7",
"O%	c #A0CEF3",
"P%	c #4575C5",
"Q%	c #835798",
"R%	c #9F4B80",
"S%	c #AF517D",
"T%	c #BE5C80",
"U%	c #CC5F7E",
"V%	c #CE5F7D",
"W%	c #C15479",
"X%	c #AC4A79",
"Y%	c #974C84",
"Z%	c #7A599F",
"`%	c #4C7DCC",
" &	c #7AB7EB",
".&	c #2989EB",
"+&	c #54A8EA",
"@&	c #AED7F7",
"#&	c #AFD8F9",
"$&	c #8DC7F6",
"%&	c #93CAF7",
"&&	c #B2D9F8",
"*&	c #A2D1F6",
"=&	c #308DE2",
"-&	c #3680D4",
";&	c #71B9EF",
">&	c #54A3E1",
",&	c #3395E9",
"'&	c #63B0F1",
")&	c #80BDF3",
"!&	c #7ABBF3",
"~&	c #59ABF0",
"{&	c #248CE7",
"]&	c #137ED7",
"^&	c #1178D0",
"                                                                                                ",
"                                                                                                ",
"                                                                                                ",
"                                                                                                ",
"                                                                                                ",
"                                                                                                ",
"                                                              . + @ #                           ",
"                                                            $ % & * = -                         ",
"                                      ; > , ' ) ! ~         { ] ^ / ( _ : <                     ",
"                                [ } | 1 2 3 4 5 6 7 8 9 0 a b c d     e f g h                   ",
"                            i j k l m n o p q r s t u v w x y z         A B C D                 ",
"                          E F G H I               J K L M N O P           Q R S                 ",
"                      T U V W X                   Y Z `  ...+.@.            #.$.%.              ",
"                    &.*.=.-.                      ;.>.,.'.).!.                ~.V !             ",
"                  {.*.].^.                        /.(._.:.<.[.                }.|.1.            ",
"                  2.3.4.                        5.6.7.8.9.0.a.                  b.c.d.          ",
"                e.f.g.                          h.i.j.k.l.m.                n.o.p.q.r.          ",
"                s.t.                            u.v.w.x.y.z.A.  B.C.D.E.F.G.H.I.J.K.L.          ",
"              M.N.O.                          P.Q.R.S.T.U.V.W.X.Y.Z.J.`. +.+++@+#+$+            ",
"              %+&+*+                          =+-+;+    >+,+'+)+!+~+{+]+^+/+(+                  ",
"            _+:+<+                      [+}+|+1+2+3+    4+5+6+7+8+9+0+a+b+c+d+                  ",
"            e+f+M.                    g+h+i+j+7.k+l+m+n+o+p+q+r+s+t+u+v+w+t+x+                  ",
"            y+z+A+                  B+C+D+E+F+X G+H+I+J+K+L+M+N+O+P+Q+R+S+T+U+                  ",
"            V+W+X+                  Y+Z+`+         @.@+@@@#@$@            %@&@                  ",
"            *@=@-@                  ;@>@,@        '@)@!@                  ~@{@                  ",
"            ]@^@/@                  (@_@:@<@    [@}@|@1@                  2@U+                  ",
"            ^ $.3@                    4@5@6@7@8@9@0@a@                    U+b@                  ",
"            c@F d@                      e@f@g@h@i@j@k@                  l@m@n@                  ",
"              o@p@q@                      r@s@t@u@v@w@x@                y@z@A@                  ",
"              B@C@D@E@F@G@H@I@J@K@L@  M@N@O@P@Q@R@S@T@U@V@W@X@Y@Z@`@ #.#+#@###                  ",
"              $#%#&#*#=#-#;#>#,#'#)#!#~#{#]#^#/#(#_#:#<#[#}#|#1#2#3#4#5#6#7#                    ",
"                8#9#0#a#b#c#d#e#f#g#h#i#j#k#l#m#n#o#p#q#r#s#t#u#v#w#x#y#z#A#B#                  ",
"                C#D#E#F#G#  H#I#J#K#L#M#N#O#P#Q#R#S#T#U#r#V#W#X#Y#Z#`# $.$+$@$                  ",
"              #$$$%$&$*$=$  -$;$>$,$'$M#)$!$~$  {$]$^$/$r#($_$:$<$[$}$|$1$f#2$                  ",
"                3$4$5$6$7$8$9$0$>$a$h#M#b$c$    d$]$^$e$f$($g$h$i$j$k$l$m$n$o$                  ",
"                p$q$r$s$t$u$v$g$w$x$y$z$A$B$    C$D$T#E$F$G$H$I$J$K$L$M$N$]#O$                  ",
"                P$Q$R$S$T$U$V$W$X$Y$Z$`$ %.%+%  @%#%$%%%&%*%=%-%;%>%,%'%)%!%                    ",
"                  ~%{%]%^%/%(%_%)$:%<%[%}%|%1%2%3%4%5%6%7%8%9%0%a%b%c%d%e%                      ",
"                f%g%h%i%j%k%l%m%t#n%o%p%q%r%s%t%u%v%w%x%y%z%A%B%C%D%E%F%                        ",
"                G%H%I%J%K%L%M%N%O%P%Q%R%S%T%U%V%W%X%Y%Z%`%($ &.&                                ",
"                  +&@&#&$&%&&&*&=&                      -&;&>&                                  ",
"                    ,&'&)&!&~&{&                          ]&^&                                  ",
"                                                                                                ",
"                                                                                                ",
"                                                                                                ",
"                                                                                                ",
"                                                                                                ",
"                                                                                                "};
