/* XPM */
static char * gthumb_xpm[] = {
"48 48 597 2",
"  	c None",
". 	c #1E1E1E",
"+ 	c #2F2F2F",
"@ 	c #2E2E2E",
"# 	c #2C2C2C",
"$ 	c #8E8E8E",
"% 	c #FFFFFF",
"& 	c #F7F7F7",
"* 	c #3D3D3D",
"= 	c #FEFEFE",
"- 	c #FDFDFD",
"; 	c #E6E6E6",
"> 	c #353535",
", 	c #FCFCFC",
"' 	c #E5E5E5",
") 	c #FBFBFB",
"! 	c #333333",
"~ 	c #FAFAFA",
"{ 	c #F9F9F9",
"] 	c #F8F8F8",
"^ 	c #F6F6F6",
"/ 	c #F5F5F5",
"( 	c #D5D5D5",
"_ 	c #5E5E5E",
": 	c #8C8C8C",
"< 	c #E4E4E4",
"[ 	c #DADADA",
"} 	c #2A2E2A",
"| 	c #717A70",
"1 	c #80877D",
"2 	c #666B57",
"3 	c #3A3920",
"4 	c #292816",
"5 	c #302E18",
"6 	c #36331F",
"7 	c #36331E",
"8 	c #433F23",
"9 	c #5E5D3F",
"0 	c #474632",
"a 	c #3D3E2D",
"b 	c #2C2D1E",
"c 	c #484C37",
"d 	c #636756",
"e 	c #595C4D",
"f 	c #84887A",
"g 	c #565754",
"h 	c #D9D9D9",
"i 	c #313631",
"j 	c #889186",
"k 	c #969E93",
"l 	c #6F7563",
"m 	c #35321D",
"n 	c #454223",
"o 	c #38351B",
"p 	c #474123",
"q 	c #524D30",
"r 	c #6D694A",
"s 	c #9B9778",
"t 	c #615E47",
"u 	c #5B5B44",
"v 	c #3E3F2E",
"w 	c #525741",
"x 	c #7C8271",
"y 	c #575C4B",
"z 	c #717864",
"A 	c #535350",
"B 	c #383B38",
"C 	c #8C948C",
"D 	c #81877E",
"E 	c #646859",
"F 	c #3A361E",
"G 	c #413D25",
"H 	c #222114",
"I 	c #3C381F",
"J 	c #72694C",
"K 	c #949176",
"L 	c #9E987C",
"M 	c #645D46",
"N 	c #595941",
"O 	c #8D7A60",
"P 	c #A29380",
"Q 	c #848A7B",
"R 	c #64695A",
"S 	c #4C5142",
"T 	c #50514F",
"U 	c #8D8D8D",
"V 	c #EFEFEF",
"W 	c #9D9D9D",
"X 	c #585A59",
"Y 	c #707070",
"Z 	c #3B3D37",
"` 	c #272416",
" .	c #2D2B1B",
"..	c #1D1D13",
"+.	c #282816",
"@.	c #47432C",
"#.	c #757058",
"$.	c #948E76",
"%.	c #736B53",
"&.	c #4B4631",
"*.	c #A27D63",
"=.	c #CEBBAD",
"-.	c #606459",
";.	c #414438",
">.	c #27291F",
",.	c #4D4D4C",
"'.	c #E3E3E3",
").	c #080808",
"!.	c #565656",
"~.	c #6B6B6B",
"{.	c #9B9B9B",
"].	c #DBDBDB",
"^.	c #E1E1E1",
"/.	c #3F403F",
"(.	c #0E0E0B",
"_.	c #12140D",
":.	c #11110D",
"<.	c #171810",
"[.	c #242415",
"}.	c #525138",
"|.	c #ADA58E",
"1.	c #716D5D",
"2.	c #4A3C27",
"3.	c #A6876F",
"4.	c #F8F2EE",
"5.	c #A3A39F",
"6.	c #3C3F32",
"7.	c #232619",
"8.	c #4B4C4A",
"9.	c #222222",
"0.	c #6A6A6A",
"a.	c #B1B1B1",
"b.	c #686868",
"c.	c #1B1A18",
"d.	c #21211C",
"e.	c #13130E",
"f.	c #181810",
"g.	c #1D1F15",
"h.	c #353625",
"i.	c #8F765E",
"j.	c #9D8169",
"k.	c #76573A",
"l.	c #947E69",
"m.	c #F4F1EC",
"n.	c #F1F0F0",
"o.	c #575952",
"p.	c #1E2216",
"q.	c #1A1A1A",
"r.	c #575757",
"s.	c #818181",
"t.	c #CCCCCC",
"u.	c #ACACAC",
"v.	c #3A382E",
"w.	c #7E7B60",
"x.	c #736846",
"y.	c #827248",
"z.	c #8F886B",
"A.	c #977B6F",
"B.	c #BEA18F",
"C.	c #9B6E4F",
"D.	c #94694B",
"E.	c #AC7D62",
"F.	c #D7CABE",
"G.	c #FBF4EF",
"H.	c #8F8D85",
"I.	c #535647",
"J.	c #515250",
"K.	c #343434",
"L.	c #5B5B5B",
"M.	c #ABABAB",
"N.	c #2F2F28",
"O.	c #6B5D20",
"P.	c #A69138",
"Q.	c #C2A83E",
"R.	c #D6B742",
"S.	c #DBBE48",
"T.	c #DCBD4B",
"U.	c #E3C756",
"V.	c #E6CC61",
"W.	c #E9CF65",
"X.	c #E7D06B",
"Y.	c #E7D278",
"Z.	c #F6E490",
"`.	c #FFF3A7",
" +	c #69665C",
".+	c #E2E2E2",
"++	c #040404",
"@+	c #393939",
"#+	c #7E7E7E",
"$+	c #B3B3B3",
"%+	c #EAEAEA",
"&+	c #ECECEC",
"*+	c #595A58",
"=+	c #3C3C1A",
"-+	c #686123",
";+	c #7B7124",
">+	c #857C25",
",+	c #877E25",
"'+	c #877D22",
")+	c #8E821F",
"!+	c #93831E",
"~+	c #9B851D",
"{+	c #A1881D",
"]+	c #A98D1E",
"^+	c #AF9220",
"/+	c #B89C24",
"(+	c #5E5B4C",
"_+	c #303030",
":+	c #595959",
"<+	c #8F8F8F",
"[+	c #F1F1F1",
"}+	c #DCDCDC",
"|+	c #B4B4B4",
"1+	c #838383",
"2+	c #8B8B8B",
"3+	c #333A24",
"4+	c #6A713E",
"5+	c #7F874B",
"6+	c #919854",
"7+	c #A1A55D",
"8+	c #A9AC69",
"9+	c #A7A95D",
"0+	c #A4A65A",
"a+	c #A1A558",
"b+	c #A4A95D",
"c+	c #A9B069",
"d+	c #A4A95A",
"e+	c #A2A54E",
"f+	c #5B5B50",
"g+	c #7F7F7F",
"h+	c #D7D7D7",
"i+	c #727272",
"j+	c #454749",
"k+	c #54565B",
"l+	c #525B65",
"m+	c #9D9E9F",
"n+	c #BABABA",
"o+	c #2F362D",
"p+	c #3E5836",
"q+	c #4D6D43",
"r+	c #618052",
"s+	c #859C6B",
"t+	c #ACB48E",
"u+	c #A7AF7C",
"v+	c #98A56F",
"w+	c #A1AE79",
"x+	c #C9D1A9",
"y+	c #F7F8E7",
"z+	c #C7CE9D",
"A+	c #B6C17D",
"B+	c #5E6057",
"C+	c #C4C4C4",
"D+	c #888887",
"E+	c #5C5C5C",
"F+	c #454B4F",
"G+	c #4A5865",
"H+	c #6B8397",
"I+	c #91AFC7",
"J+	c #A1BBD3",
"K+	c #8DA7BF",
"L+	c #585C60",
"M+	c #E0E0E0",
"N+	c #434443",
"O+	c #131D12",
"P+	c #1C2719",
"Q+	c #233020",
"R+	c #2E3929",
"S+	c #3C4335",
"T+	c #3C4131",
"U+	c #333B29",
"V+	c #373F2F",
"W+	c #4C5148",
"X+	c #646563",
"Y+	c #454C3E",
"Z+	c #394430",
"`+	c #4E4F4D",
" @	c #EDEDED",
".@	c #F2F2F2",
"+@	c #D8D8D8",
"@@	c #81817F",
"#@	c #5A5957",
"$@	c #575351",
"%@	c #4D4E50",
"&@	c #393B3D",
"*@	c #2A2B2B",
"=@	c #272828",
"-@	c #323639",
";@	c #49535D",
">@	c #6F8598",
",@	c #92AEC9",
"'@	c #545B64",
")@	c #EEEEEE",
"!@	c #808080",
"~@	c #737373",
"{@	c #C3C3C3",
"]@	c #BCBCBC",
"^@	c #F3F3F3",
"/@	c #A2A3A3",
"(@	c #5B5C5C",
"_@	c #4C4B4B",
":@	c #726B67",
"<@	c #9B908A",
"[@	c #585351",
"}@	c #5A5654",
"|@	c #98A1AC",
"1@	c #90AAC2",
"2@	c #85A4C2",
"3@	c #88A3BF",
"4@	c #8EA1BA",
"5@	c #798A9B",
"6@	c #363C42",
"7@	c #3B3E43",
"8@	c #71747B",
"9@	c #A8A8A8",
"0@	c #B6B6B6",
"a@	c #4B4B4B",
"b@	c #F0F0F0",
"c@	c #F4F4F4",
"d@	c #909090",
"e@	c #575858",
"f@	c #4A4B4D",
"g@	c #747070",
"h@	c #BFB7B7",
"i@	c #D5D1D5",
"j@	c #ACA7A8",
"k@	c #292828",
"l@	c #B6ABA6",
"m@	c #F3E2DA",
"n@	c #D9DEE5",
"o@	c #EAEEF3",
"p@	c #FAFBFC",
"q@	c #FBFCFC",
"r@	c #E6EBF1",
"s@	c #C4D1DF",
"t@	c #AEB9C9",
"u@	c #918F94",
"v@	c #131313",
"w@	c #57595B",
"x@	c #4D4D4D",
"y@	c #9E9E9E",
"z@	c #CBCBCB",
"A@	c #E8E8E8",
"B@	c #424242",
"C@	c #676868",
"D@	c #757B85",
"E@	c #B8C0CC",
"F@	c #C4C9D5",
"G@	c #BBC3D1",
"H@	c #9CA6B4",
"I@	c #232323",
"J@	c #9DA5B2",
"K@	c #E6E0E2",
"L@	c #FEFDFD",
"M@	c #FDFDFE",
"N@	c #F7F8FA",
"O@	c #F1F4F7",
"P@	c #ECEFF3",
"Q@	c #E6EAEF",
"R@	c #9DACC1",
"S@	c #868E9F",
"T@	c #0F0F0F",
"U@	c #C5C5C5",
"V@	c #E9E9E9",
"W@	c #626262",
"X@	c #848484",
"Y@	c #C1C1C1",
"Z@	c #C2C2C2",
"`@	c #A0A0A0",
" #	c #656972",
".#	c #B4BECE",
"+#	c #BABFCC",
"@#	c #A0B3CA",
"##	c #3C4146",
"$#	c #838A98",
"%#	c #DBD8DD",
"&#	c #F8F8FA",
"*#	c #F3F4F7",
"=#	c #EEEFF3",
"-#	c #E9EBF0",
";#	c #E5E6EB",
">#	c #BCB7BF",
",#	c #D2C3C2",
"'#	c #625A57",
")#	c #969696",
"!#	c #636363",
"~#	c #B7B7B7",
"{#	c #DFDFDF",
"]#	c #CCCCCA",
"^#	c #4A4D52",
"/#	c #A8B6CA",
"(#	c #AEB7CA",
"_#	c #798494",
":#	c #393C41",
"<#	c #C5C1CB",
"[#	c #FEFDFE",
"}#	c #FBFAFA",
"|#	c #F7F6F8",
"1#	c #F6F4F6",
"2#	c #F5F3F3",
"3#	c #FAF6F3",
"4#	c #FBF1E9",
"5#	c #ECD3C3",
"6#	c #D1BBB4",
"7#	c #7E7C83",
"8#	c #262626",
"9#	c #A1A1A1",
"0#	c #C9C9C9",
"a#	c #323232",
"b#	c #505050",
"c#	c #646464",
"d#	c #777777",
"e#	c #6C6C6C",
"f#	c #1B1B1B",
"g#	c #3F3F3F",
"h#	c #EAE9E9",
"i#	c #4C4D4D",
"j#	c #889CB5",
"k#	c #9AA9C2",
"l#	c #464951",
"m#	c #8E8F9A",
"n#	c #E4DFE3",
"o#	c #FEFDFC",
"p#	c #FDFBFA",
"q#	c #FCF9F7",
"r#	c #FEF9F5",
"s#	c #FEF7F2",
"t#	c #F1ECEA",
"u#	c #C0C1C8",
"v#	c #75899E",
"w#	c #4F6F8D",
"x#	c #385D7D",
"y#	c #4E4F51",
"z#	c #494848",
"A#	c #484848",
"B#	c #000000",
"C#	c #0C0C0C",
"D#	c #676E7E",
"E#	c #A5A9BF",
"F#	c #232224",
"G#	c #C5B6B9",
"H#	c #FBF7F5",
"I#	c #FFFEFE",
"J#	c #FFFFFE",
"K#	c #FFFFFC",
"L#	c #FCFBF7",
"M#	c #F3F2EF",
"N#	c #E3E4E7",
"O#	c #CAD3DC",
"P#	c #ABBCCC",
"Q#	c #527795",
"R#	c #4D7492",
"S#	c #426B87",
"T#	c #365F77",
"U#	c #364651",
"V#	c #171717",
"W#	c #E7E7E7",
"X#	c #8A8A8A",
"Y#	c #4F4B4F",
"Z#	c #C8B4B8",
"`#	c #101010",
" $	c #FDE3C7",
".$	c #FFFEFD",
"+$	c #FCFCFA",
"@$	c #F7F6F5",
"#$	c #EFEEEF",
"$$	c #E6E6E8",
"%$	c #D7DBE2",
"&$	c #C9D3DC",
"*$	c #B8C7D3",
"=$	c #6B8FA8",
"-$	c #4B758E",
";$	c #467189",
">$	c #3A6379",
",$	c #2D5063",
"'$	c #1D3644",
")$	c #060606",
"!$	c #B2B2B2",
"~$	c #191919",
"{$	c #666666",
"]$	c #544D4C",
"^$	c #C9AAA0",
"/$	c #0D0D0D",
"($	c #BAADA7",
"_$	c #F3F5F6",
":$	c #EAECEF",
"<$	c #E4E7EA",
"[$	c #DEE1E7",
"}$	c #D7DCE3",
"|$	c #CCD6DE",
"1$	c #A6BBC8",
"2$	c #61869D",
"3$	c #527E98",
"4$	c #42697C",
"5$	c #2E5161",
"6$	c #18303A",
"7$	c #1C272D",
"8$	c #575B5D",
"9$	c #050505",
"0$	c #D3D3D3",
"a$	c #6E6E6E",
"b$	c #43505F",
"c$	c #0F1214",
"d$	c #516C83",
"e$	c #B5C2CC",
"f$	c #D4DBE1",
"g$	c #DFE5E9",
"h$	c #D9E0E6",
"i$	c #C6D2DA",
"j$	c #A9BCC9",
"k$	c #7F9EB2",
"l$	c #557B93",
"m$	c #345162",
"n$	c #3B505E",
"o$	c #50575C",
"p$	c #7F8082",
"q$	c #ECEBEB",
"r$	c #151515",
"s$	c #6D6D6D",
"t$	c #C6C6C6",
"u$	c #9D9C9C",
"v$	c #253542",
"w$	c #162026",
"x$	c #475E6D",
"y$	c #456B83",
"z$	c #476A83",
"A$	c #587C96",
"B$	c #678AA1",
"C$	c #688AA0",
"D$	c #4E6B80",
"E$	c #314451",
"F$	c #545E64",
"G$	c #A8A9AA",
"H$	c #D9D8D8",
"I$	c #3C3C3C",
"J$	c #D2D2D2",
"K$	c #AAAAAA",
"L$	c #070707",
"M$	c #797979",
"N$	c #CFCFCF",
"O$	c #2B3236",
"P$	c #243946",
"Q$	c #151E24",
"R$	c #466D85",
"S$	c #37576B",
"T$	c #385161",
"U$	c #47555D",
"V$	c #7A7A7A",
"W$	c #B3B2B2",
"X$	c #F4F3F3",
"Y$	c #757575",
"Z$	c #4F4F4F",
"`$	c #22343F",
" %	c #0D1012",
".%	c #393D41",
"+%	c #777A7B",
"@%	c #E9E8E8",
"#%	c #9F9F9F",
"$%	c #AEAEAE",
"%%	c #474747",
"&%	c #727171",
"*%	c #696968",
"=%	c #C0C0C0",
"-%	c #010101",
";%	c #ADADAD",
">%	c #AFAFAF",
",%	c #949494",
"'%	c #959595",
")%	c #030303",
"!%	c #A3A3A3",
"~%	c #979797",
"{%	c #DDDDDD",
"]%	c #B9B9B9",
"^%	c #373737",
"/%	c #A6A6A6",
"(%	c #D1D1D1",
"_%	c #141414",
":%	c #D0D0D0",
"<%	c #999999",
"[%	c #313131",
"}%	c #111111",
"|%	c #A2A2A2",
"1%	c #5F5F5F",
"2%	c #0A0A0A",
"3%	c #020202",
"4%	c #535353",
"5%	c #2D2D2D",
"6%	c #696969",
"7%	c #BFBFBF",
"8%	c #1F1F1F",
"9%	c #5A5A5A",
"0%	c #747474",
"a%	c #363636",
"b%	c #0B0B0B",
"c%	c #4A4A4A",
"d%	c #494949",
"e%	c #2A2A2A",
"f%	c #555555",
"                                                                                                ",
"                                    . + @ @ @ @ @ @ @ @ @ @ @ @ @ @ @ @ @ @ @ @ @ #             ",
"                                    $ % % % % % % % % % % % % % % % % % % % % % % & *           ",
"                                    $ % % % % % % % % % % % % % % % % % % = = - - ; >           ",
"                                    $ % % % % % % % % % % % % % % % % % = = - - , ' >           ",
"                                    $ % % % % % % % % % % % % % % % % = = - - , ) ' !           ",
"                                    $ % % , , ) ) ) ~ ~ ~ { { { ] ] & & ^ ^ / & ) ' !           ",
"                                    $ % ( _ _ _ _ _ _ _ _ _ _ _ _ _ _ _ _ _ _ : % < !           ",
"                                    $ % [ } | 1 2 3 4 5 6 7 8 9 0 a b c d e f g % < !           ",
"                                    $ % h i j k l m n o p q r s t u v w x y z A % < !           ",
"                                    $ % h B C D E F G H I J K L M N O P Q R S T % < !           ",
"                                    U V W . X Y Z `  ...+.@.#.$.%.&.*.=.-.;.>.,.% '.!           ",
"                                  ).!.~.{.]./ ^./.(._.:.<.[.}.|.1.2.3.4.5.6.7.8.% '.!           ",
"                              9.0.a.[ ) - ~ & V b.c.d.e.f.g.h.i.j.k.l.m.n.o.p.8.% '.!           ",
"                      q.r.s.t.% % ) ] ] ] & & / u.v.w.x.y.z.A.B.C.D.E.F.G.H.I.J.% '.!           ",
"                K.L.M.[ / - - ) ~ { ] ] ] & ^ ^ h N.O.P.Q.R.S.T.U.V.W.X.Y.Z.`. +% .+!           ",
"        ++@+#+$+%+% % - ) ) ) ~ { { ] ] ] { / ^ &+*+=+-+;+>+,+'+)+!+~+{+]+^+/+(+% .+!           ",
"  _+:+<+'.) % = = - - , ) ) ~ ~ { ~ & [+}+|+1+.+/ 2+3+4+5+6+7+8+9+0+a+b+c+d+e+f+% .+!           ",
"  g+- % % % = = - - , , ) ) ) { V h+a.i+j+k+l+m+- n+o+p+q+r+s+t+u+v+w+x+y+z+A+B+% ^.!           ",
"  _ - % % % = - - - - - & %+C+D+E+F+G+H+I+J+K+L+- M+N+O+P+Q+R+S+T+U+V+W+X+Y+Z+`+% ^.!           ",
"  q. @% % = = - ) .@+@a.@@#@$@%@&@*@=@-@;@>@,@'@M+)@!@~@{@< { % % % % % % % % % ) ^.!           ",
"    ]@% % = ^@h /@(@_@:@<@[@}@|@1@2@3@4@5@6@7@8@9@^@0@a@$+h+b@{ { ] ] & & ^ / / c@M+!           ",
"    b.% ; d@e@f@g@h@i@j@k@l@m@n@o@p@q@r@s@t@u@v@w@~ [ x@y@z@A@& ] ] & & ^ / / c@c@M+!           ",
"    B@V c@C@D@E@F@G@H@I@J@K@L@= M@M@N@O@P@Q@R@S@T@U@V@W@X@Y@.+^@] & & ^ / / c@c@^@M+!           ",
"    q.Z@- `@ #.#+#@###$#%#= = = M@&#*#=#-#;#>#,#'#> / )#!#~#[ )@& & ^ / / c@c@^@^@{#!           ",
"      U % ]#^#/#(#_#:#<#L@= = [#}#|#1#2#3#4#5#6#7#8#9#0#a#b#c#Y d#d#d#d#d#d#d#d#d#e#f#          ",
"      g#% h#i#j#k#l#m#n#= = = o#p#q#r#s#t#u#v#w#x#y#z#'.A#B#B#B#B#B#B#B#B#B#B#B#B#B#            ",
"      C#A@) 1+D#E#F#G#H#I#I#J#K#L#M#N#O#P#Q#R#S#T#U#V#W#X#B#B#                                  ",
"        y@- Z@Y#Z#`# $.$= +$@$#$$$%$&$*$=$-$;$>$,$'$)$A@!$~$                                    ",
"        {$- A@]$^$/$($) _$:$<$[$}$|$1$2$3$4$5$6$7$8$9$W#0$*                                     ",
"        K.' ^ a$b$c$d$e$f$g$h$i$j$k$l$m$n$o$p${@q$' r$h+' s$                                    ",
"          t$= u$v$w$x$y$z$A$B$C$D$E$F$G$H$.@, { [+M.I$J$A@K$L$                                  ",
"          M$% N$O$P$Q$R$S$T$U$V$W$X$% - & ^ ^ ^@V > Y$J$V@h 9.                                  ",
"          * ~ %+Z$`$ %.%+%C+@%] ~ ] & ^ ^ ^ c@b@#%8#$%( W#h %%                                  ",
"          8#t./ {.&%*%++t.{ / / c@/ c@c@/ ^@b@=%-%0.;%>%s.Z$q.                                  ",
"            ,%~ ^.N$'%b.)%!%c@c@^@^@.@.@[+)@~%-%9$)%q./$L$                                      ",
"            L., .@{%]%X#Y$I@^%/%{#[+ @(%X#9.C#_%-%B#B#B#B#                                      ",
"            `#V ^ %+:%$%<%s.c#[%}%-%B#9$)%B#B#B#B#V#f#B#B#                                      ",
"              |+, ^@.+t$|%!@1%> V#2%3%B#B#B#B#B#B#B#4%5%B#B#                                    ",
"              6%~ ' 7%g+g#8%++B#B#B#B#B#B#          B#9%_+B#B#                                  ",
"              a#0%a%b%++B#                            B#c%q.B#B#                                ",
"                                                      B#B#d%e%B#B#                              ",
"                                                        B#B#f%+ B#B#                            ",
"                                                          B#B#d%~$B#                            ",
"                                                            B#B#B#                              ",
"                                                                                                ",
"                                                                                                ",
"                                                                                                "};
