/* XPM */
static char * gtkam_xpm[] = {
"48 48 302 2",
"  	c None",
". 	c #000000",
"+ 	c #383838",
"@ 	c #C4C4C4",
"# 	c #BCBCBC",
"$ 	c #BBBBBB",
"% 	c #B9B9B9",
"& 	c #B7B7B7",
"* 	c #B3B3B3",
"= 	c #B2B2B2",
"- 	c #B1B1B1",
"; 	c #AEAEAE",
"> 	c #B5B5B5",
", 	c #2A2A2A",
"' 	c #262626",
") 	c #5F5F5F",
"! 	c #888888",
"~ 	c #999999",
"{ 	c #D3D3D3",
"] 	c #E7E7E7",
"^ 	c #FFFFFF",
"/ 	c #747474",
"( 	c #BABABA",
"_ 	c #515151",
": 	c #2E2E2E",
"< 	c #090909",
"[ 	c #242424",
"} 	c #868686",
"| 	c #C2C2C2",
"1 	c #C1C1C1",
"2 	c #D5D5D5",
"3 	c #EEEEEE",
"4 	c #EFEFEF",
"5 	c #EDEDED",
"6 	c #727272",
"7 	c #7C7C7C",
"8 	c #767676",
"9 	c #151515",
"0 	c #252525",
"a 	c #A7A7A7",
"b 	c #BFBFBF",
"c 	c #CACACA",
"d 	c #D4D4D4",
"e 	c #878787",
"f 	c #DEDEDE",
"g 	c #E1E1E1",
"h 	c #E0E0E0",
"i 	c #DFDFDF",
"j 	c #E2E2E2",
"k 	c #D6D6D6",
"l 	c #474747",
"m 	c #737373",
"n 	c #8B8B8B",
"o 	c #989898",
"p 	c #949494",
"q 	c #8E8E8E",
"r 	c #898989",
"s 	c #696969",
"t 	c #363636",
"u 	c #626262",
"v 	c #C3C3C3",
"w 	c #BEBEBE",
"x 	c #CFCFCF",
"y 	c #C7C7C7",
"z 	c #D2D2D2",
"A 	c #2B2B2B",
"B 	c #424242",
"C 	c #414141",
"D 	c #404040",
"E 	c #3F3F3F",
"F 	c #3E3E3E",
"G 	c #3C3C3C",
"H 	c #3B3B3B",
"I 	c #494949",
"J 	c #808080",
"K 	c #9E9E9E",
"L 	c #B0B0B0",
"M 	c #D7D7D7",
"N 	c #DDDDDD",
"O 	c #DBDBDB",
"P 	c #CECECE",
"Q 	c #848484",
"R 	c #282828",
"S 	c #C6C6C6",
"T 	c #BDBDBD",
"U 	c #C8C8C8",
"V 	c #C9C9C9",
"W 	c #D0D0D0",
"X 	c #CDCDCD",
"Y 	c #CCCCCC",
"Z 	c #C0C0C0",
"` 	c #ABABAB",
" .	c #8F8F8F",
"..	c #616161",
"+.	c #676767",
"@.	c #C5C5C5",
"#.	c #E5E5E5",
"$.	c #B8B8B8",
"%.	c #B4B4B4",
"&.	c #AAAAAA",
"*.	c #A5A5A5",
"=.	c #A2A2A2",
"-.	c #828282",
";.	c #3A3A3A",
">.	c #666666",
",.	c #B6B6B6",
"'.	c #EAEAEA",
").	c #D1D1D1",
"!.	c #A4A4A4",
"~.	c #909090",
"{.	c #888782",
"].	c #F7F7F2",
"^.	c #EFEFE8",
"/.	c #DEDED2",
"(.	c #DDDDD1",
"_.	c #D9D9CD",
":.	c #B6B6AB",
"<.	c #8C8C84",
"[.	c #86867B",
"}.	c #7B7B7A",
"|.	c #ACACAC",
"1.	c #818181",
"2.	c #DCDCDC",
"3.	c #DADADA",
"4.	c #D9D9D9",
"5.	c #606060",
"6.	c #ECECE4",
"7.	c #F3F3ED",
"8.	c #AAAA96",
"9.	c #686752",
"0.	c #5F5D4A",
"a.	c #535340",
"b.	c #494934",
"c.	c #41412D",
"d.	c #343322",
"e.	c #474743",
"f.	c #676765",
"g.	c #ADADAD",
"h.	c #030303",
"i.	c #7D7D7D",
"j.	c #6F6F6F",
"k.	c #707070",
"l.	c #F1F1EA",
"m.	c #B3B3A3",
"n.	c #696853",
"o.	c #585844",
"p.	c #4A4A35",
"q.	c #393825",
"r.	c #4A4A3C",
"s.	c #4A4A49",
"t.	c #A6A6A6",
"u.	c #A9A9A9",
"v.	c #050505",
"w.	c #9A9A9A",
"x.	c #757575",
"y.	c #E9E9DF",
"z.	c #EDEDE5",
"A.	c #B5B5A5",
"B.	c #6D6C57",
"C.	c #64634F",
"D.	c #4D4C38",
"E.	c #444430",
"F.	c #3A3A28",
"G.	c #363623",
"H.	c #0F0F0A",
"I.	c #838383",
"J.	c #686868",
"K.	c #DBDBCF",
"L.	c #B7B7A7",
"M.	c #6C6B56",
"N.	c #575743",
"O.	c #43432F",
"P.	c #9B9B9B",
"Q.	c #9F9F9F",
"R.	c #A8A8A8",
"S.	c #E8E8E8",
"T.	c #444444",
"U.	c #373737",
"V.	c #5D5D5D",
"W.	c #797979",
"X.	c #858585",
"Y.	c #DCDBD0",
"Z.	c #F0F0E8",
"`.	c #656450",
" +	c #4C4C37",
".+	c #42422E",
"++	c #393927",
"@+	c #373623",
"#+	c #979797",
"$+	c #A0A0A0",
"%+	c #A3A3A3",
"&+	c #F3F3F3",
"*+	c #323232",
"=+	c #232323",
"-+	c #6E6E6E",
";+	c #5C5C5C",
">+	c #2D2D2D",
",+	c #2F2F2F",
"'+	c #434343",
")+	c #B6B6A6",
"!+	c #6F6F58",
"~+	c #5A5A45",
"{+	c #636363",
"]+	c #4C4C4C",
"^+	c #4B4B4B",
"/+	c #8A8A8A",
"(+	c #F0F0E9",
"_+	c #6F6F5A",
":+	c #565642",
"<+	c #4B4B36",
"[+	c #929292",
"}+	c #9D9D9D",
"|+	c #565656",
"1+	c #646464",
"2+	c #575757",
"3+	c #5B5B46",
"4+	c #3B3B29",
"5+	c #939393",
"6+	c #ECECEC",
"7+	c #2C2C2C",
"8+	c #545454",
"9+	c #4D4D4D",
"0+	c #4E4E4E",
"a+	c #010101",
"b+	c #484848",
"c+	c #535353",
"d+	c #40402C",
"e+	c #A1A1A1",
"f+	c #6B6B6B",
"g+	c #353535",
"h+	c #E4E4E4",
"i+	c #7E7E7E",
"j+	c #7F7F7F",
"k+	c #8D8D8D",
"l+	c #595959",
"m+	c #ECECE5",
"n+	c #63634D",
"o+	c #3D3D3D",
"p+	c #292929",
"q+	c #5E5E5E",
"r+	c #1B1B1B",
"s+	c #7A7A7A",
"t+	c #656565",
"u+	c #6A6A6A",
"v+	c #080808",
"w+	c #B2B1A0",
"x+	c #60604B",
"y+	c #51513D",
"z+	c #959595",
"A+	c #505050",
"B+	c #464632",
"C+	c #7B7B7B",
"D+	c #525252",
"E+	c #D8D8CB",
"F+	c #B0B09D",
"G+	c #50503C",
"H+	c #3F3F2B",
"I+	c #8C8C8C",
"J+	c #464646",
"K+	c #5A5A5A",
"L+	c #5B5B5B",
"M+	c #1C1C1B",
"N+	c #444442",
"O+	c #2D2D27",
"P+	c #1A1A15",
"Q+	c #181812",
"R+	c #161611",
"S+	c #13130D",
"T+	c #12120C",
"U+	c #10100A",
"V+	c #4A4A4A",
"W+	c #585858",
"X+	c #969696",
"Y+	c #919191",
"Z+	c #4F4F4F",
"`+	c #040404",
" @	c #555555",
".@	c #6D6D6D",
"+@	c #0A0A0A",
"@@	c #393939",
"#@	c #717171",
"$@	c #303030",
"%@	c #454545",
"&@	c #191919",
"*@	c #9C9C9C",
"=@	c #787878",
"-@	c #6C6C6B",
";@	c #454644",
">@	c #212121",
",@	c #4D4D4A",
"'@	c #5A5B59",
")@	c #272727",
"!@	c #2C2C2B",
"~@	c #E6E6E6",
"{@	c #D3D3D2",
"]@	c #6B6C6A",
"^@	c #202020",
"/@	c #CBCBC8",
"(@	c #1C1C1C",
"_@	c #3B3B3A",
":@	c #2C2C2A",
"<@	c #292928",
"                                                                                                ",
"                                                                                                ",
"                                  . . . . . . . . . . . .                                       ",
"                                . + @ # $ % & * = - ; > , .                                     ",
"                        . ' ) ! ~ { = ] ^ ^ ^ ^ ^ ^ ] / ( _ : < . .                             ",
"                  . [ } > | 1 ( 2 { $ 3 4 4 3 3 5 5 5 + ( 6 7 ! 8 _ 9 . .                       ",
"              . 0 a | | $ b @ c d { e f g h i i f j k l ( m n o p q r s t . .                   ",
"            . u v w # % x d y c z { A B C D E F G H I e ( J K L M N N O P Q R .                 ",
"            . S T ( P 2 U % w v V { W X Y c U @ v 1 w Z `  .n i ... . . ..Z +..                 ",
"            . 1 ( @.#.O X $.& > %.%.* %.%.= Y T Y &.a *.=.-.;.f . . . . . v >..                 ",
"            . 1 ( % % % $.,.> %.* * = = b O N '.k ).# !.!.q ~.c ... . . ..b >..                 ",
"          . {.].^./.(._.:.<.[.}.L L L L - L - ; |.&.a !.=.p 1.` f 2.3.4.U } 5..                 ",
"          . 6.7.8.9.0.a.b.c.d.e.f.g.g.; ; L ; . . . . h.w 8 + ~ r i.8 6 j.k.j..                 ",
"          . ^.l.m.n.0.o.p.c.q.r.s.t.u.` g.g.g.. . . . v.v =.| ).N 5 #.4.b w.x..                 ",
"          . y.z.A.B.C.o.D.E.F.G.H.=.!.a ` g.; . . . . v.( b #.3.r I.J.i.n ( ` . .               ",
"          . K.^.L.M.C.N.p.O.F.G.H.P.Q.!.R.` g.@ @ v 1 > y S.$.+.T.U.t G V.W.z X..               ",
"          . Y.Z.L.B.`.o. +.+++@+H.#+w.$+a ` &.|.&.R.*.%+X &+1.*+=+-+;+>+,+'+..@ T..             ",
"          . Y.Z.)+!+C.~+ +.+++@+H.p #+Q.%+R.u.|.&.a t.%+j = V.=+q h @ {+]+'+^+= /+.             ",
"          . (.(+L._+`.:+<+.+F.G.H.[+#+}+=.*.` g.&.a !.=.#.=.F |+h 5 1+2+l H F P.w .             ",
"          . (.Z.L.!+C.3+D.O.4+G.H.q 5+w.=.t.R.g.&.t.!.=.6+r 7+F o X.8+9+0+F B o #..             ",
"          a+Y.(+L._+`.N.D.E.++@+H.q [+w.$+!.a |.&.t.*.=.i > b+F i.|+c+T.P.|+;.T #..             ",
"          U.Y.(+L._+`.o. +d+++@+H. .[+w.e+t.R.|.u.[+!.=.V 1 s =+F F '+~.f+g+1+h+i+.             ",
"        j+;./.z.L._+C.:+ +E.F.G.H.k+5+P.@.y U $.c y @.=.L d ` 0+=+=+=+[ ,+V.% X H .             ",
"       .l+A Y.m+A.M.n+:+<+.+4+@+H.k+[+~ @.S b Z w S @.$+}+( Y r {+o+' p+q+g.O j.. .             ",
"    t.2+-+r+K.m+A.B.n+a.p.O.q.G.H.n  .w.v @.S y $.@.v }+P.w.%.@ w V @ @ f T s+. .               ",
"    t+u+  v+K.m+w+n.x+y+<+c.++@+H.Q k+p 1 @.@.@.1 ( v P.~ #+z+}+` = - $+n I '+.                 ",
"  g.A+    . _.m+w+`.0.y+B+d+q.@+H.j+} ~.w.}+$+Q.K }+~ #+p 5+[+I.C+..T.D+{+D+0+.                 ",
"   .V.    . E+6.F+x+~+G+B+H+F.@+H.W.1.I+,.Z %+( = = L p ~. .e J } 1.J+W.K+..0+.                 ",
"  } L+    . M+N+O+P+Q+R+S+T+U+H.V+m i+r a ,.& e+,.t.g.~./+k+/+Q I.i.b+I+l+k.q+.                 ",
"  Q L+      . >.5.5.K+W+|+W+K+) s x.j+! I+z+X+z+[+Y+ .k+/+r } I.J s+K+J p q u .                 ",
"  k+Z+      . `+E D+^+0+b+Z+_  @q++.k.8 C+-.Q Q -.j+j+C+C+W.8 x.k..@u+K++.^++@.                 ",
"  ~ A+          . . . . . . . . . . . . . . . . . . . . . . . . . . . . . . .                   ",
"    u+                                                                                          ",
"    z+ @                                                                                        ",
"     .f+                                                *.!.!.! 8+                              ",
"      p .@                                    /+b x P L p J.l+u s k.f+                          ",
"      z+k+-+                            %+- V T o } l+@@V.k.8 >.p+>+t+/                         ",
"        K 1.#@                    L w X t.I.V+E V.i.! 8 j.      ^+^+$@.@z+s+#@k.                ",
"          $+I+k.          u.Z x k - 8 G %@1+7 6 #@                    &@g ..k.k.-+              ",
"            *@}+n I.-.= 3.x % =@'+8+1+x.u+                            9 O {+U.-+.@-@;@          ",
"              } 7 x.;+I D+8+t+~.i+#@                                    >@x 2+F -@,@{+'@        ",
"                j+m .@j.=@C+                                            u+)@@ r !@X.~@{@]@      ",
"                                                                          {+r+^@!.W /@Z+r+      ",
"                                                                            J+(@H a _@r+:@      ",
"                                                                                V.<@,+0         ",
"                                                                                                ",
"                                                                                                ",
"                                                                                                "};
