/* XPM */
static char *gtklick_xpm[] = {
/* width height ncolors chars_per_pixel */
"48 48 118 2",
/* colors */
"   c black",
" . c #AFAFAF",
" X c dark grey",
" o c gray64",
" O c #979797",
" + c gray56",
" @ c #8B8B8B",
" # c #898989",
" $ c gray53",
" % c #838383",
" & c gray49",
" * c #7B7B7B",
" = c #717171",
" - c #6D6D6D",
" ; c #656565",
" : c gray38",
" > c #5B5B5B",
" , c #555555",
" < c #535353",
" 1 c #FEFEFE",
" 2 c gray99",
" 3 c gray98",
" 4 c #F8F8F8",
" 5 c #F6F6F6",
" 6 c #434343",
" 7 c #F4F4F4",
" 8 c #414141",
" 9 c gray95",
" 0 c gray94",
" q c gray24",
" w c #EEEEEE",
" e c gray23",
" r c #ECECEC",
" t c #393939",
" y c #373737",
" u c #353535",
" i c gray20",
" p c #E4E4E4",
" a c gray87",
" s c gray17",
" d c gainsboro",
" f c #D8D8D8",
" g c #252525",
" h c gray84",
" j c gray13",
" k c gray12",
" l c #D0D0D0",
" z c #1D1D1D",
" x c #CECECE",
" c c #1B1B1B",
" v c #CACACA",
" b c #131313",
" n c #111111",
" m c gray6",
" M c gray5",
" N c gray",
" B c #0B0B0B",
" V c #090909",
" C c #070707",
" Z c gray2",
" A c gray1",
" S c #010101",
" D c #B2B2B2",
" F c gray65",
" G c #A0A0A0",
" H c gray62",
" J c #929292",
" K c #8E8E8E",
" L c #868686",
" P c #7E7E7E",
" I c #7C7C7C",
" U c gray47",
" Y c #767676",
" T c #6A6A6A",
" R c #565656",
" E c gray32",
" W c white",
" Q c #4C4C4C",
" ! c #FDFDFD",
" ~ c gray29",
" ^ c #FBFBFB",
" / c #F9F9F9",
" ( c gray97",
" ) c #444444",
" _ c white smoke",
" ` c #F1F1F1",
" ' c #3E3E3E",
" ] c #EFEFEF",
" [ c #3C3C3C",
" { c gray93",
" } c gray92",
" | c #E7E7E7",
".  c #323232",
".. c gray19",
".X c #E1E1E1",
".o c #DFDFDF",
".O c #2C2C2C",
".+ c #282828",
".@ c gray15",
".# c #D7D7D7",
".$ c #D5D5D5",
".% c gray11",
".& c #181818",
".* c gray78",
".= c gray7",
".- c #101010",
".; c #C1C1C1",
".: c #0E0E0E",
".> c gray75",
"., c #0C0C0C",
".< c gray4",
".1 c #060606",
".2 c #B7B7B7",
".3 c #040404",
".4 c gray71",
".5 c #020202",
".6 c gray70",
".7 c None",
/* pixels */
".7.7.7.7.7.7.7.7.7.7.7.7.7.7.7.7.7.7.7.7.7.7.7.7.7.7.7.7.7.7.7.7.7.7.7.7.7.7.7.7.7.7.7.7.7.7.7.7",
".7.7.7.7.7.7.7.7.7.7.7.7.7.7.7.7.7.7.7.7.7.7.7.7.7.7.7.7.7.7.7.7.7.7.7.7.7.7.7.7.7.7.7.7.7.7.7.7",
".7.7.7.7.7.7.7.7.7.7.7.7.7.7.7.7.7.7.7.7.7.7.7.7.7.7.7.7.7.7.7.7.7.7.7.7.7.7.7.7.7.7.7.7.7.7.7.7",
".7.7.7.7.7.7.7.7.7.7.7.7.7.7.7.7.7.7 W 4 w w w w w w w {.7.7.7.7.7.7.7.7.7.7.7.7.7.7.7.7.7.7.7.7",
".7.7.7.7.7.7.7.7.7.7.7.7.7.7.7.7.7 W 0 : e e e e e e e e i Z.7.7.7.7.7.7.7.7.7.7.7.7.7.7.7.7.7.7",
".7.7.7.7.7.7.7.7.7.7.7.7.7.7.7.7 W W P                        .7.7.7.7.7.7.7.7.7.7.7.7.7.7.7.7.7",
".7.7.7.7 W ^ h.7.7.7.7.7.7.7.7.7 W W.<                        .7.7.7.7.7.7.7.7.7.7.7.7.7.7.7.7.7",
".7.7.7.7 W & V  .7.7.7.7.7.7.7.7 W X                 s ,.3      .7.7.7.7.7.7.7.7.7.7.7.7.7.7.7.7",
".7.7.7.7 /.&      .7.7.7.7.7.7 W W.       .7.7.7.7.7.7 { t      .7.7.7.7.7.7.7.7.7.7.7.7.7.7.7.7",
".7.7.7.7 W Q        .7.7.7.7.7 W l m      .7.7.7.7.7.7 W L      .7.7.7.7.7.7.7.7.7.7.7.7.7.7.7.7",
".7.7.7.7.7 5.+      .7.7.7.7.7 W L      .7.7.7.7.7.7.7.7 x M      .7.7.7.7.7.7.7.7.7.7.7.7.7.7.7",
".7.7.7.7.7.7.$ Z      .7.7.7 1 9 [      .7.7.7.7.7.7.7.7 W..      .7.7.7.7.7.7.7.7.7.7.7.7.7.7.7",
".7.7.7.7.7.7.7 %        .7.7 W f        .7.7.7.7.7.7.7.7 W o      .7.7.7.7.7.7.7.7.7.7.7.7.7.7.7",
".7.7.7.7.7.7.7 `.       .5 W W =      .7.7.7.7.7.7.7.7.7.7 W.<      .7.7.7.7.7.7.7.7.7.7.7.7.7.7",
".7.7.7.7.7.7.7.7.o      .1 . W S      .7.7.7.7.7.7.7.7.7.7 W U      .7.7.7.7.7.7.7.7.7.7.7.7.7.7",
".7.7.7.7.7.7.7.7.7 F       y #        .7.7.7.7.7.7.7.7.7.7.7 a        .7.7.7.7.7.7.7.7.7.7.7.7.7",
".7.7.7.7.7.7.7.7.7 3 >       V      .7.7.7.7.7.7.7.7.7.7.7.7 7 6      .7.7.7.7.7.7.7.7.7.7.7.7.7",
".7.7.7.7.7.7.7.7.7.7.#.=            .7.7.7.7.7.7.7.7.7.7.7.7 W + S    .7.7.7.7.7.7.7.7.7.7.7.7.7",
".7.7.7.7.7.7.7.7.7.7.7 H          .7.7.7.7.7.7.7.7.7.7.7.7.7.7 h.-      .7.7.7.7.7.7.7.7.7.7.7.7",
".7.7.7.7.7.7.7.7.7.7.7 W T        .7.7.7.7.7.7.7.7.7.7.7.7.7.7 W '      .7.7.7.7.7.7.7.7.7.7.7.7",
".7.7.7.7.7.7.7.7.7.7.7 W x        .7.7.7.7.7.7.7.7.7.7.7.7.7.7 W D        .7.7.7.7.7.7.7.7.7.7.7",
".7.7.7.7.7.7.7.7.7.7 1 W :          .7.7.7.7.7.7.7.7.7.7.7.7.7.7 W.:      .7.7.7.7.7.7.7.7.7.7.7",
".7.7.7.7.7.7.7.7.7.7 W 4              .7.7.7.7.7.7.7.7.7.7.7.7.7 W $      .7.7.7.7.7.7.7.7.7.7.7",
".7.7.7.7.7.7.7.7.7.7 W @                .7.7.7.7.7.7.7.7.7.7.7.7.7.X.3      .7.7.7.7.7.7.7.7.7.7",
".7.7.7.7.7.7.7.7.7 W W j       v.:      .7.7.7.7.7.7.7.7.7.7.7.7.7 5 Q      .7.7.7.7.7.7.7.7.7.7",
".7.7.7.7.7.7.7.7.7 W N.<      .7 K S      .7.7.7.7.7.7.7.7.7.7.7.7 W O.5    .7.7.7.7.7.7.7.7.7.7",
".7.7.7.7.7.7.7.7 W 1 Y      .7.7 W u        .7.7.7.7.7.7.7.7.7.7.7.7.o n      .7.7.7.7.7.7.7.7.7",
".7.7.7.7.7.7.7.7 1 ].O      .7.7.7 r Z      .7.7.7.7.7.7.7.7.7.7.7.7 W )      .7.7.7.7.7.7.7.7.7",
".7.7.7.7.7.7.7.7 W.*        .7.7.7.7.6        .7.7.7.7.7.7.7.7.7.7.7.7.;        .7.7.7.7.7.7.7.7",
".7.7.7.7.7.7.7 1 W E      .7.7.7.7.7 4 T        .7.7.7.7.7.7.7.7.7.7.7 W z      .7.7.7.7.7.7.7.7",
".7.7.7.7.7.7.7 W _        .7.7.7.7.7.7 d.%      .7.7.7.7.7.7.7.7.7.7.7 W J      .7.7.7.7.7.7.7.7",
".7.7.7.7.7.7.7 W I      .7.7.7.7.7.7.7.7.4        .7.7.7.7.7.7.7.7.7.7.7 | B      .7.7.7.7.7.7.7",
".7.7.7.7.7.7 W ^ k      .7.7.7.7.7.7.7.7 W L        .7.7.7.7.7.7.7.7.7.7 ( <      .7.7.7.7.7.7.7",
".7.7.7.7.7.7 W.2.<      .7.7.7.7.7.7.7.7.7 9 e      .7.7.7.7.7.7.7.7.7.7 W G A    .7.7.7.7.7.7.7",
".7.7.7.7.7 1 ! -      .7.7.7.7.7.7.7.7.7.7.7 N V      .7.7.7.7.7.7.7.7.7.7 | b      .7.7.7.7.7.7",
".7.7.7.7.7 1 w g      .7.7.7.7.7.7.7.7.7.7.7.7 *      .7.7.7.7.7.7.7.7.7.7 W R      .7.7.7.7.7.7",
".7.7.7.7.7 W.>        .7.7.7.7.7.7.7.7.7.7.7.7.7      .7.7.7.7.7.7.7.7.7.7.7 v        .7.7.7.7.7",
".7.7.7.7 1 W )      .7.7.7.7.7.7.7.7.7.7.7.7.7.7.7.7.7.7.7.7.7.7.7.7.7.7.7.7 W.@      .7.7.7.7.7",
".7.7.7.7 W p        .7.7.7.7.7.7.7.7.7.7.7.7.7.7.7.7.7.7.7.7.7.7.7.7.7.7.7.7 W o      .7.7.7.7.7",
".7.7.7.7 W =      .7.7.7.7.7.7.7.7.7.7.7.7.7.7.7.7.7.7.7.7.7.7.7.7.7.7.7.7.7.7 }.-      .7.7.7.7",
".7.7.7 W 5 c     m W W W W W W W W W W W W W W W W W W W W W W W W W W W W W W W ;      .7.7.7.7",
".7.7.7 W . C    ., 8 ' ' ' ' ' ' ' ' ' ' ' ' ' ' ' ' ' ' ' ' ' ' ' ' ' ' ' ' ' q k      .7.7.7.7",
".7.7.7 2 ;                                                                                .7.7.7",
".7.7.7 5 ~                                                                                .7.7.7",
".7.7.7.7.7                                                                              .7.7.7.7",
".7.7.7.7.7.7.7.7.7.7.7.7.7.7.7.7.7.7.7.7.7.7.7.7.7.7.7.7.7.7.7.7.7.7.7.7.7.7.7.7.7.7.7.7.7.7.7.7",
".7.7.7.7.7.7.7.7.7.7.7.7.7.7.7.7.7.7.7.7.7.7.7.7.7.7.7.7.7.7.7.7.7.7.7.7.7.7.7.7.7.7.7.7.7.7.7.7",
".7.7.7.7.7.7.7.7.7.7.7.7.7.7.7.7.7.7.7.7.7.7.7.7.7.7.7.7.7.7.7.7.7.7.7.7.7.7.7.7.7.7.7.7.7.7.7.7"
};
