/* XPM */
static char *hexchat_xpm[] = {
/* width height ncolors chars_per_pixel */
"48 48 385 2",
/* colors */
"   c black",
" . c #120F00",
" X c #FF5200",
" o c #FE7300",
" O c #FF5700",
" + c #FF5C00",
" @ c #FF6000",
" # c #FCC300",
" $ c #250B00",
" % c #DB4B00",
" & c #FF6500",
" * c #250F00",
" = c #FE8800",
" - c #FF6900",
" ; c #130600",
" : c #130700",
" > c #FF6E00",
" , c #FCD100",
" < c #010000",
" 1 c #010100",
" 2 c #251B00",
" 3 c #FF7300",
" 4 c #803C00",
" 5 c #FE9600",
" 6 c #5C2400",
" 7 c #FF7700",
" 8 c #FDBB00",
" 9 c #FE9B00",
" 0 c #FF7C00",
" q c #EF2F00",
" w c #EE5100",
" e c #D9A800",
" r c #FF8000",
" t c #381500",
" y c #260900",
" u c #EE5600",
" i c #EC9900",
" p c #A62400",
" a c #FF8500",
" s c #DA8D00",
" d c #FDC800",
" f c #EE5A00",
" g c #140400",
" h c #FF8900",
" j c #EBC200",
" k c #140800",
" l c #FF8E00",
" z c #FDD100",
" x c #DD3700",
" c c #020100",
" v c #EF4400",
" b c #FF9300",
" n c #020200",
" m c #C97000",
" M c #FF9700",
" N c #926C00",
" B c #822100",
" V c #DB8200",
" C c #FF9C00",
" Z c #A71B00",
" A c #B92800",
" S c #FFA000",
" D c #C97E00",
" F c orange",
" G c #150300",
" H c #FFAA00",
" J c #5D3900",
" K c #FFAE00",
" L c #271600",
" P c #EF6200",
" I c #030000",
" U c #FFB300",
" Y c #DD5800",
" T c #030100",
" R c #030200",
" E c #FFB800",
" W c #944D00",
" Q c #FFBC00",
" ! c #FFC100",
" ~ c #FFC500",
" ^ c #B95000",
" / c #B87100",
" ( c #F05A00",
" ) c #FFCA00",
" _ c #5E3800",
" ` c #961D00",
" ' c #160600",
" ] c #DF3000",
" [ c #FFCE00",
" { c #712700",
" } c #962000",
" | c #712900",
".  c #FFD300",
".. c #CC4A00",
".X c #040100",
".o c #5E4200",
".O c #CD2C00",
".+ c #040300",
".@ c #4C3700",
".# c #161100",
".$ c #161200",
".% c #BB2200",
".& c #5F2600",
".* c #5F2C00",
".= c #F23400",
".- c #EEB800",
".; c #DD8B00",
".: c #290D00",
".> c #DE6C00",
"., c #290F00",
".< c #A92700",
".1 c #CE2100",
".2 c #EF9F00",
".3 c #E03000",
".4 c #170800",
".5 c #BA5A00",
".6 c #A85200",
".7 c #170E00",
".8 c #3B2800",
".9 c #050200",
".0 c #170F00",
".q c #BA6100",
".w c #CD4D00",
".e c #050300",
".r c #050400",
".t c #4D3800",
".y c #E03C00",
".u c #171300",
".i c #4E1900",
".p c #A85A00",
".a c #4D3D00",
".s c #965400",
".d c #BA6E00",
".f c #B98F00",
".g c #2A0800",
".h c #973400",
".j c #A86300",
".k c #724200",
".l c #F0A000",
".z c #F26000",
".x c #180C00",
".c c #060200",
".v c #060400",
".b c #CE5500",
".n c #BD2900",
".m c #725C00",
".M c #CD7D00",
".N c #F27600",
".B c #AA4600",
".V c #983C00",
".C c #E15100",
".Z c #190700",
".A c #3D2500",
".S c #070200",
".D c #2B1C00",
".F c #070300",
".G c #AB3400",
".H c #CE7700",
".J c #F45300",
".K c #A98300",
".L c #BB9000",
".P c #735F00",
".I c #2C0E00",
".U c #1A0400",
".Y c #AB4A00",
".T c #CF6800",
".R c #3E2300",
".E c #9A2100",
".W c #1A0A00",
".Q c #9A2400",
".! c #080100",
".~ c #994700",
".^ c #2C1C00",
"./ c #080300",
".( c #CF6F00",
".) c #AC3500",
"._ c #BD6300",
".` c #F62800",
".' c #753200",
".] c #E34100",
".[ c #E26600",
".{ c #E42500",
".} c #E18A00",
".| c #746000",
"X  c #633700",
"X. c #1B0600",
"XX c #633B00",
"Xo c #9B2100",
"XO c #996300",
"X+ c #1B0A00",
"X@ c #AD3200",
"X# c #090300",
"X$ c #1B1100",
"X% c #891E00",
"X& c #400C00",
"X* c #9A4D00",
"X= c #090800",
"X- c #763500",
"X; c #3F3000",
"X: c #F56E00",
"X> c #1B1700",
"X, c #BF4C00",
"X< c #F49500",
"X1 c #C03000",
"X2 c #CFA000",
"X3 c #522600",
"X4 c #F49900",
"X5 c #F3BC00",
"X6 c #F73900",
"X7 c #651B00",
"X8 c #F4A300",
"X9 c #402500",
"X0 c #E45600",
"Xq c #E1BA00",
"Xw c #F4A600",
"Xe c #1C0D00",
"Xr c #D24C00",
"Xt c #0A0400",
"Xy c #644400",
"Xu c #D24F00",
"Xi c #F82800",
"Xp c #E45E00",
"Xa c #F58D00",
"Xs c #2E2400",
"Xd c #D09D00",
"Xf c #C04F00",
"Xg c #894A00",
"Xh c #BE9300",
"Xj c #D25F00",
"Xk c #E46F00",
"Xl c #774500",
"Xz c #895600",
"Xx c #E2BB00",
"Xc c #541300",
"Xv c #F4CA00",
"Xb c #1D1100",
"Xn c #C14200",
"Xm c #0B0500",
"XM c #BF8600",
"XN c #C14600",
"XB c #541D00",
"XV c #F92D00",
"XC c #E64600",
"XZ c #AD8600",
"XA c #301000",
"XS c #1E0400",
"XD c #301100",
"XF c #301200",
"XG c #9B8000",
"XH c #784B00",
"XJ c #543500",
"XK c #0C0200",
"XL c #551500",
"XP c #1E1200",
"XI c #0C0600",
"XU c #793400",
"XY c #9E2D00",
"XT c #1E1700",
"XR c #785700",
"XE c #1E1900",
"XW c #B12600",
"XQ c #F87C00",
"X! c #F7A000",
"X~ c #1F0800",
"X^ c #9F2200",
"X/ c #0D0500",
"X( c #D55000",
"X) c #8D1E00",
"X_ c #E5A100",
"X` c #0D0800",
"X' c #0D0B00",
"X] c #C34900",
"X[ c #F7B200",
"X{ c #795900",
"X} c #D47A00",
"X| c #C19200",
"o  c #E5AD00",
"o. c #B06800",
"oX c #441D00",
"oo c #F7BF00",
"oO c #D72300",
"o+ c #E77400",
"o@ c #683E00",
"o# c #C1A000",
"o$ c #B15300",
"o% c #0E0200",
"o& c #FA6700",
"o* c #201100",
"o= c #0E0500",
"o- c #450B00",
"o; c #F8AE00",
"o: c #0E0900",
"o> c #443000",
"o, c #9F5000",
"o< c #0E0C00",
"o1 c #B31D00",
"o2 c #693100",
"o3 c #D4A000",
"o4 c #E94B00",
"o5 c #E79100",
"o6 c #6A1700",
"o7 c #572C00",
"o8 c #F9A100",
"o9 c #580E00",
"o0 c #B25000",
"oq c #331900",
"ow c #C2A100",
"oe c #0F0600",
"or c #0F0700",
"ot c #8F1F00",
"oy c #332200",
"ou c #574000",
"oi c #FD3700",
"op c #E88E00",
"oa c #B18900",
"os c #341300",
"od c #582E00",
"of c #FAA200",
"og c #220900",
"oh c #D84A00",
"oj c #901700",
"ok c #7D2D00",
"ol c #341B00",
"oz c #100700",
"ox c #FE2900",
"oc c #EB3F00",
"ov c #591B00",
"ob c #C56A00",
"on c #100C00",
"om c #FB9100",
"oM c #FC7200",
"oN c #FAB400",
"oB c #902600",
"oV c #463600",
"oC c #A07600",
"oZ c #C64E00",
"oA c #FB9A00",
"oS c #C49700",
"oD c #FD5B00",
"oF c #D6A500",
"oG c #8E7300",
"oH c #EB5000",
"oJ c #FD5F00",
"oK c #A08400",
"oL c #903900",
"oP c #351C00",
"oI c #110300",
"oU c #FBAB00",
"oY c #FF2900",
"oT c #911F00",
"oR c #110900",
"oE c #352300",
"oW c #110C00",
"oQ c #FF2E00",
"o! c #A25400",
"o~ c #FF3200",
"o^ c #ED2600",
"o/ c #5A2400",
"o( c #473B00",
"o) c #FF3700",
"o_ c #6B5500",
"o` c #EC4C00",
"o' c #B38A00",
"o] c #905000",
"o[ c #C59800",
"o{ c #FF3B00",
"o} c #FC9E00",
"o| c #7E4600",
"O  c #FF4000",
"O. c #EA9700",
"OX c #FF4400",
"Oo c #482B00",
"OO c #482C00",
"O+ c #FF4900",
"O@ c #913F00",
"O# c #120700",
"O$ c #362200",
"O% c #A26F00",
"O& c #483000",
"O* c #B63B00",
"O= c #241700",
"O- c #801500",
"O; c #483100",
"O: c #FF4E00",
"O> c None",
/* pixels */
"O>O>O>O>O>O>O>O>O>O>O>O>O>O>O>O>O>O>O>O>O>O>O>O>O>O>O>O>O>O>O>O>O>O>O>O>O>O>O>O>O>O>O>O>O>O>O>O>",
"O>O>O>O>O>O>O>O>O>O>O>O>O>O>O>O>O>O>O>O>O>O>O>O>O>O>O>O>O>O>O>O>O>O>O>O>O>O>O>O>O>O>O>O>O>O>O>O>",
"O>O>O>O>O>O>O>O>O>O>O>O>O>O>O>O>O>O>O>O>O>O>O>O>O>O>O>O>O>O>O>O>O>O>O>O>O>O>O>O>O>O>O>O>O>O>O>O>",
"O>O>O>O>O>O>O>O>O>O>O>O>O>O>O>O>O>O>O>                          O>O>O>O>O>O>O>O>O>O>O>O>O>O>O>O>",
"O>O>O>O>O>O>O>O>O>O>O>O>                .ro<.uXEX>.$ .X'X=.r            O>O>O>O>O>O>O>O>O>O>O>O>",
"O>O>O>O>O>O>O>O>O>O>O>  o(.PXGowXq jXv ,. . . . . . . . . .  zXxo#oK.| n  O>O>O>O>O>O>O>O>O>O>O>",
"O>O>O>O>O>O>O>O>O>O>  .m [ [ [ [ [ [ [ [ [ [ [ [ [ [ [ [ [ [ [ [ [ [ [oG    O>O>O>O>O>O>O>O>O>O>",
"O>O>O>O>O>O>O>O>O>  .a d ) ) ) ) ) ) ) ) ) ) ) ) ) ) ) ) ) ) ) ) ) ) ) )o_    O>O>O>O>O>O>O>O>O>",
"O>O>O>O>O>O>O>O>  XsX5 ~ ~ ~ ~ ~ ~.- eX2o[.Loa.KXZo'.fXhoSoFoo ~ ~ ~ ~ ~ #oV  O>O>O>O>O>O>O>O>O>",
"O>O>O>O>O>O>O>O>.+Xd ! ! ! !X|X;.#                           1XTo3 ! ! ! !o on  O>O>O>O>O>O>O>O>",
"O>O>O>O>O>O>O>  X{ Q Q Q Q Q 8ou      O>O>O>O>O>O>O>O>O>O>     N Q Q Q Q Q QoC    O>O>O>O>O>O>O>",
"O>O>O>O>O>O>O> 2X[ E E E E E EoN.t  O>O>O>O>O>O>O>O>O>O>O>  XR E E E E E E E E.@  O>O>O>O>O>O>O>",
"O>O>O>O>O>O> 1XM U U U U U U U Uo;o>  O>O>O>O>O>O>O>O>O>  .o U U U U U U U U UX_oW  O>O>O>O>O>O>",
"O>O>O>O>O>  Xy K K K K K K K K K KXw.8  O>O>O>O>O>O>O>  O;oU K K K K K K K K K KO%  O>O>O>O>O>O>",
"O>O>O>O>O>.0.2 H H H H H H H H H H H.loy  O>O>O>O>O>O>oEX8 H H H H H H H H H H H HO&  O>O>O>O>O>",
"O>O>O>O>  XO F F F FX! F F F F F F F F i.DO>O>O>O>O>O=O. F F F F F F F Fofo8 F F F s.v  O>O>O>O>",
"O>O>O>O>.^o} S S S DO$X4 S S S S S S S So5O=O>O>O>.7.; S S S S S S S So}XJXz S S S SXH  O>O>O>O>",
"O>O>O>   / C C C C.A  OOoA C C C C C C C C.}XP  X`.M C C C C C C C C 9 J  o:op C C CX<X$  O>O>O>",
"O>O>O>Oo M M M Mo.  O>   _ 5 M M M M M M M M VXb.d M M M M M M M M Mo@  O>  XX M M M M.j  O>O>O>",
"O>O> RX} b b bom L  O>O>  Xl b b b b b b b b bXa b b b b b b b b b.k  O>O>O> c.H b b b bX9  O>O>",
"O>O>X  l l l l.s  O>O>O>O>  o] l l l l l l l l l l l l l l l l lo|  O>O>O>O>  .R l l l l m  O>O>",
"O>  .( h h h =o*  O>O>O>O>O> 1.p h h h h h h h h h h h h h h hXg  O>O>O>O>O>O>  ob h h h hoP  O>",
"O>ol a a a a.q  O>O>O>O>O>O>O>.F._ a a a a a a a a a a a a a W  O>O>O>O>O>O>O>  od a a a ao!  O>",
"  X* r r r ro7  O>O>O>O>O>O>O>O>or.T r r r r r r r r r r ro, 1O>O>O>O>O>O>O>O>O>.eo+ r r rXQoR  ",
"  .5 0 0 0 0oq  O>O>O>O>O>O>O>O>O>.x.> 0 0 0 0 0 0 0 0 0.6 TO>O>O>O>O>O>O>O>O>O>XI.N 0 0 0Xk T  ",
"  X3 7 7 7 7.~  O>O>O>O>O>O>O>O>O>.9o$ 7 7 7 7 7 7 7 7 7.*  O>O>O>O>O>O>O>O>O>  o2 7 7 7 7 4  O>",
"O> T.[ 3 3 3X:oz  O>O>O>O>O>O>O>./o0 3 3 3 3 3 3 3 3 3 3 oX-  O>O>O>O>O>O>O>O>  Xj 3 3 3oMXe  O>",
"O>  XU > > > >.'  O>O>O>O>O>O>Xt ^ > > > > > > > > > > > > >O@ cO>O>O>O>O>O>  oX > > > >.Y  O>O>",
"O>O>XmXp - - - P k  O>O>O>O>X/Xf - - - - - - - - - - - - - - -.B.FO>O>O>O>O> c.b - - -o& *  O>O>",
"O>O>  o/ & & & &.V  O>O>O>oeoZ & & & & & & &.z 6 Y & & & & & & &X,oeO>O>O>  .& & & & &oL  O>O>O>",
"O>O>O>  X] @ @ @oJXF  O> :.w @ @ @ @ @ @ @ ( t  .WX( @ @ @ @ @ @ @XuX+O>O>XtX0 @ @ @ fO#  O>O>O>",
"O>O>O>  XDoD + + +XN  .4Xr + + + + + + + uos  O>O> :.. + + + + + + +.C.,  ok + + + + |  O>O>O>O>",
"O>O>O>O>  .h O O O O {oh O O O O O O OoHXA  O>O>O>O>o=Xn O O O O O O O wXB.J O O O %.c  O>O>O>O>",
"O>O>O>O>O> ;o` X X X X X X X X X X Xo4.IO>O>O>O>O>O>O>X#O* X X X X X X X X X X X X.i  O>O>O>O>O>",
"O>O>O>O>O>  ovO:O:O:O:O:O:O:O:O:O:XC.:O>O>O>O>O>O>O>O>O>.9.GO:O:O:O:O:O:O:O:O:O:.)    O>O>O>O>O>",
"O>O>O>O>O>O>  X@O+O+O+O+O+O+O+O+.] $O>O>O>O>O>O>O>O>O>O>O> TXYO+O+O+O+O+O+O+O+ v.Z  O>O>O>O>O>O>",
"O>O>O>O>O>O>   'ocOXOXOXOXOXOX.yogO>O>O>O>O>O>O>O>O>O>O>O>O> <oBOXOXOXOXOXOXOXX7    O>O>O>O>O>O>",
"O>O>O>O>O>O>O>  XLO O O O O  xX~  O>O>O>O>O>O>O>O>O>O>O>O>       BO O O O O X1 <  O>O>O>O>O>O>O>",
"O>O>O>O>O>O>O>O>  .<o{o{o{o{.Q.S                              X.XcX6o{o{o{X6 y  O>O>O>O>O>O>O>O>",
"O>O>O>O>O>O>O>O>   g.3o)o)o)o)oi ] AX^.E }oTX)X%otXo pXW.n.O.=o)o)o)o)o)o)o6    O>O>O>O>O>O>O>O>",
"O>O>O>O>O>O>O>O>O>  .g qo~o~o~o~o~o~o~o~o~o~o~o~o~o~o~o~o~o~o~o~o~o~o~o~ `    O>O>O>O>O>O>O>O>O>",
"O>O>O>O>O>O>O>O>O>O>  X&XVoQoQoQoQoQoQoQoQoQoQoQoQoQoQoQoQoQoQoQoQoQoQ.%.X  O>O>O>O>O>O>O>O>O>O>",
"O>O>O>O>O>O>O>O>O>O>O>  o-ojo1oOXioYoYoYoYoYoYoYoYoYoYox.`o^.{.1 ZO-o9o%  O>O>O>O>O>O>O>O>O>O>O>",
"O>O>O>O>O>O>O>O>O>O>O>             I.!XKoI G.UXS.UoI.!                    O>O>O>O>O>O>O>O>O>O>O>",
"O>O>O>O>O>O>O>O>O>O>O>O>O>                                          O>O>O>O>O>O>O>O>O>O>O>O>O>O>",
"O>O>O>O>O>O>O>O>O>O>O>O>O>O>O>O>O>O>O>O>O>O>O>O>O>O>O>O>O>O>O>O>O>O>O>O>O>O>O>O>O>O>O>O>O>O>O>O>",
"O>O>O>O>O>O>O>O>O>O>O>O>O>O>O>O>O>O>O>O>O>O>O>O>O>O>O>O>O>O>O>O>O>O>O>O>O>O>O>O>O>O>O>O>O>O>O>O>",
"O>O>O>O>O>O>O>O>O>O>O>O>O>O>O>O>O>O>O>O>O>O>O>O>O>O>O>O>O>O>O>O>O>O>O>O>O>O>O>O>O>O>O>O>O>O>O>O>"
};
