/* XPM */
static char * inkscape_xpm[] = {
"64 64 106 2",
"  	c None",
". 	c #000000",
"+ 	c #141414",
"@ 	c #9C9C9C",
"# 	c #F2F2F2",
"$ 	c #C8C8C8",
"% 	c #373737",
"& 	c #434343",
"* 	c #E5E5E5",
"= 	c #FFFFFF",
"- 	c #FCFCFC",
"; 	c #858585",
"> 	c #040404",
", 	c #050505",
"' 	c #888888",
") 	c #FDFDFD",
"! 	c #C4C4C4",
"~ 	c #1D1D1D",
"{ 	c #242424",
"] 	c #CACACA",
"^ 	c #ECECEC",
"/ 	c #4D4D4D",
"( 	c #010101",
"_ 	c #666666",
": 	c #FEFEFE",
"< 	c #8E8E8E",
"[ 	c #060606",
"} 	c #0A0A0A",
"| 	c #ADADAD",
"1 	c #222222",
"2 	c #0D0D0D",
"3 	c #F0F0F0",
"4 	c #545454",
"5 	c #080808",
"6 	c #C1C1C1",
"7 	c #959595",
"8 	c #AAAAAA",
"9 	c #CFCFCF",
"0 	c #262626",
"a 	c #7E7E7E",
"b 	c #D9D9D9",
"c 	c #818181",
"d 	c #8C8C8C",
"e 	c #6A6A6A",
"f 	c #E0E0E0",
"g 	c #525252",
"h 	c #6D6D6D",
"i 	c #363636",
"j 	c #626262",
"k 	c #DADADA",
"l 	c #767676",
"m 	c #0C0C0C",
"n 	c #E2E2E2",
"o 	c #0E0E0E",
"p 	c #020202",
"q 	c #E9E9E9",
"r 	c #414141",
"s 	c #030303",
"t 	c #595959",
"u 	c #D3D3D3",
"v 	c #333333",
"w 	c #606060",
"x 	c #939393",
"y 	c #A1A1A1",
"z 	c #808080",
"A 	c #1F1F1F",
"B 	c #727272",
"C 	c #282828",
"D 	c #575757",
"E 	c #F8F8F8",
"F 	c #797979",
"G 	c #090909",
"H 	c #6C6C6C",
"I 	c #777777",
"J 	c #B9B9B9",
"K 	c #111111",
"L 	c #FBFBFB",
"M 	c #2B2B2B",
"N 	c #7C7C7C",
"O 	c #A0A0A0",
"P 	c #878787",
"Q 	c #1E1E1E",
"R 	c #BCBCBC",
"S 	c #7A7A7A",
"T 	c #2D2D2D",
"U 	c #181919",
"V 	c #E7E9E9",
"W 	c #D2D4D4",
"X 	c #919393",
"Y 	c #525353",
"Z 	c #585959",
"` 	c #A0A1A1",
" .	c #E1E3E3",
"..	c #FCFEFE",
"+.	c #DADCDC",
"@.	c #A8A9A9",
"#.	c #787A7A",
"$.	c #595A5A",
"%.	c #464747",
"&.	c #252525",
"*.	c #5C5D5D",
"=.	c #909191",
"-.	c #C4C5C5",
";.	c #EDEFEF",
">.	c #FDFFFF",
",.	c #171818",
"                                                                                                                                ",
"                                                                                                                                ",
"                                                          . . . . . .                                                           ",
"                                                        . . . . . . . .                                                         ",
"                                                    . . . . . . . . . . .                                                       ",
"                                                  . . . . + @ # $ % . . . .                                                     ",
"                                                . . . . & * = = = - ; > . . .                                                   ",
"                                              . . . , ' ) = = = = = = ! ~ . . .                                                 ",
"                                            . . . { ] = = = = = = = = = ^ / . . .                                               ",
"                                          . . ( _ # = = = = = = = = = = = : < [ . .                                             ",
"                                        . . } | = = = = = = = = = = = = = = = ] 1 . .                                           ",
"                                      . . 2 ! = = = = = = = = = = = = = = = = = 3 4 . .                                         ",
"                                    . . 5 6 = = = = = = = = = = = = = = = = = = = = 7 5 .                                       ",
"                                  . . ( 8 = = = = = = = 3 = = = = = = = = = = = = = = 9 0 .                                     ",
"                                . . . a = = = = = = = b c = = = = = = = = = = = d e f = # g .                                   ",
"                              . . . & ) = = = = = = = h i = = = = = = = = = = = j . , j k = l .                                 ",
"                            . . . m n = = = = = = = # o p q = = = = = = = = = = r . . . s t u v .                               ",
"                          . . . . w = = = = = = = = x . . y = = = = = ] z q = = A . . . . . ( o . .                             ",
"                        . . . . . B = = = = = = = : C . . D = = = E F > . G H k s . . . . . . . . . .                           ",
"                      . . . . . . I = = = = = = = J . . . K L = ] M . . . . . p . . . . . . . . . . . .                         ",
"                    . . . . . . . N ^ u J O P h 4 Q . . . . R S > . . . . . . . . . . . . . . . . . . . .                       ",
"                  . . . . . . . . ( . . . . . . . . . . . . 5 . . . . . . . . . . . . . . . . . . . . . . .                     ",
"                . . . . . . . . . . . . . . . . . . . . . . . . . . . . . . . . . . . . . . . . . . . . . . .                   ",
"              . . . . . . . . . . . . . . . . . . . . . . . . . . . . . . . . . . . . . . . . . . . . . . . . .                 ",
"            . . . . . . . . . . . . . . . . . . . . . . . . . . . . . . . . . . . . . . . . . . . . . . . . . . .               ",
"          . . . . . . . . . . . . . . . . . . . . . . . . . . . . . . . . . . . . . . . . . . . . . . . . . . . . .             ",
"        . . . . . . . . . . . . . . . . . . . . . . . . . . . . . . . . . . . . . . . . . . . . . . . . . . . . . . .           ",
"      . . . . . . . . . . . . . . . . . . . . . . . . . . . . . . . . . . . . . . . . . . . . . . . . . . . . . . . . .         ",
"      . . . . . . . . . . . . . . . . . . . . . . . . . . . . . . . . . . . . . . . . . . . . . . . . . . . . . . . . . .       ",
"    . . . . . . . . . . . . . . . . . . . . . . . . . . . . . . . . . . . . . . . . . . . . . . . . . . . . . . . . . . . .     ",
"  . . . . . . . . . . . . . . . . . . . . . . . . . . . . . . . . . . . . . . . . . . . . . . . . . . . . . . . . . . . . . .   ",
"  . . . . . . . . . . . . . . . . . . . . . . . . . . . . . . . . . . . . . . . . . . . . . . . . . . . . . . . . . . . . . .   ",
"  . . . . . . . . . . . . . . . . . . . . . . . . . . . . . . . . . . . . . . . . . . . . . . . . . . . . . . . . . . . . . .   ",
"  . . . . . . . . . . . . . . . . . . . . . . . . . . . . . . . . . . . . . . . . . . . . . . . . . . . . . . . . . . . . . .   ",
"      . . . . . . . . . . . . . . . . . . . . . . . . . . . . . . . . . . . . . . . . . . . . . . . . . . . . . . . . . . . .   ",
"            . . . . . . . . . . . . . . . . . . . . . . . . . . . . . . . . . . . . . . . . . . . . . . . . . . . . . . . . .   ",
"                    . . . . . . . . . . . . . . . . . . . . . . . . . . . . . . . . . . . . . . . . . . . . . . . . . . . .     ",
"                          . . . . . . . . . . . . . . . . . . . . . . . . . . . . . . . . . . . . . . . . . . . . . . .         ",
"                              . . . . . . . . . . . . . . . . . . . . . . . . . . . . . . . . . . . . . . . . . . .             ",
"                              . . . . . . T U . . . . . . . . . . . . . . . . . . . . . . . . . . . . . . . . .                 ",
"                          . . . . . . . . A V W X Y + . . . . . . . . . . . . . . . . . . . . . . . . .                         ",
"                      . . . . . . . . . . . m Z `  ...+.@.#.$.%., . . . . . . . . . . . . . . .                                 ",
"                  . . . . . . . . . . . . . . . . . &.*.=.-.;.>.1 . . . . . . . . . . . .                                       ",
"                  . . . . . . . . . . . . . . . . . . . . . . ,.G . . . . . . . . . . . .                                       ",
"                    . . . . . . . . . . . . . . . . . . . . . . . . . . . . . . . . . . .                                       ",
"                        . . . . . . . . . . . . . . . . . . . . . . . . . . . . . . . . . .                                     ",
"                              . . . . . . . . . . . . . . . . . . . . . . . . . . . . . . . . .                                 ",
"                                    . . . . . . . . . . . . . . . . . . . . . . . . . . . . . . .         . . . . . . .         ",
"                                          . . . . . . . . . . . . . . . . . . . . . . . . . . . . .     . . . . . . . .         ",
"                                              . . . . . . . . . . . . . . . . . . . . . . . . . . .     . . . . . . . .         ",
"                                              . . . . . . . . . . . . . . . . . . . . . . . . .                   .             ",
"                              . . . . .       . . . . . . . . . . . . . . . . . . . . . . . .                                   ",
"                            . . . . . .     . . . . . . . . . . . . . . . . . . . . . . .           . .                         ",
"                            . . . . .     . . . . . . . . . . . . . . . . . . . . . .             . . . .                       ",
"                            . . . .       . . . . . . . . . . . . . . . . . . . .                   . . . .                     ",
"                                          . . . . . . . . . . . . . . . . . .                         . .                       ",
"                                            . . . . . . . . . . . . . . . . .                                                   ",
"                                                      . . . . . . . . . . . . .                                                 ",
"                                                        . . . . . . . . . . . . .                                               ",
"                                                          . . . . . . . . . . . .                                               ",
"                                                          . . . . . . . . . .                                                   ",
"                                                            . . . . . . .                                                       ",
"                                                                                                                                ",
"                                                                                                                                "};
