/* XPM */
static char * jackmaster16x16_xpm[] = {
"16 16 6 1",
" 	c None",
".	c #FF0000",
"+	c #FFFF00",
"@	c #00FF00",
"#	c #000000",
"$	c #5B636C",
"                ",
"            . . ",
" + +        + + ",
" @ @        @ @ ",
" @ @  @ @   @ @ ",
" @ @  @ @   @ @ ",
"                ",
"  #    #    $$$ ",
"  #    #    ### ",
" $$$   #    $$$ ",
" ###   #     #  ",
" $$$   #     #  ",
"  #   $$$    #  ",
"  #   ###    #  ",
"  #   $$$    #  ",
"                "};
