/* XPM */
static char * konsole_xpm[] = {
"48 48 266 2",
"  	c None",
". 	c #000000",
"+ 	c #C1C1C1",
"@ 	c #FFFFFF",
"# 	c #EFEFEF",
"$ 	c #EEEEEE",
"% 	c #ECECEC",
"& 	c #EAEAEA",
"* 	c #E9E9E9",
"= 	c #E7E7E7",
"- 	c #E5E5E5",
"; 	c #E3E3E3",
"> 	c #E2E2E2",
", 	c #E0E0E0",
"' 	c #DEDEDE",
") 	c #DDDDDD",
"! 	c #DBDBDB",
"~ 	c #D9D9D9",
"{ 	c #D8D8D8",
"] 	c #D6D6D6",
"^ 	c #D4D4D4",
"/ 	c #D2D2D2",
"( 	c #D1D1D1",
"_ 	c #CFCFCF",
": 	c #CDCDCD",
"< 	c #CCCCCC",
"[ 	c #CACACA",
"} 	c #C8C8C8",
"| 	c #C7C7C7",
"1 	c #C5C5C5",
"2 	c #C3C3C3",
"3 	c #C0C0C0",
"4 	c #BEBEBE",
"5 	c #777777",
"6 	c #E4E4E4",
"7 	c #DFDFDF",
"8 	c #D3D3D3",
"9 	c #CECECE",
"0 	c #C2C2C2",
"a 	c #BDBDBD",
"b 	c #EBEBEB",
"c 	c #E6E6E6",
"d 	c #DADADA",
"e 	c #D5D5D5",
"f 	c #C9C9C9",
"g 	c #C4C4C4",
"h 	c #BFBFBF",
"i 	c #BBBBBB",
"j 	c #666664",
"k 	c #4A4A4C",
"l 	c #BABABA",
"m 	c #464646",
"n 	c #444444",
"o 	c #414141",
"p 	c #3F3F3F",
"q 	c #3B3B3B",
"r 	c #373737",
"s 	c #323232",
"t 	c #2D2D2D",
"u 	c #282828",
"v 	c #232323",
"w 	c #1E1E1E",
"x 	c #191919",
"y 	c #141414",
"z 	c #101010",
"A 	c #0B0B0B",
"B 	c #060606",
"C 	c #010101",
"D 	c #BCBCBC",
"E 	c #B8B8B8",
"F 	c #474747",
"G 	c #494949",
"H 	c #424242",
"I 	c #3C3C3C",
"J 	c #363636",
"K 	c #303030",
"L 	c #2A2A2A",
"M 	c #242424",
"N 	c #1F1F1F",
"O 	c #131313",
"P 	c #0D0D0D",
"Q 	c #070707",
"R 	c #B7B7B7",
"S 	c #424244",
"T 	c #555555",
"U 	c #545454",
"V 	c #4F4F4F",
"W 	c #3A3A3A",
"X 	c #343434",
"Y 	c #2C2C2C",
"Z 	c #252525",
"` 	c #171717",
" .	c #080808",
"..	c #B9B9B9",
"+.	c #B5B5B5",
"@.	c #EDEDED",
"#.	c #5F5F5F",
"$.	c #5A5A5A",
"%.	c #525252",
"&.	c #4B4B4B",
"*.	c #434343",
"=.	c #333333",
"-.	c #222222",
";.	c #111111",
">.	c #B4B4B4",
",.	c #535353",
"'.	c #565656",
").	c #4E4E4E",
"!.	c #454545",
"~.	c #3D3D3D",
"{.	c #2B2B2B",
"].	c #1A1A1A",
"^.	c #B6B6B6",
"/.	c #B2B2B2",
"(.	c #4D4D4D",
"_.	c #313131",
":.	c #292929",
"<.	c #202020",
"[.	c #040404",
"}.	c #B1B1B1",
"|.	c #4A4A4A",
"1.	c #2E2E2E",
"2.	c #1D1D1D",
"3.	c #020202",
"4.	c #B3B3B3",
"5.	c #AFAFAF",
"6.	c #383838",
"7.	c #181818",
"8.	c #0F0F0F",
"9.	c #624234",
"0.	c #8E7264",
"a.	c #AEAEAE",
"b.	c #E8E8E8",
"c.	c #3E3E3E",
"d.	c #1B1B1B",
"e.	c #110C15",
"f.	c #BE9674",
"g.	c #DEB687",
"h.	c #EDCE9F",
"i.	c #B68F6E",
"j.	c #9F6C57",
"k.	c #463728",
"l.	c #ACACAC",
"m.	c #1C1C1C",
"n.	c #151515",
"o.	c #0C0C0C",
"p.	c #5D3E30",
"q.	c #504638",
"r.	c #FCEAAB",
"s.	c #FCFC9C",
"t.	c #FDE6A9",
"u.	c #E2C89E",
"v.	c #886C5F",
"w.	c #ABABAB",
"x.	c #161616",
"y.	c #EEC694",
"z.	c #6C5045",
"A.	c #A28078",
"B.	c #ECD48C",
"C.	c #FCFC88",
"D.	c #FEFEC1",
"E.	c #E2BD8E",
"F.	c #BDA67D",
"G.	c #70574C",
"H.	c #FBF088",
"I.	c #AB877F",
"J.	c #0E0E0E",
"K.	c #F7DDA7",
"L.	c #F2D5AC",
"M.	c #F0EE91",
"N.	c #FEFDD1",
"O.	c #D4AE80",
"P.	c #272724",
"Q.	c #FEEAB6",
"R.	c #C4A68E",
"S.	c #F2DD9F",
"T.	c #FEFEE2",
"U.	c #F9D590",
"V.	c #F5E5AC",
"W.	c #B6977D",
"X.	c #A07D60",
"Y.	c #EEDEB9",
"Z.	c #FDFAE6",
"`.	c #FED391",
" +	c #FDEFAC",
".+	c #C6AE84",
"++	c #020204",
"@+	c #FEEEB7",
"#+	c #F8DA94",
"$+	c #DCDCDC",
"%+	c #E2C498",
"&+	c #F2B97A",
"*+	c #C4B866",
"=+	c #FDEBCE",
"-+	c #D9B36E",
";+	c #ECDA98",
">+	c #FEF2BC",
",+	c #FEF6BD",
"'+	c #FEDCA9",
")+	c #FDE2A9",
"!+	c #EDD2A5",
"~+	c #C49F76",
"{+	c #E0CB86",
"]+	c #E6CBA3",
"^+	c #FCFABD",
"/+	c #D7D7D7",
"(+	c #FED4A0",
"_+	c #FDF5CF",
":+	c #FEE5B8",
"<+	c #333302",
"[+	c #D8CC7D",
"}+	c #ECCE6E",
"|+	c #D4BD98",
"1+	c #FECC8E",
"2+	c #EACC99",
"3+	c #DEC6A0",
"4+	c #FEF5E4",
"5+	c #ECECB7",
"6+	c #161609",
"7+	c #F6D6A1",
"8+	c #F3C98A",
"9+	c #E2CE68",
"0+	c #D8B66E",
"a+	c #DBC497",
"b+	c #D0D0D0",
"c+	c #5A5A5C",
"d+	c #E5CD9E",
"e+	c #F2F2B4",
"f+	c #FDFDFA",
"g+	c #F1F181",
"h+	c #EEEEC7",
"i+	c #CBCBCB",
"j+	c #C6C6C6",
"k+	c #F3DBB0",
"l+	c #EADABC",
"m+	c #F6F2D4",
"n+	c #ECD274",
"o+	c #FEDC9C",
"p+	c #FECC84",
"q+	c #FEB86C",
"r+	c #919191",
"s+	c #009000",
"t+	c #FE8E14",
"u+	c #F9AA5E",
"v+	c #FDAE54",
"w+	c #FE9624",
"x+	c #F5F1A7",
"y+	c #909090",
"z+	c #38FB30",
"A+	c #5D5D5F",
"B+	c #EACA64",
"C+	c #FDC382",
"D+	c #FEBE64",
"E+	c #AE8E2C",
"F+	c #8F8F8F",
"G+	c #F69214",
"H+	c #7A4204",
"I+	c #12120C",
"J+	c #A78466",
"K+	c #BE8A24",
"L+	c #765204",
"M+	c #9E9614",
"N+	c #F3D380",
"O+	c #100E08",
"P+	c #22220C",
"Q+	c #1A1A0A",
"                                                                                                ",
"    . . . . . . . . . . . . . . . . . . . . . . . . . . . . . . . . . . . . . . .               ",
"  . + @ @ @ @ @ @ @ @ @ @ @ @ @ @ @ @ @ @ @ @ @ @ @ @ @ @ @ @ @ @ @ @ @ @ @ @ @ + .             ",
"  . @ # # # # # # # # $ % & * = - ; > , ' ) ! ~ { ] ^ / ( _ : < [ } | 1 2 + 3 4 5 .             ",
"  . @ # # # # # # # $ % & * = - 6 > , 7 ) ! ~ { ] ^ 8 ( _ 9 < [ } | 1 2 0 3 4 a 5 .             ",
"  . @ # # # # # # $ % b * = c 6 > , 7 ) ! d { ] e 8 ( _ 9 < [ f | 1 g 0 3 h a i 5 .             ",
"  . @ # # # j k k k k k k k k k k k k k k k k k k k k k k k k k k k k k k a i l 5 .             ",
"  . @ # # # k m n o p q r s t u v w x y z A B C . . . . . . . . . . . . @ D l E 5 .             ",
"  . @ # # # k n F G G m H I J K L M N x O P Q C . . . . . . . . . . . . @ l E R 5 .             ",
"  . @ # # # S o G @ T U V G o W X Y Z w ` z  .C . . . . . . . . . . . . @ ..R +.5 .             ",
"  . @ # # @.S p G T @ #.$.%.&.*.q =.L -.x ;. .. . . . . . . . . . . . . @ R +.>.5 .             ",
"  . @ # $ % k W m ,.'.@ '.'.).!.~.X {.-.].z Q . . . . . . . . . . . . . @ ^.>./.5 .             ",
"  . @ $ % & k r o V @ (.'.%.&.H W _.:.<.` P [.. . . . . . . . . . . . . @ >./.}.5 .             ",
"  . @ % b * S s I @ |.U %.(.@ @ @ 1.Z 2.y A 3.. . . . . . . . . . . . . @ 4.}.5.5 .             ",
"  . @ b * = k t J o &.).&.m p 6.K u <.7.8.Q . . . . 9.0.0.0.9.. . . . . @ }.5.a.5 .             ",
"  . @ * b.c S u K W *.!.H c.6._.L v d.O A C . . e.9.f.g.h.g.i.j.k.. 0.9.0.0.a.l.5 .             ",
"  . @ b.c - k v L X q ~.W J K L v m.n.o.9.0.0.p.q.p.g.r.s.t.u.i.v.p.0.f.h.f.9.w.5 .             ",
"  . @ c - ; S w M Y =.X _.1.u v m.x.P 9.g.h.y.i.z.A.B.C.D.D.E.F.G.A.h.h.H.h.I.9.5 .             ",
"  . @ - ; > k x N Z L {.:.Z <.d.n.J.Q 0.t.s.K.E.A.i.L.M.N.D.M.O.v.O.h.s.D.B.f.j.k.P.            ",
"  . @ ; > , S y x w -.-.<.2.7.O P B p.0.H.Q.K.K.i.R.S.s.T.N.K.F.A.U.t.N.D.V.g.v.p.P..           ",
"  . @ > , 7 k z O ` x ].` y 8.A 0.p.0.W.M.D.N.K.E.X.B.Y.T.Z.M.F.X.`.C.T.N. +.+G.j.v.9.++        ",
"  . @ , 7 ) S A P z ;.z P A Q 9.f.i.X.i.H.T.D.Q.h.i.O.M.T.N.K.O.i.M.D.Z.@+#+A.i.g.g.f.9..       ",
"  . @ 7 ) $+k B Q  . .Q [.3.0.f.g.%+&+A.*+D.T.=+K.O.R.M.D.N.Y.W.-+;+>+T.,+B.i.O. +t.t.f..       ",
"  . @ ' $+d S C C C . . . . 9.g.t.H.'+O.X.)+N.N.'+!+X.Y.D.T.K.~+{+@+>+Z.,+-+A.#+s.N.U.g..       ",
"  . @ $+d ~ k . . . . . . . 0.!+H.N.'+h.W.]+C.D.D.B.i.B.s.T. +i.]+M.N.T.!+X.{+s.T.^+U.0..       ",
"  . @ ! ~ /+S . . . . . . . p.g.D.Z.>+(+E.X.)+_+Z.)+O.{+:+T.=+~+%+>+D.@+{+i.!+@+N.t.y..         ",
"  . @ ~ /+] k . . . . . . . <+i.[+>+N.:+}+i.|+s.D.:+%+~+Q.T.>+O.{+>+Z.@+i.O.H._+^+U.0..         ",
"  . @ { ] ^ S . . . . . . . p.v.O.D.Z.:+1+2+X.3+:+D.)+i.,+T.D.~+%+M.Z.^+X.U.^+4+5+g.6+          ",
"  . @ ] ^ 8 k . . . . . . 9.v.i.X.O.:+N.@+7+O.%+C.T.M.i.M.4+=+i.8+>+,+u.i.s.N.t.U..             ",
"  . @ e 8 ( S . . . . . 0.0.g.9+0+X.O._+N.t.2+i.|+D.:+O.a+_+,+W.{+K.@+O.O.N.T.U.0..             ",
"  . @ 8 ( b+c+. . . . . 9.f.H.)+d+E.i.2+T.^+h.O.i.)+D.a+O.^+D.~+u.e+>+X.U.^+H.O.9.++            ",
"  . @ / b+9 k f+f+f+f+f+9.f.'+T.=+h.O.X.g+Z.D.h.O.|+D.d+R.C.=+i.u.h+u.i.s.N.E.p.5 ++            ",
"  . @ b+9 : i+f } j+g 2 p.0.g.s.T.:+d+O.i.C.T.V.%+O.k+M.1+!+l+1+u. +i.%+m+^+v.p.5 ++            ",
"  . @ _ : i+[ } j+g 2 + h p.0.g.:+N.T.:+n+X.7+ +5+O.1+:+9+o+p+q+ +!+1+V.V.E.p.r+5 ++            ",
"  . @ : i+[ s+s+s+2 + 3 4 D p.0.g.s.D.^+@+U.i.3+K.!+9+t+u+o+v+w+#+q+u+x+V.v.p.y+5 ++            ",
"  . @ < [ } s+z+z++ 3 4 D i ..A+p.0.g.C.T.=+!+X.O.v+ +B+C+t.t.t.'+C+D+D+E+p.y+F+5 ++            ",
"  . @ [ } | 1 2 0 3 4 a i ..R ^.>.p.0.g.C.T.:+O.1+t+p+)+)+^+^+^+D.'+'+G+H+p.F+F+5 ++            ",
"  . + 5 5 5 5 5 5 5 5 5 5 5 5 5 5 5 9.9.0.h.s.1+v+'+,+D.D.T.T.T.D.D.'+g.9.5 5 5 5 ++            ",
"    . . . . . . . . . . . . . . . . . . I+0.J+K+9+'+^+D.T.@ T.^+D.'+g.9.. . . . .               ",
"                                          ++. L+M+C.r.,+,+,+,+@+'+N+g.O+                        ",
"                                              ++P+0.'+'+s.s.s.s.'+g.0..                         ",
"                                                  Q+0.f.g.h.h.g.f.0.I+                          ",
"                                                    . 9.0.0.0.9.9.Q+                            ",
"                                                      ++++++++++++                              ",
"                                                                                                ",
"                                                                                                ",
"                                                                                                ",
"                                                                                                "};
