/* XPM */
static char * kwrite_xpm[] = {
"48 48 416 2",
"  	c None",
". 	c #2F2F2F",
"+ 	c #313131",
"@ 	c #DCD5CF",
"# 	c #DBD5CC",
"$ 	c #333333",
"% 	c #DCD8D1",
"& 	c #F9F2EA",
"* 	c #F8F1E7",
"= 	c #DBD4CA",
"- 	c #020202",
"; 	c #1D1D1C",
"> 	c #393936",
", 	c #55594C",
"' 	c #707467",
") 	c #8A8E81",
"! 	c #A5A99C",
"~ 	c #353535",
"{ 	c #DDD8D2",
"] 	c #F9F4EC",
"^ 	c #F8EFE5",
"/ 	c #DAD3C7",
"( 	c #373737",
"_ 	c #DDD9D4",
": 	c #FAF6EF",
"< 	c #F7EEE2",
"[ 	c #DAD1C5",
"} 	c #393939",
"| 	c #DEDCD7",
"1 	c #FBF6F2",
"2 	c #F7EEE0",
"3 	c #D9CFC4",
"4 	c #2C2C2C",
"5 	c #3B3B3B",
"6 	c #DEDDD9",
"7 	c #FCF8F3",
"8 	c #F6EBDD",
"9 	c #3D3D3D",
"0 	c #DFDDDC",
"a 	c #FBF9F6",
"b 	c #3F3F3F",
"c 	c #E0DEDD",
"d 	c #FCFBF9",
"e 	c #9D914C",
"f 	c #AB9E60",
"g 	c #4F4A20",
"h 	c #414141",
"i 	c #E1E1E1",
"j 	c #FDFCFC",
"k 	c #F2E9C1",
"l 	c #D7C07C",
"m 	c #716838",
"n 	c #434343",
"o 	c #FFFFFF",
"p 	c #857838",
"q 	c #FDF6DE",
"r 	c #FCF7DF",
"s 	c #D2C185",
"t 	c #91804A",
"u 	c #444444",
"v 	c #B7A354",
"w 	c #EADDB1",
"x 	c #FAF5E1",
"y 	c #D6C995",
"z 	c #B39E5C",
"A 	c #464646",
"B 	c #D0BC7D",
"C 	c #E2D5A7",
"D 	c #FEFEFE",
"E 	c #FAF1CD",
"F 	c #CBBA78",
"G 	c #484848",
"H 	c #A4954D",
"I 	c #B7A654",
"J 	c #CFBB7C",
"K 	c #DECE9D",
"L 	c #F3E9C8",
"M 	c #4A4A4A",
"N 	c #E6D9AD",
"O 	c #B2A151",
"P 	c #C7B16C",
"Q 	c #EEE1BD",
"R 	c #FDF5DE",
"S 	c #FCF8E7",
"T 	c #F6EDCF",
"U 	c #CFBA72",
"V 	c #4C4C4C",
"W 	c #FCFCFB",
"X 	c #C3B16C",
"Y 	c #EFE5BE",
"Z 	c #DED09F",
"` 	c #D7C48C",
" .	c #CFBE80",
"..	c #E5D4A6",
"+.	c #DAC98F",
"@.	c #BBA958",
"#.	c #615828",
"$.	c #0A0A0A",
"%.	c #000000",
"&.	c #4E4E4E",
"*.	c #BAAA63",
"=.	c #E2D5AD",
"-.	c #C7B670",
";.	c #C7AE6C",
">.	c #C1A55C",
",.	c #CEBD81",
"'.	c #D2BD7F",
").	c #BFA45A",
"!.	c #8B8071",
"~.	c #7B7163",
"{.	c #080808",
"].	c #505050",
"^.	c #958848",
"/.	c #E1D1A0",
"(.	c #A9964C",
"_.	c #CAB471",
":.	c #C3A75E",
"<.	c #C4AD67",
"[.	c #8B8172",
"}.	c #8D8271",
"|.	c #807466",
"1.	c #070707",
"2.	c #525252",
"3.	c #DDCD9A",
"4.	c #A8964B",
"5.	c #9D8C46",
"6.	c #8E803D",
"7.	c #C0A95B",
"8.	c #AC994F",
"9.	c #6D632C",
"0.	c #8D8272",
"a.	c #918675",
"b.	c #9C8E7C",
"c.	c #9B8D7A",
"d.	c #545454",
"e.	c #B09C4F",
"f.	c #C7B164",
"g.	c #7A6D2F",
"h.	c #787035",
"i.	c #8C8273",
"j.	c #908475",
"k.	c #9A8E7C",
"l.	c #AF9F8B",
"m.	c #C6B69D",
"n.	c #BFAF98",
"o.	c #565656",
"p.	c #C2AC71",
"q.	c #AD9A44",
"r.	c #605725",
"s.	c #8C8476",
"t.	c #8C8275",
"u.	c #8C8376",
"v.	c #8E8475",
"w.	c #938878",
"x.	c #A59885",
"y.	c #C0AF98",
"z.	c #D9C7AC",
"A.	c #E5D0B4",
"B.	c #D0BEA5",
"C.	c #040404",
"D.	c #575757",
"E.	c #D6C589",
"F.	c #C1AD66",
"G.	c #908441",
"H.	c #8D8478",
"I.	c #8E8477",
"J.	c #908779",
"K.	c #948979",
"L.	c #9C8F7E",
"M.	c #B0A28E",
"N.	c #CDBBA3",
"O.	c #E2CFB4",
"P.	c #EAD4B7",
"Q.	c #EDD7BA",
"R.	c #BBA454",
"S.	c #CEB979",
"T.	c #8D857A",
"U.	c #8D8579",
"V.	c #8E8678",
"W.	c #93887B",
"X.	c #9A9081",
"Y.	c #A69988",
"Z.	c #B0A28F",
"`.	c #C2B39C",
" +	c #D8C5AC",
".+	c #E7D4B7",
"++	c #ECD6B9",
"@+	c #010101",
"#+	c #8E867C",
"$+	c #8E867A",
"%+	c #938A7C",
"&+	c #9E9384",
"*+	c #B0A594",
"=+	c #C1B39F",
"-+	c #CEBDA7",
";+	c #D9C8AE",
">+	c #E3CFB5",
",+	c #EBD7BA",
"'+	c #B8A153",
")+	c #5C5931",
"!+	c #A08E47",
"~+	c #8C7F3F",
"{+	c #8F877C",
"]+	c #938A7E",
"^+	c #9F9687",
"/+	c #B3A696",
"(+	c #C9BBA8",
"_+	c #DCCBB4",
":+	c #E4D2B9",
"<+	c #E9D6BB",
"[+	c #ECD7BB",
"}+	c #EDD9BC",
"|+	c #060606",
"1+	c #EFE5BC",
"2+	c #3F3E22",
"3+	c #8E8880",
"4+	c #8E877E",
"5+	c #8D867D",
"6+	c #90877D",
"7+	c #928A7E",
"8+	c #9D9386",
"9+	c #B1A796",
"0+	c #CABBA9",
"a+	c #DECFBA",
"b+	c #E9D8BF",
"c+	c #EDDAC0",
"d+	c #EFDCC0",
"e+	c #EFDABE",
"f+	c #D2BFA5",
"g+	c #090909",
"h+	c #8F887F",
"i+	c #938A80",
"j+	c #9B9286",
"k+	c #ACA193",
"l+	c #C5B9A7",
"m+	c #DECEBA",
"n+	c #EADAC4",
"o+	c #EFDDC4",
"p+	c #F0DDC3",
"q+	c #F0DDC1",
"r+	c #D3C0A8",
"s+	c #0B0B0B",
"t+	c #B6A253",
"u+	c #8F8A82",
"v+	c #8F8981",
"w+	c #908980",
"x+	c #948D83",
"y+	c #9E958A",
"z+	c #ADA395",
"A+	c #C1B5A5",
"B+	c #D7CAB6",
"C+	c #E8D8C3",
"D+	c #EFDFC8",
"E+	c #F1DFC6",
"F+	c #D4C3AB",
"G+	c #0D0D0D",
"H+	c #8D7F3C",
"I+	c #8F8A83",
"J+	c #908B82",
"K+	c #908A82",
"L+	c #958F85",
"M+	c #A0988E",
"N+	c #B3A99C",
"O+	c #C7BBAC",
"P+	c #D8CAB9",
"Q+	c #E5D8C2",
"R+	c #EEDDC7",
"S+	c #F1E1CA",
"T+	c #D3C3AC",
"U+	c #101010",
"V+	c #948541",
"W+	c #8F8A84",
"X+	c #908B84",
"Y+	c #928C84",
"Z+	c #968F87",
"`+	c #A19A8F",
" @	c #B4ABA0",
".@	c #CCC0B2",
"+@	c #DFD3C1",
"@@	c #E9DBC7",
"#@	c #EEE0C9",
"$@	c #F1E0CA",
"%@	c #D4C6AF",
"&@	c #121212",
"*@	c #908C87",
"=@	c #8F8B86",
"-@	c #908B85",
";@	c #928C85",
">@	c #979189",
",@	c #A29A91",
"'@	c #B5ADA1",
")@	c #CCC2B6",
"!@	c #E1D4C5",
"~@	c #EDDFCD",
"{@	c #F1E2CE",
"]@	c #F2E4CD",
"^@	c #F2E1CB",
"/@	c #D5C7B2",
"(@	c #151515",
"_@	c #DED09D",
":@	c #908D88",
"<@	c #918D88",
"[@	c #918D87",
"}@	c #948F89",
"|@	c #99938C",
"1@	c #A49E95",
"2@	c #B7AFA4",
"3@	c #CDC4B6",
"4@	c #E1D6C8",
"5@	c #EEE0D0",
"6@	c #F2E4D1",
"7@	c #F3E4D0",
"8@	c #D6C6B3",
"9@	c #171717",
"0@	c #A8954B",
"a@	c #918E8C",
"b@	c #918E8A",
"c@	c #918E89",
"d@	c #938F8A",
"e@	c #96928C",
"f@	c #A09A94",
"g@	c #ADA79E",
"h@	c #BDB6AC",
"i@	c #D0C7BB",
"j@	c #E2D8C9",
"k@	c #EDE1D3",
"l@	c #F3E5D4",
"m@	c #F4E6D3",
"n@	c #D6C8B5",
"o@	c #191919",
"p@	c #716830",
"q@	c #929190",
"r@	c #91908E",
"s@	c #93908D",
"t@	c #928F8D",
"u@	c #94918D",
"v@	c #95928D",
"w@	c #9B9691",
"x@	c #A5A09A",
"y@	c #B5AFA7",
"z@	c #C9C2B8",
"A@	c #D9D2C5",
"B@	c #E6DCCF",
"C@	c #EFE4D4",
"D@	c #F2E6D7",
"E@	c #F5E7D6",
"F@	c #D7C9B8",
"G@	c #1C1C1C",
"H@	c #807739",
"I@	c #746A33",
"J@	c #262626",
"K@	c #838383",
"L@	c #91918F",
"M@	c #939291",
"N@	c #939290",
"O@	c #95928F",
"P@	c #969391",
"Q@	c #9A9894",
"R@	c #A39F9A",
"S@	c #AEA9A4",
"T@	c #BEB9B1",
"U@	c #D2CAC1",
"V@	c #E2DACF",
"W@	c #EDE4D7",
"X@	c #F2E7D9",
"Y@	c #F4E9D9",
"Z@	c #F4E8D9",
"`@	c #D7CBBA",
" #	c #1E1E1E",
".#	c #9D8B42",
"+#	c #252525",
"@#	c #848382",
"##	c #979695",
"$#	c #999896",
"%#	c #9E9B98",
"&#	c #A5A29F",
"*#	c #AFACA7",
"=#	c #BDB9B3",
"-#	c #CDC7C0",
";#	c #DAD4CB",
">#	c #E8E0D6",
",#	c #F0E7DB",
"'#	c #F5ECDE",
")#	c #F5EADA",
"!#	c #D7CCBC",
"~#	c #212121",
"{#	c #929090",
"]#	c #ADABA9",
"^#	c #B6B3B0",
"/#	c #BFBCB9",
"(#	c #CDCAC4",
"_#	c #DAD6CF",
":#	c #E7E0D9",
"<#	c #EEE7DD",
"[#	c #F4EBE1",
"}#	c #F6EDE1",
"|#	c #D7CDBE",
"1#	c #232323",
"2#	c #2D2D2D",
"3#	c #B5B4B1",
"4#	c #D7D4CF",
"5#	c #DFDAD7",
"6#	c #E8E4DE",
"7#	c #EFEAE2",
"8#	c #F4EDE5",
"9#	c #F6EFE5",
"0#	c #D8CFC1",
"a#	c #343434",
"b#	c #D3D1CC",
"c#	c #F3EEEA",
"d#	c #F6F2EB",
"e#	c #F7F2EA",
"f#	c #282828",
"g#	c #363636",
"h#	c #DCD8D3",
"i#	c #2A2A2A",
"                                                                                                ",
"                                                                                                ",
"                                              . .                                               ",
"                                            + @ # .                                             ",
"                                          $ % & * = .             - ; > , ' ) ! ) ' ,           ",
"                                        ~ { ] & * ^ / .         - ; > , ' ) ! ) ' , >           ",
"                                      ( _ : ] & * ^ < [ .     - ; > , ' ) ! ) ' , > ;           ",
"                                    } | 1 : ] & * ^ < 2 3 4 - ; > , ' ) ! ) ' , > ; -           ",
"                                  5 6 7 1 : ] & * ^ < 2 8 - ; > , ' ) ! ) ' , > ; - -           ",
"                                9 0 a 7 1 : ] & * ^ < 2 - ; > , ' ) ! ) ' , > ; - - -           ",
"                              b c d a 7 1 : ] & * e f g ; > , ' ) ! ) ' , > ; - - - -           ",
"                            h i j d a 7 1 : ] & * e k l m , ' ) ! ) ' , > ; - - - - -           ",
"                          n i o j d a 7 1 : ] & * p q r s t ) ! ) ' , > ; - - - - - -           ",
"                        u i o o j d a 7 1 : ] & p v w o x y z ) ' , > ; - - - - - - -           ",
"                      A i o o o j d a 7 1 : ] p v B C o D E F z , > ; - - - - - - -             ",
"                    G i o o o o j d a 7 e H p I J K L o o 7 k F t ; - - - - - - -               ",
"                  M i o o o o o j d a 7 p N O P Q R o S T k q C U t - - - - - -                 ",
"                V i o o o o o o j d a 7 p W w v X Q q Y Z `  ...+.@.#.- - - - $.%.              ",
"              &.i o o o o o o o j d a B *.w W =.v -.Q Y `  .;.>.,.'.).#.- - !.~.{.%.            ",
"            ].i o o o o o o o o j d ^.p B K D D /.v P ..` ;.>.v (._.:.<.g [.!.}.|.1.            ",
"          2.i o o o o o o o o o j p v B K R D D 7 3.4.I ` ;.v (.5.6.7.8.9.[.0.a.b.c.{.          ",
"        d.i o o o o o o o o o o p v B K R o q Y k 7 s e.I f.(.5.6.g.h.9.9.i.j.k.l.m.n.1.        ",
"      o.i o o o o o o o o o o p v J K R o q Y Z ` N C p.p q.4.6.g.r.s.t.u.v.w.x.y.z.A.B.C.      ",
"    D.i o o o o o o o o o o ^.v B K R o q Y Z `  .;.y E.F.p G.p 9.H.s.I.J.K.L.M.N.O.P.Q.B.-     ",
"    D.i o o o o o o o o o Z R.B K R o q Y Z `  .;.>.(.S._.O 9.9.T.U.V.W.X.Y.Z.`. +.+++Q.B.@+    ",
"      o.i o o o o o o o o p B K R o q Y Z `  .;.>.v (.5.:.I 9.#+T.$+%+&+*+=+-+;+>+,+Q.B.C.      ",
"        d.i o o o o o o Z '+K R o '+)+!+`  .;.>.v (.5.6.r.~+9.#+{+]+^+/+(+_+:+<+[+}+B.|+        ",
"          2.i o o o o o ^.K R o 1+- 2+)+ .;.>.v (.5.6.r.3+4+5+6+7+8+9+0+a+b+c+d+e+f+g+          ",
"            ].i o o o ^.K R o 1+>.2+-  .;.>.v (.5.6.g.g.3+4+h+i+j+k+l+m+n+o+p+q+r+s+            ",
"              &.i o o '+R o 1+>.2+1+ .;.>.t+(.5.6.g.r.u+v+w+x+y+z+A+B+C+D+E+p+F+G+              ",
"                V i p R o 1+>.2+1+ .;.>.t+(.5.H+g.r.I+J+K+L+M+N+O+P+Q+R+S+E+T+U+                ",
"                  M '+o 1+>.2+1+ .;.>.v (.5.V+g.r.W+X+Y+Z+`+ @.@+@@@#@$@S+%@&@                  ",
"                  p R 1+>.2+1+ .;.>.v (.5.6.r.*@=@-@;@>@,@'@)@!@~@{@]@^@/@(@                    ",
"                  '+_@>.2+1+ .;.>.v (.5.g.r.:@<@[@}@|@1@2@3@4@5@6@7@]@8@9@                      ",
"                p _@>.2+1+ .;.v 0@6.g.r.a@b@c@d@e@f@g@h@i@j@k@l@m@7@n@o@                        ",
"                '+>.2+1+ .v 6.g.p@q@r@s@t@u@v@w@x@y@z@A@B@C@D@E@m@F@G@                          ",
"              p >.2+1+ .H@I@J@K@L@M@N@O@P@Q@R@S@T@U@V@W@X@Y@Z@E@`@ #                            ",
"              '+2+_@.#I@    %.+#@###$#%#&#*#=#-#;#>#,#'#8 )#Z@!#~#                              ",
"            p@2+I@I@          %.J@{#]#^#/#(#_#:#<#[#}#2 8 )#|#1#                                ",
"              p@                  2#3#4#5#6#7#8#9#^ < 2 8 0#+#                                  ",
"                                    a#b#c#d#e#& * ^ < 2 3 f#                                    ",
"                                      g#h#: ] & * ^ < [ i#                                      ",
"                                        ~ { ] & * ^ / 4                                         ",
"                                          $ % & * = .                                           ",
"                                            + @ # .                                             ",
"                                              . .                                               ",
"                                                                                                ",
"                                                                                                "};
