/* XPM */
static char * lbreakout2_xpm[] = {
"48 48 256 2",
"  	c None",
". 	c #FDFDFC",
"+ 	c #FEFCEC",
"@ 	c #FCF8DD",
"# 	c #FCFBE6",
"$ 	c #FEEAC2",
"% 	c #FBEABE",
"& 	c #F6DA9E",
"* 	c #F2CC88",
"= 	c #D28415",
"- 	c #864B02",
"; 	c #723E02",
"> 	c #784202",
", 	c #A15C02",
"' 	c #AC6402",
") 	c #CD7D0C",
"! 	c #D78B1E",
"~ 	c #BA6D02",
"{ 	c #542E02",
"] 	c #623502",
"^ 	c #F6D295",
"/ 	c #FADBA1",
"( 	c #FADEAA",
"_ 	c #E4AF64",
": 	c #763E02",
"< 	c #ECC077",
"[ 	c #4A0202",
"} 	c #F5FDFD",
"| 	c #E6FEE6",
"1 	c #D5FED5",
"2 	c #C3FBC3",
"3 	c #BAFABA",
"4 	c #A6F6A6",
"5 	c #7FE97F",
"6 	c #3BA73B",
"7 	c #127612",
"8 	c #0E710E",
"9 	c #127212",
"0 	c #086C08",
"a 	c #1B821B",
"b 	c #238A23",
"c 	c #167A16",
"d 	c #42AF42",
"e 	c #349C34",
"f 	c #025B02",
"g 	c #42B842",
"h 	c #95F195",
"i 	c #289028",
"j 	c #024B02",
"k 	c #B2F8B2",
"l 	c #EEFAFC",
"m 	c #026302",
"n 	c #023D02",
"o 	c #2B3949",
"p 	c #5F826A",
"q 	c #577666",
"r 	c #020202",
"s 	c #5F826E",
"t 	c #92C69A",
"u 	c #B6FAC2",
"v 	c #BAF6C6",
"w 	c #66866A",
"x 	c #303F35",
"y 	c #2E3E52",
"z 	c #82AA8A",
"A 	c #BAFAC6",
"B 	c #CEFADA",
"C 	c #B2F2BA",
"D 	c #52725A",
"E 	c #1A221A",
"F 	c #4F6E5E",
"G 	c #729E7A",
"H 	c #D2F6DA",
"I 	c #6A9272",
"J 	c #364E3A",
"K 	c #0E1612",
"L 	c #56765A",
"M 	c #92B69A",
"N 	c #526E56",
"O 	c #46624A",
"P 	c #2E3E32",
"Q 	c #0E120E",
"R 	c #3A4E3E",
"S 	c #3E523E",
"T 	c #324636",
"U 	c #222E22",
"V 	c #0A0E0A",
"W 	c #213028",
"X 	c #121A12",
"Y 	c #161E16",
"Z 	c #0A0E0E",
"` 	c #6A1E12",
" .	c #9C3628",
"..	c #943325",
"+.	c #862618",
"@.	c #6C564B",
"#.	c #767254",
"$.	c #7E765A",
"%.	c #7E7A5A",
"&.	c #726E4E",
"*.	c #746E52",
"=.	c #6D674B",
"-.	c #624E40",
";.	c #762216",
">.	c #7E2A1E",
",.	c #64130A",
"'.	c #822E22",
").	c #BE6656",
"!.	c #CE8E82",
"~.	c #D29E90",
"{.	c #AE6E62",
"].	c #A6926E",
"^.	c #B6AE81",
"/.	c #CEC692",
"(.	c #D2CA98",
"_.	c #DBD29C",
":.	c #DED69F",
"<.	c #AA9C76",
"[.	c #CA7E72",
"}.	c #C66D5D",
"|.	c #A64434",
"1.	c #7A1E12",
"2.	c #825B49",
"3.	c #D6B2AA",
"4.	c #DACBC6",
"5.	c #BAAEAA",
"6.	c #C6BE8E",
"7.	c #EAE6B6",
"8.	c #FAF6BB",
"9.	c #FEFACA",
"0.	c #EEEEBA",
"a.	c #CDC69D",
"b.	c #DAC6C2",
"c.	c #D6BAB2",
"d.	c #CE8674",
"e.	c #6A4E3D",
"f.	c #2E2E22",
"g.	c #A48868",
"h.	c #D29686",
"i.	c #CAC2A2",
"j.	c #FEF6BA",
"k.	c #F0EAB0",
"l.	c #BAAAA6",
"m.	c #D6AA9E",
"n.	c #CA7666",
"o.	c #BA5444",
"p.	c #8A624A",
"q.	c #AE8666",
"r.	c #D6A296",
"s.	c #B68A7E",
"t.	c #BAAA82",
"u.	c #BEAE86",
"v.	c #B68E82",
"w.	c #5D5A42",
"x.	c #97725C",
"y.	c #BE5A4A",
"z.	c #C26153",
"A.	c #AE5A4E",
"B.	c #BAB282",
"C.	c #AAA67A",
"D.	c #9A8662",
"E.	c #A65246",
"F.	c #B24A3A",
"G.	c #523226",
"H.	c #322C22",
"I.	c #664535",
"J.	c #8C2D1D",
"K.	c #A43C2C",
"L.	c #7E664E",
"M.	c #8C8460",
"N.	c #9B946C",
"O.	c #A19B71",
"P.	c #A8A276",
"Q.	c #7D6253",
"R.	c #5D0F06",
"S.	c #2E160E",
"T.	c #0E0E0D",
"U.	c #3E261B",
"V.	c #6C1A0E",
"W.	c #57422E",
"X.	c #56523A",
"Y.	c #625E46",
"Z.	c #676249",
"`.	c #4A3A31",
" +	c #380202",
".+	c #120A06",
"++	c #300202",
"@+	c #460602",
"#+	c #363026",
"$+	c #323226",
"%+	c #3A362A",
"&+	c #3A3A3A",
"*+	c #3A322A",
"=+	c #363626",
"-+	c #2C2A28",
";+	c #261A13",
">+	c #270202",
",+	c #120202",
"'+	c #220202",
")+	c #1E1612",
"!+	c #1E1E16",
"~+	c #1E1A16",
"{+	c #1A1A12",
"]+	c #121211",
"^+	c #120E0C",
"/+	c #0A0202",
"(+	c #000000",
"_+	c #000000",
":+	c #000000",
"<+	c #000000",
"[+	c #000000",
"}+	c #000000",
"|+	c #000000",
"1+	c #000000",
"2+	c #000000",
"3+	c #000000",
"4+	c #000000",
"5+	c #000000",
"6+	c #000000",
"7+	c #000000",
"8+	c #000000",
"9+	c #000000",
"0+	c #000000",
"a+	c #000000",
"b+	c #000000",
"c+	c #000000",
"d+	c #000000",
"e+	c #000000",
"f+	c #000000",
"g+	c #000000",
"h+	c #000000",
"i+	c #000000",
"j+	c #000000",
"k+	c #000000",
"l+	c #000000",
"m+	c #000000",
"n+	c #000000",
"o+	c #000000",
"p+	c #000000",
"q+	c #000000",
"r+	c #000000",
"s+	c #000000",
"t+	c #000000",
"u+	c #000000",
"v+	c #000000",
"w+	c #000000",
"x+	c #000000",
"y+	c #000000",
"z+	c #000000",
"A+	c #000000",
"B+	c #000000",
"C+	c #000000",
"D+	c #000000",
"E+	c #000000",
"F+	c #000000",
"G+	c #000000",
"G+G+G+G+G+G+G+G+G+G+G+G+G+G+G+G+G+G+G+G+G+G+G+G+G+G+G+G+G+G+G+G+G+G+G+G+G+G+G+G+G+G+G+G+G+G+G+G+",
"G+. + @ . # . $ # @ % & * = . . . + $ @ @ . + @ . # . $ # @ % & * = . . . + $ @ @ . + @ . # . G+",
"G+- - - - - ; ; ; > > - , ; # ' - - - - - - - - - - ; ; ; > > - , ; # ' - - - - - - - - - - ; G+",
"G+) = = ) ) ! = = = = * ~ { @ - ) ! ! ) ) ) = = ) ) ! = = = = * ~ { @ - ) ! ! ) ) ) = = ) ) ! G+",
"G+= = = ) ) ) ! ! = ) * ~ ] . - = = ! = ) = = = ) ) ) ! ! = ) * ~ ] . - = = ! = ) = = = ) ) ) G+",
"G+) ) = ! = = = ! = ) * ' ] # - ! ) = ! = ) ) = ! = = = ! = ) * ' ] # - ! ) = ! = ) ) = ! = = G+",
"G+! ) ) = ! ! ) = ! ! * ' { $ > = ! = = = ! ) ) = ! ! ) = ! ! * ' { $ > = ! = = = ! ) ) = ! ! G+",
"G+! = ) = ! ! = ) = = ^ , { . - ! ! ! = = ! = ) = ! ! = ) = = ^ , { . - ! ! ! = = ! = ) = ! ! G+",
"G+/ ( ( * _ * / ^ * / + - { $ = * / / ( / / ( ( * _ * / ^ * / + - { $ = * / / ( / / ( ( * _ * G+",
"G+; : > : ; : - : ] { ] { { < , : ] > - - ; : > : ; : - : ] { ] { { < , : ] > - - ; : > : ; : G+",
"G+] { ] ] ] { { ] { { [ { { ~ - { { { ] ] ] { ] ] ] { { ] { { [ { { ~ - { { { ] ] ] { ] ] ] { G+",
"G+} | 1 . | . 2 | | 3 4 5 6 . . . | 1 1 | } | 1 . | . 2 | | 3 4 5 6 . . . | 1 1 | } | 1 . | . G+",
"G+7 7 8 8 9 0 0 0 0 0 7 a 8 | b 8 8 c 8 7 7 7 8 8 9 0 0 0 0 0 7 a 8 | b 8 8 c 8 7 7 7 8 8 9 0 G+",
"G+6 d 6 6 e d 6 d 6 6 5 b f | 8 6 d d 6 e 6 d 6 6 e d 6 d 6 6 5 b f | 8 6 d d 6 e 6 d 6 6 e d G+",
"G+6 6 d 6 6 6 g d 6 e h i f } 7 6 6 d 6 6 6 6 d 6 6 6 g d 6 e h i f } 7 6 6 d 6 6 6 6 d 6 6 6 G+",
"G+6 6 6 d d 6 6 g 6 6 h b f | 9 d 6 6 g d 6 6 6 d d 6 6 g 6 6 h b f | 9 d 6 6 g d 6 6 6 d d 6 G+",
"G+d 6 6 d g d e 6 d d 5 b f 1 8 d g d 6 d d 6 6 d g d e 6 d d 5 b f 1 8 d g d 6 d d 6 6 d g d G+",
"G+d d 6 6 g d 6 e 6 6 h a j + 9 6 d d 6 d d d 6 6 g d 6 e 6 6 h a j + 9 6 d d 6 d d d 6 6 g d G+",
"G+h k k h 5 5 4 h h h l c j 3 6 h 4 4 k h h k k h 5 5 4 h h h l c j 3 6 h 4 4 k h h k k h 5 5 G+",
"G+0 0 0 0 0 0 7 0 m f f j j 5 c m m 0 8 9 0 0 0 0 0 0 7 0 m f f j j 5 c m m 0 8 9 0 0 0 0 0 0 G+",
"G+m f f m m f f f f j n j j i c f j f f f m f f m m f f f f j n j j i c f j f f f m f f m m f G+",
"G+G+G+G+G+G+G+G+G+G+G+G+G+G+G+G+G+G+G+G+G+G+G+G+G+G+G+G+G+G+G+G+G+G+G+G+G+G+G+G+G+G+G+G+G+G+G+G+",
"                                                                                                ",
"                                                                                                ",
"                                                                                                ",
"                                                                                                ",
"                                                                                                ",
"                                                                                                ",
"                                            G+G+G+G+                                            ",
"                                          G+o p q r G+                                          ",
"                                        G+s t u v w x G+                                        ",
"                                      G+y z A B C D E r G+                                      ",
"                                      G+F G H t I J K r G+                                      ",
"                                      G+F L M N O P Q r G+                                      ",
"                                      G+r R S T U E V r G+                                      ",
"                                        G+W X Y Y Z r G+                                        ",
"                        G+G+G+G+G+G+G+G+G+G+r r r r G+G+G+G+G+G+G+G+G+G+                        ",
"                      G+`  ...+.@.#.$.%.%.$.$.$.$.%.%.#.&.*.=.-.;.>.+.,.G+                      ",
"                    G+'.).!.~.{.].^./.(.(.(.(.(.(.(.(._._.:./.<.{.[.}.|.1.G+                    ",
"                  G+2.).3.4.4.5.6.7.8.9.9.9.9.9.9.9.9.9.9.9.0.a.5.b.c.d.|.e.G+                  ",
"                G+f.g.h.b.4.b.5.i.7.8.8.8.8.8.8.8.j.8.8.j.j.k.a.l.4.m.n.o.p.f.G+                ",
"                G+&.q.}.~.r.~.s.t.(._.:._._._._._.:.:._.:.:._.u.v.r.d.).o.p.w.G+                ",
"                G+$.x.o.y.z.z.A.g.B.6.B.B.B.B.B.B.B.B.^.^.^.C.D.E.z.y.F...G.H.G+                ",
"                G+f.I.J. .K.K...L.M.N.N.O.P.P.P.P.O.O.N.N.N.M.Q.'.J...J.R.S.T.G+                ",
"                  G+U.R.V.1.V.V.W.X.Y.Z.Z.=.Z.Y.Z.Y.Z.Z.Y.w.X.`.R.,.,.R. +.+G+                  ",
"                    G+++ +@+@+@+H.#+$+%+&+#+*+*+%+#+=+%+=+-+-+;+>+ + +>+,+G+                    ",
"                      G+,+>+'+'+)+!+!+~+{+!+!+~+!+~+{+{+)+]+]+^+/+,+,+,+G+                      ",
"                        G+G+G+G+G+G+G+G+G+G+G+G+G+G+G+G+G+G+G+G+G+G+G+G+                        "};
