/* XPM */
static char *libreoffice_writer_xpm[] = {
/* width height ncolors chars_per_pixel */
"16 16 57 1",
/* colors */
"  c #024368",
". c #0368A1",
"X c #709CB6",
"o c #79A8C2",
"O c #024064",
"+ c #03659D",
"@ c #024267",
"# c #6B95AD",
"$ c #024B74",
"% c #036299",
"& c #77A5BF",
"* c #024870",
"= c #035888",
"- c gray95",
"; c #EEEEEE",
": c #ECECEC",
"> c #EAEAEA",
", c gray91",
"< c #E6E6E6",
"1 c #E4E4E4",
"2 c #E2E2E2",
"3 c gray88",
"4 c gray87",
"5 c #6D98B1",
"6 c #025380",
"7 c gray84",
"8 c #73A0BA",
"9 c #D2D2D2",
"0 c #CECECE",
"q c #035584",
"w c #C0C0C0",
"e c #BCBCBC",
"r c gray72",
"t c #02507C",
"y c #B4B4B4",
"u c #024D78",
"i c #035A8C",
"p c #024E7A",
"a c #F3F3F3",
"s c #F1F1F1",
"d c #EFEFEF",
"f c gray92",
"g c #036095",
"h c #E7E7E7",
"j c gray90",
"k c gray89",
"l c #E1E1E1",
"z c #DDDDDD",
"x c gray86",
"c c gray85",
"v c #02466C",
"b c #CBCBCB",
"n c gray78",
"m c #C3C3C3",
"M c #035D91",
"N c #03669E",
"B c None",
/* pixels */
"B........BB....B",
"B+111111o+BB+++B",
"B%laaaa-h&%BB%%B",
"Bgzssssss18gBBgB",
"BMcddddddd3XMBBB",
"Bi7;;;;;;;;45iBB",
"B=9:NNNNNN::x#=B",
"Bq0fffffffff>0qB",
"B6b>iiiiiiii>b6B",
"Btn,,,,,,,,,,ntB",
"Bum<pppppppp<muB",
"B$wjjjjjjjjjjw$B",
"B*ek@@@@@@kkke*B",
"Bvr2222222222rvB",
"B yyyyyyyyyyyy B",
"BOOOOOOOOOOOOOOB"
};
