/* XPM */
static char *libreoffice_calc_xpm[] = {
/* width height ncolors chars_per_pixel */
"16 16 55 1",
/* colors */
"  c #158F03",
". c #158B03",
"X c #83C279",
"o c #7DBA73",
"O c #7AB670",
"+ c #117102",
"@ c #169603",
"# c #169203",
"$ c #CCF4C6",
"% c #179D03",
"& c gray95",
"* c #EEEEEE",
"= c #ECECEC",
"- c #EAEAEA",
"; c gray91",
": c #E6E6E6",
"> c #E4E4E4",
", c #E2E2E2",
"< c gray88",
"1 c gray87",
"2 c #148703",
"3 c gray84",
"4 c #D2D2D2",
"5 c #CECECE",
"6 c #C0C0C0",
"7 c #BCBCBC",
"8 c gray72",
"9 c #B4B4B4",
"0 c #148402",
"q c #81BF77",
"w c #116E02",
"e c #127902",
"r c #127502",
"t c #F3F3F3",
"y c #179A03",
"u c #F1F1F1",
"i c #EFEFEF",
"p c gray92",
"a c #E7E7E7",
"s c gray90",
"d c gray89",
"f c #E1E1E1",
"g c #DDDDDD",
"h c gray86",
"j c gray85",
"k c #138002",
"l c #137C02",
"z c #CBCBCB",
"x c gray78",
"c c #C3C3C3",
"v c #18A103",
"b c #76B36D",
"n c #74AF6B",
"m c #106A02",
"M c None",
/* pixels */
"MvvvvvvvvMMvvvvM",
"M%>>>>>>X%MM%%%M",
"Myftttt&aqyMMyyM",
"M@guuuuuu>o@MM@M",
"M#jiiiiiii<O#MMM",
"M 3********1b MM",
"M.4=.......=hn.M",
"M25p2$$2$$2p-52M",
"M0z-0000000--z0M",
"Mkx;k$$k$$k;;xkM",
"Mlc:lllllll::clM",
"Me6se$$e$$ess6eM",
"Mr7drrrrrrrdd7rM",
"M+8,,,,,,,,,,8+M",
"Mw999999999999wM",
"MmmmmmmmmmmmmmmM"
};
