/* XPM */
static char *libreoffice_draw_xpm[] = {
/* width height ncolors chars_per_pixel */
"16 16 91 1",
/* colors */
"  c #F6F1EE",
". c #D0BC76",
"X c #CCB872",
"o c #C79A00",
"O c #A27E00",
"+ c #BA9100",
"@ c #AC8706",
"# c #A68100",
"$ c #DC8553",
"% c #B89622",
"& c #BE9400",
"* c #E9B913",
"= c #D6AB92",
"- c #F6F2F0",
"; c #AA8400",
": c #967400",
"> c #B35D2A",
", c #F7EFEA",
"< c gray98",
"1 c #F8F8F8",
"2 c #F6F6F6",
"3 c #AE8700",
"4 c #896B00",
"5 c #BF6632",
"6 c #E4E4E4",
"7 c #9A7700",
"8 c #E2E2E2",
"9 c #F09E6F",
"0 c #AF5622",
"q c gray84",
"w c #C8B46F",
"e c #D2D2D2",
"r c #CECECE",
"t c #B28A00",
"y c #AB8503",
"u c #8D6E00",
"i c #CDB04C",
"p c #B45720",
"a c #9E7A00",
"s c #C4774A",
"d c #C0C0C0",
"f c #F1A980",
"g c #BCBCBC",
"h c gray72",
"j c #D6BD65",
"k c #B4B4B4",
"l c #DF8957",
"z c #CE9A7B",
"x c #B68D00",
"c c #917100",
"v c #DEB010",
"b c #E8D4C9",
"n c #C2A233",
"m c #D5C48B",
"M c #F1AF89",
"N c #957400",
"B c #E4B512",
"V c #AB8605",
"C c #D1A287",
"Z c #A17D05",
"A c #F4F3EE",
"S c #AD8703",
"D c #DFC980",
"F c #C4B06C",
"G c #F7F5F4",
"H c #FBFBFB",
"J c #D7B099",
"K c #F9F9F9",
"L c gray97",
"P c #AE511B",
"I c white smoke",
"U c #E1B211",
"Y c #E9E9E9",
"T c #E18B5A",
"R c #E7E7E7",
"E c #E1E1E1",
"W c #DFDFDF",
"Q c #DDDDDD",
"! c gray85",
"~ c #B89210",
"^ c #B05723",
"/ c #CBCBCB",
"( c gray78",
") c #C39700",
"_ c #C3C3C3",
"` c #9E7B00",
"' c #F5F4F4",
"] c #D5C078",
"[ c #C0AD6A",
"{ c #F7EAE2",
"} c None",
/* pixels */
"}oooooooo}}oooo}",
"})666666])}})))}",
"}&EHHHHHY.&}}&&}",
"}+Q<<<<<<RX+}}+}",
"}x!<<<<<<K6wx}}}",
"}tqKKKKKKKK8Ft}}",
"}3eKG=P^z-K1W[3}",
"};r1CpTl5bD~1r;}",
"}#/1>$9f{jS#1/#}",
"}O(L0$M,iyvOL(O}",
"}a_LJs nVU*`L_a}",
"}7d2'A%@B**72d7}",
"}Ng22m:::::Z2gN}",
"}chIIIIIIIIIIhc}",
"}ukkkkkkkkkkkku}",
"}44444444444444}"
};
