/* XPM */
static char *libreoffice_impress_xpm[] = {
/* width height ncolors chars_per_pixel */
"16 16 69 1",
/* colors */
"  c #A13D03",
". c #C29479",
"X c #833406",
"o c #B68A70",
"O c #F9CFB5",
"+ c #F8CDB4",
"@ c #8C3908",
"# c #7E3004",
"$ c #BA8D73",
"% c #803102",
"& c #6C2902",
"* c #883403",
"= c gray95",
"- c #993A03",
"; c #EEEEEE",
": c #ECECEC",
"> c #EAEAEA",
", c #853203",
"< c gray91",
"1 c #E6E6E6",
"2 c #E4E4E4",
"3 c #E2E2E2",
"4 c gray88",
"5 c #702A02",
"6 c gray87",
"7 c #BF9277",
"8 c #8C3503",
"9 c #F09E6F",
"0 c gray84",
"q c #D2D2D2",
"w c #CECECE",
"e c #C0C0C0",
"r c #752D03",
"t c #BCBCBC",
"y c gray72",
"u c #B4B4B4",
"i c #AD846B",
"p c #793003",
"a c #782E02",
"s c #642602",
"d c #F7CEB3",
"f c #913703",
"g c #7C2F02",
"h c #682702",
"j c #883607",
"k c #843203",
"l c #953803",
"z c #F3F3F3",
"x c #B1866D",
"c c #F1F1F1",
"v c #EFEFEF",
"b c gray92",
"n c #E7E7E7",
"m c gray90",
"M c gray89",
"N c #E1E1E1",
"B c #DDDDDD",
"V c gray86",
"C c gray85",
"Z c #813102",
"A c #9D3C03",
"S c #F7CCB1",
"D c #F6CAB0",
"F c #CBCBCB",
"G c gray78",
"H c #893403",
"J c #C3C3C3",
"K c #742C02",
"L c None",
/* pixels */
"L        LL    L",
"LA222222.ALLAAAL",
"L-Nzzzz=n7-LL--L",
"LlBcccccc2$lLLlL",
"LfCvvvvvvv4ofLLL",
"L80;;;;;;;;6x8LL",
"L*q:@HHHHHHHVi*L",
"LkwbjDOOOOO,>wkL",
"L%F>XSZOZZ9Z>F%L",
"LgG<#dOOOOOg<GgL",
"LaJ1p+aOaa9a1JaL",
"LKemrOOOOOOKmeKL",
"L5tM55555555Mt5L",
"L&y3333333333y&L",
"LhuuuuuuuuuuuuhL",
"LssssssssssssssL"
};
