/* XPM */
static char * lierolibre_xpm[] = {
"48 48 53 1",
" 	c None",
".	c #3CAD3C",
"+	c #3CAC3C",
"@	c #3CAB3C",
"#	c #49B049",
"$	c #4BB24B",
"%	c #4AB14A",
"&	c #5AB75A",
"*	c #68BC68",
"=	c #2C842C",
"-	c #319231",
";	c #329332",
">	c #79BF79",
",	c #A4C9A4",
"'	c #7CB27C",
")	c #90B190",
"!	c #B4B4B4",
"~	c #A5A5A5",
"{	c #909090",
"]	c #8F8F8F",
"^	c #91C691",
"/	c #D8D8D8",
"(	c #AEB8AE",
"_	c #76BE76",
":	c #91C591",
"<	c #A5CAA5",
"[	c #81A881",
"}	c #7BA07B",
"|	c #7D9A7D",
"1	c #919191",
"2	c #2F8A2F",
"3	c #308F30",
"4	c #319131",
"5	c #4BA64B",
"6	c #59B659",
"7	c #206520",
"8	c #319031",
"9	c #379F37",
"0	c #40A740",
"a	c #4AA64A",
"b	c #4BAD4B",
"c	c #4BB14B",
"d	c #206420",
"e	c #318D31",
"f	c #216821",
"g	c #339333",
"h	c #46B046",
"i	c #5DB85D",
"j	c #41A641",
"k	c #349934",
"l	c #2F8E2F",
"m	c #369B36",
"n	c #329232",
"                                                ",
"                                                ",
"                                                ",
"                                                ",
"                                                ",
"                      .........+                ",
"                     @++++++++++                ",
"                     @++++++++++                ",
"                     @++++++++++                ",
"                     @++++++++++                ",
"                     #$$$$$$$$$%                ",
"                +++++&**********+++++           ",
"                +++++&**********+++++           ",
"                +++++&**********+++++           ",
"                +++++&**********+++++           ",
"                +++++&**********+++++           ",
"                *****$++++++++++=====-          ",
"                *****$++++++++++=====;          ",
"                *****$++++++++++=====;          ",
"                *****$++++++++++=====;          ",
"                *****$++++++++++=====;          ",
"                *****>,,,,,,,,,,''''')!!!!~{{{{]",
"                *****^///////////////(!!!!~{{{{{",
"                *****^///////////////(!!!!~{{{{{",
"                *****^///////////////(!!!!~{{{{{",
"                *****^///////////////(!!!!~{{{{{",
"                &&&&&_^^^^^^^^^:<<<<<[}}}}|1111{",
"                +++++&**********+++++2=====     ",
"                +++++&**********+++++2=====     ",
"                +++++&**********+++++2=====     ",
"                +++++&**********+++++2=====     ",
"                +++++&**********+++++2=====     ",
"     3====4+++++=====5****6+++++                ",
"     3====4+++++=====5****6+++++                ",
"     3====4+++++=====5****6+++++                ",
"     3====4+++++=====5****6+++++                ",
"     3====4+++++=====5****6+++++                ",
"7777789999066666aaaaabcccc044444                ",
"ddddde++++c**********$++++9=====                ",
"ddddde++++c**********$++++9=====                ",
"ddddde++++c**********$++++9=====                ",
"ddddde++++c**********$++++9=====                ",
"fffffg++++hiiiii&&&&&j9999k3333l                ",
"=====m++++.     +++++n====l                     ",
"=====m++++.     +++++n====l                     ",
"=====m++++.     +++++n====l                     ",
"=====m++++.     +++++n====l                     ",
"=====m++++.     +++++n====l                     "};
