/* XPM */
static char * lpairs_xpm[] = {
"48 48 583 2",
"  	c None",
". 	c #898B86",
"+ 	c #888A85",
"@ 	c #898B87",
"# 	c #8B8D88",
"$ 	c #CCCCCB",
"% 	c #FBFCFB",
"& 	c #FBFBFB",
"* 	c #FCFCFC",
"= 	c #FCFCFB",
"- 	c #FAFBFA",
"; 	c #FAFAFA",
"> 	c #F9FAF9",
", 	c #F9F9F8",
"' 	c #F8F8F8",
") 	c #F7F8F7",
"! 	c #D2D3D1",
"~ 	c #D8D8D7",
"{ 	c #FDFDFD",
"] 	c #E5E7E3",
"^ 	c #E5E8E3",
"/ 	c #E6E8E3",
"( 	c #E6E8E4",
"_ 	c #E6E9E4",
": 	c #E7E9E4",
"< 	c #E7E9E5",
"[ 	c #E7EAE5",
"} 	c #E8EAE5",
"| 	c #E4E4E3",
"1 	c #D3D7CF",
"2 	c #F7F7F6",
"3 	c #8B8C88",
"4 	c #D8D9D7",
"5 	c #FBFBFA",
"6 	c #F7F8F6",
"7 	c #E3E3E3",
"8 	c #8A8C88",
"9 	c #D3D6CD",
"0 	c #C8C9A9",
"a 	c #C2C194",
"b 	c #BDB981",
"c 	c #B8B36E",
"d 	c #8A8C87",
"e 	c #D1D5C9",
"f 	c #B3AA52",
"g 	c #A3951D",
"h 	c #B9AD4B",
"i 	c #C9BE68",
"j 	c #D4CB7C",
"k 	c #DED58D",
"l 	c #DED58C",
"m 	c #D4CA7A",
"n 	c #C9BE66",
"o 	c #B9AB49",
"p 	c #A3941C",
"q 	c #B3A950",
"r 	c #E3E3E2",
"s 	c #BEBB84",
"t 	c #A69823",
"u 	c #C5BA61",
"v 	c #E7DF9F",
"w 	c #F8F3CB",
"x 	c #FBF5BF",
"y 	c #FAF3B0",
"z 	c #FAF0A6",
"A 	c #F9EF9B",
"B 	c #F8EE99",
"C 	c #F9F0A0",
"D 	c #FAF1A7",
"E 	c #FBF2B5",
"F 	c #F8F0C3",
"G 	c #E7DB97",
"H 	c #C5B75C",
"I 	c #A69722",
"J 	c #E2E3E2",
"K 	c #C4C39C",
"L 	c #A79926",
"M 	c #C5BB61",
"N 	c #F5EFC2",
"O 	c #FBF5BD",
"P 	c #F9F0A1",
"Q 	c #F8EC8A",
"R 	c #F8EB84",
"S 	c #F7EB82",
"T 	c #F7EB80",
"U 	c #F7EA7D",
"V 	c #F7E978",
"W 	c #F6E874",
"X 	c #F6E76E",
"Y 	c #F6E66F",
"Z 	c #F9E88A",
"` 	c #FBECAB",
" .	c #F5E9B6",
"..	c #C6B75B",
"+.	c #A79925",
"@.	c #D8D9D8",
"#.	c #BBB677",
"$.	c #AEA232",
"%.	c #F0EAB6",
"&.	c #FBF5C2",
"*.	c #F9EE97",
"=.	c #F8EC89",
"-.	c #F8ED8C",
";.	c #F8ED8D",
">.	c #F8ED8E",
",.	c #F8EC85",
"'.	c #F7EB81",
").	c #F7EA7C",
"!.	c #F6E976",
"~.	c #F6E86F",
"{.	c #F6E669",
"].	c #F7E063",
"^.	c #F9DF75",
"/.	c #FCEBAE",
"(.	c #F1E1A8",
"_.	c #AEA02F",
":.	c #BBB676",
"<.	c #E2E2E1",
"[.	c #D2D6CB",
"}.	c #B3A951",
"|.	c #BDB14F",
"1.	c #F8F3C8",
"2.	c #F8EC88",
"3.	c #F9EE92",
"4.	c #F9EE95",
"5.	c #F9EF97",
"6.	c #F9EF98",
"7.	c #F7EB83",
"8.	c #F6E76F",
"9.	c #F6E568",
"0.	c #F7DF61",
"a.	c #F8D95B",
"b.	c #FADD7E",
"c.	c #FAE9B8",
"d.	c #BEAC49",
"e.	c #B3A850",
"f.	c #D9D9D7",
"g.	c #FAFAF9",
"h.	c #CBC068",
"i.	c #FBF5C8",
"j.	c #F8EE93",
"k.	c #F8ED90",
"l.	c #F9EF96",
"m.	c #FAF09E",
"n.	c #FAF0A1",
"o.	c #FAF1A1",
"p.	c #F9EE91",
"q.	c #F8EB83",
"r.	c #F6E76C",
"s.	c #F6E265",
"t.	c #F7DC5F",
"u.	c #F9D658",
"v.	c #FBD669",
"w.	c #FCE8B5",
"x.	c #CCB95F",
"y.	c #F8F8F7",
"z.	c #E1E2E1",
"A.	c #BDB14E",
"B.	c #FBF5C7",
"C.	c #F9EE90",
"D.	c #FAF1A3",
"E.	c #FAF2A8",
"F.	c #FBF2AA",
"G.	c #FBF2AB",
"H.	c #F7E979",
"I.	c #F6E871",
"J.	c #F7DF62",
"K.	c #F9D254",
"L.	c #FBCF5A",
"M.	c #FDE6B3",
"N.	c #BEAB48",
"O.	c #BBB576",
"P.	c #AEA231",
"Q.	c #F8F2C5",
"R.	c #F8ED8F",
"S.	c #FAF1A5",
"T.	c #FBF3B0",
"U.	c #FBF4B4",
"V.	c #FBF4B5",
"W.	c #C4BC71",
"X.	c #918A4F",
"Y.	c #E8DC77",
"Z.	c #F6E975",
"`.	c #F8DB5E",
" +	c #F9D456",
".+	c #FACD4F",
"++	c #FCCE61",
"@+	c #FAE4B4",
"#+	c #AE9F2F",
"$+	c #E1E1E0",
"%+	c #F0E9B2",
"&+	c #F9EE98",
"*+	c #F9EE93",
"=+	c #F9F09B",
"-+	c #FAF1A4",
";+	c #FBF2AC",
">+	c #FBF4B3",
",+	c #FCF5B9",
"'+	c #FCF6BD",
")+	c #FCF6BE",
"!+	c #FBF3AC",
"~+	c #B9B274",
"{+	c #040403",
"]+	c #000000",
"^+	c #393721",
"/+	c #F4E677",
"(+	c #F6E467",
"_+	c #F7DD60",
":+	c #FACF51",
"<+	c #FBC84A",
"[+	c #FDD070",
"}+	c #F2DAA1",
"|+	c #A79824",
"1+	c #F8F9F8",
"2+	c #D9D9D8",
"3+	c #C5BA5E",
"4+	c #FBF4BA",
"5+	c #FAF09F",
"6+	c #FBF3B1",
"7+	c #FCF5BA",
"8+	c #F2ECB9",
"9+	c #FDF7C6",
"0+	c #FDF8C8",
"a+	c #FCF6C1",
"b+	c #FAF2A9",
"c+	c #55523B",
"d+	c #C6BB65",
"e+	c #F6E872",
"f+	c #F7DE61",
"g+	c #F8D75A",
"h+	c #FAD052",
"i+	c #FBC94B",
"j+	c #FCC243",
"k+	c #FFDEA1",
"l+	c #C7B456",
"m+	c #BEBB83",
"n+	c #F5EEBB",
"o+	c #F7EB86",
"p+	c #F7EA7B",
"q+	c #F8EB85",
"r+	c #FAF1A2",
"s+	c #E8E2A8",
"t+	c #565441",
"u+	c #080806",
"v+	c #22211C",
"w+	c #9D9A82",
"x+	c #FDF9CE",
"y+	c #FDF7C7",
"z+	c #1C1B15",
"A+	c #8C854E",
"B+	c #F6E873",
"C+	c #F6E76A",
"D+	c #F8D85B",
"E+	c #FAD153",
"F+	c #FBCA4C",
"G+	c #FCC344",
"H+	c #FEC659",
"I+	c #F7DFAC",
"J+	c #A69620",
"K+	c #E0E1E0",
"L+	c #C5B95E",
"M+	c #FAF1B0",
"N+	c #F8EC86",
"O+	c #F9EF99",
"P+	c #FBF3AD",
"Q+	c #54523D",
"R+	c #52503F",
"S+	c #B1AD8E",
"T+	c #A5A38A",
"U+	c #605E52",
"V+	c #D0CDAD",
"W+	c #FDF8CA",
"X+	c #FCF6C0",
"Y+	c #FBF4B7",
"Z+	c #DFD89A",
"`+	c #524E31",
" @	c #F7E062",
".@	c #F9D153",
"+@	c #FEBC3D",
"@@	c #FED997",
"#@	c #C6B257",
"$@	c #E0E0DF",
"%@	c #8A8B87",
"&@	c #D9DAD9",
"*@	c #E7DB98",
"=@	c #F8EB8D",
"-@	c #EDE6A3",
";@	c #E1DBA3",
">@	c #FDF8C9",
",@	c #FEF9D2",
"'@	c #FEFAD6",
")@	c #F0EBC6",
"!@	c #FCF6BF",
"~@	c #FBF4B6",
"{@	c #E2DCA0",
"]@	c #565237",
"^@	c #FEC969",
"/@	c #E9CF8B",
"(@	c #B3A74F",
"_@	c #A4941C",
":@	c #F8EFC3",
"<@	c #F6E56E",
"[@	c #F7EA7A",
"}@	c #FCF5BC",
"|@	c #FDF7C4",
"1@	c #FDF8CC",
"2@	c #FCF7C3",
"3@	c #201F18",
"4@	c #918A58",
"5@	c #F8D85A",
"6@	c #FCC244",
"7@	c #FEBB3C",
"8@	c #FEBA41",
"9@	c #FAE3B6",
"0@	c #A4931B",
"a@	c #F9FAF8",
"b@	c #B8AA46",
"c@	c #FCEEB1",
"d@	c #F6E366",
"e@	c #F8ED8B",
"f@	c #F9EE94",
"g@	c #FAF09D",
"h@	c #FAF1A6",
"i@	c #FBF3AE",
"j@	c #FCF6BC",
"k@	c #595642",
"l@	c #CAC170",
"m@	c #F6E870",
"n@	c #F6E567",
"o@	c #F7DE60",
"p@	c #F8D759",
"q@	c #FACF52",
"r@	c #FCC143",
"s@	c #FEBA3B",
"t@	c #FEB738",
"u@	c #FFDC9E",
"v@	c #B9A742",
"w@	c #DFDFDE",
"x@	c #C8B95F",
"y@	c #FBE99E",
"z@	c #F7E164",
"A@	c #F2E57C",
"B@	c #F8EC87",
"C@	c #FBF3AF",
"D@	c #FCF5B8",
"E@	c #C1BB86",
"F@	c #060604",
"G@	c #413E2D",
"H@	c #F5E87B",
"I@	c #F8DC5E",
"J@	c #F9D557",
"K@	c #FACE50",
"L@	c #FBC749",
"M@	c #FDC041",
"N@	c #FEB93A",
"O@	c #FED489",
"P@	c #C9B55B",
"Q@	c #D5C573",
"R@	c #FAE591",
"S@	c #CFC369",
"T@	c #F9EF9A",
"U@	c #FAF2A7",
"V@	c #CEC78E",
"W@	c #A09B70",
"X@	c #ECE288",
"Y@	c #F8D95C",
"Z@	c #F9D355",
"`@	c #FBCC4E",
" #	c #FCC547",
".#	c #FDBE3F",
"+#	c #FECF7A",
"@#	c #D5BF6D",
"##	c #DFCE83",
"$#	c #FBE083",
"%#	c #D6CC70",
"&#	c #CAC068",
"*#	c #F7EA7F",
"=#	c #F7E976",
"-#	c #F6E466",
";#	c #FDBC3D",
">#	c #FECA6C",
",#	c #E0C87D",
"'#	c #DEDFDE",
")#	c #E0CD82",
"!#	c #FBDE81",
"~#	c #F7EA79",
"{#	c #7C7747",
"]#	c #F9F09C",
"^#	c #F9EE96",
"/#	c #F8DA5C",
"(#	c #F9D356",
"_#	c #FBC748",
":#	c #DEDEDD",
"<#	c #D5C371",
"[#	c #FCDE8A",
"}#	c #F9D457",
"|#	c #F8DA5D",
"1#	c #ACA569",
"2#	c #746E43",
"3#	c #F7EA7E",
"4#	c #F6E76B",
"5#	c #FBCA4B",
"6#	c #FCC345",
"7#	c #FDBD3E",
"8#	c #DADAD9",
"9#	c #C9B75D",
"0#	c #FDE095",
"a#	c #F6E164",
"b#	c #F7E97C",
"c#	c #595740",
"d#	c #A19A56",
"e#	c #F7E977",
"f#	c #FACC4E",
"g#	c #FCC648",
"h#	c #B9A843",
"i#	c #FEE3A6",
"j#	c #F7DC5E",
"k#	c #D8CD81",
"l#	c #33332F",
"m#	c #999153",
"n#	c #F6E876",
"o#	c #F7E97A",
"p#	c #FBC849",
"q#	c #DDDEDD",
"r#	c #FAE6B9",
"s#	c #FBCA52",
"t#	c #F9D154",
"u#	c #F9D659",
"v#	c #F7E16B",
"w#	c #928C65",
"x#	c #353535",
"y#	c #716C49",
"z#	c #EADC6C",
"A#	c #FBC94A",
"B#	c #D49B33",
"C#	c #F7B238",
"D#	c #DDDDDC",
"E#	c #E9D18D",
"F#	c #FDD171",
"G#	c #F4E07A",
"H#	c #7A755A",
"I#	c #3D3D3D",
"J#	c #585647",
"K#	c #B1A75A",
"L#	c #EEE068",
"M#	c #FCC445",
"N#	c #E0A93C",
"O#	c #8C6C31",
"P#	c #EBAE43",
"Q#	c #FEDD9A",
"R#	c #FBCB4D",
"S#	c #F8DF7B",
"T#	c #8A8263",
"U#	c #464646",
"V#	c #494949",
"W#	c #54534D",
"X#	c #948A56",
"Y#	c #D9C65F",
"Z#	c #E0AF42",
"`#	c #7C6434",
" $	c #665536",
".$	c #F4B84F",
"+$	c #FDC659",
"@$	c #FDC042",
"#$	c #FCC546",
"$$	c #FADB73",
"%$	c #9B916D",
"&$	c #4E4E4E",
"*$	c #515151",
"=$	c #535353",
"-$	c #696555",
";$	c #817855",
">$	c #998953",
",$	c #B09A52",
"'$	c #C9AB50",
")$	c #CEAC4D",
"!$	c #B29447",
"~$	c #947B42",
"{$	c #6F603D",
"]$	c #403C36",
"^$	c #A28858",
"/$	c #FBBD4E",
"($	c #FEC155",
"_$	c #DCDCDB",
":$	c #FFDC9F",
"<$	c #FDBE40",
"[$	c #FBD568",
"}$	c #DFC781",
"|$	c #958B6C",
"1$	c #5C5C5A",
"2$	c #5A5A5A",
"3$	c #595959",
"4$	c #585858",
"5$	c #565656",
"6$	c #525252",
"7$	c #4A4A4A",
"8$	c #454545",
"9$	c #404040",
"0$	c #7B6D52",
"a$	c #E9B963",
"b$	c #FEBA3F",
"c$	c #F2D9A0",
"d$	c #FEC968",
"e$	c #FEB839",
"f$	c #FDBF40",
"g$	c #FCC446",
"h$	c #FBC94C",
"i$	c #FCD165",
"j$	c #EDCE7E",
"k$	c #AC9D76",
"l$	c #8B826C",
"m$	c #7B7566",
"n$	c #69665F",
"o$	c #585857",
"p$	c #5D5B56",
"q$	c #85785F",
"r$	c #B0996B",
"s$	c #DEB66C",
"t$	c #FEBE4B",
"u$	c #FBE2B1",
"v$	c #FEC153",
"w$	c #FDC142",
"x$	c #FCC956",
"y$	c #FCCB61",
"z$	c #FDCD66",
"A$	c #FDCE6B",
"B$	c #FBCD71",
"C$	c #FDC966",
"D$	c #FEC252",
"E$	c #FEB93E",
"F$	c #DCDCDA",
"G$	c #DADBDA",
"H$	c #FDE2AE",
"I$	c #FEBC46",
"J$	c #FEB93B",
"K$	c #FEBB3D",
"L$	c #DBDBDA",
"M$	c #CCB75D",
"N$	c #DADBD9",
"O$	c #898A86",
"P$	c #BAA845",
"Q$	c #CAB65E",
"R$	c #D6C06F",
"S$	c #E0C87E",
"T$	c #D9DAD8",
"U$	c #DADADA",
"V$	c #EDEFEB",
"W$	c #EDEEEB",
"X$	c #ECEEEB",
"Y$	c #ECEEEA",
"Z$	c #ECEDEA",
"`$	c #EBEDEA",
" %	c #EBEDE9",
".%	c #EBECE9",
"+%	c #EAECE9",
"@%	c #FEFEFE",
"#%	c #C6C7C5",
"$%	c #ECECEC",
"%%	c #EBEBEB",
"&%	c #EDEDED",
"*%	c #EDEDEC",
"=%	c #EDEEED",
"-%	c #EEEEED",
";%	c #EEEEEE",
">%	c #EEEFEE",
",%	c #F0F0EE",
"'%	c #EFEFEF",
")%	c #EFF0EE",
"!%	c #EFF0EF",
"~%	c #F0F0F0",
"{%	c #F1F1F0",
"]%	c #F1F1F1",
"^%	c #F1F2F1",
"/%	c #F2F2F1",
"(%	c #F3F3F2",
"_%	c #F3F3F3",
":%	c #F3F4F2",
"<%	c #F4F4F3",
"[%	c #F4F4F4",
"}%	c #F5F5F4",
"|%	c #F5F5F5",
"1%	c #C7C8C6",
"2%	c #888A86",
". + + + + + + + + + + + + + + . . . . . . . . . . . . . . . . . . . . . . . . . . . . . @ . . . ",
"# $ % & & & & & * * = = = - - - ; ; ; ; ; ; ; ; > > > > > > > > , , , , , , ' ' ' ' ' ' ' ) ! + ",
"# ~ { ] ] ] ] ] ^ ^ ^ ^ ^ / / / ( ( ( ( ( ( ( ( _ _ _ _ _ : : : < < < < < < < < [ [ [ } } & | + ",
"# ~ & 1 1 1 1 1 1 1 1 1 1 1 1 1 1 1 1 1 1 1 1 1 1 1 1 1 1 1 1 1 1 1 1 1 1 1 1 1 1 1 1 1 1 2 | + ",
"3 4 5 1 1 1 1 1 1 1 1 1 1 1 1 1 1 1 1 1 1 1 1 1 1 1 1 1 1 1 1 1 1 1 1 1 1 1 1 1 1 1 1 1 1 6 7 + ",
"8 ~ 5 1 1 1 1 1 1 1 1 1 1 1 1 1 1 1 1 9 0 a b c c b a 0 9 1 1 1 1 1 1 1 1 1 1 1 1 1 1 1 1 6 7 + ",
"d ~ - 1 1 1 1 1 1 1 1 1 1 1 1 1 e a f g h i j k l m n o p q a e 1 1 1 1 1 1 1 1 1 1 1 1 1 ) r + ",
"d 4 5 1 1 1 1 1 1 1 1 1 1 1 9 s t u v w x y z A B C D E F G H I s 9 1 1 1 1 1 1 1 1 1 1 1 6 J + ",
"d 4 ; 1 1 1 1 1 1 1 1 1 1 K L M N O P Q R R S T U V W X Y Z `  ...+.K 1 1 1 1 1 1 1 1 1 1 ) J . ",
"d @.- 1 1 1 1 1 1 1 1 1 #.$.%.&.*.=.-.;.>.>.-.=.,.'.).!.~.{.].^./.(._.:.1 1 1 1 1 1 1 1 1 ) <.. ",
"d @.; 1 1 1 1 1 1 1 [.}.|.1.C 2.>.3.4.5.6.5.4.3.>.=.7.U !.8.9.0.a.b.c.d.e.[.1 1 1 1 1 1 1 ) <.. ",
"d f.g.1 1 1 1 1 1 1 }.h.i.j.=.k.l.A m.n.o.n.m.A l.p.Q q.).W r.s.t.u.v.w.x.e.1 1 1 1 1 1 1 y.z.. ",
"d f.g.1 1 1 1 1 1 :.A.B.Q =.C.5.m.D.E.F.G.F.E.D.m.6.p.=.S H.I.{.J.a.K.L.M.N.O.1 1 1 1 1 1 ) z.. ",
"d @.> 1 1 1 1 1 K P.Q.R.,.>.l.m.S.G.T.U.V.U.T.G.S.m.5.W.X.Y.Z.r.s.`. +.+++@+#+K 1 1 1 1 1 y.$+. ",
"d @.g.1 1 1 1 9 L %+&+T =.*+=+-+;+>+,+'+)+'+,+>+!+-+~+{+]+^+/+~.(+_+u.:+<+[+}+|+9 1 1 1 1 1+$+. ",
"d 2+- 1 1 1 1 s 3+4+H.7.;.l.5+E.6+7+8+9+0+9+a+,+6+b+c+]+]+]+d+e+{.f+g+h+i+j+k+l+m+1 1 1 1 y.$+. ",
"d 2+> 1 1 1 e I n+o+p+q+R.6.r+;+s+t+u+v+w+x+y+)+V.;+z+]+]+]+A+B+C+J.D+E+F+G+H+I+J+e 1 1 1 , K+. ",
"d 2+; 1 1 1 a L+M+e+).N+R.O+D.P+Q+R+S+T+U+V+W+X+Y+Z+]+]+]+]+`+W C+ @a..@F+G++@@@#@a 1 1 1 , $@%@",
"d &@> 1 1 1 q *@=@e+p+,.R.O+D.-@;@X+>@,@'@)@0+!@~@{@]+]+]+]+]@B+C+ @D+.@F+G++@^@/@(@1 1 1 , $@d ",
"d 2+g.1 1 9 _@:@<@I.[@R >.5.n.F.>+}@|@W+1@>@2@}@>+G.3@]+]+]+4@e+{.J.5@E+i+6@7@8@9@0@9 1 1 a@$@d ",
"d 2+g.1 1 0 b@c@d@X V '.e@f@g@h@i@~@j@a+2@a+}@~@i@h@k@]+]+]+l@m@n@o@p@q@<+r@s@t@u@v@0 1 1 > w@d ",
"%@2+g.1 1 a x@y@z@r.Z.A@B@k.6.n.E.C@U.D@,+D@U.C@E.o.E@F@]+G@H@X d@I@J@K@L@M@N@t@O@P@a 1 1 > w@d ",
". &@> 1 1 b Q@R@0.9.I.S@S e@*+T@o.U@G.i@C@i@G.U@o.A 4.V@W@X@B+C+].Y@Z@`@ #.#t@t@+#@#b 1 1 1+w@d ",
". 2+> 1 1 c ##$#I@s.r.%#&#q+-.*+O+m.r+-+S.S.r+m.O+f@;.N+*#=#X -#_+p@h+i+G+;#t@t@>#,#c 1 1 > '## ",
". &@> 1 1 c )#!#D+0.9.~#{#A@q+e@p.4.O+A ]#A O+^#p.-.N+*#V I.{.]./#(#.+_#M@N@t@t@>#,#c 1 1 > :## ",
". 2+1+1 1 b <#[#}#|#].{.1#2#3#7.2.-.R.p.3.p.R.;.=.R 3#V e+4#s.t.u.h+5#6#7#t@t@t@+#@#b 1 1 > :## ",
". 8#> 1 1 a 9#0#h+u.I@a#b#c#d#p+*#7.N+B@2.2.N+R T ).e#I.4#s._+5@K.f#g#M@s@t@t@t@O@P@a 1 1 g.:#d ",
". &@, 1 1 0 h#i#`@.@p@j#z@k#l#m#n#o#).3#3#3#).[@e#B+X {.s._+5@Z@.+p#j+;#t@t@t@t@u@v@0 1 1 g.q#d ",
". 8#a@1 1 9 0@r#s#f#t#u#`.v#w#x#y#z#B+W Z.W B+I.X C+(+].t.5@Z@K@A#6#.#B#C#t@t@8@9@0@9 1 1 g.D#d ",
". 8#, 1 1 1 (@E#F#L@f#E+J@a.G#H#I#J#K#L#4#4#{.9.d@]._+/#u.K..+A#M#N#O#P#t@t@t@^@/@(@1 1 1 > D#d ",
". 8#, 1 1 1 a #@Q#r@g#R#:+Z@u.S#T#U#V#W#X#Y#J.f+j#/#p@ +h+f#p#Z#`# $.$t@t@t@t@@@#@a 1 1 1 ; D#d ",
". 8#, 1 1 1 e J+I++$@$#$<+f#:+K.$$%$&$*$=$=$-$;$>$,$'$)$!$~${$]$^$/$t@t@t@t@($I+J+e 1 1 1 > _$d ",
". 8#y.1 1 1 1 m+l+:$s@<$6@ #<+R#.+[$}$|$1$2$3$4$5$6$&$7$8$9$0$a$b$t@t@t@t@t@:$l+m+1 1 1 1 - _$d ",
". 8#1+1 1 1 1 9 |+c$d$e$+@f$j+g$g#<+h$i$j$k$l$m$n$o$p$q$r$s$t$t@t@t@t@t@t@d$c$|+9 1 1 1 1 g._$d ",
". 8#y.1 1 1 1 1 K #+u$v$t@e$7@7#f$w$j+G+G+x$y$z$A$B$C$D$E$t@t@t@t@t@t@t@v$u$#+K 1 1 1 1 1 > F$d ",
". G$) 1 1 1 1 1 1 O.N.H$I$t@t@t@e$J$7@7@+@K$7@s@N@t@t@t@t@t@t@t@t@t@t@I$H$N.O.1 1 1 1 1 1 g.L$d ",
". 8#) 1 1 1 1 1 1 1 e.M$H$v$t@t@t@t@t@t@t@t@t@t@t@t@t@t@t@t@t@t@t@t@v$H$M$e.1 1 1 1 1 1 1 g.L$d ",
". G$) 1 1 1 1 1 1 1 [.e.N.u$d$t@t@t@t@t@t@t@t@t@t@t@t@t@t@t@t@t@t@d$u$N.e.[.1 1 1 1 1 1 1 ; N$d ",
"O$G$) 1 1 1 1 1 1 1 1 1 O.#+c$:$($t@t@t@t@t@t@t@t@t@t@t@t@t@t@($:$c$#+O.1 1 1 1 1 1 1 1 1 - 8#d ",
"+ 8#) 1 1 1 1 1 1 1 1 1 1 K |+l+I+@@^@8@t@t@t@t@t@t@t@t@8@^@@@I+l+|+K 1 1 1 1 1 1 1 1 1 1 ; 8#8 ",
"+ 8#6 1 1 1 1 1 1 1 1 1 1 1 9 m+J+#@/@9@u@O@+#>#>#+#O@u@9@/@#@J+m+9 1 1 1 1 1 1 1 1 1 1 1 5 8#3 ",
"+ G$) 1 1 1 1 1 1 1 1 1 1 1 1 1 e a (@0@P$Q$R$S$S$R$Q$P$0@(@a e 1 1 1 1 1 1 1 1 1 1 1 1 1 - T$3 ",
"+ G$6 1 1 1 1 1 1 1 1 1 1 1 1 1 1 1 1 9 0 a b c c b a 0 9 1 1 1 1 1 1 1 1 1 1 1 1 1 1 1 1 5 2+# ",
"+ U$6 1 1 1 1 1 1 1 1 1 1 1 1 1 1 1 1 1 1 1 1 1 1 1 1 1 1 1 1 1 1 1 1 1 1 1 1 1 1 1 1 1 1 5 2+# ",
"+ L$2 1 1 1 1 1 1 1 1 1 1 1 1 1 1 1 1 1 1 1 1 1 1 1 1 1 1 1 1 1 1 1 1 1 1 1 1 1 1 1 1 1 1 & @.# ",
"+ L$= V$V$V$V$V$W$W$W$W$W$X$X$X$Y$Y$Y$Y$Y$Y$Y$Y$Z$Z$Z$Z$Z$`$`$`$ % % % % % % % %.%.%.%+%+%@%4 # ",
"+ #%$%%%%%$%&%&%*%&%&%=%-%;%;%;%>%,%'%)%!%~%~%~%{%{%{%]%]%^%/%^%^%(%(%_%_%_%:%<%[%[%[%[%}%|%1%# ",
"+ . . . . . . . . . . . . . . . . . . . . . . . . . . . . . 2%O$O$+ + + + + + + + + + + + + + . "};
