/* XPM */
static char * mahjongg_xpm[] = {
"48 48 408 2",
"  	c None",
". 	c #C6BF84",
"+ 	c #C2BC82",
"@ 	c #C5BE83",
"# 	c #C7C085",
"$ 	c #C7C084",
"% 	c #C4BD80",
"& 	c #C0B77D",
"* 	c #BFB97F",
"= 	c #B4AE78",
"- 	c #CBC591",
"; 	c #C4BD83",
"> 	c #C1BA81",
", 	c #C4BD82",
"' 	c #BCB078",
") 	c #7C4631",
"! 	c #652F22",
"~ 	c #4E1915",
"{ 	c #5F271E",
"] 	c #A58B58",
"^ 	c #C7C185",
"/ 	c #C8C185",
"( 	c #C1BA80",
"_ 	c #A5A265",
": 	c #CECAA1",
"< 	c #CFC999",
"[ 	c #C8C18A",
"} 	c #C1BB81",
"| 	c #C4BB7F",
"1 	c #B8A76E",
"2 	c #8B5A3C",
"3 	c #4A1613",
"4 	c #360B0B",
"5 	c #561F1B",
"6 	c #773D30",
"7 	c #BEB377",
"8 	c #C1BB7F",
"9 	c #C2BC80",
"0 	c #B3AD72",
"a 	c #4F6131",
"b 	c #30451F",
"c 	c #C5BF8A",
"d 	c #DBD8B6",
"e 	c #D0CBA0",
"f 	c #BAAB78",
"g 	c #57201A",
"h 	c #471412",
"i 	c #6A3225",
"j 	c #3B0C0C",
"k 	c #DED4BF",
"l 	c #BCA77A",
"m 	c #C0B87E",
"n 	c #C2BB7F",
"o 	c #B3AF71",
"p 	c #BDB87A",
"q 	c #7D884B",
"r 	c #0D210A",
"s 	c #091C07",
"t 	c #162B0F",
"u 	c #C7C290",
"v 	c #E1DEC2",
"w 	c #C9C28A",
"x 	c #C7C28B",
"y 	c #BEAB81",
"z 	c #511D18",
"A 	c #A07A55",
"B 	c #906443",
"C 	c #350A0A",
"D 	c #81473C",
"E 	c #B6907F",
"F 	c #D6CDAD",
"G 	c #B6B072",
"H 	c #B0AE6F",
"I 	c #A9A96A",
"J 	c #415526",
"K 	c #091B06",
"L 	c #041504",
"M 	c #CCC99F",
"N 	c #E2DFC5",
"O 	c #D0CA99",
"P 	c #CEC69A",
"Q 	c #521D19",
"R 	c #703829",
"S 	c #DAD4B8",
"T 	c #D2CBA6",
"U 	c #683027",
"V 	c #845238",
"W 	c #7F4832",
"X 	c #461311",
"Y 	c #C9B598",
"Z 	c #C4BF85",
"` 	c #ADAA6A",
" .	c #A9A868",
"..	c #68753E",
"+.	c #0F240B",
"@.	c #071906",
"#.	c #031103",
"$.	c #D5D1B8",
"%.	c #D9D6B7",
"&.	c #D5D2B1",
"*.	c #C6BF83",
"=.	c #B3A470",
"-.	c #42100F",
";.	c #CFC1A3",
">.	c #D8D2AC",
",.	c #96654F",
"'.	c #340909",
").	c #632D22",
"!.	c #D8D3AC",
"~.	c #814D36",
"{.	c #3B0D0C",
"].	c #CEBCA6",
"^.	c #ACAB6E",
"/.	c #9E9E5E",
"(.	c #8E9556",
"_.	c #293F18",
":.	c #0F250C",
"<.	c #051605",
"[.	c #C9C498",
"}.	c #E9E7D4",
"|.	c #DAD5B1",
"1.	c #C3BC82",
"2.	c #B8AE75",
"3.	c #774130",
"4.	c #B7A372",
"5.	c #6C342B",
"6.	c #D3C8A6",
"7.	c #854E3A",
"8.	c #431110",
"9.	c #824A3A",
"0.	c #DED9B9",
"a.	c #A2A161",
"b.	c #979C5B",
"c.	c #586A35",
"d.	c #0E210A",
"e.	c #0A1D08",
"f.	c #031203",
"g.	c #031003",
"h.	c #E7E6D0",
"i.	c #DAD7B5",
"j.	c #C5BE85",
"k.	c #C2BB81",
"l.	c #C2B97E",
"m.	c #8D6242",
"n.	c #5B241C",
"o.	c #4B1814",
"p.	c #300909",
"q.	c #AA8963",
"r.	c #B99E7C",
"s.	c #916844",
"t.	c #C9C396",
"u.	c #BEB87C",
"v.	c #AFAD6C",
"w.	c #7C884B",
"x.	c #2D431C",
"y.	c #071805",
"z.	c #010A01",
"A.	c #D7D6C8",
"B.	c #E3E0C6",
"C.	c #C5B391",
"D.	c #B3A46C",
"E.	c #AC9560",
"F.	c #8C5C40",
"G.	c #3D0E0E",
"H.	c #874A46",
"I.	c #83493C",
"J.	c #320909",
"K.	c #390C0C",
"L.	c #CDBF9A",
"M.	c #AC945F",
"N.	c #B7AC73",
"O.	c #C3BC81",
"P.	c #C4BE82",
"Q.	c #A4A562",
"R.	c #47592A",
"S.	c #152C0F",
"T.	c #000200",
"U.	c #DFDBBE",
"V.	c #E0DDBD",
"W.	c #A9915E",
"X.	c #865439",
"Y.	c #551F18",
"Z.	c #411010",
"`.	c #986057",
" +	c #CCBE99",
".+	c #C7C086",
"++	c #461513",
"@+	c #82483D",
"#+	c #D7D2A8",
"$+	c #B8B377",
"%+	c #A8A765",
"&+	c #838B4C",
"*+	c #253F18",
"=+	c #0A1E09",
"-+	c #061706",
";+	c #020D02",
">+	c #000000",
",+	c #E1DDC0",
"'+	c #C5C089",
")+	c #926443",
"!+	c #60291F",
"~+	c #9A6F4F",
"{+	c #D4CDA8",
"]+	c #652D26",
"^+	c #835239",
"/+	c #A78B5B",
"(+	c #824E39",
"_+	c #A4835A",
":+	c #A67465",
"<+	c #D4CFA6",
"[+	c #BBB679",
"}+	c #41572A",
"|+	c #0C1F0A",
"1+	c #000400",
"2+	c #EEEDDF",
"3+	c #E7E5CC",
"4+	c #CAC58D",
"5+	c #BFB67C",
"6+	c #A28153",
"7+	c #BFB57B",
"8+	c #CBC691",
"9+	c #C0B57A",
"0+	c #642B21",
"a+	c #3F0F0E",
"b+	c #4E1B17",
"c+	c #DEDAC0",
"d+	c #8D6144",
"e+	c #A7A664",
"f+	c #BBB678",
"g+	c #919554",
"h+	c #2E451E",
"i+	c #0F230C",
"j+	c #061605",
"k+	c #020C02",
"l+	c #C4BE8C",
"m+	c #F2F1E9",
"n+	c #F1F1E6",
"o+	c #CCC791",
"p+	c #C0BA80",
"q+	c #4F1B16",
"r+	c #DAD5B6",
"s+	c #CBC696",
"t+	c #BCB47A",
"u+	c #703A29",
"v+	c #6C3D2B",
"w+	c #A8A565",
"x+	c #B3AF70",
"y+	c #43592A",
"z+	c #0A1B08",
"A+	c #BCB67F",
"B+	c #ECEBDD",
"C+	c #FAFAF7",
"D+	c #F2F1E7",
"E+	c #DBD9B5",
"F+	c #BCB57D",
"G+	c #BDB77E",
"H+	c #7A4431",
"I+	c #521D17",
"J+	c #C2B888",
"K+	c #CBC595",
"L+	c #C4BE83",
"M+	c #BDB479",
"N+	c #A1985D",
"O+	c #ABA968",
"P+	c #929758",
"Q+	c #132A0F",
"R+	c #071B06",
"S+	c #E3E2CD",
"T+	c #E9E9DC",
"U+	c #FCFCFB",
"V+	c #FBFBF8",
"W+	c #F3F2E8",
"X+	c #EBE9D6",
"Y+	c #D1CDA0",
"Z+	c #C7C287",
"`+	c #BFB77D",
" @	c #BDB37B",
".@	c #C3BD82",
"+@	c #C4BD84",
"@@	c #AAA868",
"#@	c #31481F",
"$@	c #0E240B",
"%@	c #051504",
"&@	c #C9C28C",
"*@	c #D7D3AC",
"=@	c #DFDDC2",
"-@	c #E0E2CD",
";@	c #D4D5B8",
">@	c #DBDAC0",
",@	c #EBEADA",
"'@	c #F1F0E4",
")@	c #F0EFE1",
"!@	c #E1DFC5",
"~@	c #D5D2A8",
"{@	c #B6B071",
"]@	c #B0AF6F",
"^@	c #7E874A",
"/@	c #1D3314",
"(@	c #C3BE81",
"_@	c #B7B577",
":@	c #A6A869",
"<@	c #B6B88C",
"[@	c #B3BA92",
"}@	c #BBC19A",
"|@	c #CFD0B0",
"1@	c #DFDFCA",
"2@	c #EBE9DC",
"3@	c #E9E8D6",
"4@	c #E4E2CA",
"5@	c #DBD9B7",
"6@	c #D1CD9E",
"7@	c #CBC58E",
"8@	c #AEAC6E",
"9@	c #ACAA6A",
"0@	c #2C431C",
"a@	c #13290E",
"b@	c #0B1F08",
"c@	c #061805",
"d@	c #B0AA75",
"e@	c #BEBA7F",
"f@	c #B8B478",
"g@	c #ADB075",
"h@	c #A6AD7D",
"i@	c #ADB48D",
"j@	c #B5BE97",
"k@	c #AFB688",
"l@	c #CBCFB5",
"m@	c #E2E2CF",
"n@	c #DEDDC6",
"o@	c #D6D2AB",
"p@	c #BAB578",
"q@	c #768044",
"r@	c #243B18",
"s@	c #0C2009",
"t@	c #091A06",
"u@	c #A8A26F",
"v@	c #C3BF81",
"w@	c #BAB67C",
"x@	c #ABAC6F",
"y@	c #A0A568",
"z@	c #9EA76F",
"A@	c #9DA873",
"B@	c #979D61",
"C@	c #979B5F",
"D@	c #344B23",
"E@	c #1B3011",
"F@	c #030F03",
"G@	c #8F8A5F",
"H@	c #BEB77E",
"I@	c #C2BD80",
"J@	c #B2AD71",
"K@	c #9E9E5D",
"L@	c #203916",
"M@	c #081A07",
"N@	c #0C1E09",
"O@	c #000700",
"P@	c #918C61",
"Q@	c #A8A668",
"R@	c #959958",
"S@	c #273D18",
"T@	c #0A1C07",
"U@	c #030E03",
"V@	c #353423",
"W@	c #948E62",
"X@	c #ABA672",
"Y@	c #BAB47C",
"Z@	c #BBB57C",
"`@	c #C6C084",
" #	c #ACA96A",
".#	c #929655",
"+#	c #354C21",
"@#	c #081806",
"##	c #000500",
"$#	c #14130D",
"%#	c #4E4B34",
"&#	c #7E7A54",
"*#	c #A09A6A",
"=#	c #AFA974",
"-#	c #C0B980",
";#	c #ACA969",
">#	c #8F9552",
",#	c #3B5126",
"'#	c #0D220B",
")#	c #071404",
"!#	c #0E0E09",
"~#	c #212015",
"{#	c #605C40",
"]#	c #9E9969",
"^#	c #A9A370",
"/#	c #BFBA7E",
"(#	c #909554",
"_#	c #3D5427",
":#	c #040402",
"<#	c #201E15",
"[#	c #48452F",
"}#	c #7D7853",
"|#	c #938F5E",
"1#	c #A8A269",
"2#	c #8E9555",
"3#	c #4E6233",
"4#	c #132A0D",
"5#	c #1C2711",
"6#	c #020202",
"7#	c #201E14",
"8#	c #535530",
"9#	c #535932",
"0#	c #222E15",
"a#	c #020200",
"                                                                                                ",
"                                                                                                ",
"                                                                                                ",
"                                                                                                ",
"                                                                                                ",
"                                                                                                ",
"                                                                                                ",
"                                                                                                ",
"                                                                                                ",
"                                                                                                ",
"                                            . + @ @ # $ # % & * =                               ",
"                                          - . ; > , ' ) ! ~ { ] ^ / / $ ( _                     ",
"                                        : < @ [ } | 1 2 3 4 5 6 7 . 8 9 0 a b                   ",
"                                      c d . e f g h { i j 3 k l m n o p q r s t                 ",
"                                    u v w x y z g A B 4 C D E F , G H I J K K L                 ",
"                                  M N O , P Q R S T U C V W X Y Z `  ...+.K @.#.                ",
"                                $.%.&.$ *.=.-.;.>.,.'.).!.~.{.].^./.(._.:.@.<.#.                ",
"                              [.}.|.*.@ 1.2.3.4.5.4 h 6.7.8.9.0.a.b.c.d.e.<.f.g.                ",
"                              h.i.j.k.. l.m.n.o.'.p.q.r.! s.t.u.v.w.x.K K y.g.z.                ",
"                          A.B.C.D.E.F.X G.H.I.~.J.K.L.M.N.O.P.Q. .R.S.<.@.<.g.T.                ",
"                          U.V.W.X.Y.K.Z.`. +.+h '.++@+#+@ @ $+%+&+*+=+-+@.f.;+>+                ",
"                        ,+V.'+, )+!+~+{+]+^+/+J.(+_+4 :+<+u.[+` }+S.|+K L g.1+>+                ",
"                      2+3+4+. 5+6+7+8+9+-.0+a+b+c+[ g G.d+e+f+g+h+i+K j+f.k+>+                  ",
"                  l+m+n+o+^ @ p+k.; , k.q+h X r+s+1.t+u+v+w+x+y+S.z+K L #.T.>+                  ",
"                A+B+C+D+E+.+1.F+G+k.1.; H+I+J+K+L+, k.M+N+O+P+Q+R+@.y.f.;+>+>+                  ",
"                G+S+T+C+U+V+W+X+Y+Z+# *.`+ @@ 1.. .@. +@` @@#@$@-+%@%@#.T.>+                    ",
"                @ &@*@=@-@;@>@,@'@)@!@~@Z+/ $ . @ 1., {@]@^@/@S.@.<.f.k+>+>+                    ",
"                G+/ # (@_@:@<@[@}@|@1@2@3@4@5@6@7@# $ 8@9@0@a@b@-+c@#.T.>+                      ",
"                d@/ ^ . # $ $ e@f@g@h@i@j@k@l@m@n@o@# p@q@r@s@e.<.t@k+>+>+                      ",
"                u@$ / $ # # / / / / / $ v@w@x@y@z@A@B@C@D@E@s @.@.F@T.>+                        ",
"                G@H@/ . # / / / / / / / / / $ *.1.I@J@K@L@:.M@%@N@O@>+>+                        ",
"                  P@G+. / / / / / / / / / / *.*.1.@ Q@R@S@s@T@<.U@>+>+                          ",
"                    V@W@X@Y@Z@1.@ `@/ / / / / . O.,  #.#+#s@-+@###>+                            ",
"                        >+$#%#&#*#=#-#. / `@/ / , , ;#>#,#'#<.)#T.>+                            ",
"                          >+>+>+>+!#~#{#]#^#( @ , /#9@(#_#:.N@T.>+                              ",
"                              >+>+>+>+>+>+:#<#[#}#|#1#2#3#4#5#>+>+                              ",
"                                      >+>+>+>+>+>+6#7#8#9#0#>+>+                                ",
"                                              >+>+>+>+>+a#>+>+                                  ",
"                                                                                                ",
"                                                                                                ",
"                                                                                                ",
"                                                                                                ",
"                                                                                                ",
"                                                                                                ",
"                                                                                                ",
"                                                                                                ",
"                                                                                                ",
"                                                                                                "};
