/* XPM */
static char * mplayer_xpm[] = {
"48 48 664 2",
"  	c None",
". 	c #2266EC",
"+ 	c #2165EA",
"@ 	c #1D63E7",
"# 	c #1D62E4",
"$ 	c #1B61E1",
"% 	c #1A5FDF",
"& 	c #1C5FDC",
"* 	c #1B5DD9",
"= 	c #1D5DD7",
"- 	c #1E5CD5",
"; 	c #235DD5",
"> 	c #266AF4",
", 	c #2169F3",
"' 	c #1C67F1",
") 	c #1B67F0",
"! 	c #1B66EF",
"~ 	c #1B65ED",
"{ 	c #1B64EB",
"] 	c #1A64E9",
"^ 	c #1A62E6",
"/ 	c #1A61E3",
"( 	c #1960E0",
"_ 	c #195EDC",
": 	c #195DD8",
"< 	c #185BD5",
"[ 	c #1859D1",
"} 	c #1758CE",
"| 	c #1B58CD",
"1 	c #2159CD",
"2 	c #246AF6",
"3 	c #1D69F5",
"4 	c #1C69F5",
"5 	c #1C68F4",
"6 	c #1C68F3",
"7 	c #1C67F2",
"8 	c #1A63E7",
"9 	c #1A61E4",
"0 	c #185BD4",
"a 	c #1758CD",
"b 	c #1756C9",
"c 	c #1754C5",
"d 	c #1C55C5",
"e 	c #256BF7",
"f 	c #1D6AF6",
"g 	c #1C69F6",
"h 	c #1C6AF7",
"i 	c #1B65EC",
"j 	c #1A63E8",
"k 	c #1A62E4",
"l 	c #195CD8",
"m 	c #1859D0",
"n 	c #1757CC",
"o 	c #1755C7",
"p 	c #1653C3",
"q 	c #1752BF",
"r 	c #1E54C1",
"s 	c #1F6AF7",
"t 	c #1C6AF8",
"u 	c #1C6AF9",
"v 	c #195EDB",
"w 	c #185CD7",
"x 	c #185AD3",
"y 	c #1858CF",
"z 	c #1756CA",
"A 	c #1652C1",
"B 	c #1551BC",
"C 	c #1850BA",
"D 	c #2B6DF8",
"E 	c #1D6AF7",
"F 	c #1C6BFA",
"G 	c #195FDE",
"H 	c #195DDA",
"I 	c #1755C8",
"J 	c #1651BE",
"K 	c #1550BA",
"L 	c #154EB6",
"M 	c #1F52BB",
"N 	c #286CF8",
"O 	c #1D6BFB",
"P 	c #1D6CFC",
"Q 	c #1D6CFD",
"R 	c #1A60E1",
"S 	c #195EDD",
"T 	c #1654C5",
"U 	c #1550BC",
"V 	c #154EB7",
"W 	c #144CB2",
"X 	c #2352B9",
"Y 	c #276CF8",
"Z 	c #1F6DFC",
"` 	c #1D6DFE",
" .	c #1E6DFE",
"..	c #1B66EE",
"+.	c #195FDF",
"@.	c #1653C2",
"#.	c #1551BD",
"$.	c #154FB8",
"%.	c #144DB3",
"&.	c #144AAC",
"*.	c #214FB3",
"=.	c #18428C",
"-.	c #193B79",
";.	c #2163DA",
">.	c #2571FD",
",.	c #2471FF",
"'.	c #216FFF",
").	c #1F6EFF",
"!.	c #1B65EB",
"~.	c #185AD2",
"{.	c #1654C4",
"].	c #1652BF",
"^.	c #154DB5",
"/.	c #144BAF",
"(.	c #1347A6",
"_.	c #1E4BAC",
":.	c #1E6EFF",
"<.	c #2170FF",
"[.	c #1D4488",
"}.	c #5072A6",
"|.	c #3B5379",
"1.	c #26467E",
"2.	c #326CD7",
"3.	c #327AFD",
"4.	c #2874FF",
"5.	c #206FFF",
"6.	c #1C68F2",
"7.	c #1A63E9",
"8.	c #195DD9",
"9.	c #185AD4",
"0.	c #1652C0",
"a.	c #1550BB",
"b.	c #144CB0",
"c.	c #1348A8",
"d.	c #1345A0",
"e.	c #206AF6",
"f.	c #2270FF",
"g.	c #2F79FF",
"h.	c #264988",
"i.	c #6087C1",
"j.	c #6F99D8",
"k.	c #6A8FC8",
"l.	c #455C7F",
"m.	c #2A4778",
"n.	c #336CD3",
"o.	c #2C76FC",
"p.	c #1B66F0",
"q.	c #1B64EA",
"r.	c #1A62E5",
"s.	c #1757CB",
"t.	c #1755C6",
"u.	c #1348A9",
"v.	c #1245A1",
"w.	c #14439C",
"x.	c #266BF6",
"y.	c #2C77FF",
"z.	c #3F83FF",
"A.	c #2E4F89",
"B.	c #648AC3",
"C.	c #77A1E0",
"D.	c #7DA5E2",
"E.	c #7EA5DE",
"F.	c #779ACC",
"G.	c #4A5E7C",
"H.	c #284371",
"I.	c #2561CE",
"J.	c #1B67F1",
"K.	c #185BD6",
"L.	c #144CB3",
"M.	c #1349AB",
"N.	c #1245A2",
"O.	c #114199",
"P.	c #19449C",
"Q.	c #387EFF",
"R.	c #4D8CFF",
"S.	c #345286",
"T.	c #678CC4",
"U.	c #7CA4E1",
"V.	c #82A9E4",
"W.	c #87AEE5",
"X.	c #8BB1E7",
"Y.	c #8CB0E2",
"Z.	c #82A1CD",
"`.	c #50637D",
" +	c #284575",
".+	c #1E5CCB",
"++	c #1D6BFA",
"@+	c #1A60E2",
"#+	c #1349AC",
"$+	c #1346A3",
"%+	c #12429A",
"&+	c #113F92",
"*+	c #246AF4",
"=+	c #2974FF",
"-+	c #4083FF",
";+	c #5692FF",
">+	c #36507E",
",+	c #678ABE",
"'+	c #80A8E2",
")+	c #87ADE5",
"!+	c #8CB1E7",
"~+	c #91B5E9",
"{+	c #96B9EA",
"]+	c #99BBEA",
"^+	c #99B9E6",
"/+	c #90AED6",
"(+	c #617591",
"_+	c #2C4775",
":+	c #1D59C4",
"<+	c #1A61E2",
"[+	c #1756C8",
"}+	c #154FB9",
"|+	c #144DB4",
"1+	c #113E91",
"2+	c #174093",
"3+	c #1E68F3",
"4+	c #2B76FF",
"5+	c #4385FF",
"6+	c #5B95FF",
"7+	c #38517D",
"8+	c #698BBD",
"9+	c #84ABE3",
"0+	c #8BB0E7",
"a+	c #9BBDEC",
"b+	c #A0C1ED",
"c+	c #A4C3EE",
"d+	c #A6C5EF",
"e+	c #A4C3EB",
"f+	c #98B5DB",
"g+	c #647791",
"h+	c #2A436E",
"i+	c #1C55BA",
"j+	c #1C68F1",
"k+	c #113C8B",
"l+	c #2469F1",
"m+	c #2A75FF",
"n+	c #4285FF",
"o+	c #5994FF",
"p+	c #37517E",
"q+	c #6B8CBD",
"r+	c #87ADE4",
"s+	c #8EB3E8",
"t+	c #95B8EA",
"u+	c #9BBCEB",
"v+	c #A1C1ED",
"w+	c #AAC9F1",
"x+	c #ADCBF2",
"y+	c #AFCCF2",
"z+	c #AECBF2",
"A+	c #A8C6EC",
"B+	c #98B4D9",
"C+	c #60738D",
"D+	c #284068",
"E+	c #1C51B3",
"F+	c #1B65EA",
"G+	c #103A89",
"H+	c #163D8D",
"I+	c #2167EF",
"J+	c #2673FF",
"K+	c #3C81FF",
"L+	c #528FFF",
"M+	c #344F7E",
"N+	c #6D8EBD",
"O+	c #89AFE5",
"P+	c #98BAEA",
"Q+	c #9FC0ED",
"R+	c #A5C4EF",
"S+	c #ABC9F1",
"T+	c #B0CDF2",
"U+	c #B4D0F3",
"V+	c #B5D1F4",
"W+	c #B2CFF3",
"X+	c #ADCAF1",
"Y+	c #92B0D8",
"Z+	c #667C9B",
"`+	c #2F4871",
" @	c #1A4CA7",
".@	c #1A60DF",
"+@	c #1449AC",
"@@	c #0F3A88",
"#@	c #143B88",
"$@	c #1C66ED",
"%@	c #327AFF",
"&@	c #4687FF",
"*@	c #2F4B7E",
"=@	c #6F8FBE",
"-@	c #8BB1E6",
";@	c #93B7E9",
">@	c #9ABCEB",
",@	c #A1C2EE",
"'@	c #A8C7F0",
")@	c #BAD5F5",
"!@	c #BDD7F7",
"~@	c #BBD6F6",
"{@	c #B7D3F4",
"]@	c #B1CEF3",
"^@	c #A4C4EE",
"/@	c #9BBCE9",
"(@	c #8BACD9",
"_@	c #60799C",
":@	c #2B4269",
"<@	c #18479B",
"[@	c #195AD2",
"}@	c #114299",
"|@	c #103E90",
"1@	c #0F3780",
"2@	c #1C6AFA",
"3@	c #2672FF",
"4@	c #377DFF",
"5@	c #29477E",
"6@	c #8CB1E6",
"7@	c #94B8EA",
"8@	c #A3C3EE",
"9@	c #AAC8F1",
"0@	c #B8D3F5",
"a@	c #BFD8F7",
"b@	c #C3DCF8",
"c@	c #C1DAF8",
"d@	c #97BAEA",
"e@	c #8EB2E5",
"f@	c #7FA2D6",
"g@	c #556F96",
"h@	c #253B5E",
"i@	c #16418F",
"j@	c #1856C7",
"k@	c #1349AA",
"l@	c #114198",
"m@	c #103D90",
"n@	c #0F3A87",
"o@	c #0E367E",
"p@	c #2265E8",
"q@	c #22437E",
"r@	c #9CBDEC",
"s@	c #B8D4F5",
"t@	c #BFD9F8",
"u@	c #C4DDF8",
"v@	c #C2DBF8",
"w@	c #B4D1F3",
"x@	c #90B5E9",
"y@	c #89AFE6",
"z@	c #80A7E0",
"A@	c #7197D1",
"B@	c #4C6893",
"C@	c #263E64",
"D@	c #153D87",
"E@	c #1751BC",
"F@	c #144CB1",
"G@	c #1244A0",
"H@	c #114197",
"I@	c #103D8E",
"J@	c #0F3985",
"K@	c #0E357D",
"L@	c #153882",
"M@	c #2264E6",
"N@	c #1C3F7E",
"O@	c #94B7E9",
"P@	c #A2C2EE",
"Q@	c #A9C8F0",
"R@	c #AFCDF2",
"S@	c #B6D2F4",
"T@	c #BED8F7",
"U@	c #ABCAF1",
"V@	c #9EBFEC",
"W@	c #8FB4E8",
"X@	c #88AEE6",
"Y@	c #81A9E4",
"Z@	c #7AA3E2",
"`@	c #719CDC",
" #	c #668FCF",
".#	c #4B6DA1",
"+#	c #243B62",
"@#	c #13387C",
"##	c #154CB0",
"$#	c #1347A7",
"%#	c #12449E",
"&#	c #114095",
"*#	c #103C8D",
"=#	c #0F3884",
"-#	c #0E357B",
";#	c #12367C",
">#	c #2263E4",
",#	c #1A3E7D",
"'#	c #6E8EBD",
")#	c #8AAFE6",
"!#	c #92B6E9",
"~#	c #98BBEB",
"{#	c #ACCAF1",
"]#	c #B3D0F3",
"^#	c #AECCF2",
"/#	c #80A8E3",
"(#	c #79A2E1",
"_#	c #729DDF",
":#	c #6C98DD",
"<#	c #6592DA",
"[#	c #5B87CD",
"}#	c #42669D",
"|#	c #1E355A",
"1#	c #10326E",
"2#	c #13459F",
"3#	c #12439C",
"4#	c #113F93",
"5#	c #103B8B",
"6#	c #0F3882",
"7#	c #0E3479",
"8#	c #14377E",
"9#	c #2062E1",
"0#	c #1D6CFB",
"a#	c #1B3D7A",
"b#	c #6C8DBD",
"c#	c #88AEE5",
"d#	c #95B9EA",
"e#	c #A7C6EF",
"f#	c #9EBFED",
"g#	c #98BBEA",
"h#	c #85ACE4",
"i#	c #7EA7E3",
"j#	c #77A1E1",
"k#	c #709CDE",
"l#	c #6B98DD",
"m#	c #6593DB",
"n#	c #5F8FD9",
"o#	c #5989D5",
"p#	c #4F7EC9",
"q#	c #375C97",
"r#	c #183566",
"s#	c #124095",
"t#	c #103E91",
"u#	c #0E3377",
"v#	c #103376",
"w#	c #1F60DF",
"x#	c #1C6BF9",
"y#	c #1B3C78",
"z#	c #85ABE3",
"A#	c #9DBEEC",
"B#	c #A5C5EF",
"C#	c #A9C7F0",
"D#	c #7BA4E2",
"E#	c #749FE0",
"F#	c #6E9ADD",
"G#	c #6996DD",
"H#	c #6392DB",
"I#	c #5E8ED9",
"J#	c #5788D5",
"K#	c #3F71C4",
"L#	c #2052AB",
"M#	c #12429B",
"N#	c #114096",
"O#	c #103D8F",
"P#	c #0F3986",
"Q#	c #0D3275",
"R#	c #0F3173",
"S#	c #2260DD",
"T#	c #195FDD",
"U#	c #1A3C77",
"V#	c #6789BC",
"W#	c #81A8E3",
"X#	c #8DB2E8",
"Y#	c #99BBEB",
"Z#	c #8AB0E7",
"`#	c #84ABE4",
" $	c #78A2E1",
".$	c #6C99DD",
"+$	c #6795DD",
"@$	c #5F8ED7",
"#$	c #4374C5",
"$$	c #2157B6",
"%$	c #144AAD",
"&$	c #1347A5",
"*$	c #12439D",
"=$	c #113F94",
"-$	c #103C8C",
";$	c #0F3883",
">$	c #0D3172",
",$	c #123376",
"'$	c #1E5ED9",
")$	c #1A3B76",
"!$	c #6486BB",
"~$	c #83AAE4",
"{$	c #91B6E9",
"]$	c #85ACE5",
"^$	c #709CDF",
"/$	c #6693D8",
"($	c #4677CA",
"_$	c #2159BC",
":$	c #0F3781",
"<$	c #0E3378",
"[$	c #0D3070",
"}$	c #113171",
"|$	c #1F5DD7",
"1$	c #193A75",
"2$	c #6083BA",
"3$	c #78A2E0",
"4$	c #93B6E9",
"5$	c #90B4E8",
"6$	c #8DB2E7",
"7$	c #76A1E2",
"8$	c #6C97D9",
"9$	c #4778CA",
"0$	c #215AC2",
"a$	c #144AAE",
"b$	c #0E367D",
"c$	c #0C2E6D",
"d$	c #123272",
"e$	c #193A74",
"f$	c #5D81B8",
"g$	c #739EDF",
"h$	c #7DA6E3",
"i$	c #86ADE5",
"j$	c #7FA7E3",
"k$	c #7CA5E3",
"l$	c #4779CD",
"m$	c #215CC7",
"n$	c #103B8A",
"o$	c #0E347A",
"p$	c #0C2D69",
"q$	c #183972",
"r$	c #597EB7",
"s$	c #6F9ADC",
"t$	c #7FA8E3",
"u$	c #7DA7E4",
"v$	c #709ADA",
"w$	c #4578CE",
"x$	c #1F5CCB",
"y$	c #12439E",
"z$	c #0D3276",
"A$	c #0D2F6E",
"B$	c #0C2C66",
"C$	c #1B59CF",
"D$	c #173771",
"E$	c #557BB7",
"F$	c #6A97DC",
"G$	c #719DDF",
"H$	c #759FE0",
"I$	c #7CA5E2",
"J$	c #7EA6E3",
"K$	c #6E97D8",
"L$	c #4376D0",
"M$	c #1E5DCF",
"N$	c #0C2D6A",
"O$	c #0D2C67",
"P$	c #205ACF",
"Q$	c #1859CF",
"R$	c #1960E1",
"S$	c #16366E",
"T$	c #5279B5",
"U$	c #6997DD",
"V$	c #6F9BDE",
"W$	c #75A0E0",
"X$	c #76A0E1",
"Y$	c #76A1E1",
"Z$	c #77A2E2",
"`$	c #6994D8",
" %	c #3E73D0",
".%	c #1C5CD1",
"+%	c #154EB5",
"@%	c #0F2D69",
"#%	c #16356C",
"$%	c #4E76B4",
"%%	c #6190D8",
"&%	c #6493DB",
"*%	c #6795DC",
"=%	c #6A97DD",
"-%	c #6D9ADD",
";%	c #608DD4",
">%	c #386FCF",
",%	c #1B5CD2",
"'%	c #154FBA",
")%	c #1346A5",
"!%	c #114097",
"~%	c #0D3071",
"{%	c #0B2A63",
"]%	c #1D57C8",
"^%	c #1D3F7A",
"/%	c #4D78BB",
"(%	c #5C8CD7",
"_%	c #6291DA",
":%	c #6694DC",
"<%	c #6895DD",
"[%	c #5988D4",
"}%	c #336CCE",
"|%	c #1A5BD2",
"1%	c #12449F",
"2%	c #0E357C",
"3%	c #0D3274",
"4%	c #0B2B65",
"5%	c #102D68",
"6%	c #1D3F7B",
"7%	c #4B79C0",
"8%	c #5788D6",
"9%	c #5A8BD7",
"0%	c #5C8DD8",
"a%	c #5E8ED8",
"b%	c #4F80D0",
"c%	c #2D67CC",
"d%	c #195AD1",
"e%	c #0E3376",
"f%	c #0D306F",
"g%	c #0C2C68",
"h%	c #0B2961",
"i%	c #1D55C4",
"j%	c #1757CD",
"k%	c #1C3E79",
"l%	c #4775BF",
"m%	c #5285D6",
"n%	c #5486D5",
"o%	c #467ACE",
"p%	c #2863CA",
"q%	c #1859CE",
"r%	c #0E367F",
"s%	c #0E2C64",
"t%	c #1752BE",
"u%	c #1651BF",
"v%	c #1754C6",
"w%	c #4171BB",
"x%	c #3B70C8",
"y%	c #235EC6",
"z%	c #144BB0",
"A%	c #0D3173",
"B%	c #0C2E6C",
"C%	c #0C2A61",
"D%	c #1C4CA0",
"E%	c #1D54B6",
"F%	c #1346A4",
"G%	c #0B295F",
"H%	c #1E52BD",
"I%	c #113E92",
"J%	c #0C2F6D",
"K%	c #0C2C67",
"L%	c #0B2960",
"M%	c #112D67",
"N%	c #1D51BA",
"O%	c #1348A7",
"P%	c #0F3680",
"Q%	c #0D3174",
"R%	c #0E2B63",
"S%	c #1B4EB4",
"T%	c #102C65",
"U%	c #1B4DB0",
"V%	c #144BAE",
"W%	c #152F6B",
"X%	c #1447A4",
"Y%	c #1245A0",
"Z%	c #103C8B",
"`%	c #0C2E6B",
" &	c #0C2A62",
".&	c #1B3472",
"+&	c #1746A2",
"@&	c #0F367F",
"#&	c #0D2F6D",
"$&	c #122E69",
"%&	c #16439B",
"&&	c #0D2F6F",
"*&	c #164094",
"=&	c #123D8E",
"-&	c #103B89",
";&	c #0F3984",
">&	c #0D2D69",
",&	c #102F6C",
"'&	c #163E8D",
")&	c #103881",
"!&	c #0F367E",
"~&	c #0E3070",
"{&	c #103171",
"]&	c #133273",
"                                                                                                ",
"                                      . + @ # $ % & * = - ;                                     ",
"                              > , ' ) ! ~ { ] ^ / ( _ : < [ } | 1                               ",
"                          2 3 4 4 5 5 6 7 ) ~ { 8 9 ( _ : 0 [ a b c d                           ",
"                      e f g h h h g g 4 4 5 7 ! i j k ( _ l 0 m n o p q r                       ",
"                    s h t t u u u t t h g 4 5 6 ) i j 9 ( v w x y z c A B C                     ",
"                D E t u F F F F F F u u t h g 4 6 ) i 8 / G H < [ n I p J K L M                 ",
"              N t u F O O P P Q P P O O F u h g 4 6 ! { ^ R S l x y z T A U V W X               ",
"            Y t u F O Q Z `  . . .` Q P O F u h g 5 7 ..] 9 +.H < [ n o @.#.$.%.&.*.            ",
"            h u F P Q ` =.-.;.>.,.'.).` Q P F u h g 5 ) !.^ R _ w ~.} b {.].K ^./.(._.          ",
"          E t F P Q :.<.[.}.|.1.2.3.4.5. .Q O F t g 4 6...7./ G 8.9.y z T 0.a.L b.c.d.          ",
"        e.t u O Q  .f.g.h.i.j.k.l.m.n.o.5.` P O u h 4 5 p.q.r.( H < m s.t.A U V W u.v.w.        ",
"      x.g t F P ` 5.y.z.A.B.C.D.E.F.G.H.I.Z Q P F t g 5 J.i ^ R v K.[ n o @.#.$.L.M.N.O.P.      ",
"      3 h u O Q  .,.Q.R.S.T.U.V.W.X.Y.Z.`. +.+++F t h 4 7 ~ 8 @+_ w ~.a I p J $.%.#+$+%+&+      ",
"    *+4 h u O Q :.=+-+;+>+,+'+)+!+~+{+]+^+/+(+_+:+g h 4 6.~ j <+S w ~.a [+p J }+|+&.$+%+1+2+    ",
"    3+4 h u O Q :.4+5+6+7+8+9+0+~+{+a+b+c+d+e+f+g+h+i+j+6...j / S w ~.} [+p J }+|+&.$+%+1+k+    ",
"  l+6 4 h u O Q :.m+n+o+p+q+r+s+t+u+v+d+w+x+y+z+A+B+C+D+E+F+j / S w ~.} [+p J }+|+&.$+%+1+G+H+  ",
"  I+6 4 h u O Q :.J+K+L+M+N+O+~+P+Q+R+S+T+U+V+V+W+X+e+Y+Z+`+ @.@_ w ~.a I p J }+%.+@$+%+1+@@#@  ",
"  $@7 4 h u F P ` <.%@&@*@=@-@;@>@,@'@y+V+)@!@~@{@]@S+^@/@(@_@:@<@[@[ a I @.#.$.%.M.N.}@|@@@1@  ",
"  i J.5 g t 2@O Q :.3@4@5@=@6@7@a+8@9@]@0@a@b@c@~@U+x+d+Q+d@e@f@g@h@i@j@t.@.#.V W k@v.l@m@n@o@  ",
"p@q.! 6 4 h u F P ` ).J+q@=@6@7@r@8@w+]@s@t@u@v@~@w@x+d+Q+d@x@y@z@A@B@C@D@E@a.V F@u.G@H@I@J@K@L@",
"M@j ~ 7 5 g t u O P ` :.N@=@-@O@u+P@Q@R@S@~@T@!@s@W+U@R+V@{+W@X@Y@Z@`@ #.#+#@###/.$#%#&#*#=#-#;#",
">#^ { ) 6 4 h t 2@O P Q ,#'#)#!#~#Q+d+{#]@V+{@S@]#^#'@P@a+t+s+)+/#(#_#:#<#[#}#|#1#2#3#4#5#6#7#8#",
"9#/ j ~ ' 5 g h t u ++0#a#b#c#W@d#r@P@e#U@y+T+T+x+Q@^@f#g#!#X.h#i#j#k#l#m#n#o#p#q#r#s#t#G+1@u#v#",
"w#R r.q...7 5 g h t u x#y#8+z#!+!#d@A#,@B#'@Q@C#e#8@Q+>@7@s+X@V.D#E#F#G#H#I#J#K#L#M#N#O#P#o@Q#R#",
"S#T#<+^ q.! 7 5 4 g h t U#V#W#X@X#!#d@a+Q+v+P@,@b+A#Y#7@W@Z#`#i# $_#.$+$@$#$$$%$&$*$=$-$;$-#>$,$",
"'$H +./ 8 { ..7 5 4 4 g )$!$D.~$X@X#{$t+P+>@>@>@Y#{+;@W@Z#]$/#Z@E#^$/$($_$L F@k@N.}@t#G+:$<$[$}$",
"|$w v +./ ^ q.~ ) 6.5 5 1$2$3$i#~$W.X.s+~+4$;@;@!#5$6$y@]$/#D#7$8$9$0$#.}+|+a$(.%#N#I@J@b$Q#c$d$",
"  x w v +.<+r.j { ..) ' e$f$g$(#h$Y@h#X@Z#X.!+!+0+y@i$~$j$k$j.l$m$p ].K L F@k@N.%+&+n$6#o$>$p$  ",
"  m x w H G R 9 ^ 7.{ i q$r$s$g$j#D#i#Y@~$`#]$]$`#V.t$u$v$w$x$I {.0.U $.%.%$&$y$N#I@P#o@z$A$B$  ",
"  C$m x K.8._ +.R / ^ 8 D$E$F$F#G$H$ $Z@I$h$J$h$k$k$K$L$M$n [+{.A #.}+^./.c.v.O.1+n$6#o$>$N$O$  ",
"  P$n Q$~.< w H _ G R$<+S$T$m#U$.$V$G$g$W$X$Y$Z$`$ %.%y n I T A #.}++%F@k@$+3#=$*#J@o@z$A$B$@%  ",
"    [+s.} [ x < w 8.v _ #%$%%%&%*%=%:#-%F#k#;%>%,%m } s.o {.A #.'%L W +@)%y$!%O#@@:$7#~%N${%    ",
"    ]%o z n y [ x 0 K.w ^%/%(%n#_%&%:%<%[%}%|%[ } n b t.p 0.#.'%L W &.(.1%l@t#n$;$2%3%c$4%5%    ",
"      p T I z n } m [ ~.6%7%8%9%0%a%b%c%d%Q$} n z o T @.].U }+L W &.(.G@}@4#-$J@o@e%f%g%h%      ",
"      i%A p T o b s.j%a k%l%m%n%o%p%q%a n s.b o T p 0.J a.$.^.F@&.(.G@%+4#*#P#r%<$~%N${%s%      ",
"        t%u%A @.{.v%o [+U#w%x%y%z z b I o v%{.@.0.J U }+L |+z%M.&$1%%+4#*#n@1@7#A%B%4%C%        ",
"          K U J ].A @.p D%E%T T T {.{.p @.A ].#.a.}+V ^.W a$u.F%%#O.4#*#n@1@o$A%c$B$G%          ",
"          H%V }+K U #.J J J 0.0.0.].u%J #.U K }+V ^.W /.M.(.v.3#H@I%-$P#1@o$3%J%K%L%M%          ",
"            N%|++%V $.}+'%K K K K K }+}+$.V ^.|+W /.M.O%$+1%%+&#|@5#J@P%o$Q%J%K%h%R%            ",
"              S%z%F@%.|+^.^.+%+%+%^.|+|+L.F@/.%$k@(.$+1%M#H@&+I@G+=#o@7#A%J%K%h%T%              ",
"                U%u.M.%$a$V%/././.V%a$&.M.u.$#F%v.%#M#H@4#O#5#P#:$2%u#>$B%B$h%W%                ",
"                    X%F%)%(.(.(.(.(.)%F%N.Y%%#3#O.N#4#O#Z%n@;$r%o$Q#[$`%4% &.&                  ",
"                      +&3#*$*$*$*$*$3#M#}@H@&#4#|@*#n$n@;$@&-#u#>$#&p${%$&                      ",
"                          %&=$=$=$=$4#I%|@O#*#n$@@J@6#r%-#u#A%&&`%B$5%                          ",
"                              *&=&5#n$-&@@P#;&6#@&K@o$e%A%f%`%>&,&                              ",
"                                    '&#@)&!&-#7#u#3%>$~&{&]&                                    ",
"                                                                                                "};
