/* XPM */
static char * nautilus_xpm[] = {
"48 35 834 2",
"  	c None",
". 	c #E0A78A",
"+ 	c #E2A988",
"@ 	c #E7AB7A",
"# 	c #E8A75E",
"$ 	c #EDAC63",
"% 	c #EEAC57",
"& 	c #F0B058",
"* 	c #F1B160",
"= 	c #F1B569",
"- 	c #F1B973",
"; 	c #EAB574",
"> 	c #E8B282",
", 	c #E3AD88",
"' 	c #E1A88A",
") 	c #E0A689",
"! 	c #E2A378",
"~ 	c #E59A55",
"{ 	c #EA9A43",
"] 	c #EC9B3D",
"^ 	c #EDA24A",
"/ 	c #EEA74F",
"( 	c #EFAC52",
"_ 	c #EFB457",
": 	c #F2BB5E",
"< 	c #F5BF64",
"[ 	c #F4C366",
"} 	c #F4C96F",
"| 	c #F7CC7A",
"1 	c #F4C45F",
"2 	c #EAA558",
"3 	c #E7AE86",
"4 	c #E2AC8C",
"5 	c #E0A789",
"6 	c #E19E74",
"7 	c #E5914E",
"8 	c #E58E39",
"9 	c #E8933E",
"0 	c #EA9844",
"a 	c #EA9D4B",
"b 	c #ECA14E",
"c 	c #EFA652",
"d 	c #EFAB56",
"e 	c #F1B25A",
"f 	c #F2B95E",
"g 	c #F3BF63",
"h 	c #F5C76A",
"i 	c #F5CD72",
"j 	c #F8D17C",
"k 	c #F8C667",
"l 	c #EC942D",
"m 	c #E4802E",
"n 	c #F1B86E",
"o 	c #ECBF94",
"p 	c #E2AC8E",
"q 	c #DEA080",
"r 	c #DD894E",
"s 	c #DD8636",
"t 	c #E1893F",
"u 	c #E38E48",
"v 	c #E49048",
"w 	c #E69046",
"x 	c #E28E43",
"y 	c #E19345",
"z 	c #E19542",
"A 	c #E29A43",
"B 	c #E8A348",
"C 	c #EFAD50",
"D 	c #F2B65A",
"E 	c #F4BE60",
"F 	c #F3C366",
"G 	c #F6CC71",
"H 	c #F3C25D",
"I 	c #E69138",
"J 	c #E57C2A",
"K 	c #E48A2C",
"L 	c #F4C96E",
"M 	c #F4D38C",
"N 	c #E6B393",
"O 	c #E0A78B",
"P 	c #D8916C",
"Q 	c #D67631",
"R 	c #DB7E3D",
"S 	c #DB8345",
"T 	c #D8844A",
"U 	c #D98145",
"V 	c #D77B43",
"W 	c #D6753D",
"X 	c #D16F39",
"Y 	c #CC7038",
"Z 	c #C47332",
"` 	c #CC7C34",
" .	c #DA8839",
"..	c #E5943F",
"+.	c #E89943",
"@.	c #ECA046",
"#.	c #EEAB4B",
"$.	c #F3BA56",
"%.	c #F4B04F",
"&.	c #E48136",
"*.	c #DC7628",
"=.	c #DF7924",
"-.	c #E99741",
";.	c #F8DA7C",
">.	c #F6D084",
",.	c #E6B286",
"'.	c #DCA286",
").	c #CA7950",
"!.	c #CA6930",
"~.	c #CF773F",
"{.	c #D07C46",
"].	c #C97340",
"^.	c #C76A3F",
"/.	c #C46638",
"(.	c #C26135",
"_.	c #BB5730",
":.	c #B8522E",
"<.	c #B5522D",
"[.	c #AF5A29",
"}.	c #B8682E",
"|.	c #C7722F",
"1.	c #D77830",
"2.	c #DC7F30",
"3.	c #E08933",
"4.	c #E89438",
"5.	c #EDA641",
"6.	c #EB9E3E",
"7.	c #D5672C",
"8.	c #D36521",
"9.	c #DE7524",
"0.	c #E07528",
"a.	c #F2C465",
"b.	c #FADB80",
"c.	c #F5C45C",
"d.	c #E6AD82",
"e.	c #DAA084",
"f.	c #B66946",
"g.	c #C06030",
"h.	c #C16B41",
"i.	c #BF6A41",
"j.	c #BA6239",
"k.	c #B25A35",
"l.	c #AE5533",
"m.	c #A94F2C",
"n.	c #AD4D2C",
"o.	c #AB4729",
"p.	c #AC4628",
"q.	c #AD4A27",
"r.	c #AC5427",
"s.	c #B0622C",
"t.	c #B86B2A",
"u.	c #C8702E",
"v.	c #D6762F",
"w.	c #DB7F32",
"x.	c #E28735",
"y.	c #E7963B",
"z.	c #E5903A",
"A.	c #C95429",
"B.	c #C75325",
"C.	c #D86B28",
"D.	c #D86B22",
"E.	c #E9A049",
"F.	c #F9D26C",
"G.	c #F1B244",
"H.	c #E8983C",
"I.	c #E8B68F",
"J.	c #AA6045",
"K.	c #B05631",
"L.	c #B65E3A",
"M.	c #AD5C3C",
"N.	c #A95534",
"O.	c #A34D2E",
"P.	c #9F492E",
"Q.	c #9B452C",
"R.	c #9E462D",
"S.	c #A5462D",
"T.	c #A6412A",
"U.	c #AA4127",
"V.	c #B04828",
"W.	c #B5512C",
"X.	c #B75C2F",
"Y.	c #B7632D",
"Z.	c #BD6B2F",
"`.	c #CC732E",
" +	c #D57B31",
".+	c #DB8433",
"++	c #E38B37",
"@+	c #E68A3A",
"#+	c #D46A32",
"$+	c #C15126",
"%+	c #CF5D25",
"&+	c #D66624",
"*+	c #E5833B",
"=+	c #F1B44A",
"-+	c #EE9838",
";+	c #E6862C",
">+	c #EFB75F",
",+	c #E5B291",
"'+	c #A25436",
")+	c #A5573B",
"!+	c #A25438",
"~+	c #9A4B2F",
"{+	c #94452B",
"]+	c #8F4028",
"^+	c #92412A",
"/+	c #933E25",
"(+	c #9D452A",
"_+	c #A74A2E",
":+	c #A9452D",
"<+	c #AA4129",
"[+	c #B04529",
"}+	c #B8502D",
"|+	c #B95930",
"1+	c #B86230",
"2+	c #BA6A32",
"3+	c #C17232",
"4+	c #CB7834",
"5+	c #D18236",
"6+	c #DD8438",
"7+	c #E48537",
"8+	c #E4883A",
"9+	c #CD6534",
"0+	c #C45122",
"a+	c #D16123",
"b+	c #D9742F",
"c+	c #E7923C",
"d+	c #E48130",
"e+	c #E2872A",
"f+	c #ECA248",
"g+	c #F5CA84",
"h+	c #E0A88A",
"i+	c #A96348",
"j+	c #984F35",
"k+	c #8F462E",
"l+	c #883E29",
"m+	c #853D29",
"n+	c #873B25",
"o+	c #8E4029",
"p+	c #913F25",
"q+	c #994328",
"r+	c #A84E32",
"s+	c #AE4C33",
"t+	c #AB432B",
"u+	c #AD4629",
"v+	c #BC5935",
"w+	c #C1643B",
"x+	c #BE6B3C",
"y+	c #BB6F39",
"z+	c #BD7339",
"A+	c #C6733B",
"B+	c #BB7037",
"C+	c #B96731",
"D+	c #C4642D",
"E+	c #D3742F",
"F+	c #D46E34",
"G+	c #BC4F29",
"H+	c #C55522",
"I+	c #D06B2B",
"J+	c #DD7336",
"K+	c #DC7329",
"L+	c #E27F2C",
"M+	c #E88E3C",
"N+	c #F6D070",
"O+	c #E7B98B",
"P+	c #BB7A60",
"Q+	c #8F462F",
"R+	c #823C28",
"S+	c #7D3926",
"T+	c #7E3924",
"U+	c #853B25",
"V+	c #8B3E27",
"W+	c #934228",
"X+	c #98442A",
"Y+	c #A75135",
"Z+	c #B65B3D",
"`+	c #B15133",
" @	c #B44E30",
".@	c #C3623C",
"+@	c #C76B42",
"@@	c #C56C42",
"#@	c #C16C40",
"$@	c #B16A40",
"%@	c #B36743",
"&@	c #A05D3A",
"*@	c #934D2E",
"=@	c #91452A",
"-@	c #984522",
";@	c #A44821",
">@	c #A54426",
",@	c #B14521",
"'@	c #C55F29",
")@	c #D3632E",
"!@	c #DA6B28",
"~@	c #DB742C",
"{@	c #E28237",
"]@	c #F7CA70",
"^@	c #F3C66E",
"/@	c #E2AB8D",
"(@	c #D79D81",
"_@	c #894532",
":@	c #783625",
"<@	c #763624",
"[@	c #793823",
"}@	c #7F3A25",
"|@	c #873D27",
"1@	c #95462E",
"2@	c #9D4A30",
"3@	c #A44F33",
"4@	c #B3603D",
"5@	c #BA623F",
"6@	c #B95637",
"7@	c #BE623E",
"8@	c #C16C46",
"9@	c #C1744E",
"0@	c #BC744E",
"a@	c #B57253",
"b@	c #B06950",
"c@	c #A9664C",
"d@	c #A35D47",
"e@	c #945139",
"f@	c #7F3B26",
"g@	c #7D3420",
"h@	c #833723",
"i@	c #993A20",
"j@	c #C56233",
"k@	c #CD632E",
"l@	c #D4632A",
"m@	c #D66927",
"n@	c #DC7B3C",
"o@	c #F4C86C",
"p@	c #F2BD48",
"q@	c #E6B283",
"r@	c #BB8168",
"s@	c #713528",
"t@	c #723323",
"u@	c #793725",
"v@	c #7A3725",
"w@	c #823B26",
"x@	c #93462D",
"y@	c #A04D32",
"z@	c #A34E35",
"A@	c #AB5636",
"B@	c #B8623E",
"C@	c #B25B3C",
"D@	c #B15E40",
"E@	c #B86C4C",
"F@	c #B87554",
"G@	c #BC7F5D",
"H@	c #C28361",
"I@	c #CC896A",
"J@	c #D0886C",
"K@	c #C87B62",
"L@	c #AF6145",
"M@	c #8D4429",
"N@	c #7E3820",
"O@	c #752D1B",
"P@	c #994326",
"Q@	c #CA6C3D",
"R@	c #CC6935",
"S@	c #D0652D",
"T@	c #CE5D23",
"U@	c #E08548",
"V@	c #F4B253",
"W@	c #E99B32",
"X@	c #E6A05E",
"Y@	c #A56D57",
"Z@	c #713323",
"`@	c #773625",
" #	c #793825",
".#	c #813B25",
"+#	c #90432B",
"@#	c #9B4931",
"##	c #9F4A31",
"$#	c #A44E33",
"%#	c #A65436",
"&#	c #A25338",
"*#	c #9F5139",
"=#	c #A75B42",
"-#	c #AC6549",
";#	c #B97557",
">#	c #C18568",
",#	c #C48A6E",
"'#	c #CC8C75",
")#	c #CD8873",
"!#	c #CD8068",
"~#	c #B46440",
"{#	c #97442B",
"]#	c #9D512F",
"^#	c #C87845",
"/#	c #C2673A",
"(#	c #CB7242",
"_#	c #CF642C",
":#	c #D16937",
"<#	c #E69351",
"[#	c #E2822D",
"}#	c #DF7327",
"|#	c #E4843A",
"1#	c #E4B090",
"2#	c #DFA689",
"3#	c #9C624C",
"4#	c #733624",
"5#	c #7A3826",
"6#	c #853C26",
"7#	c #8D3F28",
"8#	c #91422B",
"9#	c #95442C",
"0#	c #964730",
"a#	c #944832",
"b#	c #904530",
"c#	c #904731",
"d#	c #8C4431",
"e#	c #9D5944",
"f#	c #A8664B",
"g#	c #AA6952",
"h#	c #AF6C52",
"i#	c #965335",
"j#	c #9B5E3F",
"k#	c #AE6E4C",
"l#	c #B87F62",
"m#	c #E4B277",
"n#	c #EEB274",
"o#	c #DF925F",
"p#	c #BE6C45",
"q#	c #C07041",
"r#	c #CF6F3B",
"s#	c #E49963",
"t#	c #DC763B",
"u#	c #D46328",
"v#	c #D76625",
"w#	c #E18739",
"x#	c #E6B181",
"y#	c #DCA488",
"z#	c #A56B54",
"A#	c #7A3926",
"B#	c #823C26",
"C#	c #883E27",
"D#	c #893F29",
"E#	c #873F2B",
"F#	c #863F2D",
"G#	c #863F2F",
"H#	c #843F2F",
"I#	c #833930",
"J#	c #985847",
"K#	c #B5795C",
"L#	c #BA7651",
"M#	c #B3683D",
"N#	c #B66E46",
"O#	c #BA7650",
"P#	c #AC633A",
"Q#	c #9B5731",
"R#	c #88472C",
"S#	c #BC805D",
"T#	c #F2B18C",
"U#	c #E89971",
"V#	c #B7603D",
"W#	c #C56F42",
"X#	c #E69967",
"Y#	c #DB7D49",
"Z#	c #C65A24",
"`#	c #D06029",
" $	c #DB6D2D",
".$	c #E89C4C",
"+$	c #E9A65D",
"@$	c #DCA487",
"#$	c #BF846B",
"$$	c #894935",
"%$	c #7F3A27",
"&$	c #7F3B29",
"*$	c #7A3B29",
"=$	c #783A28",
"-$	c #793A2A",
";$	c #78392B",
">$	c #844032",
",$	c #B3674A",
"'$	c #BA6C3E",
")$	c #BD7646",
"!$	c #CC8752",
"~$	c #B46A35",
"{$	c #CC7F4D",
"]$	c #B4663B",
"^$	c #A96138",
"/$	c #924B2A",
"($	c #834029",
"_$	c #B07756",
":$	c #F3B873",
"<$	c #D5905B",
"[$	c #DC945D",
"}$	c #D87F4A",
"|$	c #CF6830",
"1$	c #CB5D27",
"2$	c #D36529",
"3$	c #E49B60",
"4$	c #E89F50",
"5$	c #E89952",
"6$	c #D8A185",
"7$	c #D2987D",
"8$	c #935642",
"9$	c #733829",
"0$	c #713627",
"a$	c #703625",
"b$	c #6D3428",
"c$	c #6A3228",
"d$	c #AE6C4D",
"e$	c #C57B50",
"f$	c #C87A48",
"g$	c #B46538",
"h$	c #BD713E",
"i$	c #D1874A",
"j$	c #CD8244",
"k$	c #CD7A3F",
"l$	c #B66539",
"m$	c #9A552F",
"n$	c #814028",
"o$	c #874A2B",
"p$	c #E1AF74",
"q$	c #F6C58A",
"r$	c #DF8952",
"s$	c #D47946",
"t$	c #D88049",
"u$	c #CE642A",
"v$	c #E9A273",
"w$	c #EBAD77",
"x$	c #DE8234",
"y$	c #E1975A",
"z$	c #D6A084",
"A$	c #AE7660",
"B$	c #753F30",
"C$	c #663527",
"D$	c #5E2E24",
"E$	c #864E3D",
"F$	c #C8794F",
"G$	c #A85C33",
"H$	c #A35A2F",
"I$	c #AE6535",
"J$	c #C77940",
"K$	c #D28141",
"L$	c #CD8758",
"M$	c #C58259",
"N$	c #D18F60",
"O$	c #BB7A4C",
"P$	c #A06043",
"Q$	c #7A3F25",
"R$	c #B47959",
"S$	c #EEAA78",
"T$	c #DB8452",
"U$	c #D3774A",
"V$	c #DC874E",
"W$	c #EAB18B",
"X$	c #F1C292",
"Y$	c #E28E3C",
"Z$	c #DF7B2C",
"`$	c #DE8E5A",
" %	c #D39D82",
".%	c #D49C80",
"+%	c #A5735D",
"@%	c #835346",
"#%	c #9E5E42",
"$%	c #CA713A",
"%%	c #B86C3F",
"&%	c #9F5A34",
"*%	c #A2582C",
"=%	c #AB592E",
"-%	c #C37859",
";%	c #B47769",
">%	c #77453F",
",%	c #97614A",
"'%	c #DB9967",
")%	c #B57855",
"!%	c #965E41",
"~%	c #B06E46",
"{%	c #F7B96B",
"]%	c #DB955F",
"^%	c #DC9160",
"/%	c #ECB07D",
"(%	c #ECB27A",
"_%	c #E18F44",
":%	c #DB7B30",
"<%	c #D26C2A",
"[%	c #DF9A70",
"}%	c #CB977D",
"|%	c #BB8B73",
"1%	c #D19C81",
"2%	c #A56C4D",
"3%	c #BF6B3B",
"4%	c #96512F",
"5%	c #763A23",
"6%	c #713722",
"7%	c #8F4E37",
"8%	c #CE8C6D",
"9%	c #C6855C",
"0%	c #CD9E87",
"a%	c #A5766E",
"b%	c #C8814D",
"c%	c #CB8A5F",
"d%	c #BB815D",
"e%	c #CF875C",
"f%	c #E99C4C",
"g%	c #EBAC6C",
"h%	c #E09261",
"i%	c #DD8743",
"j%	c #DA8232",
"k%	c #D7712B",
"l%	c #D57336",
"m%	c #E8A06F",
"n%	c #E19F6D",
"o%	c #B78871",
"p%	c #9C6349",
"q%	c #A5512C",
"r%	c #813C1F",
"s%	c #6A3724",
"t%	c #5E3123",
"u%	c #76483D",
"v%	c #CB8160",
"w%	c #7F3C1C",
"x%	c #8E674D",
"y%	c #A87161",
"z%	c #BB6538",
"A%	c #D99151",
"B%	c #DDA573",
"C%	c #D89364",
"D%	c #D0713A",
"E%	c #D47743",
"F%	c #D6844B",
"G%	c #E08F48",
"H%	c #DA7B30",
"I%	c #E18C4B",
"J%	c #F3C6A1",
"K%	c #EDB07C",
"L%	c #E09967",
"M%	c #A87D67",
"N%	c #946E5B",
"O%	c #BD7C5F",
"P%	c #AF5E32",
"Q%	c #86442C",
"R%	c #5E3026",
"S%	c #3F2115",
"T%	c #492D23",
"U%	c #C38E77",
"V%	c #73402E",
"W%	c #391812",
"X%	c #68331B",
"Y%	c #BD6633",
"Z%	c #EAA85F",
"`%	c #E2AA82",
" &	c #D5803F",
".&	c #E2944E",
"+&	c #D0854A",
"@&	c #DC8848",
"#&	c #D67039",
"$&	c #DA793A",
"%&	c #F0BE90",
"&&	c #EFB580",
"*&	c #E38A40",
"=&	c #E3AB8A",
"-&	c #8E6A58",
";&	c #7B5C4C",
">&	c #D49472",
",&	c #A25129",
"'&	c #683322",
")&	c #49241C",
"!&	c #553128",
"~&	c #522D26",
"{&	c #704B3E",
"]&	c #CE967C",
"^&	c #B57552",
"/&	c #C57B3F",
"(&	c #EAA556",
"_&	c #E3B687",
":&	c #B5684D",
"<&	c #B95124",
"[&	c #D88138",
"}&	c #E29E65",
"|&	c #D7875A",
"1&	c #DB8550",
"2&	c #E6A572",
"3&	c #DF9A61",
"4&	c #D77A2D",
"5&	c #E79F6E",
"6&	c #E2AD95",
"7&	c #433229",
"8&	c #533E33",
"9&	c #E4AD90",
"0&	c #A76041",
"a&	c #5C2717",
"b&	c #5D3021",
"c&	c #5B3227",
"d&	c #381B1A",
"e&	c #412319",
"f&	c #6C4439",
"g&	c #AA7E62",
"h&	c #C49269",
"i&	c #AA7D5B",
"j&	c #8F4634",
"k&	c #AF5927",
"l&	c #A84E25",
"m&	c #A94E2C",
"n&	c #B76236",
"o&	c #C47346",
"p&	c #CE7D43",
"q&	c #D6793F",
"r&	c #D57331",
"s&	c #D47D38",
"t&	c #E7B495",
"u&	c #B2856E",
"v&	c #DFA78A",
"w&	c #B26D4B",
"x&	c #682E1B",
"y&	c #5E321F",
"z&	c #43211E",
"A&	c #4B2422",
"B&	c #5B3326",
"C&	c #3D1B18",
"D&	c #562A27",
"E&	c #522215",
"F&	c #6B2D1F",
"G&	c #7A2B1A",
"H&	c #B45F2B",
"I&	c #CB7A3F",
"J&	c #B96534",
"K&	c #C26C38",
"L&	c #C96935",
"M&	c #C7642F",
"N&	c #C66227",
"O&	c #CC6C2F",
"P&	c #E5A876",
"Q&	c #E4AD8E",
"R&	c #594237",
"S&	c #7A5B4B",
"T&	c #D89C78",
"U&	c #915137",
"V&	c #5F2B1F",
"W&	c #47221A",
"X&	c #542B22",
"Y&	c #45231C",
"Z&	c #4F281F",
"`&	c #5C2C24",
" *	c #56231C",
".*	c #89452C",
"+*	c #693320",
"@*	c #7D351E",
"#*	c #AE5F32",
"$*	c #C97E51",
"%*	c #BC693D",
"&*	c #C46435",
"**	c #CB6C39",
"=*	c #D78356",
"-*	c #E7A86D",
";*	c #E6AD80",
">*	c #A77C67",
",*	c #DDA98B",
"'*	c #6E361E",
")*	c #4B211B",
"!*	c #633324",
"~*	c #46241F",
"{*	c #582B1D",
"]*	c #603022",
"^*	c #4F221C",
"/*	c #8D4C26",
"(*	c #934F28",
"_*	c #863E26",
":*	c #9A4B2A",
"<*	c #AA5D38",
"[*	c #BE7249",
"}*	c #CE7E50",
"|*	c #D98959",
"1*	c #DB8E4F",
"2*	c #E09D63",
"3*	c #2F231D",
"4*	c #BA7248",
"5*	c #662E1E",
"6*	c #703924",
"7*	c #5D2D1F",
"8*	c #61301E",
"9*	c #783F28",
"0*	c #672C1F",
"a*	c #743620",
"b*	c #A35C36",
"c*	c #A34E2B",
"d*	c #AB4F29",
"e*	c #BD6337",
"f*	c #C36B3B",
"g*	c #C6713D",
"h*	c #C97038",
"i*	c #DD9567",
"j*	c #E1A684",
"k*	c #D1956C",
"l*	c #864422",
"m*	c #7F4328",
"n*	c #682F1E",
"o*	c #884429",
"p*	c #853E20",
"q*	c #934121",
"r*	c #8A4123",
"s*	c #A75E3A",
"t*	c #BA653B",
"u*	c #B65F34",
"v*	c #C26333",
"w*	c #CF7445",
"x*	c #E0A380",
"y*	c #342720",
"z*	c #7C5C4C",
"A*	c #D48F64",
"B*	c #BA6831",
"C*	c #934120",
"D*	c #914921",
"E*	c #9F5834",
"F*	c #9F4723",
"G*	c #AE4F24",
"H*	c #A55226",
"I*	c #B25E36",
"J*	c #C87547",
"K*	c #E0985D",
"L*	c #E2A685",
"M*	c #97715D",
"N*	c #31251E",
"O*	c #A67C66",
"P*	c #E0A37A",
"Q*	c #D6864D",
"R*	c #CD7642",
"S*	c #C47241",
"T*	c #C47641",
"U*	c #C66A38",
"V*	c #D27F4F",
"W*	c #D89265",
"X*	c #DFA07A",
"Y*	c #745647",
"Z*	c #795A4B",
"`*	c #C49279",
" =	c #D09B80",
".=	c #CE997F",
"+=	c #D49E82",
"@=	c #DAA286",
"#=	c #A27964",
"$=	c #5A4338",
"                          . . . . . . . .                                                       ",
"                    . + @ # $ % & * = - ; > , '                                                 ",
"                ) ! ~ { ] ^ / ( _ : < [ } | 1 2 3 4                                             ",
"            5 6 7 8 9 0 a b c d e f g h i j k l m n o p                                         ",
"        . q r s t u v w x y z A B C D E F G H I J K L M N .                                     ",
"      O P Q R S T U V W X Y Z `  ...+.@.#.$.%.&.*.=.-.;.>.,..                                   ",
"    '.).!.~.{.].^./.(._.:.<.[.}.|.1.2.3.4.5.6.7.8.9.0.a.b.c.d..                                 ",
"  e.f.g.h.i.j.k.l.m.n.o.p.q.r.s.t.u.v.w.x.y.z.A.B.C.D.E.F.G.H.I..                               ",
". J.K.L.M.N.O.P.Q.R.S.T.U.V.W.X.Y.Z.`. +.+++@+#+$+%+&+*+=+-+;+>+,+                              ",
". '+)+!+~+{+]+^+/+(+_+:+<+[+}+|+1+2+3+4+5+6+7+8+9+0+a+b+c+d+e+f+g+h+                            ",
". i+j+k+l+m+n+o+p+q+r+s+t+u+v+w+x+y+z+A+B+C+D+E+F+G+H+I+J+K+L+M+N+O+                            ",
". P+Q+R+S+T+U+V+W+X+Y+Z+`+ @.@+@@@#@$@%@&@*@=@-@;@>@,@'@)@!@~@{@]@^@/@                          ",
"  (@_@:@<@[@}@|@1@2@3@4@5@6@7@8@9@0@a@b@c@d@e@f@g@h@i@j@k@l@m@n@o@p@q@                          ",
"  . r@s@t@u@v@w@x@y@z@A@B@C@D@E@F@G@H@I@J@K@L@M@N@O@P@Q@R@S@T@U@V@W@X@.                         ",
"    . Y@Z@`@ #.#+#@###$#%#&#*#=#-#;#>#,#'#)#!#~#{#]#^#/#(#_#:#<#[#}#|#1#                        ",
"      2#3#4#5#6#7#8#9#0#a#b#c#d#e#f#g#h#i#j#k#l#m#n#o#p#q#r#s#t#u#v#w#x#y#                      ",
"        2#z#A#B#C#D#E#F#G#H#I#J#K#L#M#N#O#P#Q#R#S#T#U#V#W#X#Y#Z#`# $.$+$@$                      ",
"          . #$$$%$&$*$=$-$;$>$,$'$)$!$~${$]$^$/$($_$:$<$[$}$|$1$2$3$4$5$6$                      ",
"              7$8$9$0$a$b$c$d$e$f$g$h$i$j$k$l$m$n$o$p$q$r$s$t$u$v$w$x$y$z$                      ",
"                2#A$B$C$D$E$F$G$H$I$J$K$L$M$N$O$P$Q$R$S$T$U$V$W$X$Y$Z$`$ %                      ",
"                    .%+%@%#%$%%%&%*%=%-%;%>%,%'%)%!%~%{%]%^%/%(%_%:%<%[%}%                      ",
"                      |%1%2%3%4%5%6%7%8%9%0%a%b%c%d%e%f%g%h%i%j%k%l%m%n%|%                      ",
"                        o%p%q%r%s%t%u%v%w%x%y%z%A%B%C%D%E%F%G%H%I%J%K%L%M%                      ",
"                        N%O%P%Q%R%S%T%U%V%W%X%Y%Z%`% &.&+&@&#&$&%&&&*&=&-&                      ",
"                        ;&>&,&'&)&!&~&{&]&^&/&(&_&:&<&[&}&|&1&2&3&4&5&6&7&                      ",
"                        8&9&0&a&b&c&d&e&f&g&h&i&j&k&l&m&n&o&p&q&r&s&t&u&                        ",
"                          v&w&x&y&z&A&B&C&D&E&F&G&H&I&J&K&L&M&N&O&P&Q&R&                        ",
"                          S&T&U&V&W&X&Y&Z&`& *.*+*@*#*$*%*&***=*-*;*>*                          ",
"                            . ,*'*)*!*~*{*]*^*/*(*_*:*<*[*}*|*1*2*>*3*                          ",
"                              h+4*5*6*7*8*9*0*a*b*c*d*e*f*g*h*i*5 7&                            ",
"                                j*k*l*m*n*o*p*q*r*s*t*u*v*w*x*>*y*                              ",
"                                z*' A*B*C*D*E*F*G*H*I*J*K*L*M*                                  ",
"                                  N*O*P*Q*R*S*T*U*V*W*X*. Y*                                    ",
"                                      Z*`* =.=+=@=.=#=$=                                        ",
"                                                                                                "};
