/* XPM */
static char * pan_xpm[] = {
"48 48 356 2",
"  	c None",
". 	c #EEEEEE",
"+ 	c #E6E6E6",
"@ 	c #DADADA",
"# 	c #DDDDDD",
"$ 	c #DBDBDB",
"% 	c #D8D8D8",
"& 	c #D6D6D6",
"* 	c #D3D3D3",
"= 	c #C7C7C7",
"- 	c #F6F6F6",
"; 	c #E4E4E4",
"> 	c #CACACA",
", 	c #C9C9C9",
"' 	c #E8E8E8",
") 	c #F1F1F1",
"! 	c #EFEFEF",
"~ 	c #E5E5E5",
"{ 	c #DCDCDC",
"] 	c #D5D5D5",
"^ 	c #C3C3C3",
"/ 	c #BABABA",
"( 	c #B6B6B6",
"_ 	c #AAAAAA",
": 	c #F4F4F4",
"< 	c #F8F8F8",
"[ 	c #F9F9F9",
"} 	c #F0F0F0",
"| 	c #E2E2E2",
"1 	c #CDCDCD",
"2 	c #D9D9D9",
"3 	c #ECECEC",
"4 	c #F5F5F5",
"5 	c #EAEAEA",
"6 	c #C1C1C1",
"7 	c #A4A4A4",
"8 	c #8D8D8D",
"9 	c #828282",
"0 	c #8A8A8A",
"a 	c #F7F7F7",
"b 	c #EDEDED",
"c 	c #FAFAFA",
"d 	c #E7E7E7",
"e 	c #D4D4D4",
"f 	c #D7D7D7",
"g 	c #E0E0E0",
"h 	c #F2F2F2",
"i 	c #ACACAC",
"j 	c #9B9B9B",
"k 	c #959695",
"l 	c #969696",
"m 	c #8F8F8F",
"n 	c #E3E3E3",
"o 	c #C4C4C4",
"p 	c #DFDFDF",
"q 	c #959595",
"r 	c #949494",
"s 	c #7A7A7A",
"t 	c #E9E9E9",
"u 	c #C2C2C2",
"v 	c #B4B4B4",
"w 	c #B9B9B9",
"x 	c #C5C5C5",
"y 	c #C8C8C8",
"z 	c #AEAEAE",
"A 	c #7E7E7E",
"B 	c #EBEBEB",
"C 	c #DEDEDE",
"D 	c #B8B9B8",
"E 	c #E1E1E1",
"F 	c #D1D1D1",
"G 	c #C4C5C4",
"H 	c #B6B7B6",
"I 	c #A6A6A6",
"J 	c #979797",
"K 	c #777777",
"L 	c #EBECEB",
"M 	c #B3B3B3",
"N 	c #C6C7C6",
"O 	c #D2D3D2",
"P 	c #D0D1D0",
"Q 	c #7F7F7F",
"R 	c #777877",
"S 	c #5C5D5C",
"T 	c #040404",
"U 	c #F3F3F3",
"V 	c #DCDDDC",
"W 	c #CBCBCB",
"X 	c #DADBDA",
"Y 	c #D1D2D1",
"Z 	c #B8B8B8",
"` 	c #808180",
" .	c #6F6F6F",
"..	c #5B5C5B",
"+.	c #4F4F4F",
"@.	c #020202",
"#.	c #BCBCBC",
"$.	c #D2D2D2",
"%.	c #C6C6C6",
"&.	c #B0B1B0",
"*.	c #B7B7B7",
"=.	c #D0D0D0",
"-.	c #A9A9A9",
";.	c #636463",
">.	c #6A6A6A",
",.	c #636363",
"'.	c #474747",
").	c #000000",
"!.	c #F6F7F6",
"~.	c #CFCFCF",
"{.	c #737373",
"].	c #505050",
"^.	c #666666",
"/.	c #404040",
"(.	c #BDBDBD",
"_.	c #BFBFBF",
":.	c #D9DAD9",
"<.	c #B5B5B5",
"[.	c #AFAFAF",
"}.	c #B2B2B2",
"|.	c #CFD0CF",
"1.	c #6C6C6C",
"2.	c #595A59",
"3.	c #757675",
"4.	c #424242",
"5.	c #CECECE",
"6.	c #CCCCCC",
"7.	c #BFC0BF",
"8.	c #B3B4B3",
"9.	c #888888",
"0.	c #6F706F",
"a.	c #717271",
"b.	c #747474",
"c.	c #585858",
"d.	c #383838",
"e.	c #D3D4D3",
"f.	c #ABACAB",
"g.	c #666766",
"h.	c #6E6F6E",
"i.	c #5F605F",
"j.	c #656565",
"k.	c #141414",
"l.	c #A9AAA9",
"m.	c #ABABAB",
"n.	c #C0C0C0",
"o.	c #A0A0A0",
"p.	c #888988",
"q.	c #727372",
"r.	c #676767",
"s.	c #909190",
"t.	c #646564",
"u.	c #4E4E4E",
"v.	c #060606",
"w.	c #C7C8C7",
"x.	c #B1B1B1",
"y.	c #A3A3A3",
"z.	c #A2A2A2",
"A.	c #A1A2A1",
"B.	c #A8A9A8",
"C.	c #A3A4A3",
"D.	c #747574",
"E.	c #626262",
"F.	c #4A4A4A",
"G.	c #262626",
"H.	c #F1F2F1",
"I.	c #ADADAD",
"J.	c #A2A3A2",
"K.	c #9C9C9C",
"L.	c #A8A8A8",
"M.	c #A7A8A7",
"N.	c #898A89",
"O.	c #6E6E6D",
"P.	c #5A5A5A",
"Q.	c #7B7B7B",
"R.	c #353635",
"S.	c #1E1E1E",
"T.	c #BEBEBE",
"U.	c #ACADAC",
"V.	c #C2C3C2",
"W.	c #CECFCE",
"X.	c #F4F5F4",
"Y.	c #BABBBA",
"Z.	c #9E9E9E",
"`.	c #999999",
" +	c #A5A6A5",
".+	c #A0A1A0",
"++	c #616161",
"@+	c #6D6E6D",
"#+	c #303030",
"$+	c #1D1D1D",
"%+	c #A1A1A1",
"&+	c #929292",
"*+	c #BCBDBC",
"=+	c #BEBFBE",
"-+	c #E5E6E5",
";+	c #E1E2E1",
">+	c #989898",
",+	c #CDCECD",
"'+	c #CACBCA",
")+	c #8C8C8C",
"!+	c #595959",
"~+	c #646464",
"{+	c #5C5C5C",
"]+	c #292929",
"^+	c #222222",
"/+	c #030303",
"(+	c #9D9D9D",
"_+	c #AFB0AF",
":+	c #E3E4E3",
"<+	c #525352",
"[+	c #8E8E8E",
"}+	c #7D7D7D",
"|+	c #212121",
"1+	c #171717",
"2+	c #010101",
"3+	c #CCCDCC",
"4+	c #979897",
"5+	c #9A9A99",
"6+	c #A7A7A7",
"7+	c #AAABAA",
"8+	c #AEAFAE",
"9+	c #CBCCCB",
"0+	c #70706F",
"a+	c #9D9E9D",
"b+	c #616261",
"c+	c #4B4B4B",
"d+	c #8A8B8A",
"e+	c #868786",
"f+	c #868686",
"g+	c #898989",
"h+	c #919191",
"i+	c #919190",
"j+	c #A4A5A4",
"k+	c #B5B6B5",
"l+	c #C8C9C8",
"m+	c #BBBBBB",
"n+	c #939393",
"o+	c #757575",
"p+	c #6B6B6B",
"q+	c #565656",
"r+	c #787878",
"s+	c #989998",
"t+	c #3E3F3E",
"u+	c #272727",
"v+	c #818281",
"w+	c #818181",
"x+	c #8B8B8B",
"y+	c #8F908F",
"z+	c #9A9B9A",
"A+	c #B7B8B7",
"B+	c #707070",
"C+	c #606060",
"D+	c #525252",
"E+	c #767676",
"F+	c #5D5D5D",
"G+	c #080808",
"H+	c #797A79",
"I+	c #7E7F7E",
"J+	c #848484",
"K+	c #878786",
"L+	c #8D8E8D",
"M+	c #8E8F8E",
"N+	c #999A99",
"O+	c #7D7D7C",
"P+	c #6E6E6E",
"Q+	c #7A7B7A",
"R+	c #2D2D2D",
"S+	c #B0B0B0",
"T+	c #E0E1E0",
"U+	c #DEDFDE",
"V+	c #D4D5D4",
"W+	c #9B9C9B",
"X+	c #7C7C7C",
"Y+	c #727272",
"Z+	c #797978",
"`+	c #80807F",
" @	c #787978",
".@	c #7B7C7B",
"+@	c #848584",
"@@	c #838383",
"#@	c #717171",
"$@	c #535453",
"%@	c #797979",
"&@	c #969796",
"*@	c #242424",
"=@	c #ADAEAD",
"-@	c #9C9D9C",
";@	c #6C6D6C",
">@	c #6B6C6B",
",@	c #737372",
"'@	c #707170",
")@	c #545454",
"!@	c #2E2E2E",
"~@	c #9F9F9F",
"{@	c #929392",
"]@	c #8B8C8B",
"^@	c #676867",
"/@	c #656665",
"(@	c #6A6B6A",
"_@	c #7C7D7C",
":@	c #717070",
"<@	c #515151",
"[@	c #686968",
"}@	c #515251",
"|@	c #2A2A2A",
"1@	c #949594",
"2@	c #8C8D8C",
"3@	c #5F5F5F",
"4@	c #626362",
"5@	c #5E5E5E",
"6@	c #565756",
"7@	c #838483",
"8@	c #474847",
"9@	c #1F1F1F",
"0@	c #878787",
"a@	c #909090",
"b@	c #B9BAB9",
"c@	c #5D5E5D",
"d@	c #585958",
"e@	c #828382",
"f@	c #363635",
"g@	c #2B2B2B",
"h@	c #696969",
"i@	c #9C9B9B",
"j@	c #B4B5B4",
"k@	c #B2B3B2",
"l@	c #313030",
"m@	c #161616",
"n@	c #9A9A9A",
"o@	c #A5A5A5",
"p@	c #484948",
"q@	c #050505",
"r@	c #353535",
"s@	c #808080",
"t@	c #939493",
"u@	c #767776",
"v@	c #555555",
"w@	c #464646",
"x@	c #0F0F0F",
"y@	c #7D7E7D",
"z@	c #6D6D6D",
"A@	c #3B3B3B",
"B@	c #5E5F5E",
"C@	c #2F2F2F",
"D@	c #0D0D0D",
"E@	c #434343",
"F@	c #858685",
"G@	c #878887",
"H@	c #121212",
"I@	c #3E3E3E",
"J@	c #494949",
"K@	c #131313",
"L@	c #393939",
"M@	c #252625",
"N@	c #4C4C4C",
"O@	c #0A0A0A",
"                                                                                                ",
"                                                                                                ",
"                                                                                                ",
"                                                                                                ",
"                                                                                                ",
"                                                                                                ",
"                                                                                                ",
"                              . + @ # $ % & * =                                                 ",
"                            - ; & > , % ' ) ! ~ { ] ^ / ( _                                     ",
"                        - : - < [ [ - } | * 1 2 3 - [ 4 5 @ 6 7 8 9 0                           ",
"                      < a ; & > , $ b a c c < ) d { e f g 3 4 h ~ = i j k l j m                 ",
"                    < [ : - a [ - } | * 1 2 3 - c c [ - b n * ^ o * g p 1 / q r s               ",
"                    < - ; & > , $ b a c < ) d { e f g t ! } ) b ' & u v w x y z j A             ",
"                  < a 4 - a [ - } | * 1 2 3 - c [ - B C 1 / D y % ; E $ F G H I J K             ",
"                - [ a ; ] > , $ b a c < ) d { e f # + 3 L ' C , w M w N O P H Q R S T           ",
"                a c c c c [ ) B E * 1 2 3 - c [ U ' V W w ( x e { X Y x Z M `  ...+.@.          ",
"              4 [ c c c c p #.d c 4 ! . n 2 $.] X ; 5 t ~ { %.H &.*.o =.$.-.;.>.,.'.).).        ",
"              < c c c c ; *.M t c W 6 E [ c !.) + 2 y ( v u Y @ % ~.u ( u {.]...^./.).).        ",
"            U [ c c c ) (.v v p < w _.= d < 4 h b 5 ' E :.o <.[.}.6 1 |.H 1.2.3.,.4.).).        ",
"          h [ c c c [ = ( u *.u / 5.# #.f 4 h ' Z _ 6 p E 2 * e 6.7.8.(.9.0.a.b.c.d.).).        ",
"        - [ c c c c $ ( @ - *.w ( c h *.z | | }.-.}.2 E C #.M e.O |.6.f.3.g.h.i.j.k.).).        ",
"        < c c c c 4 @ u h c v M ~ c h v 1 _.l.m.n.f / ~.^ o.l.* =.1 _.p.q.r.s.t.u.v.).).        ",
"      ! 3 t U [ c [ U 3 [ c Z , c < 4 [.w.x.( ^ ; y.z.A.B.j 5.=.1 = C.D.E.^.8 F.G.).).).        ",
"      X e & @ 2 t U < c c - ; c a 4 H.I.m.x d # , J.|.1 K.L.=.1 u M.N.O.P.3.Q.R.S.).).          ",
"      T.U.i i i V.W.C 5 : < < a X.U 3 x 2 d ; $ Y.Z.#./ `.5.1 N  +.+D.++P.` @+#+$+).@.          ",
"      (.7 %+j q &+x.*+=+y $ -+} h } 3 ~ d ; ;+C , 7 >+J / ,+'+Y.%+)+h.!+~+9.{+]+^+)./+          ",
"        =+_.(+>+m r `.%+_+D ( Z o ] g ; :+| p { f = x.H ,+'+%.I Z.D.~+<+[+}+].|+1+).2+          ",
"          i 3+L.J &+8 [+`.4+5+6+z f.7+8+o * @ 2 & e.W.9+W y #.&+p.0+{+!+a+b+c+G.).).            ",
"          e + + X ^ >+d+e+f+g+&+h+i+`.j+A..+7 k+l+~.1 = T.m+j+n+o+p+q+r+s+j.t+u+2+).            ",
"          3 B 5 ' ; # 6.6+p.v+w+w+p.x+N.g+y+z+s+l o.i ( A+H U..+B+C+D+N.E+F+#+G+).@.            ",
"        C 3 5 ' + n | p f T.-.N.H+E+r+I+f+J+9 ` K+s.L+M+k N+N+O+P+P.S a+Q+P.R+).@.T             ",
"        m.}.S+[.x.5.T+U+V :.V+%.&.W+X+Y+Y+Y+Z+`+X+Q+ @.@+@@@9 #@E.$@%@&@j.].*@)./+              ",
"      * C.C.A.o.o.Z.%+I.=.2 f ] $.= =@-@p. .;@>@ .H+Z+3.,@'@p+ .P.)@N.b.!+!@/+2+).              ",
"        6.y.%+o.~@Z.(+j `.`.o.> ~.|.3+V.l.{@]@b.^@g./@(@_@Y+:@~+<@[@y.%@}@|@).2+).              ",
"            i o.>+K.j z+N+>+4+1@&+A.^ = y o <.Z.2@.@/@3@++4@@+5@6@7@-@4@8@9@).).                ",
"                ^.Q.0@r J `.l q r a@[+r [.6 _.(.b@f.N+7@;@c@d@$@3.A.e@{+f@G+).).                ",
"                  /+g@h@X+a@r i@n+&+s.m M+[+s.M.B.j@<.k@C.0 f++@W+_ E+].l@2+).).                ",
"                      2+m@<@^.9.&+N+n@s.8 )+0@Q a@>+(+_ o@y.m.l.f.s+5@p@]+).).                  ",
"                            q@r@j.s@8 n+>+&+0 J+}+'@R M+0 t@o..+z+u@v@w@x@).).                  ",
"                                2+|+'.s 0 N.g+N.0 @@y@K z@1.>.A X+Y+,.A@).).).                  ",
"                                    ).T d.{.2@0 f+J+@@s@Q.Q.B+b.q.D.B@C@).).                    ",
"                                          ).).D@E@P+D.F@)+G@y@_@Q+K 2.H@).).                    ",
"                                              ).).2+T I@e+C.C.1@e++@J@).).).                    ",
"                                                      ).2+K@L@E.g+e+M@).).).                    ",
"                                                            @.2+m@N@O@).2+                      ",
"                                                                  2+).).                        ",
"                                                                                                ",
"                                                                                                "};
