/* XPM */
static char *patchage_xpm[] = {
/* width height ncolors chars_per_pixel */
"32 32 248 2",
/* colors */
"   c #78D31F",
" . c #53A108",
" X c #529F07",
" o c #E2E4E1",
" O c #9B9F98",
" + c #50940F",
" @ c #E0E0DF",
" # c #5EB20C",
" $ c #6EAE33",
" % c #6DC914",
" & c #6DAC32",
" * c #90938D",
" = c #C3C4BF",
" - c #8B8D88",
" ; c #519D09",
" : c #8A8B87",
" > c #898B86",
" , c #3E4343",
" < c #509B08",
" 1 c #4F9B07",
" 2 c #5AA315",
" 3 c #579F12",
" 4 c #529D0D",
" 5 c #62A920",
" 6 c #BEBEBD",
" 7 c #73D216",
" 8 c #5DA31B",
" 9 c #33393B",
" 0 c #E9EBE7",
" q c #A2A49E",
" w c #313739",
" e c #56A60A",
" r c #D4EDBB",
" t c #2F3537",
" y c #E4E7E2",
" u c #E2E5E0",
" i c #E3E3E1",
" p c #2A3132",
" a c #6FCC15",
" s c #4C5050",
" d c #252B2D",
" f c #DAF1C4",
" g c #92948E",
" h c #6C6F6C",
" j c #6A6D6A",
" k c #D5D7D3",
" l c #8F908B",
" z c #4F9C06",
" x c #90928F",
" c c #69C412",
" v c #539E0D",
" b c #77BA37",
" n c #8A8C89",
" m c #80827F",
" M c #8FCA55",
" N c #6BAC2B",
" B c #33383A",
" V c #458709",
" C c #56A709",
" Z c #68AC28",
" A c #8CBF5C",
" S c #313638",
" D c #2F3436",
" F c #2E3435",
" G c #E4E6E1",
" H c #99DB58",
" J c #D0E8B6",
" K c #4F940C",
" L c #DFE2DC",
" P c #5FA41F",
" I c #A9ABA7",
" U c #B7DF90",
" Y c #A6A7A4",
" T c #499206",
" R c #6EC913",
" E c #EBECEB",
" W c #A4A7A2",
" Q c #D8DCD5",
" ! c #488C05",
" ~ c #D4D8D1",
" ^ c #D3D6D0",
" / c #52A108",
" ( c #74CF1C",
" ) c #3E7B05",
" _ c #CCCEC9",
" ` c #5DB20C",
" ' c #5CB00B",
" ] c #6BC713",
" [ c #478A07",
" { c #55A10E",
" } c #8D8F8B",
" | c #AED38A",
".  c #549D0D",
".. c #539D0C",
".X c #8B8D89",
".o c #88C054",
".O c #519B0A",
".+ c #878B85",
".@ c #4E9B07",
".# c #DDF0CC",
".$ c #3B3F41",
".% c #7CBB3E",
".& c #569F12",
".* c #65BD10",
".= c #539B0F",
".- c #9ADE58",
".; c #757773",
".: c #60A51F",
".> c #A9ACA6",
"., c #5EA51D",
".< c #595E5E",
".1 c #A2A69F",
".2 c #7BB940",
".3 c #D5D9D1",
".4 c #54A409",
".5 c #9EA29B",
".6 c #2E3537",
".7 c #D3D7CF",
".8 c #E5E5E4",
".9 c #E3E5E2",
".0 c #52A007",
".q c #D1D5CD",
".w c #519510",
".e c #72AF37",
".r c #5EB30C",
".t c #81CF35",
".y c #91DB48",
".u c #6CC813",
".i c #474C4C",
".p c #8E908B",
".a c #8D908A",
".s c #C2C5BE",
".d c #8D8E8A",
".f c #8C8E89",
".g c #539E0B",
".h c #8B8C88",
".j c #8A8C87",
".k c #4F9C07",
".l c #509A08",
".z c #888A85",
".x c #4F9A07",
".c c #84BD4F",
".v c #4E9A06",
".b c #CCE3B7",
".n c #95D459",
".m c #A6D777",
".M c #7ED22B",
".N c #478909",
".B c #58A213",
".V c #B4B7B0",
".C c #56A011",
".Z c #569E11",
".A c #559E10",
".S c #539C0E",
".D c #ACE476",
".F c #616565",
".G c #EEEEEC",
".H c #5B5F5F",
".J c #B4DF8B",
".K c #343A3C",
".L c #57A015",
".P c #6D6E6A",
".I c #32383A",
".U c #303638",
".Y c #E6E8E4",
".T c #555959",
".R c #2F3437",
".E c #2E3436",
".W c #76D31C",
".Q c #CED0C9",
".! c #95D755",
".~ c #6ECB14",
".^ c #A4E167",
"./ c #D9DAD7",
".( c #90918C",
".) c #8E8F8A",
"._ c #C1E39E",
".` c #8D8F89",
".' c #509D07",
".] c #509B07",
".[ c #636663",
".{ c #60A91A",
".} c #616461",
".| c #606260",
"X  c #5F625F",
"X. c #59A313",
"XX c #5B5E5B",
"Xo c #C6C8C4",
"XO c #D5EAC2",
"X+ c #9DCE6D",
"X@ c #8C8F8B",
"X# c #66AB23",
"X$ c #9BD761",
"X% c #539D0D",
"X& c #529B0C",
"X* c #519B0B",
"X= c #509B0A",
"X- c #85D734",
"X; c #569F13",
"X: c #323739",
"X> c #D5EFBB",
"X, c #303537",
"X< c #88D93A",
"X1 c #F4F5F4",
"X2 c #E1E3DE",
"X3 c #F2F3F2",
"X4 c #4F950C",
"X5 c #A8AAA6",
"X6 c #DCDFD9",
"X7 c #A7A8A5",
"X8 c #4A9307",
"X9 c #5CA812",
"X0 c #A5A8A3",
"Xq c #6EB627",
"Xw c #90C263",
"Xe c #A3A6A1",
"Xr c #52A208",
"Xt c #52A008",
"Xy c #519C07",
"Xu c #DBDDDB",
"Xi c #7FD62A",
"Xp c #90928E",
"Xa c #B1E183",
"Xs c #8E928C",
"Xd c #8D908B",
"Xf c #8C8E8A",
"Xg c #519C0A",
"Xh c #888C86",
"Xj c #4E9A07",
"Xk c #3C4042",
"Xl c #B6E18B",
"Xz c #468909",
"Xx c #57A013",
"Xc c #56A012",
"Xv c #458508",
"Xb c #56A508",
"Xn c #79C331",
"Xm c #64BC0F",
"XM c #ABE076",
"XN c #ABADA8",
"XB c #71CF15",
"XV c #747672",
"XC c #70CD14",
"XZ c #4B9407",
"XA c #EBECEA",
"XS c #E7EAE6",
"XD c #565B5B",
"XF c None",
/* pixels */
"XFXFXFXFXFXFXFXFXFXFXFXFXFXFXFXFXFXFXF.LXxXg.O.CXcXFXFXFXFXFXFXF",
"XFXFXFXFXFXFXFXFXFXFXFXFXFXFXFXFXF.&.e | J fX>._X+ Z. XFXFXFXFXF",
"XFXFXFXFXFXFXFXFXFXFXFXFXFXFXF.Z.:.bXOXw PX*X* 8.c.J.m 2.gXFXFXF",
"XFXFXFXFXFXFXFXFXFXFXFXFXFXFX; &.# A.S.NXFXFXFXFXzX&.2Xa 5 4XFXF",
"XFXFXFXFXFXFXFXFXFXFXFXFXFXF., r $.wXFXFXs.j.j lXFXFX4X#XMX.XFXF",
"XFXFXFXFXFXFXFXFXFXFXFXFXF 3 U.o +XF.aX5 @X1X3XuX0XdXF K b.n vXF",
"XFXFXFXFXFXFXFXFXFXFXFXFXF NXl.AXF.(XoXA YXfXfXe o =.)XFX%.!.{XF",
"XFXFXFXFXFXFXFXFXFXFXFXF.= M.% VXFXN E l.;XFXFXV.d.9 IXFXvXqXnX=",
"XFXFXFXFXFXFXFXFXFXFXFXF..X$.BXF.p./X7XFXFXFXFXFXF W k }XF {.t ;",
"XFXFXFXFXFXFXFXFXFXFXFXF < H.lXF.hXS.aXFXFXFXFXFXF.f y >XF.x.M 1",
"XFXFXFXFXFXFXFXFXFXFXFXF.v.y.vXF.z 0.zXFXFXFXFXFXF.XX2 >XF.x ( 1",
"XFXFXFXFXFXFXFXFXFXFXFXF.vX-.vXF.z G.zXFXFXFXFXFXF q _ -XFXt %.x",
"XFXFXFXFXF.E 9 9.IX,XFXF.v  .vXF.z L.zXFXFXFXFXF.d ^.1XFXF #.*XZ",
" x.hXp >.z.E.F.H.T.i.R.E.z.z.z.z.z.z.z.z.z *.`.5.Q.VXhXF.'.~ eXF",
".j.8 - i.G.E j.}.|.}.E.E 0.Y u LX6 Q.3.7.7 ~.q.s O.+XFXy.r ]XjXF",
" m.h n >.z.E BX: S.U D.E.z.z.z.z.z.z.z.z.z g > :XVXF.k CXC.0XFXF",
"XFXFXFXFXF.E 9 9.I t pXF )X9 )XF.P.>.PXFXFXFXFXF T z ' a.4 [XFXF",
" x.hXp >.z.E.F.H.T.i.R.E.v.v.v.v.v.v.v.v.v /.] . `.u c X !XFXFXF",
".j.8 - i.G.E j.}.|.}.E.E.D.^.-.yX<Xi.W 7 7 7XB RXmXbXjXFXFXFXFXF",
" m.h n >.z.E BX: S.U D.E.v.v.v.v.v.v.v.v.vXr 1.@X8XFXFXFXFXFXFXF",
"XFXFXFXFXF.E.E.E.E D dXF.E.E.EXF.E.E.EXFXFXFXFXFXFXFXFXFXFXFXFXF",
"XFXFXFXFXFXFXFXFXFXFXFXF.6.E.E F.6.E.EXFXFXFXFXFXFXFXFXFXFXFXFXF",
"XFXFXFXFXFXFXFXFXFXFXF.UXD h.$.UXD h.$.EXFXFXFXFXFXFXFXFXFXFXFXF",
"XFXFXFXFXFXFXFXFXFXFXF.K.<.[Xk.K.<.[Xk.EXFXFXFXFXFXFXFXFXFXFXFXF",
"XFXFXFXFXFXFXFXFXFXFXF w sX  B w sX  B.EXFXFXFXFXFXFXFXFXFXFXFXF",
"XFXFXFXFXFXFXFXFXFXFXF.E ,XX S.E ,XX S.EXFXFXFXFXFXFXFXFXFXFXFXF",
"XFXFXFXFXFXFXFXFXFXFXF.E.E.E.E.E.E.E.E.EXFXFXFXFXFXFXFXFXFXFXFXF",
"XFXFXFXFXFXFXFXFXFXFXFXF.P 6.PXF.P 6.PXFXFXFXFXFXFXFXFXFXFXFXFXF",
"XFXFXFXFXFXFXFXFXFXFXFXF.j i.jXF.j i.jXFXFXFXFXFXFXFXFXFXFXFXFXF",
"XFXFXFXFXFXFXFXFXFXFXFXFX@.hX@XFX@.hX@XFXFXFXFXFXFXFXFXFXFXFXFXF",
"XFXFXFXFXFXFXFXFXFXFXFXF.j.8.jXF.j.8.jXFXFXFXFXFXFXFXFXFXFXFXFXF",
"XFXFXFXFXFXFXFXFXFXFXFXF }.h }XF }.h }XFXFXFXFXFXFXFXFXFXFXFXFXF"
};
