/* XPM */
static char * pidgin_xpm[] = {
"16 16 166 2",
"  	c None",
". 	c #481E4F",
"+ 	c #4D2054",
"@ 	c #522259",
"# 	c #56245F",
"$ 	c #5B2664",
"% 	c #602869",
"& 	c #431C49",
"* 	c #4C2054",
"= 	c #431C4A",
"- 	c #411C48",
"; 	c #421D49",
"> 	c #3D1A43",
", 	c #421C48",
"' 	c #3F1B46",
") 	c #3B1941",
"! 	c #461D4D",
"~ 	c #422049",
"{ 	c #8F6A97",
"] 	c #B18FB9",
"^ 	c #C4A5CB",
"/ 	c #B796BE",
"( 	c #9A78A2",
"_ 	c #4F2E54",
": 	c #3E1B45",
"< 	c #421C49",
"[ 	c #3D1A44",
"} 	c #5B3762",
"| 	c #BA98C2",
"1 	c #B58ABF",
"2 	c #A26DAF",
"3 	c #9A60A8",
"4 	c #A06AAD",
"5 	c #AE7FB9",
"6 	c #C0A0C8",
"7 	c #6C4B73",
"8 	c #3E1B44",
"9 	c #432049",
"0 	c #BB99C3",
"a 	c #A876B4",
"b 	c #985DA6",
"c 	c #9B61A8",
"d 	c #9D64AA",
"e 	c #9E66AB",
"f 	c #9F68AC",
"g 	c #A774B3",
"h 	c #C1A2C9",
"i 	c #4B2A51",
"j 	c #8E6996",
"k 	c #B78DC1",
"l 	c #B083BB",
"m 	c #EEE5F1",
"n 	c #F0E7F2",
"o 	c #C19DC9",
"p 	c #A672B2",
"q 	c #C7A6CE",
"r 	c #F5EFF6",
"s 	c #BFAAC4",
"t 	c #411C47",
"u 	c #B08DB8",
"v 	c #A875B3",
"w 	c #E6D8EA",
"x 	c #FFFFFF",
"y 	c #F1E9F3",
"z 	c #AD7EB8",
"A 	c #AF80B9",
"B 	c #F6F2F7",
"C 	c #401C47",
"D 	c #3C1A42",
"E 	c #C5A5CD",
"F 	c #A16CAE",
"G 	c #F9F5F9",
"H 	c #765E7A",
"I 	c #A595A8",
"J 	c #FBF9FC",
"K 	c #B489BE",
"L 	c #B68CC0",
"M 	c #705674",
"N 	c #AE9FB0",
"O 	c #513155",
"P 	c #3C1942",
"Q 	c #C6A6CD",
"R 	c #A16BAE",
"S 	c #E1D0E5",
"T 	c #6B516F",
"U 	c #9E8DA1",
"V 	c #E5D7E9",
"W 	c #9C74A7",
"X 	c #906A9A",
"Y 	c #684B6D",
"Z 	c #FCFAFC",
"` 	c #C2A0CA",
" .	c #A36EB0",
"..	c #AF83B9",
"+.	c #DCCDE0",
"@.	c #EADEEC",
"#.	c #966F9F",
"$.	c #EEE6DA",
"%.	c #D07E3C",
"&.	c #ECE5DB",
"*.	c #DDD3E0",
"=.	c #D2C2D5",
"-.	c #47214D",
";.	c #BC99C5",
">.	c #A46FB0",
",.	c #7F518B",
"'.	c #9E6E68",
").	c #976974",
"!.	c #8B5E79",
"~.	c #D59F69",
"{.	c #FBB558",
"].	c #D86C13",
"^.	c #955046",
"/.	c #A95732",
"(.	c #4D2855",
"_.	c #B792BF",
":.	c #9A62A7",
"<.	c #794C7B",
"[.	c #DEA76A",
"}.	c #FDC26A",
"|.	c #F57900",
"1.	c #F37901",
"2.	c #894B4A",
"3.	c #401D45",
"4.	c #3F1B45",
"5.	c #B089B9",
"6.	c #A36EAF",
"7.	c #965AA4",
"8.	c #7F4E89",
"9.	c #A3746A",
"0.	c #D49F69",
"a.	c #F4BA6A",
"b.	c #D06918",
"c.	c #8B4D50",
"d.	c #825D8A",
"e.	c #A27EAA",
"f.	c #A26DAE",
"g.	c #8F509E",
"h.	c #9154A0",
"i.	c #9457A2",
"j.	c #91579F",
"k.	c #855092",
"l.	c #774784",
"m.	c #814D8D",
"n.	c #A16DAD",
"o.	c #B596BD",
"p.	c #432149",
"q.	c #724E79",
"r.	c #9763A4",
"s.	c #864995",
"t.	c #8A4D98",
"u.	c #8C519A",
"v.	c #8E549C",
"w.	c #8F559D",
"x.	c #8F569D",
"y.	c #8D539B",
"z.	c #A273AC",
"A.	c #8E6697",
"B.	c #3F1C45",
"C.	c #572D60",
"D.	c #72407D",
"E.	c #784484",
"F.	c #80498C",
"G.	c #844C91",
"H.	c #683872",
"I.	c #421E48",
"    . + @ # $ %                 ",
"  & . * = - ; > , ' )           ",
"  & ! > ~ { ] ^ / ( _ : )       ",
"  < [ } | 1 2 3 4 5 6 7 8       ",
"  ) 9 0 a b c d e f g h i )     ",
"  ' j k l m n o p g q r s '     ",
"  t u v w x x y z A n x B C     ",
"  D E F G H I J K L M N x O )   ",
"  P Q R S T U V W X Y N Z 9     ",
"  > `  ...+.@.#.$.%.&.*.=.-.    ",
"  [ ;.>.,.'.).!.~.{.].^./.(.    ",
"  : _. .:.<.[.}.}.}.|.1.2.3.    ",
"  4.5.6.7.b 8.9.0.a.b.c.d.P     ",
"  t e.f.g.h.i.j.k.l.m.n.o.p.)   ",
"  D q.r.s.t.u.v.w.x.w.y.z.A.B.) ",
"  ) C.D.E.F.G.G.G.G.G.G.G.G.H.I."};
