/* XPM */
static char *pioneers_xpm[] = {
/* width height ncolors chars_per_pixel */
"48 48 364 2",
/* colors */
"   c black",
" . c #241A11",
" X c #120E0B",
" o c #000200",
" O c #5C0000",
" + c #000300",
" @ c #000400",
" # c #241D16",
" $ c #000500",
" % c #000600",
" & c #000700",
" * c #000800",
" = c #000900",
" - c #000A00",
" ; c #FF584B",
" : c #483E34",
" > c #000D00",
" , c #000F00",
" < c #001000",
" 1 c #FF5E50",
" 2 c #001200",
" 3 c #7E6A5A",
" 4 c #001400",
" 5 c #001500",
" 6 c #6F0000",
" 7 c #001800",
" 8 c #FF6758",
" 9 c #130605",
" 0 c #001B00",
" q c #380000",
" w c #6D4724",
" e c #5B3B1F",
" r c #001E00",
" t c #002000",
" y c #002100",
" u c #010000",
" i c #C6A990",
" p c #FF705F",
" a c #380807",
" s c #010500",
" d c #002700",
" f c #FF7664",
" g c #FCD7B7",
" h c #FF7B68",
" j c #7F6757",
" k c #6D5C4E",
" l c #260C0B",
" z c #6D5E4F",
" x c #003600",
" c c #003900",
" v c #003A00",
" b c #B6773D",
" n c #390000",
" m c #A38B76",
" M c #FF8974",
" N c #003D00",
" B c #5C3F25",
" V c #140D07",
" C c #C7AA90",
" Z c #5E0000",
" A c #020301",
" S c #004700",
" D c #020600",
" F c #EBC9AA",
" G c #004B00",
" H c #FDD8B8",
" J c #004C00",
" K c #004D00",
" L c #FF9A83",
" P c #004F00",
" I c #005000",
" U c #005100",
" Y c #005500",
" T c #005700",
" R c #710000",
" E c #150300",
" W c #5C5643",
" Q c #005B00",
" ! c #A56C37",
" ~ c #005E00",
" ^ c #FFAA90",
" / c #A48C77",
" ( c #013E01",
" ) c #FFAB91",
" _ c #006000",
" ` c #006200",
" ' c #B69C84",
" ] c #FFAE94",
" [ c #006300",
" { c #C8AB91",
" } c #392822",
" | c #006600",
".  c #030302",
".. c #006700",
".X c #030402",
".o c #DABA9E",
".O c #006800",
".+ c #ECC7A8",
".@ c #006900",
".# c #ECCAAB",
".$ c #006C00",
".% c #FFB89C",
".& c #006F00",
".* c #007100",
".= c #4D0000",
".- c #007200",
".; c #007300",
".: c #280908",
".> c #5D5043",
"., c #007700",
".< c #015701",
".1 c #007900",
".2 c #720000",
".3 c #4B4836",
".4 c #FFC5A7",
".5 c #007B00",
".6 c #160402",
".7 c #007C00",
".8 c #007D00",
".9 c #007E00",
".0 c #937E6B",
".q c #A66C37",
".w c #007F00",
".e c #FFCAAB",
".r c web green",
".t c #946131",
".y c #82552B",
".u c #5E3D20",
".i c #704B29",
".p c #040000",
".a c #281B0E",
".s c #040202",
".d c #281B17",
".f c #600000",
".g c #DBBB9F",
".h c peach puff",
".j c #4E0000",
".k c #730000",
".l c #3C0000",
".z c #B9793E",
".x c #A76D38",
".c c #956132",
".v c #050000",
".b c #050302",
".n c #050403",
".m c #DCBCA0",
".M c #050804",
".N c PeachPuff2",
".B c #050B03",
".V c #2A0605",
".C c #5F5145",
".Z c #84562C",
".A c #060000",
".S c #724C29",
".D c #3C2714",
".F c #181008",
".G c #060402",
".H c #060403",
".J c #2A1E1A",
".K c #18120F",
".L c #044803",
".P c #060700",
".I c #181812",
".U c #181B11",
".Y c #190000",
".T c #061604",
".R c #750000",
".E c #190302",
".W c #847160",
".Q c #976232",
".! c #85572C",
".~ c #734B26",
".^ c #A8907A",
"./ c #070000",
".( c #182F12",
".) c #3D2814",
"._ c #191008",
".` c #070402",
".' c #070403",
".] c #070502",
".[ c #070600",
".{ c #19140F",
".} c #3D2F28",
".| c #F0CDAE",
"X  c #070F05",
"X. c #760000",
"XX c #97816E",
"Xo c #BC7B3F",
"XO c #986333",
"X+ c #2C1815",
"X@ c #A9907B",
"X# c #744C26",
"X$ c #744C27",
"X% c #624021",
"X& c #640000",
"X* c #BBA088",
"X= c #193212",
"X- c #080502",
"X; c #080503",
"X: c #080604",
"X> c #080806",
"X, c #080A06",
"X< c #073C05",
"X1 c #400000",
"X2 c #867361",
"X3 c #BD7B3F",
"X4 c #98836E",
"X5 c #090000",
"X6 c #754C27",
"X7 c #634325",
"X8 c #BCA188",
"X9 c #2D1E0F",
"X0 c #090503",
"Xq c #1B1208",
"Xw c #090603",
"Xe c #090604",
"Xr c #3F2E1F",
"Xt c #074B05",
"Xy c #F2CFB0",
"Xu c #3F332B",
"Xi c #1B1B14",
"Xp c #530201",
"Xa c #635243",
"Xs c #410000",
"Xd c #BE7C3F",
"Xf c #AC7039",
"Xg c #99836F",
"Xh c #0A0000",
"Xj c #88592D",
"Xk c #2E1A16",
"Xl c #764D27",
"Xz c #AB927C",
"Xx c #0A0404",
"Xc c #2E1F0F",
"Xv c #0A0603",
"Xb c #0A0604",
"Xn c #0A0704",
"Xm c #0A0806",
"XM c #E1C0A3",
"XN c #2F0504",
"XB c #52463B",
"XV c #765F50",
"XC c #790000",
"XZ c #BF7D40",
"XA c #AD713A",
"XS c #0B0000",
"XD c #AC927C",
"XF c #670000",
"XG c #0B0703",
"XH c #0B0704",
"XJ c #094A07",
"XK c #412F20",
"XL c #1D1813",
"XP c #0B0C08",
"XI c #550000",
"XU c #534437",
"XY c #53443A",
"XT c #7A0000",
"XR c #301310",
"XE c #776656",
"XW c #C07D40",
"XQ c #0C0000",
"X! c #9B8570",
"X~ c #9C6634",
"X^ c #680000",
"X/ c #0C0605",
"X( c #BFA38B",
"X) c #302010",
"X_ c #0C0704",
"X` c #0C0907",
"X' c #1E160F",
"X] c #1E1613",
"X[ c #1E1713",
"X{ c #E3C2A5",
"X} c #F5D1B2",
"X| c #310C0A",
"o  c #7B0000",
"o. c #C17E40",
"oX c #0B4408",
"oo c #55361C",
"oO c #AE957E",
"o+ c #55391F",
"o@ c #D2B498",
"o# c #1F1B16",
"o$ c #570000",
"o% c #F6D2B2",
"o& c #433931",
"o* c #0D150A",
"o= c #7C0000",
"o- c #0D1909",
"o; c #796758",
"o: c #C27E41",
"o> c #B0733B",
"o, c #6A0000",
"o< c #9D8671",
"o1 c #9E6735",
"o2 c #7A5029",
"o3 c #0E0503",
"o4 c #AF967F",
"o5 c #56391C",
"o6 c #322010",
"o7 c #330000",
"o8 c #20150B",
"o9 c #C1A58C",
"o0 c #0E0905",
"oq c #0E0A06",
"ow c #D3B499",
"oe c #580000",
"or c #322B24",
"ot c #7D0000",
"oy c #460000",
"ou c #460101",
"oi c #C37F41",
"op c #6B0000",
"oa c #9F6835",
"os c #8D5C2F",
"od c #7B5029",
"of c #57381D",
"og c #0F0603",
"oh c #340000",
"oj c #332211",
"ok c #0F0905",
"ol c #0F0A05",
"oz c #21170D",
"ox c #D4B59A",
"oc c #590000",
"ov c #0F130B",
"ob c #453B32",
"on c #34120F",
"om c #0E400A",
"oM c #8D7966",
"oN c #6C0000",
"oB c #A06835",
"oV c #100400",
"oC c #583A1D",
"oZ c #F9CAAC",
"oA c #100A05",
"oS c #100B07",
"oD c #221C16",
"oF c #F9D5B5",
"oG c #230101",
"oH c #230200",
"oJ c #7F0000",
"oK c #6A5B4D",
"oL c #6D0000",
"oP c #8F5D30",
"oI c #110706",
"oU c #6B4625",
"oY c #D6B79B",
"oT c #FAD5B6",
"oR c web maroon",
"oE c #6B5B4E",
"oW c #7D6B5B",
"oQ c #FF4339",
"o! c #8F7A68",
"o~ c #FF453B",
"o^ c #FF473C",
"o/ c #905E30",
"o( c #A18A75",
"o) c #FF4A3F",
"o_ c #24180C",
"o` c #C5A88F",
"o' c #FF4D41",
"o] c None",
/* pixels */
"o]o]o]o]o]o]o]o]o]o]o]o]o]o]o]o]o]o]o]o]o]o]o].A.Ao]o]o]o]o]o]o]o]o]o]o]o]o]o]o]o]o]o]o]o]o]o]o]",
"o]o]o]o]o]o]o]o]o]o]o]o]o]o]o]o]o]o]o]o]o]X5XSXIXIXSX5o]o]o]o]o]o]o]o]o]o]o]o]o]o]o]o]o]o]o]o]o]",
"o]o]o]o]o]o]o]o]o]o]o]o]o]o]o]o]o]o]o].v.voyotoRoRotoy.v.vo]o]o]o]o]o]o]o]o]o]o]o]o]o]o]o]o]o]o]",
"o]o]o]o]o]o]o]o]o]o]o]o]o]o]o]o]o]o].pohX.oRoRoRoRoRoRX.o7.po]o]o]o]o]o]o]o]o]o]o]o]o]o]o]o]o]o]",
"o]o]o]o]o]o]o]o]o]o]o]o]o]o]o]o]./.YXFoRoRoRoRoRoRoRoRoRoRXF.Y.Ao]o]o]o]o]o]o]o]o]o]o]o]o]o]o]o]",
"o]o]o]o]o]o]o]o]o]o]o]o]o]o].vXhocoRoRoRoRoRoRoRoRoRoRoRoRoRoRocXh.vo]o]o]o]o]o]o]o]o]o]o]o]o]o]",
"o]o]o]o]o]o]o]o]o]o]o]o]o].v nXCoRoRoRoRoRoRoRoRoRoRoRoRoRoRoRoRXC q.vo]o]o]o]o]o]o]o]o]o]o]o]o]",
"o]o]o]o]o]o]o]o]o]o]o]o].AoLoRoRoRoRoRoRoRoRoRoRoRoRoRoRoRoRoRoRoRoRoL.Ao]o]o]o]o]o]o]o]o]o]o]o]",
"o]o]o]o]o]o]o]o]o]o]o]o]XQoRoRoRoRoRoRoRoRoRoN.j.= Oo=oRoRoRoRoRoRoRoRXQo]o]o]o]o]o]o]o]o]o]o]o]",
"o]o]o]o]o]o]o]o]o]o]o]o]XQoRoRoRoRoRoRoRo XN  .KX[.H 9X&oRoRoRoRoRoRoRXQo]o]o]o]o]o]o]o]o]o]o]o]",
"o]o]o]o]o]o]o]o]o]o]o]o]XQoRoRoRoRoRoRoJ.:Xuox.h.hXyX2X/X^oRoRoRoRoRoRXQo]o]o]o]o]o]o]o]o]o]o]o]",
"o]o]o]o]o]o]o]o]o]o]o]o]XQoRoRoRoRoRoRXp.}oF.h.e.%.h.h m loRoRoRoRoRoRXQo]o]o]o]o]o]o]o]o]o]o]o]",
"o]o]o]o]o]o]o]o]o]o]o]o]XQoRoRoRoRoRoRXRoY.h ]o~ f ;.h.h } RoRoRoRoRoRXQo]o]o]o]o]o]o]o]o]o]o]o]",
"o]o]o]o]o]o]o]o]o]o]o]o]XQoRoRoRoRoRoRXk.h.h L h.eo).h.h j OoRoRoRoRoRXQo]o]o]o]o]o]o]o]o]o]o]o]",
"o]o]o]o]o]o]o]o]o]o]o]o]XQoRoRoRoRoRoRX+.h.h.4o)o' M.h.hXV ZoRoRoRoRoRXQo]o]o]o]o]o]o]o]o]o]o]o]",
"o]o]o]o]o]o]o]o]o]o]o]o]XQoRoRoRoRoRoRon C.h p ^.hoQ.h H.d.RoRoRoRoRoRXQo]o]o]o]o]o]o]o]o]o]o]o]",
"o]o]o]o]o]o]o]o]o]o]o]o]XQoRoRoRoRoRoR O.J.N )o^ 8 1.h 3X|oRoRoRoRoRoRXQo]o]o]o]o]o]o]o]o]o]o]o]",
"o]o]o]o]o]o]o]o]o]o]o]o]XQoRoRoRoRoRoRoR aX]o(.+oZ iXYoI.koRoRoRoRoRoRXQo]o]o]o]o]o]o]o]o]o]o]o]",
"o]o]o]o]o]o]o]o]o]o]o]o]XQoRoRoRoRoRoRoRoJouXx     u.V.2oRoRoRoRoRoRoRXQo]o]o]o]o]o]o]o]o]o]o]o]",
"o]o]o]o]o]o]o]o]o]o]o]o]XQoRoRoRoRoRoRoRoRoRo .f Z 6oRoRoRoRoRoRoRoRoRXQo]o]o]o]o]o]o]o]o]o]o]o]",
"o]o]o]o]o]o]o]o]o]o]o].sX;XsoRoRoRoRoRoRoRoRoRoRoRoRoRoRoRoRoRoRoRoRXs s @o]o]o]o]o]o]o]o]o]o]o]",
"o]o]o]o]o]o]o]o]o]o]XGXcXl Vogo$oRoRoRoRoRoRoRoRoRoRoRoRoRoRoRoRoe.P > K r *o]o]o]o]o]o]o]o]o]o]",
"o]o]o]o]o]o]o]o]X:Xqo/oioiXWX#XH.6o,oRoRoRoRoRoRoRoRoRoRoRoRopoV & J.9.r.r ~ 2 *o]o]o]o]o]o]o]o]",
"o]o]o]o]o]o]XwXHX#XWoioioioioi bo5.GoGXCoRoRoRoRoRoRoRoRXToH $ c.,.r.r.r.r.r.9 J & %o]o]o]o]o]o]",
"o]o]o]o].s.GoC boioioioioioioioioi !o6X0.loRoRoRoRoRoRX1 D t.$.r.r.r.r.r.r.r.r.r., v $o]o]o]o]o]",
"o]o]o]Xwoj.qoioioioioioioioioioioioioioP.Fo3o$oRoR O.[ < ~.r.r.r.r.r.r.r.r.r.r.r.r.r.$ y &o]o]o]",
"o]X0._oPoioioioioioioioioioioioioioioioiXZ.~XG.E E & G.8.r.r.r.r.r.r.r.r.r.r.r.r.r.r.r.r ~ < &o]",
"XHofX3oioioioioioioioioioioioioioioioioioioio>X9 ,.;.r.r.r.r.r.r.r.r.r.r.r.r.r.r.r.r.r.r.r.7 c *",
"ol.coioioioioioioioiXd.coPoao:oioioioioioioioiX% t.r.r.r.r.r.r.r.r.w.O ~ [.9.r.r.r.r.r.r.r.r ` -",
"ol.coioioioioioioiX$oq      ozXOoioioioioioioiX% t.r.r.r.r.r.r.r `.T      X  P.r.r.r.r.r.r.r ` -",
"ol.coioioioioioioU Xo!X{ go@ kXmXOoioioioioioiX% t.r.r.r.r.r.r `.M zow gX{oMXP.L.r.r.r.r.r.r ` -",
"ol.coioioioioi.x.{.m.h.h.|o%.hXz .o.oioioioioiX% t.r.r.r.r.r.9o-oO.h.h.#XM.h.oov.&.r.r.r.r.r ` -",
"ol.coioioioioiX7o<.h.hXyorXz.h.hXU.toioioioioiX% t.r.r.r.r.r _.3.h.ho`.C.W.0.hX4oX.r.r.r.r.r ` -",
"ol.coioioioioiXK.#.h.hoWo!Xz.h.h.^.SoioioioioiX% t.r.r.r.r.rXtX@.h.ho;ow.ho&.h FX=.r.r.r.r.r ` -",
"ol.coioioioioiXrXy.hX( / mXz.h.hoO.ioioioioioiX% t.r.r.r.r.rXJo4.h.h 'oKX!o#.h.|.(.r.r.r.r.r ` -",
"ol.coioioioioi BXD.hoWoEob :o%.hXaosoioioioioiX% t.r.r.r.r.r Q W.h.h.h.moxXB.h.^om.r.r.r.r.r ` -",
"ol.coioioioioio1 #.#.h.h mXz.ho`X'XdoioioioioiX% t.r.r.r.r.r.7o* {.h.gXE.>o9 F.U.O.r.r.r.r.r ` -",
"ol.coioioioioioio+oDX8 g.hX}XXX`XjoioioioioioiX% t.r.r.r.r.r.r.<X,XgX}XyoTX*XiX<.r.r.r.r.r.r ` -",
"ol.coioioioioioio. e. XmXL.noS.ZoioioioioioioiX% t.r.r.r.r.r.r.r Y.B.X.IX> A (.w.r.r.r.r.r.r ` -",
"ol.coioioioioioioioiXAodX6.!.zoioioioioioioioiX% t.r.r.r.r.r.r.r.r.1 T K U.-.r.r.r.r.r.r.r.r ` -",
"o0 woioioioioioioioioioioioioioioioioioioioiXo.) 4.5.r.r.r.r.r.r.r.r.r.r.r.r.r.r.r.r.r.r.r.r S =",
"o].]o_o1oioioioioioioioioioioioioioioioioi.yol.' @ - Y.r.r.r.r.r.r.r.r.r.r.r.r.r.r.r.r.r.. 7 $o]",
"o]o]o]X-.DXfoioioioioioioioioioioioioi.Qo8Xbo]o]o]o] % 5 [.r.r.r.r.r.r.r.r.r.r.r.r.r.* d $o]o]o]",
"o]o]o]o].G.`.uX3oioioioioioioioioiXf.DX-o]o]o]o]o]o]o]o] $ d.*.r.r.r.r.r.r.r.r.r.7 N @ oo]o]o]o]",
"o]o]o]o]o]o]Xnoko2oioioioioioiX3.u.`.Go]o]o]o]o]o]o]o]o]o] @ @ N.7.r.r.r.r.r.r I = &o]o]o]o]o]o]",
"o]o]o]o]o]o]o]o]Xe.aoBoioioio2oAX_o]o]o]o]o]o]o]o]o]o]o]o]o]o] & - I.r.r.r.@ 0 %o]o]o]o]o]o]o]o]",
"o]o]o]o]o]o]o]o]o]o].GooX~X).]o]o]o]o]o]o]o]o]o]o]o]o]o]o]o]o]o]o] $ t | x @o]o]o]o]o]o]o]o]o]o]",
"o]o]o]o]o]o]o]o]o]o]o]Xv.bo]o]o]o]o]o]o]o]o]o]o]o]o]o]o]o]o]o]o]o]o]o] + %o]o]o]o]o]o]o]o]o]o]o]"
};
