/* XPM */
static char * plutonia_xpm[] = {
"32 32 21 1",
" 	c None",
".	c #202020",
"+	c #1F170F",
"@	c #303F20",
"#	c #2F200F",
"$	c #302810",
"%	c #2F2F2F",
"&	c #202720",
"*	c #100F00",
"=	c #101F00",
"-	c #3F2F10",
";	c #1F181F",
">	c #702800",
",	c #804000",
"'	c #9F5810",
")	c #AF781F",
"!	c #C0982F",
"~	c #D0B840",
"{	c #4F371F",
"]	c #20280F",
"^	c #2F371F",
"..+@+#.#...#$+%+$$##.....+%+..&+",
"..+*+#.#.#.##=*=--.......+*+..&+",
".#.##..##...#$-$$$......#$-.#.&+",
"....#......###.####&.&&&......$+",
"#...###.....##.#..#.&&&&......&+",
"#....#...;;;;;;;;;;;;;......#.&+",
"##....##.;>,''''''',>;........&+",
".#....##.;')!)))~~!),;#.&.....&+",
"....###..;')!))';;-;';..#.....#+",
"##.####..;')!)'{;;-'';..#.....$+",
"###..##.#&')!';{;;')'&#...#...&+",
"#.#.#.#..&')';;{''!)'&.#.....#&+",
"####.....&''-;;'~~!)'&.....##.&+",
"###......&')-;;{;;-''&.....#..&+",
"#.+@+....&')!';-;;')'&#.#+@+#.&+",
"#.+@+....&')!';-;;')'&#.#+@+#.&+",
"#.+*+#...&')';;-''!)'&#.-+*+$.&+",
"#.;;;#.#.%''-;;'~~!)'%].$$-$$.&+",
"#..##...#%';-;;-;;-)'%^..$$$#.&+",
"..##.#.#.%'))!!';;))'@@]..#...&+",
"..##.#.#.%')'!'-!!))'^@]..#...&+",
"..##...#.%')'';)))')'@^.###...#+",
"..##...#.%'),;)'))'',@]...#...$+",
"..##...##%,,,,,''',,,%].###...&+",
"..##...#.&%%%%%%%%%%%&...#....&+",
".....#..#.#&&&&&&&&&.#........&+",
".....##.#...##.....#.#........&+",
"...##..#....#..###....#.##....&+",
"..+@+.####..#+%+......#.#+&+..&+",
"..+*+...#....+*+##......#+*+..&+",
"#..#....#.......##..........#.&+",
"]]]##]]]]]]#]]]]]]]]#]]]]]]]#]]+"};
