/* XPM */
static char *qjackctl_xpm[] = {
/* width height ncolors chars_per_pixel */
"32 32 157 2",
/* colors */
"   c #AFAFAF",
" . c #6C6600",
" X c #9C8B18",
" o c #877F00",
" O c #2D240B",
" + c #A5A5A5",
" @ c #1F1907",
" # c #392D10",
" $ c #8C823D",
" % c #554C3C",
" & c #C4C4C0",
" * c #303028",
" = c #0F0E01",
" - c #74664D",
" ; c #EDEDE8",
" : c #8E5E00",
" > c #595A5A",
" , c #8B8B8B",
" < c #ACA948",
" 1 c #0B0B0A",
" 2 c #838383",
" 3 c #5D5701",
" 4 c #594C32",
" 5 c #AFAEAE",
" 6 c #2C2509",
" 7 c #A5A583",
" 8 c #908475",
" 9 c #FEFEF8",
" 0 c #BE9800",
" q c #A0A09F",
" w c #837F33",
" e c #100F01",
" r c #7D7437",
" t c #2A2A2B",
" y c #F3F2D9",
" u c #5B5B5B",
" i c gray35",
" p c #85846D",
" a c #160E00",
" s c #515151",
" d c #D3CD2B",
" f c #271A00",
" g c #494949",
" h c #83662C",
" j c #AC9C89",
" k c gray23",
" l c #ECECEC",
" z c #C6B6A9",
" x c #221B08",
" c c #393939",
" v c gray20",
" b c #E4E4E4",
" n c #9A9742",
" m c #313131",
" M c #2F2F2F",
" N c #F5F4B9",
" B c #2D2D2D",
" V c #615D00",
" C c gray16",
" Z c #BF9F2E",
" A c #3A3633",
" S c #232323",
" D c gray13",
" F c #695C40",
" G c #111004",
" H c #1D1D1D",
" J c #262112",
" K c #C6C6C6",
" L c #A59714",
" P c #131313",
" I c gray76",
" U c #0B0B0B",
" Y c #0A0B0A",
" T c #090909",
" R c gray72",
" E c gray2",
" W c gray1",
" Q c #B2B2B2",
" ! c #171306",
" ~ c #AEAEAE",
" ^ c #C1BD25",
" / c #CECD9F",
" ( c #AAAAAA",
" ) c #3D3D35",
" _ c #1A150C",
" ` c #BEBD8F",
" ' c #7D5300",
" ] c #0F0F01",
" [ c gray59",
" { c #322C20",
" } c #929292",
" | c #6E6C68",
".  c #8E8E8E",
".. c #A08622",
".X c gray55",
".o c #141109",
".O c #0B0A0A",
".+ c #B4B492",
".@ c #DEDED9",
".# c #725723",
".$ c #704A00",
".% c #C19900",
".& c #A67400",
".* c #272218",
".= c #2E260B",
".- c #6B6615",
".; c #C4B4A8",
".: c #B1AC28",
".> c #686868",
"., c #998917",
".< c #626262",
".1 c #775E24",
".2 c #C5C5A2",
".3 c #ADA827",
".4 c #817313",
".5 c #F1BD00",
".6 c #79694A",
".7 c #0D0C01",
".8 c #4C4C4C",
".9 c #DDAF00",
".0 c #464646",
".q c #444444",
".w c gray26",
".e c #97831B",
".r c #936700",
".t c #2E1E00",
".y c #936100",
".u c gray21",
".i c #E7E7E7",
".p c #1B130B",
".a c #343434",
".s c gray90",
".d c #ACA722",
".f c gray19",
".g c gray18",
".h c #2C2C2C",
".j c #CBCBC8",
".k c #2A2A2A",
".l c #282828",
".z c gray15",
".x c gray14",
".c c #222222",
".v c #1E1E1E",
".b c gray10",
".n c #161616",
".m c gray8",
".M c #3A3801",
".N c #C3C3C3",
".B c #B1B1AE",
".V c #14110A",
".C c gray4",
".Z c #BBBBBB",
".A c #79720D",
".S c gray3",
".D c #746712",
".F c #0A0700",
".G c None",
/* pixels */
".G.G.G.G.G.G.G.G.G.G.G.G.G.G.G.G.G.G.G.G.G.G.G.G.G.G.G.G.G.G.G.G",
".G.G W W.G.G.G.G.G.G.G.G.G.G.G.G.G.G.G.G.G.G.G.G.G.G.G.G.G.G.G.G",
".G E 2 Q.x.G.G.G.G.G.G.G.G.G.G.G.G.G.G.G.G.G.G.G.G.G.G.G.G.G.G.G",
".G P.a.  Q.c W.G.G.G.G.G.G.G.G.G.G.G.G.G.G.G.G.G.G.G.G.G.G.G.G.G",
".G.G.b v | 8.; A.G.G.G.G.G.G.G.G.G.G.G.G.G.G.G.G.G.G.G.G.G.G.G.G",
".G.G.G.n F - j z A W W W.G.G.G.G.G.G.G.G.G.G.G.G.G.G.G.G.G.G.G.G",
".G.G.G W {.6 - W W p.:.D @.G.G.G.G.G.G.G.G.G.G.G.G.G.G.G.G.G.G.G",
".G.G.G.G.S { W % 5 & / d X O.G.G.G.G.G.G.G.G.G.G.G.G.G.G.G.G.G.G",
".G.G.G.G.G.S.* U M.N 9 N d X.=.G.G.G.G.G.G.G.G.G.G.G.G.G.G.G.G.G",
".G.G.G.G.G W.M.7.C.w K 9 N d X.=.G.G.G.G.G.G.G.G.G.G.G.G.G.G.G.G",
".G.G.G.G.G W 0 V ].C.w K 9 N d X.=.G.G.G.G.G.G.G.G.G.G.G.G.G.G.G",
".G.G.G.G.G W.$.9 o e Y.w K 9 N d X.=.G.G.G.G.G.G.G.G.G.G.G.G.G.G",
".G.G.G.G.G.G.F :.5 o e Y.w K 9 N d., x.G.G.G.G.G.G.G.G.G.G.G.G.G",
".G.G.G.G.G.G.G a.y.5 o e Y.w K ; `.3.4 !.G.G.G.G.G.G.G.G.G.G.G.G",
".G.G.G.G.G.G.G.G a.y.5 o e.O k q.@ 7 n $ J.G.G.G.G.G.G.G.G.G.G.G",
".G.G.G.G.G.G.G.G.G a.y.5 o = T c }.j.2 < r.o.G.G.G.G.G.G.G.G.G.G",
".G.G.G.G.G.G.G.G.G.G a.y.5 . G.f i +.B.+ ^ L 6.G.G.G.G.G.G.G.G.G",
".G.G.G.G.G.G.G.G.G.G.G a.y.%.- ) c.q I y.d.e #.G.G.G.G.G.G.G.G.G",
".G.G.G.G.G.G.G.G.G.G.G.G a '.. w * 1 g R > 4.p.G.G.G.G.G.G.G.G.G",
".G.G.G.G.G.G.G.G.G.G.G.G.G a.# Z.A 3.v s.i.Z C.G.G.G.G.G.G.G.G.G",
".G.G.G.G.G.G.G.G.G.G.G.G.G.G _ h.&.r >.h s.i.Z C.G.G.G.G.G.G.G.G",
".G.G.G.G.G.G.G.G.G.G.G.G.G.G.G.V f h.1 ~.h s.i.Z C.G.G.G.G.G.G.G",
".G.G.G.G.G.G.G.G.G.G.G.G.G.G.G.G >.t W B ~.h s.i.Z.k.G.G.G.G.G.G",
".G.G.G.G.G.G.G.G.G.G.G.G.G.G.G.G.G.G.G.G B ~.h s.i.Z.k.G.G.G.G.G",
".G.G.G.G.G.G.G.G.G.G.G.G.G.G.G.G.G.G.G.G.G B  .h s [ i.v.G.G.G.G",
".G.G.G.G.G.G.G.G.G.G.G.G.G.G.G.G.G.G.G.G.G.G.g   S.z.s.Z t.G.G.G",
".G.G.G.G.G.G.G.G.G.G.G.G.G.G.G.G.G.G.G.G.G.G.G.g.0.h s.X u.l.G.G",
".G.G.G.G.G.G.G.G.G.G.G.G.G.G.G.G.G.G.G.G.G.G.G.G D  .v B l ( >.G",
".G.G.G.G.G.G.G.G.G.G.G.G.G.G.G.G.G.G.G.G.G.G.G.G.G.g m.8.> b H.G",
".G.G.G.G.G.G.G.G.G.G.G.G.G.G.G.G.G.G.G.G.G.G.G.G.G.G T.q.< , >.G",
".G.G.G.G.G.G.G.G.G.G.G.G.G.G.G.G.G.G.G.G.G.G.G.G.G.G.G >.m.u ,.G",
".G.G.G.G.G.G.G.G.G.G.G.G.G.G.G.G.G.G.G.G.G.G.G.G.G.G.G.G.G.G.G.G"
};
