/* XPM */
static char *qmidinet_xpm[] = {
/* width height ncolors chars_per_pixel */
"32 32 258 2",
/* colors */
"   c black",
" . c #B1B1B1",
" X c #9F9F9C",
" o c #908B8A",
" O c #AFAFAF",
" + c #323331",
" @ c #9C9B99",
" # c #211D1D",
" $ c #9B9B98",
" % c gray67",
" & c #DCC604",
" * c dark grey",
" = c #D6D8D5",
" - c #595A57",
" ; c #D4D6D3",
" : c #9D9D9D",
" > c #545052",
" , c #525250",
" < c #1C1D1B",
" 1 c #060302",
" 2 c #4B4A49",
" 3 c gray56",
" 4 c #6F6B69",
" 5 c #484846",
" 6 c #CE8900",
" 7 c #8D8D8D",
" 8 c #10110F",
" 9 c #7F7E72",
" 0 c #C0C2BF",
" q c #424040",
" w c #413E3F",
" e c #BABCB9",
" r c #787040",
" t c #B7BAB6",
" y c #020101",
" u c #363634",
" i c #746932",
" p c #151703",
" a c #262117",
" s c #28240F",
" d c #9A9896",
" f c #3F3E40",
" g c #D9C300",
" h c #6D6D6D",
" j c #363637",
" k c #353636",
" l c #232221",
" z c #9E9E9D",
" x c #EAE877",
" c c #C88500",
" v c #110E0C",
" b c #8C8A88",
" n c #FDFEFA",
" m c #F3EF79",
" M c #050000",
" N c #141212",
" B c #7E7C7A",
" V c gray34",
" C c #6A5B42",
" Z c #767472",
" A c #46452F",
" S c #FEFEFE",
" D c gray99",
" F c #F9FCF9",
" G c gray98",
" H c #020000",
" J c #F7FAF7",
" K c #6C6A68",
" L c #B0B1AE",
" P c #AFAFAD",
" I c #696665",
" U c #757674",
" Y c gray94",
" T c #EDF0ED",
" R c #635E5F",
" E c #DCDCD9",
" W c #6E654C",
" Q c #ECECEC",
" ! c #969391",
" ~ c #1A1714",
" ^ c #A5A5A3",
" / c #837F7B",
" ( c #252522",
" ) c #9F9F9D",
" _ c #E4E4E4",
" ` c #323132",
" ' c #201F1D",
" ] c #9B9B99",
" [ c #999997",
" { c #2D2D2D",
" } c #969794",
" | c gray17",
".  c gainsboro",
".. c #AEA370",
".X c #D9DCD9",
".o c #262526",
".O c #242524",
".+ c #2D2519",
".@ c #8B8B89",
".# c #545453",
".$ c #0E0D0B",
".% c #898987",
".& c #41403D",
".* c gray80",
".= c #C8C8C8",
".- c #151715",
".; c #716D6C",
".: c #4B4A4A",
".> c #B4B4B1",
"., c #030100",
".< c gray77",
".1 c #484847",
".2 c #615624",
".3 c gray76",
".4 c gray",
".5 c #B9AC0D",
".6 c #D2D1CB",
".7 c #BDBEBD",
".8 c #6C6032",
".9 c #BBBEBB",
".0 c #757573",
".q c gray73",
".w c #727370",
".e c gray72",
".r c #050705",
".t c #EBEDEA",
".y c #7C6F66",
".u c #B6B6B6",
".i c #B4B4B4",
".p c #010301",
".a c #E7E9E6",
".s c #B2B2B2",
".d c #000100",
".f c #343633",
".g c #353434",
".h c #AD9F8C",
".j c #201C1C",
".k c #AAAAAA",
".l c gray66",
".z c #282A27",
".x c #FCFEF7",
".c c #706146",
".v c #D7D9D6",
".b c #3D3800",
".n c #A0A0A0",
".m c #9DA09D",
".M c #20201F",
".N c #7E6C4D",
".B c #180E00",
".V c #888885",
".C c #040600",
".Z c #050201",
".A c #909090",
".S c #040000",
".D c #494747",
".F c #8E8E8E",
".G c #141709",
".H c #474545",
".J c #8B8C8B",
".K c gray54",
".L c #888888",
".P c #2C2606",
".I c #3E3B3C",
".U c #B2A505",
".Y c #B5B7B4",
".T c #010200",
".R c #373535",
".E c #010000",
".W c #151603",
".Q c #434344",
".! c #26230D",
".~ c #484135",
".^ c #A7A9A6",
"./ c #8C847B",
".( c #DBDCD9",
".) c #080900",
"._ c #A3A5A2",
".` c #6D6E6D",
".' c #D7D8D5",
".] c #EDEB7A",
".[ c #9C8D84",
".{ c #8F8D8B",
".} c #9D9D9C",
".| c #8D8B89",
"X  c #161007",
"X. c #312B07",
"XX c #303131",
"Xo c #312707",
"XO c #353722",
"X+ c #1D1D1B",
"X@ c #2C2D2D",
"X# c #D99400",
"X$ c #83817F",
"X% c #49421B",
"X& c #100F0E",
"X* c #3E3C3B",
"X= c white",
"X- c #3D3C3A",
"X; c #FDFDFD",
"X: c #B6B6B4",
"X> c #FBFBFB",
"X, c #6F6D6B",
"X< c #6E6B6A",
"X1 c #F9F9F9",
"X2 c #020100",
"X3 c #464646",
"X4 c #454645",
"X5 c #AFB0AD",
"X6 c #493F14",
"X7 c #E5CC01",
"X8 c #ADAEAB",
"X9 c #797643",
"X0 c #3E3E3E",
"Xq c #A3A4A1",
"Xw c #93908E",
"Xe c #A0A09E",
"Xr c #9D9E9B",
"Xt c #2C2F36",
"Xy c #625C40",
"Xu c #9A9A98",
"Xi c #CFCFCC",
"Xp c #2C2C2C",
"Xa c #DDDDDD",
"Xs c #959693",
"Xd c #2A2A2A",
"Xf c #282828",
"Xg c #272627",
"Xh c gray15",
"Xj c #595958",
"Xk c #8E8E8C",
"Xl c light grey",
"Xz c gray81",
"Xx c #0F0F02",
"Xc c #A4A6A8",
"Xv c #706C6B",
"Xb c #040201",
"Xn c #C5C5C5",
"Xm c #828176",
"XM c #9A977D",
"XN c #030000",
"XB c #C1B40B",
"XV c #AFAFAC",
"XC c #444343",
"XZ c gray74",
"XA c #423F41",
"XS c #BBBBBB",
"XD c #958778",
"XF c #EEF0ED",
"XG c #B9B9B9",
"XH c #635E5E",
"XJ c #050805",
"XK c #70706E",
"XL c #040604",
"XP c #595333",
"XI c gray70",
"XU c #010201",
"XY c #000200",
"XT c None",
/* pixels */
"XTXTXTXTXTXTXTXTXTXTXTXTXTXTXTXTXTXTXTXTXTXTXTXTXTXTXTXTXTXTXTXT",
"XTXT.zXTXTXTXTXTXTXTXTXTXTXTXTXTXTXTXTXTXTX=X=XTXTXTXTXTXTXTXTXT",
"XTXJ.HXuXTXTXTXTXTXTXTXTXTXTXTXTXTXTXTXTXTX=X=X=X=XTXTXTXTXTXTXT",
"XTXTXj.Q XXTXTXTXTXTXTXTXTXTXTXTXTXTXTXTXTXTXf.n DX=X=XTXTXTXTXT",
"XTXTXT.#.&XD.yXTXTXTXTXTXTXTXTXTXTXTXTXTX=X= Q.4XT.FX1X>XTXTXTXT",
"XTXTXT   C.c.h.[XT  XTXTXTXTXTXTXTXTXTXT.3.*X=X=X=XTXTX1X=XTXTXT",
"XTXTXTXT a.N W./XsX, uXTXTXTXTXTXTXTXTXT _ OXT 7X1X>XT %X=.eXTXT",
"XTXTXTXT  .+.~.> ;._XKX4XTXTXTXTXTXTXTXTX=X=X=XTXTX1X=XTX; DXTXT",
"XTXTXTXTXTX2.,.I L ; ^.w.1XTXTXTXTXTXTXTXT 7X1X>XT %X=XSXnX=XTXT",
"XTXTXTXTXTXT H H wXV =Xq Z -  XTXTXTXTX=X=XTXTX1X=XTX=XzXTX=XGXT",
"XTXTXTXTXTXT  XN M wX5.XX$.^XVX,.f  XTXZX= DXT %X=.uXaX=XTX= *XT",
"XTXTXTXTXTXTXT.dXN M q.0 } )Xi 0.{ -.TXT VX=X;XTX= O.<X=XT.eX0XT",
"XTXTXTXTXTXTXTXT.d.EXb 'XAXe.v.t e b.}X=XT :X=XT.iX0XTXTXTXTXTXT",
"XTXTXTXTXTXTXTXTXT   H H lXHXu =.t.9 !.J.TXTXTXTXTXTXTXTXTXTXTXT",
"XTXTXTXTXTXTXTXTXT <  .d  .o R [.vXF.YX< ,XLXTXTXTXTXTXTXTXTXTXT",
"XTXTXTXTXTXTXTXTXTXT  .d.d.Z.oXH [ = T.| K 5.rXTXTXTXTXTXTXTXTXT",
"XTXTXTXTXTXTXTXTXTXT.dXYXY.d.S.oXH.% @ JXr K 2.dXTXTXTXTXTXTXTXT",
"XTXTXTXTXTXTXTXTXTXTXTXYXY.d.d.Z # > dXk P._.V I.pXTXTXTXTXTXTXT",
"XTXTXTXTXTXTXTXTXTXTXT  .`.O.d.dXU.M.: o tXq.@.m $.-XTXTXTXTXTXT",
"XTXTXTXTXTXTXTXTXTX=XTXTX= h.d.d.d NX3.;XvX:.7XM z ]XTXTXTXTXTXT",
"XTXTXTXTX=XTX;X=XTX=X=XT    .dXY   + jXCX8Xw.6 m.UXy  XTXTXTXTXT",
"XTX;X=XTX= _XTX=.eXT GX=.s    XYX&XXXg B 4.R E.x x.5.PXTXTXTXTXT",
"XT YX=XT. X=XT S GXT | SX=XTXT   8 ` k UXx yX-.( n.]XBX.XTXTXTXT",
"XTXTX=.e.qX= .XTX1 D.=    XTXTXT   (.g fX7.W 1X*.'XmXo A.CXTXTXT",
"XTXT D DXT S GXTXpX=X=X=.iXTXTXTXT  X+Xt c g pXN ~.2 s.8.!XTXTXT",
"XTXT.lX=.3XTX1 D.=  .K.iXTXTXTXTXTXT  .$X  6 &.G r.D iX% vXTXTXT",
"XTXTXT S GXTXpX=X=X=Xl.AXTXTXTXTXTXTXT    .)X#XOXc.a /XP  XTXTXT",
"XTXTXTXTX1 D.=   3XlX=X=XTXTXTXTXTXTXTXTXT  .BX6..X= FX@  XTXTXT",
"XTXTXTXTXdX=X=X; .Xh    XTXTXTXTXTXTXTXTXTXTXT.bX9 9.j  XTXTXTXT",
"XTXTXTXTXT  .L DX=X=X=XIXTXTXTXTXTXTXTXTXTXTXTXT      XTXTXTXTXT",
"XTXTXTXTXTXTXT   {.k.4XTXTXTXTXTXTXTXTXTXTXTXTXTXTXTXTXTXTXTXTXT",
"XTXTXTXTXTXTXTXTXT    XTXTXTXTXTXTXTXTXTXTXTXTXTXTXTXTXTXTXTXTXT"
};
