/* XPM */
static char * qmidiroute_48_xpm[] = {
"48 48 126 2",
"  	c None",
". 	c #ABE8AB",
"+ 	c #A4E1A4",
"@ 	c #5C9A5C",
"# 	c #256525",
"$ 	c #1A5A1A",
"% 	c #317031",
"& 	c #74B274",
"* 	c #96D396",
"= 	c #115111",
"- 	c #004000",
"; 	c #4B8A4B",
"> 	c #306F30",
", 	c #245900",
"' 	c #67A567",
") 	c #A9E6A9",
"! 	c #96D496",
"~ 	c #452D00",
"{ 	c #074500",
"] 	c #064506",
"^ 	c #72B072",
"/ 	c #638500",
"( 	c #61A061",
"_ 	c #62A062",
": 	c #518F51",
"< 	c #5B995B",
"[ 	c #71AF71",
"} 	c #599759",
"| 	c #70AE70",
"1 	c #A6E3A6",
"2 	c #4C8B4C",
"3 	c #94D194",
"4 	c #4E7600",
"5 	c #2F6E2F",
"6 	c #C0C0C0",
"7 	c #D7F4D7",
"8 	c #7BA57B",
"9 	c #F1F2CD",
"0 	c #F8E7E6",
"a 	c #FDFAFA",
"b 	c #FEFCFC",
"c 	c #FEFEFC",
"d 	c #FFFFFF",
"e 	c #EAECB3",
"f 	c #A4E2A4",
"g 	c #064606",
"h 	c #7A9B7A",
"i 	c #CC6633",
"j 	c #FFAE4C",
"k 	c #FFCC66",
"l 	c #FFCC33",
"m 	c #FFC054",
"n 	c #FF9933",
"o 	c #F6CE6C",
"p 	c #9DD494",
"q 	c #F8CE6B",
"r 	c #F8C04C",
"s 	c #F8AF44",
"t 	c #E3C73C",
"u 	c #F8CA5C",
"v 	c #66A466",
"w 	c #8D8D38",
"x 	c #252525",
"y 	c #72A265",
"z 	c #B4E4A3",
"A 	c #F1B75B",
"B 	c #9EDC9E",
"C 	c #B88024",
"D 	c #FF6600",
"E 	c #FFCC99",
"F 	c #000000",
"G 	c #868950",
"H 	c #6BA96B",
"I 	c #A5E2A5",
"J 	c #2C6B2C",
"K 	c #094403",
"L 	c #000200",
"M 	c #E6BE8A",
"N 	c #084401",
"O 	c #4B894B",
"P 	c #A1DEA1",
"Q 	c #90CE90",
"R 	c #226222",
"S 	c #667828",
"T 	c #001E00",
"U 	c #0A4A0A",
"V 	c #468546",
"W 	c #76B476",
"X 	c #A5E1A5",
"Y 	c #0E4E0E",
"Z 	c #124603",
"` 	c #E5BD5B",
" .	c #FECB32",
"..	c #5F7426",
"+.	c #034303",
"@.	c #7EBB7E",
"#.	c #7DBB7D",
"$.	c #024102",
"%.	c #003D00",
"&.	c #001000",
"*.	c #FECB65",
"=.	c #8F8E39",
"-.	c #0E4705",
";.	c #094909",
">.	c #8CC98C",
",.	c #72A766",
"'.	c #CBAF51",
").	c #EFC35F",
"!.	c #96923C",
"~.	c #002C00",
"{.	c #21500A",
"].	c #084402",
"^.	c #DED681",
"/.	c #FF9900",
"(.	c #FAAB4A",
"_.	c #43641A",
":.	c #559455",
"<.	c #77A25F",
"[.	c #D5D885",
"}.	c #FC9B36",
"|.	c #F1C460",
"1.	c #003400",
"2.	c #6D7B2B",
"3.	c #000600",
"4.	c #1E500C",
"5.	c #9B953E",
"                                                                                                ",
"                                                                                                ",
"                                                                                                ",
"                                          . . . . . . .                                         ",
"                                      . . . . . . . . . . .                                     ",
"                                  . . . . . . . . . . . . . .                                   ",
"                                  . . . . + @ # $ % & . . . . .                                 ",
"                                . . . . * = - - - - - ; . . . . .                               ",
"                                . . . . > - - - - , - - ' . . . )                               ",
"                              . . . . ! - - - ~       { ] . . . .                               ",
"                              . . . . ^ - /               . . . . (                             ",
"                              . . . . _ -                 : . . . <                             ",
"                              . . . . _ -                 [ . . . }                             ",
"                              . . . . | -                 1 . . . 2                             ",
"                              . . . . 3 4                 . . . . 5 -                           ",
"6 6 6 6 6 6 6 6 6 6 6 6 6 6 6 7 . . . . 8 9 9 0 a b c d e . . . f g h d d d d d d d d d d d d d ",
"6 i j k l k k j m m n k k j k o 1 . . . p q j r s k t u . . . . v - w n n k n k m k j k k l m x ",
"6 i j k l k k j m m n k k j k k y . . . . z A m j k k . . . . B = - C n D n k n k E j k k l m x ",
"6 i j k F F F F F F F F F F k k G H . . . . . . . . . . . . I J - K L F F F F F F F F F k l m x ",
"6 i j k F 6 6 6 6 6 6 6 6 F k k M N O P . . . . . . . . . Q R - - S F 6 6 6 6 6 6 6 6 F k l m x ",
"6 i j k F 6 6 6 6 6 6 6 6 F F F F T - U V W 3 X . . . . P Y - - Z ` F 6 6 6 6 6 6 6 6 F k l m x ",
"6 i j k F 6 6 6 6 6 6 6 6 F k k E  ...- - - - - +.@.. . . #.$.%.&.F F 6 6 6 6 6 6 6 6 F k l m x ",
"6 i j k F F F F F F F F F F k k E l *.=.-.- - - - ;.>.. . . ,.'.n k F F F F F F F F F F k l m x ",
"6 i j k l k k j m m n k k j k k E l k k ).!.~.{.].- = ! . . . ^.n k n j /.k n k k E k j k l m x ",
"6 i j k l k k j m m n k k j k k E l k k k k F m m (._.$ :.:.<.[.}.k n n n k n k k E k j k l m x ",
"6 i j k l k k j m m n k k j k k E l k k k k F m m j |.1.- - - 2.k n k n k k n k k m k j k l m x ",
"6 i j k F F F F F F F k k j k k E l k k k k F m m j k 3.4.- - - 5.n F F F F F F F F F F k l m x ",
"6 i j k F 6 6 6 6 6 F F F F F F F F F F F F F m m j k F k k j k k k F 6 6 6 6 6 6 6 6 F k l m x ",
"6 i j k F 6 6 6 6 6 F k k j k k E l k k k j F m m j k F k k j k k k F 6 6 6 6 6 6 6 6 F k l m x ",
"6 i j k F F F F F F F k k j k k E l k k k j F m j k k F k k j k k k F 6 6 6 6 6 6 6 6 F k l m x ",
"6 i j k l k j m m m n k k j k k E l k k k j F m j k k F F F F F F F F F F F F F F F F F k l m x ",
"6 i j k l k j m m m n k k j k k E l k k k j F m j k k j k k j k k l l k k k k l m m k j k l m x ",
"6 i j k l k j m m m n k k j k k E l k k k j F m j k k j k k j k k l l k k k k l m m k j k l m x ",
"6 i j k l k k j m m n k k j k k E l k k k k F m j k k j k k j k k l l k k k k l m m k j k l m x ",
"6 i j k F F F F F F F k k j k k E l k k k k F m j k k j k k j k k l l k k k k l m m k j k l m x ",
"6 i j k F 6 6 6 6 6 F F F F F F F F F F F F F m j k k j k k j k k l l k k k k l m m k j k l m x ",
"6 i j k F 6 6 6 6 6 F k k j k k E l k k k j m m j k k j k k j k k l l k k k k l m m k j k l m x ",
"6 i j k F F F F F F F k k j k k E l k k k j m m j k k j k k j k k l l k k k k l m m k j k l m x ",
"6 i j k l k j m m m n k k j k k E l k k k j m m j k k j k k j k k l l k k k k l m m k j k l m x ",
"6 i j k l k j m m m n k k j k k E l k k k j m m j k k j k k j k k l l k k k k l m m k j k l m x ",
"6 i j k l k j m m m n k k j k k E l k k k j m m j k k j k k j k k l l k k k k l m m k j k l m x ",
"6 i j k l k j m m m n k k j k k E l k k k j m m j k k j k k j k k l l k k k k l m m k j k l m x ",
"x x x x x x x x x x x x x x x x x x x x x x x x x x x x x x x x x x x x x x x x x x x x x x x x ",
"                                                                                                ",
"                                                                                                ",
"                                                                                                ",
"                                                                                                ",
"                                                                                                "};
