/* XPM */
static char * quake2_xpm[] = {
"64 64 2 1",
" 	c None",
".	c #007D7D",
"                                                                ",
"                                                                ",
"                 .                            .                 ",
"                .                              .                ",
"               .                                .               ",
"              .                                  .              ",
"             .                                   ..             ",
"             .                                    .             ",
"            .                                      .            ",
"           ..                                      ..           ",
"           .                                        .           ",
"          ..                                        ..          ",
"          .                                          .          ",
"         ..                                          .          ",
"         ..                                          ..         ",
"         ..                                          ..         ",
"         ..                                          ..         ",
"        ...                                          ..         ",
"        ..                                            .         ",
"        ..                                            .         ",
"        ...                                          ..         ",
"        ...                                          ..         ",
"        ...                                          ..         ",
"        ...                                          ..         ",
"        ...                                          ..         ",
"        ...                                          ..         ",
"        ....                                        ...         ",
"        ....                                        ...         ",
"         ....           ................           ....         ",
"         ....           ................           ....         ",
"         .....           ......  ......           .....         ",
"         .....           ......  ......           .....         ",
"          .....          ......  ......          .....          ",
"          ......         ......  ......         ......          ",
"           ......        ......  ......        ......           ",
"           .......       ......  ......       .......           ",
"            .......      ......  ......      .......            ",
"             ........    ......  ......    ........             ",
"             .........   ......  ......  ..........             ",
"              .................  .................              ",
"               ..................................               ",
"                ................................                ",
"                 ..............................                 ",
"                  ...........................                   ",
"                    .......................                     ",
"                      ...................                       ",
"                         ..............                         ",
"                         ......  ......                         ",
"                         ......  ......                         ",
"                         ......  ......                         ",
"                         ......  ......                         ",
"                         ......  ......                         ",
"                         ......  ......                         ",
"                         ......  ......                         ",
"                         ......   .....                         ",
"                          ....    .....                         ",
"                          ....    ....                          ",
"                          ....    ....                          ",
"                          ....     ...                          ",
"                           ...     ...                          ",
"                           ...     ...                          ",
"                           ..      ..                           ",
"                           ..      ..                           ",
"                            .       .                           "};
