/* XPM */
static char *rakarrack_xpm[] = {
/* width height ncolors chars_per_pixel */
"32 32 218 2",
/* colors */
"   c #240909",
" . c #2C1E1E",
" X c #F8FBF0",
" o c #F0F2F2",
" O c #EFF0F1",
" + c #5A1D1D",
" @ c #702C2C",
" # c #4F1C1C",
" $ c #EBE3B8",
" % c #230B0B",
" & c #1A0C0C",
" * c #938686",
" = c #3C1313",
" - c #E4D386",
" ; c #797373",
" : c #231818",
" > c #D8D8DA",
" , c #E7EAEC",
" < c #FBF9F9",
" 1 c #220D0D",
" 2 c #E7E1B7",
" 3 c #E5DFB5",
" 4 c #E4DDB4",
" 5 c #661B1B",
" 6 c #493D3D",
" 7 c #3F2626",
" 8 c #1C1214",
" 9 c #CBC3C3",
" 0 c #804848",
" q c #1B0909",
" w c #DAD4B7",
" e c #DACC8C",
" r c #4D1919",
" t c #EDE6B9",
" y c #804A4B",
" u c #F5F7F9",
" i c #F3F5F7",
" p c #8C5A5A",
" a c #ECD983",
" s c #F2F5F6",
" d c #453F3F",
" f c #8C6767",
" g c #1F1313",
" h c #E9E2B8",
" j c #220C0C",
" k c #E7E0B6",
" l c #632121",
" z c #A08181",
" x c #5A5050",
" c c #661A1A",
" v c #450A0A",
" b c #541C1C",
" n c #FEFEFE",
" m c #B7B5B5",
" M c gray99",
" N c #551313",
" B c #AEA88B",
" V c #F6F6F6",
" C c #1D0A0A",
" Z c #BEBFBF",
" A c #1B0808",
" S c #341010",
" D c #9D7877",
" F c #EFE7BA",
" G c #2A2727",
" H c #905D5D",
" J c #682222",
" K c #EDDA83",
" L c #221F1F",
" P c #180808",
" I c #160606",
" U c #CFCCCC",
" Y c #F2EBEB",
" T c #EEE7BC",
" R c #D8D8D8",
" E c #F6FAFC",
" W c #AE9B9B",
" Q c #DBD1D1",
" ! c #E8E1B6",
" ~ c #E3E4E6",
" ^ c #E8D78B",
" / c #D0D0D0",
" ( c #E5D588",
" ) c #221818",
" _ c #FEFDFD",
" ` c #2C0E0E",
" ' c #EAE5BB",
" ] c #B4AEB1",
" [ c #691F1F",
" { c #BDB067",
" } c #5E1E1E",
" | c #120808",
".  c #281717",
".. c #361111",
".X c #DEDBDA",
".o c #FDFFFF",
".O c #514949",
".+ c #CCC5C5",
".@ c #F8F9FA",
".# c #6A2323",
".$ c #FDFBEB",
".% c #706464",
".& c #1A0909",
".* c #F2F3F4",
".= c #331111",
".- c #E5DADA",
".; c #C9BA79",
".: c #120101",
".> c #DFCE7E",
"., c #181414",
".< c #240C0C",
".1 c #E9E2B6",
".2 c #390303",
".3 c #F9F6F4",
".4 c #E7E0B4",
".5 c #EAD782",
".6 c #E4DADC",
".7 c #ECE6BC",
".8 c #C0C8C9",
".9 c #D6D7D8",
".0 c #EAE4BA",
".q c #E8E2B8",
".w c #D3D5D5",
".e c #E7E0B7",
".r c #1F0A0A",
".t c #A67E7E",
".y c #F8EFC1",
".u c #381212",
".i c #290D0D",
".p c #6A2222",
".a c #421515",
".s c #978686",
".d c #B49292",
".f c #753030",
".g c #5D1F1F",
".h c #180606",
".j c #351212",
".k c #F2EBBE",
".l c #B8B9BA",
".z c #EBECEC",
".x c #753D3D",
".c c #EEE7BA",
".v c #260D0D",
".b c #886060",
".n c #F3F4F7",
".m c #3F1515",
".M c #F0EBBF",
".N c #271111",
".B c #453535",
".V c #C8C6C6",
".C c #491818",
".Z c #EAE3B9",
".A c #EBD885",
".S c #671B1B",
".D c #140808",
".F c #651919",
".G c #381111",
".H c #DCDEE0",
".J c white",
".K c #FEFDFE",
".L c #CCC398",
".P c #715556",
".I c #FBFBFB",
".U c #C4BC9A",
".Y c #E6E1B8",
".T c #D7C77B",
".R c #E6E3E3",
".E c #2A0303",
".W c #A47D7E",
".Q c #5D1E1E",
".! c #351111",
".~ c #F3EABE",
".^ c #F2EABD",
"./ c #601717",
".( c #2A1010",
".) c gray92",
"._ c #DAD7D7",
".` c #090000",
".' c #181212",
".] c #F8F9FB",
".[ c #260C0C",
".{ c #F1F1F4",
".} c #440F0F",
".| c #170707",
"X  c #EFEBC7",
"X. c #E4D284",
"XX c #C3CACA",
"Xo c #835050",
"XO c #723C3C",
"X+ c #ECE4BA",
"X@ c #EBE4B9",
"X# c #E7E2B5",
"X$ c #E7E0B5",
"X% c #9A917A",
"X& c #C2B994",
"X* c #A18181",
"X= c #E3DCB1",
"X- c #8D5353",
"X; c #120505",
"X: c #DADBDD",
"X> c #090606",
"X, c #611414",
"X< c #E5E7EB",
"X1 c #E8E2B9",
"X2 c #4D1414",
"X3 c #170D0D",
"X4 c #4B1212",
"X5 c #332F2F",
"X6 c #5F1F1F",
"X7 c #8C8383",
"X8 c #2F2B2B",
"X9 c #DBCD8B",
"X0 c #F2E9BC",
"Xq c #FCFEFE",
"Xw c #C5C7C8",
"Xe c #6B2424",
"Xr c #F7F8F9",
"Xt c None",
/* pixels */
"XtXtXtXtXtXtXtXtXtXtXtXtXtXtXtXtXtXtXtXtXtXtXtXtXtXtXtXtXtXtXtXt",
"XtXtXtXtXtXtXtXtXtXtXtXtXtXtXtXtXtXtXtXtXtXtXtXtXtXtXtXt.U e.A a",
"XtXtXtXtXtXtXtXtXtXtXtXtXtXtXtXtXtXtXtXtXtXtXtXtXtXtX&X9 -.5 KXt",
"XtXtXtXtXtXtXtXtXtXtXtXtXtXtXtXtXtXtXtXtXtXtXtXtXt ^X9 (.TXtXtXt",
"XtXtXtXtXtXtXtXtXtXtXtXtXtXtXtXtXtXtXtXtXtXtXtXtXt {.>X..;XtXtXt",
"XtXtXtXtXtXtXtXtXtXtXtXtXtXtXtXtXtXtXtXtXtXtXtXtX .LXtXtXtXtXtXt",
"XtXtXtXtXtXtXtXtXtXtXtXtXtXtXtXtXtXtXtXtXtXtXt '.cXtXtXtXtXtXtXt",
"XtXtXtXtXtXtXtXtXtXtXtXtXtXtXtXtXtXtXtXtXtXtX1 TXtXtXtXtXtXtXtXt",
"XtXtXtXtXtXtXtXtXtXtXtXtXtXtXtXtXtXtXtXtXt.7 h.yXtXtXtXtXtXtXtXt",
"XtXtXtXtXtXtXtXtXtXtXtXtXtXtXtXtXtXtXtXt.0 k.kXtXtXtXtXtXtXtXtXt",
"XtXtXtXtXtXtXtXtXtXtXtXtXtXtXtXtXtXtXt.qX+X0XtXtXtXtXtXtXtXtXtXt",
"XtXtXtXtXtXtXtXtXtXtXtXtXtXtXtXtXtXt.YX$.^XtXtXtXtXtXtXtXtXtXtXt",
"XtXtXtXtXtXtXtXtXtXtXt., LXtXtXtXt 2 3.~XtXtXtXtXtXtXtXtXtXtXtXt",
"XtXtXtXtXtXtXtXtXtXt.'X>XtXtXtXt 2X@ FXtXtXtXtXtXtXtXtXtXtXtXtXt",
"XtXtXtXtXtXtXtXtXt ..h :XtXtXt.Z 4 tXtXtXtXtXtXtXtXtXtXtXtXtXtXt",
"XtXtXtXtXtXtXtXtXt.N S.<XtXt.M.e $XtXtXtXtXtXtXtXtXtXtXtXtXtXtXt",
"XtXtXtXtXtXtXtXt. .uX4.P 6 B.q !XtXtXtXtXtXtXtXtXtXtXtXtXtXtXtXt",
"XtXtXtXtXtXtXt ).( v y.3 wX=.1XtXtXtXtXtXtXtXtXtXtXtXtXtXtXtXtXt",
"XtXtXtXtXtXt g  .2.x.6 XX#.4XtXtXtXtXtXtXtXtXtXtXtXtXtXtXtXtXtXt",
"XtXtXtXtX3 1.E # D Y EX<.$X%XtXtXtXtXtXtXtXtXtXtXtXtXtXtXtXtXtXt",
"XtXt | j...}.b.-.J s u.*.n ] 8XtX8 GXtXtXtXtXtXtXtXtXtXtXtXtXtXt",
"Xt.D `.C N p.JXq i , O n.I.J.X m ZX5XtXtXtXtXtXtXtXtXtXtXtXtXtXt",
" P % r lX,.t.o.wX:Xr.z V.J.J.J.V dXtXtXtXtXtXtXtXtXtXtXtXtXtXtXt",
" A.=.g.# c 0Xw.H ~ R M _.J U.OXtXtXtXtXtXtXtXtXtXtXtXtXtXtXtXtXt",
".&.jX6.p.F z.8.l.9 >.K.@.R xXtXtXtXtXtXtXtXtXtXtXtXtXtXtXtXtXtXt",
".i.v b J [ @ WXX /.{.) oX7 ;XtXtXtXtXtXtXtXtXtXtXtXtXtXtXtXtXtXt",
"Xt q =.Q.p.SXeX*Xo Q.] <.BXtXtXtXtXtXtXtXtXtXtXtXtXtXtXtXtXtXtXt",
"XtXt C.a }.p 5.fX-.d.J 9X;XtXtXtXtXtXtXtXtXtXtXtXtXtXtXtXtXtXtXt",
"XtXtXt.r.m +./ H.+.W.J.%XtXtXtXtXtXtXtXtXtXtXtXtXtXtXtXtXtXtXtXt",
"XtXtXtXt A.!X2XO._ f * &XtXtXtXtXtXtXtXtXtXtXtXtXtXtXtXtXtXtXtXt",
"XtXtXtXtXt q.[.G.s 7.`XtXtXtXtXtXtXtXtXtXtXtXtXtXtXtXtXtXtXtXtXt",
"XtXtXtXtXtXtXt.|.: IXtXtXtXtXtXtXtXtXtXtXtXtXtXtXtXtXtXtXtXtXtXt"
};
