/* XPM */
static char *snes9x_xpm[] = {
/* width height ncolors chars_per_pixel */
"32 32 225 2",
/* colors */
"   c #45387C",
" . c #44367B",
" X c #7874A4",
" o c #8A88E4",
" O c #7570A1",
" + c #5F4BA6",
" @ c #A296EB",
" # c #716C9D",
" $ c #867CE0",
" % c #9E90E7",
" & c #6F6A9B",
" * c #A6A4C7",
" = c #A7A2C8",
" - c #8870E2",
" ; c #423D72",
" : c #524D85",
" > c #4D4980",
" , c #8681AE",
" < c #ADABC7",
" 1 c #8470E1",
" 2 c #A3A0C7",
" 3 c #433F76",
" 4 c #A09CC4",
" 5 c #745DC4",
" 6 c #9A96BE",
" 7 c #9996BD",
" 8 c #A295E7",
" 9 c #AAA7C7",
" 0 c #ABA5C8",
" q c #9C8CEB",
" w c #47437D",
" e c #46417C",
" r c #45417B",
" t c #443F7A",
" y c #A19EC8",
" u c #544497",
" i c #44377A",
" p c #433579",
" a c #C6C0DF",
" s c #423578",
" d c #413377",
" f c #403376",
" g c #8983E2",
" h c #AEA9CE",
" j c #9286CD",
" k c #4B3D84",
" l c #A8A5C8",
" z c #A7A5C7",
" x c #BDB6D6",
" c c #A7A1C7",
" v c #C6BCF6",
" b c #696594",
" n c #7568AD",
" m c #9080E2",
" M c #4F4A81",
" N c #857BE1",
" B c #837EAA",
" V c #474279",
" C c #A4A1C7",
" Z c #454077",
" A c #B7B2D3",
" S c #846BE0",
" D c #A29DC5",
" F c #917CE6",
" G c #8B71EA",
" H c #49447E",
" J c #48447D",
" K c #958FB8",
" L c #7A69C2",
" P c #47427C",
" I c #45407A",
" U c #A29FC8",
" Y c #A19DC7",
" T c #7C78A6",
" R c #DCD4ED",
" E c #433678",
" W c #8A86E2",
" Q c #9A97C0",
" ! c #403275",
" ~ c #A8A6C7",
" ^ c #7862CD",
" / c #483A80",
" ( c #876EDF",
" ) c #A49EC3",
" _ c #8990E4",
" ` c #888CE3",
" ' c #A89FE8",
" ] c #888AE3",
" [ c #8788E2",
" { c #8786E2",
" } c #8680E1",
" | c #8580E0",
".  c #847EDF",
".. c #847CDF",
".X c #A5A2C7",
".o c #918DE5",
".O c #9C98BE",
".+ c #8A76E8",
".@ c #8974E7",
".# c #48437C",
".$ c #46417A",
".% c #B7B3D5",
".& c #A19EC6",
".* c #423D76",
".= c #3F3173",
".- c #AEA7CC",
".; c #4F4186",
".: c #ACA5CA",
".> c #4C3F83",
"., c #44377B",
".< c #5F4CA6",
".1 c #8A7DE4",
".2 c #9E8FE7",
".3 c #7761CE",
".4 c #493B83",
".5 c #A6A3C7",
".6 c #A49FC5",
".7 c #534E86",
".8 c #4F4A82",
".9 c #4D4880",
".0 c #837EAB",
".q c #A5A1C9",
".w c #B8B4D5",
".e c #A3A1C7",
".r c #B7B2D4",
".t c #A09DC4",
".y c #B5AED2",
".u c #403273",
".i c #6D58BD",
".p c #9995BD",
".a c #AAA8C7",
".s c #46427C",
".d c #473A7D",
".f c #A19DC8",
".g c #463A7C",
".h c #45387B",
".j c #8B8AE4",
".k c #433679",
".l c #423678",
".z c #423478",
".x c #5F4BA5",
".c c #ABA6CB",
".v c #A7A4C7",
".b c #7965C5",
".n c #8778E3",
".m c #837FAA",
".M c #837DAA",
".N c #48437A",
".B c #A4A2C7",
".V c #443F76",
".C c #A19CC4",
".Z c #403D72",
".A c #524291",
".S c #6E59BD",
".D c #9A96BD",
".F c #B8ADEB",
".G c #8776E6",
".H c #4A457F",
".J c #48437D",
".K c #8F84C6",
".L c #7F7BA9",
".P c #46417B",
".I c #A3A0C9",
".U c #45417A",
".Y c #A29EC8",
".T c #A19EC7",
".R c #745FC6",
".E c #443779",
".W c #433578",
".Q c #DBD3EC",
".! c #423577",
".~ c #8D81E5",
".^ c #635E94",
"./ c #8A81E2",
".( c #8A79E2",
".) c #ABA7CA",
"._ c #9386CD",
".` c #4D3F85",
".' c #4B3D83",
".] c #A8A5C7",
".[ c #A8A3C7",
".{ c #AFA6EF",
".} c #A49FC3",
".| c #8991E4",
"X  c #45377D",
"X. c #888DE3",
"XX c #888BE3",
"Xo c #8789E2",
"XO c #8787E2",
"X+ c #8685E1",
"X@ c #8884AE",
"X# c #8683E1",
"X$ c #8583E0",
"X% c #8581E0",
"X& c #867FE1",
"X* c #857FE0",
"X= c #BEBAD9",
"X- c #847FDF",
"X; c #847DDF",
"X: c #857BE0",
"X> c #A6A3C8",
"X, c #A5A3C7",
"X< c #927CE6",
"X1 c #8273C9",
"X2 c #ACAAC7",
"X3 c #8975E7",
"X4 c #8875E6",
"X5 c #5C4B9D",
"X6 c #49447D",
"X7 c #7B69C2",
"X8 c #48427C",
"X9 c #46427A",
"X0 c #7E7AA7",
"Xq c #A29FC7",
"Xw c #B6B0D4",
"Xe c #7C78A5",
"Xr c #C8C1DF",
"Xt c #8D88E4",
"Xy c #6F5AC0",
"Xu c #413475",
"Xi c #AFA8CD",
"Xp c #9282D5",
"Xa c #A9A6C7",
"Xs c #5B578B",
"Xd c None",
/* pixels */
"XdXdXdXdXdXdXdXdXdXdXdXdXdXdXdXdXdXdXdXdXdXdXdXdXdXdXdXdXdXdXdXd",
"XdXdXdXdXdXdXdXdXdXdXdXdXdXdXdXdXdXdXdXdXdXdXdXdXdXdXdXdXdXdXdXd",
"XdXdXdXdXdXdXdXdXdXdXdXdXdXd P.J P PXdXdXdXdXdXdXdXdXdXdXdXdXdXd",
"XdXdXdXdXdXdXdXdXdXdXdXd P P &.yXi # PX8XdXdXdXdXdXdXdXdXdXdXdXd",
"XdXdXdXdXdXdXdXdXdXdXdXd w.:Xr.w.% a.-.JXdXdXdXdXdXdXdXdXdXdXdXd",
"XdXdXdXdXdXdXdXdXdXdXd.s O.r zXa.v.eXw X eXdXdXdXdXdXdXdXdXdXdXd",
"XdXdXdXdXdXdXdXdXdXdXd P.[ l 9 <Xa.X.I 0 PXdXdXdXdXdXdXdXdXdXdXd",
"XdXdXdXdXdXdXdXdXdXdXd P.}.X ~.a.] C y.6 wXdXdXdXdXdXdXdXdXdXdXd",
"XdXdXdXdXdXdXdXdXdXdXd.UXe 2.X.5.XXq UX0.PXdXdXdXdXdXdXdXdXdXdXd",
"XdXdXdXdXdXdXdXdXdXdXdXd.9.p.&Xq.T.f 7 >XdXdXdXdXdXdXdXdXdXdXdXd",
"XdXdXdXdXdXdXdXdXdXdXdXd 3 M B 4 Q.0.8.VXdXdXdXdXdXdXdXdXdXdXdXd",
"XdXdXdXdXd.P.J.# rXdXdXdXd ; V.J J.N.ZXdXdXdXd s.h i.kXdXdXdXdXd",
"XdXdXdX8.J.M R.Q ) : IXdXdXdXdXdXdXdXdXdXd.!.>.K v.F n.h iXdXdXd",
"XdXdXd P cX=.) * h x.7 tXdXdXdXdXdXdXdXd d.` 8.oX+ W @Xp iXdXdXd",
"XdXd P.^ A z.aXaX,.q K.HXdXdXdXdXdXdXdXdX X1 o `X.XO | qX5 iXdXd",
"XdXd P ,.c ~X2.a.5Xq = HXdXdXdXdXdXdXdXd   m [ _.|XoX%.~.b iXdXd",
"XdXd P.LX> *Xa.].X.T.CX6XdXdXdXdXdXdXdXd  .(X+ ] ]X+X-.1 5 iXdXd",
"XdXd PXs D 2.B CXq.Y.m JXdXdXdXdXdXdXdXd ..RX&X$X# |...+ u iXdXd",
"XdXdXd.PX@.t y y Y 6.8.*XdXdXdXdXdXdXdXd.=.4 1 N..X:X4.3.kXdXdXd",
"XdXdXd PX9 b.O.D T.9 3XdXdXdXdXdXdXdXdXdXd.u /.S G S.x.k iXdXdXd",
"XdXdXdXdXd.$.J P ZXdXdXdXd !.d.h.g.d fXdXdXdXdXu.h i.lXdXdXdXdXd",
"XdXdXdXdXdXdXdXdXdXdXdXd.z.; j.{ '._.;.zXdXdXdXdXdXdXdXdXdXdXdXd",
"XdXdXdXdXdXdXdXdXdXdXdXd.' %.j [X+ g.2 kXdXdXdXdXdXdXdXdXdXdXdXd",
"XdXdXdXdXdXdXdXdXdXdXd p LXt ` _XXX#./X7.kXdXdXdXdXdXdXdXdXdXdXd",
"XdXdXdXdXdXdXdXdXdXdXd iX<X+ ` _XXX#X; F.,XdXdXdXdXdXdXdXdXdXdXd",
"XdXdXdXdXdXdXdXdXdXdXd i ( } { [X+ | $ - iXdXdXdXdXdXdXdXdXdXdXd",
"XdXdXdXdXdXdXdXdXdXdXd.k +.GX* |. ...G.<.kXdXdXdXdXdXdXdXdXdXdXd",
"XdXdXdXdXdXdXdXdXdXdXdXd.k.3.@.n.nX3 ^.kXdXdXdXdXdXdXdXdXdXdXdXd",
"XdXdXdXdXdXdXdXdXdXdXdXd.E.W.AXy.i.A E.EXdXdXdXdXdXdXdXdXdXdXdXd",
"XdXdXdXdXdXdXdXdXdXdXdXdXdXd.E.h i.EXdXdXdXdXdXdXdXdXdXdXdXdXdXd",
"XdXdXdXdXdXdXdXdXdXdXdXdXdXdXdXdXdXdXdXdXdXdXdXdXdXdXdXdXdXdXdXd",
"XdXdXdXdXdXdXdXdXdXdXdXdXdXdXdXdXdXdXdXdXdXdXdXdXdXdXdXdXdXdXdXd"
};
