/* XPM */
static char *smath_xpm[] = {
/* width height ncolors chars_per_pixel */
"48 48 936 2",
/* colors */
"   c #345775",
" . c #000F21",
" X c #546A7A",
" o c #F6F8F8",
" O c #9AAFC2",
" + c #6E8BA4",
" @ c #C4D3DE",
" # c #526878",
" $ c #B8D1E6",
" % c #C8D2D8",
" & c #C2D1DC",
" * c #212E3E",
" = c #96ABBE",
" - c #9BACB9",
" ; c #C0CFDA",
" : c #000A17",
" > c #2A3F54",
" , c #9FBCD4",
" < c #8FAAC1",
" 1 c #A4BBCF",
" 2 c #6D8699",
" 3 c #93A9BB",
" 4 c #7D96AC",
" 5 c #122A43",
" 6 c #D8DDE1",
" 7 c #A1B9CC",
" 8 c #00182E",
" 9 c #8BA6BD",
" 0 c #102841",
" q c #BBC9D5",
" w c #5A7083",
" e c #9FB7CA",
" r c #8AA4BC",
" t c #1E3852",
" y c #AEC7DC",
" u c #D9EBF9",
" i c #9EB5C9",
" p c #A3B6C4",
" a c #1D3851",
" s c #A3B4C4",
" d c #7C91A1",
" f c #7690A5",
" g c #A1B4C2",
" h c #001324",
" j c #4A6C87",
" k c #B1C4D5",
" l c #30475D",
" z c #001124",
" x c #B0C4D4",
" c c #A0B2C1",
" v c #7A8F9F",
" b c #BAD5EB",
" n c #2F455C",
" m c #AEC2D2",
" M c #4D6980",
" N c #A8C1D6",
" B c #778D9C",
" V c #819CB3",
" C c #869DAE",
" Z c #C2D1DF",
" A c #B1BFCB",
" S c #95ADC0",
" D c #C0CFDD",
" F c #133047",
" G c #A4BDD2",
" H c #6987A2",
" J c #1D415E",
" K c #23405A",
" L c #AEBDC8",
" P c #738798",
" I c #EFF2F4",
" U c #B3CDE4",
" Y c #728797",
" T c #223E59",
" R c #A2BBD0",
" E c #1B3F5C",
" W c #6C869B",
" Q c #92A9BD",
" ! c #4C6275",
" ~ c #9DA9B4",
" ^ c #BCCDD9",
" / c #5B7487",
" ( c #EDF0F2",
" ) c #708595",
" _ c #203C57",
" ` c #A0B9CE",
" ' c #6A8499",
" ] c #D0DCE6",
" [ c #496072",
" { c #243B51",
" } c #A4B8C8",
" | c #8EA5B9",
".  c #587084",
".. c #7892AA",
".X c #475E70",
".o c #ACC7DD",
".O c #9CB5CA",
".+ c #A1B4C5",
".@ c #455C6E",
".# c #9AB3C8",
".$ c #95A1AC",
".% c #E5E8EA",
".& c #8DA0AE",
".* c #97B1C5",
".= c #122232",
".- c #768D9E",
".; c #4A6980",
".: c #436A83",
".> c #14324B",
"., c #909DA7",
".< c #13324A",
".1 c #000C1D",
".2 c #C5D2DB",
".3 c #1D4361",
".4 c #93ADC1",
".5 c #7E9AB3",
".6 c #123049",
".7 c #132E4A",
".8 c #1D3040",
".9 c #1C4160",
".0 c #5C788B",
".q c #92ABC0",
".w c #55758E",
".e c #203E5A",
".r c #DDF6F9",
".t c #AABBC7",
".y c #A4BACB",
".u c #B4CADE",
".i c #8EA7BC",
".p c #7894AD",
".a c #5D7182",
".s c #ADC9E1",
".d c #7794AC",
".f c #A7B7C4",
".g c #244D6B",
".h c #FDFDFE",
".j c #607F9C",
".k c #1A3854",
".l c #D0D9DF",
".z c #CAD8E3",
".x c #0E253B",
".c c #7E909F",
".v c #FAFBFB",
".b c #274864",
".n c #C8D6E1",
".m c #576B7C",
".M c #D2E7F8",
".N c #B2C3D2",
".B c #566B7B",
".V c #1F4766",
".C c #718CA6",
".Z c #40586C",
".A c #C6D4DF",
".S c #E1E6E9",
".D c #95AFC6",
".F c #000E20",
".G c #B5C2CB",
".H c #3F566B",
".J c #C5D2DE",
".K c #64798C",
".L c #E0E4E8",
".P c #D9E3EB",
".I c #DEE2E6",
".U c #C7E2F7",
".Y c #91ABC2",
".T c #20405D",
".R c #C1D0DA",
".E c #5A768C",
".W c #9BABB8",
".Q c #CCCED1",
".! c #A5BCCF",
".~ c #DBE0E3",
".^ c #2A3E53",
"./ c #8FA9C0",
".( c #8498A8",
".) c #8999A3",
"._ c #C4DEF4",
".` c #091A2C",
".' c #293C52",
".] c #8DA7BE",
".[ c #5C7384",
".{ c #8CA7BD",
".} c #00172D",
".| c #65829A",
"X  c #0B1724",
"X. c #85A4C0",
"XX c #7A93A8",
"Xo c #334A5F",
"XO c #BFC7CE",
"X+ c #384B5A",
"X@ c #83A2BE",
"X# c #7891A6",
"X$ c #B8C6D1",
"X% c #576D7F",
"X& c #001023",
"X* c #546B7C",
"X= c #9AB0C4",
"X- c #C5D4E1",
"X; c #596A77",
"X: c #53697B",
"X> c #3E566D",
"X, c #B3C2CC",
"X< c #D8E3ED",
"X1 c #163149",
"X2 c #869CAD",
"X3 c #506778",
"X4 c #6B88A3",
"X5 c #000B19",
"X6 c #D6E1EB",
"X7 c #748898",
"X8 c #4E6576",
"X9 c #3E5163",
"X0 c #081A2E",
"Xq c #D3DFE8",
"Xw c #ADBCC6",
"Xe c #112D44",
"Xr c #6C859A",
"Xt c #213D57",
"Xy c #3B6081",
"Xu c #D2DDE7",
"Xi c #65829D",
"Xp c #6F8493",
"Xa c #BACAD6",
"Xs c #A5B7C8",
"Xd c #7F94A6",
"Xf c #D0DBE5",
"Xg c #485F70",
"Xh c #527087",
"Xj c #9DB6CA",
"Xk c #B8C8D4",
"Xl c #7D92A4",
"Xz c #D7EAF9",
"Xx c #1B3751",
"Xc c #86A1BA",
"Xv c #7B90A2",
"Xb c #758FA6",
"Xn c #CBD7E0",
"Xm c #9AB2C7",
"XM c #B9C3CB",
"XN c #1D3449",
"XB c #324557",
"XV c #778C9E",
"XC c #E4FDFF",
"XZ c #0C2035",
"XA c #ACC1D2",
"XS c #A6C0D6",
"XD c #708BA1",
"XF c #657A89",
"XG c #758A9C",
"XH c #7F9BB3",
"XJ c #000B1C",
"XK c #223F5B",
"XL c #8899A8",
"XP c #1B405E",
"XI c #7C97B0",
"XU c #607684",
"XY c #203D59",
"XT c #90A8BD",
"XR c #3A4F62",
"XE c #5F7283",
"XW c #A9BAC5",
"XQ c #1E3B57",
"X! c #8495A4",
"X~ c #3D5F7C",
"X^ c #93A7B6",
"X/ c #9DB6CD",
"X( c #1C3955",
"X) c #5B707F",
"X_ c #86A3BD",
"X` c #A1B5C7",
"X' c #1A3953",
"X] c #455D70",
"X[ c #96A4AF",
"X{ c #395D78",
"X} c #001429",
"X| c #CBD9E3",
"o  c #90A3B3",
"o. c #B6C6D5",
"oX c #BBC7D0",
"oo c #E6EBED",
"oO c #9AB4CA",
"o+ c #9FB3C5",
"o@ c #CAD7E2",
"o# c #435B6E",
"o$ c #94A2AD",
"o% c #B4C4D3",
"o& c #031122",
"o* c #42596D",
"o= c #456D87",
"o- c #5C7A97",
"o; c #9CB1C2",
"o: c #CCE5FB",
"o> c #1F4665",
"o, c #96B0C6",
"o< c #607B91",
"o1 c #869EB3",
"o2 c #B1C2D0",
"o3 c #C6D3DE",
"o4 c #E1E5E8",
"o5 c #1E4464",
"o6 c #000D1F",
"o7 c #2A425C",
"o8 c #CAE3F9",
"o9 c #1F3144",
"o0 c #5E798F",
"oq c #AFC0CE",
"ow c #738A9D",
"oe c #63788A",
"or c #93ACC3",
"ot c #37546C",
"oy c #627889",
"ou c #92ACC2",
"oi c #829AAF",
"op c #879BAA",
"oa c #8699A9",
"os c #C6DFF5",
"od c #90AAC0",
"of c #0A1B2C",
"og c #8EA8BE",
"oh c #8DA8BD",
"oj c #7895AF",
"ok c #D7F0FF",
"ol c #5C7283",
"oz c #87A5C1",
"ox c #8195A4",
"oc c #5B7282",
"ov c #8BA6BB",
"ob c #253B4D",
"on c #00162C",
"om c #C0D9EF",
"oM c #051527",
"oN c #DBEBF9",
"oB c #0F263E",
"oV c #7491AB",
"oC c #8FA3B5",
"oZ c #284967",
"oA c #586E7F",
"oS c #435B71",
"oD c #4E5B68",
"oF c #7D91A0",
"oG c #CED8DF",
"oH c #9DB3C6",
"oJ c #1C364E",
"oK c #8CA1B2",
"oL c #DDE8F1",
"oP c #BBD5EA",
"oI c #C6D5E1",
"oU c #000F22",
"oY c #546A7B",
"oT c #F6F8F9",
"oR c #99AFC2",
"oE c #C4D3DF",
"oW c #F5F6F8",
"oQ c #325574",
"o! c #4D677E",
"o~ c #B9C0C7",
"o^ c #516878",
"o/ c #305372",
"o( c #35546D",
"o) c #20303E",
"o_ c #B6CFE5",
"o` c #4F6676",
"o' c #9BACBA",
"o] c #8B9AA7",
"o[ c #DEF7FF",
"o{ c #0A1D2F",
"o} c #CBCFD2",
"o| c #D5E0E9",
"O  c #94A9BD",
"O. c #A3BBCF",
"OX c #1C3F5B",
"Oo c #5D7487",
"OO c #8DA8C0",
"O+ c #BDCDD8",
"O@ c #8297A8",
"O# c #8CA8BF",
"O$ c #A2B9CE",
"O% c #1A3D59",
"O& c #B0C9DF",
"O* c #9FB7CB",
"O= c #183B57",
"O- c #BAC9D5",
"O; c #99B6CF",
"O: c #93A6B2",
"O> c #ADC7DC",
"O, c #A2B6C4",
"O< c #ACC5DB",
"O1 c #667E93",
"O2 c #001325",
"O3 c #85A0B8",
"O4 c #001125",
"O5 c #19344E",
"O6 c #DAE6F1",
"O7 c #18344D",
"O8 c #839EB6",
"O9 c #819CB4",
"O0 c #0B1F33",
"Oq c #364350",
"Ow c #4A677E",
"Oe c #203041",
"Or c #6F8A9F",
"Ot c #123247",
"Oy c #74899A",
"Ou c #728798",
"Oi c #B2CDE4",
"Op c #1B3F5D",
"Oa c #213E59",
"Os c #8798A6",
"Od c #D8DFE5",
"Of c #4A6274",
"Og c #587285",
"Oh c #8DA7B9",
"Oj c #9EB7CD",
"Ok c #BECAD2",
"Ol c #ACC7DE",
"Oz c #617F9B",
"Ox c #91A4B3",
"Oc c #566E83",
"Ov c #8192A0",
"Ob c #9BB5CA",
"On c #162637",
"Om c #7690A9",
"OM c #CCD8E3",
"ON c #D1D9DE",
"OB c #546E81",
"OV c #5A6D7D",
"OC c #9AB3C9",
"OZ c #152436",
"OA c #99B3C8",
"OS c #D9E8F3",
"OD c #98B1C7",
"OF c #CED5DB",
"OG c #CDE6FB",
"OH c #97B1C6",
"OJ c #E3E6E9",
"OK c #9CB0C1",
"OL c #667B8C",
"OP c #16324E",
"OI c #96AFC5",
"OU c #859DB1",
"OY c #8A9EAC",
"OT c #909DA8",
"OR c #C5D2DC",
"OE c #14304C",
"OW c #8EACC7",
"OQ c #7E9AB4",
"O! c #7D9AB3",
"O~ c #A8BED0",
"O^ c #C0D4D7",
"O/ c #E8F3FB",
"O( c #A0BBD2",
"O) c #6A869D",
"O_ c #E6F1F9",
"O` c #C0CED7",
"O' c #ABBBC9",
"O] c #C5DEF3",
"O[ c #2E506C",
"O{ c #95A8BA",
"O} c #94A8B9",
"O| c #8496A6",
"+  c #53718D",
"+. c #5D7383",
"+X c #283C4F",
"+o c #C3DCF1",
"+O c #8DA7BC",
"++ c #081829",
"+@ c #A2B8CA",
"+# c #92A6B7",
"+$ c #5C7182",
"+% c #273A4E",
"+& c #9CB7CE",
"+* c #5A7180",
"+= c #364A60",
"+- c #26384D",
"+; c #7592AB",
"+: c #9AB5CC",
"+> c #7490AA",
"+, c #A9C5DE",
"+< c #385A79",
"+1 c #2D4961",
"+2 c #677F90",
"+3 c #576D7D",
"+4 c #204968",
"+5 c #2B495F",
"+6 c #1C354D",
"+7 c #A7C3DC",
"+8 c #204768",
"+9 c #718EA7",
"+0 c #4B6B85",
"+q c #B2C3D3",
"+w c #8CA0B1",
"+e c #A6C3DB",
"+r c #1F4767",
"+t c #869FB5",
"+y c #BBD4E9",
"+u c #55697B",
"+i c #436A87",
"+p c #244462",
"+a c #F6F7F8",
"+s c #849DB3",
"+d c #3E566B",
"+f c #C4D2DE",
"+g c #DFE4E8",
"+h c #526778",
"+j c #F4F5F6",
"+k c #315472",
"+l c #C2D2DC",
"+z c #C2D0DC",
"+x c #6B88A1",
"+c c #305271",
"+v c #5B768E",
"+b c #607789",
"+n c #B1BEC8",
"+m c #253F59",
"+M c #DFF4FF",
"+N c #B5CEE3",
"+B c #D5DFE8",
"+V c #AFBCC6",
"+C c #3D6281",
"+Z c #091A2D",
"+A c #B3CCE1",
"+S c #7D97AC",
"+D c #A3BACE",
"+F c #A2BACD",
"+G c #2C4E6D",
"+H c #5C7385",
"+J c #8CA7BE",
"+K c #ABB8C2",
"+L c #395E7D",
"+P c #385C7C",
"+I c #89A3BB",
"+U c #D9EAF9",
"+Y c #576F80",
"+T c #9DB4C8",
"+R c #1C3750",
"+E c #86A1B8",
"+W c #B1C5D5",
"+Q c #768FA5",
"+! c #001224",
"+~ c #244865",
"+^ c #143652",
"+/ c #B9D4EA",
"+( c #A9C2D7",
"+) c #879EAF",
"+_ c #C2D2DF",
"+` c #51677A",
"+' c #111F2E",
"+] c #0B1E32",
"+[ c #ABBFCF",
"+{ c #9BADBC",
"+} c #3E6485",
"+| c #748899",
"@  c #A3BCD1",
"@. c #98ABB9",
"@X c #122D46",
"@o c #6C859B",
"@O c #A1BACF",
"@+ c #193E5A",
"@@ c #5A7386",
"@# c #1F3B56",
"@$ c #C0CBD3",
"@% c #2A3B4D",
"@& c #9FB8CD",
"@* c #495F72",
"@= c #CEDBE4",
"@- c #9DB6CB",
"@; c #081525",
"@: c #BDC9D0",
"@> c #CDD9E3",
"@, c #E8EBED",
"@< c #B7C6D4",
"@1 c #001427",
"@2 c #9BB4C9",
"@3 c #90A3B1",
"@4 c #A5B4BF",
"@5 c #CBD7E1",
"@6 c #6A7E8F",
"@7 c #ABB3BB",
"@8 c #D5E8F8",
"@9 c #99B2C7",
"@0 c #93B1CB",
"@q c #788EA0",
"@w c #A3B2BD",
"@e c #CDE5FA",
"@r c #667C8B",
"@t c #819DB6",
"@y c #142F4B",
"@u c #2F4155",
"@i c #1D4261",
"@p c #123149",
"@a c #C4D1DA",
"@s c #132F4A",
"@d c #416781",
"@f c #1E2F41",
"@g c #7D99B2",
"@h c #A8BDCF",
"@j c #617686",
"@k c #91AABF",
"@l c #7B97B0",
"@z c #8497A5",
"@x c #6F8497",
"@c c #394F62",
"@v c #3D617D",
"@b c #7995AE",
"@n c #7893AD",
"@m c #51708A",
"@M c #6C8294",
"@N c #ACC8E0",
"@B c #9CB6CD",
"@V c #B7C8D7",
"@C c #7C92A7",
"@Z c #5B7080",
"@A c #FDFEFE",
"@S c #455D71",
"@D c #0F283C",
"@F c #8FA3B3",
"@G c #586E7D",
"@H c #738FA8",
"@J c #C9D7E2",
"@K c #0D243A",
"@L c #132336",
"@P c #8DA1B1",
"@I c #728DA7",
"@U c #1C344C",
"@Y c #718DA6",
"@T c #C7D5E0",
"@R c #516980",
"@E c #1B344B",
"@W c #96B0C7",
"@Q c #355775",
"@! c #C6D5DF",
"@~ c #8A9FAE",
"@^ c #C5D3DE",
"@/ c #94AEC5",
"@( c #DAE4EC",
"@) c #92ACC3",
"@_ c #46667F",
"@` c #315371",
"@' c #F3F4F4",
"@] c #C7E1F7",
"@[ c #91ACC2",
"@{ c #DDE1E5",
"@} c #A6BDD0",
"@| c #1F415C",
"#  c #C1CFDA",
"#. c #90AAC1",
"#X c #B0BDC6",
"#o c #253E58",
"#O c #C5DFF5",
"#+ c #8FAAC0",
"#@ c #99AAB6",
"## c #385164",
"#$ c #8EA8BF",
"#% c #93A9BA",
"#& c #8DA8BE",
"#* c #5C7284",
"#= c #00182D",
"#- c #4B5E70",
"#; c #102840",
"#: c #354B61",
"#> c #8B939B",
"#, c #B5C8D8",
"#< c #89A4BA",
"#1 c #DAEBF9",
"#2 c #7992A7",
"#3 c #173954",
"#4 c #DFEAF4",
"#5 c #214A6B",
"#6 c #375B7A",
"#7 c #87A2B8",
"#8 c #7B8F9F",
"#9 c #102336",
"#0 c #708DA8",
"#q c #0F2335",
"#w c #345777",
"#e c #DAE6EF",
"#r c #C4D3E0",
"#t c #B4C1CD",
"#y c #1D3146",
"#u c #416787",
"#i c #0D1F33",
"#p c #ADC0D0",
"#a c #E7F6FF",
"#s c #101E2C",
"#d c #7F9AB0",
"#f c #000A19",
"#g c #8FAAC3",
"#h c #43647F",
"#j c #93ABBD",
"#k c #6E869C",
"#l c #6885A0",
"#z c #1B3F5B",
"#x c #8297A9",
"#c c #D3DEE8",
"#v c #8CA8C0",
"#b c #D2DEE7",
"#n c #213C57",
"#m c #EDF0F1",
"#M c #112A44",
"#N c #B1CBE1",
"#B c #708594",
"#V c #3A5F80",
"#C c #D0DCE5",
"#Z c #485E70",
"#A c #6D8191",
"#S c #7D91A4",
"#D c #6B7F8F",
"#F c #D6E9F8",
"#G c #85A0B9",
"#H c #8FA2AF",
"#J c #B5C5D1",
"#K c #E6E8EA",
"#L c #A9C3D9",
"#P c #8EA0AE",
"#I c #889FB2",
"#U c #0D2136",
"#Y c #ADC2D3",
"#T c #778D9E",
"#R c #0C2135",
"#E c #8B9EAB",
"#W c #000E1C",
"#Q c #304255",
"#! c #1E4361",
"#~ c #5F788D",
"#^ c #B0BFCC",
"#/ c #133049",
"#( c #A9BECF",
"#) c #132E49",
"#_ c #081D31",
"#` c #1C415F",
"#' c #728999",
"#] c #7D98B1",
"#[ c #3D627C",
"#{ c #2A3C4F",
"#} c #192A3B",
"#| c #3D607C",
"$  c #091828",
"$. c #7994AD",
"$X c white",
"$o c #273A4C",
"$O c #E8ECEF",
"$+ c #CCDAE4",
"$@ c #26384B",
"$# c #001529",
"$$ c #061425",
"$% c #455C70",
"$& c #D1D9DF",
"$* c #152637",
"$= c #A5B5C1",
"$- c #CAD8E2",
"$; c #697F90",
"$: c #B4C5D3",
"$> c #C9D6E1",
"$, c #A8C3DB",
"$< c #889FB5",
"$1 c #173450",
"$2 c #CDE6FC",
"$3 c #97B1C7",
"$4 c #B2C3D1",
"$5 c #112233",
"$6 c #667B8D",
"$7 c #556979",
"$8 c #000E1F",
"$9 c #CAE4F9",
"$0 c #7F8B95",
"$q c #426884",
"$w c #2F4257",
"$e c #899CAC",
"$r c #93ADC3",
"$t c #3C5467",
"$y c #DEE2E5",
"$u c #8C9BA5",
"$i c #061D32",
"$p c #91ABC1",
"$a c #5B768C",
"$s c #C7CFD5",
"$d c #96AABC",
"$f c #2A3E52",
"$g c #8AA8C4",
"$h c #8FA9BF",
"$j c #091A2B",
"$k c #7996B0",
"$l c #5E7385",
"$z c #486076",
"$x c #C3DCF2",
"$c c #08182A",
"$v c #7794AE",
"$b c #5B7182",
"$n c #00172C",
"$m c #A1B6CA",
"$M c #203952",
"$N c #C0DAEF",
"$B c #7592AC",
"$V c #9AB5CD",
"$C c #89A3B9",
"$Z c #1E3750",
"$A c #173853",
"$S c #B9C6D1",
"$D c #21496A",
"$F c #425A70",
"$G c #728EA9",
"$H c #B1C3D3",
"$J c #001022",
"$K c #9BB0C4",
"$L c #6F8CA6",
"$P c #496984",
"$I c #C5D4E0",
"$U c #53697A",
"$Y c #526779",
"$T c #516778",
"$R c #778A9A",
"$E c #F3F5F6",
"$W c #96ACBF",
"$Q c #ABBDCD",
"$! c #B0BEC8",
"$~ c #DAE0E4",
"$^ c #EFF1F2",
"$/ c #182C40",
"$( c #B3CCE2",
"$) c #122B44",
"$_ c #5C7386",
"$` c #3B6080",
"$' c #A1B8CD",
"$] c #7B95AB",
"$[ c #1F3D54",
"${ c #95A7B4",
"$} c #1F3B54",
"$| c #6E8291",
"%  c #9EB6CA",
"%. c #688195",
"%X c #B9C8D4",
"%o c #88A3BB",
"%O c #A2B5C4",
"%+ c #96B3CC",
"%@ c #86A1B9",
"%# c #717D8A",
"%$ c #85A1B8",
"%% c #001225",
"%& c #9AB2C6",
"%* c #051120",
"%= c #849FB7",
"%- c #A9C2D8",
"%; c #C8D3DC",
"%: c #718BA1",
"%> c #9CAFBE",
"%, c #51677B",
"%< c #809BB3",
"%1 c #A5BED4",
"%2 c #597890",
"%3 c #839AAC",
"%4 c #284056",
"%5 c #132D48",
"%6 c #B3CEE5",
"%7 c #1C405E",
"%8 c #BECEDC",
"%9 c #8DA9C3",
"%0 c #1B405D",
"%q c #A7BBCC",
"%w c #718697",
"%e c #617484",
"%r c #91A8BD",
"%t c #6B859B",
"%y c #BCCCDA",
"%u c #203D58",
"%i c #8BA7C1",
"%p c #4A6174",
"%a c #D0DDE7",
"%s c #6F8495",
"%d c #EBEFF1",
"%f c #9FB8CE",
"%g c #64829E",
"%h c #688398",
"%j c #CEDBE5",
"%k c #A2B7C7",
"%l c #668196",
"%z c #CDD9E4",
"%x c #D2DADF",
"%c c #F6FFFF",
"%v c #E7EBED",
"%b c #9BB4CA",
"%n c #D0D8DD",
"%m c #94A2AC",
"%M c #D4E8F8",
"%N c #99B2C8",
"%B c #041122",
"%V c #536B80",
"%C c #CEE7FC",
"%Z c #788EA1",
"%A c #A7C2D9",
"%S c #CDD4DA",
"%D c #314558",
"%F c #CCE5FA",
"%G c #15314D",
"%H c #1E4463",
"%J c #95AEC4",
"%K c #13334B",
"%L c #000D1E",
"%P c #647A8A",
"%I c #899DAB",
"%U c #C5D1DC",
"%Y c #A9BFD1",
"%T c #AEC0CC",
"%R c #12314A",
"%E c #B4BFC8",
"%W c #627888",
"%Q c #4C6579",
"%! c #A7BDCF",
"%~ c #71889A",
"%^ c #97ABBC",
"%/ c #415261",
"%( c #607686",
"%) c #A6BBCE",
"%_ c #8599A7",
"%` c #4A6377",
"%' c #7A97B0",
"%] c #B9CADA",
"%[ c #1D3B58",
"%{ c #6C8495",
"%} c #B7C8D8",
"%| c #00162B",
"&  c #BBC9D2",
"&. c #7F93A1",
"&X c #2F4A63",
"&o c #698092",
"&O c #224A6A",
"&+ c #BED7EC",
"&@ c #132537",
"&# c #E4E9ED",
"&$ c #A8C4DD",
"&% c #9DB3C5",
"&& c #223549",
"&* c #204868",
"&= c #566C7C",
"&- c #41596E",
"&; c #718DA7",
"&: c None",
/* pixels */
"&:&:&:&: 8 8 8 8 8#=.}.}+^&*&*+8+r.Vo>o5.3.9%7OpOpXP#`@i%H+r+4$D#5#5#5#5#5#5#5#5#5#5#5#5#5&:&:&:",
"&:&:&:.}XN%,%ZXdXlXv@x$i+VOROR.2@aO`& X,XWOk%xoo%d$X I (&#%;Xn+B.P@(@(@(@(@(@(@(@(@(@(@5.g&:&:&:",
"&:&:&:#=$z@m+<oQ+k+c+Rob p pO,%O g%>X^oX$E$X$X$XoT%SXM+K.W+{oq%y+_#r#r#rX-X-X-X-X-X-X-$]OX&:&:&:",
"&:&:&:$n+ $`+L#6  @`%/., %$&$&@: -O:+g$X$X$X 6%mXU+.%W#D#8OxO'Xa &@^@T.n@J.z.z.z.z.z.z j&:&:&:&:",
"&:&:&:on$q@vX{.;@woW$X$X$X$X$X$X$X o$X$X$^$uo^&=+*@j@rXp&.${.tXk ;+l@!.n$-X|$+$+$+$+ @&O&:&:&:&:",
"&:&:&:%|#[Xh#X.v$X$X$XOJ.I$y%v$X$X$X$X.~OV+h@ZXF$|$R.c@z.&o'.f#^#J q# o3o@OM%z%z%z%z.+#!&:&:&:&:",
"&:&:&:$#Xr$Eo4 ~%e.8+' X #X3o`.BOT@{.LX)oY%(#BoF%_%IOY#P@4+n@$.lOdoG%XO+.A@J.z.z.z.zOU J&:&:&:&:",
"&:&:&:@1O|X>$M+6@E.=o)ocol$boAX*$TX8@G+3%PX7oxop#H.G.S$X$X$X$X$X$O%n#t%T ^oEoIoIoIoIO)&:&:&:&:&:",
"&:&:&:O2 K$Z@U@UoJ$5X++|Oy P )$;oy.[$lOLOu d#PON@A$X$X$X+jXOo$#A$6+|$e so. D Z Z Z Z.w&:&:&:&:&:",
"&:&:&: h#n t a$}Xt&@$7@Fo @P@~.( v Y%s Y B%E.v$X$X$X@,X[+3$UX%#*oe%woa c$4%y%8%8%8%8$P&:&:&:&:&:",
"&:&:&:@1Oa _ _ TXK#9@6%^O{+#oC+wX2Xd#T#'OF$X$X$XO_o]@* !X: w.K@MXG#x+#Xs+q%}%]%]%]%]#|&:&:&:&:&:",
"&:&:&:$#XK.eXY%u@##q+b C@.$=$!Xw@3.-%{$s$X$X#a#CXE.X+`+H&oXVO@oKO}OK }#p k#,#,#,#,#,X~&:&:&:&:&:",
"&:&:&:X}XQX(XxO5 l#>.%$X$X$X$X$X$X+a$~$X$XoN$SXg [+Y+2@q+)#%o;%k%q+[ m x+W+W+W+W+W+W#h&:&:&:&:&:",
"&:&:&:@1O7X1#-o~$X$X$X$X$X$X$X$X$X$X$X$X%M.R.@Of$_%~%3 3&%.y#(XAXA#Y#Y#Y#Y#Y#Y#Y#Y#Y+0&:&:&:&:&:",
"&:&:&:+! {@7$X$X$X$X%c@8Xz u#1+U#F+M$X.MOS+u%pOoow#IoR+@%!O~%Y%Y%Y%Y%Y%Y%Y%Y%Y%Y%Y%Y%2&:&:&:&:&:",
"&:&:&:Oq#K$X$X$XO-.$$0Ov+$#Z@c.B.aOs+fO/X!$%Oc 2oi Q%&+T i i i i i i i i% O* 7+D.!@}XD E&:&:&:&:",
"&:&:&:@'$Xo}%# *$ #sX o*o#X]@So#.Z$t##$Y.H%Q#~%:#d#7$C#<#<#<#<#<#<#<#<#<ovog.4Xm e+F+S#z&:&:&:&:",
"&:&:.h.QoD++$c$jofOn%*OB. @@ /Og%V%`$F+doSo!+v.|+x + + + + + + + + + + ++9.d Voh.*Xj#j%0&:&:&:&:",
"&:#m.) :.`+Zo{O0#R$/o&%. f#2XX+Q%tO1XL#E#@ L.R@=#bXqXqXqXqXqXqXqXqXqXqXqXqXqXqO9#+OAO.+~&:&:&:&:",
"&:&:OtX5+]XZ@KoB 0 5#}@R.i@k.q+O+sXb@C AX$%U@>Xu#c#c#c#c#c#c#c#c#c#c#c#c#c#c#cXI+JOD@-@_&:&:&:&:",
"&:&:&:#W.x#;#M@X#).7@u%4@2.O.OOCor+E@H$d@5XfXu#c#c#c#c#c#c#c#c#c#c#c#c#c#c#c#c@g#&OD@-OrO%&:&:&:",
"&:&:&: .$)%5@s@yOEOE#:#_@-@-@-.O%N.YO8$Lo2#c#c#c#c$QO O O O O O O O O O $W OX`O3.YOA@- S@+&:&:&:",
"&:&:&: z@sOEOEOEOEOE+m#i 4@-@-@-.OOD$hXH.C+z#c#c#c.AXio-X4+>.p@b@b@b@b@b@l%<%@odo,@2@- 1O[&:&:&:",
"&:&:&:%%OEOEOEOEOEOEOE#QXo@-@-@-@-@2o,.{%'..%j#c#c#c.NOzoVO8 r.]#&#&#&#&#$#.$rOHOC.O@-@-%h&:&:&:",
"&:&:&:O4OEOEOEOEOEOEOE+=#U@-@-@-@-@-@2%J+I+;o1#c#c#c#c =$G%$@[OD%NOAOAOAOA.#@2.O.O@-@-@- |O=&:&:",
"&:&:&: zOEOEOEOEOEOEOEo7+Z+t@-@-@-@-.O.#or%=&;o%#c#c#c$>@Y#]ogOD.O@-@-@-@-@-@-@-@-@-@-@- 1.b&:&:",
"&:&:&: zOEOEOEOEOEOEOE%G@%&-@-@-@-@-@-.O@9./XH@I.J#c#c#c@<$LO8ou.#@-@-@-@-@-@-@-@-@-@-@-@-.E&:&:",
"&:&:&:X&OEOEOEOEOEOEOEOE$w#y@-@-@-@-@-@-%bo, 9@nOm ]#c#c#co+@b+JOD.O@-@-@-@-@-@-@-@-@-@-@-X#$A&:",
"&:&:&:X&OEOEOEOEOEOEOEOE nX0@-@-@-@-@-@-.O.#$p%<#l$<#c#c#c#c%r%oOI.O@-@-@-@-@-@-@-@-@-@-@- Q#3&:",
"&:&:&:$JOEOEOEOEOEOEOEOE#ooMXT@-@-@-@-@-.O.#$p%<#l$<#c#c#c#c%r%oOI.O@-@-@-@-@-@-@-@-@-@-@-O$@|&:",
"&:&:&:oU%G%G%G%G%G%G%G%GOP@L#k@-@-@-@-@-%bo, 9@nOm ]#c#c#co+@b+JOD.O@-@-@-@-@-@-@-@-@-@-@-@-o(&:",
"&:&:&: .$1$1$1$1$1$1$1$1$1@f%,@-@-@-@-.O@9./XH@I.J#c#c#c@<$LO8ou.#@-@-@-@-@-@-@-@-@-@-@-@-@-Ow&:",
"&:&:&: ..k.k.k.k.k.k.k.k.k$@XR@-@-@-.O.#or%=&;o%#c#c#c$>@Y#]ogOD.O@-@-@-@-@-@-@-@-@-@-@-@-@-$a&:",
"&:&:&:.F%[%[%[%[%[%[%[%[%[+-%D@-@-@-@2%J+I+;o1#c#c#c#c =$G%$@[OD%NOAOAOAOA.#@2.O.O@-@-@-@-@-o<.>",
"&:&:&:.F.T.T.T.T.T.T.T.T.T$f+X@O@O@&oO <.5$.%ao|o|o|$:%g$v%@OO.Y.Y.Y.Y.Y@)@/$3ObOj `@O@O@O@O '%K",
"&:&:&:$8+p+p+p+p+p+p+p+p+p.^$o G@ %f.D#G$B$IX6X6X6@J H.j#0$kO!OQOQOQOQOQ@tXcO#@WX/ R G G G G W.<",
"&:&:&:$8oZoZoZoZoZoZoZoZoZ >#{ N%1@B#voj@VX<X<X<X<$HX=X=X=X=X=$K$K$K$K$KoH$m@h#g@B%1+(+(+(+(@o#/",
"&:&:&:o6+G+G+G+G+G+G+G+G+G.'XBO<XS+:X_%)#e#e#e#e#e#e#e#e#e#e#e#e#e#e#e#e#e#e#e%i+&%- y y y y%l F",
"&:&:&:%Lo/o/o/o/o/o/o/o/o/+%X9O&#L$V$'oLoLoLoLoLoLoLoLoLoLoLoLoLoLoLoLoLoLoLoL%9O(O>+A+A+A+Ao0&:",
"&:&:&:%L#w#w#w#w#w#w#w#w#wo9.m+N.o%-O6#4#4#4#4#4#4#4#4#4#4#4#4#4#4#4#4#4#4#4#4%+%A$( $ $ $ $ M&:",
"&:&:&:%L+P+P+P+P+P+P+P+P+POZ#SoPo_Ol ,@0$gX.X@X@X@X@X@X@X@X@X@X@X@X@X@X@ozOWO;$, U+y&+&+&+&+ot&:",
"&:&:&:.1XyXyXyXyXyXyXyXy#V%B.u$x$N b%6.s+,+7+e+e+e+e+e+e+e+e+e+e+e+e+e+e&$@NOi+/om$xO]O]O]+oX'&:",
"&:&:&:.1+}+}+}+}+}+}+}+}@Q$$@eOG%Fo8@]#O._._._._._._._._._._._._._._._._._os.U$9o:$2%C%C%C#N@p&:",
"&:&:&:.1+C#u#u#u#u#u#u#u&XOeokokokokokokokokokokokokokokokokokokokokokokokokokokokokokokokOhXe&:",
"&:&:&:.1+1+i+i+i+i+i+i+i&&X;o[o[o[o[o[o[o[o[o[o[o[o[o[o[o[o[o[o[o[o[o[o[o[o[o[o[o[o[o[o[o[.0&:&:",
"&:&:&:X5$*+5@do=o=o=o=.:@;O^XCXCXCXCXCXCXCXCXCXCXCXCXCXCXCXCXCXCXCXCXCXCXCXCXCXCXCXCXCXC.r$[&:&:",
"&:&:&:&:#fXJXJXJXJXJXJXJ@D.6%R%R%R%R%R%R%R%R%R%R%R%R%R%R%R%R%R%R%R%R%R%R%R%R%R%R%R%R%R%R%RXe&:&:",
"&:&:&:&:&:&:&:&:&:&:&:&:&:&:&:&:&:&:&:&:&:&:&:&:&:&:&:&:&:&:&:&:&:&:&:&:&:&:&:&:&:&:&:&:&:&:&:&:"
};
