/* XPM */
static char * sol_xpm[] = {
"48 48 458 2",
"  	c None",
". 	c #000000",
"+ 	c #D8D8D8",
"@ 	c #FFFFFF",
"# 	c #EDEDEA",
"$ 	c #8B8A86",
"% 	c #817F79",
"& 	c #7E775E",
"* 	c #8D8364",
"= 	c #908666",
"- 	c #918867",
"; 	c #908767",
"> 	c #968C6A",
", 	c #9D926D",
"' 	c #908766",
") 	c #8F8666",
"! 	c #918767",
"~ 	c #8E8565",
"{ 	c #423E30",
"] 	c #ABABA8",
"^ 	c #8B8983",
"/ 	c #C7C6C1",
"( 	c #918263",
"_ 	c #966439",
": 	c #CFB86E",
"< 	c #E3CC7A",
"[ 	c #EAD37E",
"} 	c #DBC274",
"| 	c #D38249",
"1 	c #D3BD70",
"2 	c #E6CF7B",
"3 	c #E9D17D",
"4 	c #E8D07C",
"5 	c #D6BD71",
"6 	c #A67544",
"7 	c #C0965D",
"8 	c #A09B87",
"9 	c #9B9994",
"0 	c #8B8A84",
"a 	c #DDDBD6",
"b 	c #C8C4BF",
"c 	c #956355",
"d 	c #C13B1C",
"e 	c #CA6E3D",
"f 	c #E3A05D",
"g 	c #D99656",
"h 	c #C56436",
"i 	c #DD411E",
"j 	c #CD552B",
"k 	c #D49355",
"l 	c #E29F5C",
"m 	c #D49354",
"n 	c #C83C1B",
"o 	c #B83C1D",
"p 	c #AA9A94",
"q 	c #ECEBE8",
"r 	c #91908B",
"s 	c #C9C8C7",
"t 	c #8C8A84",
"u 	c #DEDCD7",
"v 	c #DFDED9",
"w 	c #CAC9C4",
"x 	c #965343",
"y 	c #CD3D1C",
"z 	c #DF421E",
"A 	c #DE421E",
"B 	c #DC411D",
"C 	c #AF3417",
"D 	c #A17F72",
"E 	c #ECECE9",
"F 	c #3D3C3B",
"G 	c #DBD9D3",
"H 	c #C9C7C2",
"I 	c #5E5D5B",
"J 	c #5E5E5B",
"K 	c #CBC9C5",
"L 	c #DFDDD8",
"M 	c #E0DED9",
"N 	c #8C8A85",
"O 	c #E1DFDA",
"P 	c #E1E0DB",
"Q 	c #87837F",
"R 	c #2C160E",
"S 	c #381C12",
"T 	c #351911",
"U 	c #321811",
"V 	c #2D130D",
"W 	c #290F09",
"X 	c #6E605B",
"Y 	c #DFDFDC",
"Z 	c #3D3D3B",
"` 	c #7A7976",
" .	c #979591",
"..	c #999794",
"+.	c #72726F",
"@.	c #E0DFDA",
"#.	c #8D8B85",
"$.	c #E2E0DC",
"%.	c #C5C4C0",
"&.	c #6A6864",
"*.	c #655847",
"=.	c #5D5242",
"-.	c #7C6C57",
";.	c #645746",
">.	c #75716C",
",.	c #454545",
"'.	c #4B4B4B",
").	c #70706F",
"!.	c #323231",
"~.	c #3E3E3C",
"{.	c #BDBCB7",
"].	c #3E3E3D",
"^.	c #E2E1DC",
"/.	c #8D8B86",
"(.	c #E3E2DD",
"_.	c #949390",
":.	c #93908C",
"<.	c #9D8A70",
"[.	c #615545",
"}.	c #9A866C",
"|.	c #8C7A62",
"1.	c #605343",
"2.	c #AA9478",
"3.	c #9C978F",
"4.	c #5C5C5C",
"5.	c #A5A5A5",
"6.	c #727271",
"7.	c #E9E9E6",
"8.	c #4D4D4B",
"9.	c #BEBDB9",
"0.	c #3F3E3D",
"a.	c #E2E1DD",
"b.	c #E4E3DE",
"c.	c #8E8C86",
"d.	c #E4E3DF",
"e.	c #CFCECA",
"f.	c #6E6D6C",
"g.	c #988A78",
"h.	c #C4AB8A",
"i.	c #8B7962",
"j.	c #CBB18F",
"k.	c #C6AC8B",
"l.	c #C8AE8D",
"m.	c #92897D",
"n.	c #747474",
"o.	c #8C8C8C",
"p.	c #676766",
"q.	c #A7A7A5",
"r.	c #292827",
"s.	c #979592",
"t.	c #5D5D5D",
"u.	c #B5B5B3",
"v.	c #7E7B6E",
"w.	c #767573",
"x.	c #9F9F9D",
"y.	c #9E9E9C",
"z.	c #B6B5B0",
"A.	c #DAD8D2",
"B.	c #A6A49F",
"C.	c #353330",
"D.	c #AEACA7",
"E.	c #DCDAD5",
"F.	c #E3E2DE",
"G.	c #E5E5E0",
"H.	c #E6E5E1",
"I.	c #E7E7E3",
"J.	c #E8E7E3",
"K.	c #E9E9E5",
"L.	c #EAE9E6",
"M.	c #7F7F7E",
"N.	c #474644",
"O.	c #777572",
"P.	c #484644",
"Q.	c #DCDBD5",
"R.	c #DEDDD7",
"S.	c #E5E4E0",
"T.	c #E7E6E2",
"U.	c #E9E8E4",
"V.	c #EAEAE7",
"W.	c #EBEBE7",
"X.	c #676B6F",
"Y.	c #4B5966",
"Z.	c #C0C1C0",
"`.	c #CFCAC4",
" +	c #2A2928",
".+	c #2A2827",
"++	c #B1AFAB",
"@+	c #E8E8E4",
"#+	c #EAEAE6",
"$+	c #EBEBE8",
"%+	c #878A8C",
"&+	c #4F6D86",
"*+	c #31414F",
"=+	c #DCDBD7",
"-+	c #B07D6F",
";+	c #5F5D5A",
">+	c #31302D",
",+	c #605E5B",
"'+	c #E8E7E4",
")+	c #7F7F7F",
"!+	c #6B8499",
"~+	c #48657D",
"{+	c #CACAC6",
"]+	c #B35A45",
"^+	c #2B2A29",
"/+	c #A7A6A2",
"(+	c #A9A8A4",
"_+	c #2D2C2B",
":+	c #3F5569",
"<+	c #8C97A1",
"[+	c #56728A",
"}+	c #BCBBB8",
"|+	c #B44C36",
"1+	c #D9D9D9",
"2+	c #8B8985",
"3+	c #868480",
"4+	c #AEADAA",
"5+	c #D6D5D1",
"6+	c #D9D8D4",
"7+	c #E0DFDB",
"8+	c #E4E4E0",
"9+	c #DEDEDA",
"0+	c #D8D8D4",
"a+	c #E8E8E5",
"b+	c #4C657A",
"c+	c #606F7D",
"d+	c #887F88",
"e+	c #CCCBC8",
"f+	c #A95543",
"g+	c #E1DFDB",
"h+	c #B49D95",
"i+	c #A97365",
"j+	c #B77E6E",
"k+	c #AE8C82",
"l+	c #C1C1BE",
"m+	c #D4D4D0",
"n+	c #BBADA7",
"o+	c #B18276",
"p+	c #A86C5C",
"q+	c #A57C71",
"r+	c #B8B3B0",
"s+	c #E2E2DF",
"t+	c #A5A8AA",
"u+	c #466077",
"v+	c #7D7B81",
"w+	c #E1E1DD",
"x+	c #AB8A82",
"y+	c #C4AEA6",
"z+	c #C06047",
"A+	c #E45C2E",
"B+	c #F0783F",
"C+	c #F07B41",
"D+	c #EB6634",
"E+	c #B74629",
"F+	c #B05740",
"G+	c #DE552A",
"H+	c #EE713B",
"I+	c #F17D41",
"J+	c #EC6835",
"K+	c #C84825",
"L+	c #A76E5F",
"M+	c #D2D2CE",
"N+	c #F1F5F9",
"O+	c #334555",
"P+	c #8393A0",
"Q+	c #CECBC8",
"R+	c #C05F45",
"S+	c #EA703B",
"T+	c #FCA45A",
"U+	c #FEAE60",
"V+	c #FEAC5F",
"W+	c #FDA459",
"X+	c #F48244",
"Y+	c #EE783E",
"Z+	c #FA9852",
"`+	c #FDA55A",
" @	c #FD9F56",
".@	c #FA8E4B",
"+@	c #EF6C36",
"@@	c #D24825",
"#@	c #A68379",
"$@	c #D9D8D6",
"%@	c #FCFDFE",
"&@	c #80878C",
"*@	c #97A2AC",
"=@	c #EBEAE7",
"-@	c #E76332",
";@	c #FEAB5E",
">@	c #FEA65B",
",@	c #FD9B54",
"'@	c #FB924D",
")@	c #F98847",
"!@	c #F88646",
"~@	c #F98745",
"{@	c #F88243",
"]@	c #F5743A",
"^@	c #F06430",
"/@	c #EB5628",
"(@	c #E54B22",
"_@	c #B1412A",
":@	c #A99E99",
"<@	c #E7E7E4",
"[@	c #F3F7FA",
"}@	c #92969A",
"|@	c #949FA8",
"1@	c #F57F41",
"2@	c #FEA357",
"3@	c #FD9B51",
"4@	c #FB8E4A",
"5@	c #F57B3E",
"6@	c #F16E36",
"7@	c #EE6430",
"8@	c #ED6330",
"9@	c #EE6230",
"0@	c #ED5E2C",
"a@	c #E84F24",
"b@	c #E2421C",
"c@	c #DD3A18",
"d@	c #DD3E1B",
"e@	c #C23B20",
"f@	c #9B7E77",
"g@	c #E3E3E0",
"h@	c #E8EFF5",
"i@	c #F77E40",
"j@	c #FA8442",
"k@	c #F77639",
"l@	c #F26631",
"m@	c #E95427",
"n@	c #E54D23",
"o@	c #E34A22",
"p@	c #E14720",
"q@	c #DF411D",
"r@	c #DB3818",
"s@	c #D62D12",
"t@	c #D2270E",
"u@	c #D0260D",
"v@	c #D53E1A",
"w@	c #C63F20",
"x@	c #926F67",
"y@	c #EC5C2B",
"z@	c #F56A32",
"A@	c #EF5929",
"B@	c #E84B22",
"C@	c #DF401C",
"D@	c #DC3E1B",
"E@	c #DA3919",
"F@	c #D52F13",
"G@	c #D0270F",
"H@	c #CC200B",
"I@	c #CA1E0A",
"J@	c #CC210C",
"K@	c #D33E1B",
"L@	c #BE4124",
"M@	c #9E857E",
"N@	c #E1E1DE",
"O@	c #A5A49D",
"P@	c #C1C1BF",
"Q@	c #D13F1E",
"R@	c #E84E23",
"S@	c #E4431D",
"T@	c #DC3717",
"U@	c #D63114",
"V@	c #D53014",
"W@	c #D43013",
"X@	c #D12B11",
"Y@	c #CC220D",
"Z@	c #C91C0A",
"`@	c #C81A08",
" #	c #C91B09",
".#	c #CE3214",
"+#	c #D64F24",
"@#	c #A54A38",
"##	c #B1ABA7",
"$#	c #E6E6E3",
"%#	c #9C4A37",
"&#	c #D43A19",
"*#	c #DB3717",
"=#	c #D52D13",
"-#	c #D12810",
";#	c #D02710",
">#	c #CE250F",
",#	c #C91C09",
"'#	c #C71908",
")#	c #CC2D11",
"!#	c #D44B21",
"~#	c #BB3C1E",
"{#	c #9C857F",
"]#	c #CFCFCC",
"^#	c #C4C4C1",
"/#	c #BFB9B5",
"(#	c #A65D4E",
"_#	c #C73217",
":#	c #D33416",
"<#	c #D02A11",
"[#	c #CD220D",
"}#	c #CA1D0A",
"|#	c #C81A09",
"1#	c #C81B09",
"2#	c #CD3314",
"3#	c #CE451E",
"4#	c #B0422B",
"5#	c #9A7F78",
"6#	c #CFCFCD",
"7#	c #E5E5E2",
"8#	c #E4E4E1",
"9#	c #C1BBB8",
"0#	c #9C5445",
"a#	c #C23014",
"b#	c #D13516",
"c#	c #CC240E",
"d#	c #C91B0A",
"e#	c #C71A08",
"f#	c #CD421B",
"g#	c #AC3A24",
"h#	c #C6C5C2",
"i#	c #977E78",
"j#	c #B0321C",
"k#	c #CE3215",
"l#	c #CB210C",
"m#	c #CA200B",
"n#	c #D03E19",
"o#	c #C4411C",
"p#	c #8B4639",
"q#	c #A29995",
"r#	c #D5D5D3",
"s#	c #D6D5D3",
"t#	c #9F7B74",
"u#	c #B63923",
"v#	c #D2411C",
"w#	c #C0411D",
"x#	c #89483A",
"y#	c #AAA4A1",
"z#	c #D1D1CF",
"A#	c #DCDBD9",
"B#	c #ADA09B",
"C#	c #B6381F",
"D#	c #C8391A",
"E#	c #78564E",
"F#	c #B2B0AE",
"G#	c #DDDDDB",
"H#	c #B9B9B7",
"I#	c #8B8A87",
"J#	c #92918E",
"K#	c #DEDEDB",
"L#	c #A4776D",
"M#	c #995243",
"N#	c #B0ADAB",
"O#	c #D9D9D6",
"P#	c #2D2D2B",
"Q#	c #B2B2AF",
"R#	c #2C2B2A",
"S#	c #D8D7D4",
"T#	c #CBC9C6",
"U#	c #63625F",
"V#	c #32312F",
"W#	c #4C4B4A",
"X#	c #807F7D",
"Y#	c #373532",
"                                                                                                ",
"                                                                                                ",
"                                                                                                ",
"                                  . . . . . . . . . . . . . . . . . . . . . . .                 ",
"                                . + @ @ @ @ @ @ @ @ @ @ @ @ @ @ @ @ @ @ @ @ @ + .               ",
"                                . @ # # # # # # # # # # # # # # # # # # # # # # .               ",
"                                . @ # $ % & * = - ; ; > , - ' ) ! - ) ~ { ] # # .               ",
"                                . @ # ^ / ( _ : < [ [ } | 1 2 3 4 5 6 7 8 9 # # .               ",
"          . . . . . . . . . . . . @ # 0 a b c d e f g h i j k l m n o p q r # # .               ",
"        . s @ @ @ @ @ @ @ @ @ @ . @ # t u v w x y i z z z A B i A C D E # r # # .               ",
"        . @ F G H I I J K u L M . @ # N v O P Q R S S S S T U V W X Y # # r # # .               ",
"        . @ Z G `  .H ..+.v @.P . @ # #.@.$.%.&.*.=.-.;.=.-.>.,.'.).# # # r # # .               ",
"        . @ !.L ~.{.L {.].@.P ^.. @ # /.^.(._.:.<.[.}.|.1.2.3.4.5.6.7.# # r # # .               ",
"        . @ 8.L !.{.L 9.0.^.a.b.. @ # c.(.d.e.f.g.h.i.j.k.l.m.n.o.p.q.# # r # # .               ",
"        . @ 8.L r.s.. . . . . . . . . . . . . . . . . . . . . . . t.u.v.# r # # .               ",
"        . @ w.L v . s @ @ @ @ @ @ @ @ @ @ @ @ @ @ @ @ @ @ @ @ @ x.. y.z.# r # # .               ",
"        . @ L M @.. @ A.B.C.D.G E.a u L M @.$.^.F.d.G.H.I.J.K.L.# . M.p.# r # # .               ",
"        . @ @.P @.. @ A.N.O.P.Q.u R.v @.P ^.(.b.S.H.T.I.U.K.V.W.# . X.Y.Z.r # # .               ",
"        . @ P ^.`.. @ D. +A..+++L v @.P ^.(.d.S.H.T.J.@+L.#+$+E # . %+&+*+r # # .               ",
"        . @ (.=+-+. @ ;+ +>+ +,+@.O ^.a.b.d.H.H.I.'+K.L.W.q # # # . )+!+~+r # # .               ",
"        . @ b.{+]+. @ ^+/+v (+_+P $.(.F.S.G.T.I.@+K.#+W.E # # # # . :+<+[+r # # .               ",
"        . @ S.}+|+. 1+2+L v O 3+4+5+6+7+d.H.8+9+0+Y a+$+# # # # # . b+c+d+r # # .               ",
"        . @ H.e+f+. @ L M @.g+5+h+i+j+k+l+m+n+o+p+q+r+s+E # # # # . t+u+v+r # # .               ",
"        . @ I.w+x+. @ @.P @.y+z+A+B+C+D+E+F+G+H+I+J+K+L+M+7.# # # . N+O+P+r # # .               ",
"        . @ U.@+Q+. @ P ^.`.R+S+T+U+V+W+X+Y+Z+`+ @.@+@@@#@$@E # # . %@&@*@r # # .               ",
"        . @ #+=@a+. @ (.=+-+-@`+;@>@,@'@)@!@~@{@]@^@/@(@_@:@<@# # . [@}@|@r # # .               ",
"        . @ W.E E . @ b.{+]+1@2@3@4@5@6@7@8@9@0@a@b@c@d@e@f@g@E # . h@}@|@r # # .               ",
"        . @ E # # . @ S.}+|+i@j@k@l@m@n@o@p@q@r@s@t@u@v@w@x@Y E # . @ }@|@r # # .               ",
"        . @ # # # . @ H.e+f+y@z@A@B@C@d@D@E@F@G@H@I@J@K@L@M@N@E # . r r O@P@# # .               ",
"        . @ # # # . @ I.w+x+Q@R@S@T@U@V@W@X@Y@Z@`@ #.#+#@###$#E # . # # # # # # .               ",
"        . @ # # # . @ U.@+Q+%#&#*#=#-#;#>#J@,#'#`@)#!#~#{#]#$+# # . # # # # # ^#.               ",
"        . @ # # # . @ #+=@a+/#(#_#:#<#[#}#|#'#1#2#3#4#5#6#7## # # . . . . . . . .               ",
"        . @ # # # . @ W.E E 8#9#0#a#b#c#d#'#e#2#f#g#M@h#8#E # # # .                             ",
"        . @ # # # . @ E # # # 7.]#i#j#k#l#m#n#o#p#q#r#<@# # # # # .                             ",
"        . @ # # # . @ # # # # # 7.s#t#u#b#v#w#x#y#z#<@E # # # # # .                             ",
"        . y.# # # . @ # # # # # # E A#B#C#D#E#F#G#V.H#I## # # J#H#.                             ",
"          . . . . . @ # # # # # # # $+K#L#M#N#O#V.# # P#Q## Q#R## .                             ",
"                  . @ # # # # # # # # E S#T#Y V.# # # U#^+V#^+U## .                             ",
"                  . @ # # # # # # # # # $+7.$+# # # # }+ +# ^+}+# .                             ",
"                  . @ # # # # # # # # # # # # # # # # # W#X#W## # .                             ",
"                  . @ # # # # # # # # # # # # # # # # # }+Y#Q## # .                             ",
"                  . y.# # # # # # # # # # # # # # # # # # # # # x..                             ",
"                    . . . . . . . . . . . . . . . . . . . . . . . .                             ",
"                                                                                                ",
"                                                                                                ",
"                                                                                                ",
"                                                                                                ",
"                                                                                                "};
