/* XPM */
static char * stendhal_xpm[] = {
"16 16 114 2",
"  	c None",
". 	c #2F1413",
"+ 	c #2D1211",
"@ 	c #2B100F",
"# 	c #32312F",
"$ 	c #2D1C1B",
"% 	c #2B1413",
"& 	c #726F6A",
"* 	c #6D6B68",
"= 	c #656360",
"- 	c #64615C",
"; 	c #504E4A",
"> 	c #000000",
", 	c #190909",
"' 	c #463F39",
") 	c #FCF6ED",
"! 	c #A2A09C",
"~ 	c #141414",
"{ 	c #75655F",
"] 	c #A4A09E",
"^ 	c #FDFAF5",
"/ 	c #FDF9F3",
"( 	c #C9C2B9",
"_ 	c #3D1B1B",
": 	c #985656",
"< 	c #998E8E",
"[ 	c #AEAEAD",
"} 	c #FEFBF8",
"| 	c #FEFDFC",
"1 	c #333333",
"2 	c #1A1615",
"3 	c #A09B93",
"4 	c #FEFDFA",
"5 	c #FFFFFF",
"6 	c #FFFEFD",
"7 	c #FDF8F2",
"8 	c #FEFDFB",
"9 	c #F1E9DE",
"0 	c #8D7E78",
"a 	c #AC5454",
"b 	c #5B4242",
"c 	c #5C5C5C",
"d 	c #383531",
"e 	c #FBF4E9",
"f 	c #FEFBF7",
"g 	c #FFFEFC",
"h 	c #FFFFFE",
"i 	c #FBF3E7",
"j 	c #332828",
"k 	c #FEDBD7",
"l 	c #65625F",
"m 	c #51463D",
"n 	c #FDF8F1",
"o 	c #6F615E",
"p 	c #C1908E",
"q 	c #A28E8C",
"r 	c #141313",
"s 	c #FCF7EF",
"t 	c #FEFBF6",
"u 	c #653636",
"v 	c #FEAAAA",
"w 	c #332727",
"x 	c #2E2824",
"y 	c #DCCEC0",
"z 	c #FCF5EB",
"A 	c #D1C1B3",
"B 	c #BDAB9C",
"C 	c #6E5851",
"D 	c #331D1D",
"E 	c #3C3530",
"F 	c #D2C7BA",
"G 	c #F6EDE0",
"H 	c #DFD6C7",
"I 	c #BFAD9D",
"J 	c #BCA18E",
"K 	c #745844",
"L 	c #200C0B",
"M 	c #150807",
"N 	c #625A56",
"O 	c #E7E0D5",
"P 	c #F8F0E4",
"Q 	c #ECE4D6",
"R 	c #E5DACC",
"S 	c #EAE1D3",
"T 	c #C4B3A3",
"U 	c #BDAA9A",
"V 	c #AD9587",
"W 	c #7A564A",
"X 	c #D1C1B2",
"Y 	c #CBBFAE",
"Z 	c #C5B5A5",
"` 	c #C3B2A1",
" .	c #C6B7A6",
"..	c #BAA595",
"+.	c #BE9C84",
"@.	c #997A68",
"#.	c #342121",
"$.	c #433B36",
"%.	c #BCA898",
"&.	c #B3A192",
"*.	c #A79281",
"=.	c #C09678",
"-.	c #46352A",
";.	c #271A15",
">.	c #080303",
",.	c #2B2927",
"'.	c #6B6662",
").	c #8C7E73",
"!.	c #9B755A",
"~.	c #443026",
"{.	c #0A0403",
"].	c #110606",
"^.	c #130706",
"/.	c #060202",
"        . + @ @ @         # $   ",
"      % & * = - ; > > , ' ) ! ~ ",
"    { ] ^ / / ^ ( _ : < [ } | 1 ",
"  2 3 4 5 6 7 8 9 0 a b c 5 5 1 ",
"d e f 5 5 5 g h i i i i j k l > ",
"m ) ^ 6 5 5 n / i i i i o p q r ",
"m i i s g t n i i i i i ( u v w ",
"x y i i z e e i i i i A B C D   ",
"@ E F i i i i i i G H I J K L   ",
"  M N O P Q R S S A T U V W L   ",
"    M ; X Y Z `  .T ..+.@.#.    ",
"      @ $.%.%...&.*.=.-.;.      ",
"        >.,.'.).!.!.~.{.        ",
"          > > ].> > L           ",
"          ^.>   , >             ",
"            ].>.  , /.          "};
