/* XPM */
static char * sylpheed_xpm[] = {
"48 48 593 2",
"  	c None",
". 	c #0505A7",
"+ 	c #0404A3",
"@ 	c #0404A2",
"# 	c #0505AB",
"$ 	c #0505A6",
"% 	c #0505A4",
"& 	c #0505A0",
"* 	c #05059C",
"= 	c #040499",
"- 	c #040495",
"; 	c #040492",
"> 	c #04048E",
", 	c #04048B",
"' 	c #040487",
") 	c #040483",
"! 	c #040480",
"~ 	c #040485",
"{ 	c #030385",
"] 	c #030382",
"^ 	c #03037B",
"/ 	c #03036F",
"( 	c #0505B0",
"_ 	c #0505AD",
": 	c #0505AC",
"< 	c #0505AA",
"[ 	c #04049F",
"} 	c #040498",
"| 	c #040491",
"1 	c #04048D",
"2 	c #040489",
"3 	c #040486",
"4 	c #04047F",
"5 	c #04047B",
"6 	c #030478",
"7 	c #030378",
"8 	c #0505B8",
"9 	c #0505B6",
"0 	c #0505BA",
"a 	c #000000",
"b 	c #01012A",
"c 	c #000021",
"d 	c #D5D5D5",
"e 	c #FCFCFC",
"f 	c #FDFDFD",
"g 	c #FCFCFD",
"h 	c #BEBEEA",
"i 	c #DEDEF0",
"j 	c #F3F3F3",
"k 	c #EEEEEE",
"l 	c #EBEBEB",
"m 	c #EAEAEA",
"n 	c #ECECEC",
"o 	c #EFEFEF",
"p 	c #F2F2F2",
"q 	c #F4F4F4",
"r 	c #F5F5F5",
"s 	c #F3F4F3",
"t 	c #F6F6F6",
"u 	c #F7F7F7",
"v 	c #C2C2C2",
"w 	c #FCFBFC",
"x 	c #F8F8F8",
"y 	c #F8F9F8",
"z 	c #F6F7F6",
"A 	c #F5F4F4",
"B 	c #F4F4F5",
"C 	c #F4F3F4",
"D 	c #F1F1F1",
"E 	c #C6C5E5",
"F 	c #C2C4E0",
"G 	c #E4E4E4",
"H 	c #E1E1E1",
"I 	c #DEDEDE",
"J 	c #DCDCDC",
"K 	c #DFDFDF",
"L 	c #E0E0E0",
"M 	c #E0E1E1",
"N 	c #B4B4D7",
"O 	c #8686C7",
"P 	c #7E7EC3",
"Q 	c #6E6EBB",
"R 	c #5151A9",
"S 	c #5554A9",
"T 	c #7474B8",
"U 	c #A9A8CD",
"V 	c #D9DADB",
"W 	c #DBDBDB",
"X 	c #DDDFDD",
"Y 	c #E2E2E2",
"Z 	c #D8D8D9",
"` 	c #9D9D9D",
" .	c #E0E1E0",
"..	c #FEFDFE",
"+.	c #F8F7F7",
"@.	c #F7F6F7",
"#.	c #F3F4F4",
"$.	c #EFEEEF",
"%.	c #E6E6EA",
"&.	c #9B9BD6",
"*.	c #E3E3E3",
"=.	c #DEDFDE",
"-.	c #DEDEDD",
";.	c #D4D4DD",
">.	c #9191CC",
",.	c #B2B0D4",
"'.	c #DBDBDE",
").	c #D6D6D9",
"!.	c #A2A3C9",
"~.	c #5353A4",
"{.	c #424196",
"].	c #5F5EA8",
"^.	c #C0BECF",
"/.	c #D5D7D6",
"(.	c #D7D7DB",
"_.	c #DCDCDB",
":.	c #DBDBDD",
"<.	c #9B9C9B",
"[.	c #C3C3C3",
"}.	c #FFFFFF",
"|.	c #F5F6F5",
"1.	c #F2F1F1",
"2.	c #A0A0D6",
"3.	c #CFCFDE",
"4.	c #DFDEDE",
"5.	c #DDDEDE",
"6.	c #DDDCDD",
"7.	c #DDDEDD",
"8.	c #B6B6D6",
"9.	c #DDDCDE",
"0.	c #E0E2E0",
"a.	c #DEDEDC",
"b.	c #D9D7D9",
"c.	c #D4D4D4",
"d.	c #C9C8CF",
"e.	c #6968AE",
"f.	c #403F90",
"g.	c #494996",
"h.	c #B2B2C7",
"i.	c #CED0D0",
"j.	c #D5D7D3",
"k.	c #8E8E8E",
"l.	c #898A89",
"m.	c #E8E8E8",
"n.	c #BABABA",
"o.	c #F1F2F1",
"p.	c #F0F0F1",
"q.	c #ECECED",
"r.	c #E9E9E9",
"s.	c #E0E0E5",
"t.	c #9595D0",
"u.	c #D8D7DD",
"v.	c #DDDDDC",
"w.	c #DEDCDE",
"x.	c #DFDEDF",
"y.	c #DDDBDB",
"z.	c #DCDADA",
"A.	c #D7D7D8",
"B.	c #D6D5D4",
"C.	c #D3D3D3",
"D.	c #D1CFD1",
"E.	c #CDCDCE",
"F.	c #C4C5C9",
"G.	c #54539E",
"H.	c #3C3C8B",
"I.	c #4C4C95",
"J.	c #BBBBC3",
"K.	c #CACACA",
"L.	c #D6D5D5",
"M.	c #A4A4A4",
"N.	c #A7A7A7",
"O.	c #E3E3E1",
"P.	c #B5B5B5",
"Q.	c #F0F0F0",
"R.	c #EEEEED",
"S.	c #E5E5E5",
"T.	c #DBDCDF",
"U.	c #A6A6D1",
"V.	c #CACAD7",
"W.	c #DADADA",
"X.	c #DADADC",
"Y.	c #DBDBDC",
"Z.	c #D9D9D9",
"`.	c #D2D3D6",
" +	c #B8BACF",
".+	c #D0D1D1",
"++	c #CECECE",
"@+	c #C9CCCC",
"#+	c #C9C7C9",
"$+	c #9494B9",
"%+	c #3B3B87",
"&+	c #3A3B84",
"*+	c #7070A6",
"=+	c #C6C6C7",
"-+	c #ABABAB",
";+	c #8F908F",
">+	c #C5C5C4",
",+	c #A6A6A6",
"'+	c #EFEFEE",
")+	c #EAEAE9",
"!+	c #E8E7E7",
"~+	c #E5E5E4",
"{+	c #BFBFD4",
"]+	c #B0B0D0",
"^+	c #A9A9CE",
"/+	c #9C9DCA",
"(+	c #9292C6",
"_+	c #8F8FC4",
":+	c #A9A7CA",
"<+	c #D2D2D1",
"[+	c #D1D3D1",
"}+	c #D0D0D0",
"|+	c #CDCFCE",
"1+	c #C9C8C9",
"2+	c #B9B8C0",
"3+	c #3B3A86",
"4+	c #383881",
"5+	c #3E3E83",
"6+	c #9F9FA5",
"7+	c #848584",
"8+	c #AEB0AE",
"9+	c #C5C5C6",
"0+	c #F8F8F7",
"a+	c #E7E6E6",
"b+	c #DCDCDD",
"c+	c #DAD9D9",
"d+	c #D7D6D6",
"e+	c #D6D6D7",
"f+	c #D1D3D6",
"g+	c #D6D4D6",
"h+	c #D3D2D2",
"i+	c #D3D3D0",
"j+	c #D1D1D1",
"k+	c #CED1D1",
"l+	c #CFCFCE",
"m+	c #CDCDCC",
"n+	c #CBCCC9",
"o+	c #C7C7C5",
"p+	c #3D3D86",
"q+	c #3B3B83",
"r+	c #303075",
"s+	c #64647F",
"t+	c #A2A0A0",
"u+	c #B5B6B5",
"v+	c #C0BFBF",
"w+	c #9A9A9A",
"x+	c #F7F8F8",
"y+	c #F5F7F5",
"z+	c #E7E8E7",
"A+	c #E3E6E3",
"B+	c #D8D8D7",
"C+	c #D6D6D6",
"D+	c #D4D6D4",
"E+	c #D5D3D3",
"F+	c #D2D0D2",
"G+	c #D2D1D2",
"H+	c #CFCFCF",
"I+	c #D0CECE",
"J+	c #CECED0",
"K+	c #D0D0CF",
"L+	c #CCCFCF",
"M+	c #C8C8C8",
"N+	c #3E3E86",
"O+	c #323278",
"P+	c #27276B",
"Q+	c #737395",
"R+	c #A7A7A9",
"S+	c #AEAEAE",
"T+	c #B9B9B9",
"U+	c #979897",
"V+	c #F3F5F5",
"W+	c #DDDBDD",
"X+	c #B4B4B4",
"Y+	c #DEDFDF",
"Z+	c #D9DAD9",
"`+	c #D7D8D9",
" @	c #D5D6D7",
".@	c #D0D2D2",
"+@	c #D1D3D2",
"@@	c #CFD0D0",
"#@	c #CDCFCF",
"$@	c #D0CDCD",
"%@	c #D0CFD0",
"&@	c #D1D2D2",
"*@	c #C7C7D3",
"=@	c #35357B",
"-@	c #27276C",
";@	c #303073",
">@	c #7F7F9F",
",@	c #A3A2A3",
"'@	c #A8A8A8",
")@	c #B4B2B2",
"!@	c #949595",
"~@	c #F7F7F8",
"{@	c #E3E1EB",
"]@	c #ACACCE",
"^@	c #8181AB",
"/@	c #C2C2E7",
"(@	c #C7C7DC",
"_@	c #D8D8D8",
":@	c #D7D7D7",
"<@	c #CFD0CF",
"[@	c #D5D5D2",
"}@	c #8B8BA8",
"|@	c #2A2A70",
"1@	c #343477",
"2@	c #353577",
"3@	c #9292A1",
"4@	c #9FA0A0",
"5@	c #B0AEB0",
"6@	c #939393",
"7@	c #D5D3EA",
"8@	c #7A7AC9",
"9@	c #4949AF",
"0@	c #4847AD",
"a@	c #4040A4",
"b@	c #343497",
"c@	c #4A4AAB",
"d@	c #4C4CA9",
"e@	c #7575B8",
"f@	c #ACABC7",
"g@	c #CECDCE",
"h@	c #CECECF",
"i@	c #CDCFCD",
"j@	c #CFCECE",
"k@	c #CCCFCC",
"l@	c #CFCDCF",
"m@	c #E0DEDE",
"n@	c #B3B3B3",
"o@	c #545589",
"p@	c #38397C",
"q@	c #3A3A7C",
"r@	c #484887",
"s@	c #A0A0A0",
"t@	c #A1A1A2",
"u@	c #AAACAC",
"v@	c #919191",
"w@	c #F6F6F4",
"x@	c #B8B8E1",
"y@	c #4E4EB2",
"z@	c #4949AD",
"A@	c #5C5CB6",
"B@	c #8A8AC8",
"C@	c #9999CB",
"D@	c #8686B9",
"E@	c #5D5D9F",
"F@	c #6666B7",
"G@	c #41419E",
"H@	c #3D3D99",
"I@	c #5C5CA9",
"J@	c #A4A4C0",
"K@	c #C7C7C9",
"L@	c #C8CBC8",
"M@	c #C9CAC9",
"N@	c #CBCBCD",
"O@	c #CCCCCC",
"P@	c #ADADAB",
"Q@	c #8B8C91",
"R@	c #424284",
"S@	c #3D3D7F",
"T@	c #39397A",
"U@	c #7B7BA1",
"V@	c #A3A3A3",
"W@	c #9B9C9C",
"X@	c #ACABAC",
"Y@	c #919393",
"Z@	c #FEFEFE",
"`@	c #E2E2EE",
" #	c #5050B1",
".#	c #4949AC",
"+#	c #9595CE",
"@#	c #DCDCDE",
"##	c #CFCFD1",
"$#	c #ACABAB",
"%#	c #9C9C9C",
"&#	c #C7C7CE",
"*#	c #A8A8CC",
"=#	c #7777B6",
"-#	c #48489A",
";#	c #6565A7",
">#	c #B3B1BF",
",#	c #C2C5C5",
"'#	c #C7C7C7",
")#	c #CBCACA",
"!#	c #D1CFCF",
"~#	c #DEDDDD",
"{#	c #B0B0B0",
"]#	c #929392",
"^#	c #69699A",
"/#	c #3F3F81",
"(#	c #3C3C7D",
"_#	c #4B4B88",
":#	c #A5A6A7",
"<#	c #9F9F9F",
"[#	c #9E9F9E",
"}#	c #A2A2A2",
"|#	c #AEAEAC",
"1#	c #949494",
"2#	c #B9B9DE",
"3#	c #4A49AA",
"4#	c #8B8BCA",
"5#	c #D8D9D9",
"6#	c #D0D1D0",
"7#	c #CBCBCB",
"8#	c #8E9090",
"9#	c #ACACAC",
"0#	c #AAAAAA",
"a#	c #BDBDBD",
"b#	c #C0C0C2",
"c#	c #9B9BBE",
"d#	c #605FA7",
"e#	c #9594BC",
"f#	c #D2D2D2",
"g#	c #B2B2B2",
"h#	c #B2B2C9",
"i#	c #37377A",
"j#	c #393A7A",
"k#	c #40407E",
"l#	c #999BAC",
"m#	c #A1A1A1",
"n#	c #9EA09E",
"o#	c #B1B1B1",
"p#	c #979797",
"q#	c #CECEE6",
"r#	c #4848A7",
"s#	c #D8D8DF",
"t#	c #DBDADA",
"u#	c #BFC0BF",
"v#	c #A4A5A4",
"w#	c #A3A3A4",
"x#	c #70709C",
"y#	c #5E5E95",
"z#	c #9D9E9F",
"A#	c #9A9B9A",
"B#	c #BDBEBD",
"C#	c #B4B5C5",
"D#	c #4C4C8E",
"E#	c #454586",
"F#	c #383776",
"G#	c #8E8DA5",
"H#	c #ADAEAE",
"I#	c #A1A3A1",
"J#	c #A0A2A2",
"K#	c #A9A9A9",
"L#	c #B6B6B6",
"M#	c #9B9B9B",
"N#	c #7B7BC1",
"O#	c #CDCDDB",
"P#	c #BBBBBB",
"Q#	c #C9CACA",
"R#	c #CDCDCD",
"S#	c #CDCBCB",
"T#	c #CACBCA",
"U#	c #CBCACB",
"V#	c #CCCACC",
"W#	c #ABABC4",
"X#	c #7676B0",
"Y#	c #CED0D3",
"Z#	c #AAAAC4",
"`#	c #48498B",
" $	c #3F3F80",
".$	c #4D4D8B",
"+$	c #A4A3B8",
"@$	c #979696",
"#$	c #9E9D9D",
"$$	c #A2A4A2",
"%$	c #A6A7A7",
"&$	c #BABABB",
"*$	c #9F9E9F",
"=$	c #DEDCE3",
"-$	c #8D8DC5",
";$	c #D3D3D6",
">$	c #C0C2C0",
",$	c #9E9E9E",
"'$	c #CECFCE",
")$	c #D3D3D5",
"!$	c #CCCECE",
"~$	c #B5B3C5",
"{$	c #797AAE",
"]$	c #7676AD",
"^$	c #404081",
"/$	c #404080",
"($	c #7474A8",
"_$	c #BABAC0",
":$	c #8E908E",
"<$	c #999A9A",
"[$	c #A7A6A7",
"}$	c #ADAFAD",
"|$	c #B6B7B7",
"1$	c #C0C0C0",
"2$	c #EEECEC",
"3$	c #D4D4DC",
"4$	c #8181B7",
"5$	c #8C8CA2",
"6$	c #DBD9D9",
"7$	c #DBDADB",
"8$	c #BABAC8",
"9$	c #7C7BAF",
"0$	c #444487",
"a$	c #414182",
"b$	c #6E6EA4",
"c$	c #ABACBC",
"d$	c #BFC0C0",
"e$	c #B3B3B5",
"f$	c #ADADAD",
"g$	c #8D8D8D",
"h$	c #A3A1A1",
"i$	c #BFBEBE",
"j$	c #C5C3C5",
"k$	c #EDEDED",
"l$	c #E8E9E9",
"m$	c #B9B9D5",
"n$	c #9999C3",
"o$	c #ABAACA",
"p$	c #CDCDD6",
"q$	c #DDDDDD",
"r$	c #D2D2D8",
"s$	c #B2B2CD",
"t$	c #8E8CBC",
"u$	c #5D5D9E",
"v$	c #404084",
"w$	c #5A5A9A",
"x$	c #8B8BB2",
"y$	c #9696B6",
"z$	c #A6A6BA",
"A$	c #BCBCBC",
"B$	c #B9B8B8",
"C$	c #B5B5B3",
"D$	c #AEAEAF",
"E$	c #AFAFAD",
"F$	c #B1B1B0",
"G$	c #B0B0AF",
"H$	c #C4C4C4",
"I$	c #C9C7C7",
"J$	c #AAAAA8",
"K$	c #D5D5DA",
"L$	c #B8B6D0",
"M$	c #AEAECD",
"N$	c #AEAECE",
"O$	c #AAABCC",
"P$	c #A4A4CB",
"Q$	c #9898C4",
"R$	c #9393C0",
"S$	c #9E9EC4",
"T$	c #ABABC8",
"U$	c #B9B8CA",
"V$	c #C8C9CE",
"W$	c #CBCCCB",
"X$	c #C8C8C6",
"Y$	c #9897B1",
"Z$	c #B2B2B6",
"`$	c #B3B1B1",
" %	c #B9B9BB",
".%	c #BEBFBF",
"+%	c #A2A2A3",
"@%	c #B9BBBB",
"#%	c #F4F6F4",
"$%	c #E5E3E3",
"%%	c #DFDDDD",
"&%	c #DEDEE0",
"*%	c #D5D3D5",
"=%	c #C9CBCB",
"-%	c #C5C5C5",
";%	c #C1C1BF",
">%	c #B9BABA",
",%	c #9F9FB1",
"'%	c #B4B5B5",
")%	c #C1C1C3",
"!%	c #C9C9C9",
"~%	c #BEBEBE",
"{%	c #B3B2B3",
"]%	c #ACAEAC",
"^%	c #FBFBFB",
"/%	c #E0DEE0",
"(%	c #DCDEDE",
"_%	c #D7D7D5",
":%	c #CFCFD0",
"<%	c #C6C6C6",
"[%	c #C1C1C1",
"}%	c #BCBBBB",
"|%	c #C2C0C0",
"1%	c #A9AAA9",
"2%	c #B6B5B5",
"3%	c #A9A8A9",
"4%	c #A9A9AA",
"5%	c #A9AAAA",
"6%	c #ABABAA",
"7%	c #AAABAB",
"8%	c #A4A3A4",
"9%	c #A5A5A5",
"0%	c #ABA9AB",
"a%	c #B7B8B8",
"b%	c #BEBEBD",
"                                                                                                ",
"                                                                                                ",
"                                                                                                ",
"                                                                                                ",
"                                                                                                ",
"                                                                                                ",
"                                                                                                ",
"                                                    . + @                                       ",
"                                            # $ % & * = - ; > , ' ) ! ) ~ { ] ^ /               ",
"                                        ( _ : : < . % [ } | 1 2 3 ) 4 5 6 7 ]                   ",
"                                    8 9                                                         ",
"                                  0                                                             ",
"                                                                                                ",
"                                8                                                               ",
"                                                                                                ",
"            a a a a a a a a a b c a a a a a a a a a a a a a a a a a a a a a a a a               ",
"          a d e f e g f f f e h i j k l m n o p q r r r r q j s j j q q r t u u v a             ",
"          a w x y z A B C p D E F G H I J K L M N O P Q R S T U V W W X H Y Z Y ` a             ",
"          a  ...+.@.q #.j D $.%.&.*.K =.I -.;.>.,.'.K J ).!.~.{.].^./.(._.L :.K <.a             ",
"          a [.}.w |.q p 1.o k l 2.3.4.5.6.7.8.9.0.a.W b.d c.d.e.f.g.h.i.d j.*.k.l.a             ",
"          a m.n.}.x j o.p.o q.r.s.t.u.v._.w.x.7.y.z.A.B.C.D.E.F.G.H.I.J.K.L.n.M.N.a             ",
"          a }.O.P.}.t p Q.R.n r.S.T.U.V.W.X.Y._.Z.`. +C..+++@+#+$+%+&+*+=+-+;+>+,+a             ",
"          a }.x Y n.}.q '+n )+!+~+ .I {+]+^+/+(+_+:+<+[+}+|+++1+2+3+4+5+6+7+8+9+` a             ",
"          a }.x 0+*.n.}.p n m.a+*.K b+W.c+d+e+f+g+h+i+j+k+l+m+n+o+p+q+r+s+t+u+v+w+a             ",
"          a }.x+u y+*.n.}.k z+A+Y K W W B+C+D+E+F+G+H+I+H+J+K+L+M+N+O+P+Q+R+S+T+U+a             ",
"          a }.u u r V+W+X+f l Y Y+6.Z+`+ @L.C..@+@@@#@$@%@D.j+&@*@=@-@;@>@,@'@)@!@a             ",
"          a }.~@y+q p {@]@^@/@(@A._@:@C+C.C.G+}+}+++++H+I+<@[@W }@|@1@2@3@4@M.5@6@a             ",
"          a }.u q 7@8@9@0@a@b@c@d@e@f@g@h@i@h@j@k@++l@++++i+m@n@o@p@q@r@s@` t@u@v@a             ",
"          a }.w@x@y@z@A@B@C@D@E@F@G@H@I@J@K@L@M@K.N@O@++j+K P@Q@R@S@T@U@V@W@t@X@Y@a             ",
"          a Z@`@ #.#+#@#W.C.##$#%#&#*#=#-#;#>#,#'#)#!#~#W.{#]#^#/#(#_#:#<#[#}#|#1#a             ",
"          a Z@2#3#4#K 5#6#7#T+8#v 9#0#a#b#c#d#e#O@f#C.7#M.g#h#i#j#k#l#,+m#n#,+o#p#a             ",
"          a Z@q#r#s#t#f#K.T+w+f#o+u#{#9#v#,+w#x#y#z#A#M.B#C#D#E#F#G#H#M.I#J#K#L#M#a             ",
"          a f k N#O#:@i.P#M#c.Q#R#S#7#T#U#K.7#V#W#X#Y#f#Z#`# $.$+$@$#$,+$$%${#&$*$a             ",
"          a f k =$-$;$>$,$:@'$f#C.)$C.C.}+%@<@H+!$~${$]$^$/$($_$P#g#:$<$[$}$|$1$}#a             ",
"          a f 2$m.3$4$5$J f#d :@6$W 7$W.:@C+C.j+8$9$0$a$b$c$d$n.e$f$-+g$h$u+i$j$,+a             ",
"          a f k$l$C.0#m$n$o$p$q$X K I w.r$s$t$u$v$w$x$y$z$A$B$C${#D$E$F$p#G$H$I$J$a             ",
"          a Z@k W.o#J J 7$K$L$M$N$O$P$Q$R$S$T$U$V$W$X$v Y$Z$L#`$o#n@P. %.%+%@%K.-+a             ",
"          a Z@q$P.#%$%L K %%I %%K K &%~#J W _@*%@@=%-%;%>%,%u+'%|$@%a#)%-%!%N.~%{%a             ",
"          a }.]%^%l r.S.Y 0./%I I (%q$Y.W Z._%f#:%=%<%[%B#P#n.}%~%|%-%M+T#K.R#1%'@a             ",
"          a P#2%g#K#'@0#'@3%4%5%0#-+-+-+6%-+7%K#K#'@[$M.M.8%9%N.0%S+g#X+a%T+A$b%1#a             ",
"            a a a a a a a a a a a a a a a a a a a a a a a a a a a a a a a a a a a a             ",
"                                                                                                ",
"                                                                                                ",
"                                                                                                ",
"                                                                                                ",
"                                                                                                ",
"                                                                                                ",
"                                                                                                "};
