/* XPM */
static char *tilem2_xpm[] = {
/* width height ncolors chars_per_pixel */
"32 32 187 2",
/* colors */
"   c black",
" . c #BAB5A6",
" X c #B6B1A2",
" o c #B4AFA0",
" O c #C3BFB2",
" + c #ADACA3",
" @ c #B2AD9E",
" # c #565347",
" $ c #C1BDB0",
" % c #524F43",
" & c #A3A299",
" * c #6D685A",
" = c #747064",
" - c #DAD9D2",
" ; c #6D6A5D",
" : c #D4D1CC",
" > c #D3D1CB",
" , c #D1CFC9",
" < c #CAC9C2",
" 1 c #605C50",
" 2 c #C6C5BE",
" 3 c #5F5A4F",
" 4 c #B7B2A2",
" 5 c #5B584B",
" 6 c #A09D92",
" 7 c #B2C8DF",
" 8 c #555045",
" 9 c #BFBAAD",
" 0 c #534E43",
" q c #767162",
" w c #504C40",
" e c #959187",
" r c #4C483C",
" t c #C7C4B8",
" y c #817D70",
" u c #D4D2C8",
" i c #D3D0C7",
" p c #89857B",
" a c #DEDCD5",
" s c #DAD8D1",
" d c #726F61",
" f c #B3DBB1",
" g c #D2D0C9",
" h c #8B8B80",
" j c #D1CEC8",
" k c #6A6559",
" l c #D0CEC7",
" z c #9F9A8D",
" x c #696558",
" c c #676356",
" v c #666155",
" b c #CCCAC3",
" n c #656154",
" m c #838378",
" M c #706D62",
" N c #C5C4BC",
" B c #B5C1CA",
" V c #C1C0B8",
" C c #908C7E",
" Z c #7F7A6A",
" A c #BEBCB5",
" S c #8B8679",
" D c #BBBAB2",
" F c #A8A49C",
" G c #BCB7A9",
" H c #7F7A6D",
" J c #B4AFA1",
" K c #7B7669",
" L c #7A7668",
" P c #8A867B",
" I c #DEDBD4",
" U c #ACA799",
" Y c #AAA597",
" T c #B9B5A9",
" R c #D9D7CF",
" E c #A8A395",
" W c #A7A394",
" Q c #716C5F",
" ! c #A6A193",
" ~ c #B3DAB0",
" ^ c #807C71",
" / c #A29D8F",
" ( c #8B8A7F",
" ) c #6B6659",
" _ c #D0CDC6",
" ` c #696457",
" ' c #787469",
" ] c #676255",
" [ c #858479",
" { c #848478",
" } c #999586",
" | c #747065",
".  c #828276",
".. c #868170",
".X c #808074",
".o c #6E6A5F",
".O c #888375",
".+ c #B9B4A5",
".@ c #B7B2A3",
".# c #B0AFA6",
".$ c #59564A",
".% c #B0AA9C",
".& c #A9A99F",
".* c #504C41",
".= c #B9B6A8",
".- c #CAC6BC",
".; c #A4A39A",
".: c #A39E8F",
".> c #99998F",
"., c #DDDCD5",
".< c #D7D4CF",
".1 c #D2D0CA",
".2 c #6B675B",
".3 c #BDBAB2",
".4 c #CBCAC3",
".5 c #AAA69C",
".6 c #645F54",
".7 c #595549",
".8 c #98948A",
".9 c #CBC7BC",
".0 c #4F4B3F",
".q c #4D493D",
".w c #B4C1CD",
".e c #97917F",
".r c #D8D5CC",
".t c #928E84",
".y c #918E83",
".u c #B4D6AF",
".i c #8C887E",
".p c #9B9A90",
".a c #DFDDD6",
".s c #787467",
".d c #DDDBD4",
".f c #858277",
".g c #D9D7D0",
".h c #929287",
".j c #6D685C",
".k c #D3D1CA",
".l c #D2CFC9",
".z c #D1CFC8",
".x c #B1C9E4",
".c c #CFCDC6",
".v c #686457",
".b c white",
".n c #676256",
".m c #848479",
".M c #646053",
".N c #726E64",
".B c #615C50",
".V c #808075",
".C c #605C4F",
".Z c #5C584B",
".A c #595448",
".S c #8E897C",
".D c #7B7566",
".F c #555044",
".G c #9E9885",
".H c #B6B5AD",
".J c #827D70",
".K c #A29F96",
".L c #807B6E",
".P c #B4D3AE",
".I c #D1CEC4",
".U c #ADA89A",
".Y c #767164",
".T c #858176",
".R c #B9B6A9",
".E c #7C796D",
".W c #9F9A8C",
".Q c #777368",
".! c #B2C5DA",
".~ c #838377",
".^ c #989485",
"./ c #878271",
".( c #818175",
".) c #7F7F73",
"._ c #6F6B60",
".` c #7D7D71",
".' c #6B675C",
".] c #C0BEB6",
".[ c #686559",
".{ c #585346",
".} c #ADAAA0",
".| c #676358",
"X  c #A7A49A",
"X. c #858072",
"XX c None",
/* pixels */
"XXXXXXXXXXXXXXXXXXXX.`.V.~.m [ [ [ [ {. .`XXXXXXXXXXXXXXXXXXXXXX",
"XXXX m.X.( h.> &.&.#.H D V 2.4 b b.4 N A.H +.;.p.h (.m.).).( {XX",
"XXXX.m.c.<.3.K P.E |.'.6 5 8.q r r.q 0.7 1.|._ ' ^.y F.] : <.mXX",
"XXXX.m >.0 r r r r r r r r r r r r r r r r r r r r r r r.0 >.mXX",
"XXXX.m >.0 r r r r r r r r r r r r r r r r r r r r r r r.0 >.mXX",
"XXXX.m >.0 * Z.../././././././././././././././././././.F.0 >.mXX",
"XXXX.m >.0.D.b  .b  .b  .b  .b  .b.G.b.G.b.G.b.G.b.G.b.A.0 >.mXX",
"XXXX.m >.0.D  .b  .b  .b  .b  .b.G.b.G.b.G.b.G.b.G.b.G.A.0 >.mXX",
"XXXX.m >.0.D.b  .b  .b  .b  .b  .b.G.b.G.b.G.b.G.b.G.b.A.0 >.mXX",
"XXXX.m >.0.D  .b  .b  .b  .b  .b.G.b.G.b.G.b.G.b.G.b.G.A.0 >.mXX",
"XXXX.m >.0.D.b  .b  .b  .b  .b  .b.G.b.G.b.G.b.G.b.G.b.A.0 >.mXX",
"XXXX.m >.0.D  .b  .b  .b  .b  .b.G.b.G.b.G.b.G.b.G.b.G.A.0 >.mXX",
"XXXX.m >.0.D.b.G.b.G.b.G.b.G.b.G.b  .b  .b  .b  .b  .b.A.0 >.mXX",
"XXXX.m >.0.D.G.b.G.b.G.b.G.b.G.b.G.b  .b  .b  .b  .b  .A.0 >.mXX",
"XXXX.m >.0.D.b.G.b.G.b.G.b.G.b.G.b  .b  .b  .b  .b  .b.A.0 >.mXX",
"XXXX.m >.0.D.G.b.G.b.G.b.G.b.G.b.G.b  .b  .b  .b  .b  .A.0 >.mXX",
"XXXX.m >.0.D.b.G.b.G.b.G.b.G.b.G.b  .b  .b  .b  .b  .b.A.0 >.mXX",
"XXXX.m >.0.D.G.b.G.b.G.b.G.b.G.b.G.b  .b  .b  .b  .b  .A.0 >.mXX",
"XXXX.m >.0 q.e.e.e.e.e.e.e.e.e.e.e.e.e.e.e.e.e.e.e.e.e.{.0 >.mXX",
"XXXX.m >.0 r r r r r r r r r r r r r r r r r r r r r r r.0 >.mXX",
"XXXX.m >.0 r r r r r r r r r r r r r r r r r r r r r r r.0 >.mXX",
"XXXX.m >.0.Q e e.o r p e e.$ r.t e e.* M e e.N r.T e e 3.0.k.mXX",
"XXXX.m > d =.}.}.[ r.i.}X  % r.8.} 6.q.2.}.}._ r.f.}.5 # L.1.mXX",
"XXXX.m.k J.L.Z r r r r r r r r r r r r r r r r r r.q v S 4 g.mXX",
"XXXX.m.1.+.+.+ W } C.O H.Y.j.M.C.C.B ] Q KX..S.^.:.%.+.+.+.l.mXX",
"XXXX.m.1.+.+.+.+.+.+.+.+.+.+.+.+.+.+.+.+.+.+ $ i O.+.+.+.+ ,.mXX",
"XXXX.m g.+.= T T.R X / / / Y o / / /.U.+.+.+.I I u.+.+.+.+.z.mXX",
"XXXX.m ,.+.!.x.x 7 U w w w.s.W w w w y.+.-.9.r a R.9.9 ..+ j.mXX",
"XXXX.m.z.+.w 7 7 B.@ ;.n.n z @ ).n c E O.d.d a.a a.d.d t.+ l.mXX",
"XXXX.m.z.+.+.+.+.+.+.+.+.+.+.+.+.+.+.+ G.g -.,.a a - s 9.+ l.mXX",
"XXXX.m j.+.P f ~.u.@ k n `.J !.v v x C.+.+.+.I I u.+.+.+.+ _.mXX",
"XXXXXXXXXXXXXXXXXXXXXXXXXXXXXXXXXXXXXXXXXXXXXXXXXXXXXXXXXXXXXXXX"
};
