/* XPM */
static char * xarchiver_xpm[] = {
"48 48 342 2",
"  	c None",
". 	c #61635F",
"+ 	c #5F615D",
"@ 	c #A3A4A1",
"# 	c #ABADA8",
"$ 	c #B5B6B3",
"% 	c #888A85",
"& 	c #848681",
"* 	c #60625E",
"= 	c #6F716D",
"- 	c #737570",
"; 	c #686A65",
"> 	c #838581",
", 	c #656662",
"' 	c #BABDB6",
") 	c #646662",
"! 	c #636460",
"~ 	c #5E615C",
"{ 	c #616460",
"] 	c #828481",
"^ 	c #BDBFBB",
"/ 	c #C2C3BF",
"( 	c #C3C5C0",
"_ 	c #C5C6C1",
": 	c #C6C7C3",
"< 	c #C7C8C4",
"[ 	c #C8C9C5",
"} 	c #C9CBC6",
"| 	c #CBCCC7",
"1 	c #CCCDC9",
"2 	c #9A9C96",
"3 	c #BB5300",
"4 	c #BA5300",
"5 	c #BC5400",
"6 	c #60625F",
"7 	c #858682",
"8 	c #BCBDB9",
"9 	c #A5A8A2",
"0 	c #9FA29C",
"a 	c #A2A49E",
"b 	c #A4A6A0",
"c 	c #A6A9A3",
"d 	c #A8ABA5",
"e 	c #ABADA7",
"f 	c #ADB0A9",
"g 	c #AFB2AB",
"h 	c #B2B4AE",
"i 	c #B4B7B0",
"j 	c #9FA19B",
"k 	c #61645F",
"l 	c #BC5500",
"m 	c #C36211",
"n 	c #F5C390",
"o 	c #FCDEBF",
"p 	c #F9BE81",
"q 	c #D16503",
"r 	c #A1A29E",
"s 	c #B8B9B5",
"t 	c #B9BBB6",
"u 	c #BBBCB8",
"v 	c #BDBFBA",
"w 	c #BCBDB8",
"x 	c #A3A5A0",
"y 	c #9DA09A",
"z 	c #B6B9B2",
"A 	c #BD5501",
"B 	c #D0782A",
"C 	c #FAD2A7",
"D 	c #F9B66F",
"E 	c #F9B975",
"F 	c #F9CEA2",
"G 	c #CD7224",
"H 	c #BD5500",
"I 	c #8B8D88",
"J 	c #8D8F8A",
"K 	c #8F928C",
"L 	c #92948F",
"M 	c #949691",
"N 	c #969993",
"O 	c #999B95",
"P 	c #989B94",
"Q 	c #6E706C",
"R 	c #626460",
"S 	c #E0954D",
"T 	c #FBD4A9",
"U 	c #F9AB57",
"V 	c #FAC68F",
"W 	c #F3BB84",
"X 	c #C15E0D",
"Y 	c #959791",
"Z 	c #6A6B68",
"` 	c #626461",
" .	c #BD5705",
"..	c #EEAF6F",
"+.	c #FBCD9B",
"@.	c #F9A952",
"#.	c #FBCFA0",
"$.	c #E8A25E",
"%.	c #BC5401",
"&.	c #616360",
"*.	c #BD5703",
"=.	c #BD5702",
"-.	c #BC5501",
";.	c #C56515",
">.	c #F5C38C",
",.	c #FAC07F",
"'.	c #F9AE5D",
").	c #FBCFA1",
"!.	c #D9863A",
"~.	c #C15C06",
"{.	c #FACE93",
"].	c #FDDFB5",
"^.	c #FDDEB4",
"/.	c #FDDEB3",
"(.	c #FDDDB3",
"_.	c #FDDCB2",
":.	c #FDDCB1",
"<.	c #FCD7A8",
"[.	c #D48032",
"}.	c #BD5601",
"|.	c #D37D2F",
"1.	c #FACD9C",
"2.	c #F9B465",
"3.	c #FABB74",
"4.	c #F8C590",
"5.	c #C96C1C",
"6.	c #DA924C",
"7.	c #FDD59F",
"8.	c #FBA93B",
"9.	c #FAA633",
"0.	c #FAA431",
"a.	c #FAA22F",
"b.	c #FAA12E",
"c.	c #F9AC49",
"d.	c #FBD29E",
"e.	c #D58234",
"f.	c #E29951",
"g.	c #FBCE9A",
"h.	c #F9AB54",
"i.	c #FAC588",
"j.	c #F0B373",
"k.	c #BF5B09",
"l.	c #BC5602",
"m.	c #EBB374",
"n.	c #FCC882",
"o.	c #F99F2C",
"p.	c #F9A843",
"q.	c #FBCF99",
"r.	c #D68334",
"s.	c #BD5A08",
"t.	c #EFB170",
"u.	c #FBC78A",
"v.	c #F9AC53",
"w.	c #FBCB95",
"x.	c #E49A50",
"y.	c #BD5908",
"z.	c #F6C890",
"A.	c #FBBA61",
"B.	c #F99D2A",
"C.	c #F9A63F",
"D.	c #FBCD94",
"E.	c #E59849",
"F.	c #F6C287",
"G.	c #FABC72",
"H.	c #FAB15E",
"I.	c #FAC891",
"J.	c #D57E2E",
"K.	c #C76C1F",
"L.	c #FAD099",
"M.	c #FAAC45",
"N.	c #F99C28",
"O.	c #F9A33B",
"P.	c #FBC687",
"Q.	c #F9B25C",
"R.	c #F6BD7E",
"S.	c #C76715",
"T.	c #D88C41",
"U.	c #FCCC8C",
"V.	c #FAA434",
"W.	c #F99A26",
"X.	c #F99824",
"Y.	c #FAB665",
"Z.	c #FABF7A",
"`.	c #BE5805",
" +	c #BB5400",
".+	c #E9AA65",
"++	c #FBC072",
"@+	c #F89E32",
"#+	c #FBC382",
"$+	c #DB8838",
"%+	c #BD5907",
"&+	c #F4BE7D",
"*+	c #FAB356",
"=+	c #F89722",
"-+	c #F89C2E",
";+	c #FAC07C",
">+	c #DD8939",
",+	c #E79E4D",
"'+	c #FCC682",
")+	c #F89520",
"!+	c #F8992B",
"~+	c #FABD76",
"{+	c #DE8A39",
"]+	c #BC5502",
"^+	c #E69F50",
"/+	c #FBC680",
"(+	c #FAB152",
"_+	c #FAB55E",
":+	c #F99E2D",
"<+	c #F89824",
"[+	c #F79420",
"}+	c #F99723",
"|+	c #F8931E",
"1+	c #F89728",
"2+	c #FAB96F",
"3+	c #DF8B38",
"4+	c #BF5D0A",
"5+	c #F1B368",
"6+	c #FBC173",
"7+	c #FAB254",
"8+	c #FBC47D",
"9+	c #F7BA6E",
"0+	c #F9A74A",
"a+	c #F27903",
"b+	c #F17804",
"c+	c #F07C08",
"d+	c #F28411",
"e+	c #F48C18",
"f+	c #F7911D",
"g+	c #F8921D",
"h+	c #F5901F",
"i+	c #F7B062",
"j+	c #E08B38",
"k+	c #CB6F1D",
"l+	c #F7C077",
"m+	c #FBBA63",
"n+	c #FBB85F",
"o+	c #F8BE74",
"p+	c #CD721E",
"q+	c #BC5705",
"r+	c #F3B26A",
"s+	c #F48514",
"t+	c #F07A05",
"u+	c #EE7A07",
"v+	c #EE7A08",
"w+	c #ED7B0A",
"x+	c #EE7E0D",
"y+	c #EC7B0C",
"z+	c #ED8012",
"A+	c #F7AC5B",
"B+	c #E18B37",
"C+	c #D47617",
"D+	c #FABD67",
"E+	c #FCC780",
"F+	c #FBC77F",
"G+	c #F2B263",
"H+	c #C15F0B",
"I+	c #C56616",
"J+	c #F8B364",
"K+	c #F17C09",
"L+	c #EC7A09",
"M+	c #ED7B0B",
"N+	c #EC7B0B",
"O+	c #EC7C0C",
"P+	c #ED7F10",
"Q+	c #F6A955",
"R+	c #E38B36",
"S+	c #BB5401",
"T+	c #BD5602",
"U+	c #D58130",
"V+	c #F7A54A",
"W+	c #EF7906",
"X+	c #EB7C0C",
"Y+	c #ED7E10",
"Z+	c #F6A54E",
"`+	c #E48B36",
" @	c #787976",
".@	c #BC5601",
"+@	c #E69949",
"@@	c #F4922A",
"#@	c #ED7F0F",
"$@	c #F6A149",
"%@	c #E48B35",
"&@	c #A1A39E",
"*@	c #BBBCB7",
"=@	c #7B7D7A",
"-@	c #F2A956",
";@	c #F08416",
">@	c #EC7D0C",
",@	c #EE7E0E",
"'@	c #F59D42",
")@	c #E58B32",
"!@	c #BEC0BB",
"~@	c #CDCFCA",
"{@	c #C2C4BE",
"]@	c #C46311",
"^@	c #F5A951",
"/@	c #EE7D0D",
"(@	c #EE7D0C",
"_@	c #F49B3C",
":@	c #E68930",
"<@	c #797A76",
"[@	c #9B9D97",
"}@	c #D47A25",
"|@	c #F59D3C",
"1@	c #EC7B0A",
"2@	c #EE7D0B",
"3@	c #EF7F0D",
"4@	c #F59837",
"5@	c #E6892F",
"6@	c #767874",
"7@	c #9C9F99",
"8@	c #E49038",
"9@	c #F28D25",
"0@	c #EF7D0B",
"a@	c #F17E0B",
"b@	c #F59434",
"c@	c #E7882C",
"d@	c #60615D",
"e@	c #BC5704",
"f@	c #EF9D41",
"g@	c #EE8316",
"h@	c #F17E0A",
"i@	c #F27D09",
"j@	c #F5922D",
"k@	c #E78528",
"l@	c #C3610C",
"m@	c #F6A446",
"n@	c #F9A649",
"o@	c #F8A547",
"p@	c #F8A446",
"q@	c #F8A244",
"r@	c #F8A143",
"s@	c #F8A041",
"t@	c #F79E3F",
"u@	c #F79D3F",
"v@	c #F79C3D",
"w@	c #F79A3B",
"x@	c #F7993A",
"y@	c #F79838",
"z@	c #E6760B",
"A@	c #B55201",
". + .   . + + + + + .     . + .                                                                 ",
"+ @ + + + # $ $ $ # + + + + @ +                                                                 ",
"+ % + % + % % % % % + % % + % +                                                                 ",
"+ & + + * = - - - = * + + + & +                                                                 ",
". + .     + ; > ; +       . + .                                                                 ",
"          + % $ % +                                                                             ",
"        , + + + + + ,                                                                           ",
"        + ' ' ' ' ' +                                                                           ",
"        , + + + + + ,                                                                           ",
"          + % $ % +                                                                             ",
"        , + + + + + ,                                                                           ",
"        + ' ' ' ' ' +                                                                           ",
"        , + + + + + ,                                                                           ",
"          + % $ % +                                                                             ",
"        , + + + + + ,                                                                           ",
"        + ' ' ' ' ' +                                                                           ",
"        , + + + + + ) ! + + + + + + + + + + .                                                   ",
"          + % $ % ~ { ] ^ / ( _ : < [ } | 1 2 !                               3 4 4 4 4 4 5     ",
"      6 + + + + + + 7 8 9 0 a b c d e f g h i j k                         l m n o o p q 5       ",
"      + r s t u 8 v w x y 0 a b c d e f g h i z +                       A B C D E F G H         ",
"      + I J K L M N O P Q + + + + + + + + + + + R                     l S T U V W X 5           ",
"      + I J K L M N Y Z `                                            ...+.@.#.$.%.              ",
"      6 + + + + + + + &.      *.4 4 4 4 4 4 4 4 4 =.            -.;.>.,.'.).!.l                 ",
"          + % $ % +             ~.{.].^./.(._.:.<.[.=.        }.|.1.2.3.4.5.H                   ",
"        , + + + + + ,           =.6.7.8.9.0.a.b.c.d.e.=.    -.f.g.h.i.j.k.5                     ",
"        + ' ' ' ' ' +             l.m.n.9.0.a.b.o.p.q.r.-.s.t.u.v.w.x.l                         ",
"        , + + + + + ,               y.z.A.0.a.b.o.B.C.D.E.F.G.H.I.J.-.                          ",
"          + % $ % +                   K.L.M.a.b.o.B.N.O.P.Q.G.R.S.}.                            ",
"        , + + + + + ,                 =.T.U.V.b.o.B.N.W.X.Y.Z.`. +                              ",
"        + ' ' ' ' ' +                   l..+++b.o.B.N.W.X.@+#+$+}.                              ",
"        , + + + + + ,                     %+&+*+o.B.N.W.X.=+-+;+>+}.                            ",
"          + % $ % +                       -.,+'+o.B.N.W.X.=+)+!+~+{+}.                          ",
"        , + + + + + ,                   ]+^+/+(+_+:+<+[+}+=+)+|+1+2+3+}.                        ",
"        + ' ' ' ' ' +               l.4+5+6+7+8+9+0+a+b+c+d+e+f+g+h+i+j+A                       ",
"        , + + + + + ,             =.k+l+m+n+o+p+q+r+s+b+t+u+v+w+x+y+z+A+B+H                     ",
"          + % $ % +             l.C+D+E+F+G+H+l.  I+J+K+t+u+v+L+M+N+O+P+Q+R+H                   ",
"      6 + + + + + + + &.      =.4 4 4 4 4 S+      T+U+V+W+u+v+L+M+N+O+X+Y+Z+`+l                 ",
"      + r s t u 8 v t  @`                           .@+@@@u+v+L+M+N+O+X+O+#@$@%@l               ",
"      + I J K L M N &@*@=@+ + + + + + + + + + + R      .-@;@v+L+M+N+O+X+O+>@,@'@)@l             ",
"      + I J K L M N O x !@/ ( _ : < [ } | 1 ~@{@+       ]@^@/@L+M+N+O+X+O+>@(@x+_@:@l           ",
"      6 + + + + + + <@[@y 0 a b c d e f g h i j k       }.}@|@1@M+N+O+X+O+>@(@2@3@4@5@-.        ",
"                    6 6@7@0 a b c d e f g h 2 !           .@8@9@M+N+O+X+O+>@(@2@0@a@b@c@%.      ",
"                      d@+ + + + + + + + + + .               e@f@g@N+O+X+O+>@(@2@0@h@i@j@k@%.    ",
"                                                              l@m@n@o@p@q@r@s@t@u@v@w@x@y@z@5   ",
"                                                              A@4 4 4 4 4 4 4 4 4 4 4 4 4 4 4 H ",
"                                                                                                ",
"                                                                                                ",
"                                                                                                "};
