/* XPM */
static char * xcalc_32x32_xpm[] = {
"32 32 7 1",
" 	c None",
".	c #FFFFFF",
"+	c #D9D9D9",
"@	c #C0C0C0",
"#	c #BEBEFF",
"$	c #807C7C",
"%	c #000000",
"..%%%%%%%%%%%%%%%%%%%%%%%%%%%%..",
".%@@@@@@@@@@@@@@@@@@@@@@@@@@@@%.",
".%@..........................$%.",
".%@.++++++++++++++++++++++++@$%.",
".%@.++++++++++++++++++++++++@$%.",
".%@.+++++%%%%%%%%%%%%%%%%%%+@$%.",
".%@.+++++%################$+@$%.",
".%@.+++++%#..............#$+@$%.",
".%@.+++++%#..............#$+@$%.",
".%@.+++++%################$+@$%.",
".%@.+++++$$$$$$$$$$$$$$$$$$+@$%.",
".%@.++++++++++++++++++++++++@$%.",
".%@.++++++++++++++++++++++++@$%.",
".%@.++++++++++++++++++++++++@$%.",
".%@.+$$$%++$$$%++$$$%++$$$%+@$%.",
".%@.+$$$%++$$$%++$$$%++$$$%+@$%.",
".%@.+%%%%++%%%%++%%%%++%%%%+@$%.",
".%@.++++++++++++++++++++++++@$%.",
".%@.+$$$%++$$$%++$$$%++$$$%+@$%.",
".%@.+$$$%++$$$%++$$$%++$$$%+@$%.",
".%@.+$$$%++$$$%++$$$%++$$$%+@$%.",
".%@.+%%%%++%%%%++%%%%++%%%%+@$%.",
".%@.++++++++++++++++++++++++@$%.",
".%@.+$$$%++$$$%++$$$%++$$$%+@$%.",
".%@.+$$$%++$$$%++$$$%++$$$%+@$%.",
".%@.+%%%%++%%%%++%%%%++%%%%+@$%.",
".%@.++++++++++++++++++++++++@$%.",
".%@.++++++++++++++++++++++++@$%.",
".%@.++++++++++++++++++++++++@$%.",
".%@.@@@@@@@@@@@@@@@@@@@@@@@@@$%.",
".%@$$$$$$$$$$$$$$$$$$$$$$$$$$$%.",
"..%%%%%%%%%%%%%%%%%%%%%%%%%%%%.."};
