/* XPM */
static char * xpad_xpm[] = {
"48 48 215 2",
"  	c None",
". 	c #0A0A05",
"+ 	c #0C0B07",
"@ 	c #110F0A",
"# 	c #060604",
"$ 	c #292718",
"% 	c #7D7449",
"& 	c #C5B773",
"* 	c #0E0C07",
"= 	c #080805",
"- 	c #48432A",
"; 	c #998F5A",
"> 	c #E1D184",
", 	c #F6E590",
"' 	c #F5E48F",
") 	c #514C2F",
"! 	c #0D0B06",
"~ 	c #0B0A06",
"{ 	c #18170F",
"] 	c #68613D",
"^ 	c #B6AA6B",
"/ 	c #F2E18E",
"( 	c #F7E691",
"_ 	c #A2975F",
": 	c #12110B",
"< 	c #13110B",
"[ 	c #070604",
"} 	c #34311F",
"| 	c #898050",
"1 	c #D2C47C",
"2 	c #F8E792",
"3 	c #E7D787",
"4 	c #080604",
"5 	c #100F09",
"6 	c #544E31",
"7 	c #A59A61",
"8 	c #EADA8A",
"9 	c #F9E893",
"0 	c #33301E",
"a 	c #0F0E09",
"b 	c #211F14",
"c 	c #756D45",
"d 	c #C2B573",
"e 	c #F8E793",
"f 	c #877E4F",
"g 	c #0C0C07",
"h 	c #13120C",
"i 	c #080705",
"j 	c #3F3A25",
"k 	c #958B58",
"l 	c #DECF84",
"m 	c #FAE994",
"n 	c #D1C279",
"o 	c #0D0C08",
"p 	c #0B0905",
"q 	c #13110A",
"r 	c #605A39",
"s 	c #B1A569",
"t 	c #F2E290",
"u 	c #FBEA95",
"v 	c #F4E38E",
"w 	c #19170F",
"x 	c #12100A",
"y 	c #0B0906",
"z 	c #2B271A",
"A 	c #81794D",
"B 	c #CEC07A",
"C 	c #FCEB96",
"D 	c #6B643E",
"E 	c #0D0B08",
"F 	c #4A452C",
"G 	c #9F945F",
"H 	c #E7D88A",
"I 	c #B7AA6A",
"J 	c #12110A",
"K 	c #0A0A06",
"L 	c #776F46",
"M 	c #F0DF8C",
"N 	c #0A0906",
"O 	c #222014",
"P 	c #4B462B",
"Q 	c #9C915B",
"R 	c #948A58",
"S 	c #E1D182",
"T 	c #3F3B26",
"U 	c #F3E28D",
"V 	c #2E2B1B",
"W 	c #090905",
"X 	c #F1E18F",
"Y 	c #80774B",
"Z 	c #0C0A07",
"` 	c #15140D",
" .	c #AFA468",
"..	c #CABC75",
"+.	c #5F5939",
"@.	c #F2E18C",
"#.	c #645D3A",
"$.	c #11100A",
"%.	c #CBBD78",
"&.	c #B0A366",
"*.	c #0B0B06",
"=.	c #80774C",
"-.	c #ECDC89",
";.	c #2B2718",
">.	c #464028",
",.	c #E4D486",
"'.	c #958B56",
").	c #0F0E08",
"!.	c #9D925C",
"~.	c #F1E08B",
"{.	c #DBCC7E",
"].	c #070704",
"^.	c #49442B",
"/.	c #282517",
"(.	c #797146",
"_.	c #0A0907",
":.	c #14130B",
"<.	c #C3B570",
"[.	c #464129",
"}.	c #E9D988",
"|.	c #7A7247",
"1.	c #F0DF8A",
"2.	c #C4B673",
"3.	c #F0E08D",
"4.	c #8C8251",
"5.	c #18160D",
"6.	c #010100",
"7.	c #E0D083",
"8.	c #5C5635",
"9.	c #B4A86A",
"0.	c #EBDB89",
"a.	c #9D925B",
"b.	c #1E1B10",
"c.	c #413C1F",
"d.	c #9B8E4A",
"e.	c #A89D61",
"f.	c #18160B",
"g.	c #2F2C19",
"h.	c #615A37",
"i.	c #726A42",
"j.	c #595332",
"k.	c #34301C",
"l.	c #110F08",
"m.	c #3B351A",
"n.	c #8E803D",
"o.	c #BAA954",
"p.	c #B2A354",
"q.	c #E8D785",
"r.	c #3D350F",
"s.	c #4B4217",
"t.	c #5C521E",
"u.	c #7B6D2B",
"v.	c #A2913D",
"w.	c #AB9A45",
"x.	c #B1A04B",
"y.	c #B6A550",
"z.	c #BBAA56",
"A.	c #050503",
"B.	c #EDDD8A",
"C.	c #EFDE89",
"D.	c #3E3A24",
"E.	c #95842F",
"F.	c #9B8B36",
"G.	c #A1903B",
"H.	c #A79641",
"I.	c #AD9C47",
"J.	c #B2A14C",
"K.	c #B8A752",
"L.	c #342F1A",
"M.	c #B9AC6B",
"N.	c #8E8452",
"O.	c #0E0E09",
"P.	c #9F8E39",
"Q.	c #A3923D",
"R.	c #A99843",
"S.	c #AE9D48",
"T.	c #B3A24D",
"U.	c #675E2E",
"V.	c #706840",
"W.	c #CABB74",
"X.	c #6F673F",
"Y.	c #050403",
"Z.	c #A4933E",
"`.	c #9B8D42",
" +	c #E6D685",
".+	c #EADA87",
"++	c #AFA365",
"@+	c #625B39",
"#+	c #16150D",
"$+	c #A89742",
"%+	c #4A4320",
"&+	c #716941",
"*+	c #D8C97C",
"=+	c #938854",
"-+	c #443E27",
";+	c #090805",
">+	c #94863B",
",+	c #1E1B0E",
"'+	c #9A8F59",
")+	c #BFB16E",
"!+	c #746C43",
"~+	c #252215",
"{+	c #080704",
"]+	c #141209",
"^+	c #736B42",
"/+	c #EDDD89",
"(+	c #E5D584",
"_+	c #A3975E",
":+	c #565032",
"<+	c #16150C",
"[+	c #15140B",
"}+	c #635C3A",
"|+	c #8B8150",
"1+	c #6C643E",
"2+	c #35321F",
"                                                                                                ",
"                                                                                                ",
"                                                                                                ",
"                                                                                                ",
"                                                                    . + +                       ",
"                                                              @ # $ % & *                       ",
"                                                      # @ = - ; > , ' ' )                       ",
"                                                ! ~ { ] ^ / ( , , , ' ' _ :                     ",
"                                          < [ } | 1 2 ( ( ( ( , , , ' ' 3 =                     ",
"                                  4 5 + 6 7 8 9 2 2 2 ( ( ( ( , , , ' ' ' 0                     ",
"                            a ~ b c d e 9 9 9 9 2 2 2 ( ( ( , , , , ' ' ' f g                   ",
"                      h i j k l m m m m 9 9 9 2 2 2 2 ( ( ( , , , , ' ' ' n o                   ",
"              p 5 q r s t u u u m m m m 9 9 9 2 2 2 2 ( ( ( , , , ' ' ' ' v w                   ",
"        x y z A B C C C u u u u m m m 9 9 9 9 2 2 2 ( ( ( ( , , , ' ' ' ' v D                   ",
"  E + F G H C C C C u u u u u m m m m 9 9 9 2 2 2 2 ( ( ( ( , , , ' ' ' v v I J                 ",
"  K L C C C C C C u u u u u m m m m 9 9 9 9 2 2 2 2 ( ( ( , , , , ' ' ' v v M N                 ",
"    O C C C C u u u u u u m m m m m 9 9 9 9 2 2 2 ( ( ( ( , , , ' ' ' ' v v v P                 ",
"    o l u u u u u u u u m m m m m 9 9 9 9 2 2 2 2 ( ( ( , , , , ' ' ' ' v v v Q @               ",
"    < R u u u u u u m m m m m m 9 9 9 9 2 2 2 2 ( ( ( ( , , , , ' ' ' v v v v S i               ",
"      T u u u u m m m m m m m 9 9 9 9 2 2 2 2 2 ( ( ( , , , , ' ' ' ' v v v U U V               ",
"      W X m m m m m m m m m 9 9 9 9 9 2 2 2 2 ( ( ( ( , , , , ' ' ' v v v v U U Y Z             ",
"      `  .m m m m m m m 9 9 9 9 9 9 2 2 2 2 ( ( ( ( , , , , ' ' ' ' v v v v U U ..o             ",
"        +.m m m m m 9 9 9 9 9 9 2 2 2 2 2 ( ( ( ( ( , , , , ' ' ' v v v v U U U U `             ",
"        q 9 9 9 9 9 9 9 9 9 9 2 2 2 2 2 ( ( ( ( ( , , , , ' ' ' ' v v v v U U U @.#.            ",
"        $.%.9 9 9 9 9 9 9 2 2 2 2 2 2 ( ( ( ( ( , , , , ' ' ' ' v v v v U U U U @.&.$.          ",
"        *.=.9 9 9 9 9 2 2 2 2 2 2 2 ( ( ( ( ( , , , , ' ' ' ' ' v v v U U U U @.@.-.=           ",
"          ;.9 9 2 2 2 2 2 2 2 2 2 ( ( ( ( ( , , , , , ' ' ' ' v v v v U U U U @.@.@.>.          ",
"          *.,.2 2 2 2 2 2 2 2 ( ( ( ( ( ( , , , , , ' ' ' ' v v v v U U U U @.@.@.@.'.).        ",
"          x !.2 2 2 2 2 2 ( ( ( ( ( ( , , , , , , ' ' ' ' v v v v U U U U U @.@.@.~.{.].        ",
"            ^.2 2 ( ( ( ( ( ( ( ( ( , , , , , , ' ' ' ' v v v v v U U U U @.@.@.@.~.~./.        ",
"            ~ / ( ( ( ( ( ( ( ( , , , , , , ' ' ' ' ' v v v v v U U U U @.@.@.@.~.~.~.(._.      ",
"            :.^ ( ( ( ( ( ( , , , , , , , ' ' ' ' ' v v v v v U U U U @.@.@.@.@.~.~.~.<.+       ",
"              [.( ( ( , , , , , , , , }.|.& ' ' ' v v v v v U U U U U @.@.@.@.~.~.~.~.1.J       ",
"              o 2., , , , , , , , 3.4.5.6.7.' ' v v v v v U U U U U @.@.@.@.~.~.~.~.1.1.8.      ",
"                ).9., , , , , 0.a.b.c.d.).' v v v v v v U U U U U @.@.@.@.~.~.~.~.1.1.1.e.5     ",
"                  f.g.h.i.j.k.l.m.n.o.p.).v v v v v v U U U U U @.@.@.@.~.~.~.~.~.1.1.1.q.#     ",
"                      r.s.t.u.v.w.x.y.z.A.B.v v v U U U U U U @.@.@.@.~.~.~.~.~.1.1.1.1.C.D.    ",
"                          E.F.G.H.I.J.K.L.M.v v U U U U U U @.@.@.@.~.~.~.~.~.1.1.1.1.C.C.N.O.  ",
"                              P.Q.R.S.T.U.V.U U U U U U @.@.@.@.@.~.~.~.~.~.1.1.1.1.C.C.W.X.Y.  ",
"                                  Z.R.I.`.:. +U U U U @.@.@.@.@.~.~.~.~.~.1.1.1..+++@+#+o Z     ",
"                                      $+w.%+&+U U @.@.@.@.@.@.~.~.~.~.~.1.*+=+-+;+$.            ",
"                                          >+,+'+@.@.@.@.@.@.~.~.~.1.)+!+~+{+5                   ",
"                                              ]+^+/+@.@.~.~.(+_+:+o o W                         ",
"                                                <+[+}+|+1+2+A.5                                 ",
"                                                      *.                                        ",
"                                                                                                ",
"                                                                                                ",
"                                                                                                "};
