/* XPM */
static char *xterm_xpm[] = {
/* width height ncolors chars_per_pixel */
"48 48 447 2",
/* colors */
"   c black",
" . c #261F22",
" X c #515956",
" o c #8D8D87",
" O c #C7C3B6",
" + c #F80000",
" @ c #720000",
" # c #E10707",
" $ c #797770",
" % c #C3BFB2",
" & c #2E2D2D",
" * c #250000",
" = c #85857F",
" - c #823737",
" ; c #270F0F",
" : c #621111",
" > c #D00000",
" , c #949287",
" < c #830000",
" 1 c #E7E7DF",
" 2 c #5D5151",
" 3 c #E70606",
" 4 c #F50000",
" 5 c #1E1D1D",
" 6 c #797373",
" 7 c #67635E",
" 8 c #A80000",
" 9 c #DFDFD7",
" 0 c #73736D",
" q c #DFDBD7",
" w c #A9A6A2",
" e c #959195",
" r c #88827B",
" t c #2D0E0E",
" y c #726F6C",
" u c #0E0000",
" i c #470000",
" p c #6F6B69",
" a c #D7D7CF",
" s c #A76F68",
" d c #B90000",
" f c #0E090D",
" g c #9D9A96",
" h c #F20000",
" j c #9F6B60",
" k c #A70202",
" l c #9B9894",
" z c #55514C",
" x c #CFCFC7",
" c c #DE0000",
" v c #330D0D",
" b c #7F5151",
" n c #5F5F59",
" m c #96928F",
" M c #9A1716",
" N c #94948D",
" B c #95928E",
" V c #5D5F57",
" C c #544641",
" Z c #BC0606",
" A c #BB0605",
" S c #909089",
" D c #797D79",
" F c #A4A196",
" G c #8E8E87",
" H c #8F8C88",
" J c #343232",
" K c #797979",
" L c #8D8A86",
" P c #8B403F",
" I c #DA0909",
" U c #EF0000",
" Y c #898682",
" T c #BDBDB5",
" R c #717571",
" E c #888481",
" W c #86867F",
" Q c #878480",
" ! c #717171",
" ~ c #86827F",
" ^ c #BBB7B3",
" / c #D40303",
" ( c #C50708",
" ) c #4D4D47",
" _ c #83807C",
" ` c #D20101",
" ' c #98918A",
" ] c #8E0000",
" [ c #4B4B45",
" { c #696D69",
" } c #410000",
" | c #938F85",
".  c dim gray",
".. c #7D7A76",
".X c #B1B1A9",
".o c #928B84",
".O c #7A7A73",
".+ c #B1ADA9",
".@ c #E00808",
".# c #8E8B80",
".$ c #7B7474",
".% c #536B67",
".& c gray39",
".* c #8E8780",
".= c #616561",
".- c #41413B",
".; c #E50303",
".: c #797272",
".> c gray38",
"., c #D50707",
".< c #E30101",
".1 c #A9A5A1",
".2 c #73706C",
".3 c #595D59",
".4 c #EFEBDF",
".5 c red4",
".6 c #050000",
".7 c gray35",
".8 c #726D61",
".9 c #A19D99",
".0 c #B6AEA7",
".q c #555555",
".w c #770000",
".e c #B2AEA3",
".r c #515551",
".t c #76605B",
".y c #E7E3D7",
".u c #6C655B",
".i c #515151",
".p c #4F534F",
".a c #E7DFD7",
".s c #64645D",
".d c #E20303",
".f c #999591",
".g c #95958D",
".h c #7D0809",
".j c #494D49",
".k c #DFDBCF",
".l c #95918D",
".z c #494949",
".x c #A8A499",
".c c #DFD7CF",
".v c #948F8C",
".b c #5C5C55",
".n c #494549",
".m c #020000",
".M c #C6C6BD",
".N c #710707",
".B c #A7A098",
".V c #474347",
".C c #740000",
".Z c #D7D3C7",
".A c #664E4B",
".S c #502325",
".D c #922424",
".F c #414141",
".G c #D7CFC7",
".H c #757474",
".J c #3F3F3F",
".K c #403B40",
".L c #3F3B3F",
".P c #D70605",
".I c #8D0808",
".U c #9C988D",
".Y c #3E393E",
".T c #3D393D",
".R c #DD0101",
".E c #3C373C",
".W c #3F1E1E",
".Q c #483134",
".! c #D20000",
".~ c #373737",
".^ c #262323",
"./ c #353535",
".( c #726767",
".) c gray20",
"._ c #482A2A",
".` c #4E0F0F",
".' c #65504D",
".] c #2F332F",
".[ c #CB1010",
".{ c #2F2F2F",
".} c #B41717",
".| c #2D312D",
"X  c #797571",
"X. c #1E1B1B",
"XX c #2D2D2D",
"Xo c #E30000",
"XO c #272B27",
"X+ c #272727",
"X@ c #BBB7AB",
"X# c #272327",
"X$ c #252525",
"X% c #252125",
"X& c #7A7D4A",
"X* c #B9B1A9",
"X= c #55403D",
"X- c #350000",
"X; c gray12",
"X: c #C91211",
"X> c #6B6363",
"X, c #DF0909",
"X< c #B3AFA3",
"X1 c #E60606",
"X2 c #1F1B1F",
"X3 c #F40000",
"X4 c #1D1D1D",
"X5 c #1C191C",
"X6 c #D30807",
"X7 c #605F58",
"X8 c #342323",
"X9 c #A9A199",
"X0 c #55514D",
"Xq c #78786C",
"Xw c #79766D",
"Xe c #E80101",
"Xr c #B6BAB6",
"Xt c #B6B6B6",
"Xy c #B6B2B6",
"Xu c #992D2D",
"Xi c #900000",
"Xp c #888561",
"Xa c #C61414",
"Xs c #C7BEB6",
"Xd c #2F2E2E",
"Xf c red2",
"Xg c #9C998F",
"Xh c #4A080A",
"Xj c #410B0B",
"Xk c #A10000",
"Xl c gray65",
"Xz c #C50909",
"Xx c #9A938D",
"Xc c #969389",
"Xv c #524643",
"Xb c #5B5959",
"Xn c #751F1D",
"Xm c #401A17",
"XM c #7E7C78",
"XN c gray62",
"XB c #9E9A9E",
"XV c #F50100",
"XC c #8D8B80",
"XZ c #7D413F",
"XA c #650000",
"XS c gray59",
"XD c #A9A9A2",
"XF c #969296",
"XG c #180000",
"XH c #735456",
"XJ c #867F79",
"XK c #151414",
"XL c #5E5E55",
"XP c #8A0000",
"XI c #6E6C68",
"XU c #8E8E8E",
"XY c #6E6868",
"XT c #8E8A8E",
"XR c #C30000",
"XE c #9F9F98",
"XW c #610909",
"XQ c #8C888C",
"X! c #878E87",
"X~ c #696663",
"X^ c #9D9D96",
"X/ c #F30101",
"X( c #9B9B94",
"X) c #868686",
"X_ c #745C5A",
"X` c #880B0B",
"X' c #868286",
"X] c #745A5A",
"X[ c #620000",
"X{ c #773F3C",
"X} c #150000",
"X| c #66453F",
"o  c #96938F",
"o. c #831D1D",
"oX c #A78A82",
"oo c #91918A",
"oO c #870000",
"o+ c #010000",
"o@ c #7C7C7C",
"o# c #8F8F88",
"o$ c #250909",
"o% c #908D89",
"o& c #8F8B88",
"o* c #8D8D86",
"o= c #8E8B87",
"o- c #A39C95",
"o; c #8D8986",
"o: c #898982",
"o> c #BEBEB6",
"o, c #52524C",
"o< c #53504D",
"o1 c #862523",
"o2 c #BEBAB6",
"o3 c #9C988E",
"o4 c #9D968F",
"o5 c #5F0000",
"o6 c #8B201E",
"o7 c #BCB8B4",
"o8 c #86837F",
"o9 c #BABAB2",
"o0 c #DC0101",
"oq c #4E4E48",
"ow c #867F7F",
"oe c #980000",
"or c #4E4A48",
"ot c #979489",
"oy c #817D7A",
"ou c #C80101",
"oi c #7F7F78",
"op c #807D79",
"oa c #716967",
"os c #3D3034",
"od c #251F23",
"of c #370000",
"og c #B2AEAA",
"oh c #970D0C",
"oj c #B72907",
"ok c #918A83",
"ol c #69695F",
"oz c #8F8C81",
"ox c #7C7575",
"oc c #797972",
"ov c #F60000",
"ob c #D10D0D",
"on c #AEAEA6",
"om c #8F8881",
"oM c #7A7373",
"oN c #CF0B0B",
"oB c #8D867F",
"oV c #A90000",
"oC c #230000",
"oZ c #787171",
"oA c #AF7B6F",
"oS c #76736F",
"oD c #74716D",
"oF c #A8A8A0",
"oG c #5B1816",
"oH c #C20808",
"oJ c #950000",
"oK c #596259",
"oL c #D00202",
"oP c #8D1919",
"oI c #585858",
"oU c #A29E9A",
"oY c #817A73",
"oT c #AC1E1D",
"oR c #525652",
"oE c #D70C0C",
"oW c #D60C0B",
"oQ c #F30000",
"o! c #787174",
"o~ c #505050",
"o^ c #9A9692",
"o/ c #484C48",
"o( c #987B6F",
"o) c #484848",
"o_ c #C7C7BE",
"o` c #5B5B54",
"o' c #484448",
"o] c #C7C3BE",
"o[ c #615850",
"o{ c #962928",
"o} c #595952",
"o| c #B00303",
"O  c #414441",
"O. c #310000",
"OX c #8B3E3E",
"Oo c #A19992",
"OO c gray25",
"O+ c #F00000",
"O@ c #A09991",
"O# c #413C41",
"O$ c #3E3E3E",
"O% c #3F3A3F",
"O& c #1D0000",
"O* c #524F4B",
"O= c #D70505",
"O- c #514F4A",
"O; c #9B978C",
"O: c #86827E",
"O> c #583030",
"O, c #DC0000",
"O< c gray22",
"O1 c #090000",
"O2 c #181212",
"O3 c gray21",
"O4 c #E7E7E7",
"O5 c #6E6C63",
"O6 c #958D86",
"O7 c #343434",
"O8 c #918D82",
"O9 c #303430",
"O0 c #882A27",
"Oq c gray19",
"Ow c #654D4D",
"Oe c #7B7673",
"Or c #2C302C",
"Ot c #797471",
"Oy c #9B0505",
"Ou c #2C2C2C",
"Oi c #2C1215",
"Op c #E40101",
"Oa c #282C28",
"Os c #755656",
"Od c #272A27",
"Of c #282828",
"Og c #262A26",
"Oh c #793B39",
"Oj c #BCB8AC",
"Ok c #252825",
"Ol c gray15",
"Oz c #716C69",
"Ox c #262226",
"Oc c #BAB2AA",
"Ov c #4C423E",
"Ob c #1E1E1E",
"On c #1E1A1E",
"Om c #B0ACA0",
"OM c #4F3737",
"ON c #B41110",
"OB c #C2090A",
"OV c #161616",
"OC c #D60000",
"OZ c #997C6F",
"OA c #C7C3C7",
"OS c #030000",
"OD c #464945",
"OF c #7A4C4A",
"OG c #C20000",
"OH c #BEC3BE",
"OJ c #513F3C",
"OK c #280000",
"OL c #79796D",
"OP c #413B40",
"OI c #79736D",
"OU c #E70000",
"OY c #610000",
"OT c #140000",
"OR c #B0110F",
"OE c #95958F",
"OW c #CFCBBE",
"OQ c #CFC7BE",
"O! c None",
/* pixels */
"O!O!O!O!O!O!O!O!O!O!O!O!O!O!O!O!O!O!O!O!O!O!O!O!O!O!O!O!O!O!O!O!O!O!O!O!O!O!O!O!O!O!O!O!O!O!O!O!",
"O!O!O!O!O!O!O!O!O!O!O!O!O!O!O!O!O!O!O!O!O!O!O!O!O!O!O!O!O!O!O!O!O!O!O!O!O!O!O!O!O!O!O!O!O!O!O!O!",
"O!O!O!O!O!O!O!O!O!O!O!O!O!O!O!O!O!O!O!O!O!O!O!O!O!O!O!O!O!O!O!O!O!O!O!O!O!O!O!O!O!O!O!O!O!O!O!O!",
"O!O!O!O!O!O!O!O!O!O!O!O!O!O!O!O!O!O!O!O!O!O!O!O!O!O!O!O!O!O!O!O!O!O!O!O!O!O!O!O!O!O!O!O!O!O!O!O!",
"O!O!O!O!O!O!O!O!O!O!O!O!O!O!O!O!O!O!O!O!O!O!O!O!O!O!O!O!O!O!O!O!O!O!O!O!O!O!O!O!O!O!O!O!O!O!O!O!",
"O!O!O!O!O!O!O!O!O!O!O!O!O!O!O!O!O!O!O!O!O!O!O!O!O!O!O!O!O!O!O!O!O!O!O!O!O!O!O!O!O!O!O!O!O!O!O!O!",
"O!O!O!O!O!O!O!O!O!O!O!O!O!O!O!O!O!O!O!O!O!O!O!O!O!O!O!O!O!O!O!O!O!O!O!O!O!O!O!O!O!O!O!O!O!O!O!O!",
"O!O!O!O!O!O!O!O!O!O!O!O!O!O!O!O!O!O!O!O!O!O!O!O!O!O!O!O!O!O!O!O!O!O!O!O!O!O!O!O!O!O!O!O!O!O!O!O!",
"O!O!O!O!O!O!O!O!O!O!O!O!O!O!O!O!O!O!O!O!O!O!O!O!O!O!O!O!O!O!O!O!O!O!O!O!O!O!O!O!O!O!O!O!O!O!O!O!",
"O!O!O!O!O!O!O!O! a.4.4.4.4.4 1 1.y.y 9 9 q.c a a.Z.G xOWOWOQo_o]Xs To7X@.0X(oz..O!O!O!O!O!O!O!O!",
"O!O!O!O!O!O!O! a.4.4.4.4.4 1 1.y.y 9 9 q.c a a.Z x xOWOWOQo_o]Xso>o2OjX*on w F _O!O!O!O!O!O!O!O!",
"O!O!O!O!O!O!O!.4.4Xy K K K K K K R R ! { {. .=.>.>.3.3.7.7.r.i.j.j.zo'.VO$o@o-ok  O!O!O!O!O!O!O!",
"O!O!O!O!O!O!O!.4.4 KXUOAXBXSXTX'X)XUX' R R ! { {.>.>.>.i.j.j.z.n.zo'o'.J.Y.Eo-o     O!O!O!O!O!O!",
"O!O!O!O!O!O!O!.4.4XTXtO4XtXlX' D K K R R. .=.=.>.7.7.7.r.i.j.j.z.no'OO.L.TO7 lot    O!O!O!O!O!O!",
"O!O!O!O!O!O!O!.4.4 KXlOHXSX)XFXF { DXSXSXS RX'XU D. XTX)XN.>.3XU.7oI.KO%./.).U S    O!O!O!O!O!O!",
"O!O!O!O!O!O!O!.4 1 KXlXr R RX' { {. .=.=.>.3.3.7.r.r.i.i.j.z.n.n.F.F.KO3./Or.go%    O!O!O!O!O!O!",
"O!O!O!O!O!O!O! 1 1 KXBXFX)X' DXUXTXS RXF !.3 D.r.r K.j.>.3.n.n.FO#O#.~O3.|Ou.l H    O!O!O!O!O!O!",
"O!O!O!O!O!O!O!.y.y KXTXU ! { {. .=.=.>.3.3.7.r.r.i.i.j.z.n.nOOOPO#.~.~.]XXOu.v.*    O!O!O!O!O!O!",
"O!O!O!O!O!O!O!.y.aX)XSXFXBXU KXS R RX' { D.H 2OM.'OwX=Xv.q { K.=.io~.].{XXOkO6o:    o+OKO!O!O!O!",
"O!O!O!O!O!O!O!.a 9 !X) K {. .=.=.>.3.3.7.r.pO>Xz.PO=O=OB._.KO#O<O<O9.{.{OgX$o* Y     i >X[O!O!O!",
"O!O!O!O!O!O!O! 9 q ! K { K.=.=.>.3.3.7.r.r.iODXn + + + + (osO<O<O9Oq.{OdOlX$ L Y  oC.!oeO!O!O!O!",
"O!O!O!O!O!O!O! q 9 DX). X) RXF ! {XU. . X) R.>o!ON + + + +oPXbO9.>.{XOX+OlX% L r.6oVOCO!O!O!O!O!",
"O!O!O!O!O!O!O!.k a { R.=.=.>.3.3.7.r.r.i.j.j.zo'.QoH + + +XeoG &OqXOX+X+OxX4oBOe.wO,ofO!O!O!O!O!",
"O!O!O!O!O!O!O! a a.  !.=.>.3.3 {. . .i.j.>.z.n.n.J.S.d + + + /.WXOOfX+X#ObX4oyXZ co5.mO!O!O!O!O!",
"O!O!O!O!O!O!O! a.Z.= {.>X' { D. .  K R.>.> { {.7. .&o1 + + + + A.^OfX#X;ObX5X_ob 8.6  O!O!O!O!O!",
"O!O!O!O!O!O!O!.Z.G.=.>.>.3.7.r.r.i.j.j.z.n.n.FO#O#O< Joh 4 + + +X`odX;X;OnO2X:oW u    O!O!O!O!O!",
"O!O!O!O!O!O!O!.G x.>.3.3.7.r.r.i.j.j.z.n.n.FO#O#O<O<.]X8 Z + + +Op.` 5X2XK.NX1X{      O!O!O!O!O!",
"O!O!O!O!O!O!O! xOW.3.3.7.r.r.i.i.j.z.n.n.FO#O#O<O<O9OqXdXm.< + + +oLOiOVXj.Ro{Oz      O!O!O!O!O!",
"O!O!O!O!O!O!O!OWOW.3.7.r.r.i.j.j.z.n.n.FO#O#O<O<O9OqOqOaX+ :O+ + + hXW t ` koa 6      O!O!O!O!O!",
"O!O!O!O!O!O!O!OWOQ.7.r.r.i.i.j.z.n.n.FO#O#O<O<O9OqOqOaOfOf ..Iov +Oy ;o|OCo$ox.:      O!O!O!O!O!",
"O!O!O!O!O!O!O!OQo_.r.rXTXFXFX'XU DXBXT KXS RX'XN ! {XU.  KXQOs IXaXH.Dovo. f.$.:      O!O!O!O!O!",
"O!O!O!O!O!O!O!.M O e.io/o/o)o'o'OO.K.K.~.~.].{.{XOX+X+X#X#X..ho0 vXhXo +ouOJoMoZ      O!O!O!O!O!",
"O!O!O!O!O!O!O!X< %o9 ^X@Oc.X.+OmOmoF w.1X9.9.9oUO@.f.fo^o& P 3OX.toE + + +.}X>.s      O!O!O!O!O!",
"O!O!O!O!O!O!O!O!O;og.eXDXD.1.x.BXEoAoXOoO8 sOZoo ' jo(O: b.@O0 $X&ojXV + +X/o6O-      O!O!O!O!O!",
"O!O!O!O!O!O!O!O!O!.%XpX^X^ go3o4 N m Bo#o=o= H.* E ~owX].[oT.(.O.2.AoN + + +.; }      O!O!O!O!O!",
"O!O!O!O!O!O!O!O!O!O!        O .- ) y.8oq.bXwOLo`.uXq 7OR., Coro<    X-X3 + + +OCXG    O!O!O!O!O!",
"O!O!O!O!O!O!O!O!O!O!O!      O* [ n no,o, n noR nolo[ MX6X|XYo} V      XA U + + +OG u  O!O!O!O!O!",
"O!O!O!O!O!O!O!O!O!O! Xoi = |.o oo;XC W Qo8o8XJXMOt - #OhoDOI 0XIX~XLX7OvoJov + +oQXPO!O!O!O!O!O!",
"O!O!O!O!O!O!O!O!O!O!oKX! GXgXxOE ,Xc G Go&.#om _OFX,XuX opoYocoS pO5 zX0X}XR + + +Xf @O!O!O!O!O!",
"O!O!O!O!O!O!O!O!O!O!O!O!O!                    OTOCXiOS                    O.OU + + +oQO!O!O!O!O!",
"O!O!O!O!O!O!O!O!O!O!O!O!O!O!                O1Xk dOT                      O!.CX3 + + + >O!O!O!O!",
"O!O!O!O!O!O!O!O!O!O!O!O!O!O!O!O!O!           *X[O&              O!O!O!O!O!O!O!OY <oO.5 ]O!O!O!O!",
"O!O!O!O!O!O!O!O!O!O!O!O!O!O!O!O!O!O!O!O!O!O!O!O!O!O!O!O!O!O!O!O!O!O!O!O!O!O!O!O!O!O!O!O!O!O!O!O!",
"O!O!O!O!O!O!O!O!O!O!O!O!O!O!O!O!O!O!O!O!O!O!O!O!O!O!O!O!O!O!O!O!O!O!O!O!O!O!O!O!O!O!O!O!O!O!O!O!",
"O!O!O!O!O!O!O!O!O!O!O!O!O!O!O!O!O!O!O!O!O!O!O!O!O!O!O!O!O!O!O!O!O!O!O!O!O!O!O!O!O!O!O!O!O!O!O!O!",
"O!O!O!O!O!O!O!O!O!O!O!O!O!O!O!O!O!O!O!O!O!O!O!O!O!O!O!O!O!O!O!O!O!O!O!O!O!O!O!O!O!O!O!O!O!O!O!O!",
"O!O!O!O!O!O!O!O!O!O!O!O!O!O!O!O!O!O!O!O!O!O!O!O!O!O!O!O!O!O!O!O!O!O!O!O!O!O!O!O!O!O!O!O!O!O!O!O!",
"O!O!O!O!O!O!O!O!O!O!O!O!O!O!O!O!O!O!O!O!O!O!O!O!O!O!O!O!O!O!O!O!O!O!O!O!O!O!O!O!O!O!O!O!O!O!O!O!"
};
