/* XPM */
static char *xterm_color_32x32_xpm[] = {
/* width height ncolors chars_per_pixel */
"32 32 10 1",
/* colors */
"  c black",
". c #FF5E00",
"X c red",
"o c #555500",
"O c #49FF00",
"+ c #60B7FF",
"@ c #3A709B",
"# c #980000",
"$ c white",
"% c #2FA300",
/* pixels */
"oooooooooooooooooooooooooooooooo",
"ooooo                       oooo",
"oooo $$                   $$  oo",
"oooo $                     $ $ o",
"oooo                         $$ ",
"oooo   X# #X                 $$ ",
"oooo    #X#                  $$ ",
"oooo    #X                   $$ ",
"oooo    #X#                  $$ ",
"oooo   X# #X                 $$ ",
"oooo                         $$ ",
"oooo                         $$ ",
"oooo                         $$ ",
"oooo   $$$$ ... OOO% +  +    $$ ",
"oooo     $  .   O O% +@++    $$ ",
"oooo     $  ... OOO% ++@+    $$ ",
"oooo     $  .   O O  +  +    $$ ",
"oooo     $  ... O %O +  +    $$ ",
"oooo                         $ o",
"oooo                         $ o",
"oooo $                     $  oo",
"oooo $$                   $$ ooo",
"ooooo                       oooo",
"oooooooooooooooooooooooooooooooo",
"ooooo                        ooo",
"oooo $$$$$$$$$$$$$$$$$$$$$$$ ooo",
"ooo $$$$$$$$$$$$$$$$$$$$$$$ oooo",
"ooo $$  $$  $  $$  $$ $$  $ oooo",
"oo $  $$  $$ $$  $$  $  $$$ oooo",
"oo $$$$$$$$$$$$$$$$$$$$$$$ o ooo",
"o $$$$$$$$$$$$$$$$$$$$$$$ oooooo",
"o                          ooooo"
};
